<?xml version="1.0" encoding="UTF-8"?>
<svg width="278px" height="261px" viewBox="0 0 278 261" version="1.1" xmlns="http://www.w3.org/2000/svg" xmlns:xlink="http://www.w3.org/1999/xlink">
    <title>Logo_Cashback</title>
    <defs>
        <path d="M105.034474,140.89293 C104.065167,143.854113 102.358493,147.306656 99.9646497,151.148121 C97.2012578,155.524352 94.5858583,157.744154 92.1920148,157.744154 C91.73419,157.744154 90.3425413,157.744154 90.3425413,153.877514 C90.3425413,148.868418 91.8103499,143.374038 94.7052908,137.550639 C97.5370536,131.857458 100.572198,128.970934 103.72764,128.970934 C105.272474,128.970934 106.902122,129.765271 108.573312,131.333977 C107.175606,134.770026 105.986473,137.983834 105.034474,140.89293 M66.4845937,144.057255 C64.7960945,142.287143 63.9418922,139.840759 63.9418922,136.77106 C63.9418922,135.704999 64.1245028,134.585983 64.4853968,133.443527 C64.8402326,132.318434 65.3404646,131.368702 65.9722454,130.622113 C66.5486372,129.942369 67.1752253,129.610744 67.8883587,129.610744 C68.6612084,129.610744 69.0532587,130.589124 69.0532587,132.517235 C69.0532587,135.773582 68.1895364,139.651507 66.4845937,144.057255 M226.454959,46.322585 C226.058581,45.6228742 225.646625,44.9248996 225.232939,44.2460239 C217.449918,31.5088562 204.992585,20.8482496 189.206719,13.4170777 C174.571041,6.5284854 157.629795,2.29028662 138.856385,0.822282898 C131.468876,0.244109937 123.762016,0.12517646 116.036115,0.46808685 C86.069799,1.79198139 59.7487716,9.91939169 39.918643,23.9726408 C19.0162179,38.7855015 5.27282147,59.4399926 1.2190388,82.131111 C-2.65472961,103.819542 2.80195266,128.286849 16.1896478,149.259943 C29.0935547,169.475162 50.1560886,185.58761 75.4982885,194.631763 C86.6816744,198.623413 98.5504993,201.163554 110.848589,202.201835 C110.599338,202.430152 110.314604,202.6168 110.003907,202.742678 C108.892665,203.687201 107.746805,204.595263 106.560268,205.459918 C104.026221,207.309029 101.346778,208.981911 98.5479029,210.396091 C96.5781315,211.390965 94.4837348,212.094149 92.4637671,212.972694 C89.7410514,214.158556 86.975063,216.566742 87.446735,219.878648 C87.5713603,220.760666 88.0698613,221.628794 88.8773291,222.002957 C91.4286851,223.18361 95.8139363,220.233713 97.9957438,219.139872 C101.128684,217.567693 104.134403,215.768064 106.964435,213.694976 C110.672902,210.978605 114.065478,207.833378 117.079852,204.360868 C118.011945,203.287863 119.011543,202.207912 119.920269,201.064588 C119.992102,201.061115 120.063934,201.059379 120.136632,201.055907 C120.117592,200.990797 120.096822,200.926556 120.077782,200.861446 C121.121518,199.520189 122.026782,198.087778 122.532207,196.467852 C122.949355,195.132672 123.233224,193.356483 122.347,192.142841 C121.360383,190.793771 119.363783,190.579343 117.884723,190.124444 C114.403005,189.051439 110.993985,187.73883 107.689685,186.201376 C101.075026,183.126468 94.8662651,179.148707 89.3637138,174.347962 C87.8275344,173.009309 86.3476095,171.605547 84.9308626,170.140148 C84.7335393,169.937006 84.5379469,169.732996 84.3432199,169.526381 C83.4578613,168.587935 82.8217532,167.178096 81.6533915,166.556517 C80.4365643,165.908026 79.2630098,166.998394 78.8588432,168.10352 C78.3361094,169.53159 78.9012504,171.151516 79.5416857,172.44329 C79.9969141,173.358296 80.562055,174.191699 81.0674797,174.810674 C83.1887054,177.40898 85.4925417,179.855363 87.9530251,182.13333 C90.4074503,184.406088 93.0167916,186.510429 95.7516237,188.4342 C97.1199052,189.395217 98.5193429,190.312828 99.9473407,191.182692 C100.161108,191.313779 100.381798,191.436185 100.597296,191.564668 C102.097126,192.346851 103.557146,193.20022 105.005049,194.084842 C105.315747,194.215929 105.614328,194.369588 105.909448,194.53106 C101.506887,194.129985 97.159716,193.520559 92.9120718,192.690629 C69.6305159,188.139036 49.9795361,177.55743 36.0846854,162.091737 C21.2161999,145.542621 10.9086526,122.236868 10.4620787,100.816689 C10.0068503,78.9459509 18.8188946,57.8000996 35.2754867,41.2744232 C51.4958101,24.9857456 75.562332,15.529232 101.987214,11.0297268 C127.126032,6.74725355 152.566894,8.06767558 173.623369,14.7453128 C190.342194,20.0487042 203.990391,28.969583 213.091496,40.5443279 C222.759474,52.8404868 228.930155,69.4712066 230.468065,87.371129 C231.119751,94.952487 230.903388,102.448769 229.823302,109.649887 C228.999391,115.150343 227.621589,120.368658 225.727978,125.158118 C223.646563,130.356466 221.057127,135.042618 218.028906,139.085488 C214.805093,143.427862 211.068932,147.203349 206.922546,150.308641 C204.728622,151.954611 202.507869,153.35056 200.320869,154.458291 C193.941614,157.689462 188.933236,158.596655 185.012733,157.238904 C181.827,156.135514 180.525359,152.364367 179.47816,149.333734 L179.409789,149.139274 C177.780141,144.427945 176.777081,139.398014 176.01202,135.063453 C179.524895,131.020583 182.802366,128.970934 185.756158,128.970934 C186.82153,128.970934 188.266837,129.371141 188.518684,132.828025 C188.735047,136.255392 190.285074,136.974202 191.54777,136.974202 C193.553891,136.974202 194.589838,135.123354 194.623591,131.465933 C194.623591,129.039516 194.005657,126.92823 192.787099,125.191975 C191.524403,123.392346 189.558093,122.479944 186.942694,122.479944 C180.628347,122.479944 173.933202,127.767709 167.046791,138.191317 C166.68157,138.736501 166.325868,139.279081 165.981418,139.819924 C167.29258,135.869944 168.94473,131.413845 170.916232,126.512397 C173.297959,120.642986 175.687475,115.158156 178.017275,110.211565 C180.599788,104.737153 180.898369,103.144139 180.898369,102.421857 C180.898369,101.307181 180.309861,100.238516 179.149288,99.2445097 C178.014679,98.2739431 176.755445,97.7817148 175.406203,97.7817148 C173.633755,97.7817148 172.094114,99.1724551 170.699869,102.034672 C166.634835,110.40429 163.265626,118.536909 160.687441,126.206816 C158.857007,131.657789 157.422952,136.817939 156.423353,141.544894 C155.502511,144.290781 154.186157,146.899504 152.508043,149.296405 C150.763289,151.787063 148.667162,153.845393 146.277646,155.413232 C143.922747,156.960235 141.341966,157.744154 138.60973,157.744154 C134.849336,157.744154 133.021499,154.938366 133.021499,149.166186 C133.021499,147.539314 133.29931,145.553039 133.849738,143.26205 C134.399301,140.964984 135.228405,138.698303 136.312818,136.522776 C137.388576,134.36461 138.699738,132.532861 140.211684,131.075275 C141.680358,129.659359 143.318661,128.970934 145.220927,128.970934 C146.283704,128.970934 147.721221,129.370273 147.937585,132.835838 C148.196355,136.25626 149.728207,136.974202 150.965805,136.974202 C153.007409,136.974202 154.041626,135.12075 154.041626,131.465933 C154.041626,129.01 153.215984,126.877878 151.586335,125.131206 C149.947167,123.371511 147.497934,122.479944 144.309605,122.479944 C141.225995,122.479944 138.365673,123.36717 135.805662,125.117316 C133.279404,126.841417 131.073364,129.085527 129.248989,131.786272 C127.431537,134.472258 126.004405,137.38309 125.006537,140.436295 C124.672472,141.454608 124.387738,142.48768 124.158393,143.504258 C123.253129,146.077388 122.102077,148.676562 120.738122,151.22712 C118.39361,155.581648 116.061213,157.790165 113.804977,157.790165 C113.494279,157.790165 112.548339,157.790165 112.548339,155.111991 C112.548339,149.728732 114.357136,142.959942 117.925399,134.99053 C120.38069,129.478789 120.665424,127.885774 120.665424,127.165229 C120.665424,126.053157 120.085571,124.98536 118.940576,123.991354 C117.819814,123.018183 116.567503,122.525955 115.218262,122.525955 C113.566112,122.525955 112.087918,123.82641 110.713578,126.494166 C108.363007,123.829882 105.61779,122.479944 102.541969,122.479944 C96.733913,122.479944 91.6467793,125.964608 87.4216369,132.835838 C85.3471456,136.209382 83.7676936,139.632409 82.723957,143.009425 C81.1955667,145.753576 78.5645891,147.08702 74.7020716,147.087888 L74.2970395,147.07313 C76.7151156,141.953782 77.9405973,136.906488 77.9405973,132.059732 C77.9405973,128.884989 77.0154279,126.462913 75.1927835,124.861218 C73.39091,123.281226 71.1476554,122.479944 68.5261977,122.479944 C66.1557214,122.479944 64.0794993,123.184864 62.3572475,124.572132 C60.6635556,125.937696 59.3567213,127.698259 58.4739591,129.803468 C57.5963895,131.891315 57.1524121,134.112853 57.1524121,136.40471 C57.1524121,139.500453 57.7712111,142.294956 58.9897692,144.709219 C60.0733165,146.883878 61.6276704,148.672221 63.6138855,150.030841 C60.5597012,155.150189 57.2432846,157.744154 53.752912,157.744154 C52.4980049,157.744154 51.5174464,157.450727 50.8363348,156.872554 C50.1335868,156.27615 49.6247003,155.48789 49.3243881,154.529478 C49.0093631,153.525054 48.8492543,152.428609 48.8492543,151.269659 C48.8492543,146.155519 51.932864,136.289249 58.0144034,121.945177 C59.7634843,117.800736 61.5246815,113.85336 63.2495297,110.211565 C65.8311765,104.737153 66.1306233,103.144139 66.1306233,102.421857 C66.1306233,101.307181 65.5412497,100.238516 64.380677,99.2445097 C63.2460679,98.2739431 61.9868335,97.7817148 60.6384575,97.7817148 C58.8651439,97.7817148 57.3263682,99.1724551 55.9321231,102.036408 C52.200289,109.767084 49.3235226,116.418677 47.3831766,121.802805 C42.8828201,134.186644 40.6006201,143.639685 40.6006201,149.898017 C40.6006201,152.263665 40.9545904,154.553785 41.6538766,156.706742 C42.3704718,158.910049 43.6227826,160.732249 45.3761907,162.121253 C47.1417152,163.523279 49.6082567,164.235144 52.7039827,164.235144 C56.3285006,164.235144 59.7340589,163.170819 62.8263231,161.071687 C65.9783035,158.934357 68.7711209,156.086899 71.1320772,152.603103 C71.8685779,152.672553 72.6319076,152.708146 73.4056227,152.708146 C75.581372,152.708146 77.7025977,152.384334 79.7104491,151.744524 C80.2193355,151.582185 80.7195675,151.390328 81.2076831,151.17156 C81.1600831,151.89471 81.1367159,152.601366 81.1367159,153.281978 C81.1367159,157.040103 81.9381256,159.830265 83.5184431,161.577805 C85.1126078,163.340972 87.1256519,164.235144 89.5013209,164.235144 C94.2318879,164.235144 98.3748123,161.81654 101.817585,157.044443 C102.487446,156.108602 103.150383,155.114596 103.797742,154.076315 C104.337785,160.848578 107.101177,164.280286 112.026471,164.280286 C114.543208,164.280286 116.821947,163.51807 118.798642,162.014474 C120.855824,160.444031 122.720876,158.335349 124.353986,155.732702 C126.03383,161.3764 130.194064,164.235144 136.740352,164.235144 C140.682491,164.235144 144.352012,163.277599 147.644196,161.392026 C150.272577,159.888429 152.624014,157.926461 154.653501,155.549528 C154.643116,155.961888 154.637923,156.362963 154.637923,156.757961 C154.637923,161.718442 155.980241,164.235144 158.626797,164.235144 C159.822853,164.235144 160.746292,163.879212 161.375476,163.176028 C161.966581,162.511043 162.384595,161.493597 162.650289,160.062923 C163.371211,156.110338 165.489841,151.115132 168.951653,145.198843 C169.045122,145.497478 169.160227,145.838653 169.296104,146.231046 C169.385245,146.490616 169.458809,146.700703 169.491696,146.816164 C169.847397,148.126169 170.18752,149.26602 170.532836,150.29996 C171.408675,152.925178 172.377982,155.106782 173.495282,156.968916 C177.874475,164.261188 185.981175,167.044405 195.180943,164.406165 C200.628105,162.840931 206.020744,159.998681 211.205674,155.957547 C215.876524,152.317489 220.036758,148.026334 223.571269,143.200413 C227.040005,138.454359 229.91504,133.243858 232.115888,127.713017 C236.189576,117.502101 238.112613,106.243354 237.994911,93.2960996 C237.832206,75.5889016 233.841601,59.3453667 226.454959,46.322585" id="path-1"></path>
        <filter x="-12.2%" y="-13.1%" width="126.1%" height="127.9%" filterUnits="objectBoundingBox" id="filter-2">
            <feOffset dx="2" dy="2" in="SourceAlpha" result="shadowOffsetOuter1"></feOffset>
            <feGaussianBlur stdDeviation="10" in="shadowOffsetOuter1" result="shadowBlurOuter1"></feGaussianBlur>
            <feColorMatrix values="0 0 0 0 0   0 0 0 0 0   0 0 0 0 0  0 0 0 0.5 0" type="matrix" in="shadowBlurOuter1"></feColorMatrix>
        </filter>
    </defs>
    <g id="Landing-page-Cashback" stroke="none" stroke-width="1" fill="none" fill-rule="evenodd">
        <g transform="translate(-814.000000, -197.000000)" id="Group">
            <g transform="translate(832.000000, 214.723000)" id="Logo">
                <g id="Fill-1">
                    <use fill="black" fill-opacity="1" filter="url(#filter-2)" xlink:href="#path-1"></use>
                    <use fill="#FBD500" fill-rule="evenodd" xlink:href="#path-1"></use>
                </g>
                <path d="M72.7470017,41.277 L60.7170188,41.277 L56.337807,41.277 C52.5119931,41.277 49.2387207,41.7924711 46.6027984,42.7793042 C40.5411194,45.0150304 35.6778983,50.1455247 33.9346088,56.4704243 C33.5097087,58.0583521 33.21245,59.3029207 33.1276413,60.332998 C33.041976,61.320696 33,61.8353022 33,61.8353022 L33,74.7108363 C33,74.8829483 33,75.0541955 33.041976,75.1839281 C33,75.3551752 33,75.4831781 33,75.6552901 L33,88.5740684 C33,88.5740684 33.041976,89.0454304 33.1276413,90.0755078 C33.21245,91.0632057 33.5097087,92.3501537 33.9346088,93.8957022 C34.3603655,95.4403857 35.0405483,97.0715577 36.0179897,98.8315974 C36.9954312,100.590772 38.3138207,102.221944 40.0571102,103.766628 C41.7567105,105.312176 43.9249001,106.599124 46.6027984,107.586822 C47.2941176,107.856666 48.0342661,108.083266 48.8121074,108.277 C50.0002856,105.593264 51.3161051,102.742605 52.7604226,99.7302123 C53.4174757,98.3740736 54.1207881,97.2817246 54.8446602,96.3978127 C53.6941748,96.1625642 52.7115934,95.8019074 51.9166191,95.3115179 C50.3866362,94.367929 49.2815534,93.0801162 48.600514,91.4489442 C47.9211879,89.8186371 47.5382638,87.9729738 47.4106225,85.9128191 C47.2829812,83.8526645 47.2410051,81.6636421 47.2829812,79.3466167 L47.2829812,77.2432179 L47.2829812,75.6552901 C47.2829812,75.4831781 47.2829812,75.3551752 47.2410051,75.1839281 C47.2829812,75.0541955 47.2829812,74.8829483 47.2829812,74.7108363 L47.2829812,73.1661528 L47.2829812,71.0203746 C47.2410051,68.7448637 47.2829812,66.5567062 47.4106225,64.4533073 C47.5382638,62.3940176 47.9211879,60.5483543 48.600514,58.9171823 C49.2815534,57.2860103 50.3866362,55.9981974 51.9166191,55.0546085 C53.4474586,54.1101548 55.6584809,53.6379279 58.4640206,53.6379279 C59.1013706,53.6379279 59.6110794,53.8524192 60.0788121,54.3246461 C60.5045688,54.7544936 60.7170188,55.2690999 60.7170188,55.9125739 L60.7170188,59.7760125 C60.7170188,60.4194865 60.9294689,60.9340927 61.3543689,61.4063196 C61.8221017,61.8353022 62.3318104,62.0497936 62.9700171,62.0497936 L72.7470017,62.0497936 C73.3843518,62.0497936 73.8940605,61.8353022 74.3626499,61.4063196 C74.78755,60.9340927 75,60.4194865 75,59.7760125 L75,55.6980825 L75,43.551646 C75,42.908172 74.78755,42.3935658 74.3626499,41.9637182 C73.8940605,41.4923562 73.3843518,41.277 72.7470017,41.277" id="Fill-4" fill="#FEFEFE"></path>
                <path d="M72.6123468,97.277 L69.1270994,97.277 C70.7802996,99.1655972 71.1752156,101.046531 71.1752156,102.404652 C71.1752156,103.757664 70.7739446,105.47937 69,109.277 L72.6123468,109.277 C73.2877894,109.277 73.8279619,109.06498 74.3245574,108.642643 C74.7748525,108.177731 75,107.671096 75,107.036739 L75,99.5164096 C75,98.8820522 74.7748525,98.3754177 74.3245574,97.9522288 C73.8279619,97.4881687 73.2877894,97.277 72.6123468,97.277" id="Fill-6" fill="#FEFEFE"></path>
                <path d="M104.717019,71.1027786 L104.717019,73.2545017 L104.717019,77.6013119 L91.7935465,77.6013119 C91.6659052,77.6013119 91.5382638,77.5579479 91.4534552,77.4720871 C91.3258138,77.3428623 91.2838378,77.2136375 91.2838378,77.0844127 L91.2838378,62.1073446 L91.2838378,56.7718346 L91.2838378,56.7276033 C91.3258138,55.997353 91.5382638,55.307865 91.8783552,54.705105 C92.2193033,54.0598483 92.8138207,53.7155379 93.6216448,53.6721738 C97.3198172,53.7580346 99.9137636,54.5758802 101.528555,56.2115713 C103.102227,57.8038985 104.036836,59.9556215 104.376927,62.5383831 C104.717019,65.1636413 104.801828,68.0473492 104.717019,71.1027786 M118.065391,56.513385 C117.639634,54.9635546 116.959452,53.3278635 115.98201,51.5638148 C115.004569,49.8422629 113.686179,48.164075 111.943746,46.6142446 C110.24329,45.0652815 108.0751,43.7739007 105.397202,42.7843336 C102.761279,41.7947665 99.4880069,41.277 95.6613364,41.277 L91.2838378,41.277 L82.1013706,41.277 C80.7410051,41.277 79.678755,41.5788136 78.9557396,42.2249377 C78.2755568,42.8268304 77.7658481,43.5588152 77.4677327,44.3766607 C77.21245,45.1945063 77.0428327,45.9256238 77,46.6142446 L77,46.6576086 L77,55.7380361 L77,65.5513157 L77,85.6921723 L77,105.317864 C77,106.436656 77.382924,107.340362 78.1479155,108.114844 C78.9129069,108.889326 79.8483724,109.277 80.9106225,109.277 L88.8175328,109.277 L88.8603655,109.277 C89.1576242,109.277 89.4557396,109.147775 89.8386636,108.976054 C90.220731,108.760101 90.561679,108.373294 90.8580811,107.856394 C91.1561965,107.296998 91.2838378,106.522517 91.2838378,105.447089 L91.2838378,92.57838 C91.2838378,92.4491552 91.3258138,92.3199304 91.4534552,92.2340696 C91.5382638,92.1048448 91.6659052,92.0623481 91.7935465,92.0623481 L104.717019,92.0623481 L104.717019,99.366585 C104.717019,99.366585 104.759852,99.7108954 104.801828,100.356152 C104.84466,101.002276 105.014278,101.776758 105.311536,102.723828 C105.609652,103.670031 106.162193,104.617102 106.885208,105.563305 C107.565391,106.511242 108.584809,107.329088 109.903198,108.016841 C111.220731,108.705462 112.922045,109.093137 115.004569,109.178997 C116.109652,109.178997 117.087093,108.79219 117.852085,108.060205 C118.617933,107.285724 119,106.338653 119,105.219862 L119,61.892259 C119,61.892259 118.958024,61.3762271 118.872359,60.38666 C118.78755,59.3537288 118.490291,58.1048448 118.065391,56.513385" id="Fill-8" fill="#FEFEFE"></path>
                <path d="M159.475861,40.277 L145.082206,40.277 C138.372693,40.277 131.922564,42.2281389 127.041664,47.0772674 C126.198882,47.9153346 125.417283,48.8169314 124.706347,49.7724847 C122.249524,53.0803701 121,56.8225188 121,60.9136446 C121,64.0901196 121.431732,66.5712512 122.206437,68.3117855 C123.025091,70.0967034 124.361651,71.9233941 126.213531,73.8823654 C128.110223,75.8413367 130.1784,77.2772775 132.462875,78.1475446 C137.739313,80.2979747 145.849155,80.2031156 148.270647,86.5177739 C149.517586,89.772573 147.503697,93.3232629 144.751298,95.066408 C143.558648,95.8209296 142.089381,96.525846 140.650274,96.525846 C140.649412,96.525846 123.240526,96.7434127 123.240526,96.7434127 C122.636446,96.7434127 122.077176,96.9618498 121.647167,97.3961131 C121.215435,97.8321169 121,98.3969203 121,99.0061073 L121,104.707227 C121,105.969115 121.430009,107.057819 122.335698,107.928086 C123.197439,108.841866 124.274615,109.277 125.524139,109.277 L139.918656,109.277 C146.628169,109.277 153.077436,107.325861 157.958336,102.476733 C158.80198,101.638665 159.583579,100.737069 160.293653,99.7815153 C162.751338,96.4736299 164,92.7314812 164,88.6403554 C164,84.3203494 162.495401,80.0038244 159.827451,76.6289285 C156.766548,72.7553694 152.38115,70.8520952 147.709654,69.7016021 C143.338905,68.6250816 135.919317,66.9950713 136.314856,61.0363522 C136.486342,58.4560102 138.087457,55.8565222 140.248702,54.4884623 C141.441352,53.7322002 142.909758,53.0290243 144.349726,53.0290243 L161.759474,52.8105873 C162.363554,52.8105873 162.923686,52.5921502 163.353694,52.1578869 C163.785427,51.7218831 164,51.1570797 164,50.5478927 L164,44.8467727 C164,43.5840151 163.569991,42.4961812 162.66344,41.6259141 C161.801699,40.7121336 160.725385,40.277 159.475861,40.277" id="Fill-10" fill="#FEFEFE"></path>
                <path d="M209.021722,42.2640731 C208.512023,41.7489281 207.919231,41.4299877 207.245916,41.3219455 C207.215933,41.3167595 207.185095,41.3124378 207.155112,41.3081161 C207.015481,41.2899651 206.873279,41.277 206.726794,41.277 L198.989659,41.277 C198.843174,41.277 198.700973,41.2899651 198.560485,41.3081161 C198.530502,41.3124378 198.501377,41.3167595 198.471394,41.3219455 C197.797222,41.4299877 197.20443,41.7489281 196.694732,42.2640731 C196.056538,42.9071399 195.71731,43.6789931 195.71731,44.5804968 L195.71731,44.8804218 L195.71731,49.7993647 L195.71731,66.8838537 L195.71731,73.1459767 L195.71731,77.4780347 L182.794101,77.4780347 C182.665606,77.4780347 182.538824,77.4348178 182.45316,77.3492484 C182.326378,77.2204622 182.283546,77.0916759 182.283546,76.9628897 L182.283546,44.6660661 C182.283546,43.7222099 181.944319,42.9071399 181.306125,42.2640731 C180.667931,41.6210062 179.86098,41.277 178.925534,41.277 L172.888821,41.277 C171.019641,41.4490031 169.743254,42.09207 169.063085,43.207065 C168.425748,44.3220599 168.043688,45.4379192 168,46.4673448 L168,46.6393479 L168,46.7672699 L168,55.6889584 L168,65.4680694 L168,85.5414363 L168,97.4260727 C170.468825,93.7681977 173.306859,92.9133683 175.397051,92.9133683 C177.798201,92.9133683 180.087989,93.7923992 182.020559,95.4562483 C182.113076,95.534903 182.197026,95.6152863 182.283546,95.6948053 L182.283546,92.4042737 C182.283546,92.2754874 182.326378,92.1467012 182.412042,92.0602674 C182.538824,91.9314812 182.665606,91.8891287 182.794101,91.8891287 L195.71731,91.8891287 L195.71731,99.497889 C195.71731,99.497889 195.71731,99.8410309 195.80126,100.484098 C195.844092,101.128029 196.013706,101.899882 196.311815,102.843738 C196.609925,103.787594 197.119623,104.730586 197.841767,105.674443 C198.564768,106.618299 199.585021,107.432504 200.902527,108.118788 C202.22089,108.805072 203.921312,109.191431 205.961819,109.277 C207.109711,109.277 208.0443,108.933858 208.809276,108.162005 C209.575109,107.432504 209.958025,106.489513 210,105.331301 L210,91.7171256 L210,88.4153575 L210,80.908589 L210,61.8222951 L210,61.6935088 L210,50.0724953 L210,44.5804968 C210,43.6789931 209.659916,42.9071399 209.021722,42.2640731" id="Fill-12" fill="#FEFEFE"></path>
            </g>
        </g>
    </g>
</svg>