<?xml version="1.0" encoding="UTF-8"?>
<svg width="278px" height="272px" viewBox="0 0 278 272" version="1.1" xmlns="http://www.w3.org/2000/svg" xmlns:xlink="http://www.w3.org/1999/xlink">
    <title>868C9719-DDAF-462D-B770-EDB5B4B4E6FC</title>
    <defs>
        <path d="M978.893918,383.534897 C988.431659,378.684432 1002.0401,381.95142 1005.79226,383.834222 C1008.57256,385.115272 1011.17812,386.790253 1013.52853,388.816514 C1014.93878,388.222516 1016.48666,387.892173 1018.11416,387.892173 C1024.67832,387.892173 1030,393.229623 1030,399.813227 C1030,403.939418 1027.91014,407.573971 1024.73476,409.714224 C1026.49061,423.51808 1019.3837,437.484007 1006.17266,443.785346 C989.714336,451.634491 970.028057,444.615857 962.201327,428.109543 C959.728751,422.893064 958.739876,417.354772 959.057646,411.968469 L959.057646,411.968469 L959.057728,411.945512 C959.062896,411.199529 959.376632,392.465382 977.831592,384.009475 C978.186474,383.846629 978.539037,383.689212 978.893918,383.534897 Z M999.432996,392.993109 C996.923309,392.993109 994.872107,393.372306 993.253104,394.102008 C991.633327,394.833262 990.337506,395.75295 989.393473,396.8634 C988.423154,397.973075 987.720348,399.137031 987.261863,400.355269 C986.802604,401.546367 986.506482,402.656041 986.370406,403.657153 C986.208815,404.659039 986.128406,405.416658 986.128406,405.904418 L986.128406,405.904418 L986.128406,406.066488 C986.101345,406.12077 986.101345,406.202193 986.101345,406.28284 L986.101345,406.28284 L986.101345,422.686794 C986.101345,422.741075 986.101345,422.795357 986.128406,422.848863 L986.128406,422.848863 L986.128406,422.984568 C986.128406,423.498694 986.208815,424.229947 986.370406,425.231058 C986.506482,426.232945 986.802604,427.341844 987.261863,428.560858 C987.720348,429.77832 988.423154,430.942277 989.393473,432.052727 C990.337506,433.161626 991.633327,434.082866 993.253104,434.813343 C994.872107,435.544596 996.923309,435.895877 999.432996,435.895877 C1001.94346,435.895877 1003.99389,435.544596 1005.61366,434.813343 C1007.23344,434.082866 1008.52771,433.161626 1009.47329,432.052727 C1010.44439,430.942277 1011.14642,429.77832 1011.60568,428.560858 C1012.06416,427.341844 1012.36028,426.232945 1012.49559,425.231058 C1012.65718,424.229947 1012.73913,423.498694 1012.73913,422.984568 L1012.73913,422.984568 L1012.73913,422.848863 C1012.76619,422.795357 1012.76619,422.741075 1012.76619,422.686794 L1012.76619,422.686794 L1012.76619,406.12077 C1012.73913,406.093629 1012.73913,406.066488 1012.73913,406.066488 L1012.73913,406.066488 L1012.73913,405.904418 C1012.73913,405.416658 1012.65718,404.659039 1012.49559,403.657153 C1012.36028,402.656041 1012.06416,401.546367 1011.60568,400.355269 C1011.14642,399.137031 1010.44439,397.973075 1009.47329,396.8634 C1008.52771,395.75295 1007.23344,394.833262 1005.61366,394.102008 C1003.99389,393.372306 1001.94346,392.993109 999.432996,392.993109 Z M982.401759,392.884546 L977.489854,392.884546 C977.247081,392.884546 977.004308,392.938052 976.761535,393.019475 C976.707413,393.019475 976.654065,393.019475 976.599943,392.965193 C976.599943,392.938052 976.545822,392.911687 976.518761,392.911687 C976.491701,392.911687 976.465413,392.911687 976.410519,392.938052 L976.410519,392.938052 L969.933731,397.593878 C969.933731,397.593878 969.852549,397.6753 969.717245,397.783864 C969.555654,397.919568 969.420351,398.108779 969.231699,398.379413 C969.042274,398.622905 968.907744,398.974186 968.800274,399.381299 C968.665744,399.786862 968.638683,400.273847 968.665744,400.84303 C968.692031,401.410662 968.853622,402.060493 969.124229,402.79097 C969.39329,403.522224 969.852549,404.334124 970.446338,405.254588 C970.877763,405.850912 971.337022,406.255699 971.87669,406.472826 C972.415585,406.662037 972.874844,406.662037 973.25292,406.392179 L973.25292,406.392179 L975.196652,405.011871 C975.250001,404.956813 975.304122,404.956813 975.331183,404.983954 C975.385304,405.011871 975.411592,405.065377 975.411592,405.119659 L975.411592,405.119659 L975.411699,429.976435 C975.412449,430.017984 975.418454,430.204917 975.466486,430.536714 C975.492774,430.915911 975.601017,431.375756 975.790442,431.943388 C975.979093,432.511796 976.302276,433.053838 976.761535,433.622246 C977.22002,434.190654 977.867931,434.677639 978.704493,435.083977 C979.541056,435.490315 980.621165,435.706666 981.916986,435.760948 C982.645306,435.760948 983.238322,435.544596 983.724642,435.111117 C984.209415,434.650498 984.453734,434.110006 984.480795,433.433035 L984.480795,433.433035 L984.480795,394.860402 C984.480795,394.31836 984.264309,393.859291 983.859172,393.452953 C983.454808,393.073756 982.969261,392.884546 982.401759,392.884546 L982.401759,392.884546 Z M955.676101,215 C960.423838,215 965.173125,215.174637 969.907676,215.540837 C987.192973,216.87716 1004.55583,220.673793 1020.3007,228.002409 C1034.71144,234.709409 1047.86254,244.832225 1056.25582,258.415477 C1056.67389,259.091716 1057.07956,259.77411 1057.47436,260.462658 C1065.52015,274.488274 1068.84768,290.971122 1068.99505,306.857741 C1069.10131,318.439972 1067.50813,329.983736 1063.12883,340.838182 C1060.95392,346.239633 1058.09566,351.387205 1054.61222,356.099338 C1051.12491,360.809163 1046.98296,365.052775 1042.29883,368.662461 C1037.55885,372.313691 1032.17741,375.314839 1026.38953,376.959662 C1018.21731,379.274569 1009.83256,377.37356 1005.24616,369.821838 C1004.00668,367.780811 1003.0821,365.564378 1002.32119,363.308709 C1001.9388,362.177028 1001.59984,361.030729 1001.28415,359.879045 C1001.14687,359.379752 1000.2634,357.189475 1000.49144,356.81789 C996.48988,363.361792 994.092354,368.784784 993.298867,373.086865 C993.052987,374.388568 992.672144,375.328687 992.153236,375.903375 C991.632777,376.478832 990.854027,376.76733 989.816987,376.76733 C987.52495,376.76733 986.380094,374.480118 986.380094,369.904926 C986.380094,368.966346 986.409569,368.001608 986.461537,367.0161 C984.236206,369.932621 981.585044,372.271378 978.500295,374.016983 C975.262744,375.85106 971.704074,376.76733 967.825063,376.76733 C961.01333,376.76733 956.941182,373.650013 955.593883,367.432306 C953.82308,370.505771 951.777699,372.922229 949.453084,374.677066 C947.558954,376.100322 945.405757,376.811951 942.993495,376.811951 C937.953339,376.811951 935.356473,372.994546 935.204446,365.361275 C934.257381,366.966093 933.280065,368.467052 932.2725,369.859535 C928.91162,374.464731 924.941083,376.76733 920.360111,376.76733 C918.130125,376.76733 916.26702,375.948765 914.770797,374.313174 C913.274574,372.676814 912.525299,370.057252 912.525299,366.451413 C912.525299,365.43667 912.579594,364.421926 912.675774,363.406413 C911.946666,363.796463 911.171794,364.124966 910.348833,364.384229 C908.379464,365.005077 906.324775,365.315885 904.187092,365.315885 C903.301302,365.315885 902.446539,365.269725 901.621251,365.178945 C899.239238,368.724007 896.444582,371.572059 893.237281,373.72233 C890.213032,375.751817 886.929718,376.76733 883.386562,376.76733 C880.392564,376.76733 878.056314,376.108016 876.377038,374.789388 C874.696986,373.472299 873.513349,371.768237 872.826125,369.677974 C872.138902,367.586941 871.79529,365.391279 871.79529,363.087912 C871.79529,356.907901 874.055526,347.668274 878.575998,335.36903 C880.530629,330.006046 883.386562,323.479069 887.143021,315.783483 C888.426717,313.17777 889.830638,311.875298 891.358663,311.875298 C892.579532,311.875298 893.710425,312.314584 894.749017,313.193156 C895.786833,314.071728 896.306516,314.981074 896.306516,315.919654 C896.306516,316.949784 895.359451,319.44933 893.466096,323.417523 C891.725544,327.053366 889.968703,330.946165 888.197125,335.095919 C882.026852,349.486196 878.942879,359.271276 878.942879,364.45193 C878.942879,365.664391 879.110419,366.799918 879.446274,367.860822 C879.782129,368.920186 880.347576,369.78491 881.141839,370.450379 C881.936101,371.117386 883.035193,371.450505 884.440666,371.450505 C888.288652,371.450505 891.846545,368.648613 895.115122,363.043291 C892.976663,361.710046 891.34315,359.922897 890.213032,357.681076 C889.021638,355.349243 888.426717,352.682753 888.426717,349.683144 C888.426717,347.472096 888.854098,345.358752 889.709637,343.343883 C890.5644,341.329013 891.808538,339.671112 893.443603,338.36787 C895.077116,337.066168 897.02399,336.414547 899.284226,336.414547 C901.78879,336.414547 903.896999,337.156179 905.607301,338.640212 C907.317603,340.125784 908.173142,342.367606 908.173142,345.365676 C908.173142,350.364768 906.844459,355.515418 904.187092,360.816856 L904.187092,360.816856 L905.470012,360.862246 C909.587923,360.862246 912.453939,359.3936 914.078144,356.467077 C915.11596,353.124347 916.675786,349.780848 918.756848,346.434272 C922.910438,339.75343 927.812528,336.414547 933.463118,336.414547 C936.639393,336.414547 939.419313,337.89858 941.801325,340.867416 C943.176547,337.928584 944.642521,336.459168 946.20002,336.459168 C947.421664,336.459168 948.544026,336.899223 949.56788,337.777027 C950.590183,338.656368 951.10211,339.564944 951.10211,340.503524 C951.10211,341.533654 950.200808,344.047818 948.399755,348.047553 C944.764297,356.075489 942.946956,362.816339 942.946956,368.269335 C942.946956,370.421144 943.55739,371.495895 944.780586,371.495895 C947.284375,371.495895 949.774202,369.223301 952.248517,364.678882 C953.650887,362.083939 954.810479,359.488996 955.732724,356.893284 C955.95611,355.906237 956.235343,354.897648 956.577403,353.863671 C957.568681,350.864831 958.967172,348.047553 960.769001,345.411836 C962.571605,342.776119 964.717045,340.617385 967.206872,338.936404 C969.695148,337.253884 972.436285,336.414547 975.431059,336.414547 C978.484006,336.414547 980.783024,337.231573 982.325787,338.867933 C983.868549,340.503524 984.639542,342.473773 984.639542,344.775602 C984.639542,348.047553 983.799516,349.683144 982.12024,349.683144 C980.653491,349.683144 979.828978,348.486839 979.64515,346.09346 C979.462097,343.184632 978.363005,341.730602 976.346323,341.730602 C974.300165,341.730602 972.490581,342.479927 970.917568,343.980117 C969.344556,345.480306 968.001135,347.335925 966.885754,349.546973 C965.770374,351.75879 964.931123,354.030615 964.365677,356.363217 C963.801005,358.695819 963.517894,360.696072 963.517894,362.361666 C963.517894,368.420892 965.58034,371.450505 969.70368,371.450505 C972.574351,371.450505 975.247231,370.648096 977.721545,369.04174 C980.195084,367.436922 982.332768,365.361275 984.135372,362.816339 C985.874372,360.360645 987.210813,357.732621 988.153999,354.939191 C989.15536,350.251677 990.576346,345.185653 992.427815,339.731119 C995.023131,332.097079 998.368497,324.114534 1002.46159,315.783483 C1003.74528,313.17777 1005.1492,311.875298 1006.67723,311.875298 C1007.8981,311.875298 1009.02822,312.314584 1010.06681,313.193156 C1011.1054,314.071728 1011.62508,314.981074 1011.62508,315.919654 C1011.62508,316.949784 1010.67724,319.44933 1008.78466,323.417523 C1006.43212,328.355838 1004.04934,333.762674 1001.63707,339.640338 C998.826904,346.547364 996.689221,352.485805 995.223248,357.453355 C996.261064,355.606199 997.43772,353.712883 998.750891,351.773407 C1005.59132,341.533654 1012.09823,336.414547 1018.26772,336.414547 C1020.71179,336.414547 1022.51362,337.231573 1023.67476,338.867933 C1024.83513,340.503524 1025.41531,342.473773 1025.41531,344.775602 C1025.38429,348.047553 1024.54504,349.683144 1022.89601,349.683144 C1021.39824,349.683144 1020.5745,348.486839 1020.4217,346.09346 C1020.20762,343.184632 1019.09301,341.730602 1017.07711,341.730602 C1013.86981,341.730602 1010.40344,343.882412 1006.67723,348.183724 C1007.53277,353.016641 1008.53568,357.876485 1010.16144,362.520148 C1011.26906,365.685932 1012.6086,369.70567 1016.144,370.917361 C1021.33463,372.696047 1027.37848,370.422683 1031.96721,368.124701 C1034.30578,366.954553 1036.55361,365.531297 1038.68509,363.950328 C1042.95657,360.786852 1046.75492,356.95483 1049.96067,352.685061 C1053.18814,348.423754 1055.75941,343.683156 1057.76911,338.720222 C1059.75864,333.743441 1061.11292,328.509704 1061.9196,323.185186 C1063.0342,315.825796 1063.21493,308.329466 1062.57114,300.917761 C1061.12301,284.252582 1055.51818,267.329678 1044.99032,254.091854 C1034.92087,241.428719 1020.40075,233.082281 1005.05768,228.270905 C983.816581,221.609295 958.158172,220.291437 932.810023,224.559667 C906.141722,229.050234 883.385786,240.021618 867.004118,256.287516 C850.357954,272.816524 841.443441,293.97227 841.904951,315.857338 C842.355602,337.273117 851.234435,359.042017 866.263375,375.583334 C880.308018,391.040669 900.162258,401.61508 923.678329,406.160268 C928.370994,407.066536 933.128814,407.711233 937.945583,408.10359 C937.294815,407.65815 936.640169,407.283487 935.938208,406.990373 C934.48387,406.111031 933.016345,405.263232 931.509263,404.486211 C931.292082,404.358503 931.071798,404.236949 930.856168,404.106932 C929.421221,403.242208 928.014972,402.331324 926.640526,401.375819 C923.892408,399.464808 921.27072,397.374545 918.804162,395.115798 C916.332175,392.853205 914.016868,390.422129 911.88539,387.840265 C911.378116,387.225572 910.809567,386.397775 910.352711,385.48843 C909.708924,384.20596 909.141926,382.595757 909.667039,381.177117 C910.073478,380.079286 911.252462,378.996072 912.474881,379.64 C913.648436,380.25777 914.288345,381.657947 915.178012,382.590372 C915.372699,382.795782 915.569714,382.998116 915.767504,383.200449 C917.191592,384.656786 918.678507,386.050808 920.22127,387.381746 C925.751634,392.150809 931.989388,396.102846 938.635133,399.157846 C941.955679,400.685732 945.380937,401.988973 948.879881,403.055261 C950.366021,403.507626 952.37262,403.72073 953.363122,405.060899 C954.253565,406.265666 953.968902,408.030504 953.549277,409.357595 C953.041228,410.967028 952.13217,412.391054 951.083495,413.72353 C951.10211,413.788154 951.123053,413.852008 951.142444,413.915862 C951.069533,413.919709 950.997398,413.921247 950.924487,413.924325 C950.012326,415.061391 949.007087,416.134603 948.070881,417.200122 C945.041979,420.650558 941.63301,423.775567 937.907576,426.4736 C935.063278,428.53386 932.043684,430.321778 928.895332,431.882744 C926.702577,432.969035 922.296901,435.900943 919.732612,434.727718 C918.922061,434.356133 918.421768,433.493716 918.295338,432.616683 C917.822193,429.326268 920.601337,426.934427 923.337044,425.755817 C925.366137,424.88263 927.471244,424.18408 929.44992,423.195494 C932.262416,421.790702 934.954688,420.128953 937.500362,418.291799 C938.692531,417.432459 939.844367,416.530038 940.961299,415.592227 C941.490291,415.379124 941.937063,414.991382 942.270592,414.522862 C929.909878,413.524274 917.871059,411.020112 906.48068,407.001144 C881.136409,398.057708 860.076037,382.128775 847.177801,362.150101 C833.801765,341.431334 828.348966,317.269824 832.216343,295.859431 C836.262118,273.46276 849.989522,253.070956 870.869168,238.439111 C890.704793,224.539665 917.046546,216.49942 947.047802,215.190024 C949.95105,215.062316 952.825598,215 955.676101,215 Z M999.014363,400 C1000.4068,400.027125 1001.46489,400.378193 1002.13358,401.027632 C1002.83019,401.649947 1003.27625,402.407108 1003.52601,403.300668 C1003.74864,404.165553 1003.91621,404.976964 1003.97287,405.734901 C1003.97287,405.788375 1004,405.843399 1004,405.897648 L1004,405.897648 L1004,412.849278 L1003.97287,422.913255 L1003.97287,423.129476 L1003.97287,423.129476 L1003.94414,423.291448 C1003.88908,424.021486 1003.72071,424.832897 1003.49888,425.726456 C1003.24753,426.592117 1002.77434,427.349278 1002.10645,427.998717 C1001.40983,428.647381 1000.37887,428.972875 998.986435,429 C997.593201,428.972875 996.53511,428.621032 995.866422,427.998717 C995.170603,427.349278 994.724545,426.592117 994.473987,425.699332 C994.250559,424.832897 994.083786,424.021486 994.028726,423.265099 C994.028726,423.210075 994.028726,423.156601 994,423.102352 L994,423.102352 L994,411.90302 L994.028726,406.086745 L994.028726,405.897648 C994.055857,405.843399 994.055857,405.762026 994.055857,405.707002 C994.111714,404.976964 994.278487,404.165553 994.529844,403.273544 C994.752474,402.407108 995.22646,401.649947 995.895148,401.000508 C996.590967,400.378193 997.62113,400.027125 999.014363,400 Z M1015.8805,391.644595 C1015.22717,391.644595 1014.70529,391.735323 1014.3334,391.92686 C1013.95145,392.108316 1013.68085,392.340177 1013.49915,392.60228 C1013.31823,392.854303 1013.20767,393.10555 1013.15741,393.338186 C1013.09711,393.579352 1013.07701,393.750728 1013.07701,393.862393 C1013.06773,393.871699 1013.06773,393.88178 1013.06773,393.88178 L1013.06773,393.88178 L1013.06773,396.774223 C1013.06773,396.774223 1013.06773,396.784304 1013.07701,396.794385 C1013.07701,396.905275 1013.09711,397.07665 1013.15741,397.319367 C1013.20767,397.550452 1013.31823,397.802475 1013.49915,398.064578 C1013.68085,398.316601 1013.95145,398.548462 1014.3334,398.729918 C1014.70529,398.921455 1015.22717,399.022264 1015.8805,399.022264 C1016.54387,399.022264 1017.06575,398.921455 1017.43842,398.729918 C1017.81959,398.548462 1018.09174,398.316601 1018.27189,398.064578 C1018.45281,397.802475 1018.56337,397.550452 1018.61363,397.319367 C1018.67393,397.07665 1018.69404,396.905275 1018.69404,396.794385 C1018.69404,396.784304 1018.70409,396.774223 1018.70409,396.774223 L1018.70409,396.774223 L1018.70409,393.88178 C1018.69404,393.871699 1018.69404,393.851537 1018.69404,393.841456 C1018.69404,393.761584 1018.72419,393.701099 1018.77444,393.66 C1018.83552,393.609595 1018.89506,393.589433 1018.96542,393.599514 C1019.83909,393.720485 1020.66406,393.739871 1021.43799,393.639062 C1021.50835,393.639062 1021.56788,393.670856 1021.60809,393.730566 C1021.63824,393.791051 1021.63824,393.851537 1021.60809,393.922103 L1021.60809,393.922103 L1019.77878,396.764917 L1018.94531,398.064578 L1018.3724,398.961779 L1014.90554,404.372897 C1014.90554,404.372897 1014.86611,404.433382 1014.79575,404.574515 C1014.71457,404.715647 1014.63416,404.897104 1014.55375,405.118883 C1014.48416,405.340663 1014.43391,405.58338 1014.42308,405.854789 C1014.40298,406.116893 1014.45401,406.389077 1014.56457,406.661261 C1014.67513,406.922589 1014.88543,407.175387 1015.18774,407.396392 C1015.35784,407.507282 1015.54958,407.528219 1015.76993,407.446796 C1015.98101,407.366925 1016.17198,407.214936 1016.32274,406.98385 L1016.32274,406.98385 L1018.68398,403.304321 L1019.11618,402.629676 L1019.11618,402.620371 L1020.11124,401.077993 L1022.6333,397.137135 L1022.64258,397.116974 C1022.67273,397.07665 1022.79412,396.885113 1023.02452,396.532281 C1023.24642,396.17945 1023.50698,395.776214 1023.79846,395.322573 L1023.96965,395.056518 C1024.19286,394.709933 1024.3955,394.395906 1024.57239,394.11364 C1024.79352,393.761584 1024.91413,393.589433 1024.91413,393.589433 C1025.03475,393.397896 1025.085,393.196278 1025.07495,393.015597 C1025.0649,392.82406 1024.98449,392.682928 1024.84378,392.582119 L1024.84378,392.582119 L1023.65852,391.815195 C1023.54718,391.745404 1023.41652,391.725242 1023.27657,391.765566 C1022.31167,391.966408 1021.42717,392.088154 1020.61303,392.118397 C1019.80971,392.14864 1019.10613,392.127703 1018.50384,392.057136 C1017.91005,391.987345 1017.44847,391.905923 1017.11678,391.815195 C1016.86744,391.755291 1016.70899,391.717633 1016.64535,391.702548 L1016.61345,391.694999 C1016.3931,391.654676 1016.15188,391.644595 1015.8805,391.644595 Z M1023.43739,399.002102 C1022.7833,399.002102 1022.26141,399.092055 1021.88952,399.283592 C1021.50835,399.465048 1021.2362,399.696909 1021.05528,399.959013 C1020.87436,400.211035 1020.76457,400.463058 1020.71354,400.694918 C1020.654,400.93686 1020.63313,401.10746 1020.63313,401.219125 C1020.62308,401.229206 1020.62308,401.238512 1020.62308,401.238512 L1020.62308,401.238512 L1020.62308,404.13173 C1020.62308,404.13173 1020.62308,404.141036 1020.63313,404.151117 C1020.63313,404.262782 1020.654,404.433382 1020.71354,404.675324 C1020.76457,404.907184 1020.87436,405.159982 1021.05528,405.42131 C1021.2362,405.673333 1021.50835,405.905194 1021.88952,406.08665 C1022.26141,406.277412 1022.7833,406.378996 1023.43739,406.378996 C1024.09999,406.378996 1024.62265,406.277412 1024.99454,406.08665 C1025.37648,405.905194 1025.64786,405.673333 1025.82801,405.42131 C1026.00971,405.159982 1026.12027,404.907184 1026.17052,404.675324 C1026.23083,404.433382 1026.25016,404.262782 1026.25016,404.151117 C1026.25016,404.141036 1026.26098,404.13173 1026.26098,404.13173 L1026.26098,404.13173 L1026.26098,401.238512 C1026.26098,401.238512 1026.25016,401.229206 1026.25016,401.219125 C1026.25016,401.10746 1026.23083,400.93686 1026.17052,400.694918 C1026.12027,400.463058 1026.00971,400.211035 1025.82801,399.959013 C1025.64786,399.696909 1025.37648,399.465048 1024.99454,399.283592 C1024.62265,399.092055 1024.09999,399.002102 1023.43739,399.002102 Z M1023.50057,401 C1023.64237,401 1023.74627,401.037866 1023.81343,401.102167 C1023.88117,401.167897 1023.92537,401.251488 1023.94776,401.334365 C1023.97015,401.427959 1023.98507,401.510836 1023.99254,401.594427 L1023.99254,401.594427 C1024,401.613003 1024,401.622291 1024,401.631579 L1024,401.631579 L1023.99254,402.328173 L1024,402.328173 L1023.99254,403.368421 L1023.99254,403.404858 C1023.98507,403.48845 1023.97015,403.572041 1023.94776,403.655632 C1023.91791,403.748512 1023.87313,403.832103 1023.80597,403.897833 C1023.73881,403.962134 1023.63433,404 1023.50057,404 C1023.35878,404 1023.25431,403.962134 1023.18714,403.897833 C1023.1194,403.832103 1023.07463,403.748512 1023.05224,403.655632 C1023.02985,403.572041 1023.0155,403.479162 1023.00746,403.404858 C1023.00746,403.404858 1023.00746,403.39557 1023,403.386282 L1023,403.386282 L1023,402.226006 L1023.00746,401.622291 L1023.00746,401.585139 C1023.0155,401.510836 1023.02985,401.427959 1023.05224,401.334365 C1023.07463,401.241486 1023.12687,401.167897 1023.19403,401.102167 C1023.26177,401.037866 1023.36567,401 1023.50057,401 Z M1015.5,393 C1015.64179,393 1015.74569,393.037866 1015.81286,393.102882 C1015.8806,393.167897 1015.92537,393.250774 1015.94776,393.334365 C1015.97015,393.427245 1015.9845,393.510836 1015.99196,393.594427 L1015.99196,393.594427 L1015.99196,393.60443 C1016,393.613718 1016,393.622291 1016,393.631579 L1016,393.631579 L1015.99196,394.328173 L1016,394.328173 L1015.99196,395.368421 L1015.99196,395.405573 C1015.9845,395.489164 1015.97015,395.572755 1015.94776,395.656347 C1015.91791,395.749226 1015.87313,395.832103 1015.80597,395.897833 C1015.73881,395.962848 1015.63433,396 1015.5,396 C1015.35821,396 1015.25373,395.962848 1015.18657,395.897833 C1015.11883,395.832103 1015.07463,395.749226 1015.05224,395.656347 C1015.02985,395.572755 1015.01493,395.479876 1015.00746,395.405573 C1015.00746,395.405573 1015.00746,395.396285 1015,395.386997 L1015,395.386997 L1015,394.226006 L1015.00746,393.622291 L1015.00746,393.585854 C1015.01493,393.510836 1015.02985,393.427245 1015.05224,393.334365 C1015.07463,393.241486 1015.12687,393.167897 1015.19346,393.102882 C1015.26119,393.037866 1015.36567,393 1015.5,393 Z M934.654512,341.730602 C931.233132,341.730602 928.041344,344.677897 925.079148,350.569409 C922.116176,356.461691 920.63469,361.952384 920.63469,367.042257 C920.63469,369.981089 921.44369,371.450505 923.063241,371.450505 C925.689582,371.450505 928.453989,369.177911 931.355685,364.633491 C933.799749,360.756079 935.517032,357.317184 936.50986,354.318344 C937.501913,351.319504 938.732089,348.047553 940.198062,344.50249 C938.303932,342.655334 936.45634,341.730602 934.654512,341.730602 Z M898.643541,342.367606 C897.756977,342.367606 896.971246,342.768425 896.284023,343.570834 C895.596799,344.374013 895.061603,345.374139 894.679984,346.570443 C894.298366,347.767518 894.107557,348.926125 894.107557,350.046267 C894.107557,353.622102 895.222937,356.363217 897.452147,358.27192 C899.406778,353.485162 900.384093,349.335408 900.384093,345.820349 C900.384093,343.51852 899.803909,342.367606 898.643541,342.367606 Z M966.783274,257.996688 C973.375676,255.316514 981.19375,256.156614 988.033127,256.029792 C990.338742,255.98675 992.087511,256.115109 993.282504,256.457144 C994.47673,256.799948 995.28822,257.697695 995.62877,259.237238 C996.013039,260.733739 996.098177,263.214072 995.884949,266.720511 C995.714674,267.789659 994.732909,268.47373 992.898235,268.772723 C991.063561,269.072484 989.058612,269.157801 986.838901,269.029441 C985.94304,268.987167 985.046412,268.944125 984.108366,268.901082 C981.420016,268.687406 978.816804,268.644363 976.342448,268.772723 C975.530958,268.814228 974.773924,268.92414 974.059843,269.087088 C973.165517,269.404527 972.352492,269.841871 971.633809,270.414492 C969.926458,271.74036 968.902507,273.279903 968.47682,275.032354 C968.34873,277.29901 968.732232,279.009187 969.542955,280.206695 C970.396631,281.404203 971.548672,282.30195 973.042029,282.85843 C974.535386,283.456415 976.199785,283.927578 978.077412,284.35493 C980.253403,284.825325 982.429394,285.466353 984.648337,286.364868 C986.910233,287.219572 988.958901,288.630756 990.83576,290.555378 C992.671202,292.479999 993.993517,294.275493 994.805007,296.028712 C995.572779,297.739657 996,300.176947 996,303.298308 C996,307.318184 994.761288,310.995256 992.329118,314.244976 C989.897714,317.494696 986.526731,320.018072 982.216934,321.771291 C977.295067,323.773543 972.382405,324.222416 967.110785,323.909588 C964.7208,323.781229 962.672131,323.695144 960.966314,323.738186 C958.661466,323.781229 956.911929,323.65287 955.716937,323.310834 C954.521944,322.968799 953.711221,322.071052 953.369904,320.531509 C952.986402,319.035008 952.901264,316.553907 953.113724,313.047468 C953.285533,311.979088 954.265765,311.295017 956.101206,310.995256 C957.93588,310.696263 959.941596,310.610178 962.16054,310.738537 C963.056401,310.78158 963.953028,310.824623 964.891842,310.866897 C967.580192,311.080573 970.182637,311.123615 972.65776,310.995256 C973.46925,310.953751 974.226283,310.844607 974.939597,310.68166 C975.834691,310.36422 976.646182,309.926876 977.366399,309.354255 C979.072983,308.028388 980.096934,306.488844 980.523388,304.735625 C980.651478,302.468968 980.267976,300.758792 979.456485,299.561284 C978.603577,298.363776 977.450769,297.466029 975.958179,296.910318 C974.463288,296.311564 972.799655,295.841169 970.922029,295.413048 C968.746038,294.943422 966.56928,294.301626 964.351104,293.403879 C962.089975,292.548406 960.041307,291.137222 958.16368,289.213369 C956.328239,287.288748 955.005157,285.493255 954.1952,283.739267 C953.427429,282.02909 953,279.5918 953,276.470439 C953,272.450563 954.237386,268.772723 956.669556,265.523003 C959.102494,262.273282 962.473477,259.750676 966.783274,257.996688 Z M1014,318 L1014,319.972768 C1013.95559,320.919697 1013.6415,321.737428 1012.92208,322.38264 C1012.6411,322.651864 1012.33105,322.847594 1012,323 C1013.14736,320.55222 1013.72063,319.026613 1014,318 L1014,318 Z M927.105809,255 C931.023505,255 934.374825,255.516751 937.072935,256.50616 C939.815635,257.496343 942.034985,258.787448 943.775574,260.336928 C945.559972,261.886409 946.909418,263.564304 947.910746,265.286293 C948.911292,267.050829 949.607528,268.686177 950.04248,270.235657 C950.477432,271.827685 950.782524,273.076243 950.869358,274.108972 C950.956974,275.099155 951,275.615133 951,275.615133 L951,275.615133 L951,318.942573 C951,320.06117 950.608074,321.008805 949.825004,321.783159 C949.041934,322.514192 948.040606,322.901755 946.909418,322.901755 C944.776903,322.815888 943.03553,322.428324 941.686867,321.739838 C940.337421,321.051352 939.293067,320.233678 938.596831,319.286816 C937.856787,318.339954 937.290411,317.393092 936.986101,316.446231 C936.681009,315.499369 936.507341,314.725015 936.463533,314.079076 C936.420507,313.43391 936.376699,313.089667 936.376699,313.089667 L936.376699,313.089667 L936.376699,305.784751 L923.145869,305.784751 C923.015227,305.784751 922.884585,305.827298 922.797751,305.956486 C922.667109,306.043127 922.624084,306.172315 922.624084,306.301503 L922.624084,306.301503 L922.624084,319.170006 C922.624084,320.245282 922.493442,321.020409 922.188349,321.579707 C921.88404,322.095685 921.535139,322.483249 921.143995,322.699077 C920.752069,322.870812 920.44776,323 920.14345,323 L920.14345,323 L912.00453,323 C910.916368,323 909.958848,322.612436 909.175778,321.838083 C908.391926,321.062956 908,320.159414 908,319.040818 L908,319.040818 L908,260.336928 C908.043808,259.648442 908.217476,258.916635 908.47876,258.098961 C908.783852,257.281287 909.305638,256.549481 910.002656,255.946862 C910.7427,255.301696 911.830862,255 913.222552,255 L913.222552,255 Z M1010.18573,255 C1011.14245,255 1011.97009,255.343843 1012.62251,255.986815 C1013.27571,256.629786 1013.62304,257.44545 1013.62304,258.389091 L1013.62304,258.389091 L1013.62304,290.68568 C1013.62304,290.814428 1013.66684,290.943177 1013.79748,291.071925 C1013.88431,291.158271 1014.01495,291.200673 1014.14559,291.200673 L1014.14559,291.200673 L1027.37618,291.200673 L1027.37618,258.302745 C1027.37618,257.402277 1027.72508,256.629786 1028.37827,255.986815 C1029.03069,255.343843 1029.81375,255 1030.72744,255 L1030.72744,255 L1038.64874,255 C1039.56244,255 1040.34549,255.343843 1040.99791,255.986815 C1041.65111,256.629786 1042,257.402277 1042,258.302745 L1042,258.302745 L1042,319.054284 C1041.95619,320.212249 1041.56427,321.15589 1040.78122,321.885208 C1039.99738,322.656928 1039.04066,323 1037.86569,323 C1035.77702,322.914425 1034.03568,322.528179 1032.68547,321.842035 C1031.33683,321.15589 1030.2925,320.340997 1029.55247,319.397356 C1028.81244,318.453715 1028.28988,317.510073 1027.98636,316.566432 C1027.68049,315.622791 1027.50682,314.851071 1027.4638,314.207329 C1027.39078,313.671519 1027.37862,313.343973 1027.37659,313.249674 L1027.37618,305.61202 L1014.14559,305.61202 C1014.01495,305.61202 1013.88431,305.654422 1013.75367,305.783171 C1013.66684,305.869517 1013.62304,305.998265 1013.62304,306.127014 L1013.62304,306.127014 L1013.62304,314.310636 C1013.28196,313.246726 1012.57401,312.249889 1011.48665,311.335544 C1010.01441,310.098171 1008.36225,309.47139 1006.57319,309.47139 C1004.08712,309.47139 1001.9609,311.217589 1000.2532,314.660646 C999.830774,315.515629 999.41304,316.375237 999,317.236387 L999,317.236387 L999,260.190028 C999.04459,259.160811 999.436509,258.045248 1000.08892,256.930456 C1000.78437,255.814893 1002.09076,255.171922 1004.00498,255 L1004.00498,255 Z M902.69032,311 C903.344298,311 903.866698,311.211139 904.346805,311.67519 C904.782268,312.098228 905,312.60481 905,313.238987 L905,313.238987 L905,320.760253 C905,321.39443 904.782268,321.901013 904.346805,322.365823 C903.866698,322.788101 903.344298,323 902.69032,323 L902.69032,323 L896.040883,323 C898.113252,318.583544 898.420269,317.033418 898.420269,316.127342 C898.420269,314.521772 897.619048,313.044557 896.038534,311.735949 C895.702538,311.457975 895.354793,311.214937 895,311 L895,311 Z M902.693034,256 C903.346244,256 903.86803,256.213544 904.347572,256.681963 C904.782524,257.108286 905,257.618801 905,258.257902 L905,258.257902 L905,274.353302 C905,274.992403 904.782524,275.502919 904.347572,275.971338 C903.86803,276.39766 903.346244,276.610439 902.693034,276.610439 L902.693034,276.610439 L892.683665,276.610439 C892.030455,276.610439 891.508669,276.39766 891.029909,275.971338 C890.594175,275.502919 890.376699,274.992403 890.376699,274.353302 L890.376699,274.353302 L890.376699,270.520991 C890.376699,269.882655 890.159223,269.371374 889.723489,268.945817 C889.244729,268.477398 888.722943,268.263854 888.069733,268.263854 C885.197955,268.263854 882.934015,268.732273 881.367093,269.669877 C879.800953,270.605949 878.669765,271.883386 877.972747,273.502188 C877.276511,275.120223 876.884585,276.951038 876.753943,278.994631 C876.623301,281.081086 876.580275,283.252499 876.623301,285.510401 L876.623301,285.510401 L876.623301,289.17203 C876.623301,289.342712 876.623301,289.513394 876.580275,289.641215 C876.623301,289.811131 876.623301,289.938186 876.623301,290.108868 L876.623301,290.108868 L876.623301,293.771262 C876.580275,296.070496 876.623301,298.241909 876.753943,300.286268 C876.884585,302.329861 877.276511,304.160675 877.972747,305.779476 C878.669765,307.397512 879.800953,308.674949 881.367093,309.611022 C882.934015,310.54786 885.197955,311.017044 888.069733,311.017044 L888.069733,311.017044 L888.167519,311.017044 C886.918988,311.858974 885.79797,313.264231 884.816981,315.23052 C883.472229,317.946126 882.232303,320.541565 881.101898,323 C879.182164,322.760433 877.447832,322.366257 875.927065,321.789917 C873.185147,320.810217 870.965798,319.53278 869.225208,318.000468 C867.44081,316.467391 866.090582,314.849355 865.090818,313.103499 C864.08949,311.357643 863.393254,309.738842 862.95752,308.20653 C862.522568,306.673452 862.217476,305.396015 862.130642,304.416315 C862.043808,303.394519 862,302.9261 862,302.9261 L862.000685,289.987685 C862.002738,289.87198 862.010952,289.768652 862.043808,289.641215 C862,289.513394 862,289.342712 862,289.17203 L862.000584,276.390856 C862.006032,276.327411 862.049597,275.821117 862.130642,274.907445 C862.217476,273.884883 862.522568,272.649542 862.95752,271.074369 C863.393254,269.542057 864.08949,267.924021 865.090818,266.177399 C866.090582,264.474405 867.44081,262.813507 869.225208,261.28043 C870.965798,259.748118 873.185147,258.470681 875.927065,257.490981 C878.625957,256.511281 881.976495,256 885.893409,256 L885.893409,256 Z M925.017883,267.395072 C924.191006,267.438392 923.581604,267.782635 923.232703,268.427801 C922.884585,269.03042 922.667109,269.718906 922.624084,270.450713 L922.624084,270.450713 L922.624084,290.80747 C922.624084,290.936657 922.667109,291.065845 922.797751,291.195033 C922.884585,291.280901 923.015227,291.324221 923.145869,291.324221 L923.145869,291.324221 L936.376699,291.324221 L936.376699,284.825376 C936.463533,281.769735 936.376699,278.885829 936.028581,276.261072 C935.680463,273.678088 934.722943,271.526762 933.112995,269.934735 C931.459239,268.298613 928.803373,267.480939 925.017883,267.395072 Z" id="path-1"></path>
        <filter x="-12.2%" y="-12.5%" width="126.1%" height="126.7%" filterUnits="objectBoundingBox" id="filter-2">
            <feOffset dx="2" dy="2" in="SourceAlpha" result="shadowOffsetOuter1"></feOffset>
            <feGaussianBlur stdDeviation="10" in="shadowOffsetOuter1" result="shadowBlurOuter1"></feGaussianBlur>
            <feColorMatrix values="0 0 0 0 0   0 0 0 0 0   0 0 0 0 0  0 0 0 0.5 0" type="matrix" in="shadowBlurOuter1"></feColorMatrix>
        </filter>
    </defs>
    <g id="Landing-page-Cashback" stroke="none" stroke-width="1" fill="none" fill-rule="evenodd">
        <g transform="translate(-813.000000, -197.000000)" id="Combined-Shape">
            <use fill="black" fill-opacity="1" filter="url(#filter-2)" xlink:href="#path-1"></use>
            <use fill="#FFFFFF" fill-rule="evenodd" xlink:href="#path-1"></use>
        </g>
    </g>
</svg>