<?xml version="1.0" encoding="UTF-8"?>
<svg width="257px" height="241px" viewBox="0 0 257 241" version="1.1" xmlns="http://www.w3.org/2000/svg" xmlns:xlink="http://www.w3.org/1999/xlink">
    <title>logo/cashback</title>
    <defs>
        <filter x="-19.8%" y="-21.3%" width="139.6%" height="142.6%" filterUnits="objectBoundingBox" id="filter-1">
            <feOffset dx="2" dy="2" in="SourceAlpha" result="shadowOffsetOuter1"></feOffset>
            <feGaussianBlur stdDeviation="10" in="shadowOffsetOuter1" result="shadowBlurOuter1"></feGaussianBlur>
            <feColorMatrix values="0 0 0 0 0   0 0 0 0 0   0 0 0 0 0  0 0 0 0.0996230332 0" type="matrix" in="shadowBlurOuter1" result="shadowMatrixOuter1"></feColorMatrix>
            <feMerge>
                <feMergeNode in="shadowMatrixOuter1"></feMergeNode>
                <feMergeNode in="SourceGraphic"></feMergeNode>
            </feMerge>
        </filter>
    </defs>
    <g id="Landing-page-Cashback" stroke="none" stroke-width="1" fill="none" fill-rule="evenodd">
        <g id="banner/cashabck-copy-2" transform="translate(-886.000000, -81.000000)">
            <g id="content" transform="translate(159.000000, 80.000000)">
                <g id="cashback-APP-su-bianco" transform="translate(745.000000, 19.000000)" filter="url(#filter-1)">
                    <path d="M95.7499423,127.79335 C94.8663919,130.484291 93.311343,133.618421 91.1300336,137.109506 C88.6122681,141.085483 86.2288023,143.099979 84.0474928,143.099979 C83.630457,143.099979 82.3623853,143.099979 82.3623853,139.588395 C82.3623853,135.037757 83.7004342,130.046757 86.3383625,124.758177 C88.9176231,119.586226 91.6834896,116.963141 94.5589163,116.963141 C95.9669423,116.963141 97.4513072,117.684119 98.9745482,119.110522 C97.7008218,122.23193 96.6172355,125.151887 95.7499423,127.79335 M60.6228023,130.666656 C59.0847176,129.060008 58.3064863,126.836995 58.3064863,124.048509 C58.3064863,123.081552 58.4733007,122.065115 58.8019814,121.027474 C59.1250075,120.003969 59.5809195,119.14233 60.1569945,118.463764 C60.6821769,117.845985 61.2525971,117.545578 61.9021834,117.545578 C62.6061964,117.545578 62.9638577,118.433369 62.9638577,120.184213 C62.9638577,123.143047 62.1764375,126.665233 60.6228023,130.666656 M206.387428,41.8875029 C206.026939,41.2513466 205.6509,40.6166039 205.273447,40.0002391 C198.181718,28.4299687 186.830568,18.7462554 172.447073,11.9966365 C159.111115,5.73827166 143.675135,1.88811205 126.568183,0.555011075 C119.836942,0.0305355049 112.814483,-0.0776110749 105.77506,0.233398697 C78.4698153,1.43502736 54.486014,8.81868208 36.4170531,21.5849264 C17.3705319,35.0396332 4.84744072,53.8027114 1.15419967,74.4141772 C-2.37646808,94.1159394 2.59544723,116.343242 14.7948055,135.394005 C26.5530954,153.756304 45.7452257,168.393555 68.8362876,176.609868 C79.0275124,180.234545 89.8414635,182.542379 101.047711,183.485304 C100.820108,183.693115 100.561405,183.861343 100.277962,183.975851 C99.2657664,184.833956 98.2210564,185.658838 97.1395906,186.446259 C94.8310498,188.125005 92.3896231,189.644711 89.839343,190.928334 C88.0446752,191.833796 86.1354993,192.471366 84.2955938,193.270096 C81.814584,194.345907 79.294698,196.534285 79.7237502,199.543304 C79.8375515,200.344861 80.2920498,201.133695 81.0271638,201.471565 C83.3519619,202.545962 87.3477306,199.865623 89.3360726,198.871806 C92.191001,197.443988 94.9300075,195.809773 97.5085612,193.92675 C100.887965,191.458464 103.978978,188.601415 106.72576,185.446786 C107.574675,184.47276 108.485793,183.491666 109.313503,182.451197 C109.378532,182.448369 109.444975,182.446956 109.510711,182.443421 C109.49304,182.384754 109.474662,182.326793 109.457698,182.268125 C110.407692,181.050946 111.232574,179.748239 111.694141,178.277304 C112.074421,177.062952 112.332418,175.45065 111.524499,174.347979 C110.626812,173.123024 108.806698,172.927936 107.458753,172.515141 C104.286454,171.539702 101.17989,170.347262 98.1687502,168.951959 C92.1415221,166.157112 86.4853853,162.545158 81.4703528,158.183246 C80.0708088,156.966773 78.7228642,155.693047 77.4314668,154.362066 C77.2519293,154.176167 77.0730987,153.990975 76.8963886,153.804369 C76.0898837,152.95192 75.5095678,151.669711 74.445773,151.104946 C73.3367404,150.516855 72.2672909,151.508552 71.899027,152.511558 C71.4226166,153.809317 71.9371964,155.280959 72.5210466,156.453607 C72.935255,157.285558 73.4505417,158.041878 73.9114016,158.604522 C75.8439033,160.964663 77.9439261,163.186262 80.1846101,165.255891 C82.4217599,167.320571 84.7988642,169.231868 87.2918902,170.979884 C88.5380498,171.852832 89.8131899,172.68549 91.1144831,173.476444 C91.309571,173.5959 91.5096068,173.705461 91.7068153,173.822089 C93.0731378,174.533878 94.4041182,175.309281 95.7230824,176.111545 C96.0058186,176.231001 96.278659,176.370956 96.5472583,176.518685 C92.5352322,176.153956 88.5740987,175.599793 84.7041476,174.844887 C63.4897469,170.711285 45.5840661,161.098962 32.923141,147.049803 C19.3758381,132.018135 9.983343,110.845438 9.57620293,91.389656 C9.16128762,71.5217863 17.1902876,52.311985 32.1866134,37.3015225 C46.9652322,22.5045257 68.8949554,13.9150013 92.9727664,9.82734332 C115.88005,5.93689381 139.06088,7.13710879 158.248063,13.203213 C173.481887,18.0203303 185.91733,26.1242554 194.210688,36.6385062 C203.02004,47.807998 208.642955,62.913884 210.043913,79.1754541 C210.637659,86.0614932 210.44045,92.8711935 209.456529,99.4130013 C208.706571,104.408949 207.449809,109.149728 205.725118,113.499623 C203.828665,118.222731 201.468525,122.47791 198.709021,126.152066 C195.772099,130.096236 192.367249,133.524412 188.589893,136.347532 C186.590949,137.841793 184.566558,139.110571 182.573975,140.117112 C176.760213,143.051207 172.197558,143.875382 168.625893,142.642653 C165.7229,141.639646 164.535408,138.212884 163.58188,135.461154 L163.520385,135.284444 C162.034607,131.005233 161.119955,126.435509 160.424424,122.499115 C163.624998,118.824959 166.611398,116.963141 169.303753,116.963141 C170.274245,116.963141 171.590382,117.32575 171.820105,120.467656 C172.016607,123.580581 173.429581,124.234408 174.57961,124.234408 C176.408206,124.234408 177.351131,122.552128 177.382232,119.229979 C177.382232,117.02605 176.819587,115.109099 175.709141,113.530018 C174.559112,111.896509 172.767271,111.067386 170.383806,111.067386 C164.629418,111.067386 158.530092,115.870366 152.254763,125.338493 C151.922548,125.834695 151.598815,126.327363 151.283564,126.81791 C152.478125,123.230695 153.984402,119.181913 155.780483,114.730233 C157.95119,109.399242 160.128258,104.417431 162.2509,99.9233401 C164.603972,94.9507179 164.876812,93.5031088 164.876812,92.8471609 C164.876812,91.8335518 164.339613,90.8623531 163.28218,89.9611316 C162.248779,89.0789948 161.101578,88.6315648 159.872382,88.6315648 C158.257252,88.6315648 156.85488,89.8953954 155.583981,92.4951544 C151.879431,100.097223 148.809623,107.485825 146.460086,114.452444 C144.793356,119.404568 143.485701,124.091627 142.575291,128.385682 C141.736978,130.880122 140.536056,133.250158 139.007161,135.427226 C137.417477,137.689822 135.507594,139.559415 133.330525,140.982992 C131.183851,142.387483 128.833607,143.099979 126.343408,143.099979 C122.917353,143.099979 121.25133,140.551819 121.25133,135.309184 C121.25133,133.831887 121.505086,132.02591 122.006236,129.945679 C122.506679,127.859793 123.261584,125.80006 124.250454,123.824441 C125.230135,121.862959 126.425402,120.199764 127.803034,118.875851 C129.141082,117.587988 130.634636,116.963141 132.367102,116.963141 C133.33618,116.963141 134.645955,117.32575 134.843164,120.474724 C135.079249,123.581995 136.473845,124.234408 137.602669,124.234408 C139.462366,124.234408 140.405291,122.550008 140.405291,119.229979 C140.405291,116.99919 139.651799,115.062448 138.167434,113.474884 C136.673174,111.876718 134.442385,111.067386 131.536564,111.067386 C128.727581,111.067386 126.120753,111.873891 123.787473,113.463575 C121.486001,115.029226 119.475747,117.067754 117.813258,119.521197 C116.157838,121.96121 114.857252,124.604086 113.948255,127.378435 C113.643607,128.304395 113.384196,129.242373 113.174972,130.164799 C112.350089,132.503027 111.301138,134.863874 110.057806,137.180897 C107.922441,141.137083 105.796972,143.143096 103.74148,143.143096 C103.458037,143.143096 102.596398,143.143096 102.596398,140.709444 C102.596398,135.818816 104.24475,129.670011 107.495509,122.432672 C109.733366,117.424708 109.992069,115.976392 109.992069,115.323272 C109.992069,114.313904 109.463353,113.343412 108.42147,112.439363 C107.400086,111.555812 106.259245,111.109089 105.028636,111.109089 C103.52448,111.109089 102.177242,112.289513 100.924721,114.714682 C98.7829945,112.293047 96.2814863,111.067386 93.4788642,111.067386 C88.1860433,111.067386 83.550584,114.231203 79.7011313,120.474724 C77.8110401,123.538171 76.3712062,126.648268 75.4205059,129.715956 C74.0280303,132.207568 71.6297208,133.420506 68.1110694,133.421213 L67.7413919,133.407076 C69.9453202,128.756066 71.0614212,124.172913 71.0614212,119.768591 C71.0614212,116.884682 70.2195743,114.685702 68.5584993,113.230317 C66.9165091,111.794724 64.8723267,111.067386 62.483913,111.067386 C60.323102,111.067386 58.4323039,111.706369 56.8631182,112.967373 C55.3193788,114.207878 54.1283528,115.807457 53.3239684,117.720167 C52.5252388,119.617327 52.1195124,121.633943 52.1195124,123.715588 C52.1195124,126.528812 52.683571,129.067783 53.7947241,131.259695 C54.7821801,133.235314 56.1972746,134.86034 58.0074928,136.093777 C55.2246622,140.743373 52.2029195,143.099979 49.0228446,143.099979 C47.8791769,143.099979 46.9857306,142.8335 46.3651248,142.308317 C45.7247274,141.768291 45.2603332,141.051555 44.9874928,140.180021 C44.6998088,139.26749 44.5541997,138.271552 44.5541997,137.219773 C44.5541997,132.575125 47.3638902,123.612389 52.9062257,110.580373 C54.499444,106.816448 56.1039717,103.231353 57.6752779,99.9233401 C60.0283495,94.9507179 60.3004831,93.5031088 60.3004831,92.8471609 C60.3004831,91.8335518 59.7639912,90.8623531 58.706558,89.9611316 C57.6724505,89.0789948 56.5252485,88.6315648 55.2960531,88.6315648 C53.6809228,88.6315648 52.2792583,89.8953954 51.0076524,92.4958612 C47.6077502,99.5197342 44.986786,105.561099 43.2182713,110.452435 C39.1171834,121.702506 37.037659,130.288496 37.037659,135.972907 C37.037659,138.121702 37.360685,140.203347 37.9975482,142.15776 C38.6506687,144.158825 39.7915091,145.814246 41.3896752,147.076663 C42.998444,148.351096 45.2454896,148.997148 48.0664896,148.997148 C51.3695547,148.997148 54.472584,148.030897 57.2900498,146.124549 C60.1612355,144.182858 62.7065678,141.594408 64.8581899,138.431298 C65.5296883,138.494913 66.2245124,138.527428 66.9292322,138.527428 C68.9126264,138.527428 70.8458349,138.232676 72.6744309,137.650239 C73.1381182,137.503216 73.5947371,137.328627 74.0393397,137.130711 C73.9955156,137.788073 73.9736036,138.429884 73.9736036,139.048369 C73.9736036,142.460995 74.7037697,144.996431 76.1443104,146.583288 C77.5968674,148.185695 79.4311182,148.997148 81.5961704,148.997148 C85.9064831,148.997148 89.6817176,146.800288 92.8193821,142.465943 C93.4293853,141.615614 94.033027,140.711565 94.6232388,139.767933 C95.1151997,145.920979 97.6329651,149.038851 102.120695,149.038851 C104.414392,149.038851 106.490382,148.345441 108.292118,146.980532 C110.166659,145.554128 111.865196,143.637884 113.353095,141.272796 C114.884112,146.399509 118.675604,148.997148 124.639216,148.997148 C128.232086,148.997148 131.576148,148.128441 134.576685,146.41506 C136.970753,145.048031 139.113187,143.2675 140.962281,141.107395 C140.953092,141.481314 140.948851,141.84675 140.948851,142.205825 C140.948851,146.711933 142.171685,148.997148 144.582718,148.997148 C145.671959,148.997148 146.514512,148.673415 147.087053,148.035138 C147.627079,147.43079 148.006652,146.508363 148.248392,145.207777 C148.90646,141.617734 150.836841,137.080526 153.990763,131.704298 C154.076291,131.975724 154.180196,132.285321 154.3046,132.642275 C154.385887,132.877653 154.453744,133.069913 154.482017,133.173819 C154.806457,134.364138 155.11676,135.399659 155.432011,136.33905 C156.229327,138.72393 157.112877,140.70591 158.131434,142.395965 C162.120841,149.020474 169.50803,151.548135 177.891157,149.152653 C182.853177,147.731197 187.767838,145.149109 192.492359,141.477073 C196.748952,138.171887 200.53903,134.273663 203.759395,129.889838 C206.919679,125.578112 209.539229,120.845816 211.545242,115.821594 C215.257568,106.544314 217.009825,96.3184541 216.901679,84.5573368 C216.754656,68.4724769 213.118669,53.7171837 206.387428,41.8875029" id="Fill-1" fill="#F5D037"></path>
                    <path d="M65.6878085,37.3809713 L54.6137401,37.3809713 L50.5826293,37.3809713 C47.0604436,37.3809713 44.0471831,37.8510202 41.6213068,38.750828 C36.040802,40.7893557 31.5636749,45.4672254 29.9591472,51.2343362 C29.5682645,52.6819453 29.2940104,53.8171309 29.216258,54.7565218 C29.1377987,55.6563296 29.0982156,56.1263785 29.0982156,56.1263785 L29.0982156,67.8655837 C29.0982156,68.0225023 29.0982156,68.1794208 29.1377987,68.2967564 C29.0982156,68.4529681 29.0982156,68.5703036 29.0982156,68.7265153 L29.0982156,80.5060104 C29.0982156,80.5060104 29.1377987,80.9364762 29.216258,81.8751603 C29.2940104,82.7756749 29.5682645,83.9497368 29.9591472,85.3584697 C30.3507368,86.7672026 30.9769974,88.2543948 31.8775121,89.8589225 C32.776613,91.4627433 33.990258,92.9499355 35.5947857,94.3586684 C37.1597303,95.7674013 39.1558476,96.9414632 41.6213068,97.8419779 C42.2574632,98.0879583 42.9381505,98.2943557 43.6548866,98.4710658 C44.7483687,96.0239844 45.9598932,93.4256391 47.2901668,90.6781505 C47.8938085,89.4418866 48.5412743,88.4459485 49.2078248,87.6401505 C48.1489779,87.425271 47.2442221,87.0965902 46.5126423,86.6498671 C45.1039094,85.7889355 44.0867661,84.6148736 43.4605055,83.1276814 C42.834245,81.6404893 42.4822384,79.9575023 42.3641961,78.0794274 C42.2468606,76.2006456 42.2086912,74.2052352 42.2468606,72.0917824 L42.2468606,70.1748313 L42.2468606,68.7265153 C42.2468606,68.5703036 42.2468606,68.4529681 42.2086912,68.2967564 C42.2468606,68.1794208 42.2468606,68.0225023 42.2468606,67.8655837 L42.2468606,66.4568508 L42.2468606,64.5003166 C42.2086912,62.4264469 42.2468606,60.4303296 42.3641961,58.5126717 C42.4822384,56.6345967 42.834245,54.9523166 43.4605055,53.4651244 C44.0867661,51.9779322 45.1039094,50.8038704 46.5126423,49.9429388 C47.9213752,49.0820072 49.9570756,48.6515414 52.5391635,48.6515414 C53.1265479,48.6515414 53.5958899,48.8473362 54.0263557,49.277802 C54.4179453,49.6693915 54.6137401,50.1387336 54.6137401,50.7254111 L54.6137401,54.2475967 C54.6137401,54.8342743 54.808828,55.3036163 55.2004176,55.7347889 C55.6308834,56.1263785 56.1009322,56.3214664 56.6876098,56.3214664 L65.6878085,56.3214664 C66.2751928,56.3214664 66.7445349,56.1263785 67.1750007,55.7347889 C67.5665902,55.3036163 67.762385,54.8342743 67.762385,54.2475967 L67.762385,50.5303231 L67.762385,39.4555479 C67.762385,38.8681635 67.5665902,38.3988215 67.1750007,38.0079388 C66.7445349,37.5767661 66.2751928,37.3809713 65.6878085,37.3809713" id="Fill-3" fill="#0A1F8F"></path>
                    <path d="M199.987483,88.097759 L196.960085,88.097759 C198.396385,89.8471889 198.739203,91.5888436 198.739203,92.8470195 C198.739203,94.1002476 198.39073,95.6948795 196.850525,99.2114104 L199.987483,99.2114104 C200.574867,99.2114104 201.044209,99.0156156 201.474675,98.6240261 C201.866264,98.1935603 202.062059,97.7242182 202.062059,97.1375407 L202.062059,90.1716287 C202.062059,89.5849511 201.866264,89.1149023 201.474675,88.7240195 C201.044209,88.2928469 200.574867,88.097759 199.987483,88.097759" id="Fill-5" fill="#0A1F8F"></path>
                    <path d="M95.6219336,64.500458 L95.6219336,66.4569922 L95.6219336,70.4096436 L83.7251029,70.4096436 C83.6077674,70.4096436 83.4904319,70.3700606 83.4126795,70.2923081 C83.295344,70.1749726 83.2557609,70.0576371 83.2557609,69.9395948 L83.2557609,56.3216078 L83.2557609,51.4691485 L83.2557609,51.4295655 C83.295344,50.7651355 83.4904319,50.1388749 83.8035622,49.5910736 C84.1166925,49.0036893 84.6652007,48.6912658 85.4080899,48.6516827 C88.8122332,48.7294352 91.1999401,49.4730313 92.6871322,50.9602235 C94.1347414,52.4085394 94.9963798,54.3650736 95.3088033,56.7124906 C95.6219336,59.1001974 95.699686,61.7218684 95.6219336,64.500458 M107.909647,51.2344775 C107.518764,49.8257446 106.891797,48.3385524 105.991989,46.7340248 C105.092181,45.1683733 103.878536,43.6423049 102.274715,42.233572 C100.709064,40.8248391 98.7136534,39.651484 96.2481941,38.7509694 C93.8216111,37.8511616 90.8083505,37.3811127 87.2861648,37.3811127 L83.2557609,37.3811127 L74.8026567,37.3811127 C73.5508423,37.3811127 72.5732821,37.6553668 71.9074384,38.2427511 C71.2811779,38.7898456 70.8118358,39.4549824 70.5375818,40.1992853 C70.3029107,40.9421746 70.1459922,41.6080182 70.107116,42.233572 L70.107116,42.273155 L70.107116,50.5297577 L70.107116,59.4522039 L70.107116,77.7664384 L70.107116,95.6113309 C70.107116,96.6284743 70.4591225,97.4505296 71.1638423,98.1545427 C71.8685622,98.8592625 72.728787,99.2112691 73.7070541,99.2112691 L80.9860964,99.2112691 L81.0249726,99.2112691 C81.2992267,99.2112691 81.5734808,99.0939336 81.9254873,98.9377218 C82.2774938,98.741927 82.5906241,98.3892137 82.8641713,97.9198717 C83.1384254,97.4116534 83.2557609,96.7069336 83.2557609,95.7286664 L83.2557609,84.0276306 C83.2557609,83.9102951 83.295344,83.7929596 83.4126795,83.7145003 C83.4904319,83.5971648 83.6077674,83.5582886 83.7251029,83.5582886 L95.6219336,83.5582886 L95.6219336,90.1997609 C95.6219336,90.1997609 95.6615166,90.5128912 95.699686,91.1002756 C95.7392691,91.6869531 95.8954808,92.391673 96.1697349,93.2526046 C96.4439889,94.1135362 96.9522072,94.9744678 97.6180508,95.8353993 C98.2436046,96.6963309 99.1829954,97.439927 100.395934,98.0654808 C101.608872,98.6917414 103.17523,99.0444547 105.092181,99.1222072 C106.109324,99.1222072 107.009132,98.7702007 107.713852,98.1050638 C108.417865,97.400344 108.770579,96.5394124 108.770579,95.5222691 L108.770579,56.125813 C108.770579,56.125813 108.731702,55.656471 108.653243,54.7566632 C108.574784,53.8172723 108.30053,52.6820866 107.909647,51.2344775" id="Fill-7" fill="#0A1F8F"></path>
                    <path d="M146.142007,37.2653322 L132.970037,37.2653322 C126.829714,37.2653322 120.928304,39.0331401 116.461073,43.4275668 C115.689203,44.1867134 114.97388,45.0038208 114.324294,45.8697003 C112.075128,48.8674104 110.932167,52.2581238 110.932167,55.9655016 C110.932167,58.8437557 111.327291,61.0915081 112.036252,62.6691759 C112.786209,64.2864267 114.009043,65.9418469 115.70334,67.71743 C117.438633,69.4923062 119.331551,70.7928925 121.422385,71.5817264 C126.250812,73.5311922 133.672636,73.4449577 135.887874,79.1668306 C137.028714,82.1164756 135.186688,85.3333062 132.668216,86.9123876 C131.576148,87.597316 130.231737,88.234886 128.914893,88.234886 C128.914187,88.234886 112.982711,88.4328013 112.982711,88.4328013 C112.429962,88.4328013 111.917503,88.6300098 111.523793,89.0237199 C111.128669,89.4188436 110.932167,89.9313029 110.932167,90.4833453 L110.932167,95.6489349 C110.932167,96.7926026 111.325877,97.7793518 112.155001,98.5681857 C112.943835,99.3958958 113.92917,99.7903127 115.072131,99.7903127 L128.244809,99.7903127 C134.384424,99.7903127 140.286542,98.0225049 144.753773,93.6280782 C145.525643,92.8689316 146.240965,92.0518241 146.890551,91.1852378 C149.139011,88.1882345 150.281972,84.7975212 150.281972,81.0901433 C150.281972,77.1756612 148.905753,73.2640065 146.464327,70.2055081 C143.663118,66.6960456 139.648972,64.971355 135.374708,63.9287655 C131.375405,62.9533257 124.585496,61.4753225 124.948105,56.0764756 C125.104317,53.7389544 126.569597,51.3830554 128.54663,50.1425505 C129.638698,49.458329 130.983108,48.820759 132.299952,48.820759 C132.300659,48.820759 148.232135,48.6228436 148.232135,48.6228436 C148.784884,48.6228436 149.297343,48.4256352 149.691053,48.0312182 C150.08547,47.6360945 150.281972,47.124342 150.281972,46.5722997 L150.281972,41.4067101 C150.281972,40.2623355 149.888968,39.2762932 149.059845,38.4874593 C148.271011,37.6597492 147.285675,37.2653322 146.142007,37.2653322" id="Fill-9" fill="#0A1F8F"></path>
                    <path d="M190.825488,38.2814153 C190.356146,37.8113664 189.809759,37.520855 189.190566,37.4218974 C189.162293,37.4176564 189.135433,37.4127085 189.107866,37.4091743 C188.979221,37.3929169 188.847749,37.3809007 188.713449,37.3809007 L181.590619,37.3809007 C181.455612,37.3809007 181.324847,37.3929169 181.195495,37.4091743 C181.167928,37.4127085 181.140361,37.4176564 181.113501,37.4218974 C180.493602,37.520855 179.947215,37.8113664 179.477873,38.2814153 C178.890488,38.8680928 178.578065,39.5728127 178.578065,40.3948681 L178.578065,40.6684153 L178.578065,45.156145 L178.578065,60.7433893 L178.578065,66.4567801 L178.578065,70.4094316 L166.681234,70.4094316 C166.563899,70.4094316 166.446563,70.3698485 166.36669,70.2920961 C166.250768,70.1747606 166.211185,70.0574251 166.211185,69.9400896 L166.211185,40.4733274 C166.211185,39.6116889 165.898055,38.8680928 165.311378,38.2814153 C164.723993,37.6947378 163.980397,37.3809007 163.120172,37.3809007 L157.562993,37.3809007 C155.841837,37.5378192 154.667068,38.1244967 154.040807,39.1423469 C153.454837,40.1594902 153.102123,41.1773404 153.06254,42.1160244 L153.06254,42.272943 L153.06254,42.3902785 L153.06254,50.5302524 L153.06254,59.4526987 L153.06254,77.7662264 L153.06254,88.6098648 C155.335032,85.2721645 157.946807,84.4925195 159.872241,84.4925195 C162.081824,84.4925195 164.189622,85.2947834 165.969446,86.8123697 C166.054267,86.8844674 166.129899,86.957272 166.211185,87.0300765 L166.211185,84.0281254 C166.211185,83.9107899 166.250768,83.7934544 166.329228,83.7142883 C166.446563,83.5969528 166.563899,83.5580765 166.681234,83.5580765 L178.578065,83.5580765 L178.578065,90.499956 C178.578065,90.499956 178.578065,90.8130863 178.655817,91.4004707 C178.6954,91.9871482 178.851612,92.6918681 179.125159,93.5527997 C179.399413,94.4137313 179.868755,95.2746629 180.533892,96.1348876 C181.199736,96.9965261 182.13842,97.7401221 183.352065,98.3656759 C184.565003,98.9919365 186.129948,99.343943 188.008729,99.4224023 C189.065456,99.4224023 189.926387,99.109272 190.6304,98.405259 C191.33512,97.7401221 191.687834,96.8784837 191.726003,95.8224642 L191.726003,83.401158 L191.726003,80.3878974 L191.726003,73.5400277 L191.726003,56.1263078 L191.726003,56.0089723 L191.726003,45.4056596 L191.726003,40.3948681 C191.726003,39.5728127 191.412873,38.8680928 190.825488,38.2814153" id="Fill-11" fill="#0A1F8F"></path>
                </g>
            </g>
        </g>
    </g>
</svg>