<svg width="0" height="0" class="hidden">
    <symbol xmlns="http://www.w3.org/2000/svg" id="scadenze" viewBox="0 0 52 50">
    <g fill="none" fill-rule="evenodd">
        <path fill="#06C" d="M29.0109727,9.08291075 L29.0109727,6.94974645 L33.9280195,6.94974645 L33.9280195,9.07925963 C32.2953008,8.88534483 30.6433867,8.88656187 29.0109727,9.08291075 M26.3913711,3.50136917 C26.3913711,2.71840771 27.029082,2.08149087 27.8132461,2.08149087 L35.1258477,2.08149087 C35.9099102,2.08149087 36.5477227,2.71840771 36.5477227,3.50136917 C36.5477227,4.28443205 35.9099102,4.92124746 35.1258477,4.92124746 L34.9436445,4.92124746 L27.9953477,4.92124746 L27.8132461,4.92124746 C27.029082,4.92124746 26.3913711,4.28433063 26.3913711,3.50136917 M51.899707,27.3742901 C51.4329258,22.6847363 49.3348477,18.263641 45.991918,14.9254057 C43.135168,12.0726673 39.6385742,10.239503 35.9592695,9.42439148 L35.9592695,6.84751521 C37.4619883,6.47418864 38.5789727,5.11587221 38.5789727,3.50126775 C38.5789727,1.59984787 37.0299414,0.0529918864 35.1258477,0.0529918864 L27.8132461,0.0529918864 C25.9090508,0.0529918864 24.3600195,1.59984787 24.3600195,3.50126775 C24.3600195,5.11577079 25.4771055,6.47408722 26.9797227,6.84751521 L26.9797227,9.43159229 C23.3116914,10.2501521 19.8265742,12.0808824 16.9779492,14.9255071 C16.3545586,15.5480223 15.7797148,16.2010649 15.2535195,16.8797667 C15.2280273,16.8778398 15.2025352,16.8759128 15.1765352,16.8759128 L7.93898828,16.8759128 C7.37816016,16.8759128 6.92326172,17.3299696 6.92326172,17.8901116 C6.92326172,18.450355 7.37816016,18.9044118 7.93898828,18.9044118 L13.8715586,18.9044118 C13.1269023,20.1493408 12.5263633,21.4567444 12.069332,22.8025862 L1.01567578,22.8025862 C0.454847656,22.8025862 5.078125e-05,23.256643 5.078125e-05,23.816785 C5.078125e-05,24.376927 0.454847656,24.8309838 1.01567578,24.8309838 L11.4954023,24.8309838 C11.2026992,26.1141481 11.0347148,27.419929 10.9913477,28.7293611 L6.50005078,28.7293611 C5.93932422,28.7293611 5.48442578,29.1834178 5.48442578,29.7435598 C5.48442578,30.3038032 5.93932422,30.7577586 6.50005078,30.7577586 L11.0237461,30.7577586 C11.1094648,32.0706389 11.3208164,33.3765213 11.6579023,34.6561359 L5.07817578,34.6561359 C4.51734766,34.6561359 4.06255078,35.1101927 4.06255078,35.6703347 C4.06255078,36.2304767 4.51734766,36.6846349 5.07817578,36.6846349 L12.3060742,36.6846349 C13.3025039,39.3165822 14.8595586,41.7834178 16.9779492,43.8989351 C20.3241289,47.2403144 24.7559102,49.3358519 29.4569336,49.799645 C30.1278555,49.8658722 30.7992852,49.8986308 31.4698008,49.8986308 C35.4330742,49.8986308 39.3459727,48.7531947 42.6660508,46.5941684 C43.136082,46.2884888 43.2691289,45.6601927 42.962918,45.1908215 C42.6568086,44.7214503 42.0276289,44.5885903 41.5575977,44.8943712 C34.2899883,49.6203347 24.5568477,48.5985294 18.4143477,42.4645538 C11.2070664,35.2674949 11.2070664,23.5570487 18.4143477,16.3598884 C25.6213242,9.16293103 37.3482383,9.16293103 44.5556211,16.3598884 C50.6898945,22.4857505 51.7188242,32.1970081 47.0018555,39.4508621 C46.6963555,39.9206389 46.8301133,40.5488337 47.3004492,40.8538032 C47.7710898,41.1588742 48.3999648,41.0253043 48.7053633,40.5555274 C51.2256367,36.6796653 52.3599883,31.9986308 51.899707,27.3742901" mask="url(#scadenze-b)"/>
        <path fill="#06C" d="M45.3968667 41.8032787C45.1788903 41.8032787 44.9667739 41.8909836 44.8134228 42.0434426 44.6590813 42.1959016 44.5714286 42.407377 44.5714286 42.6229508 44.5714286 42.8385246 44.6590813 43.05 44.8134228 43.202459 44.9667739 43.3557377 45.1789728 43.442623 45.3968667 43.442623 45.6139352 43.442623 45.825969 43.3557377 45.9803105 43.202459 46.1339092 43.05 46.2222222 42.8385246 46.2222222 42.6229508 46.2222222 42.407377 46.1339917 42.1959016 45.9803105 42.0434426 45.825969 41.8909836 45.6138526 41.8032787 45.3968667 41.8032787M31.3650288 43.0213146C23.8324684 43.0213146 17.7043779 36.7754765 17.7043779 29.0984122 17.7043779 21.4212448 23.8324684 15.1755097 31.3650288 15.1755097 38.8975892 15.1755097 45.0256797 21.4212448 45.0256797 29.0984122 45.0256797 36.7754765 38.8975892 43.0213146 31.3650288 43.0213146M31.3650288 13.1147541C22.7176268 13.1147541 15.6825397 20.2848979 15.6825397 29.0983091 15.6825397 37.9118234 22.7176268 45.0819672 31.3650288 45.0819672 40.0123297 45.0819672 47.047619 37.9118234 47.047619 29.0983091 47.047619 20.2848979 40.0123297 13.1147541 31.3650288 13.1147541"/>
        <path fill="#06C" d="M31.1629506 30.7267004C30.5201784 30.7267004 29.9972022 30.2149505 29.9972022 29.5860791 29.9972022 28.9570016 30.5201784 28.4453547 31.1629506 28.4453547 31.8057228 28.4453547 32.328699 28.9570016 32.328699 29.5860791 32.328699 30.2149505 31.8057228 30.7267004 31.1629506 30.7267004M37.8219487 21.6131637L32.6079775 26.7152115C32.1718482 26.5042486 31.6814002 26.3850669 31.1629506 26.3850669 30.6443957 26.3850669 30.154053 26.5042486 29.7179237 26.7152115L27.3844268 24.4318056C26.9732463 24.0294515 26.3068938 24.0294515 25.895608 24.4318056 25.4845328 24.8339537 25.4845328 25.4863112 25.895608 25.8884593L28.2292102 28.1719682C28.0134088 28.5986325 27.8918232 29.0785525 27.8918232 29.585873 27.8918232 31.3509364 29.3590618 32.7868852 31.1629506 32.7868852 32.9667341 32.7868852 34.434078 31.3509364 34.434078 29.585873 34.434078 29.0785525 34.3122818 28.5986325 34.096691 28.1719682L39.1577064 23.2195929 39.3106622 23.0699204C39.7218428 22.6676693 39.7218428 22.0154148 39.3106622 21.6131637 38.899587 21.2109126 38.2332345 21.2109126 37.8219487 21.6131637M42.0745369 28.6885246L41.2905425 28.6885246C40.8234117 28.6885246 40.4444444 29.0555554 40.4444444 29.5081557 40.4444444 29.960838 40.8234117 30.3278689 41.2905425 30.3278689L42.0745369 30.3278689C42.5416676 30.3278689 42.9206349 29.960838 42.9206349 29.5081557 42.9206349 29.0555554 42.5416676 28.6885246 42.0745369 28.6885246M21.4395584 28.6885246L20.6556797 28.6885246C20.1884324 28.6885246 19.8095238 29.0555554 19.8095238 29.5082377 19.8095238 29.960838 20.1884324 30.3278689 20.6556797 30.3278689L21.4395584 30.3278689C21.9068057 30.3278689 22.2857143 29.960838 22.2857143 29.5082377 22.2857143 29.0555554 21.9068057 28.6885246 21.4395584 28.6885246M31.3650794 20.4918033C31.8208635 20.4918033 32.1904762 20.1156196 32.1904762 19.6515448L32.1904762 18.8730453C32.1904762 18.4089706 31.8208635 18.0327869 31.3650794 18.0327869 30.9092952 18.0327869 30.5396825 18.4089706 30.5396825 18.8730453L30.5396825 19.6515448C30.5396825 20.1156196 30.9092952 20.4918033 31.3650794 20.4918033M31.3650794 38.5245902C30.9092952 38.5245902 30.5396825 38.9007867 30.5396825 39.3648773L30.5396825 40.1433194C30.5396825 40.60741 30.9092952 40.9836066 31.3650794 40.9836066 31.8208635 40.9836066 32.1904762 40.60741 32.1904762 40.1433194L32.1904762 39.3648773C32.1904762 38.9007867 31.8208635 38.5245902 31.3650794 38.5245902M.825396825 35.2459016C.60831746 35.2459016.395365079 35.3336022.24184127 35.4861355.0883174603 35.638505 0 35.8499698 0 36.0655328 0 36.2819974.0882349206 36.4925606.24184127 36.645012.395447619 36.7975454.60831746 36.8852459.825396825 36.8852459 1.04247619 36.8852459 1.25542857 36.7975454 1.40886984 36.645012 1.56239365 36.4925606 1.65079365 36.2811777 1.65079365 36.0655328 1.65079365 35.8499698 1.56247619 35.638505 1.40886984 35.4861355 1.25542857 35.3336022 1.04247619 35.2459016.825396825 35.2459016"/>
    </g>
    </symbol>
    <symbol xmlns="http://www.w3.org/2000/svg" id="pagamenti" viewBox="0 0 40 50">
    <g fill="#06C" fill-rule="evenodd">
        <path d="M28.2969804,37.5636437 L38.2531937,37.5636437 L38.2531937,29.174472 L28.2969804,29.174472 L28.2969804,37.5636437 Z M35.6811962,46.1224725 C35.6811962,47.2967888 34.7263919,48.2521588 33.552771,48.2521588 L1.74680626,48.2521588 L1.74680626,18.4864231 L33.552771,18.4864231 C34.7263919,18.4864231 35.6811962,19.4417931 35.6811962,20.6161093 L35.6811962,27.4267473 L27.4235772,27.4267473 C26.9412258,27.4267473 26.5501741,27.8180307 26.5501741,28.300668 L26.5501741,38.4376809 C26.5501741,38.9203181 26.9412258,39.3116015 27.4235772,39.3116015 L35.6811962,39.3116015 L35.6811962,46.1224725 Z M13.6263698,6.06719563 C14.5142132,6.57115651 15.5107079,6.83531358 16.5525032,6.83531358 C18.1089075,6.83531358 19.5672579,6.23988234 20.6693762,5.1808071 L28.3285393,11.1343038 C27.8249933,12.0226732 27.5609927,13.0197584 27.5609927,14.0620544 C27.5609927,15.0058886 27.7812067,15.9175626 28.1946175,16.7385819 L5.3408019,16.7385819 L13.6263698,6.06719563 Z M16.7063386,2.10029523 L19.2691363,4.09236812 C18.5163792,4.73149538 17.5635546,5.08747238 16.5525032,5.08747238 C15.904671,5.08747238 15.2814105,4.94356678 14.7138149,4.66659221 L16.7063386,2.10029523 Z M25.0092581,2.75806614 L26.6214438,7.59410971 L21.7848866,3.83450328 L25.0092581,2.75806614 Z M30.3346881,16.7385819 L30.2680765,16.7385819 C29.6469122,15.9861945 29.3076825,15.048769 29.3076825,14.0620544 C29.3076825,13.4138383 29.4515028,12.7903251 29.7283134,12.2223932 L32.2930908,14.2159809 L30.3346881,16.7385819 Z M39.1265969,27.4267473 L37.4280025,27.4267473 L37.4280025,20.6161093 C37.4280025,18.4780334 35.6895809,16.7385819 33.552771,16.7385819 L32.5466106,16.7385819 L34.2084056,14.5981755 C34.5043146,14.2170296 34.435374,13.6679744 34.0544538,13.3718901 L29.1069162,9.52617338 L26.3898173,1.37587331 C26.3165679,1.15599489 26.1588895,0.974219405 25.9517183,0.870630683 C25.7443141,0.766925438 25.5044194,0.75002964 25.2847876,0.82343897 L20.1265852,2.54564517 L17.0883069,0.183845612 C16.7073867,-0.112355211 16.1588895,-0.0432572223 15.8627476,0.337888683 L3.12876291,16.7385819 L0.873403128,16.7385819 C0.391051694,16.7385819 0,17.1298652 0,17.6125025 L0,49.1260794 C0,49.6087166 0.391051694,50 0.873403128,50 L33.552771,50 C35.6895809,50 37.4280025,48.2605484 37.4280025,46.1224725 L37.4280025,39.3114849 L39.1265969,39.3114849 C39.6089483,39.3114849 40,38.9202016 40,38.4375643 L40,28.3005514 C40,27.8180307 39.6089483,27.4267473 39.1265969,27.4267473 L39.1265969,27.4267473 Z"/>
        <path d="M34.0000667,33.0000444 C34.5514123,33.0000444 34.9999556,33.4485877 34.9999556,34.0000667 C34.9999556,34.5514123 34.5514123,34.9999556 34.0000667,34.9999556 C33.4487211,34.9999556 33.0000444,34.5514123 33.0000444,34.0000667 C33.0000444,33.4487211 33.4485877,33.0000444 34.0000667,33.0000444 M34.0000667,37 C35.6542368,37 37,35.6542368 37,34.0000667 C37,32.3458966 35.6542368,31 34.0000667,31 C32.3458966,31 31,32.3457632 31,34.0000667 C31,35.6542368 32.3457632,37 34.0000667,37"/>
    </g>
    </symbol>
    <symbol xmlns="http://www.w3.org/2000/svg" id="notifiche" viewBox="0 0 34 44">
    <g fill="none" fill-rule="evenodd">
        <path fill="#06C" d="M16.9580415,42.28125 C15.2101057,42.28125 13.7429007,41.0315469 13.361597,39.359375 L20.5544859,39.359375 C20.1731822,41.0315469 18.7059773,42.28125 16.9580415,42.28125 M16.9580415,1.71875 C17.7449946,1.71875 18.385202,2.37410937 18.385202,3.17960156 C18.385202,3.98517969 17.7449946,4.64053906 16.9580415,4.64053906 C16.1710884,4.64053906 15.530881,3.98517969 15.530881,3.17960156 C15.530881,2.37410937 16.1710884,1.71875 16.9580415,1.71875 M27.7290736,6.359375 C30.2287872,6.359375 32.2624069,8.44121094 32.2624069,11 C32.2624069,13.5587891 30.2287872,15.640625 27.7290736,15.640625 C25.22936,15.640625 23.1957402,13.5587891 23.1957402,11 C23.1957402,8.44121094 25.22936,6.359375 27.7290736,6.359375 M32.6595773,32.4889297 C31.7508119,31.6384922 31.2295625,30.4327031 31.2295625,29.1807656 L31.2295625,20.625 C31.2295625,20.1504531 30.8537156,19.765625 30.3900563,19.765625 C29.926397,19.765625 29.5505501,20.1504531 29.5505501,20.625 L29.5505501,29.1807656 C29.5505501,30.914125 30.2708464,32.5822578 31.5267477,33.7575391 C31.9781501,34.1798359 32.2369699,34.7808828 32.2369699,35.4065078 C32.2369699,36.6384219 31.2577699,37.6407109 30.0543378,37.6407109 L3.86157728,37.6407109 C2.65814519,37.6407109 1.67902914,36.6384219 1.67902914,35.4065078 C1.67902914,34.7809688 1.93784889,34.1800078 2.38925136,33.7575391 C3.64515259,32.5822578 4.36544889,30.914125 4.36544889,29.1807656 L4.36544889,19.25 C4.36544889,12.1421094 10.0144859,6.359375 16.9580415,6.359375 C18.8677501,6.359375 20.7487477,6.80392969 22.4522736,7.64946875 C21.8601699,8.62314063 21.5168119,9.77109375 21.5168119,11 C21.5168119,14.5065938 24.3036365,17.359375 27.7291575,17.359375 C31.1546785,17.359375 33.9415032,14.5065938 33.9415032,11 C33.9415032,7.49340625 31.1546785,4.640625 27.7291575,4.640625 C26.1237699,4.640625 24.6585798,5.26728125 23.554881,6.29414844 C22.3035131,5.62598438 20.9610588,5.1535 19.5746983,4.88958594 C19.8840563,4.39544531 20.0642143,3.80883594 20.0642143,3.1796875 C20.0642143,1.42647656 18.670802,8.59375e-05 16.9580415,8.59375e-05 C15.245281,8.59375e-05 13.8518686,1.42647656 13.8518686,3.1796875 C13.8518686,3.80814844 14.0316069,4.39407031 14.3402094,4.88795313 C7.71684148,6.14994531 2.68643654,12.1095391 2.68643654,19.25 L2.68643654,29.1807656 C2.68643654,30.4327031 2.16527111,31.6384922 1.25642173,32.4889297 C0.457967407,33.2360703 1.67901235e-05,34.2994609 1.67901235e-05,35.4064219 C1.67901235e-05,37.5860547 1.73233778,39.359375 3.86157728,39.359375 L11.6511872,39.359375 C12.0554933,41.9852813 14.2810242,44 16.9580415,44 C19.6350588,44 21.8605896,41.9852813 22.2648958,39.359375 L30.0544217,39.359375 C32.1837452,39.359375 33.9160662,37.5860547 33.9160662,35.4064219 C33.9160662,34.2994609 33.4580316,33.2360703 32.6595773,32.4889297" mask="url(#notifiche-b)"/>
        <path fill="#06C" d="M8 18C7.4477 18 7 18.4431908 7 18.989707L7 19.010293C7 19.5568092 7.4477 20 8 20 8.5523 20 9 19.5568092 9 19.010293L9 18.989707C9 18.4431908 8.5523 18 8 18M16.1879396 9C12.2030782 9 8.62197324 11.6452782 7.06476629 15.7393511 6.88952366 16.2000181 7.08214438 16.7321008 7.49491466 16.9276781 7.59845236 16.9767084 7.70605036 17 7.81186182 17 8.12791572 17 8.42845926 16.7927316 8.55976942 16.4476165 9.861827 13.0244698 12.856056 10.8125793 16.1879396 10.8125793 16.6364406 10.8125793 17 10.4067428 17 9.90628965 17 9.40583651 16.6364406 9 16.1879396 9M28.4120859 8.06384491C28.0564612 7.93409426 27.6466452 8.00569241 27.3742599 8.24603364L26.2790044 9.21244069C25.9069985 9.54059891 25.9069985 10.072711 26.2790044 10.4009533 26.5012937 10.5970079 26.8063461 10.6761692 27.0952079 10.637597L27.0952079 12.159646C27.0952079 12.6236895 27.5215956 13 28.0476039 13 28.5736123 13 29 12.6236895 29 12.159646L29 8.84024792C29 8.50032475 28.7679011 8.1939317 28.4120859 8.06384491"/>
    </g>
    </symbol>
    <symbol  xmlns="http://www.w3.org/2000/svg" id="documenti" viewBox="0 0 37 43">
    <path fill="#5C6F82" d="M36.7316903,10.4067922 L25.8797431,0.251097166 C25.7078531,0.0903162299 25.4749558,0 25.2320658,0 L4.45125831,0 C1.9967639,0 0,1.86883229 0,4.16586686 L0,37.8342152 C0,40.1311677 1.99685155,42 4.45134597,42 L32.548654,42 C35.0031484,42 37,40.1312497 37,37.8342152 L37,11.0129199 C37,10.7856117 36.903405,10.5675731 36.7316903,10.4067922 Z M26.1482281,2.92678725 L33.8729345,10.1558591 L28.7677755,10.1558591 C28.0679439,10.1558591 27.4100111,9.90082441 26.9152905,9.43784094 C26.4204822,8.9749395 26.1481404,8.35929617 26.1482281,7.70444198 L26.1482281,2.92678725 Z M24.3164295,1.71428571 L24.3164295,7.70427792 C24.3162542,8.81702965 24.7792439,9.86317214 25.6199359,10.6499323 C26.4607155,11.4367745 27.5785702,11.8700628 28.7676878,11.8700628 L35.1681138,11.8700628 L35.1681138,37.8341331 C35.1681138,39.1859235 33.9930208,40.2856323 32.548654,40.2856323 L4.45125831,40.2856323 C3.00680387,40.2856323 1.83171094,39.1859235 1.83171094,37.8341331 L1.83171094,4.16586686 C1.83171094,2.81407654 3.00689152,1.71428571 4.45125831,1.71428571 L24.3164295,1.71428571 Z M24.6786169,30.176777 L8.26132576,30.176777 C7.75556071,30.176777 7.34542646,30.5605184 7.34542646,31.0339199 C7.34542646,31.5073213 7.75556071,31.8910627 8.26132576,31.8910627 L24.6786169,31.8910627 C25.1843819,31.8910627 25.5945162,31.5073213 25.5945162,31.0339199 C25.5945162,30.5605184 25.1843819,30.176777 24.6786169,30.176777 Z M24.6786169,24.5067881 L8.26132576,24.5067881 C7.75556071,24.5067881 7.34542646,24.8905295 7.34542646,25.3639309 C7.34542646,25.8373323 7.75556071,26.2210738 8.26132576,26.2210738 L24.6786169,26.2210738 C25.1843819,26.2210738 25.5945162,25.8373323 25.5945162,25.3639309 C25.5945162,24.8905295 25.1843819,24.5067881 24.6786169,24.5067881 Z M24.6786169,18.8367991 L8.26132576,18.8367991 C7.75556071,18.8367991 7.34542646,19.2205406 7.34542646,19.693942 C7.34542646,20.1673434 7.75556071,20.5510849 8.26132576,20.5510849 L24.6786169,20.5510849 C25.1843819,20.5510849 25.5945162,20.1673434 25.5945162,19.693942 C25.5945162,19.2205406 25.1843819,18.8367991 24.6786169,18.8367991 Z M19.3835992,13.5765555 L7.9815329,13.5765555 C7.63027114,13.5765555 7.34542646,13.960297 7.34542646,14.4336984 C7.34542646,14.9070998 7.63027114,15.2908412 7.9815329,15.2908412 L19.3835992,15.2908412 C19.7348609,15.2908412 20.0197056,14.9070998 20.0197056,14.4336984 C20.0197056,13.960297 19.7348609,13.5765555 19.3835992,13.5765555 Z" opacity=".5" transform="translate(0 .414)"/>
    </symbol>
    <symbol xmlns="http://www.w3.org/2000/svg" id="commenti" width="61" height="48" viewBox="0 0 61 48">
    <g fill="none" fill-rule="evenodd">
        <path fill="#06C" d="M44.3863877,0.0599476998 L3.43738468,0.0599476998 C1.54194083,0.0599476998 0,1.56305666 0,3.41064988 L0,27.359047 C0,29.2066402 1.54194083,30.7098654 3.43738468,30.7098654 L6.09265139,30.7098654 L6.09265139,39.6253133 C6.09265139,40.1930615 6.44341222,40.7049065 6.98159524,40.9222431 C7.15971784,40.9943012 7.34690156,41.029168 7.53241613,41.029168 C7.90726048,41.029168 8.27542822,40.8864465 8.55095789,40.6179719 L18.7150341,30.7099816 L20.7542637,30.7099816 C21.5496157,30.7099816 22.1942669,30.0816814 22.1942669,29.3063593 C22.1942669,28.5308048 21.5493772,27.9025046 20.7542637,27.9025046 C20.7542637,27.9025046 18.0490416,27.9042479 18.0207852,27.9071535 C17.6855236,27.9292358 17.3564618,28.0638218 17.1001274,28.3137007 L8.97265778,36.2364901 C8.97265778,36.2364901 8.97015405,29.2174489 8.96550426,29.1810712 C8.90052647,28.4644416 8.28389321,27.9025046 7.53193923,27.9025046 L3.43738468,27.9025046 C3.13002186,27.9025046 2.88012562,27.6586692 2.88012562,27.3591632 L2.88012562,3.41064988 C2.88012562,3.1110276 3.13014108,2.8674247 3.43738468,2.8674247 L44.3863877,2.8674247 C44.6937505,2.8674247 44.9436468,3.11114383 44.9436468,3.41064988 L44.9436468,12.5986402 C44.9436468,13.3739622 45.5885364,14.0023787 46.38365,14.0023787 C47.1787635,14.0023787 47.8236532,13.3739622 47.8236532,12.5986402 L47.8236532,3.41064988 C47.8236532,1.56305666 46.2817123,0.0599476998 44.3863877,0.0599476998" mask="url(#commenti-b)"/>
        <g transform="translate(25.271 17.143)">
        <path fill="#06C" d="M32.8420494,19.9046875 C32.8420494,20.2070405 32.5914714,20.4531937 32.2835365,20.4531937 L29.848736,20.4531937 C29.089235,20.4531937 28.4681075,21.0293892 28.4111091,21.7609265 C28.4075243,21.7920183 28.4050149,26.0187429 28.4050149,26.0187429 L23.1648642,20.8734609 C23.1592481,20.8680639 23.1535124,20.8629015 23.1480157,20.8575044 C23.1274628,20.8377934 23.1079853,20.8207809 23.0895833,20.805411 C22.83554,20.5865951 22.5037064,20.4530764 22.1396096,20.4530764 L3.55537524,20.4530764 C3.24732086,20.4530764 2.99686238,20.2069232 2.99686238,19.9045701 L2.99686238,3.41183791 C2.99686238,3.10948485 3.24744036,2.863449 3.55537524,2.863449 L32.2835365,2.863449 C32.5914714,2.863449 32.8420494,3.10960217 32.8420494,3.41183791 L32.8420494,19.9046875 Z M32.283417,0.0294022814 L3.55537524,0.0294022814 C1.65578627,0.0294022814 0.110256699,1.54668202 0.110256699,3.41207257 L0.110256699,19.9046875 C0.110256699,21.7698433 1.65566678,23.2873577 3.55537524,23.2873577 L21.5408274,23.2873577 L28.8275441,30.4421084 C29.1036937,30.713135 29.4729287,30.8572133 29.8483775,30.8572133 C30.0343094,30.8572133 30.2219143,30.8218977 30.4004377,30.7492719 C30.9395926,30.5298694 31.2913816,30.0131589 31.2913816,29.4400139 L31.2913816,23.2872404 L32.2832975,23.2872404 C34.183006,23.2872404 35.7284161,21.7698433 35.7284161,19.9045701 L35.7284161,3.41183791 C35.7284161,1.54668202 34.183245,0.0294022814 32.283417,0.0294022814 L32.283417,0.0294022814 Z" mask="url(#commenti-d)"/>
        </g>
        <path fill="#06C" d="M43.1357143 27.4285714C42.4141775 27.4285714 41.8285714 28.0046012 41.8285714 28.7143389 41.8285714 29.4240766 42.4141775 30 43.1357143 30 43.8573593 30 44.4428571 29.4240766 44.4428571 28.7143389 44.4428571 28.0046012 43.8572511 27.4285714 43.1357143 27.4285714M36.9192502 9.42857143L11.0093212 9.42857143C10.2231432 9.42857143 9.58571429 10.0041516 9.58571429 10.7142857 9.58571429 11.4244198 10.2232611 12 11.0093212 12L36.9192502 12C37.7054282 12 38.3428571 11.4244198 38.3428571 10.7142857 38.3428571 10.0041516 37.7054282 9.42857143 36.9192502 9.42857143M21.189628 18.8571429L11.0532291 18.8571429C10.2428032 18.8571429 9.58571429 19.432723 9.58571429 20.1428571 9.58571429 20.8529913 10.2429247 21.4285714 11.0532291 21.4285714L21.189628 21.4285714C22.0001754 21.4285714 22.6571429 20.8529913 22.6571429 20.1428571 22.6571429 19.432723 22.0000539 18.8571429 21.189628 18.8571429M36.1642857 27.4285714C35.4428571 27.4285714 34.8571429 28.0046012 34.8571429 28.7143389 34.8571429 29.4240766 35.4428571 30 36.1642857 30 36.8859307 30 37.4714286 29.4240766 37.4714286 28.7143389 37.4714286 28.0046012 36.8859307 27.4285714 36.1642857 27.4285714M50.1071429 27.4285714C49.3856061 27.4285714 48.8 28.0046012 48.8 28.7143389 48.8 29.4240766 49.3856061 30 50.1071429 30 50.8287879 30 51.4142857 29.4240766 51.4142857 28.7143389 51.4142857 28.0046012 50.8286797 27.4285714 50.1071429 27.4285714"/>
    </g>
    </symbol>
    <symbol xmlns="http://www.w3.org/2000/svg" id="documenti_io" width="61" height="48" viewBox="0 0 61 48">
      <svg width="40" height="41" viewBox="0 0 40 41" fill="none" xmlns="http://www.w3.org/2000/svg">
      <path id="Union" fill-rule="evenodd" clip-rule="evenodd" d="M20.7812 0H5.15625C3.00232 0 1.25 1.75232 1.25 3.90625V36.0938C1.25 38.2477 3.00232 40 5.15625 40H20.7812C22.9352 40 24.6875 38.2477 24.6875 36.0938V23.9062H27.2916H36.4062C37.6987 23.9062 38.75 22.8549 38.75 21.5625V10.625C38.75 9.33258 37.6987 8.28125 36.4062 8.28125H24.6875V3.90625C24.6875 1.75232 22.9352 0 20.7812 0ZM5.15625 1.5625H20.7812C21.7996 1.5625 22.6682 2.21558 22.9907 3.125H2.94678C3.26935 2.21558 4.13788 1.5625 5.15625 1.5625ZM23.125 36.0938C23.125 37.3862 22.0737 38.4375 20.7812 38.4375H5.15625C3.86383 38.4375 2.8125 37.3862 2.8125 36.0938V33.75H23.125V36.0938ZM37.1875 10.625V21.5625C37.1875 21.9934 36.8372 22.3438 36.4062 22.3438H27.0312H26.4377H23.5H21.7401H20.7812H17.6562C17.2253 22.3438 16.875 21.9934 16.875 21.5625V10.625C16.875 10.1941 17.2253 9.84375 17.6562 9.84375H36.4062C36.8372 9.84375 37.1875 10.1941 37.1875 10.625ZM17.6562 8.28125C16.3638 8.28125 15.3125 9.33258 15.3125 10.625V21.5625C15.3125 22.8549 16.3638 23.9062 17.6562 23.9062H20H20.5H21.5551H23.125V32.1875H2.8125V4.6875H23.125V8.28125H17.6562ZM9.84375 35.3125C9.41254 35.3125 9.0625 35.6625 9.0625 36.0938C9.0625 36.525 9.41254 36.875 9.84375 36.875C10.275 36.875 10.625 36.525 10.625 36.0938C10.625 35.6625 10.275 35.3125 9.84375 35.3125ZM12.9688 35.3125H16.0938C16.5253 35.3125 16.875 35.6622 16.875 36.0938C16.875 36.5253 16.5253 36.875 16.0938 36.875H12.9688C12.5372 36.875 12.1875 36.5253 12.1875 36.0938C12.1875 35.6622 12.5372 35.3125 12.9688 35.3125Z" fill="#0066CC"/>
      <path id="Vector" d="M18.125 20.25C18.125 20.6815 18.4747 21.0312 18.9062 21.0312H28.2812C28.7128 21.0312 29.0625 20.6815 29.0625 20.25C29.0625 19.8185 28.7128 19.4688 28.2812 19.4688H18.9062C18.4747 19.4688 18.125 19.8185 18.125 20.25Z" fill="#0066CC"/>
      <path id="Vector_2" d="M21.9062 17H18.7812C18.3497 17 18 17.3497 18 17.7812C18 18.2128 18.3497 18.5625 18.7812 18.5625H21.9062C22.3378 18.5625 22.6875 18.2128 22.6875 17.7812C22.6875 17.3497 22.3378 17 21.9062 17Z" fill="#0066CC"/>
      <g id="User">
        <path id="User_2" fill-rule="evenodd" clip-rule="evenodd" d="M32.0005 12C31.3101 12 30.7505 12.5596 30.7505 13.25C30.7505 13.9404 31.3101 14.5 32.0005 14.5C32.6908 14.5 33.2505 13.9404 33.2505 13.25C33.2505 12.5596 32.6908 12 32.0005 12ZM32.0003 15C30.4276 15 29.1376 16.2102 29.0106 17.7501C28.9992 17.8877 29.1122 18 29.2503 18H34.7503C34.8884 18 35.0014 17.8877 34.99 17.7501C34.863 16.2102 33.573 15 32.0003 15Z" fill="#0066CC"/>
      </g>
      </svg>
    </symbol>
</svg>
