<svg width="0" height="0" class="hidden">
  <symbol xmlns="http://www.w3.org/2000/svg" viewBox="0 0 69.68 119.556" id="srv_04">
    <path d="M6.7 0a6.123 6.123 0 0 1 3.19.74q2.595 1.53 2.59 7.68 0 4.35-1.44 6.13a5.223 5.223 0 0 1-4.32 1.79 5.3 5.3 0 0 1-4.33-1.76C1.42 13.4.94 11.31.94 8.29s.48-5.15 1.43-6.41A5.065 5.065 0 0 1 6.7 0zm.02 1.65a3.571 3.571 0 0 0-2.16.58c-1.14.78-1.7 2.86-1.7 6.22 0 2.37.31 4 .94 4.91a3.317 3.317 0 0 0 2.93 1.36 3.312 3.312 0 0 0 2.93-1.37q.945-1.365.94-5.08c0-2.48-.3-4.19-.9-5.16a3.262 3.262 0 0 0-2.98-1.46zM22.08 16.1V13H14.4v-1.44L18.91.26h2.02l-4.58 11.11h5.74V6.43h1.85v4.94h2.02V13h-2.02v3.1z"
      fill="#21dedf"></path>
    <path d="M41.82 46.98a3.681 3.681 0 0 0-3.67 3.68V64.9a3.681 3.681 0 0 0 3.67 3.68h2.05a.939.939 0 0 1 .94.94v3.83l4.48-4.49a.924.924 0 0 1 .66-.28h14.18a3.681 3.681 0 0 0 3.67-3.68V50.66a3.681 3.681 0 0 0-3.67-3.68H41.82zm2.05 29.58a.922.922 0 0 1-.36-.07.949.949 0 0 1-.58-.87v-5.16h-1.11a5.565 5.565 0 0 1-5.55-5.56V50.66a5.565 5.565 0 0 1 5.55-5.56h22.31a5.559 5.559 0 0 1 5.55 5.56V64.9a5.559 5.559 0 0 1-5.55 5.56H50.34l-5.81 5.82a.9.9 0 0 1-.66.28z"
      fill="#00fff8" fill-rule="evenodd"></path>
    <path d="M35.95 84.88h-11.5a.94.94 0 1 1 0-1.88h10.56v-3.81c0-2.96-2.98-5.36-6.63-5.36h-.92a.94.94 0 0 1 0-1.88h.92c4.69 0 8.51 3.25 8.51 7.24v4.75a.939.939 0 0 1-.94.94m-15.66-11a.927.927 0 0 1-.93-.85.943.943 0 0 1 .84-1.03c.33-.03.66-.05.99-.05h.73a.94.94 0 0 1 0 1.88h-.73a7.026 7.026 0 0 0-.8.04c-.04 0-.07.01-.1.01"
      fill="#fff" fill-rule="evenodd"></path>
    <path d="M18.6 84.88h-4.99a.939.939 0 0 1-.94-.94v-4.75c0-3.68 3.23-6.77 7.52-7.19a.94.94 0 1 1 .19 1.87c-3.32.33-5.83 2.62-5.83 5.32V83h4.05a.94.94 0 1 1 0 1.88m3.19 34.676H.94a.947.947 0 0 1-.94-.95v-5.15c0-3.95 3.48-7.27 8.09-7.73a9.469 9.469 0 0 1 1.07-.05.94.94 0 0 1 0 1.88 8.637 8.637 0 0 0-.88.04c-3.65.36-6.4 2.88-6.4 5.86v4.21h19.91a.945.945 0 0 1 0 1.89m1.37-9.656a.978.978 0 0 1-.65-.26 8.057 8.057 0 0 0-5.54-2.09h-1a.94.94 0 1 1 0-1.88h1a9.976 9.976 0 0 1 6.83 2.6.945.945 0 0 1 .04 1.33.927.927 0 0 1-.68.3"
      fill="#fff" fill-rule="evenodd"></path>
    <path d="M15.98 107.56H9.16a.94.94 0 1 1 0-1.88h6.82a.94.94 0 1 1 0 1.88m16.78 11.99H22.17a.939.939 0 0 1-.94-.94v-5.15c0-3.95 3.48-7.27 8.09-7.73a9.469 9.469 0 0 1 1.07-.05.94.94 0 1 1 0 1.88 8.636 8.636 0 0 0-.88.04c-3.65.36-6.4 2.88-6.4 5.86v4.21h9.65a.94.94 0 0 1 0 1.88m13.67 0h-6.38a.94.94 0 0 1 0-1.88h5.44v-4.21c0-3.25-3.27-5.9-7.28-5.9h-1a.94.94 0 0 1 0-1.88h1c5.05 0 9.16 3.49 9.16 7.78v5.15a.939.939 0 0 1-.94.94"
      fill="#fff" fill-rule="evenodd"></path>
    <path d="M37.21 107.56h-6.82a.94.94 0 1 1 0-1.88h6.82a.94.94 0 1 1 0 1.88m8.12 2.45a.94.94 0 0 1-.66-1.61 9.757 9.757 0 0 1 5.89-2.67c.35-.03.71-.05 1.07-.05a.94.94 0 0 1 0 1.88 8.636 8.636 0 0 0-.88.04 7.753 7.753 0 0 0-4.75 2.14.971.971 0 0 1-.67.27m22.33 9.54H46.67a.94.94 0 0 1 0-1.88h20.05v-4.21c0-3.25-3.27-5.9-7.28-5.9h-1a.94.94 0 0 1 0-1.88h1c5.05 0 9.16 3.49 9.16 7.78v5.15a.939.939 0 0 1-.94.94"
      fill="#fff" fill-rule="evenodd"></path>
    <path d="M58.44 107.56h-6.82a.94.94 0 0 1 0-1.88h6.82a.94.94 0 0 1 0 1.88M23.98 59.71a4 4 0 0 0-3.99 4v4.59a4 4 0 0 0 3.99 4h1.6a4 4 0 0 0 3.99-4v-4.59a4 4 0 0 0-3.99-4h-1.6zm1.6 14.4h-1.6a5.813 5.813 0 0 1-5.8-5.81v-4.59a5.813 5.813 0 0 1 5.8-5.81h1.6a5.813 5.813 0 0 1 5.8 5.81v4.59a5.806 5.806 0 0 1-5.8 5.81zM6.2 99.68H1.73a.939.939 0 0 1-.94-.94v-14.8a.939.939 0 0 1 .94-.94l37.38.12h14.25a.94.94 0 1 1 0 1.88H39.1l-36.43-.12v12.91H6.2a.945.945 0 0 1 0 1.89m43.11 0h-8.55a.94.94 0 1 1 0-1.88h8.55a.94.94 0 1 1 0 1.88m-21.77 0h-8.55a.94.94 0 1 1 0-1.88h8.55a.939.939 0 0 1 .94.94.952.952 0 0 1-.94.94m40.12 0h-5.14a.94.94 0 0 1 0-1.88h4.2V85h-6.4a.94.94 0 0 1 0-1.88h7.34a.939.939 0 0 1 .94.94v14.67a.941.941 0 0 1-.94.95"
      fill="#fff" fill-rule="evenodd"></path>
    <path d="M61.58 55.3H42.99a.94.94 0 0 1 0-1.88h18.59a.94.94 0 0 1 0 1.88m-8.64 6.17h-9.95a.94.94 0 0 1 0-1.88h9.95a.94.94 0 0 1 0 1.88" fill="#00fff8" fill-rule="evenodd"></path>
    <path d="M11.77 92.44a4 4 0 0 0-3.99 4v4.59a4 4 0 0 0 3.99 4h1.6a4 4 0 0 0 3.99-4v-4.59a4 4 0 0 0-3.99-4zm1.6 14.4h-1.6a5.813 5.813 0 0 1-5.8-5.81v-4.59a5.813 5.813 0 0 1 5.8-5.81h1.6a5.813 5.813 0 0 1 5.8 5.81v4.59a5.806 5.806 0 0 1-5.8 5.81zm19.98-14.4a4 4 0 0 0-3.99 4v4.59a4 4 0 0 0 3.99 4h1.6a4 4 0 0 0 3.99-4v-4.59a4 4 0 0 0-3.99-4zm1.6 14.4h-1.6a5.813 5.813 0 0 1-5.8-5.81v-4.59a5.813 5.813 0 0 1 5.8-5.81h1.6a5.813 5.813 0 0 1 5.8 5.81v4.59a5.819 5.819 0 0 1-5.8 5.81zm19.98-14.4a4 4 0 0 0-3.99 4v4.59a4 4 0 0 0 3.99 4h1.6a4 4 0 0 0 3.99-4v-4.59a4 4 0 0 0-3.99-4zm1.6 14.4h-1.6a5.813 5.813 0 0 1-5.8-5.81v-4.59a5.813 5.813 0 0 1 5.8-5.81h1.6a5.813 5.813 0 0 1 5.8 5.81v4.59a5.819 5.819 0 0 1-5.8 5.81z"
      fill="#fff" fill-rule="evenodd"></path>
  </symbol>
  <symbol xmlns="http://www.w3.org/2000/svg" viewBox="0 0 88.527 120.68" id="srv_03">
    <path d="M6.7 0a6.123 6.123 0 0 1 3.19.74q2.595 1.53 2.59 7.68 0 4.35-1.44 6.13a5.223 5.223 0 0 1-4.32 1.79 5.3 5.3 0 0 1-4.33-1.76C1.42 13.4.94 11.31.94 8.29s.48-5.15 1.43-6.41A5.065 5.065 0 0 1 6.7 0zm.02 1.65a3.571 3.571 0 0 0-2.16.58c-1.14.78-1.7 2.86-1.7 6.22 0 2.37.31 4 .94 4.91a3.317 3.317 0 0 0 2.93 1.36 3.312 3.312 0 0 0 2.93-1.37q.945-1.365.94-5.08c0-2.48-.3-4.19-.9-5.16a3.262 3.262 0 0 0-2.98-1.46zm8.45-.98A16.8 16.8 0 0 1 20.01 0a5.746 5.746 0 0 1 3.73.98 3.909 3.909 0 0 1 1.15 3.14 3.208 3.208 0 0 1-.3 1.6c-.2.33-.36.58-.48.76a2.435 2.435 0 0 1-.47.5 7.751 7.751 0 0 1-.84.58l-.26.17a4.8 4.8 0 0 1 2.06 1.28 3.888 3.888 0 0 1 .67 2.56 4.72 4.72 0 0 1-1.24 3.6 5.512 5.512 0 0 1-3.9 1.18 22.237 22.237 0 0 1-4.46-.48l-.74-.17.17-1.51a24.51 24.51 0 0 0 4.85.53q3.435-.03 3.43-3.07c0-1.9-1.09-2.9-3.26-2.98h-3.19V7.09h3.19a2.971 2.971 0 0 0 1.94-.8A2.661 2.661 0 0 0 23 4.17a2.3 2.3 0 0 0-.74-1.91 4.117 4.117 0 0 0-2.5-.59 20.029 20.029 0 0 0-3.79.36l-.62.12z"
      fill="#21dedf"></path>
    <path d="M59.947 47.369a3.839 3.839 0 0 0-3.82 3.85v14.69a3.839 3.839 0 0 0 3.82 3.85h2.11a.918.918 0 0 1 .92.92v4.07l4.69-4.72a.915.915 0 0 1 .65-.27h14.57a3.839 3.839 0 0 0 3.82-3.85v-14.69a3.839 3.839 0 0 0-3.82-3.85h-22.94zm2.11 30.53a.842.842 0 0 1-.35-.07.928.928 0 0 1-.57-.85v-5.37h-1.19a5.672 5.672 0 0 1-5.65-5.69v-14.7a5.678 5.678 0 0 1 5.65-5.69h22.93a5.672 5.672 0 0 1 5.65 5.69v14.69a5.678 5.678 0 0 1-5.65 5.69h-14.19l-5.98 6.02a.918.918 0 0 1-.65.28zM54.04 120.68H9.8a.918.918 0 0 1-.92-.92V61.71a.918.918 0 0 1 .92-.92h29.59a.933.933 0 0 1 .65.27l14.65 14.9a.933.933 0 0 1 .27.65v4a.92.92 0 0 1-1.84 0v-3.62L39 62.63H10.71v56.2h42.41v-13.91a.92.92 0 1 1 1.84 0v14.83a.92.92 0 0 1-.92.93"
      fill="#fff" fill-rule="evenodd"></path>
    <path d="M6.22 111.81H.92a.926.926 0 0 1-.92-.93V52.84a.918.918 0 0 1 .92-.92h44.25a.918.918 0 0 1 .92.92v9.95a.92.92 0 1 1-1.84 0v-9.03H1.83v56.2h4.39a.918.918 0 0 1 .92.92.939.939 0 0 1-.92.93" fill="#fff" fill-rule="evenodd"></path>
    <path d="M54.04 77.76H39.01a.918.918 0 0 1-.92-.92V61.71a.92.92 0 1 1 1.84 0v14.21h14.11a.92.92 0 0 1 0 1.84" fill="#fff" fill-rule="evenodd"></path>
    <path fill="none" d="M18.07 77.8h11.67"></path>
    <path d="M29.74 78.73H18.07a.92.92 0 1 1 0-1.84h11.67a.918.918 0 0 1 .92.92.937.937 0 0 1-.92.92" fill="#fff" fill-rule="evenodd"></path>
    <path fill="none" d="M18.07 85.34h22.91"></path>
    <path d="M40.98 86.26H18.07a.92.92 0 1 1 0-1.84h22.91a.92.92 0 1 1 0 1.84" fill="#fff" fill-rule="evenodd"></path>
    <path fill="none" d="M18.07 92.87h23.51"></path>
    <path d="M41.58 93.79h-23.5a.92.92 0 1 1 0-1.84h23.5a.918.918 0 0 1 .92.92.931.931 0 0 1-.92.92" fill="#fff" fill-rule="evenodd"></path>
    <path fill="none" d="M18.07 100.4h16.4"></path>
    <path d="M34.47 101.32h-16.4a.92.92 0 1 1 0-1.84h16.4a.92.92 0 0 1 0 1.84" fill="#fff" fill-rule="evenodd"></path>
    <path d="M57.68 89.04l-2.87-1.67 1.66-2.89 2.87 1.67zm-7.46 13l-2.87-1.67 6.63-11.56 2.87 1.67zm-5.58 6.4a.835.835 0 0 1-.25-1.09l.41-.73 1.44.83-.41.72a.823.823 0 0 1-1.19.27zm2.49-2.42l-.41-.24-1.23-.72 1.18-3.17 2.61 1.52zm11.3-23.29a.84.84 0 0 1 .51-.39.917.917 0 0 1 .63.08.84.84 0 0 1 .39.51.917.917 0 0 1-.08.63l-.41.73-1.44-.83zm3.12-.24a2.489 2.489 0 0 0-3.05-1.77 2.463 2.463 0 0 0-1.51 1.17l-.41.73a.832.832 0 0 0-1.13.3l-2.1 3.61-.72-.42a.818.818 0 0 0-.63-.08.848.848 0 0 0-.5.39.83.83 0 0 0 .31 1.13l.72.42-7.05 12.29-1.74 4.68-.83 1.56a2.513 2.513 0 0 0 .13 2.7l-1.86 2.3-.52-1.32a1.661 1.661 0 0 0-1.41-1.04 1.636 1.636 0 0 0-1.55.81l-.3.51-.28-3.34a1.653 1.653 0 0 0-3.22-.39l-2.04 6.16a.831.831 0 0 0 .52 1.05.771.771 0 0 0 .26.07.838.838 0 0 0 .79-.57l2.03-6.16.29 3.39a1.658 1.658 0 0 0 3.08.72l.31-.51.51 1.31a1.658 1.658 0 0 0 2.84.42l1.93-2.46a2.364 2.364 0 0 0 .65.08 2.456 2.456 0 0 0 2.16-1.24l.83-1.39 3.16-3.86 7.12-12.44.72.42a.84.84 0 0 1 .39.51.817.817 0 0 1-.08.63l-3.32 5.78a.868.868 0 0 0-.12.65.856.856 0 0 0 .38.53.818.818 0 0 0 .63.08.848.848 0 0 0 .5-.39l3.32-5.78a2.509 2.509 0 0 0-.91-3.42l-.72-.42 2.07-3.61a.829.829 0 0 0-.3-1.13l.41-.73a2.54 2.54 0 0 0 .24-1.93z"
      fill="#00fff8" fill-rule="evenodd"></path>
    <path d="M58.35 83.36l1.01.59.29-.51a.7.7 0 0 0 .06-.45.588.588 0 0 0-.72-.41.624.624 0 0 0-.35.27zm1.2 1.27l-1.87-1.08.54-.94a1.1 1.1 0 0 1 .66-.51 1.083 1.083 0 0 1 .81.11 1.06 1.06 0 0 1 .51.66 1.163 1.163 0 0 1-.1.82zm-4.4 2.65l2.44 1.42L59 86.24l-2.44-1.42zm2.62 2.1l-3.3-1.92 1.91-3.32 3.3 1.92zm-10.08 10.9l2.44 1.42 6.38-11.13-2.44-1.42zm2.62 2.11l-3.3-1.92 6.88-12 3.3 1.92zm-4.51 2.56l1.28.75 1.83-2.22-2.1-1.22zm1.39 1.4l-2-1.17 1.35-3.64 3.12 1.81zm-2.29.61l-.29.51a.58.58 0 0 0 .17.76.574.574 0 0 0 .46.09.6.6 0 0 0 .38-.28l.29-.5zm.22 1.88a1.066 1.066 0 0 1-.62-.2 1.083 1.083 0 0 1-.32-1.42l.54-.94 1.87 1.08-.54.93a1.093 1.093 0 0 1-.7.52.853.853 0 0 1-.23.03zm-9.66-2.99a1.417 1.417 0 0 0-1.34.97l-2.04 6.16a.6.6 0 0 0 .37.74.411.411 0 0 0 .19.05.576.576 0 0 0 .54-.4l2.41-7.31.39 4.59a1.412 1.412 0 0 0 2.62.62l.57-.94.7 1.78a1.421 1.421 0 0 0 1.1.88 1.4 1.4 0 0 0 1.31-.52l2.03-2.59.16.04a2.891 2.891 0 0 0 .59.08 2.263 2.263 0 0 0 1.95-1.11l.83-1.4 3.18-3.89 7.22-12.62.94.54a1.078 1.078 0 0 1 .4 1.48l-3.32 5.78a.613.613 0 0 0-.09.47.571.571 0 0 0 .27.37.563.563 0 0 0 .44.06.547.547 0 0 0 .35-.28l3.32-5.78a2.223 2.223 0 0 0 .22-1.71 2.263 2.263 0 0 0-1.05-1.37l-.94-.54 2.2-3.83a.6.6 0 0 0-.21-.8l-.21-.12.54-.94a2.258 2.258 0 0 0 .22-1.74 2.276 2.276 0 0 0-1.04-1.37 2.226 2.226 0 0 0-3.06.82l-.54.94-.21-.12a.583.583 0 0 0-.79.21l-2.23 3.83-.93-.54a.563.563 0 0 0-.44-.06.547.547 0 0 0-.35.28.583.583 0 0 0 .21.79l.94.54-7.17 12.51-1.72 4.64-.84 1.59a2.27 2.27 0 0 0 .12 2.44l.11.16L41.1 112l-.68-1.71a1.408 1.408 0 0 0-2.52-.19l-.69 1.18-.35-4.12a1.407 1.407 0 0 0-1.24-1.29.414.414 0 0 0-.16-.02zm-2.83 8.42a1 1 0 0 1-.36-.09 1.079 1.079 0 0 1-.65-1.36l2.04-6.16a1.9 1.9 0 0 1 3.71.45l.22 2.57a1.905 1.905 0 0 1 3.31.41l.37.93 1.48-1.83a2.772 2.772 0 0 1-.04-2.81l.83-1.55 1.73-4.65 6.94-12.11-.51-.29a1.09 1.09 0 0 1-.4-1.47 1.1 1.1 0 0 1 .65-.51 1.115 1.115 0 0 1 .82.11l.51.29 1.98-3.4a1.077 1.077 0 0 1 1.24-.49l.3-.54a2.676 2.676 0 0 1 1.66-1.28 2.743 2.743 0 0 1 2.08.27 2.8 2.8 0 0 1 1.01 3.8l-.31.54a1.091 1.091 0 0 1 .19 1.32l-1.95 3.4.48.28a2.761 2.761 0 0 1 1.01 3.76l-3.32 5.78a1.075 1.075 0 0 1-.65.51 1.115 1.115 0 0 1-.82-.11 1.07 1.07 0 0 1-.5-.69 1.083 1.083 0 0 1 .15-.84l3.31-5.77a.569.569 0 0 0 .06-.44.613.613 0 0 0-.27-.36l-.51-.29-7 12.23-3.18 3.9-.81 1.36a2.738 2.738 0 0 1-2.36 1.36h-.03a3.408 3.408 0 0 1-.55-.05l-1.83 2.34a1.9 1.9 0 0 1-3.26-.49l-.33-.84-.05.08a1.9 1.9 0 0 1-2.07.88 1.916 1.916 0 0 1-1.47-1.71l-.19-2.18-1.65 5.01a1.066 1.066 0 0 1-1.01.73zm41.5-58.47l-2.93 2.95-1.76-1.77a.833.833 0 0 0-1.17 0 .824.824 0 0 0-.24.59.849.849 0 0 0 .24.59l1.76 1.77a1.649 1.649 0 0 0 1.17.48 1.69 1.69 0 0 0 1.18-.48l2.93-2.95a.837.837 0 0 0-1.18-1.18"
      fill="#00fff8" fill-rule="evenodd"></path>
    <path d="M71.2 60.17a1.415 1.415 0 0 0 1-.41l2.92-2.95a.594.594 0 0 0-.04-.78.583.583 0 0 0-.78-.04l-3.1 3.11-1.93-1.95a.582.582 0 0 0-.82 0 .589.589 0 0 0-.17.42.55.55 0 0 0 .17.41l1.76 1.77a1.36 1.36 0 0 0 .99.42zm.01.5h-.01a1.893 1.893 0 0 1-1.34-.56l-1.76-1.77a1.1 1.1 0 0 1-.32-.77 1.08 1.08 0 0 1 1.84-.77l1.58 1.59 2.77-2.78a1.068 1.068 0 0 1 1.46.06 1.1 1.1 0 0 1 .06 1.47l-2.94 2.97a1.893 1.893 0 0 1-1.34.56z"
      fill="#00fff8" fill-rule="evenodd"></path>
    <path d="M64.37 58.05a7.05 7.05 0 1 0 14.1 0 .83.83 0 0 0-1.66 0 5.39 5.39 0 1 1-5.39-5.42 5.309 5.309 0 0 1 3.23 1.09.82.82 0 0 0 1.16-.17.833.833 0 0 0-.17-1.17 7.015 7.015 0 0 0-7.38-.67 7.1 7.1 0 0 0-3.89 6.34" fill="#00fff8" fill-rule="evenodd"></path>
    <path d="M71.42 51.2a6.833 6.833 0 0 0-6.81 6.85 6.8 6.8 0 1 0 13.6 0 .58.58 0 0 0-1.16 0 5.64 5.64 0 1 1-5.64-5.67 5.555 5.555 0 0 1 3.38 1.14.585.585 0 0 0 .43.11.549.549 0 0 0 .38-.23.6.6 0 0 0 .11-.43.591.591 0 0 0-.23-.39 6.619 6.619 0 0 0-4.06-1.38m-.01 14.19a7.352 7.352 0 0 1-3.26-13.91 7.22 7.22 0 0 1 7.64.69 1.086 1.086 0 0 1 .22 1.51 1.072 1.072 0 0 1-1.51.21 5.1 5.1 0 0 0-3.07-1.04h-.01a5.17 5.17 0 1 0 5.14 5.17 1.076 1.076 0 0 1 1.08-1.08 1.088 1.088 0 0 1 1.08 1.08 7.351 7.351 0 0 1-7.31 7.37"
      fill="#00fff8" fill-rule="evenodd"></path>
  </symbol>
  <symbol xmlns="http://www.w3.org/2000/svg" viewBox="0 0 122.63 121.1" id="srv_02">
    <path d="M80 110.1a.971.971 0 0 1-1-.93V73.03a1 1 0 0 1 2 0v36.13a.972.972 0 0 1-1 .94m-75.07 0a.935.935 0 0 1-.93-.93v-45.8a7.277 7.277 0 0 1 7.27-7.27h40.8a.93.93 0 0 1 0 1.86h-40.8a5.42 5.42 0 0 0-5.41 5.41v45.8a.928.928 0 0 1-.93.93" fill="#fff"
      fill-rule="evenodd"></path>
    <path d="M73.07 104.1H11.93a.937.937 0 0 1-.93-.94V65.04a.937.937 0 0 1 .93-.94h40.14a.94.94 0 0 1 0 1.88h-39.2v36.26h59.26V73.49a.935.935 0 1 1 1.87 0v29.68a.935.935 0 0 1-.93.93m-71.19 6.85v2.97a5.4 5.4 0 0 0 5.46 5.34h70.04a5.41 5.41 0 0 0 5.46-5.34v-2.97h-30.8v1.25a2.589 2.589 0 0 1-2.61 2.56H35.3a2.589 2.589 0 0 1-2.61-2.56v-1.25zm75.5 10.15H7.34A7.267 7.267 0 0 1 0 113.92v-3.89a.928.928 0 0 1 .94-.92h32.79a.947.947 0 0 1 .77.39.875.875 0 0 1 .11.84.792.792 0 0 0-.05.24v1.62a.726.726 0 0 0 .73.72h14.12a.726.726 0 0 0 .73-.72v-1.61a.792.792 0 0 0-.05-.24.954.954 0 0 1 .13-.85.934.934 0 0 1 .77-.39h32.79a.928.928 0 0 1 .94.92v3.89a7.267 7.267 0 0 1-7.34 7.18z"
      fill="#fff" fill-rule="evenodd"></path>
    <path d="M35.03 85.1H15.97a1 1 0 0 1 0-2h19.07a1 1 0 0 1-.01 2m5.04 6H16.93a1 1 0 0 1 0-2h23.15a1 1 0 0 1-.01 2m-15.9 6h-3.34a1.017 1.017 0 0 1 0-2h3.34a1.017 1.017 0 0 1 0 2m17.92 0H28.91a1 1 0 0 1 0-2h13.18a1 1 0 0 1 0 2m10.93-6h-9.05a1 1 0 0 1 .01-2h9.05a.992.992 0 0 1 .98 1 1.007 1.007 0 0 1-.99 1m5.09 0H55.9a1.006 1.006 0 0 1-.01-2h2.21a1.006 1.006 0 0 1 .01 2m-14.03-6h-5.16a1 1 0 0 1 0-2h5.16a1 1 0 0 1 0 2m3.08 0h-.32a1.015 1.015 0 0 1 0-2h.32a1.015 1.015 0 0 1 0 2m-30 12h-.32a1.015 1.015 0 0 1 0-2h.32a1.015 1.015 0 0 1 0 2m1-19a.8.8 0 0 1-.64-.33l-2.31-3.04a1.081 1.081 0 0 1 0-1.26l2.31-3.04a.774.774 0 0 1 1.19-.1 1.072 1.072 0 0 1 .09 1.36l-1.84 2.41 1.83 2.41a1.048 1.048 0 0 1-.09 1.36.775.775 0 0 1-.54.23m12.68 0a.8.8 0 0 1-.55-.23 1.072 1.072 0 0 1-.09-1.36l1.84-2.41-1.83-2.41a1.048 1.048 0 0 1 .09-1.36.773.773 0 0 1 1.19.1l2.31 3.04a1.081 1.081 0 0 1 0 1.26l-2.31 3.04a.819.819 0 0 1-.65.33m-8.03 0a.746.746 0 0 1-.4-.12 1.064 1.064 0 0 1-.31-1.31l3.37-7.07a.757.757 0 0 1 1.11-.37 1.064 1.064 0 0 1 .31 1.31l-3.37 7.07a.8.8 0 0 1-.71.49"
      fill="#fff" fill-rule="evenodd"></path>
    <path d="M62.04 50.24a3.86 3.86 0 0 0-3.85 3.86v8.77a3.86 3.86 0 0 0 3.85 3.86h2.13a.928.928 0 0 1 .93.93v4.07L69.82 67a.914.914 0 0 1 .66-.27h46.42a3.86 3.86 0 0 0 3.85-3.86v-8.78a3.86 3.86 0 0 0-3.85-3.86H62.04zm2.13 24.68a.922.922 0 0 1-.36-.07.935.935 0 0 1-.58-.86V68.6h-1.19a5.732 5.732 0 0 1-5.72-5.72v-8.79a5.725 5.725 0 0 1 5.72-5.72h54.87a5.732 5.732 0 0 1 5.72 5.72v8.77a5.725 5.725 0 0 1-5.72 5.72H70.88l-6.04 6.05a.95.95 0 0 1-.67.29z"
      fill="#00fff8" fill-rule="evenodd"></path>
    <path d="M68.75 55.44l-.73 3.8h1.96l-.73-3.8zM66 62.1l1.62-8h2.77l1.61 8h-1.46l-.29-1.45h-2.51l-.28 1.45zm8.4-3.72h1.13c.7 0 1.05-.5 1.05-1.51a1.776 1.776 0 0 0-.25-1.07.926.926 0 0 0-.79-.32H74.4zm1.14 1.39H74.4v2.33H73v-8h2.54c1.64 0 2.46.93 2.46 2.78a3.318 3.318 0 0 1-.62 2.15 2.288 2.288 0 0 1-1.84.74zM80 62.1h2v-8h-2zm9.11-5l.92 1.84.93-1.84H92l-1.42 2.55L92 62.1h-1.11l-.92-1.73-.93 1.73H88l1.42-2.4L88 57.1zm4 0l.92 1.84.93-1.84H96l-1.42 2.55L96 62.1h-1.11l-.92-1.73-.93 1.73H92l1.42-2.4L92 57.1zm5 0l.92 1.84.93-1.84H101l-1.42 2.55L101 62.1h-1.11l-.92-1.73-.93 1.73H97l1.42-2.4L97 57.1zm6 0l.92 1.84.93-1.84H107l-1.42 2.55L107 62.1h-1.11l-.92-1.73-.93 1.73H103l1.42-2.4-1.42-2.6zm5 0l.92 1.84.93-1.84H112l-1.42 2.55L112 62.1h-1.11l-.92-1.73-.93 1.73H108l1.42-2.4-1.42-2.6z"
      fill="#00fff8" fill-rule="evenodd"></path>
    <path d="M6.7 0a6.123 6.123 0 0 1 3.19.74q2.595 1.53 2.59 7.68 0 4.35-1.44 6.13a5.223 5.223 0 0 1-4.32 1.79 5.3 5.3 0 0 1-4.33-1.76C1.42 13.4.94 11.31.94 8.29s.48-5.15 1.43-6.41A5.065 5.065 0 0 1 6.7 0zm.02 1.65a3.571 3.571 0 0 0-2.16.58c-1.14.78-1.7 2.86-1.7 6.22 0 2.37.31 4 .94 4.91a3.317 3.317 0 0 0 2.93 1.36 3.312 3.312 0 0 0 2.93-1.37q.945-1.365.94-5.08c0-2.48-.3-4.19-.9-5.16a3.262 3.262 0 0 0-2.98-1.46zm18.5 14.45H15.1v-1.56l4.63-4.87c.8-.83 1.38-1.46 1.75-1.9a7.443 7.443 0 0 0 1-1.54 3.869 3.869 0 0 0 .44-1.78 2.531 2.531 0 0 0-.84-2.16 4.381 4.381 0 0 0-2.62-.62 17.037 17.037 0 0 0-3.48.41l-.62.12-.14-1.54a17.2 17.2 0 0 1 4.7-.65 5.625 5.625 0 0 1 3.66 1.02 3.97 3.97 0 0 1 1.24 3.23 5.668 5.668 0 0 1-.74 2.93 15.735 15.735 0 0 1-2.57 3l-4.22 4.3h7.94v1.61z"
      fill="#21dedf"></path>
  </symbol>
  <symbol xmlns="http://www.w3.org/2000/svg" viewBox="0 0 127 121.1" id="srv_01">
    <g fill-rule="evenodd">
      <path d="M67.24 103.34a.751.751 0 0 1-.76-.75v-.75a.76.76 0 0 1 1.52 0v.75a.751.751 0 0 1-.76.75zm0 3.74a.751.751 0 0 1-.76-.75v-.75a.76.76 0 0 1 1.52 0v.75a.751.751 0 0 1-.76.75zm-1.13 3.47a.768.768 0 0 1-.5-.18.738.738 0 0 1-.07-1.06 4.4 4.4 0 0 0 .38-.5.769.769 0 0 1 1.05-.24.742.742 0 0 1 .25 1.03 5.079 5.079 0 0 1-.52.7.851.851 0 0 1-.59.25zm-3.34 1.55a.75.75 0 1 1-.02-1.5 3.376 3.376 0 0 0 .63-.07.762.762 0 0 1 .89.59.751.751 0 0 1-.6.88 4.381 4.381 0 0 1-.88.09h-.02zm-14.46 0h-.55a.75.75 0 1 1 0-1.5h.55a.75.75 0 1 1 0 1.5zm3.8 0h-.76a.75.75 0 1 1 0-1.5h.76a.75.75 0 1 1 0 1.5zm3.81 0h-.76a.75.75 0 1 1 0-1.5h.76a.75.75 0 1 1 0 1.5zm3.8 0h-.76a.75.75 0 1 1 0-1.5h.76a.751.751 0 0 1 .76.75.739.739 0 0 1-.76.75z"
        fill="#00fff8"></path>
      <path d="M12.21 107.95a2.223 2.223 0 0 0-2.27 2.17v2.96a2.223 2.223 0 0 0 2.27 2.17h32.58a2.223 2.223 0 0 0 2.27-2.17v-2.96a2.223 2.223 0 0 0-2.27-2.17zm32.58 9.15H12.21A4.122 4.122 0 0 1 8 113.08v-2.96a4.122 4.122 0 0 1 4.21-4.02h32.58a4.122 4.122 0 0 1 4.21 4.02v2.96a4.122 4.122 0 0 1-4.21 4.02z"
        fill="#00fff8"></path>
      <path d="M16 111.6a1.5 1.5 0 1 0-1.5 1.5 1.5 1.5 0 0 0 1.5-1.5M4.21 85.95a2.223 2.223 0 0 0-2.27 2.17v2.96a2.223 2.223 0 0 0 2.27 2.17h32.58a2.223 2.223 0 0 0 2.27-2.17v-2.96a2.223 2.223 0 0 0-2.27-2.17zm32.58 9.15H4.21A4.122 4.122 0 0 1 0 91.08v-2.96a4.122 4.122 0 0 1 4.21-4.02h32.58A4.122 4.122 0 0 1 41 88.12v2.96a4.122 4.122 0 0 1-4.21 4.02z"
        fill="#00fff8"></path>
      <path d="M8 89.6a1.5 1.5 0 1 0-1.5 1.5A1.5 1.5 0 0 0 8 89.6m61 13a1.5 1.5 0 1 0-1.5 1.5 1.5 1.5 0 0 0 1.5-1.5m-20.69-35h-.55a.75.75 0 1 1 0-1.5h.55a.75.75 0 1 1 0 1.5m3.8 0h-.76a.75.75 0 1 1 0-1.5h.76a.75.75 0 1 1 0 1.5m3.81 0h-.76a.75.75 0 1 1 0-1.5h.76a.75.75 0 1 1 0 1.5m3.8 0h-.76a.75.75 0 1 1 0-1.5h.76a.75.75 0 1 1 0 1.5m3.81.08a.615.615 0 0 1-.14-.01 4.5 4.5 0 0 0-.63-.07.75.75 0 1 1 .03-1.5 6.4 6.4 0 0 1 .88.09.751.751 0 0 1-.14 1.49m3.03 2.07a.758.758 0 0 1-.65-.36 3.135 3.135 0 0 0-.38-.5.748.748 0 0 1 .07-1.06.768.768 0 0 1 1.07.07 5.078 5.078 0 0 1 .52.7.742.742 0 0 1-.25 1.03.615.615 0 0 1-.38.12m.68 3.61a.751.751 0 0 1-.76-.75v-.75a.76.76 0 0 1 1.52 0v.75a.751.751 0 0 1-.76.75m0 3.74a.751.751 0 0 1-.76-.75v-.75a.76.76 0 0 1 1.52 0v.75a.751.751 0 0 1-.76.75"
        fill="#00fff8"></path>
      <path d="M12.21 63.95a2.223 2.223 0 0 0-2.27 2.17v2.96a2.223 2.223 0 0 0 2.27 2.17h32.58a2.223 2.223 0 0 0 2.27-2.17v-2.96a2.223 2.223 0 0 0-2.27-2.17zm32.58 9.15H12.21A4.122 4.122 0 0 1 8 69.08v-2.96a4.122 4.122 0 0 1 4.21-4.02h32.58A4.122 4.122 0 0 1 49 66.12v2.96a4.122 4.122 0 0 1-4.21 4.02z"
        fill="#00fff8"></path>
      <path d="M15 67.6a1.5 1.5 0 1 1-1.5-1.5 1.5 1.5 0 0 1 1.5 1.5m54 10a1.5 1.5 0 1 1-1.5-1.5 1.5 1.5 0 0 1 1.5 1.5m0 12a1.5 1.5 0 1 0-1.5 1.5 1.5 1.5 0 0 0 1.5-1.5" fill="#00fff8"></path>
      <path d="M41.38 90.1h-.61a1.034 1.034 0 0 1 0-2h.61a1.034 1.034 0 0 1 0 2m3.84 0h-.77a1.034 1.034 0 0 1 0-2h.77a1.034 1.034 0 0 1 0 2m3.83 0h-.77a1.034 1.034 0 0 1 0-2h.77a1.034 1.034 0 0 1 0 2m3.84 0h-.77a1.034 1.034 0 0 1 0-2h.77a1.034 1.034 0 0 1 0 2m3.84 0h-.77a1.034 1.034 0 0 1 0-2h.77a1.034 1.034 0 0 1 0 2m3.83 0h-.77a1.034 1.034 0 0 1 0-2h.77a1.034 1.034 0 0 1 0 2m3.84 0h-.77a1.034 1.034 0 0 1 0-2h.77a1.034 1.034 0 0 1 0 2m3.83 0h-.77a1.034 1.034 0 0 1 0-2h.77a1.034 1.034 0 0 1 0 2"
        fill="#00fff8"></path>
      <path d="M105.27 121.1H81.73a6.784 6.784 0 0 1-6.73-6.82V66.92a6.784 6.784 0 0 1 6.73-6.82h23.54a6.567 6.567 0 0 1 6.73 6.37v5.4a.96.96 0 1 1-1.92 0v-5.4a4.64 4.64 0 0 0-4.81-4.43H81.73a4.853 4.853 0 0 0-4.81 4.88v47.36a4.853 4.853 0 0 0 4.81 4.88h23.54a4.853 4.853 0 0 0 4.81-4.88v-10.61a.96.96 0 1 1 1.92 0v10.61a6.784 6.784 0 0 1-6.73 6.82"
        fill="#fff"></path>
      <path d="M110.02 70.1H79.98a1 1 0 0 1 0-2h30.03a.992.992 0 0 1 .98 1 .978.978 0 0 1-.97 1m-4.98 42H76.96a1 1 0 0 1 0-2h28.09a.982.982 0 0 1 .96 1 1 1 0 0 1-.97 1m-6.38-36.05a3.717 3.717 0 0 0-3.71 3.72v14.46a3.724 3.724 0 0 0 3.71 3.72h2.08a.973.973 0 0 1 .97.98v3.84l4.52-4.53a.985.985 0 0 1 .69-.29h14.41a3.717 3.717 0 0 0 3.71-3.72V79.77a3.724 3.724 0 0 0-3.71-3.72zm2.08 30.05a.937.937 0 0 1-.37-.07.983.983 0 0 1-.6-.9V99.9h-1.11A5.67 5.67 0 0 1 93 94.23V79.77a5.67 5.67 0 0 1 5.66-5.67h22.68a5.67 5.67 0 0 1 5.66 5.67v14.46a5.67 5.67 0 0 1-5.66 5.67h-14.01l-5.9 5.91a.944.944 0 0 1-.69.29z"
        fill="#fff"></path>
      <path d="M105 93.1h2v-9h-2z" fill="#fff"></path>
      <path d="M105.16 92.95h1.68v-8.69h-1.68zm-.16.15h2v-9h-2zm6.43-2.21a2.174 2.174 0 0 0 3.14 0 4.468 4.468 0 0 0 .42-2.25 4.566 4.566 0 0 0-.43-2.29 2.05 2.05 0 0 0-3.12 0 4.705 4.705 0 0 0-.43 2.29 4.417 4.417 0 0 0 .42 2.25m4.67 1.13a4.989 4.989 0 0 1-6.2 0 5.233 5.233 0 0 1-.9-3.38 5.417 5.417 0 0 1 .9-3.42 4.85 4.85 0 0 1 6.2 0 5.417 5.417 0 0 1 .9 3.42 5.233 5.233 0 0 1-.9 3.38"
        fill="#fff"></path>
      <path d="M111.54 90.82a2.029 2.029 0 0 0 2.92 0 4.333 4.333 0 0 0 .4-2.18 4.544 4.544 0 0 0-.41-2.22 1.525 1.525 0 0 0-1.46-.66 1.555 1.555 0 0 0-1.46.66 4.571 4.571 0 0 0-.41 2.22 4.523 4.523 0 0 0 .42 2.18m1.46.77a1.762 1.762 0 0 1-1.61-.7 4.493 4.493 0 0 1-.42-2.25 4.617 4.617 0 0 1 .43-2.29 2.1 2.1 0 0 1 3.2 0 4.732 4.732 0 0 1 .43 2.29 4.493 4.493 0 0 1-.42 2.25 1.74 1.74 0 0 1-1.61.7m0-7.34a3.625 3.625 0 0 0-2.97 1.07 5.314 5.314 0 0 0-.87 3.32 5.066 5.066 0 0 0 .87 3.28 4.8 4.8 0 0 0 5.94 0 5.127 5.127 0 0 0 .87-3.28 5.25 5.25 0 0 0-.87-3.32 3.625 3.625 0 0 0-2.97-1.07m0 8.85a3.855 3.855 0 0 1-3.1-1.09 5.221 5.221 0 0 1-.9-3.37 5.4 5.4 0 0 1 .9-3.41 4.817 4.817 0 0 1 6.2 0 5.385 5.385 0 0 1 .9 3.41 5.221 5.221 0 0 1-.9 3.37 3.855 3.855 0 0 1-3.1 1.09"
        fill="#fff"></path>
    </g>
    <path d="M6.7 0a6.123 6.123 0 0 1 3.19.74q2.595 1.53 2.59 7.68 0 4.35-1.44 6.13a5.223 5.223 0 0 1-4.32 1.79 5.3 5.3 0 0 1-4.33-1.76C1.42 13.4.94 11.31.94 8.29s.48-5.15 1.43-6.41A5.065 5.065 0 0 1 6.7 0zm.02 1.65a3.571 3.571 0 0 0-2.16.58c-1.14.78-1.7 2.86-1.7 6.22 0 2.37.31 4 .94 4.91a3.317 3.317 0 0 0 2.93 1.36 3.312 3.312 0 0 0 2.93-1.37q.945-1.365.94-5.08c0-2.48-.3-4.19-.9-5.16a3.262 3.262 0 0 0-2.98-1.46zM22.78.26V16.1h-1.85V2.32l-4.08 2.69-.84-1.39L21.05.26z"
      fill="#21dedf"></path>
  </symbol>
  <symbol xmlns="http://www.w3.org/2000/svg" viewBox="0 0 70 70" id="porta_io">
    <g fill="#fff" fill-rule="evenodd">
      <path d="M67.667 64.75a2.919 2.919 0 0 1-2.917 2.917H5.25a2.92 2.92 0 0 1-2.917-2.917V5.25A2.92 2.92 0 0 1 5.25 2.333h59.5a2.92 2.92 0 0 1 2.917 2.917zM64.75 0H5.25A5.256 5.256 0 0 0 0 5.25v59.5A5.256 5.256 0 0 0 5.25 70h59.5A5.256 5.256 0 0 0 70 64.75V5.25A5.256 5.256 0 0 0 64.75 0z"></path>
      <path d="M7.333 9.667h2.334V7.333H7.333zM10.833 5H6.167A1.166 1.166 0 0 0 5 6.167v4.667A1.166 1.166 0 0 0 6.167 12h4.667A1.166 1.166 0 0 0 12 10.833V6.167A1.166 1.166 0 0 0 10.833 5zm5.5 4.667h2.333V7.333h-2.333zM19.833 5h-4.666A1.166 1.166 0 0 0 14 6.167v4.667A1.166 1.166 0 0 0 15.167 12h4.667A1.166 1.166 0 0 0 21 10.833V6.167A1.166 1.166 0 0 0 19.833 5zm5.5 4.667h2.333V7.333h-2.333zM28.833 5h-4.666A1.166 1.166 0 0 0 23 6.167v4.667A1.166 1.166 0 0 0 24.167 12h4.667A1.166 1.166 0 0 0 30 10.833V6.167A1.166 1.166 0 0 0 28.833 5z"></path>
      <path d="M67.667 13.714H2.333V5.143A2.891 2.891 0 0 1 5.25 2.286h59.5a2.891 2.891 0 0 1 2.917 2.857zM64.75 0H5.25A5.2 5.2 0 0 0 0 5.143v9.714A1.155 1.155 0 0 0 1.167 16h67.666A1.155 1.155 0 0 0 70 14.857V5.143A5.2 5.2 0 0 0 64.75 0zm-9.1 44.85h-1.519a3.932 3.932 0 0 0-3.777 2.772 9.479 9.479 0 0 1-.983 2.145l-.35.629a3.937 3.937 0 0 0 .7 4.637l1.079 1.076-2.692 2.691-1.077-1.076a3.937 3.937 0 0 0-4.637-.7l-.625.348a9.458 9.458 0 0 1-2.149.986 3.931 3.931 0 0 0-2.771 3.775v1.517h-4.7v-1.519a3.933 3.933 0 0 0-2.772-3.776 9.467 9.467 0 0 1-2.149-.986l-.625-.348a3.939 3.939 0 0 0-4.638.7L20.89 58.8l-2.69-2.692 1.076-1.077a3.936 3.936 0 0 0 .7-4.636l-.35-.629a9.474 9.474 0 0 1-.982-2.146 3.932 3.932 0 0 0-3.775-2.771H13.35v-4.7h1.519a3.932 3.932 0 0 0 3.776-2.772 9.43 9.43 0 0 1 .983-2.146l.35-.629a3.937 3.937 0 0 0-.7-4.637L18.2 28.891l2.692-2.691 1.077 1.076a3.939 3.939 0 0 0 4.637.7l.626-.349a9.48 9.48 0 0 1 2.148-.985 3.931 3.931 0 0 0 2.771-3.775V21.35h4.7v1.519a3.933 3.933 0 0 0 2.772 3.776 9.495 9.495 0 0 1 2.148.985l.626.349a3.938 3.938 0 0 0 4.638-.7L48.11 26.2l2.69 2.692-1.077 1.076a3.936 3.936 0 0 0-.705 4.637l.35.629a9.393 9.393 0 0 1 .984 2.145 3.932 3.932 0 0 0 3.775 2.771h1.523zm1.175-7.05h-2.694a1.572 1.572 0 0 1-1.522-1.084 11.737 11.737 0 0 0-1.19-2.637l-.333-.6a1.573 1.573 0 0 1 .3-1.851l1.907-1.907a1.174 1.174 0 0 0 0-1.661l-4.353-4.354a1.207 1.207 0 0 0-1.662 0l-1.906 1.907a1.578 1.578 0 0 1-1.852.3l-.6-.333a11.731 11.731 0 0 0-2.639-1.191 1.569 1.569 0 0 1-1.081-1.52v-2.694A1.175 1.175 0 0 0 38.025 19h-7.05a1.174 1.174 0 0 0-1.175 1.175v2.694a1.569 1.569 0 0 1-1.084 1.522 11.758 11.758 0 0 0-2.639 1.191l-.6.333a1.576 1.576 0 0 1-1.851-.3l-1.907-1.907a1.175 1.175 0 0 0-1.662 0l-4.351 4.352a1.176 1.176 0 0 0 0 1.661l1.907 1.907a1.574 1.574 0 0 1 .3 1.851l-.334.6a11.764 11.764 0 0 0-1.191 2.637 1.569 1.569 0 0 1-1.52 1.084h-2.693A1.175 1.175 0 0 0 11 38.975v7.05a1.175 1.175 0 0 0 1.175 1.175h2.694a1.57 1.57 0 0 1 1.52 1.084 11.758 11.758 0 0 0 1.19 2.635l.335.6a1.573 1.573 0 0 1-.3 1.851l-1.907 1.907a1.174 1.174 0 0 0 0 1.662l4.355 4.355a1.212 1.212 0 0 0 1.662 0l1.906-1.907a1.582 1.582 0 0 1 1.852-.3l.6.331a11.671 11.671 0 0 0 2.64 1.193 1.569 1.569 0 0 1 1.078 1.52v2.694A1.175 1.175 0 0 0 30.975 66h7.05a1.175 1.175 0 0 0 1.175-1.175v-2.694a1.568 1.568 0 0 1 1.086-1.522 11.72 11.72 0 0 0 2.64-1.193l.6-.331a1.578 1.578 0 0 1 1.851.3l1.907 1.907a1.174 1.174 0 0 0 1.661 0L53.3 56.94a1.176 1.176 0 0 0 0-1.662l-1.907-1.907a1.575 1.575 0 0 1-.3-1.851l.334-.6a11.732 11.732 0 0 0 1.19-2.635 1.569 1.569 0 0 1 1.52-1.084h2.694A1.175 1.175 0 0 0 58 46.025v-7.05a1.174 1.174 0 0 0-1.175-1.175z"></path>
      <path d="M35 53.667A11.667 11.667 0 1 1 46.667 42 11.68 11.68 0 0 1 35 53.667M35 28a14 14 0 1 0 14 14 14.016 14.016 0 0 0-14-14"></path>
      <path d="M28.9 41.5l2.751-2.58a1.075 1.075 0 0 0 0-1.591 1.255 1.255 0 0 0-1.7 0l-3.6 3.375a1.075 1.075 0 0 0 0 1.591l3.6 3.375a1.256 1.256 0 0 0 1.7 0 1.075 1.075 0 0 0 0-1.591zm14.748-.8l-3.6-3.375a1.255 1.255 0 0 0-1.7 0 1.075 1.075 0 0 0 0 1.591L41.1 41.5l-2.751 2.58a1.075 1.075 0 0 0 0 1.591 1.256 1.256 0 0 0 1.7 0l3.6-3.375a1.075 1.075 0 0 0 0-1.591"></path>
      <path d="M36.093 36.041a1.283 1.283 0 0 0-1.545.764l-2.5 7.779a1.1 1.1 0 0 0 .859 1.373 1.465 1.465 0 0 0 .344.042 1.237 1.237 0 0 0 1.2-.807l2.5-7.779a1.1 1.1 0 0 0-.859-1.373"></path>
    </g>
  </symbol>
  <symbol xmlns="http://www.w3.org/2000/svg" viewBox="0 0 38 31.99" id="citazione">
    <path d="M0 15.995V31.99h15.958V15.995H5.32A10.663 10.663 0 0 1 15.958 5.332V0A15.994 15.994 0 0 0 0 15.995M38 5.332V0a15.994 15.994 0 0 0-15.958 15.995V31.99H38V15.995H27.361A10.663 10.663 0 0 1 38 5.332" fill="#fff" fill-rule="evenodd"></path>
  </symbol>
  <symbol xmlns="http://www.w3.org/2000/svg" viewBox="0 0 42 53" id="vantaggi_pagamenti">
    <g fill="#06c" fill-rule="evenodd">
      <path d="M29.712 39.817h10.454v-8.892H29.712zm7.753 9.072a2.249 2.249 0 0 1-2.235 2.257H1.834V19.6h33.4a2.249 2.249 0 0 1 2.235 2.257v7.219h-8.67a.922.922 0 0 0-.917.926v10.742a.922.922 0 0 0 .917.926h8.67zM14.308 6.431a6.142 6.142 0 0 0 3.072.814 6.176 6.176 0 0 0 4.32-1.753l8.045 6.308a6.38 6.38 0 0 0-.141 5.941h-24zm3.234-4.2l2.691 2.112a4.363 4.363 0 0 1-2.853 1.05 4.348 4.348 0 0 1-1.931-.446zm8.718.7l1.693 5.119-5.079-3.985zm5.592 14.819h-.07a4.507 4.507 0 0 1-.567-4.787l2.693 2.113zm9.232 11.329H39.3v-7.226a4.094 4.094 0 0 0-4.069-4.11h-1.057l1.745-2.269a.933.933 0 0 0-.162-1.3L30.562 10.1l-2.853-8.642a.924.924 0 0 0-.46-.536.908.908 0 0 0-.7-.05L21.133 2.7 17.943.2a.911.911 0 0 0-1.287.163L3.285 17.743H.917a.922.922 0 0 0-.917.926v33.4A.922.922 0 0 0 .917 53H35.23a4.094 4.094 0 0 0 4.07-4.11v-7.22h1.784a.922.922 0 0 0 .916-.926V30a.922.922 0 0 0-.917-.926z"></path>
      <path d="M35.7 34.98a1.06 1.06 0 1 1-1.05 1.06 1.056 1.056 0 0 1 1.05-1.06m0 4.24a3.18 3.18 0 1 0-3.15-3.18 3.169 3.169 0 0 0 3.15 3.18"></path>
    </g>
  </symbol>
  <symbol xmlns="http://www.w3.org/2000/svg" viewBox="0 0 49.956 43.167" id="vantaggi_msg">
    <g fill="#06c" fill-rule="evenodd">
      <path d="M25.074 21.049a10.64 10.64 0 0 0 10.262-7.741H45.8L28.024 25.445a5.409 5.409 0 0 1-6.092 0L4.158 13.308h10.654a10.641 10.641 0 0 0 10.262 7.741zm4.035 6.5a7.59 7.59 0 0 0-.359-.208q.262-.15.513-.322L47.98 14.197v26.1c-3.8-2.659-13.579-9.469-18.87-12.749zm-7.135 1.652a5.824 5.824 0 0 1 6.085 0c4.848 3.005 13.526 9.017 17.806 12.007H4.1c4.3-2.992 13.013-9.009 17.876-12.012zm-20-15L20.692 27.02c.179.122.363.236.549.341a7.496 7.496 0 0 0-.313.182c-5.311 3.281-15.145 10.1-18.952 12.759zm47.98-1.866v-.009a.93.93 0 0 0-.009-.124.914.914 0 0 0-.025-.117l-.006-.021c0-.006 0-.012-.005-.018a.9.9 0 0 0-.034-.09l-.008-.018a.973.973 0 0 0-.125-.2l-.012-.015a.948.948 0 0 0-.079-.084l-.016-.015a1.078 1.078 0 0 0-.092-.074l-.011-.008a1.062 1.062 0 0 0-.1-.064 1 1 0 0 0-.114-.05l-.017-.006a1.028 1.028 0 0 0-.113-.032h-.022a.926.926 0 0 0-.117-.016H35.682q.033-.41.033-.829a10.44 10.44 0 0 0-1.371-5.171A.994.994 0 0 0 33 4.982a.971.971 0 0 0-.374 1.331 8.5 8.5 0 0 1 1.115 4.209 8.674 8.674 0 0 1-17.158 1.71.9.9 0 0 0-.031-.16 8.508 8.508 0 0 1-.142-1.548 8.627 8.627 0 0 1 8.664-8.569 8.79 8.79 0 0 1 2.054.242.989.989 0 0 0 1.193-.715.977.977 0 0 0-.727-1.18 10.811 10.811 0 0 0-2.52-.3 10.6 10.6 0 0 0-10.641 10.523c0 .279.012.555.033.829H.913a1.032 1.032 0 0 0-.118.017H.774a.985.985 0 0 0-.114.032l-.016.006a.954.954 0 0 0-.114.05.969.969 0 0 0-.105.063l-.011.008a1.01 1.01 0 0 0-.091.075l-.023.023a1.057 1.057 0 0 0-.079.085l-.011.014a.964.964 0 0 0-.125.2l-.008.018a.893.893 0 0 0-.034.09c0 .006 0 .012-.005.018l-.004.029a.936.936 0 0 0-.025.117 1 1 0 0 0-.009.122v29.976c0 .012.005.039.009.058s0 .026.006.038.009.034.013.05l.012.044.016.041.019.049.017.035c.006.011.017.035.027.052l.019.031.033.052a.077.077 0 0 1 .006.008l.013.016a.764.764 0 0 0 .051.062l.027.029.052.05.028.026c.027.022.054.042.083.062l.026.015a.769.769 0 0 0 .069.039l.033.016.068.029.034.012q.036.012.074.022l.031.008a.762.762 0 0 0 .081.014h.028c.034 0 .068.006.1.006h48.078l.046-.005.048-.007.051-.011.042-.011.05-.016.041-.015.046-.02.043-.02.04-.022.045-.027.034-.025.044-.033.032-.026.04-.036.032-.033.032-.035.034-.043.018-.023.006-.009.033-.051.019-.031.027-.052.017-.035.019-.049.015-.042.012-.045.013-.049c.004-.017 0-.027.007-.04s.006-.037.008-.056 0-.025 0-.038V12.33z"></path>
      <path d="M4.951 29.917a.98.98 0 0 0 .99-.97v-6.4a.99.99 0 0 0-1.98 0v6.4a.98.98 0 0 0 .99.97m.293 2.012l-.022-.007a.978.978 0 1 0-.566 1.872l.022.007a.968.968 0 0 0 .283.042.978.978 0 0 0 .282-1.914m19.308-15.915a1.572 1.572 0 0 0 1.39 0 .491.491 0 0 0 .3-.442V5.999a.518.518 0 0 0-.274-.442 1.1 1.1 0 0 0-.608-.177.638.638 0 0 0-.41.147l-1.797 1.326a.766.766 0 0 0-.38.692.843.843 0 0 0 .183.53.556.556 0 0 0 .456.236.537.537 0 0 0 .365-.133l.486-.471v7.865a.492.492 0 0 0 .289.442M30.4 3.859l.022.006a.978.978 0 1 0 .568-1.872l-.022-.007a.979.979 0 1 0-.568 1.873"></path>
    </g>
  </symbol>
  <symbol xmlns="http://www.w3.org/2000/svg" viewBox="0 0 56.076 54.018" id="vantaggi_esperienza">
    <path d="M11.489 48.2a2.433 2.433 0 0 1-3.384 0 2.3 2.3 0 0 1 0-3.307 2.433 2.433 0 0 1 3.384 0 2.3 2.3 0 0 1 0 3.307M9.8 42.083a4.626 4.626 0 0 0-2.194.547 24.762 24.762 0 0 1-5.43-15.421c0-13.831 11.517-25.083 25.674-25.083a26.453 26.453 0 0 1 5.113.5 1.087 1.087 0 0 0 1.282-.831 1.064 1.064 0 0 0-.851-1.256A28.7 28.7 0 0 0 27.85 0 28 28 0 0 0 8.157 7.969a26.746 26.746 0 0 0-2.164 36.1 4.389 4.389 0 0 0 .573 5.631 4.645 4.645 0 0 0 6.462 0 4.392 4.392 0 0 0 0-6.313A4.594 4.594 0 0 0 9.8 42.083M44.587 9.124a2.3 2.3 0 0 1 0-3.307 2.433 2.433 0 0 1 3.385 0 2.3 2.3 0 0 1 0 3.307 2.434 2.434 0 0 1-3.385 0m5.495.821a4.395 4.395 0 0 0-.575-5.631 4.646 4.646 0 0 0-6.462 0 4.392 4.392 0 0 0 0 6.313 4.657 4.657 0 0 0 5.426.76 24.762 24.762 0 0 1 5.426 15.422c0 13.831-11.517 25.083-25.674 25.083a26.448 26.448 0 0 1-5.062-.491 1.088 1.088 0 0 0-1.28.834 1.064 1.064 0 0 0 .853 1.251 28.714 28.714 0 0 0 5.491.529 28 28 0 0 0 19.693-7.969 26.72 26.72 0 0 0 8.157-19.24 26.866 26.866 0 0 0-5.994-16.861"
      fill="#06c" fill-rule="evenodd"></path>
    <path d="M19.479 39.58a1.123 1.123 0 0 0-1.364.14L16.786 41l-3.28-3.162 1.327-1.279a1.022 1.022 0 0 0 .145-1.314 14.1 14.1 0 0 1-2.067-4.805 1.083 1.083 0 0 0-1.067-.83H9.971v-4.47h1.871a1.082 1.082 0 0 0 1.067-.83 14.1 14.1 0 0 1 2.07-4.81 1.022 1.022 0 0 0-.145-1.314l-1.319-1.266 3.285-3.16 1.317 1.27a1.123 1.123 0 0 0 1.364.14 15.244 15.244 0 0 1 4.988-1.991 1.062 1.062 0 0 0 .862-1.028v-1.8h4.64v1.799a1.061 1.061 0 0 0 .862 1.028 15.257 15.257 0 0 1 4.988 1.991 1.122 1.122 0 0 0 1.363-.14L38.5 13.76l3.282 3.16-1.319 1.27a1.022 1.022 0 0 0-.145 1.314 14.112 14.112 0 0 1 2.067 4.805 1.082 1.082 0 0 0 1.067.83h1.875v4.47h-1.876a1.083 1.083 0 0 0-1.067.83 14.1 14.1 0 0 1-2.067 4.805 1.023 1.023 0 0 0 .145 1.314l1.327 1.279L38.51 41l-1.328-1.28a1.122 1.122 0 0 0-1.364-.14 15.26 15.26 0 0 1-4.988 1.991 1.061 1.061 0 0 0-.862 1.028v1.814h-4.64V42.6a1.062 1.062 0 0 0-.862-1.028 15.253 15.253 0 0 1-4.988-1.991zm3.667 5.884a1.072 1.072 0 0 0 1.091 1.051h6.823a1.072 1.072 0 0 0 1.091-1.051v-2.038a17.452 17.452 0 0 0 4.1-1.635l1.493 1.439a1.12 1.12 0 0 0 1.543 0l4.813-4.649a1.024 1.024 0 0 0 0-1.486l-1.492-1.437a16.133 16.133 0 0 0 1.7-3.945h2.107a1.072 1.072 0 0 0 1.091-1.051v-6.574a1.072 1.072 0 0 0-1.091-1.051H44.31a16.134 16.134 0 0 0-1.7-3.945l1.49-1.429a1.024 1.024 0 0 0 0-1.487l-4.83-4.646a1.121 1.121 0 0 0-1.543 0l-1.482 1.428a17.457 17.457 0 0 0-4.1-1.635V9.3a1.072 1.072 0 0 0-1.091-1.051h-6.817A1.072 1.072 0 0 0 23.146 9.3v2.019a17.442 17.442 0 0 0-4.095 1.635l-1.482-1.424a1.121 1.121 0 0 0-1.543 0L11.2 16.176a1.024 1.024 0 0 0 0 1.487l1.484 1.429a16.128 16.128 0 0 0-1.7 3.945h-2.1a1.072 1.072 0 0 0-1.091 1.051v6.573a1.031 1.031 0 0 0 .319.744 1.113 1.113 0 0 0 .772.308h2.107a16.133 16.133 0 0 0 1.7 3.945l-1.492 1.437a1.024 1.024 0 0 0 0 1.486l4.822 4.649a1.113 1.113 0 0 0 .771.308 1.112 1.112 0 0 0 .772-.308l1.493-1.439a17.467 17.467 0 0 0 4.1 1.635z"
      fill="#06c" fill-rule="evenodd"></path>
    <path d="M21.639 26.634a6.793 6.793 0 0 1 13.577 0 6.793 6.793 0 0 1-13.577 0m15.745 0a8.807 8.807 0 0 0-8.957-8.628 8.807 8.807 0 0 0-8.957 8.628 8.807 8.807 0 0 0 8.957 8.628 8.807 8.807 0 0 0 8.957-8.628m.389-22.883a1.2 1.2 0 0 0 .826-.33 1.1 1.1 0 0 0 0-1.592 1.2 1.2 0 0 0-1.651 0 1.1 1.1 0 0 0 0 1.592 1.2 1.2 0 0 0 .825.33M18.3 50.267a1.2 1.2 0 0 0-.826.33 1.1 1.1 0 0 0 0 1.591 1.2 1.2 0 0 0 1.652 0 1.1 1.1 0 0 0 0-1.591 1.2 1.2 0 0 0-.826-.33"
      fill="#06c" fill-rule="evenodd"></path>
  </symbol>
  <symbol xmlns="http://www.w3.org/2000/svg" viewBox="0 0 41.43 52.973" id="vantaggi_comunicazioni">
    <path d="M1.816 6.751h23.618v8a.9.9 0 0 0 .908.889h8.175v35.555H1.816zm31.416 7.111H27.25V8.008zM0 5.862v46.222a.9.9 0 0 0 .908.889h34.517a.9.9 0 0 0 .908-.889V14.751c0-.02-.01-.037-.012-.056a.828.828 0 0 0-.046-.228c-.01-.029-.017-.056-.03-.084a.882.882 0 0 0-.182-.26l-9.083-8.89a.88.88 0 0 0-.267-.178.835.835 0 0 0-.083-.029.911.911 0 0 0-.235-.046c-.015 0-.033-.007-.052-.007H.908A.9.9 0 0 0 0 5.862z"
      fill="#06c" fill-rule="evenodd"></path>
    <path d="M37.814 46.118v1.774h2.712a.9.9 0 0 0 .9-.887V.887a.9.9 0 0 0-.9-.887H6.177a.9.9 0 0 0-.9.887v2.66h1.804V1.773h32.54v44.345z" fill="#06c" fill-rule="evenodd"></path>
    <path d="M7.267 19.973h20.762v-2H7.267zm0-6h7.267v-2H7.267zm0 11h13.5v-2h-13.5zm16.609 0h5.19v-2h-5.19zm-16.609 5h20.762v-2H7.267zm0 11h20.762v-2H7.267zm8.304-6h12.458v-2H15.571zm-9.342 0h6.229v-2H6.229zm1.038 11h4.152v-2H7.267zm5.19 0h16.61v-2h-16.61z"
      fill="#06c" fill-rule="evenodd"></path>
  </symbol>
  <symbol xmlns="http://www.w3.org/2000/svg" viewBox="0 0 207 207" id="pa_privacy_sicurezza">
    <g fill="#06c" fill-rule="evenodd" opacity=".08">
      <path d="M20.333 14a3.5 3.5 0 0 0 0 7h3.333a3.5 3.5 0 0 0 0-7zm18 0a3.5 3.5 0 0 0 0 7h3.333a3.5 3.5 0 0 0 0-7zm16 0a3.5 3.5 0 0 0 0 7h3.333a3.5 3.5 0 0 0 0-7zm18.081 0a3.5 3.5 0 0 0 0 7h92.172a3.5 3.5 0 0 0 0-7z"></path>
      <path d="M200.1 138h-10.35a3.45 3.45 0 1 0 0 6.9h10.35v6.9h-10.35a3.45 3.45 0 1 0 0 6.9h10.35v6.9h-10.35a3.45 3.45 0 1 0 0 6.9h10.35v6.9h-10.35a3.45 3.45 0 1 0 0 6.9h10.005a17.281 17.281 0 0 1-16.9 13.8h-48.3a17.281 17.281 0 0 1-16.9-13.8h10.005a3.45 3.45 0 0 0 0-6.9H117.3v-6.9h10.35a3.45 3.45 0 0 0 0-6.9H117.3v-6.9h10.35a3.45 3.45 0 0 0 0-6.9H117.3v-6.9h10.35a3.45 3.45 0 0 0 0-6.9H117.3v-6.9h82.8v6.9zm-89.7-6.9v34.5H17.25A10.35 10.35 0 0 1 6.9 155.25V34.5h172.5v40.682a37.9 37.9 0 0 0-58.65 31.768v17.25h-3.45a6.9 6.9 0 0 0-6.9 6.9zM6.9 17.25A10.35 10.35 0 0 1 17.25 6.9h151.8a10.35 10.35 0 0 1 10.35 10.35V27.6H6.9zm182.85 89.7v17.25h-62.1v-17.25a31.05 31.05 0 1 1 62.1 0zm10.35 17.25h-3.45v-17.25a37.771 37.771 0 0 0-10.35-25.965V17.25A17.27 17.27 0 0 0 169.05 0H17.25A17.271 17.271 0 0 0 0 17.25v138a17.271 17.271 0 0 0 17.25 17.25h93.15v10.35A24.177 24.177 0 0 0 134.55 207h48.3A24.177 24.177 0 0 0 207 182.85V131.1a6.9 6.9 0 0 0-6.9-6.9z"></path>
      <path d="M157.5 155.889a3.445 3.445 0 1 1-3.5 3.444 3.473 3.473 0 0 1 3.5-3.444m-3.5 13.144v7.523a3.5 3.5 0 0 0 7 0v-7.523a10.291 10.291 0 0 0 6.846-11.471 10.534 10.534 0 0 0-20.695 0A10.291 10.291 0 0 0 154 169.033M58.583 69.5a3.416 3.416 0 0 0-3.417 3.417v10.25H27.833V55.833H41.5a3.417 3.417 0 0 0 0-6.833H27.833A6.833 6.833 0 0 0 21 55.833v27.334A6.833 6.833 0 0 0 27.833 90h27.334A6.833 6.833 0 0 0 62 83.167v-10.25a3.417 3.417 0 0 0-3.417-3.417"></path>
      <path d="M36.845 63.488a3.5 3.5 0 0 0-4.835.041 3.324 3.324 0 0 0-.042 4.731l6.9 6.751A3.487 3.487 0 0 0 41.3 76h.155a3.477 3.477 0 0 0 2.494-1.208L61.2 54.54a3.32 3.32 0 0 0 .59-3.327 3.433 3.433 0 0 0-2.65-2.163 3.491 3.491 0 0 0-3.24 1.163L41.07 67.629zM58.583 127.5a3.416 3.416 0 0 0-3.417 3.416v10.25H27.833v-27.333H41.5a3.417 3.417 0 1 0 0-6.833H27.833A6.833 6.833 0 0 0 21 113.833v27.334A6.833 6.833 0 0 0 27.833 148h27.334A6.833 6.833 0 0 0 62 141.167v-10.25a3.417 3.417 0 0 0-3.417-3.417"></path>
      <path d="M36.845 122.488a3.5 3.5 0 0 0-4.835.041 3.324 3.324 0 0 0-.042 4.731l6.9 6.751A3.487 3.487 0 0 0 41.3 135h.155a3.477 3.477 0 0 0 2.494-1.208L61.2 113.54a3.319 3.319 0 0 0 .59-3.326 3.432 3.432 0 0 0-2.649-2.164 3.491 3.491 0 0 0-3.239 1.163L41.07 126.63zM75.5 59h28a3.5 3.5 0 0 0 0-7h-28a3.5 3.5 0 0 0 0 7M124 72.5a3.483 3.483 0 0 0-3.467-3.5H75.467a3.5 3.5 0 0 0 0 7h45.067A3.483 3.483 0 0 0 124 72.5M103.5 110h-28a3.5 3.5 0 0 0 0 7h28a3.5 3.5 0 0 0 0-7m-3.944 18H75.444a3.5 3.5 0 0 0 0 7h24.112a3.5 3.5 0 0 0 0-7"></path>
    </g>
  </symbol>
  <symbol xmlns="http://www.w3.org/2000/svg" viewBox="0 0 216 216" id="pa_open_source">
    <g fill="#06c" fill-rule="evenodd">
      <path d="M52 97h112v-7H52zm66 14h46v-7h-46zm-66 0h46v-7H52zm66-28h46v-7h-46zm-66 0h46v-7H52zm0-13h112v-7H52z" opacity=".08"></path>
      <path d="M184.645 80.724V62.71a20.924 20.924 0 0 0-20.9-20.9v6.968a13.949 13.949 0 0 1 13.932 13.932v18.014a27.062 27.062 0 0 0 5.8 16.824 27.061 27.061 0 0 0-5.8 16.824v18.015a13.95 13.95 0 0 1-13.935 13.935v6.968a20.924 20.924 0 0 0 20.9-20.9v-18.017a20.176 20.176 0 0 1 5.947-14.361l2.463-2.463-2.463-2.463a20.17 20.17 0 0 1-5.947-14.361M38.323 132.387v-18.015a27.062 27.062 0 0 0-5.8-16.824 27.062 27.062 0 0 0 5.8-16.824V62.71a13.95 13.95 0 0 1 13.935-13.936v-6.968a20.924 20.924 0 0 0-20.9 20.9v18.018a20.176 20.176 0 0 1-5.947 14.361l-2.464 2.463 2.464 2.463a20.17 20.17 0 0 1 5.947 14.361v18.015a20.924 20.924 0 0 0 20.9 20.9v-6.968a13.95 13.95 0 0 1-13.935-13.935M108 174.194a6.968 6.968 0 1 1 6.968-6.968 6.975 6.975 0 0 1-6.968 6.968m0-20.9a13.935 13.935 0 1 0 13.935 13.935A13.95 13.95 0 0 0 108 153.29"
        opacity=".08"></path>
      <path d="M108 139.355a27.957 27.957 0 0 0-13.264 3.351l3.321 6.129a20.908 20.908 0 0 1 28.333 28.333l6.129 3.321A27.882 27.882 0 0 0 108 139.355m0 48.774a20.908 20.908 0 0 1-18.39-30.846l-6.129-3.321a27.882 27.882 0 0 0 37.783 37.783l-3.321-6.129a20.95 20.95 0 0 1-9.943 2.513"
        opacity=".08"></path>
      <path d="M156.774 163.742v-6.2l-8.72-2.183a41.874 41.874 0 0 0-3.341-8.055l4.63-7.713-13.7-13.7-7.712 4.63a41.414 41.414 0 0 0-8.055-3.341l-2.189-8.727H98.312l-2.183 8.72a41.874 41.874 0 0 0-8.055 3.341l-7.713-4.631-13.7 13.7 4.631 7.712a41.44 41.44 0 0 0-3.341 8.055l-8.727 2.189v6.2H6.968v-128.9h202.064v128.9zm-6.968 7.732l-7.476 1.87-.5 2.053a34.553 34.553 0 0 1-4.135 9.97l-1.1 1.8 3.972 6.615-6.007 6.007-6.615-3.972-1.8 1.1a34.615 34.615 0 0 1-9.97 4.136l-2.053.495-1.873 7.48h-8.5l-1.87-7.476-2.053-.5a34.552 34.552 0 0 1-9.97-4.135l-1.8-1.1-6.615 3.972-6.007-6.007 3.972-6.615-1.1-1.8a34.6 34.6 0 0 1-4.135-9.97l-.5-2.053-7.48-1.873v-8.5l7.476-1.87.5-2.053a34.553 34.553 0 0 1 4.135-9.97l1.1-1.8-3.972-6.615 6.007-6.007 6.615 3.972 1.8-1.1a34.615 34.615 0 0 1 9.97-4.136l2.053-.495 1.873-7.48h8.5l1.87 7.476 2.053.5a34.553 34.553 0 0 1 9.97 4.135l1.8 1.1 6.615-3.972 6.007 6.007-3.972 6.615 1.1 1.8a34.6 34.6 0 0 1 4.135 9.97l.5 2.053 7.48 1.873zM10.452 6.968h195.1a3.491 3.491 0 0 1 3.484 3.484v17.419H6.968V10.452a3.491 3.491 0 0 1 3.484-3.484zM216 10.452A10.465 10.465 0 0 0 205.548 0H10.452A10.465 10.465 0 0 0 0 10.452V170.71h59.226v6.2l8.72 2.183a41.874 41.874 0 0 0 3.341 8.055l-4.63 7.713 13.7 13.7 7.712-4.63a41.414 41.414 0 0 0 8.055 3.341L98.312 216h19.376l2.183-8.72a41.873 41.873 0 0 0 8.055-3.341l7.713 4.631 13.7-13.7-4.631-7.712a41.4 41.4 0 0 0 3.341-8.055l8.727-2.189v-6.2H216z"
        opacity=".08"></path>
      <path d="M13.935 20.9H20.9v-6.965h-6.965zm13.936 0h6.968v-6.965h-6.968zm13.935 0h6.968v-6.965h-6.968z" opacity=".08"></path>
    </g>
  </symbol>
  <symbol xmlns="http://www.w3.org/2000/svg" viewBox="0 0 198 148" id="pa_cod_fiscale">
    <g fill="#06c" fill-rule="evenodd" opacity=".08">
      <path d="M178.664 0H73.477a3.895 3.895 0 0 0 0 7.789h105.187a11.656 11.656 0 0 1 11.6 11.684v109.053a11.656 11.656 0 0 1-11.6 11.684H19.336a11.656 11.656 0 0 1-11.6-11.684V19.474a11.656 11.656 0 0 1 11.6-11.684h23.2a3.895 3.895 0 0 0 0-7.789h-23.2A19.427 19.427 0 0 0 0 19.474v109.052A19.427 19.427 0 0 0 19.336 148h159.328A19.427 19.427 0 0 0 198 128.526V19.474A19.427 19.427 0 0 0 178.664 0"></path>
      <path d="M81.649 77.3a26.023 26.023 0 0 0-11.467-10.992 14.966 14.966 0 0 0 3.54-9.688v-1.468a14.723 14.723 0 1 0-29.442 0v1.468a14.966 14.966 0 0 0 3.54 9.688A26.015 26.015 0 0 0 36.351 77.3 29.754 29.754 0 0 1 59 28.813 29.754 29.754 0 0 1 81.649 77.3M51.987 56.62v-1.468a7.013 7.013 0 1 1 14.026 0v1.468a7.013 7.013 0 1 1-14.026 0m-9.723 26.224a18.042 18.042 0 0 1 33.473 0 28.882 28.882 0 0 1-33.473 0M59 21c-20.4 0-37 16.823-37 37.5S38.6 96 59 96s37-16.823 37-37.5S79.4 21 59 21m61.683 49.2h47.634V46.8h-47.634zm-3.842 7.8h55.317A3.871 3.871 0 0 0 176 74.1V42.9a3.871 3.871 0 0 0-3.841-3.9h-55.318A3.871 3.871 0 0 0 113 42.9v31.2a3.871 3.871 0 0 0 3.841 3.9zm0 16h55.317a4 4 0 0 0 0-8h-55.317a4 4 0 0 0 0 8m-2.669 13.828A4 4 0 1 0 113 105a4.032 4.032 0 0 0 1.172 2.828m16-5.656A4 4 0 1 0 133 101a4.032 4.032 0 0 0-2.828 1.172M172.19 101h-24.38a4 4 0 0 0 0 8h24.38a4 4 0 0 0 0-8M86 107a3.923 3.923 0 0 0-3.837-4H34.837a4 4 0 0 0 0 8h47.326A3.922 3.922 0 0 0 86 107m-46.138 11a4 4 0 0 0 0 8h35.276a4 4 0 0 0 0-8zM57 8a4 4 0 0 0 4-4 4 4 0 1 0-6.828 2.828A4.03 4.03 0 0 0 57 8"></path>
    </g>
  </symbol>
  <symbol xmlns="http://www.w3.org/2000/svg" viewBox="0 0 27.607 30.485" id="srv_tpl_messaggi">
    <path d="M23.8 2.032l1.775 1.781H23.8zm-3.333 20.712v4.764a1.787 1.787 0 0 1-1.784 1.786H2.975a1.787 1.787 0 0 1-1.785-1.786v-4.764a1.788 1.788 0 0 1 1.785-1.786h15.708a1.787 1.787 0 0 1 1.784 1.786zm6.965-18.761L23.625.174A.6.6 0 0 0 23.2 0H5.593a.6.6 0 0 0-.6.6v19.167H2.975A2.979 2.979 0 0 0 0 22.744v4.764a2.979 2.979 0 0 0 2.975 2.977h24.037a.6.6 0 0 0 .595-.6V15.482a.595.595 0 1 0-1.19 0v13.812H21.06a2.957 2.957 0 0 0 .6-1.786v-4.764a2.979 2.979 0 0 0-2.975-2.977H6.188V1.191h16.421v3.213a.6.6 0 0 0 .6.6h3.213v7.57a.595.595 0 1 0 1.19 0v-8.17a.594.594 0 0 0-.175-.421z"
      fill="#fff" fill-rule="evenodd"></path>
    <path d="M16.184 25.725h.238a.6.6 0 0 1 0 1.191h-.862a.6.6 0 0 0 0 1.191h.862a1.787 1.787 0 0 0 0-3.573h-.238a.6.6 0 0 1 0-1.191h.684a.6.6 0 1 0 0-1.19h-.684a1.786 1.786 0 0 0 0 3.573M4.511 22.372a.6.6 0 1 0-.929.744l1.606 2.009-1.606 2.01a.6.6 0 1 0 .929.744l1.439-1.8 1.439 1.8a.6.6 0 1 0 .929-.744l-1.606-2.01 1.606-2.01a.6.6 0 1 0-.929-.744l-1.439 1.8zm5.723 5.731h2.38a.6.6 0 0 0 0-1.191h-1.785v-4.168a.6.6 0 1 0-1.19 0v4.763a.6.6 0 0 0 .6.6m4.278-11.082h8.33v-2.3h-8.33zm-4.76 0h3.569v-2.3H9.758zm0-6.985h3.569v-2.3H9.758zm4.759 0h8.33v-2.3h-8.33zm0 3.492h8.33v-2.3h-8.33zm-4.76 0h3.569v-2.3H9.758zm-.6-6.984a.6.6 0 0 0-.6.6v10.471a.6.6 0 0 0 .6.6h4.7a.534.534 0 0 0 .127 0h9.456a.6.6 0 0 0 .6-.6V7.143a.6.6 0 0 0-.6-.6z"
      fill="#fff" fill-rule="evenodd"></path>
  </symbol>
  <symbol xmlns="http://www.w3.org/2000/svg" viewBox="0 0 29.243 26.314" id="srv_kit_comm">
    <g fill-rule="evenodd">
      <path d="M19.054 3.9h9.016V1.168h-9.016zm-17.879 0h16.961V1.168H1.175zM28.527.255H.716a.457.457 0 0 0-.462.458v24.888a.457.457 0 0 0 .458.456h27.815a.457.457 0 0 0 .459-.456v-4.856a.459.459 0 0 0-.917 0v4.4H1.175V4.81h26.894v12.745a.459.459 0 0 0 .917 0V.713a.457.457 0 0 0-.459-.458z"
        fill="#fff"></path>
      <path d="M19.054 3.9h9.016V1.168h-9.016zm-17.879 0h16.961V1.168H1.175zM28.527.255H.716a.457.457 0 0 0-.462.458v24.888a.457.457 0 0 0 .458.456h27.815a.457.457 0 0 0 .459-.456v-4.856a.459.459 0 0 0-.917 0v4.4H1.175V4.81h26.894v12.745a.459.459 0 0 0 .917 0V.713a.457.457 0 0 0-.459-.458z"
        fill="none" stroke="#fff" stroke-width=".515"></path>
      <path d="M23.577 2.049a.486.486 0 1 0 .489.486.488.488 0 0 0-.489-.486" fill="#fff"></path>
      <path d="M23.577 2.049a.486.486 0 1 0 .489.486.488.488 0 0 0-.489-.486z" fill="none" stroke="#fff" stroke-width=".515"></path>
      <path d="M21.071 2.049a.486.486 0 1 0 .489.486.488.488 0 0 0-.489-.486" fill="#fff"></path>
      <path d="M21.071 2.049a.486.486 0 1 0 .489.486.488.488 0 0 0-.489-.486z" fill="none" stroke="#fff" stroke-width=".515"></path>
      <path d="M26.082 2.049a.486.486 0 1 0 .489.486.488.488 0 0 0-.489-.486" fill="#fff"></path>
      <path d="M26.082 2.049a.486.486 0 1 0 .489.486.488.488 0 0 0-.489-.486z" fill="none" stroke="#fff" stroke-width=".515"></path>
      <path d="M19.123 12.978v6.807a7.4 7.4 0 0 0-4.338-3.073 9.764 9.764 0 0 0-2.409-.358v-4.06a9.717 9.717 0 0 0 2.409-.357 7.4 7.4 0 0 0 4.338-3.073zm-7.39 2.024h-2a.319.319 0 1 0 0 .638h2v.715H9.062a2.032 2.032 0 1 1 .009-4.063h2.662zm-.041 4.844l.1.414a.427.427 0 0 1-.081.369.434.434 0 0 1-.342.165h-.615a.434.434 0 0 1-.423-.33l-.85-3.472h1.513l.227.926.157.638zm8.073-7.176V8.555a.555.555 0 0 0-1.034-.277 6.634 6.634 0 0 1-4.1 3.042 8.8 8.8 0 0 1-2.558.336.421.421 0 0 0-.05 0H9.071a2.669 2.669 0 0 0-.255 5.328l.89 3.634a1.073 1.073 0 0 0 1.047.817h.618a1.072 1.072 0 0 0 .847-.409 1.057 1.057 0 0 0 .2-.914l-.764-3.118h.367a.264.264 0 0 0 .05 0 8.777 8.777 0 0 1 2.559.336 6.635 6.635 0 0 1 4.1 3.041.547.547 0 0 0 .475.275.592.592 0 0 0 .148-.02.545.545 0 0 0 .41-.532v-7.423z"
        fill="#fff"></path>
      <path d="M19.123 12.978v6.807a7.4 7.4 0 0 0-4.338-3.073 9.764 9.764 0 0 0-2.409-.358v-4.06a9.717 9.717 0 0 0 2.409-.357 7.4 7.4 0 0 0 4.338-3.073zm-7.39 2.024h-2a.319.319 0 1 0 0 .638h2v.715H9.062a2.032 2.032 0 1 1 .009-4.063h2.662zm-.041 4.844l.1.414a.427.427 0 0 1-.081.369.434.434 0 0 1-.342.165h-.615a.434.434 0 0 1-.423-.33l-.85-3.472h1.513l.227.926.157.638zm8.073-7.176V8.555a.555.555 0 0 0-1.034-.277 6.634 6.634 0 0 1-4.1 3.042 8.8 8.8 0 0 1-2.558.336.421.421 0 0 0-.05 0H9.071a2.669 2.669 0 0 0-.255 5.328l.89 3.634a1.073 1.073 0 0 0 1.047.817h.618a1.072 1.072 0 0 0 .847-.409 1.057 1.057 0 0 0 .2-.914l-.764-3.118h.367a.264.264 0 0 0 .05 0 8.777 8.777 0 0 1 2.559.336 6.635 6.635 0 0 1 4.1 3.041.547.547 0 0 0 .475.275.592.592 0 0 0 .148-.02.545.545 0 0 0 .41-.532v-7.423z"
        fill="none" stroke="#fff" stroke-width=".775"></path>
      <path d="M20.761 12.463a.319.319 0 0 0 .216-.083l.927-.838a.318.318 0 0 0 .021-.451.323.323 0 0 0-.454-.021l-.927.838a.318.318 0 0 0-.021.451.322.322 0 0 0 .238.1" fill="#fff"></path>
      <path d="M20.761 12.463a.319.319 0 0 0 .216-.083l.927-.838a.318.318 0 0 0 .021-.451.323.323 0 0 0-.454-.021l-.927.838a.318.318 0 0 0-.021.451.322.322 0 0 0 .238.104z" fill="none" stroke="#fff" stroke-width=".775"></path>
      <path d="M20.977 16.269a.323.323 0 0 0-.454.021.318.318 0 0 0 .021.45l.927.838a.32.32 0 1 0 .433-.472z" fill="#fff"></path>
      <path d="M20.977 16.269a.323.323 0 0 0-.454.021.318.318 0 0 0 .021.45l.927.838a.32.32 0 1 0 .433-.472z" fill="none" stroke="#fff" stroke-width=".775"></path>
      <path d="M22.766 14.005h-1.492a.319.319 0 1 0 0 .638h1.492a.319.319 0 1 0 0-.638" fill="#fff"></path>
      <path d="M22.766 14.005h-1.492a.319.319 0 1 0 0 .638h1.492a.319.319 0 1 0 0-.638z" fill="none" stroke="#fff" stroke-width=".775"></path>
    </g>
  </symbol>
  <symbol xmlns="http://www.w3.org/2000/svg" viewBox="0 0 56 56" id="visibilita">
  <g fill="#06c" fill-rule="evenodd">
    <path fill="#06C" d="M34.2759169,28.7136884 C28.7739708,28.7136884 24.0831035,23.407428 22.72183,21.7028539 C24.1614675,19.854422 28.9623079,14.7346966 34.2759169,14.7346966 C39.7774241,14.7346966 44.4687304,20.0408478 45.8300039,21.7455311 C44.3910249,23.5936356 39.590404,28.7136884 34.2759169,28.7136884 M46.9997574,19.711219 C46.3885398,18.9977144 45.3923067,17.9169248 44.1168605,16.8203085 C40.869033,14.027741 37.4661238,12.5517241 34.2759169,12.5517241 C30.2401686,12.5517241 26.6975431,14.8620731 24.4362904,16.8003343 C23.1517347,17.9012074 22.1582454,18.9801415 21.5508692,19.6911357 C20.2758621,21.184398 20.2758621,21.4225603 20.2758621,21.7240288 C20.2758621,22.0391409 20.2758621,22.2471781 21.5519668,23.7369477 C22.1631844,24.4504523 23.1594175,25.5313511 24.4348636,26.6279673 C27.6826911,29.4205349 31.0856003,30.8965517 34.2758072,30.8965517 C38.3115555,30.8965517 41.854181,28.5862028 44.1154337,26.6480507 C45.3999894,25.5469593 46.3934787,24.4681343 47.0008549,23.7569219 C48.2758621,22.2637687 48.2758621,22.0257156 48.2758621,21.7239196 C48.2758621,21.4090259 48.2758621,21.2008794 46.9997574,19.711219"/>
    <path fill="#06C" d="M34.2758621,24.9170996 C32.5152758,24.9170996 31.0830063,23.48483 31.0830063,21.7242438 C31.0830063,19.9636576 32.5152758,18.531388 34.2758621,18.531388 C36.0365542,18.531388 37.4687179,19.9636576 37.4687179,21.7242438 C37.4687179,23.48483 36.0365542,24.9170996 34.2758621,24.9170996 M34.2758621,16.4137931 C31.3477983,16.4137931 28.9655172,18.7959682 28.9655172,21.7241379 C28.9655172,24.6523076 31.3476924,27.0344828 34.2758621,27.0344828 C37.2040318,27.0344828 39.5862069,24.6523076 39.5862069,21.7241379 C39.5862069,18.7959682 37.2040318,16.4137931 34.2758621,16.4137931"/>
    <path fill="#06C" d="M35.4412414 20.5589001C35.2616552 20.3782581 35.0125517 20.2758621 34.7586207 20.2758621 34.5046897 20.2758621 34.2555862 20.3782581 34.0759034 20.5589001 33.8964138 20.7385762 33.7931034 20.9868382 33.7931034 21.2418623 33.7931034 21.4959204 33.8964138 21.7451484 34.0759034 21.9247279 34.2555862 22.1044039 34.5046897 22.2068966 34.7586207 22.2068966 35.0125517 22.2068966 35.2616552 22.1044039 35.4412414 21.9247279 35.620731 21.7451484 35.7241379 21.4959204 35.7241379 21.2418623 35.7241379 20.9867416 35.620731 20.7385762 35.4412414 20.5589001M50.0523502 3.86206897L32.9821326 3.86206897C32.3634094 3.86206897 31.862069 4.29442759 31.862069 4.82758621 31.862069 5.36074483 32.3634094 5.79310345 32.9821326 5.79310345L50.0523502 5.79310345C50.6709613 5.79310345 51.1724138 5.36074483 51.1724138 4.82758621 51.1724138 4.29442759 50.6709613 3.86206897 50.0523502 3.86206897M24.8205517 4.14496552C24.6409655 3.96537931 24.3918621 3.86206897 24.137931 3.86206897 23.8830345 3.86206897 23.6348966 3.96528276 23.4553103 4.14496552 23.2757241 4.32455172 23.1724138 4.57365517 23.1724138 4.82758621 23.1724138 5.08151724 23.2757241 5.33062069 23.4553103 5.51011034 23.6348966 5.6897931 23.8830345 5.79310345 24.137931 5.79310345 24.3918621 5.79310345 24.6409655 5.6897931 24.8205517 5.51011034 25.0001379 5.33062069 25.1034483 5.08151724 25.1034483 4.82758621 25.1034483 4.57365517 25.0001379 4.32455172 24.8205517 4.14496552M20.9584828 4.14496552C20.7788966 3.96537931 20.5297931 3.86206897 20.2758621 3.86206897 20.021931 3.86206897 19.7728276 3.96528276 19.5932414 4.14496552 19.4136552 4.32455172 19.3103448 4.57365517 19.3103448 4.82758621 19.3103448 5.08151724 19.4136552 5.33062069 19.5932414 5.51011034 19.7728276 5.6897931 20.021931 5.79310345 20.2758621 5.79310345 20.5297931 5.79310345 20.7788966 5.6897931 20.9584828 5.51011034 21.138069 5.33062069 21.2413793 5.08151724 21.2413793 4.82758621 21.2413793 4.57365517 21.138069 4.32455172 20.9584828 4.14496552M28.6826207 4.14496552C28.5030345 3.96537931 28.253931 3.86206897 28 3.86206897 27.7451034 3.86206897 27.4959034 3.96528276 27.3164138 4.14496552 27.1368276 4.32464828 27.0344828 4.57365517 27.0344828 4.82758621 27.0344828 5.08151724 27.1368276 5.33062069 27.3164138 5.51011034 27.4969655 5.6897931 27.7451034 5.79310345 28 5.79310345 28.253931 5.79310345 28.5030345 5.6897931 28.6826207 5.51011034 28.8621103 5.33062069 28.9655172 5.08151724 28.9655172 4.82758621 28.9655172 4.57365517 28.8621103 4.32455172 28.6826207 4.14496552"/>
    <path fill="#06C" d="M53.8125,7.87555781 C53.8084531,7.87555781 53.804625,7.87501094 53.8005781,7.87501094 L15.203125,7.87501094 L15.203125,2.18751094 L53.8125,2.18751094 L53.8125,7.87555781 Z M53.8125,32.7031359 L15.203125,32.7031359 L15.203125,10.0625109 L53.8005781,10.0625109 C53.804625,10.0625109 53.8085625,10.0619641 53.8125,10.0619641 L53.8125,32.7031359 Z M47.9063594,43.5312609 L29.4259219,43.5312609 L20.6759219,43.5312609 L2.1875,43.5312609 L2.1875,39.3747922 L47.8062812,39.3747922 C47.8400781,39.3747922 47.8733281,39.3727141 47.9063594,39.3697609 L47.9063594,43.5312609 Z M21.7696719,49.4370734 L28.3321719,49.4370734 L28.3321719,45.7187609 L21.7696719,45.7187609 L21.7696719,49.4370734 Z M33.6940625,51.6245734 L33.6940625,53.8125109 L16.4075625,53.8125109 L16.4075625,51.6245734 L20.6758125,51.6245734 L29.4258125,51.6245734 L33.6940625,51.6245734 Z M54.90625,1.09375e-05 L14.109375,1.09375e-05 C13.5052969,1.09375e-05 13.015625,0.489792187 13.015625,1.09376094 L13.015625,33.7968859 C13.015625,34.4008547 13.5052969,34.8906359 14.109375,34.8906359 L47.90625,34.8906359 L47.90625,37.1923234 C47.8732187,37.1893703 47.8399687,37.1872922 47.8061719,37.1872922 L2.1875,37.1872922 L2.1875,11.4841672 L7,11.4841672 C7.60407812,11.4841672 8.09375,10.9943859 8.09375,10.3904172 C8.09375,9.78644844 7.60407812,9.29666719 7,9.29666719 L1.09375,9.29666719 C0.489671875,9.29666719 0,9.78644844 0,10.3904172 L0,44.6250109 C0,45.2289797 0.489671875,45.7187609 1.09375,45.7187609 L19.5821719,45.7187609 L19.5821719,49.4370734 L15.3139219,49.4370734 C14.7098438,49.4370734 14.2201719,49.9268547 14.2201719,50.5308234 L14.2201719,54.9062609 C14.2201719,55.5102297 14.7098438,56.0000109 15.3139219,56.0000109 L34.7881406,56.0000109 C35.3921094,56.0000109 35.8818906,55.5102297 35.8818906,54.9062609 L35.8818906,50.5308234 C35.8818906,49.9268547 35.3921094,49.4370734 34.7881406,49.4370734 L30.5197813,49.4370734 L30.5197813,45.7187609 L49,45.7187609 C49.6040781,45.7187609 50.09375,45.2289797 50.09375,44.6250109 L50.09375,34.8906359 L54.90625,34.8906359 C55.5103281,34.8906359 56,34.4008547 56,33.7968859 L56,1.09376094 C56,0.489792187 55.5103281,1.09375e-05 54.90625,1.09375e-05 Z" mask="url(#group-27-b)"/>
    <path fill="#06C" d="M7.44124138 25.3863448C7.26165517 25.2067586 7.01255172 25.1034483 6.75862069 25.1034483 6.50372414 25.1034483 6.25558621 25.2066621 6.076 25.3863448 5.89641379 25.5658345 5.79310345 25.8149379 5.79310345 26.0689655 5.79310345 26.3228966 5.89641379 26.572 6.076 26.7514897 6.25558621 26.9310759 6.50468966 27.0344828 6.75862069 27.0344828 7.01255172 27.0344828 7.26165517 26.9311724 7.44124138 26.7514897 7.62082759 26.572 7.72413793 26.3228966 7.72413793 26.0689655 7.72413793 25.8149379 7.62082759 25.5658345 7.44124138 25.3863448M6.75862069 15.4482759C6.22536552 15.4482759 5.79310345 15.9377223 5.79310345 16.5412782L5.79310345 22.0794115C5.79310345 22.6829674 6.22536552 23.1724138 6.75862069 23.1724138 7.29187586 23.1724138 7.72413793 22.6829674 7.72413793 22.0794115L7.72413793 16.5412782C7.72413793 15.9377223 7.29187586 15.4482759 6.75862069 15.4482759M7.44124138 30.213931C7.26165517 30.0343448 7.01255172 29.9310345 6.75862069 29.9310345 6.50468966 29.9310345 6.25558621 30.0342483 6.076 30.213931 5.89641379 30.3933241 5.79310345 30.6424276 5.79310345 30.8965517 5.79310345 31.1504828 5.89641379 31.3995862 6.076 31.5790759 6.25558621 31.7586621 6.50468966 31.862069 6.75862069 31.862069 7.01255172 31.862069 7.26165517 31.7587586 7.44124138 31.5790759 7.62082759 31.3995862 7.72413793 31.1504828 7.72413793 30.8965517 7.72413793 30.6424276 7.62082759 30.3933241 7.44124138 30.213931"/>
  </g>
  </symbol>
  <symbol xmlns="http://www.w3.org/2000/svg" id="risparmiare" viewBox="0 0 57 56">
  <g fill="#06c" fill-rule="evenodd">
    <path fill="#06C" d="M49.9033742 29.4736126C48.5685354 27.1568614 46.6878259 25.3030052 44.4647976 24.1127038 43.9561222 23.8402252 43.3454664 24.0787862 43.1011427 24.6453688 42.8566147 25.2119513 43.0706917 25.8918959 43.579265 26.1642607 47.4531893 28.2383534 49.9563059 32.6703992 49.9563059 37.455051 49.9563059 39.5023966 49.5032189 41.5327835 48.6460936 43.3269995 48.3811287 43.8818588 48.569966 44.5710226 49.0682186 44.8663785 49.2210869 44.9569771 49.3855021 45 49.5473627 45 49.9129796 45 50.2666408 44.7807879 50.4503689 44.3961992 51.4640412 42.2741894 52 39.8738963 52 37.455051 52 34.6141711 51.2749995 31.8542153 49.9033742 29.4736126M39.5523526 22.00015L39.454467 22C38.6513103 22 38 22.6715164 38 23.499925 38 24.3283336 38.6513103 24.99985 39.454467 24.99985L39.5386806 25 39.545662 25C40.3457643 25 40.9962019 24.3331333 40.9999835 23.5071246 41.0037652 22.6787161 40.3555092 22.0040498 39.5523526 22.00015M32.4206761 48.8357594C28.546787 46.7613209 26.0437294 42.3294935 26.0437294 37.5449454 26.0437294 35.4975955 26.4968242 33.4672043 27.3538621 31.6729846 27.6189338 31.1181241 27.4299911 30.4287312 26.9317298 30.1336024 26.433673 29.8383597 25.8146273 30.0488083 25.5496578 30.6036688 24.5358659 32.7259107 24 35.126095 24 37.5449454 24 40.3858313 24.725013 43.145679 26.096662 45.5264006 27.4315239 47.8430428 29.3121637 49.696903 31.5352303 50.8873206 31.6778826 50.963806 31.828812 51 31.977289 51 32.3578314 51 32.7230459 50.7622352 32.899011 50.3547684 33.1432366 49.7881846 32.9293603 49.1081248 32.4206761 48.8357594M35.545392 49.0003025L35.4611702 49.0000025C34.6541537 48.9985027 34.003653 49.6642855 34.0000165 50.492802 33.9962345 51.3211685 34.6446987 51.9958004 35.4479333 51.9997L35.545392 52C36.3486265 52 37 51.3282177 37 50.5001512 37 49.6719348 36.3486265 49.0003025 35.545392 49.0003025"/>
    <path fill="#06C" d="M38.0743301,53.7865834 C28.8663809,53.7865834 21.3751113,46.3394688 21.3751113,37.1857929 C21.3751113,28.032117 28.8663809,20.5850024 38.0743301,20.5850024 C47.2822793,20.5850024 54.7735488,28.032117 54.7735488,37.1857929 C54.7735488,46.3394688 47.2822793,53.7865834 38.0743301,53.7865834 Z M11.1328125,47.8101881 C9.53670117,47.8101881 8.23828125,46.5194213 8.23828125,44.9327178 C8.23828125,43.3460142 9.53670117,42.0552474 11.1328125,42.0552474 L19.792582,42.0552474 C20.3543437,44.1373186 21.2669004,46.0777296 22.4636777,47.8101881 L11.1328125,47.8101881 Z M11.1328125,34.086868 L19.4067187,34.086868 C19.237834,35.0954213 19.1485488,36.1303146 19.1485488,37.1857929 C19.1485488,38.0873265 19.2141211,38.9738087 19.3380293,39.8418087 L11.1328125,39.8418087 C9.53670117,39.8418087 8.23828125,38.5510419 8.23828125,36.9643383 C8.23828125,35.3776348 9.53670117,34.086868 11.1328125,34.086868 Z M11.1328125,26.1184885 L22.7794043,26.1184885 C21.5156074,27.8397692 20.5384805,29.7811763 19.9179375,31.8734292 L11.1328125,31.8734292 C9.53670117,31.8734292 8.23828125,30.5826625 8.23828125,28.9959589 C8.23828125,27.409366 9.53670117,26.1184885 11.1328125,26.1184885 Z M11.1328125,18.1501091 L38.4082031,18.1501091 C38.8566328,18.1501091 39.2860254,18.253698 39.6712207,18.4391842 C39.1446387,18.3952474 38.6122676,18.3715636 38.0743301,18.3715636 C32.8480313,18.3715636 28.1099063,20.4886071 24.681668,23.9050498 L11.1328125,23.9050498 C9.5368125,23.9050498 8.23828125,22.6141723 8.23828125,21.0275794 C8.23828125,19.4409866 9.5368125,18.1501091 11.1328125,18.1501091 Z M5.12109375,7.96829091 C3.52498242,7.96829091 2.2265625,6.67741344 2.2265625,5.09082055 C2.2265625,3.50422767 3.52498242,2.2133502 5.12109375,2.2133502 L32.3964844,2.2133502 C33.9925957,2.2133502 35.2910156,3.50422767 35.2910156,5.09082055 C35.2910156,6.67741344 33.9925957,7.96829091 32.3964844,7.96829091 L5.12109375,7.96829091 Z M45.5332031,10.1817296 C47.1293145,10.1817296 48.4277344,11.4726071 48.4277344,13.0592 C48.4277344,14.6457929 47.1293145,15.9366704 45.5332031,15.9366704 L38.4082031,15.9366704 L18.2578125,15.9366704 C16.6617012,15.9366704 15.3632812,14.6457929 15.3632812,13.0592 C15.3632812,11.4726071 16.6617012,10.1817296 18.2578125,10.1817296 L45.5332031,10.1817296 Z M43.1295176,19.0540775 C42.9940312,18.7331289 42.828041,18.4306625 42.6348867,18.1501091 L45.5332031,18.1501091 C48.3569297,18.1501091 50.6542969,15.866283 50.6542969,13.0592 C50.6542969,10.252117 48.3569297,7.96829091 45.5332031,7.96829091 L36.6180469,7.96829091 C37.1848184,7.14909723 37.5175781,6.15803004 37.5175781,5.09082055 C37.5175781,2.28373755 35.2202109,-8.85375494e-05 32.3964844,-8.85375494e-05 L5.12109375,-8.85375494e-05 C2.29736719,-8.85375494e-05 0,2.28373755 0,5.09082055 C0,7.89790356 2.29736719,10.1817296 5.12109375,10.1817296 L14.03625,10.1817296 C13.4694785,11.0009233 13.1367188,11.9919905 13.1367188,13.0592 C13.1367188,14.1264095 13.4693672,15.1174767 14.03625,15.9366704 L11.1328125,15.9366704 C8.30908594,15.9366704 6.01171875,18.2204964 6.01171875,21.0275794 C6.01171875,22.6397375 6.77030859,24.0783621 7.95049805,25.0117692 C6.77030859,25.9451763 6.01171875,27.3838008 6.01171875,28.9959589 C6.01171875,30.6080063 6.77030859,32.0466308 7.95049805,32.9801486 C6.77030859,33.9135557 6.01171875,35.3521802 6.01171875,36.9643383 C6.01171875,38.5763858 6.77030859,40.0150103 7.95049805,40.9485281 C6.77030859,41.8819352 6.01171875,43.3205597 6.01171875,44.9327178 C6.01171875,47.7398008 8.30908594,50.0236269 11.1328125,50.0236269 L24.252832,50.0236269 C27.709125,53.6987099 32.6261543,56.0000221 38.0743301,56.0000221 C48.5100059,56.0000221 57.0001113,47.5599589 57.0001113,37.1857929 C57.0001113,28.5513897 51.1186465,21.2581091 43.1295176,19.0540775 Z" mask="url(#risparmiare-b)"/>
    <path fill="#06C" d="M41.6668542,31.2787886 C42.1771208,31.4699793 42.7364493,31.2211103 42.9325833,30.7335575 C43.1290581,30.2361517 42.873868,29.6909205 42.3732548,29.4998405 C39.5376581,28.4380513 36.3094525,29.0980854 34.1602683,31.1926587 C33.2578471,32.072778 32.6296957,33.1150828 32.2764954,34.2149552 L30.9811246,34.2149552 C30.4417843,34.2149552 30,34.6453834 30,35.1714622 C30,35.6976518 30.4417843,36.12808 30.9811246,36.12808 L31.9134145,36.12808 C31.893767,36.4438159 31.903534,36.7689618 31.9329484,37.0848084 L30.9811246,37.0848084 C30.4413301,37.0848084 30,37.5152366 30,38.0413155 C30,38.567505 30.4413301,38.9978225 30.9811246,38.9978225 L32.3353242,38.9978225 C32.7082856,40.0210857 33.3067955,40.9870029 34.1505013,41.8001445 C35.6225858,43.2350158 37.5948292,44 39.6061404,44 C40.5383167,44 41.4703794,43.8373717 42.3732548,43.5028156 C42.883635,43.3112928 43.1286038,42.7566516 42.9325833,42.268988 C42.7364493,41.7714715 42.1673538,41.532234 41.6668542,41.7238675 C39.5474251,42.5174141 37.1431643,42.0202297 35.5438823,40.460924 C35.0925582,40.0210857 34.7392443,39.5332007 34.4742872,39.0073433 L40.2045367,39.0073433 C40.7443313,39.0073433 41.1858885,38.576583 41.1858885,38.0505041 C41.1858885,37.5247574 40.7443313,37.0939971 40.2045367,37.0939971 L33.8953113,37.0939971 C33.8660104,36.7784826 33.8562435,36.4534474 33.8757774,36.1376008 L40.8918577,36.1376008 C41.4315387,36.1376008 41.8729823,35.7071726 41.8729823,35.1810937 C41.8729823,34.6549042 41.4315387,34.2245867 40.8918577,34.2245867 L34.3666236,34.2245867 C34.6413476,33.6221201 35.0339564,33.0483266 35.5438823,32.5508101 C37.143505,30.9819836 39.5474251,30.4847992 41.6668542,31.2787886"/>
  </g>
  </symbol>
  <symbol xmlns="http://www.w3.org/2000/svg" viewBox="0 0 29.243 27.306" id="srv_back_office">
    <g fill-rule="evenodd">
      <path d="M19.054 4.04h9.016V1.203h-9.016zm-17.879 0h16.961V1.203H1.175zM28.528.258H.716a.466.466 0 0 0-.462.473v25.845a.466.466 0 0 0 .458.473h27.816a.466.466 0 0 0 .458-.473v-5.043a.459.459 0 1 0-.917 0v4.57H1.175V4.985h26.894v13.23a.459.459 0 1 0 .917 0V.731a.466.466 0 0 0-.458-.473z"
        fill="#fff"></path>
      <path d="M19.054 4.04h9.016V1.203h-9.016zm-17.879 0h16.961V1.203H1.175zM28.528.258H.716a.466.466 0 0 0-.462.473v25.845a.466.466 0 0 0 .458.473h27.816a.466.466 0 0 0 .458-.473v-5.043a.459.459 0 1 0-.917 0v4.57H1.175V4.985h26.894v13.23a.459.459 0 1 0 .917 0V.731a.466.466 0 0 0-.458-.473z"
        fill="none" stroke="#fff" stroke-width=".515"></path>
      <path d="M23.576 2.118a.5.5 0 1 0 .489.5.5.5 0 0 0-.489-.5" fill="#fff"></path>
      <path d="M23.576 2.118a.5.5 0 1 0 .489.5.5.5 0 0 0-.489-.5z" fill="none" stroke="#fff" stroke-width=".515"></path>
      <path d="M21.07 2.118a.5.5 0 1 0 .489.5.5.5 0 0 0-.489-.5" fill="#fff"></path>
      <path d="M21.07 2.118a.5.5 0 1 0 .489.5.5.5 0 0 0-.489-.5z" fill="none" stroke="#fff" stroke-width=".515"></path>
      <path d="M26.083 2.118a.5.5 0 1 0 .489.5.5.5 0 0 0-.489-.5" fill="#fff"></path>
      <path d="M26.083 2.118a.5.5 0 1 0 .489.5.5.5 0 0 0-.489-.5z" fill="none" stroke="#fff" stroke-width=".515"></path>
      <path d="M5.477 16.136h1.528V14.56H5.477zm2.445-2.049a.466.466 0 0 0-.459-.473H5.018a.466.466 0 0 0-.458.473v2.521a.466.466 0 0 0 .458.473h2.445a.466.466 0 0 0 .459-.473z" fill="#fff"></path>
      <path d="M5.477 16.136h1.528V14.56H5.477zm2.445-2.049a.466.466 0 0 0-.459-.473H5.018a.466.466 0 0 0-.458.473v2.521a.466.466 0 0 0 .458.473h2.445a.466.466 0 0 0 .459-.473z" fill="none" stroke="#fff" stroke-width=".515"></path>
      <path d="M5.477 21.262h1.528v-1.576H5.477zm1.986-2.521H5.018a.466.466 0 0 0-.458.472v2.522a.466.466 0 0 0 .458.473h2.445a.466.466 0 0 0 .459-.473v-2.522a.466.466 0 0 0-.459-.472z" fill="#fff"></path>
      <path d="M5.477 21.262h1.528v-1.576H5.477zm1.986-2.521H5.018a.466.466 0 0 0-.458.472v2.522a.466.466 0 0 0 .458.473h2.445a.466.466 0 0 0 .459-.473v-2.522a.466.466 0 0 0-.459-.472z" fill="none" stroke="#fff" stroke-width=".515"></path>
      <path d="M23.364 14.875H21.53a.473.473 0 0 0 0 .945h1.834a.473.473 0 0 0 0-.945" fill="#fff"></path>
      <path d="M23.364 14.875H21.53a.473.473 0 0 0 0 .945h1.834a.473.473 0 0 0 0-.945z" fill="none" stroke="#fff" stroke-width=".515"></path>
      <path d="M19.005 14.875H9.989a.473.473 0 0 0 0 .945h9.017a.473.473 0 0 0 0-.945" fill="#fff"></path>
      <path d="M19.005 14.875H9.989a.473.473 0 0 0 0 .945h9.017a.473.473 0 0 0 0-.945z" fill="none" stroke="#fff" stroke-width=".515"></path>
      <path d="M5.477 11.027h1.528V9.451H5.477zm2.445-2.048a.466.466 0 0 0-.459-.473H5.018a.466.466 0 0 0-.458.473V11.5a.466.466 0 0 0 .458.473h2.445a.466.466 0 0 0 .459-.473z" fill="#fff"></path>
      <path d="M5.477 11.027h1.528V9.451H5.477zm2.445-2.048a.466.466 0 0 0-.459-.473H5.018a.466.466 0 0 0-.458.473V11.5a.466.466 0 0 0 .458.473h2.445a.466.466 0 0 0 .459-.473z" fill="none" stroke="#fff" stroke-width=".515"></path>
      <path d="M23.364 9.766H21.53a.473.473 0 0 0 0 .945h1.834a.473.473 0 0 0 0-.945" fill="#fff"></path>
      <path d="M23.364 9.766H21.53a.473.473 0 0 0 0 .945h1.834a.473.473 0 0 0 0-.945z" fill="none" stroke="#fff" stroke-width=".515"></path>
      <path d="M19.005 9.766H9.989a.473.473 0 0 0 0 .945h9.017a.473.473 0 0 0 0-.945" fill="#fff"></path>
      <path d="M19.005 9.766H9.989a.473.473 0 0 0 0 .945h9.017a.473.473 0 0 0 0-.945z" fill="none" stroke="#fff" stroke-width=".515"></path>
      <path d="M23.364 20.001H21.53a.473.473 0 0 0 0 .945h1.834a.473.473 0 0 0 0-.945" fill="#fff"></path>
      <path d="M23.364 20.001H21.53a.473.473 0 0 0 0 .945h1.834a.473.473 0 0 0 0-.945z" fill="none" stroke="#fff" stroke-width=".515"></path>
      <path d="M19.005 20.001H9.989a.473.473 0 0 0 0 .945h9.017a.473.473 0 0 0 0-.945" fill="#fff"></path>
      <path d="M19.005 20.001H9.989a.473.473 0 0 0 0 .945h9.017a.473.473 0 0 0 0-.945z" fill="none" stroke="#fff" stroke-width=".515"></path>
    </g>
  </symbol>

</svg>