<svg width="0" height="0" class="hidden">
  <symbol xmlns="http://www.w3.org/2000/svg" viewBox="0 0 21.914 31.448" id="light_b">
    <path d="M10.957 1.258a9.723 9.723 0 0 0-8.432 14.525 18.7 18.7 0 0 0 2.066 2.773 15.459 15.459 0 0 1 2.717 4.028 6.932 6.932 0 0 1 .6 2.643v4.471a.49.49 0 0 0 .489.49h5.112a.49.49 0 0 0 .489-.49v-4.47c0-2.732 1.639-4.848 3.319-6.781l.418-.479c.192-.219.382-.436.568-.652A9.693 9.693 0 0 0 20.6 12.07a9.884 9.884 0 0 0 .061-1.094 9.72 9.72 0 0 0-9.7-9.717m2.552 30.19H8.4A1.749 1.749 0 0 1 6.654 29.7v-4.472a5.724 5.724 0 0 0-.508-2.161 14.28 14.28 0 0 0-2.516-3.7 19.943 19.943 0 0 1-2.2-2.962 10.964 10.964 0 1 1 20.48-5.432 11.153 11.153 0 0 1-.068 1.234 10.951 10.951 0 0 1-2.586 5.928c-.188.219-.381.439-.575.661l-.415.475c-1.586 1.826-3.01 3.655-3.01 5.954v4.471a1.749 1.749 0 0 1-1.743 1.753"
      fill="#06c" fill-rule="evenodd"></path>
    <path d="M7.658 25.934h6.972v-1.259H7.658zm2.861 2.626H7.283a.63.63 0 0 1 0-1.259h3.236a.63.63 0 0 1 0 1.259m2.181 0a.639.639 0 0 1-.64-.629.619.619 0 0 1 .616-.629h.024a.63.63 0 0 1 0 1.259" fill="#06c" fill-rule="evenodd"></path>
    <path d="M14.142 25.934a.629.629 0 0 1-.628-.629V16.09H8.4v9.214a.628.628 0 1 1-1.257 0v-9.843a.629.629 0 0 1 .628-.629h6.37a.629.629 0 0 1 .628.629v9.844a.629.629 0 0 1-.628.629" fill="#06c" fill-rule="evenodd"></path>
    <path d="M10.957 25.598a.629.629 0 0 1-.628-.629v-9.508a.628.628 0 1 1 1.257 0v9.507a.629.629 0 0 1-.628.629" fill="#06c" fill-rule="evenodd"></path>
    <path d="M14.142 16.069a.607.607 0 0 1-.544-.338l-2.641-5.316-2.641 5.317a.607.607 0 1 1-1.087-.542l3.185-6.41a.606.606 0 0 1 1.087 0l3.185 6.41a.608.608 0 0 1-.273.815.6.6 0 0 1-.27.064m-3.186-8.271a.608.608 0 0 1-.607-.608V4.361a.608.608 0 1 1 1.215 0v2.828a.608.608 0 0 1-.607.608m-3.395 1.08a.606.606 0 0 1-.43-.179L5.61 7.173a.608.608 0 1 1 .859-.86l1.523 1.526a.608.608 0 0 1-.429 1.038m6.908 0a.608.608 0 0 1-.429-1.038l1.524-1.526a.608.608 0 1 1 .859.86L14.9 8.698a.606.606 0 0 1-.429.178"
      fill="#06c" fill-rule="evenodd"></path>
  </symbol>
  <symbol xmlns="http://www.w3.org/2000/svg" viewBox="0 0 21.914 31.448" id="light_w">
    <path d="M10.957 1.258a9.723 9.723 0 0 0-8.432 14.525 18.7 18.7 0 0 0 2.066 2.773 15.459 15.459 0 0 1 2.717 4.028 6.932 6.932 0 0 1 .6 2.643v4.471a.49.49 0 0 0 .489.49h5.112a.49.49 0 0 0 .489-.49v-4.47c0-2.732 1.639-4.848 3.319-6.781l.418-.479c.192-.219.382-.436.568-.652A9.693 9.693 0 0 0 20.6 12.07a9.884 9.884 0 0 0 .061-1.094 9.72 9.72 0 0 0-9.7-9.717m2.552 30.19H8.4A1.749 1.749 0 0 1 6.654 29.7v-4.472a5.724 5.724 0 0 0-.508-2.161 14.28 14.28 0 0 0-2.516-3.7 19.943 19.943 0 0 1-2.2-2.962 10.964 10.964 0 1 1 20.48-5.432 11.153 11.153 0 0 1-.068 1.234 10.951 10.951 0 0 1-2.586 5.928c-.188.219-.381.439-.575.661l-.415.475c-1.586 1.826-3.01 3.655-3.01 5.954v4.471a1.749 1.749 0 0 1-1.743 1.753"
      fill="#fff" fill-rule="evenodd"></path>
    <path d="M7.658 25.934h6.972v-1.259H7.658zm2.861 2.626H7.283a.63.63 0 0 1 0-1.259h3.236a.63.63 0 0 1 0 1.259m2.181 0a.639.639 0 0 1-.64-.629.619.619 0 0 1 .616-.629h.024a.63.63 0 0 1 0 1.259" fill="#fff" fill-rule="evenodd"></path>
    <path d="M14.142 25.934a.629.629 0 0 1-.628-.629V16.09H8.4v9.214a.628.628 0 1 1-1.257 0v-9.843a.629.629 0 0 1 .628-.629h6.37a.629.629 0 0 1 .628.629v9.844a.629.629 0 0 1-.628.629" fill="#fff" fill-rule="evenodd"></path>
    <path d="M10.957 25.598a.629.629 0 0 1-.628-.629v-9.508a.628.628 0 1 1 1.257 0v9.507a.629.629 0 0 1-.628.629" fill="#fff" fill-rule="evenodd"></path>
    <path d="M14.142 16.069a.607.607 0 0 1-.544-.338l-2.641-5.316-2.641 5.317a.607.607 0 1 1-1.087-.542l3.185-6.41a.606.606 0 0 1 1.087 0l3.185 6.41a.608.608 0 0 1-.273.815.6.6 0 0 1-.27.064m-3.186-8.271a.608.608 0 0 1-.607-.608V4.361a.608.608 0 1 1 1.215 0v2.828a.608.608 0 0 1-.607.608m-3.395 1.08a.606.606 0 0 1-.43-.179L5.61 7.173a.608.608 0 1 1 .859-.86l1.523 1.526a.608.608 0 0 1-.429 1.038m6.908 0a.608.608 0 0 1-.429-1.038l1.524-1.526a.608.608 0 1 1 .859.86L14.9 8.698a.606.606 0 0 1-.429.178"
      fill="#fff" fill-rule="evenodd"></path>
  </symbol>
  <symbol xmlns="http://www.w3.org/2000/svg" viewBox="0 0 21.914 31.448" id="light_g">
    <path d="M10.957 1.258a9.723 9.723 0 0 0-8.432 14.525 18.7 18.7 0 0 0 2.066 2.773 15.459 15.459 0 0 1 2.717 4.028 6.932 6.932 0 0 1 .6 2.643v4.471a.49.49 0 0 0 .489.49h5.112a.49.49 0 0 0 .489-.49v-4.47c0-2.732 1.639-4.848 3.319-6.781l.418-.479c.192-.219.382-.436.568-.652A9.693 9.693 0 0 0 20.6 12.07a9.884 9.884 0 0 0 .061-1.094 9.72 9.72 0 0 0-9.7-9.717m2.552 30.19H8.4A1.749 1.749 0 0 1 6.654 29.7v-4.472a5.724 5.724 0 0 0-.508-2.161 14.28 14.28 0 0 0-2.516-3.7 19.943 19.943 0 0 1-2.2-2.962 10.964 10.964 0 1 1 20.48-5.432 11.153 11.153 0 0 1-.068 1.234 10.951 10.951 0 0 1-2.586 5.928c-.188.219-.381.439-.575.661l-.415.475c-1.586 1.826-3.01 3.655-3.01 5.954v4.471a1.749 1.749 0 0 1-1.743 1.753"
      fill="#5c6f82" fill-rule="evenodd"></path>
    <path d="M7.658 25.934h6.972v-1.259H7.658zm2.861 2.626H7.283a.63.63 0 0 1 0-1.259h3.236a.63.63 0 0 1 0 1.259m2.181 0a.639.639 0 0 1-.64-.629.619.619 0 0 1 .616-.629h.024a.63.63 0 0 1 0 1.259" fill="#5c6f82" fill-rule="evenodd"></path>
    <path d="M14.142 25.934a.629.629 0 0 1-.628-.629V16.09H8.4v9.214a.628.628 0 1 1-1.257 0v-9.843a.629.629 0 0 1 .628-.629h6.37a.629.629 0 0 1 .628.629v9.844a.629.629 0 0 1-.628.629" fill="#5c6f82" fill-rule="evenodd"></path>
    <path d="M10.957 25.598a.629.629 0 0 1-.628-.629v-9.508a.628.628 0 1 1 1.257 0v9.507a.629.629 0 0 1-.628.629" fill="#5c6f82" fill-rule="evenodd"></path>
    <path d="M14.142 16.069a.607.607 0 0 1-.544-.338l-2.641-5.316-2.641 5.317a.607.607 0 1 1-1.087-.542l3.185-6.41a.606.606 0 0 1 1.087 0l3.185 6.41a.608.608 0 0 1-.273.815.6.6 0 0 1-.27.064m-3.186-8.271a.608.608 0 0 1-.607-.608V4.361a.608.608 0 1 1 1.215 0v2.828a.608.608 0 0 1-.607.608m-3.395 1.08a.606.606 0 0 1-.43-.179L5.61 7.173a.608.608 0 1 1 .859-.86l1.523 1.526a.608.608 0 0 1-.429 1.038m6.908 0a.608.608 0 0 1-.429-1.038l1.524-1.526a.608.608 0 1 1 .859.86L14.9 8.698a.606.606 0 0 1-.429.178"
      fill="#5c6f82" fill-rule="evenodd"></path>
  </symbol>
  <symbol xmlns="http://www.w3.org/2000/svg" viewBox="0 0 35.177 31.318" id="logo_b">
    <path d="M14.177 14.89h2.138a.643.643 0 0 0 .613-.445l.661-2.034.661 2.034a.642.642 0 0 0 .613.445H21l-1.73 1.257a.643.643 0 0 0-.234.72l.664 2.034-1.728-1.257a.643.643 0 0 0-.757 0l-1.733 1.257.661-2.034a.644.644 0 0 0-.234-.72zm-.533 5.5a.644.644 0 0 0 .991.72l2.954-2.147 2.955 2.147a.644.644 0 0 0 .991-.72l-1.13-3.475 2.955-2.147a.644.644 0 0 0-.377-1.165H19.33l-1.13-3.476a.644.644 0 0 0-1.224 0l-1.129 3.474h-3.653a.644.644 0 0 0-.379 1.165l2.957 2.147zm-2.255 1.277a.6.6 0 1 0-.846.846l.046.045a.6.6 0 1 0 .831-.857z"
      fill="#06c" fill-rule="evenodd"></path>
    <path d="M7.582 15.414a9.977 9.977 0 0 0 1.45 5.187.6.6 0 1 0 1.022-.621 8.814 8.814 0 1 1 3.107 3.052.6.6 0 1 0-.6 1.033 10 10 0 1 0-4.976-8.648" fill="#06c" fill-rule="evenodd"></path>
    <path d="M30.013 19.444a15.162 15.162 0 0 0 .489-3.784v-3.107h2.92l-1.786 3.124a.648.648 0 0 0 0 .639l1.786 3.128zm-.8-3.785a14.072 14.072 0 0 1-8.161 12.72l-3.463 1.587-3.464-1.587a14.072 14.072 0 0 1-8.161-12.72V6.681l11.625-5.329 11.625 5.329zM1.755 19.444l1.786-3.128a.647.647 0 0 0 0-.639l-1.786-3.124h2.92v3.107a15.159 15.159 0 0 0 .489 3.784zm33.336.322l-2.154-3.768 2.154-3.768a.644.644 0 0 0-.558-.966H30.5v-5a.645.645 0 0 0-.376-.585L17.857.059a.64.64 0 0 0-.537 0L5.051 5.682a.646.646 0 0 0-.376.585v5H.644a.644.644 0 0 0-.558.966l2.154 3.766-2.154 3.767a.644.644 0 0 0 .558.966h4.912a15.392 15.392 0 0 0 8.035 8.817l3.731 1.71a.645.645 0 0 0 .537 0l3.727-1.71a15.39 15.39 0 0 0 8.035-8.817h4.912a.644.644 0 0 0 .558-.966z"
      fill="#06c" fill-rule="evenodd"></path>
  </symbol>
  <symbol xmlns="http://www.w3.org/2000/svg" viewBox="0 0 35.177 31.318" id="logo_w">
    <path d="M14.177 14.89h2.138a.643.643 0 0 0 .613-.445l.661-2.034.661 2.034a.642.642 0 0 0 .613.445H21l-1.73 1.257a.643.643 0 0 0-.234.72l.664 2.034-1.728-1.257a.643.643 0 0 0-.757 0l-1.733 1.257.661-2.034a.644.644 0 0 0-.234-.72zm-.533 5.5a.644.644 0 0 0 .991.72l2.954-2.147 2.955 2.147a.644.644 0 0 0 .991-.72l-1.13-3.475 2.955-2.147a.644.644 0 0 0-.377-1.165H19.33l-1.13-3.476a.644.644 0 0 0-1.224 0l-1.129 3.474h-3.653a.644.644 0 0 0-.379 1.165l2.957 2.147zm-2.255 1.277a.6.6 0 1 0-.846.846l.046.045a.6.6 0 1 0 .831-.857z"
      fill="#fff" fill-rule="evenodd"></path>
    <path d="M7.582 15.414a9.977 9.977 0 0 0 1.45 5.187.6.6 0 1 0 1.022-.621 8.814 8.814 0 1 1 3.107 3.052.6.6 0 1 0-.6 1.033 10 10 0 1 0-4.976-8.648" fill="#fff" fill-rule="evenodd"></path>
    <path d="M30.013 19.444a15.162 15.162 0 0 0 .489-3.784v-3.107h2.92l-1.786 3.124a.648.648 0 0 0 0 .639l1.786 3.128zm-.8-3.785a14.072 14.072 0 0 1-8.161 12.72l-3.463 1.587-3.464-1.587a14.072 14.072 0 0 1-8.161-12.72V6.681l11.625-5.329 11.625 5.329zM1.755 19.444l1.786-3.128a.647.647 0 0 0 0-.639l-1.786-3.124h2.92v3.107a15.159 15.159 0 0 0 .489 3.784zm33.336.322l-2.154-3.768 2.154-3.768a.644.644 0 0 0-.558-.966H30.5v-5a.645.645 0 0 0-.376-.585L17.857.059a.64.64 0 0 0-.537 0L5.051 5.682a.646.646 0 0 0-.376.585v5H.644a.644.644 0 0 0-.558.966l2.154 3.766-2.154 3.767a.644.644 0 0 0 .558.966h4.912a15.392 15.392 0 0 0 8.035 8.817l3.731 1.71a.645.645 0 0 0 .537 0l3.727-1.71a15.39 15.39 0 0 0 8.035-8.817h4.912a.644.644 0 0 0 .558-.966z"
      fill="#fff" fill-rule="evenodd"></path>
  </symbol>
  <symbol xmlns="http://www.w3.org/2000/svg" viewBox="0 0 35.177 31.318" id="logo_g">
    <path d="M14.177 14.89h2.138a.643.643 0 0 0 .613-.445l.661-2.034.661 2.034a.642.642 0 0 0 .613.445H21l-1.73 1.257a.643.643 0 0 0-.234.72l.664 2.034-1.728-1.257a.643.643 0 0 0-.757 0l-1.733 1.257.661-2.034a.644.644 0 0 0-.234-.72zm-.533 5.5a.644.644 0 0 0 .991.72l2.954-2.147 2.955 2.147a.644.644 0 0 0 .991-.72l-1.13-3.475 2.955-2.147a.644.644 0 0 0-.377-1.165H19.33l-1.13-3.476a.644.644 0 0 0-1.224 0l-1.129 3.474h-3.653a.644.644 0 0 0-.379 1.165l2.957 2.147zm-2.255 1.277a.6.6 0 1 0-.846.846l.046.045a.6.6 0 1 0 .831-.857z"
      fill="#5c6f82" fill-rule="evenodd"></path>
    <path d="M7.582 15.414a9.977 9.977 0 0 0 1.45 5.187.6.6 0 1 0 1.022-.621 8.814 8.814 0 1 1 3.107 3.052.6.6 0 1 0-.6 1.033 10 10 0 1 0-4.976-8.648" fill="#5c6f82" fill-rule="evenodd"></path>
    <path d="M30.013 19.444a15.162 15.162 0 0 0 .489-3.784v-3.107h2.92l-1.786 3.124a.648.648 0 0 0 0 .639l1.786 3.128zm-.8-3.785a14.072 14.072 0 0 1-8.161 12.72l-3.463 1.587-3.464-1.587a14.072 14.072 0 0 1-8.161-12.72V6.681l11.625-5.329 11.625 5.329zM1.755 19.444l1.786-3.128a.647.647 0 0 0 0-.639l-1.786-3.124h2.92v3.107a15.159 15.159 0 0 0 .489 3.784zm33.336.322l-2.154-3.768 2.154-3.768a.644.644 0 0 0-.558-.966H30.5v-5a.645.645 0 0 0-.376-.585L17.857.059a.64.64 0 0 0-.537 0L5.051 5.682a.646.646 0 0 0-.376.585v5H.644a.644.644 0 0 0-.558.966l2.154 3.766-2.154 3.767a.644.644 0 0 0 .558.966h4.912a15.392 15.392 0 0 0 8.035 8.817l3.731 1.71a.645.645 0 0 0 .537 0l3.727-1.71a15.39 15.39 0 0 0 8.035-8.817h4.912a.644.644 0 0 0 .558-.966z"
      fill="#5c6f82" fill-rule="evenodd"></path>
  </symbol>
  <symbol xmlns="http://www.w3.org/2000/svg" viewBox="0 0 30.88 31.717" id="people_b">
    <g fill="#06c" fill-rule="evenodd">
      <path d="M19.077 5a.627.627 0 0 1-.625-.62.607.607 0 0 1 .6-.62h.024a.621.621 0 0 1 0 1.241M5.34 16.135a2.751 2.751 0 1 0 2.717 2.75 2.737 2.737 0 0 0-2.717-2.75m0 6.743a3.992 3.992 0 0 1 0-7.984 3.992 3.992 0 0 1 0 7.984"></path>
      <path d="M.919 28.3a.616.616 0 0 1-.613-.62V25.1a4.642 4.642 0 0 1 2.679-4.21.61.61 0 0 1 .815.31.624.624 0 0 1-.3.822A3.4 3.4 0 0 0 1.532 25.1v2.586a.616.616 0 0 1-.613.62m8.842-2.042a.616.616 0 0 1-.613-.62V25.1a3.381 3.381 0 0 0-.156-1.018.622.622 0 0 1 .4-.78.611.611 0 0 1 .77.4 4.638 4.638 0 0 1 .214 1.395v.548a.616.616 0 0 1-.613.62"></path>
      <path d="M9.576 24.51a.613.613 0 0 1-.584-.432 3.4 3.4 0 0 0-1.74-2.027.624.624 0 0 1-.285-.829.609.609 0 0 1 .819-.288A4.643 4.643 0 0 1 10.16 23.7a.622.622 0 0 1-.4.78.6.6 0 0 1-.186.03m15.666-8.375a2.751 2.751 0 1 0 2.717 2.75 2.737 2.737 0 0 0-2.717-2.75m0 6.743a3.992 3.992 0 1 1 3.942-3.992 3.972 3.972 0 0 1-3.942 3.992"></path>
      <path d="M20.819 25.716a.616.616 0 0 1-.613-.62 4.643 4.643 0 0 1 2.679-4.206.61.61 0 0 1 .812.307.624.624 0 0 1-.3.822 3.4 3.4 0 0 0-1.965 3.081.616.616 0 0 1-.613.62m8.842 2.58a.616.616 0 0 1-.613-.62V25.1a3.41 3.41 0 0 0-1.9-3.045.624.624 0 0 1-.285-.829.609.609 0 0 1 .818-.289 4.659 4.659 0 0 1 2.593 4.163v2.586a.616.616 0 0 1-.613.62M15.322 14.513a3.621 3.621 0 1 0 3.575 3.62 3.6 3.6 0 0 0-3.575-3.62m0 8.482a4.862 4.862 0 1 1 4.8-4.861 4.837 4.837 0 0 1-4.8 4.861"></path>
      <path d="M9.761 31.717a.616.616 0 0 1-.613-.62v-5.153a5.68 5.68 0 0 1 3.277-5.144.609.609 0 0 1 .812.307.624.624 0 0 1-.3.822 4.434 4.434 0 0 0-2.561 4.016V31.1a.616.616 0 0 1-.613.62m11.12-.003a.616.616 0 0 1-.613-.62v-5.153a4.451 4.451 0 0 0-2.47-3.973.624.624 0 0 1-.285-.829.609.609 0 0 1 .819-.288 5.7 5.7 0 0 1 3.166 5.09V31.1a.616.616 0 0 1-.613.62M10.627 1.241A3.362 3.362 0 0 0 7.29 4.62v1.3a3.362 3.362 0 0 0 3.337 3.38h3.726a.612.612 0 0 1 .551.348l.4.838.379-.827a.612.612 0 0 1 .556-.36h3.753a3.362 3.362 0 0 0 3.339-3.379v-1.3a3.362 3.362 0 0 0-3.337-3.379zm4.7 11.309a.612.612 0 0 1-.551-.348l-.8-1.662h-3.349a4.6 4.6 0 0 1-4.563-4.62v-1.3A4.6 4.6 0 0 1 10.627 0h9.368a4.6 4.6 0 0 1 4.562 4.62v1.3a4.6 4.6 0 0 1-4.562 4.62h-3.361l-.755 1.651a.612.612 0 0 1-.55.36z"></path>
      <path d="M5.549 14.349a.609.609 0 0 1-.448-.2l-1.6-1.729A4.616 4.616 0 0 1 0 7.93v-.092a4.6 4.6 0 0 1 4.562-4.62h1.769a.621.621 0 0 1 0 1.241H4.562a3.362 3.362 0 0 0-3.336 3.379v.092a3.373 3.373 0 0 0 2.712 3.318.61.61 0 0 1 .332.186l.666.722v-.17a.617.617 0 0 1 .6-.62l2.064-.057a3.323 3.323 0 0 0 2.589-1.234.608.608 0 0 1 .863-.083.626.626 0 0 1 .082.874 4.53 4.53 0 0 1-3.522 1.684l-1.45.039v1.14a.621.621 0 0 1-.388.577.6.6 0 0 1-.225.043m19.781 0a.6.6 0 0 1-.225-.043.621.621 0 0 1-.388-.577v-1.14l-1.467-.04a4.532 4.532 0 0 1-3.814-2.118.626.626 0 0 1 .181-.859.609.609 0 0 1 .848.183 3.322 3.322 0 0 0 2.8 1.552l2.079.056a.617.617 0 0 1 .6.62v.17l.666-.722a.61.61 0 0 1 .332-.186 3.373 3.373 0 0 0 2.712-3.315v-.092a3.362 3.362 0 0 0-3.336-3.378h-2.243a.621.621 0 0 1 0-1.241h2.243a4.6 4.6 0 0 1 4.562 4.62v.091a4.616 4.616 0 0 1-3.506 4.493l-1.6 1.729a.609.609 0 0 1-.448.2M17.119 5h-6.4a.621.621 0 0 1 0-1.241h6.4a.621.621 0 0 1 0 1.241m2.043 2.265h-8.445a.621.621 0 0 1 0-1.241h8.445a.621.621 0 0 1 0 1.241"></path>
    </g>
  </symbol>
  <symbol xmlns="http://www.w3.org/2000/svg" viewBox="0 0 30.88 31.717" id="people_w">
    <g fill="#fff" fill-rule="evenodd">
      <path d="M19.077 5a.627.627 0 0 1-.625-.62.607.607 0 0 1 .6-.62h.024a.621.621 0 0 1 0 1.241M5.34 16.135a2.751 2.751 0 1 0 2.717 2.75 2.737 2.737 0 0 0-2.717-2.75m0 6.743a3.992 3.992 0 0 1 0-7.984 3.992 3.992 0 0 1 0 7.984"></path>
      <path d="M.919 28.3a.616.616 0 0 1-.613-.62V25.1a4.642 4.642 0 0 1 2.679-4.21.61.61 0 0 1 .815.31.624.624 0 0 1-.3.822A3.4 3.4 0 0 0 1.532 25.1v2.586a.616.616 0 0 1-.613.62m8.842-2.042a.616.616 0 0 1-.613-.62V25.1a3.381 3.381 0 0 0-.156-1.018.622.622 0 0 1 .4-.78.611.611 0 0 1 .77.4 4.638 4.638 0 0 1 .214 1.395v.548a.616.616 0 0 1-.613.62"></path>
      <path d="M9.576 24.51a.613.613 0 0 1-.584-.432 3.4 3.4 0 0 0-1.74-2.027.624.624 0 0 1-.285-.829.609.609 0 0 1 .819-.288A4.643 4.643 0 0 1 10.16 23.7a.622.622 0 0 1-.4.78.6.6 0 0 1-.186.03m15.666-8.375a2.751 2.751 0 1 0 2.717 2.75 2.737 2.737 0 0 0-2.717-2.75m0 6.743a3.992 3.992 0 1 1 3.942-3.992 3.972 3.972 0 0 1-3.942 3.992"></path>
      <path d="M20.819 25.716a.616.616 0 0 1-.613-.62 4.643 4.643 0 0 1 2.679-4.206.61.61 0 0 1 .812.307.624.624 0 0 1-.3.822 3.4 3.4 0 0 0-1.965 3.081.616.616 0 0 1-.613.62m8.842 2.58a.616.616 0 0 1-.613-.62V25.1a3.41 3.41 0 0 0-1.9-3.045.624.624 0 0 1-.285-.829.609.609 0 0 1 .818-.289 4.659 4.659 0 0 1 2.593 4.163v2.586a.616.616 0 0 1-.613.62M15.322 14.513a3.621 3.621 0 1 0 3.575 3.62 3.6 3.6 0 0 0-3.575-3.62m0 8.482a4.862 4.862 0 1 1 4.8-4.861 4.837 4.837 0 0 1-4.8 4.861"></path>
      <path d="M9.761 31.717a.616.616 0 0 1-.613-.62v-5.153a5.68 5.68 0 0 1 3.277-5.144.609.609 0 0 1 .812.307.624.624 0 0 1-.3.822 4.434 4.434 0 0 0-2.561 4.016V31.1a.616.616 0 0 1-.613.62m11.12-.003a.616.616 0 0 1-.613-.62v-5.153a4.451 4.451 0 0 0-2.47-3.973.624.624 0 0 1-.285-.829.609.609 0 0 1 .819-.288 5.7 5.7 0 0 1 3.166 5.09V31.1a.616.616 0 0 1-.613.62M10.627 1.241A3.362 3.362 0 0 0 7.29 4.62v1.3a3.362 3.362 0 0 0 3.337 3.38h3.726a.612.612 0 0 1 .551.348l.4.838.379-.827a.612.612 0 0 1 .556-.36h3.753a3.362 3.362 0 0 0 3.339-3.379v-1.3a3.362 3.362 0 0 0-3.337-3.379zm4.7 11.309a.612.612 0 0 1-.551-.348l-.8-1.662h-3.349a4.6 4.6 0 0 1-4.563-4.62v-1.3A4.6 4.6 0 0 1 10.627 0h9.368a4.6 4.6 0 0 1 4.562 4.62v1.3a4.6 4.6 0 0 1-4.562 4.62h-3.361l-.755 1.651a.612.612 0 0 1-.55.36z"></path>
      <path d="M5.549 14.349a.609.609 0 0 1-.448-.2l-1.6-1.729A4.616 4.616 0 0 1 0 7.93v-.092a4.6 4.6 0 0 1 4.562-4.62h1.769a.621.621 0 0 1 0 1.241H4.562a3.362 3.362 0 0 0-3.336 3.379v.092a3.373 3.373 0 0 0 2.712 3.318.61.61 0 0 1 .332.186l.666.722v-.17a.617.617 0 0 1 .6-.62l2.064-.057a3.323 3.323 0 0 0 2.589-1.234.608.608 0 0 1 .863-.083.626.626 0 0 1 .082.874 4.53 4.53 0 0 1-3.522 1.684l-1.45.039v1.14a.621.621 0 0 1-.388.577.6.6 0 0 1-.225.043m19.781 0a.6.6 0 0 1-.225-.043.621.621 0 0 1-.388-.577v-1.14l-1.467-.04a4.532 4.532 0 0 1-3.814-2.118.626.626 0 0 1 .181-.859.609.609 0 0 1 .848.183 3.322 3.322 0 0 0 2.8 1.552l2.079.056a.617.617 0 0 1 .6.62v.17l.666-.722a.61.61 0 0 1 .332-.186 3.373 3.373 0 0 0 2.712-3.315v-.092a3.362 3.362 0 0 0-3.336-3.378h-2.243a.621.621 0 0 1 0-1.241h2.243a4.6 4.6 0 0 1 4.562 4.62v.091a4.616 4.616 0 0 1-3.506 4.493l-1.6 1.729a.609.609 0 0 1-.448.2M17.119 5h-6.4a.621.621 0 0 1 0-1.241h6.4a.621.621 0 0 1 0 1.241m2.043 2.265h-8.445a.621.621 0 0 1 0-1.241h8.445a.621.621 0 0 1 0 1.241"></path>
    </g>
  </symbol>
  <symbol xmlns="http://www.w3.org/2000/svg" viewBox="0 0 30.88 31.717" id="people_g">
    <g fill="#5c6f82" fill-rule="evenodd">
      <path d="M19.077 5a.627.627 0 0 1-.625-.62.607.607 0 0 1 .6-.62h.024a.621.621 0 0 1 0 1.241M5.34 16.135a2.751 2.751 0 1 0 2.717 2.75 2.737 2.737 0 0 0-2.717-2.75m0 6.743a3.992 3.992 0 0 1 0-7.984 3.992 3.992 0 0 1 0 7.984"></path>
      <path d="M.919 28.3a.616.616 0 0 1-.613-.62V25.1a4.642 4.642 0 0 1 2.679-4.21.61.61 0 0 1 .815.31.624.624 0 0 1-.3.822A3.4 3.4 0 0 0 1.532 25.1v2.586a.616.616 0 0 1-.613.62m8.842-2.042a.616.616 0 0 1-.613-.62V25.1a3.381 3.381 0 0 0-.156-1.018.622.622 0 0 1 .4-.78.611.611 0 0 1 .77.4 4.638 4.638 0 0 1 .214 1.395v.548a.616.616 0 0 1-.613.62"></path>
      <path d="M9.576 24.51a.613.613 0 0 1-.584-.432 3.4 3.4 0 0 0-1.74-2.027.624.624 0 0 1-.285-.829.609.609 0 0 1 .819-.288A4.643 4.643 0 0 1 10.16 23.7a.622.622 0 0 1-.4.78.6.6 0 0 1-.186.03m15.666-8.375a2.751 2.751 0 1 0 2.717 2.75 2.737 2.737 0 0 0-2.717-2.75m0 6.743a3.992 3.992 0 1 1 3.942-3.992 3.972 3.972 0 0 1-3.942 3.992"></path>
      <path d="M20.819 25.716a.616.616 0 0 1-.613-.62 4.643 4.643 0 0 1 2.679-4.206.61.61 0 0 1 .812.307.624.624 0 0 1-.3.822 3.4 3.4 0 0 0-1.965 3.081.616.616 0 0 1-.613.62m8.842 2.58a.616.616 0 0 1-.613-.62V25.1a3.41 3.41 0 0 0-1.9-3.045.624.624 0 0 1-.285-.829.609.609 0 0 1 .818-.289 4.659 4.659 0 0 1 2.593 4.163v2.586a.616.616 0 0 1-.613.62M15.322 14.513a3.621 3.621 0 1 0 3.575 3.62 3.6 3.6 0 0 0-3.575-3.62m0 8.482a4.862 4.862 0 1 1 4.8-4.861 4.837 4.837 0 0 1-4.8 4.861"></path>
      <path d="M9.761 31.717a.616.616 0 0 1-.613-.62v-5.153a5.68 5.68 0 0 1 3.277-5.144.609.609 0 0 1 .812.307.624.624 0 0 1-.3.822 4.434 4.434 0 0 0-2.561 4.016V31.1a.616.616 0 0 1-.613.62m11.12-.003a.616.616 0 0 1-.613-.62v-5.153a4.451 4.451 0 0 0-2.47-3.973.624.624 0 0 1-.285-.829.609.609 0 0 1 .819-.288 5.7 5.7 0 0 1 3.166 5.09V31.1a.616.616 0 0 1-.613.62M10.627 1.241A3.362 3.362 0 0 0 7.29 4.62v1.3a3.362 3.362 0 0 0 3.337 3.38h3.726a.612.612 0 0 1 .551.348l.4.838.379-.827a.612.612 0 0 1 .556-.36h3.753a3.362 3.362 0 0 0 3.339-3.379v-1.3a3.362 3.362 0 0 0-3.337-3.379zm4.7 11.309a.612.612 0 0 1-.551-.348l-.8-1.662h-3.349a4.6 4.6 0 0 1-4.563-4.62v-1.3A4.6 4.6 0 0 1 10.627 0h9.368a4.6 4.6 0 0 1 4.562 4.62v1.3a4.6 4.6 0 0 1-4.562 4.62h-3.361l-.755 1.651a.612.612 0 0 1-.55.36z"></path>
      <path d="M5.549 14.349a.609.609 0 0 1-.448-.2l-1.6-1.729A4.616 4.616 0 0 1 0 7.93v-.092a4.6 4.6 0 0 1 4.562-4.62h1.769a.621.621 0 0 1 0 1.241H4.562a3.362 3.362 0 0 0-3.336 3.379v.092a3.373 3.373 0 0 0 2.712 3.318.61.61 0 0 1 .332.186l.666.722v-.17a.617.617 0 0 1 .6-.62l2.064-.057a3.323 3.323 0 0 0 2.589-1.234.608.608 0 0 1 .863-.083.626.626 0 0 1 .082.874 4.53 4.53 0 0 1-3.522 1.684l-1.45.039v1.14a.621.621 0 0 1-.388.577.6.6 0 0 1-.225.043m19.781 0a.6.6 0 0 1-.225-.043.621.621 0 0 1-.388-.577v-1.14l-1.467-.04a4.532 4.532 0 0 1-3.814-2.118.626.626 0 0 1 .181-.859.609.609 0 0 1 .848.183 3.322 3.322 0 0 0 2.8 1.552l2.079.056a.617.617 0 0 1 .6.62v.17l.666-.722a.61.61 0 0 1 .332-.186 3.373 3.373 0 0 0 2.712-3.315v-.092a3.362 3.362 0 0 0-3.336-3.378h-2.243a.621.621 0 0 1 0-1.241h2.243a4.6 4.6 0 0 1 4.562 4.62v.091a4.616 4.616 0 0 1-3.506 4.493l-1.6 1.729a.609.609 0 0 1-.448.2M17.119 5h-6.4a.621.621 0 0 1 0-1.241h6.4a.621.621 0 0 1 0 1.241m2.043 2.265h-8.445a.621.621 0 0 1 0-1.241h8.445a.621.621 0 0 1 0 1.241"></path>
    </g>
  </symbol>
  <symbol xmlns="http://www.w3.org/2000/svg" viewBox="0 0 17.815 31.44" id="phone_b">
    <path d="M4.786 1.251a3.458 3.458 0 0 0-3.5 3.4v22.133a3.458 3.458 0 0 0 3.5 3.4h8.243a3.458 3.458 0 0 0 3.5-3.4V4.656a3.458 3.458 0 0 0-3.5-3.4zm8.243 30.19H4.786A4.728 4.728 0 0 1 0 26.784V4.656A4.728 4.728 0 0 1 4.786 0h8.243a4.728 4.728 0 0 1 4.786 4.656v22.128a4.727 4.727 0 0 1-4.786 4.657z"
      fill="#06c" fill-rule="evenodd"></path>
    <path d="M16.838 6.318H1.109a.626.626 0 1 1 0-1.251h15.73a.626.626 0 1 1 0 1.251m-.001 19.864H1.109a.626.626 0 1 1 0-1.251h15.73a.626.626 0 1 1 0 1.251m-7.931 1.701a.347.347 0 1 0 .357.347.353.353 0 0 0-.357-.347m0 1.945a1.6 1.6 0 1 1 1.643-1.6 1.622 1.622 0 0 1-1.643 1.6m3.456-25.699a.645.645 0 0 1-.655-.626.623.623 0 0 1 .63-.626h.025a.626.626 0 1 1 0 1.251m-2.054.001H5.451a.626.626 0 1 1 0-1.251h4.859a.626.626 0 1 1 0 1.251m-5.875 7.208a.357.357 0 0 0-.357.347v2.3a.357.357 0 0 0 .357.347H6.8a.357.357 0 0 0 .358-.347v-2.3a.357.357 0 0 0-.358-.347zM6.8 15.583H4.435a1.623 1.623 0 0 1-1.643-1.6v-2.3a1.623 1.623 0 0 1 1.643-1.6H6.8a1.623 1.623 0 0 1 1.643 1.6v2.3a1.623 1.623 0 0 1-1.643 1.6zm4.215-4.246a.357.357 0 0 0-.357.347v2.3a.357.357 0 0 0 .357.347h2.365a.357.357 0 0 0 .357-.347v-2.3a.357.357 0 0 0-.357-.347zm2.365 4.246h-2.365a1.623 1.623 0 0 1-1.643-1.6v-2.3a1.623 1.623 0 0 1 1.643-1.6h2.365a1.623 1.623 0 0 1 1.643 1.6v2.3a1.623 1.623 0 0 1-1.643 1.6zm-8.945 2.215a.357.357 0 0 0-.357.347v2.3a.357.357 0 0 0 .357.348H6.8a.357.357 0 0 0 .358-.348v-2.3a.357.357 0 0 0-.358-.347zM6.8 22.043H4.435a1.623 1.623 0 0 1-1.643-1.6v-2.3a1.623 1.623 0 0 1 1.643-1.6H6.8a1.623 1.623 0 0 1 1.643 1.6v2.3a1.623 1.623 0 0 1-1.643 1.6zm4.215-4.245a.357.357 0 0 0-.357.347v2.3a.357.357 0 0 0 .357.348h2.365a.357.357 0 0 0 .357-.348v-2.3a.357.357 0 0 0-.357-.347zm2.365 4.246h-2.365a1.623 1.623 0 0 1-1.643-1.6v-2.3a1.623 1.623 0 0 1 1.643-1.6h2.365a1.623 1.623 0 0 1 1.643 1.6v2.3a1.623 1.623 0 0 1-1.643 1.6z"
      fill="#06c" fill-rule="evenodd"></path>
  </symbol>
  <symbol xmlns="http://www.w3.org/2000/svg" viewBox="0 0 17.815 31.44" id="phone_w">
    <path d="M4.786 1.251a3.458 3.458 0 0 0-3.5 3.4v22.133a3.458 3.458 0 0 0 3.5 3.4h8.243a3.458 3.458 0 0 0 3.5-3.4V4.656a3.458 3.458 0 0 0-3.5-3.4zm8.243 30.19H4.786A4.728 4.728 0 0 1 0 26.784V4.656A4.728 4.728 0 0 1 4.786 0h8.243a4.728 4.728 0 0 1 4.786 4.656v22.128a4.727 4.727 0 0 1-4.786 4.657z"
      fill="#fff" fill-rule="evenodd"></path>
    <path d="M16.838 6.318H1.109a.626.626 0 1 1 0-1.251h15.73a.626.626 0 1 1 0 1.251m-.001 19.864H1.109a.626.626 0 1 1 0-1.251h15.73a.626.626 0 1 1 0 1.251m-7.931 1.701a.347.347 0 1 0 .357.347.353.353 0 0 0-.357-.347m0 1.945a1.6 1.6 0 1 1 1.643-1.6 1.622 1.622 0 0 1-1.643 1.6m3.456-25.699a.645.645 0 0 1-.655-.626.623.623 0 0 1 .63-.626h.025a.626.626 0 1 1 0 1.251m-2.054.001H5.451a.626.626 0 1 1 0-1.251h4.859a.626.626 0 1 1 0 1.251m-5.875 7.208a.357.357 0 0 0-.357.347v2.3a.357.357 0 0 0 .357.347H6.8a.357.357 0 0 0 .358-.347v-2.3a.357.357 0 0 0-.358-.347zM6.8 15.583H4.435a1.623 1.623 0 0 1-1.643-1.6v-2.3a1.623 1.623 0 0 1 1.643-1.6H6.8a1.623 1.623 0 0 1 1.643 1.6v2.3a1.623 1.623 0 0 1-1.643 1.6zm4.215-4.246a.357.357 0 0 0-.357.347v2.3a.357.357 0 0 0 .357.347h2.365a.357.357 0 0 0 .357-.347v-2.3a.357.357 0 0 0-.357-.347zm2.365 4.246h-2.365a1.623 1.623 0 0 1-1.643-1.6v-2.3a1.623 1.623 0 0 1 1.643-1.6h2.365a1.623 1.623 0 0 1 1.643 1.6v2.3a1.623 1.623 0 0 1-1.643 1.6zm-8.945 2.215a.357.357 0 0 0-.357.347v2.3a.357.357 0 0 0 .357.348H6.8a.357.357 0 0 0 .358-.348v-2.3a.357.357 0 0 0-.358-.347zM6.8 22.043H4.435a1.623 1.623 0 0 1-1.643-1.6v-2.3a1.623 1.623 0 0 1 1.643-1.6H6.8a1.623 1.623 0 0 1 1.643 1.6v2.3a1.623 1.623 0 0 1-1.643 1.6zm4.215-4.245a.357.357 0 0 0-.357.347v2.3a.357.357 0 0 0 .357.348h2.365a.357.357 0 0 0 .357-.348v-2.3a.357.357 0 0 0-.357-.347zm2.365 4.246h-2.365a1.623 1.623 0 0 1-1.643-1.6v-2.3a1.623 1.623 0 0 1 1.643-1.6h2.365a1.623 1.623 0 0 1 1.643 1.6v2.3a1.623 1.623 0 0 1-1.643 1.6z"
      fill="#fff" fill-rule="evenodd"></path>
  </symbol>
  <symbol xmlns="http://www.w3.org/2000/svg" viewBox="0 0 17.815 31.44" id="phone_g">
    <path d="M4.786 1.251a3.458 3.458 0 0 0-3.5 3.4v22.133a3.458 3.458 0 0 0 3.5 3.4h8.243a3.458 3.458 0 0 0 3.5-3.4V4.656a3.458 3.458 0 0 0-3.5-3.4zm8.243 30.19H4.786A4.728 4.728 0 0 1 0 26.784V4.656A4.728 4.728 0 0 1 4.786 0h8.243a4.728 4.728 0 0 1 4.786 4.656v22.128a4.727 4.727 0 0 1-4.786 4.657z"
      fill="#5c6f82" fill-rule="evenodd"></path>
    <path d="M16.838 6.318H1.109a.626.626 0 1 1 0-1.251h15.73a.626.626 0 1 1 0 1.251m-.001 19.864H1.109a.626.626 0 1 1 0-1.251h15.73a.626.626 0 1 1 0 1.251m-7.931 1.701a.347.347 0 1 0 .357.347.353.353 0 0 0-.357-.347m0 1.945a1.6 1.6 0 1 1 1.643-1.6 1.622 1.622 0 0 1-1.643 1.6m3.456-25.699a.645.645 0 0 1-.655-.626.623.623 0 0 1 .63-.626h.025a.626.626 0 1 1 0 1.251m-2.054.001H5.451a.626.626 0 1 1 0-1.251h4.859a.626.626 0 1 1 0 1.251m-5.875 7.208a.357.357 0 0 0-.357.347v2.3a.357.357 0 0 0 .357.347H6.8a.357.357 0 0 0 .358-.347v-2.3a.357.357 0 0 0-.358-.347zM6.8 15.583H4.435a1.623 1.623 0 0 1-1.643-1.6v-2.3a1.623 1.623 0 0 1 1.643-1.6H6.8a1.623 1.623 0 0 1 1.643 1.6v2.3a1.623 1.623 0 0 1-1.643 1.6zm4.215-4.246a.357.357 0 0 0-.357.347v2.3a.357.357 0 0 0 .357.347h2.365a.357.357 0 0 0 .357-.347v-2.3a.357.357 0 0 0-.357-.347zm2.365 4.246h-2.365a1.623 1.623 0 0 1-1.643-1.6v-2.3a1.623 1.623 0 0 1 1.643-1.6h2.365a1.623 1.623 0 0 1 1.643 1.6v2.3a1.623 1.623 0 0 1-1.643 1.6zm-8.945 2.215a.357.357 0 0 0-.357.347v2.3a.357.357 0 0 0 .357.348H6.8a.357.357 0 0 0 .358-.348v-2.3a.357.357 0 0 0-.358-.347zM6.8 22.043H4.435a1.623 1.623 0 0 1-1.643-1.6v-2.3a1.623 1.623 0 0 1 1.643-1.6H6.8a1.623 1.623 0 0 1 1.643 1.6v2.3a1.623 1.623 0 0 1-1.643 1.6zm4.215-4.245a.357.357 0 0 0-.357.347v2.3a.357.357 0 0 0 .357.348h2.365a.357.357 0 0 0 .357-.348v-2.3a.357.357 0 0 0-.357-.347zm2.365 4.246h-2.365a1.623 1.623 0 0 1-1.643-1.6v-2.3a1.623 1.623 0 0 1 1.643-1.6h2.365a1.623 1.623 0 0 1 1.643 1.6v2.3a1.623 1.623 0 0 1-1.643 1.6z"
      fill="#5c6f82" fill-rule="evenodd"></path>
  </symbol>
</svg>