<svg width="0" height="0" class="hidden">
    <symbol xmlns="http://www.w3.org/2000/svg"  viewBox="0 0 32 31" id="github">
    <g fill="none" fill-rule="evenodd">
        <path fill="#5C6F82" d="M15.998,0 C7.164,0 0,7.11536985 0,15.8927776 C0,22.9132322 4.584,28.8690896 10.944,30.9724372 C11.744,31.1188603 12.036,30.6281451 12.036,30.2066841 C12.036,29.8286925 12.022,28.8295158 12.014,27.5037934 C7.564,28.4634581 6.624,25.372744 6.624,25.372744 C5.898,23.5365196 4.848,23.0477831 4.848,23.0477831 C3.394,22.0623954 4.956,22.0821823 4.956,22.0821823 C6.562,22.1949676 7.406,23.7205378 7.406,23.7205378 C8.834,26.1483906 11.152,25.4479343 12.064,25.0403241 C12.208,24.0133839 12.622,23.3128657 13.08,22.9152109 C9.528,22.5135367 5.792,21.1502192 5.792,15.0617896 C5.792,13.3264783 6.416,11.9077574 7.44,10.7957336 C7.274,10.3940595 6.726,8.77746959 7.596,6.59101695 C7.596,6.59101695 8.94,6.16361988 11.996,8.21947896 C13.272,7.86727211 14.64,7.69116869 16.002,7.68523262 C17.36,7.69314738 18.73,7.86727211 20.008,8.22145765 C23.062,6.16559857 24.404,6.59299564 24.404,6.59299564 C25.276,8.78142697 24.7280625,10.3960382 24.5640625,10.7977123 C25.5900625,11.9097361 26.208,13.328457 26.208,15.0637683 C26.208,21.1680274 22.4680625,22.5114962 18.904,22.9053174 C19.4780625,23.3960326 19.99,24.3655907 19.99,25.8476297 C19.99,27.9727429 19.97,29.6862886 19.97,30.2066841 C19.97,30.6321025 20.258,31.1267751 21.07,30.9704585 C27.42,28.8650704 32,22.9112535 32,15.8927776 C32,7.11536985 24.836,0 15.998,0" mask="url(#github-b)"/>
    </g>
    </symbol>
    <symbol  xmlns="http://www.w3.org/2000/svg" id="slack" viewBox="0 0 38 37">
    <g fill="none" fill-rule="evenodd">
        <g transform="translate(19 .057)">

        <path fill="#5C6F82" d="M4.39474524,18.2289341 C1.97179286,18.2289341 0.000618253968,16.2865084 0.000618253968,13.898894 L0.000618253968,4.42154458 C0.000618253968,2.03393012 1.97179286,0.0915044177 4.39474524,0.0915044177 C6.81769762,0.0915044177 8.78887222,2.03393012 8.78887222,4.42154458 L8.78887222,13.8991912 C8.78887222,16.2865084 6.81769762,18.2289341 4.39474524,18.2289341" mask="url(#slack-b)"/>
        </g>
        <path fill="#5C6F82" d="M17.7083317 8.81672851L13.9092365 8.81672851C11.4862841 8.81672851 9.51510952 6.87430281 9.51510952 4.48668835 9.51510952 2.0910498 11.4862841.148624096 13.9092365.148624096L13.9173794.148624096C16.3403317.148624096 18.3115063 2.0910498 18.3115063 4.47866426L18.3115063 8.222351C18.3115063 8.55074458 18.0412841 8.81672851 17.7083317 8.81672851M13.9091913 36.9084659C11.4862389 36.9084659 9.51506429 34.9660402 9.51506429 32.5784257L9.51506429 23.1007791C9.51506429 20.7131647 11.4862389 18.770739 13.9091913 18.770739 16.3321437 18.770739 18.3033183 20.7131647 18.3033183 23.1007791L18.3033183 32.5784257C18.3033183 34.9660402 16.3321437 36.9084659 13.9091913 36.9084659M23.3947452 36.9084659L23.3866024 36.9084659C20.96365 36.9084659 18.9924754 34.9660402 18.9924754 32.5784257L18.9924754 28.834739C18.9924754 28.5066426 19.262396 28.2403614 19.59565 28.2403614L23.3947452 28.2403614C25.8175468 28.2403614 27.7888722 30.1827871 27.7888722 32.5704016 27.7888722 34.9660402 25.8175468 36.9084659 23.3947452 36.9084659M14.011746 18.1849948L4.39412698 18.1849948C1.9711746 18.1849948 0 16.2425691 0 13.8549546 0 11.4673402 1.9711746 9.52491446 4.39412698 9.52491446L14.011746 9.52491446C16.4346984 9.52491446 18.405873 11.4673402 18.405873 13.8549546 18.4061746 16.2425691 16.4346984 18.1849948 14.011746 18.1849948M4.40226984 27.5322201C1.9711746 27.5322201 0 25.5897944 0 23.2020313L0 23.194453C0 20.8068386 1.9711746 18.8642643 4.39412698 18.8642643L8.19322222 18.8642643C8.5261746 18.8642643 8.79639683 19.1305454 8.79639683 19.4586418L8.79639683 23.2023285C8.79639683 25.5897944 6.82522222 27.5322201 4.40226984 27.5322201"/>
        <g transform="translate(18.85 18.78)">

        <path fill="#5C6F82" d="M14.060573,8.75226827 L4.44310476,8.75226827 C2.02000159,8.75226827 0.0488269841,6.80984257 0.0488269841,4.42207952 C0.0488269841,2.03461365 2.02000159,0.0921879518 4.44310476,0.0921879518 L14.060573,0.0921879518 C16.4835254,0.0921879518 18.4548508,2.03461365 18.4548508,4.42207952 C18.4548508,6.80984257 16.4835254,8.75226827 14.060573,8.75226827" mask="url(#slack-d)"/>
        </g>
        <g transform="translate(28.5 9.419)">

        <path fill="#5C6F82" d="M4.40977937,8.77446827 L0.610834921,8.77446827 C0.27788254,8.77446827 0.00766031746,8.50818715 0.00766031746,8.18009076 L0.00766031746,4.43640402 C0.00766031746,2.04878956 1.97868413,0.106363855 4.40163651,0.106363855 C6.83273175,0.106363855 8.80405714,2.04878956 8.80405714,4.43640402 L8.80405714,4.44442811 C8.80405714,6.83204257 6.83273175,8.77446827 4.40977937,8.77446827" mask="url(#slack-f)"/>
        </g>
    </g>
    </symbol>
    <symbol xmlns="http://www.w3.org/2000/svg" id="drive" viewBox="0 0 37 32">
    <g fill="none" fill-rule="evenodd">
        <g transform="translate(12)">
        <path fill="#5C6F82" d="M12.0757279,20.9805262 L23.5756264,20.9805262 C23.6844183,20.9805262 23.7848041,20.9224099 23.8392609,20.8283983 C23.8935959,20.7338983 23.8938396,20.6176657 23.8396264,20.5232878 L12.1662457,0.170625 C12.1120325,0.075880814 12.0112812,0.0173982558 11.9022457,0.0173982558 L0.402347208,0.0173982558 C0.29355533,0.0173982558 0.193169543,0.0755145349 0.13871269,0.169770349 C0.084377665,0.264148256 0.0841340102,0.380258721 0.138347208,0.474758721 L11.8116061,20.8274215 C11.8659411,20.9221657 11.9666924,20.9805262 12.0757279,20.9805262" mask="url(#drive-b)"/>
        </g>
        <path fill="#5C6F82" d="M16.9597665 12.2300051L11.2149607 2.14997702C11.1620274 2.05696708 11.0647859 2 10.9598645 2L10.9577377 2C10.8519891 2.0007257 10.7546295 2.05938606 10.7026414 2.1536055L.0382231374 21.4688314C-.0128197473 21.5612366-.0127015925 21.6740822.0383412922 21.7666083L5.61477645 31.8466364C5.66700088 31.9410977 5.76495123 32 5.87093611 32L5.87188135 32C5.97774807 32 6.07546211 31.9421863 6.12804101 31.8482087L16.9608299 12.5329828C17.0134088 12.4390053 17.0130543 12.3234988 16.9597665 12.2300051M36.7010979 22L14.949621 22C14.8420233 22 14.7427943 22.0547871 14.6895932 22.1434199L9.03891956 31.5773245C8.98643578 31.6649385 8.98703355 31.772362 9.04071285 31.8595232 9.09415305 31.9464581 9.19266474 32 9.29894738 32L31.0503048 32C31.1579025 32 31.2571315 31.9452129 31.3103326 31.8565801L36.9611258 22.4226755C37.01349 22.3350615 37.0130118 22.227638 36.9593325 22.14059 36.9058923 22.0535419 36.8075001 22 36.7010979 22"/>
    </g>
    </symbol>
    <symbol xmlns="http://www.w3.org/2000/svg" id="pivotal" viewBox="0 0 32 32">
    <g fill="none" fill-rule="evenodd">
        <path fill="#5C6F82" d="M11.2780311 7.52413318L14.6940057 13.6819066C15.2370829 13.5310055 15.8275102 13.5752698 16.366722 13.8378378L18.1621622 10.5994989 15.1607429 5.18918919 11.2432432 7.54425334 11.2780311 7.52413318zM6.05501847 15.5315546L12.8753529 15.5315546C12.92936 15.3367153 13.008442 15.1455697 13.1183851 14.9618113 13.3035526 14.6552395 13.5514069 14.4049956 13.8378378 14.2147734L12.0449926 11.2432432 6.05405405 11.2432432 6.05405405 15.5675676 6.05501847 15.5675676 6.05501847 15.5315546zM18.0149101 17.867415C17.8287551 18.1785577 17.5808701 18.4300802 17.2972973 18.621051L19.0903647 21.6216216 25.0810811 21.6216216 25.0810811 17.2972973 18.2579725 17.2972973C18.2029941 17.4929259 18.1239023 17.6848283 18.0149101 17.867415M17.2972973 14.8394908C17.6900744 15.2720917 17.9244588 15.8391223 17.970237 16.4324324L21.3724737 16.4324324 24.2162162 10.9966203 20.5347324 8.64864865 17.2972973 14.8394908zM10.599857 24.1960536L13.8378378 18.0192315C13.4461318 17.5877512 13.2127556 17.0242057 13.1651652 16.4324324L9.76153296 16.4324324 6.91891892 21.854164 10.6300586 24.2162162 10.599857 24.1960536zM19.8590321 25.3417377L16.4435468 19.1809462C15.9013602 19.3338594 15.3089175 19.2895951 14.7686639 19.027027L12.972973 22.266372 15.9728786 27.6756757 19.8918919 25.3206115 19.8590321 25.3417377z"/>
        <path fill="#5C6F82" d="M15.8335,3.5403 C22.8065,3.5403 28.4585,9.1913 28.4585,16.1653 C28.4585,23.1403 22.8065,28.7943 15.8335,28.7943 C8.8585,28.7943 3.2055,23.1403 3.2055,16.1653 C3.2055,9.1913 8.8585,3.5403 15.8325,3.5403 L15.8335,3.5403 Z M15.8335,0.3333 C7.1025,0.3333 0.0005,7.4363 0.0005,16.1653 C0.0005,24.8963 7.1025,31.9993 15.8335,31.9993 C24.5625,31.9993 31.6655,24.8963 31.6655,16.1643 C31.6655,7.4363 24.5625,0.3333 15.8335,0.3333 Z" mask="url(#pivotal-b)"/>
    </g>
    </symbol>

</svg>