<?xml version="1.0" encoding="utf-8"?>
<!-- Generator: Adobe Illustrator 27.8.0, SVG Export Plug-In . SVG Version: 6.00 Build 0)  -->
<svg version="1.1" id="Livello_1" xmlns="http://www.w3.org/2000/svg" xmlns:xlink="http://www.w3.org/1999/xlink" x="0px" y="0px"
	 viewBox="0 0 373 373" style="enable-background:new 0 0 373 373;" xml:space="preserve">
<style type="text/css">
	.st0{fill-rule:evenodd;clip-rule:evenodd;fill:#0073E6;}
</style>
<path class="st0" d="M256.21,337.1C318.1,337.1,373,282.24,373,214.58S318.1,92.06,256.21,92.06
	c-73.57,0-128.47,54.85-128.47,122.52S182.64,337.1,256.21,337.1z M225.03,257.07v-68.76h17.98v68.88h-17.98V257.07z M295.64,203.97
	h-16.43v28.26c0,2.81,0.12,4.65,0.24,5.87c0.12,1.1,0.6,2.08,1.43,2.94s2.14,1.22,3.93,1.22l10.24-0.24l0.83,14.68
	c-5.95,1.35-10.6,2.08-13.69,2.08c-8.1,0-13.58-1.84-16.43-5.63c-2.98-3.67-4.41-10.52-4.41-20.55v-63.5h17.98v19.09h16.43v15.78
	H295.64z M198,209.24c-3.1,0-5.72-1.1-7.74-3.3c-2.02-2.2-3.1-4.89-3.1-8.07s1.07-5.87,2.98-8.07c2.02-2.2,4.64-3.18,7.74-3.18
	c3.1,0,5.72,1.1,7.74,3.3c2.02,2.2,2.98,4.89,2.98,8.2c0,3.3-0.95,5.87-2.98,8.07C203.71,208.13,201.21,209.24,198,209.24z
	 M37.32,145.71c17.44,0,31.58,14.14,31.58,31.58v122.63c0,17.44-14.14,31.58-31.58,31.58S5.74,317.35,5.74,299.91V177.28
	C5.74,159.85,19.88,145.71,37.32,145.71z M37.32,111.03C16.71,111.03,0,94.21,0,73.47S16.71,35.9,37.32,35.9
	s37.32,16.82,37.32,37.57S57.93,111.03,37.32,111.03z"/>
</svg>
