<svg width="55" height="55" viewBox="0 0 55 55" fill="none" xmlns="http://www.w3.org/2000/svg">
<path d="M20.6163 20.6163H0V0H20.6163V20.6163ZM0 24.0611V30.9361H10.3111V27.5H6.875V24.0611H0ZM20.6163 55V34.375H0V55H20.6163ZM17.1861 3.43605H3.43605V17.1861H17.1861V3.43605ZM17.1861 37.8111V51.5611H3.43605V37.8111H17.1861ZM13.75 6.875V13.75H6.875V6.875H13.75ZM6.875 48.1163H13.75V41.25H6.875V48.1163ZM10.3111 27.4913H17.1861V24.0611H10.3111V27.4913ZM20.625 27.4913H17.1861V30.9274H24.0611V24.0611H20.6163L20.625 27.4913ZM30.9361 3.42736H27.5V0H24.0611V13.75H27.5V10.3111H30.9361V3.42736ZM24.0611 24.0611H27.5V20.6163H24.0611V24.0611ZM24.0611 37.8111H30.9361V30.9361H24.0611V37.8111ZM24.0611 41.25V44.6861H27.5V48.1163H30.9361V41.25H24.0611ZM24.0611 55H27.5V48.1163H24.0611V55ZM27.5 20.6163H30.9361V13.75H27.5V20.6163ZM30.9361 30.9274H37.8111V24.0611H27.5V27.5H30.9361V30.9274ZM30.9361 41.2413H34.375V37.8111H30.9361V41.2413ZM30.9361 54.9913H37.8111V48.1163H30.9361V54.9913ZM34.375 20.6163H55V0H34.375V20.6163ZM34.375 37.8024H44.6861V30.9361H37.8111V34.375H34.375V37.8024ZM34.375 44.6774H37.8111V41.25H34.375V44.6774ZM37.8111 17.1774V3.42736H51.5611V17.1774H37.8111ZM37.8111 48.1163H41.25V44.6861H37.8111V48.1163ZM41.25 13.7413H48.1163V6.875H41.25V13.7413ZM41.25 27.4913H48.1163V30.9274H54.9913V24.0611H41.2413L41.25 27.4913ZM41.25 44.6774H48.1163V41.25H41.25V44.6774ZM41.25 54.9913H44.6861V48.1163H41.25V54.9913ZM48.1163 37.8111H51.5611V41.25H55V34.375H48.1163V37.8111ZM48.1163 44.6861V55H54.9913V48.1163H51.5611V44.6861H48.1163Z" fill="white"/>
</svg>
