<?xml version="1.0" encoding="UTF-8"?>
<svg width="38px" height="24px" viewBox="0 0 38 24" version="1.1" xmlns="http://www.w3.org/2000/svg" xmlns:xlink="http://www.w3.org/1999/xlink">
    <!-- Generator: sketchtool 62 (101010) - https://sketch.com -->
    <title>00A43FFD-2014-4360-8A6C-643BBF7FAD85</title>
    <desc>Created with sketchtool.</desc>
    <g id="IO-dono" stroke="none" stroke-width="1" fill="none" fill-rule="evenodd">
        <g id="IO-Dono-02---dettaglio" transform="translate(-436.000000, -2169.000000)" fill-rule="nonzero">
            <g id="Group-9" transform="translate(191.000000, 2169.000000)">
                <g id="icons/cards/diners-copy" transform="translate(245.000000, 0.000000)">
                    <g id="icons/cards/amex">
                        <path d="M38,22.7246377 C38,23.4396135 37.4262708,24 36.7377957,24 L1.26220433,24 C0.554604932,24 0,23.4202899 0,22.7246377 L0,1.27536232 C0,0.560386473 0.57372924,0 1.26220433,0 L36.7377957,0 C37.4453951,0 38,0.579710145 38,1.27536232 L38,22.7246377 Z" id="Shape" fill="#006FCF"></path>
                        <g id="Group" transform="translate(3.990000, 6.336000)">
                            <path d="M7.79,5.0304 L7.79,4.6464 L7.619,5.0304 L6.061,5.0304 L5.871,4.6272 L5.871,5.0304 L2.926,5.0304 L2.584,4.2048 L1.995,4.2048 L1.634,5.0304 L0.114,5.0304 L0.114,2.5344 L1.216,0 L3.344,0 L3.648,0.7104 L3.648,0 L6.251,0 L6.821,1.2096 L7.372,0 L15.58,0 C15.58,0 16.017,0 16.302,0.192 L16.302,0 L18.373,0 L18.373,0.2688 C18.373,0.2688 18.753,0 19.304,0 C19.855,0 22.952,0 22.952,0 L23.275,0.7296 L23.275,0 L25.612,0 L26.03,0.7296 L26.03,0 L28.272,0 L28.272,5.0304 L25.973,5.0304 L25.441,4.1472 L25.441,5.0112 L22.591,5.0112 L22.192,4.1088 L21.641,4.1088 L21.261,5.0112 L19.532,5.0112 C19.532,5.0112 18.886,5.0112 18.411,4.6464 C18.411,4.8384 18.411,5.0112 18.411,5.0112 L14.972,5.0112 C14.972,5.0112 14.972,4.0128 14.972,3.84 C14.972,3.6672 14.839,3.6864 14.839,3.6864 L14.706,3.6864 L14.706,5.0112 L7.79,5.0112 L7.79,5.0304 Z" id="Shape" fill="#FFFFFF"></path>
                            <path d="M6.08,6.1248 L10.602,6.1248 L11.248,6.8736 L11.913,6.1248 L15.39,6.1248 C15.39,6.1248 15.713,6.1248 16.017,6.2976 L16.017,6.1248 C16.017,6.1248 18.715,6.1248 19.114,6.1248 C19.513,6.1248 19.836,6.3168 19.836,6.3168 L19.836,6.1248 L23.807,6.1248 L23.807,6.3168 C23.807,6.3168 24.092,6.1248 24.472,6.1248 C24.852,6.1248 27.056,6.1248 27.056,6.1248 L27.056,6.3168 C27.056,6.3168 27.379,6.1248 27.721,6.1248 C28.063,6.1248 29.754,6.1248 29.754,6.1248 L29.754,10.8672 C29.754,10.8672 29.488,11.1744 28.937,11.1744 L26.258,11.1744 L26.258,11.0208 C26.258,11.0208 26.011,11.1744 25.612,11.1744 C25.232,11.1744 18.487,11.1744 18.487,11.1744 C18.487,11.1744 18.487,10.0608 18.487,9.9456 C18.487,9.8304 18.43,9.8112 18.335,9.8112 L18.24,9.8112 L18.24,11.1744 L16.017,11.1744 L16.017,9.8112 C16.017,9.8112 15.77,9.9456 15.352,9.9456 C14.934,9.9456 14.554,9.9456 14.554,9.9456 L14.554,11.1744 L11.818,11.1744 L11.191,10.4064 L10.526,11.1744 L6.08,11.1744 L6.08,6.1248 Z" id="Shape" fill="#FFFFFF"></path>
                            <polygon id="Shape" fill="#006FCF" points="20.33 6.8736 23.161 6.8736 23.161 7.6416 21.185 7.6416 21.185 8.3136 23.104 8.3136 23.104 8.9856 21.185 8.9856 21.185 9.696 23.161 9.696 23.161 10.4448 20.33 10.4448"></polygon>
                            <path d="M28.633,8.2752 C29.697,8.3328 29.792,8.8704 29.792,9.4464 C29.792,10.1184 29.241,10.4832 28.671,10.4832 L26.847,10.4832 L26.847,9.7152 L28.272,9.7152 C28.519,9.7152 28.88,9.7152 28.88,9.3696 C28.88,9.216 28.823,9.1008 28.557,9.0816 C28.443,9.0624 28.025,9.0432 27.949,9.0432 C26.98,9.024 26.752,8.5248 26.752,7.9488 C26.752,7.2768 27.227,6.912 27.778,6.912 L29.602,6.912 L29.602,7.68 L28.272,7.68 C27.968,7.68 27.645,7.6416 27.645,7.9872 C27.645,8.1984 27.816,8.256 28.006,8.2752 C28.101,8.2368 28.576,8.2752 28.633,8.2752 Z" id="Shape" fill="#006FCF"></path>
                            <path d="M25.365,8.2752 C26.429,8.3328 26.524,8.8704 26.524,9.4464 C26.524,10.1184 25.973,10.4832 25.403,10.4832 L23.579,10.4832 L23.579,9.7152 L25.004,9.7152 C25.251,9.7152 25.612,9.7152 25.612,9.3696 C25.612,9.216 25.555,9.1008 25.289,9.0816 C25.175,9.0624 24.757,9.0432 24.681,9.0432 C23.712,9.024 23.503,8.5248 23.503,7.9488 C23.503,7.2768 23.959,6.912 24.529,6.912 L26.353,6.912 L26.353,7.68 L25.023,7.68 C24.719,7.68 24.396,7.6416 24.396,7.9872 C24.396,8.1984 24.567,8.256 24.757,8.2752 C24.833,8.2368 25.308,8.2752 25.365,8.2752 Z" id="Shape" fill="#006FCF"></path>
                            <path d="M15.086,6.8928 L12.046,6.8928 L11.058,8.0064 L10.089,6.8928 L6.669,6.8928 L6.669,10.464 L9.975,10.464 L11.02,9.2928 L12.046,10.4832 L13.718,10.4832 L13.718,9.2736 L14.877,9.2736 C15.333,9.2736 16.15,9.2544 16.15,8.0064 C16.131,7.0848 15.504,6.8928 15.086,6.8928 Z M9.519,9.696 L7.524,9.696 L7.524,8.9856 L9.443,8.9856 L9.443,8.3136 L7.524,8.3136 L7.524,7.6416 L9.633,7.6416 L10.469,8.6208 L9.519,9.696 Z M12.844,10.1184 L11.59,8.6208 L12.844,7.2192 L12.844,10.1184 Z M14.801,8.5056 L13.718,8.5056 L13.718,7.6416 L14.801,7.6416 C15.162,7.6416 15.276,7.872 15.276,8.0448 C15.276,8.2944 15.143,8.5056 14.801,8.5056 Z" id="Shape" fill="#006FCF"></path>
                            <path d="M19.266,8.832 C19.741,8.6016 19.874,8.2752 19.874,7.8528 C19.874,7.0848 19.266,6.8928 18.829,6.8928 L16.568,6.8928 L16.568,10.464 L17.442,10.464 L17.442,9.1968 L18.582,9.1968 C18.886,9.1968 19,9.504 19,9.8112 L19.019,10.464 L19.855,10.464 L19.817,9.7344 C19.836,9.1392 19.684,8.8704 19.266,8.832 Z M18.525,8.4672 L17.442,8.4672 L17.442,7.6608 L18.525,7.6608 C18.886,7.6608 19,7.8912 19,8.064 C19,8.2944 18.886,8.4672 18.525,8.4672 Z" id="Shape" fill="#006FCF"></path>
                            <polygon id="Rectangle-path" fill="#006FCF" points="16.929 0.7104 17.803 0.7104 17.803 4.2816 16.929 4.2816"></polygon>
                            <polygon id="Shape" fill="#006FCF" points="9.823 0.7104 12.654 0.7104 12.654 1.4784 10.697 1.4784 10.697 2.1504 12.597 2.1504 12.597 2.8416 10.697 2.8416 10.697 3.5328 12.654 3.5328 12.654 4.2816 9.823 4.2816"></polygon>
                            <path d="M15.865,2.6688 C16.34,2.4384 16.473,2.112 16.473,1.6896 C16.473,0.9216 15.865,0.7296 15.428,0.7296 L13.167,0.7296 L13.167,4.3008 L14.041,4.3008 L14.041,3.0336 L15.181,3.0336 C15.485,3.0336 15.599,3.3408 15.599,3.648 L15.618,4.3008 L16.454,4.3008 L16.416,3.5712 C16.435,2.976 16.283,2.7072 15.865,2.6688 Z M15.124,2.2848 L14.041,2.2848 L14.041,1.4784 L15.124,1.4784 C15.485,1.4784 15.599,1.7088 15.599,1.8816 C15.599,2.1312 15.485,2.2848 15.124,2.2848 Z" id="Shape" fill="#006FCF"></path>
                            <path d="M7.828,0.7104 L6.764,3.1104 L5.7,0.7104 L4.332,0.7104 L4.332,4.1472 L2.812,0.7104 L1.672,0.7104 L0.133,4.2816 L1.045,4.2816 L1.387,3.4752 L3.116,3.4752 L3.458,4.2816 L5.206,4.2816 L5.206,1.632 L6.365,4.2816 L7.163,4.2816 L8.341,1.6704 L8.341,4.2816 L9.215,4.2816 L9.215,0.7104 L7.828,0.7104 Z M1.71,2.7264 L2.223,1.4784 L2.755,2.7264 L1.71,2.7264 Z" id="Shape" fill="#006FCF"></path>
                            <path d="M26.752,0.7104 L26.752,3.1872 L25.289,0.7104 L24.016,0.7104 L24.016,4.0704 L22.534,0.7104 L21.394,0.7104 L20.197,3.4752 C20.197,3.4752 19.684,3.4752 19.646,3.456 C19.437,3.4176 19.114,3.264 19.114,2.6304 L19.114,2.3808 C19.114,1.536 19.57,1.4784 20.14,1.4784 L20.672,1.4784 L20.672,0.7104 L19.532,0.7104 C19.133,0.7104 18.278,1.0176 18.259,2.4768 C18.24,3.456 18.658,4.2816 19.627,4.2816 L20.767,4.2816 L21.109,3.4752 L22.838,3.4752 L23.18,4.2816 L24.89,4.2816 L24.89,1.6704 L26.448,4.2816 L27.626,4.2816 L27.626,0.7104 L26.752,0.7104 L26.752,0.7104 Z M21.413,2.7264 L21.926,1.4784 L22.477,2.7264 L21.413,2.7264 Z" id="Shape" fill="#006FCF"></path>
                        </g>
                    </g>
                </g>
            </g>
        </g>
    </g>
</svg>