<?xml version="1.0" encoding="UTF-8"?>
<svg width="38px" height="24px" viewBox="0 0 38 24" version="1.1" xmlns="http://www.w3.org/2000/svg" xmlns:xlink="http://www.w3.org/1999/xlink">
    <!-- Generator: sketchtool 62 (101010) - https://sketch.com -->
    <title>E6838145-AD5A-406F-9F12-7A612B09EF2E</title>
    <desc>Created with sketchtool.</desc>
    <g id="IO-dono" stroke="none" stroke-width="1" fill="none" fill-rule="evenodd">
        <g id="IO-Dono-02---dettaglio" transform="translate(-240.000000, -2169.000000)" fill-rule="nonzero">
            <g id="Group-9" transform="translate(191.000000, 2169.000000)">
                <g id="icons/cards/maestro" transform="translate(49.213651, -0.000000)">
                    <g fill="#000000" id="Shape">
                        <path d="M37.5692391,22.269116 C37.5692391,22.9673849 37.0028686,23.5146767 36.3232241,23.5146767 L1.24601496,23.5146767 C0.547491423,23.5146767 0,22.9485128 0,22.269116 L0,1.28330499 C0,0.585036099 0.566370438,0.0377442644 1.24601496,0.0377442644 L36.3232241,0.0377442644 C37.0217476,0.0377442644 37.5692391,0.603908231 37.5692391,1.28330499 L37.5692391,22.269116 L37.5692391,22.269116 Z"></path>
                    </g>
                    <g id="ms_acc" transform="translate(2.831852, 1.698492)">
                        <rect id="Rectangle-path" fill="#000000" x="0" y="0" width="31.7771574" height="20.0874975"></rect>
                        <path d="M11.5464053,18.4078778 L11.5464053,17.2755498 C11.5597644,17.0834025 11.4897484,16.8948028 11.354227,16.7578858 C11.2187056,16.6209688 11.0307906,16.5489812 10.8384423,16.560296 C10.5842994,16.543641 10.3412312,16.666577 10.2041074,16.8811223 C10.0790898,16.6729738 9.85017841,16.5498702 9.60753053,16.560296 C9.39625876,16.5496195 9.19513008,16.6515833 9.07891812,16.8282803 L9.07891812,16.6055891 L8.68623462,16.6055891 L8.68623462,18.4078778 L9.08269393,18.4078778 L9.08269393,17.4038803 C9.06490555,17.2788215 9.10425151,17.1523891 9.1898696,17.0594871 C9.2754877,16.9665851 9.39832241,16.9170394 9.52446287,16.9245282 C9.78499327,16.9245282 9.91714637,17.0943774 9.91714637,17.4001059 L9.91714637,18.4022161 L10.3136057,18.4022161 L10.3136057,17.4038803 C10.2972318,17.2791059 10.3370669,17.1534987 10.4223642,17.0609448 C10.5076615,16.9683908 10.6296334,16.9184254 10.7553746,16.9245282 C11.0234566,16.9245282 11.1518339,17.0943774 11.1518339,17.4001059 L11.1518339,18.4022161 L11.5464053,18.4078778 Z M13.75525,17.5076771 L13.75525,16.6074763 L13.3587907,16.6074763 L13.3587907,16.8263931 C13.2237047,16.6521317 13.0127976,16.5537442 12.7924203,16.5621832 C12.2710907,16.5621832 11.8484696,16.9846503 11.8484696,17.5057898 C11.8484696,18.0269294 12.2710907,18.4493965 12.7924203,18.4493965 C13.0127976,18.4578355 13.2237047,18.359448 13.3587907,18.1851866 L13.3587907,18.4041033 L13.7514742,18.4041033 L13.75525,17.5076771 Z M12.2959022,17.5076771 C12.3133644,17.2115108 12.5644452,16.9836184 12.8610248,16.9947462 C13.1576045,17.005874 13.3908893,17.2519399 13.3860928,17.5485814 C13.3812963,17.845223 13.1401781,18.0836238 12.8433936,18.0851643 C12.6914468,18.0887266 12.5450349,18.0281064 12.4401076,17.9181884 C12.3351802,17.8082704 12.2814561,17.6592353 12.2921264,17.5076771 L12.2959022,17.5076771 Z M22.1450841,16.5640704 C22.2743629,16.5637365 22.4025169,16.5880769 22.5226644,16.6357845 C22.63952,16.6815968 22.7460619,16.7502463 22.8360561,16.8377164 C22.923405,16.9231067 22.9927364,17.0251407 23.0399494,17.1377833 C23.1385843,17.3797529 23.1385843,17.650699 23.0399494,17.8926686 C22.9927817,18.0053356 22.9234445,18.1073781 22.8360561,18.1927355 C22.7475632,18.2789037 22.6430108,18.3468701 22.5283281,18.3927801 C22.2793818,18.4894787 22.0032349,18.4894787 21.7542885,18.3927801 C21.6401408,18.3469157 21.5361985,18.2789288 21.4484485,18.1927355 C21.3619342,18.1070437 21.2932752,18.0050549 21.246443,17.8926686 C21.1480086,17.6506597 21.1480086,17.3797921 21.246443,17.1377833 C21.2932752,17.0253969 21.3619342,16.9234082 21.4484485,16.8377164 C21.5361985,16.751523 21.6401408,16.6835361 21.7542885,16.6376718 C21.8769928,16.5868309 22.0084815,16.5605428 22.1413083,16.560296 L22.1450841,16.5640704 Z M22.1450841,16.9415131 C22.068196,16.9404647 21.9918549,16.9545731 21.9204239,16.9830318 C21.8531423,17.0099982 21.792103,17.0504621 21.7410732,17.1019262 C21.6890147,17.1561039 21.6485456,17.2203173 21.6221354,17.2906475 C21.5644612,17.4413307 21.5644612,17.6079932 21.6221354,17.7586764 C21.6484979,17.8290304 21.6889728,17.8932528 21.7410732,17.9473977 C21.7920688,17.9989035 21.8531172,18.0393735 21.9204239,18.0662922 C22.0642514,18.1225905 22.224029,18.1225905 22.3678565,18.0662922 C22.4383814,18.0402331 22.5026843,17.999737 22.5566466,17.9473977 C22.6088747,17.8933528 22.6493673,17.8291023 22.6755844,17.7586764 C22.7332587,17.6079932 22.7332587,17.4413307 22.6755844,17.2906475 C22.6493185,17.2202458 22.6088319,17.1560047 22.5566466,17.1019262 C22.5026843,17.049587 22.4383814,17.0090909 22.3678565,16.9830318 C22.2966386,16.9504409 22.2196008,16.932472 22.1413083,16.9301898 L22.1450841,16.9415131 Z M15.8885787,17.5076771 C15.8885787,16.9415131 15.537429,16.5640704 15.0333593,16.5640704 C14.5120298,16.5713664 14.0953254,16.999748 14.102624,17.5208875 C14.1099226,18.0420271 14.5384604,18.4585796 15.0597899,18.4512837 C15.3285638,18.4604635 15.5913178,18.3704476 15.7979594,18.1983971 L15.6091693,17.9077663 C15.4600934,18.0272794 15.2754075,18.093689 15.0843327,18.0964876 C14.8144319,18.1196909 14.5750864,17.9239341 14.5443928,17.6548797 L15.882915,17.6548797 C15.8885787,17.6095866 15.8885787,17.560519 15.8885787,17.5076771 Z M14.5462808,17.3491511 C14.560502,17.0971748 14.7734856,16.9027096 15.0258077,16.9113177 C15.1444818,16.9087885 15.2592977,16.9535025 15.3449837,17.0356178 C15.4306697,17.1177331 15.4802026,17.2305192 15.4826799,17.3491511 L14.5462808,17.3491511 Z M17.5404925,17.0660692 C17.3680835,16.9668311 17.1730574,16.9135434 16.974122,16.9113177 C16.7589013,16.9113177 16.630524,16.9905806 16.630524,17.1226856 C16.630524,17.2547905 16.7664529,17.277437 16.936364,17.3000836 L17.1251541,17.3265046 C17.5178376,17.383121 17.7557132,17.5491957 17.7557132,17.8662476 C17.7557132,18.1832994 17.453649,18.4550581 16.9344761,18.4550581 C16.6562219,18.4624571 16.3829316,18.3804338 16.1547728,18.2210437 L16.3435629,17.9153151 C16.5168163,18.0438022 16.72828,18.110276 16.9439156,18.1040364 C17.2119976,18.1040364 17.3554781,18.0247735 17.3554781,17.8851197 C17.3554781,17.7832102 17.2535314,17.7265938 17.0383107,17.6963984 L16.8495205,17.6699774 C16.4455096,17.613361 16.2265131,17.4321885 16.2265131,17.1377833 C16.2265131,16.7792128 16.5210257,16.560296 16.9816736,16.560296 C17.2394932,16.551661 17.4943772,16.61716 17.7160673,16.7490173 L17.5404925,17.0660692 Z M19.4283939,16.9641596 L18.7883953,16.9641596 L18.7883953,17.781323 C18.7883953,17.9700443 18.852584,18.0832771 19.0489257,18.0832771 C19.1714752,18.0792201 19.2909931,18.044157 19.3962996,17.9813676 L19.5095737,18.3172915 C19.3623755,18.4091191 19.1922285,18.4575279 19.0187193,18.4569505 C18.5542956,18.4569505 18.391936,18.2078332 18.391936,17.7888718 L18.391936,16.9679341 L18.0256831,16.9679341 L18.0256831,16.6093636 L18.391936,16.6093636 L18.391936,16.0620717 L18.7883953,16.0620717 L18.7883953,16.6093636 L19.4283939,16.6093636 L19.4283939,16.9641596 Z M20.7857951,16.560296 C20.8810472,16.560627 20.9755428,16.5772216 21.0652045,16.6093636 L20.9443788,16.9868062 C20.8663495,16.9557072 20.7829455,16.9403152 20.6989516,16.9415131 C20.442197,16.9415131 20.3213713,17.1075879 20.3213713,17.4057675 L20.3213713,18.4154266 L19.9286878,18.4154266 L19.9286878,16.613138 L20.3175955,16.613138 L20.3175955,16.8320547 C20.4157632,16.6634894 20.5983109,16.562111 20.7933467,16.5678449 L20.7857951,16.560296 Z M23.5005974,18.1436679 C23.5251425,18.1433673 23.5495108,18.1478546 23.5723376,18.1568784 C23.5940188,18.1657226 23.6138648,18.1785218 23.6308626,18.1946227 C23.6474514,18.2108945 23.660892,18.2300884 23.6705085,18.2512391 C23.6898333,18.2957862 23.6898333,18.3463457 23.6705085,18.3908928 C23.660892,18.4120435 23.6474514,18.4312374 23.6308626,18.4475092 C23.6138648,18.4636101 23.5940188,18.4764093 23.5723376,18.4852535 C23.5497361,18.4952228 23.5253014,18.500365 23.5005974,18.5003512 C23.427545,18.4998008 23.3613671,18.4571683 23.3306862,18.3908928 C23.3115852,18.3462995 23.3115852,18.2958324 23.3306862,18.2512391 C23.3403027,18.2300884 23.3537433,18.2108945 23.3703322,18.1946227 C23.38733,18.1785218 23.4071759,18.1657226 23.4288571,18.1568784 C23.4488382,18.1496246 23.4699013,18.1457964 23.4911579,18.1455551 L23.5005974,18.1436679 Z M23.5005974,18.4626094 C23.5194404,18.4627214 23.5380959,18.458863 23.5553465,18.4512837 C23.5715893,18.4440344 23.5863202,18.4337906 23.5987683,18.4210883 C23.6312763,18.38836 23.6455235,18.3416981 23.6368385,18.2964016 C23.6281535,18.2511051 23.5976565,18.213016 23.5553465,18.1946227 C23.5380789,18.1870967 23.5194348,18.1832407 23.5005974,18.1832987 C23.4817762,18.1833988 23.4631637,18.1872483 23.4458482,18.1946227 C23.4288863,18.2015752 23.4134824,18.2118407 23.4005386,18.2248181 C23.3515859,18.2782087 23.3515859,18.3601488 23.4005386,18.4135394 C23.4269473,18.4402692 23.4630156,18.4552355 23.5005974,18.4550581 L23.5005974,18.4626094 Z M23.5119248,18.2380286 C23.5295486,18.2371742 23.5469153,18.2425159 23.5610102,18.2531263 C23.5727345,18.2628258 23.5790607,18.2775815 23.5780013,18.2927578 C23.5785494,18.3054314 23.5737555,18.3177539 23.564786,18.3267276 C23.5538434,18.336663 23.539884,18.3426434 23.5251401,18.3437125 L23.5798892,18.4059905 L23.5364675,18.4059905 L23.4854942,18.3437125 L23.4685031,18.3437125 L23.4685031,18.4059905 L23.4326329,18.4059905 L23.4326329,18.2399158 L23.5119248,18.2380286 Z M23.470391,18.2701112 L23.470391,18.3154043 L23.5119248,18.3154043 C23.5193156,18.317607 23.5271887,18.317607 23.5345796,18.3154043 C23.5372723,18.3100626 23.5372723,18.3037611 23.5345796,18.2984194 C23.5372723,18.2930777 23.5372723,18.2867762 23.5345796,18.2814345 C23.5271887,18.2792318 23.5193156,18.2792318 23.5119248,18.2814345 L23.470391,18.2701112 Z" id="Shape" fill="#FFFFFF"></path>
                        <g id="_Group_" transform="translate(4.719754, 1.321049)">
                            <rect id="Rectangle-path" fill="#7673C0" x="8.19538024" y="1.53619156" width="5.9468896" height="10.683514"></rect>
                            <path d="M8.57296053,6.87700498 C8.57131755,4.79257825 9.52854239,2.82315373 11.168825,1.53619156 C8.3822429,-0.652966002 4.3805992,-0.334096272 1.97614158,2.26870768 C-0.428316044,4.87151162 -0.428316044,8.88438555 1.97614158,11.4871895 C4.3805992,14.0899934 8.3822429,14.4088632 11.168825,12.2197056 C9.52802039,10.9323348 8.57073708,8.96209397 8.57296053,6.87700498 L8.57296053,6.87700498 Z" id="_Path_" fill="#EB001B"></path>
                            <path d="M21.6181078,11.6243203 L21.6181078,10.9605082 L21.7732233,10.9605082 L21.7732233,10.8231678 L21.380484,10.8231678 L21.380484,10.9605082 L21.5355995,10.9605082 L21.5355995,11.6243203 L21.6181078,11.6243203 Z M22.380484,11.6243203 L22.380484,10.8231678 L22.2616722,10.8231678 L22.1230583,11.3954196 L21.9844444,10.8231678 L21.8656326,10.8231678 L21.8656326,11.6243203 L21.9514411,11.6243203 L21.9514411,11.0234559 L22.080154,11.544205 L22.1692629,11.544205 L22.2979758,11.0234559 L22.2979758,11.6300428 L22.380484,11.6243203 Z" id="Shape" fill="#00A1DF"></path>
                            <path d="M22.165851,6.87700498 C22.165851,9.47822275 20.6799633,11.8510669 18.3394062,12.9877814 C15.9988491,14.1244958 13.2144776,13.8255155 11.168825,12.2178184 C12.808392,10.9297636 13.7656889,8.96060095 13.7656889,6.87606137 C13.7656889,4.7915218 12.808392,2.82235911 11.168825,1.53430435 C13.2144776,-0.0733927456 15.9988491,-0.372373103 18.3394062,0.764341381 C20.6799633,1.90105587 22.165851,4.2739 22.165851,6.87511777 L22.165851,6.87700498 Z" id="Shape" fill="#00A1DF"></path>
                        </g>
                    </g>
                </g>
            </g>
        </g>
    </g>
</svg>