<?xml version="1.0" encoding="UTF-8"?>
<svg width="38px" height="24px" viewBox="0 0 38 24" version="1.1" xmlns="http://www.w3.org/2000/svg" xmlns:xlink="http://www.w3.org/1999/xlink">
    <!-- Generator: sketchtool 62 (101010) - https://sketch.com -->
    <title>09136968-1D08-43AD-8675-8F0CCFE5F5BD</title>
    <desc>Created with sketchtool.</desc>
    <g id="IO-dono" stroke="none" stroke-width="1" fill="none" fill-rule="evenodd">
        <g id="IO-Dono-02---dettaglio" transform="translate(-191.000000, -2169.000000)" fill-rule="nonzero">
            <g id="Group-9" transform="translate(191.000000, 2169.000000)">
                <g id="icons/cards/mastercard" transform="translate(-0.000000, -0.000000)">
                    <g>
                        <path d="M36.3987402,23.5146767 L1.30265201,23.5146767 C0.604128467,23.5146767 0.0566370438,22.9485128 0.0566370438,22.269116 L0.0566370438,1.28330499 C0.0566370438,0.585036099 0.623007482,0.0377442644 1.30265201,0.0377442644 L36.3798611,0.0377442644 C37.0783847,0.0377442644 37.6258761,0.603908231 37.6258761,1.28330499 L37.6258761,22.269116 C37.6447551,22.9673849 37.0783847,23.5146767 36.3987402,23.5146767 Z" id="Shape" fill="#000000"></path>
                        <g id="mc_acc" transform="translate(3.020642, 1.698492)">
                            <rect id="_Path_" fill="#000000" x="0" y="0" width="31.7771574" height="20.0874975"></rect>
                            <path d="M8.87313686,18.409765 L8.87313686,17.277437 C8.8893405,17.0870698 8.82205316,16.8990498 8.68873111,16.7621548 C8.55540907,16.6252598 8.3691917,16.5529813 8.17838913,16.5640704 C7.92433056,16.5478271 7.68145996,16.6706632 7.54405424,16.8848967 C7.41874327,16.6770559 7.19003009,16.5540589 6.94747737,16.5640704 C6.7325492,16.5513359 6.52651026,16.6514572 6.40376175,16.8282803 L6.40376175,16.6074763 L6.03184517,16.6074763 L6.03184517,18.4135394 L6.39809805,18.4135394 L6.39809805,17.3755721 C6.38457445,17.2487805 6.42750541,17.122458 6.51549376,17.0301403 C6.6034821,16.9378225 6.72762676,16.8888486 6.8549702,16.89622 C7.1155006,16.89622 7.26275692,17.0660692 7.26275692,17.3717977 L7.26275692,18.4116522 L7.6290098,18.4116522 L7.6290098,17.3755721 C7.6161542,17.2489331 7.65930967,17.123003 7.74714562,17.0308451 C7.83498156,16.9386873 7.95872326,16.8895082 8.08588195,16.89622 C8.35396396,16.89622 8.49744447,17.0660692 8.49744447,17.3717977 L8.49744447,18.4116522 L8.87313686,18.409765 Z M14.7558378,16.6074763 L14.0988481,16.6074763 L14.0988481,16.0601845 L13.7307073,16.0601845 L13.7307073,16.6074763 L13.353127,16.6074763 L13.353127,16.9358514 L13.7307073,16.9358514 L13.7307073,17.790759 C13.7307073,18.2097204 13.8779636,18.4588361 14.3423874,18.4588361 C14.5158825,18.4593129 14.6860017,18.410912 14.8332418,18.3191787 L14.7199677,17.9983525 C14.6146612,18.0611419 14.4951433,18.096205 14.3725938,18.100262 C14.1838037,18.100262 14.0969602,17.9794804 14.0969602,17.7983079 L14.0969602,16.932077 L14.7539499,16.932077 L14.7558378,16.6074763 Z M18.1087508,16.5621832 C17.9100978,16.5580862 17.723825,16.6583503 17.6178964,16.8263931 L17.6178964,16.6074763 L17.2591951,16.6074763 L17.2591951,18.4135394 L17.6216722,18.4135394 L17.6216722,17.3944443 C17.6216722,17.0962646 17.7651527,16.9037688 18.0219073,16.9037688 C18.1058971,16.9026204 18.1892915,16.9180107 18.2673345,16.9490619 L18.3881602,16.6074763 C18.2984796,16.5754058 18.2039964,16.5588134 18.1087508,16.5584088 L18.1087508,16.5621832 Z M13.0397354,16.7509046 C12.8174175,16.6188941 12.5618865,16.5533972 12.3034538,16.5621832 C11.8465817,16.5621832 11.5671722,16.7773255 11.5671722,17.1283472 C11.5671722,17.4227525 11.7710656,17.6001505 12.1750765,17.6567669 L12.3638667,17.6831879 C12.5790874,17.7133833 12.6961373,17.7888718 12.6961373,17.8907813 C12.6961373,18.0304351 12.5375536,18.1210214 12.2694716,18.1210214 C12.0536502,18.128615 11.8417493,18.0620038 11.6691189,17.9323 L11.4803288,18.215382 C11.7104206,18.3722248 11.983462,18.4539755 12.26192,18.4493965 C12.7829808,18.4493965 13.0718297,18.2078332 13.0718297,17.8643604 C13.0718297,17.5208875 12.8509452,17.3906698 12.4601496,17.3340534 L12.2713595,17.3076325 C12.1014484,17.2849859 11.9504162,17.2321439 11.9504162,17.1189111 C11.9504162,17.0056783 12.0938968,16.89622 12.3091175,16.89622 C12.5080293,16.8986139 12.7030137,16.9518902 12.875488,17.0509715 L13.0397354,16.7509046 Z M18.5146496,17.5057898 C18.5020764,17.7596947 18.5974839,18.007077 18.7773072,18.1868347 C18.9571304,18.3665924 19.2046029,18.4619651 19.4586004,18.4493965 C19.6943763,18.4613878 19.9260889,18.3846273 20.1080385,18.2342541 L19.9192483,17.9511722 C19.7834385,18.0545301 19.6179505,18.1114373 19.4472729,18.1134725 C19.1316678,18.0831028 18.8907894,17.8180202 18.8907894,17.5010718 C18.8907894,17.1841234 19.1316678,16.9190408 19.4472729,16.8886711 C19.6179505,16.8907064 19.7834385,16.9476135 19.9192483,17.0509715 L20.1080385,16.7678895 C19.9260889,16.6175163 19.6943763,16.5407558 19.4586004,16.5527472 C19.2046029,16.5401785 18.9571304,16.6355512 18.7773072,16.8153089 C18.5974839,16.9950666 18.5020764,17.2424489 18.5146496,17.4963538 L18.5146496,17.5057898 Z M15.9735343,16.5621832 C15.4449218,16.5621832 15.0805569,16.9396259 15.0805569,17.5057898 C15.0649411,17.7562057 15.1559227,18.0015556 15.331049,18.1812912 C15.5061754,18.3610268 15.7491333,18.4584057 15.9999649,18.4493965 C16.2693289,18.4586886 16.5327136,18.3686869 16.7400222,18.1965099 L16.5512321,17.9285256 C16.402085,18.0479116 16.2174442,18.114305 16.0263955,18.1172469 C15.7523045,18.1272883 15.5157464,17.9268191 15.480792,17.6548797 L16.8306415,17.6548797 C16.8306415,17.6058121 16.8306415,17.5567446 16.8306415,17.5039026 C16.8306415,16.9377387 16.4870435,16.560296 15.979198,16.560296 L15.9735343,16.5621832 Z M15.9735343,16.8981072 C16.0976485,16.8940335 16.2181508,16.9402246 16.3077192,17.0262074 C16.3972877,17.1121902 16.4483344,17.2306806 16.4492854,17.3548128 L15.480792,17.3548128 C15.4950275,17.0924141 15.7164585,16.8895096 15.979198,16.8981072 L15.9735343,16.8981072 Z M11.0819816,17.5076771 L11.0819816,16.6074763 L10.7195045,16.6074763 L10.7195045,16.8263931 C10.5771316,16.6508443 10.3601385,16.5528832 10.134255,16.5621832 C9.6103188,16.5621832 9.18558455,16.9867626 9.18558455,17.5105079 C9.18558455,18.0342531 9.6103188,18.4588325 10.134255,18.4588325 C10.3601385,18.4681326 10.5771316,18.3701714 10.7195045,18.1946227 L10.7195045,18.4135394 L11.0819816,18.4135394 L11.0819816,17.5076771 Z M9.61885794,17.5076771 C9.60618497,17.3498405 9.66021297,17.1939114 9.7678325,17.0777247 C9.87545202,16.961538 10.0268273,16.8957124 10.1852284,16.8962171 C10.5008335,16.9265897 10.7417119,17.1916723 10.7417119,17.5086207 C10.7417119,17.8255691 10.5008335,18.0906517 10.1852284,18.1210243 C10.0268273,18.1215289 9.87545202,18.0557034 9.7678325,17.9395166 C9.66021297,17.8233299 9.60618497,17.6674008 9.61885794,17.5095643 L9.61885794,17.5076771 Z M23.5685618,16.5640704 C23.3699088,16.5599734 23.183636,16.6602376 23.0777074,16.8282803 L23.0777074,16.6074763 L22.7190062,16.6074763 L22.7190062,18.4135394 L23.0814833,18.4135394 L23.0814833,17.3944443 C23.0814833,17.0962646 23.2249638,16.9037688 23.4817184,16.9037688 C23.5657081,16.9026204 23.6491025,16.9180107 23.7271456,16.9490619 L23.8479712,16.6093636 C23.7582906,16.577293 23.6638074,16.5607007 23.5685618,16.560296 L23.5685618,16.5640704 Z M26.4797059,18.153104 C26.504251,18.1528034 26.5286193,18.1572906 26.5514461,18.1663145 C26.5731273,18.1751587 26.5929733,18.1879579 26.6099711,18.2040587 C26.6265599,18.2203305 26.6400005,18.2395244 26.649617,18.2606751 C26.6689418,18.3052223 26.6689418,18.3557818 26.649617,18.4003289 C26.6400005,18.4214796 26.6265599,18.4406735 26.6099711,18.4569453 C26.5929733,18.4730461 26.5731273,18.4858453 26.5514461,18.4946896 C26.5288446,18.5046588 26.5044099,18.5098011 26.4797059,18.5097873 C26.4066535,18.5092368 26.3404756,18.4666044 26.3097947,18.4003289 C26.2906937,18.3557356 26.2906937,18.3052684 26.3097947,18.2606751 C26.3194112,18.2395244 26.3328518,18.2203305 26.3494407,18.2040587 C26.3664385,18.1879579 26.3862844,18.1751587 26.4079656,18.1663145 C26.4303952,18.1553429 26.4547792,18.1489284 26.4797059,18.1474423 L26.4797059,18.153104 Z M26.4797059,18.4720455 C26.4985489,18.4721574 26.5172044,18.4682991 26.534455,18.4607197 C26.5506759,18.4534316 26.5653999,18.4431925 26.5778768,18.4305243 C26.6268295,18.3771337 26.6268295,18.2951936 26.5778768,18.241803 C26.5654584,18.2290656 26.5507204,18.2188168 26.534455,18.2116076 C26.5172044,18.2040282 26.4985489,18.2001699 26.4797059,18.2002818 C26.4608794,18.2003325 26.4422568,18.2041841 26.4249567,18.2116076 C26.4079948,18.2185601 26.392591,18.2288256 26.3796471,18.241803 C26.3306944,18.2951936 26.3306944,18.3771337 26.3796471,18.4305243 C26.3926536,18.4434252 26.4080414,18.45368 26.4249567,18.4607197 C26.4425215,18.4668554 26.4611354,18.4694219 26.4797059,18.4682686 L26.4797059,18.4720455 Z M26.4910333,18.2474646 C26.5086571,18.2466103 26.5260238,18.2519519 26.5401187,18.2625623 C26.5518431,18.2722619 26.5581692,18.2870176 26.5571098,18.3021938 C26.5576579,18.3148674 26.552864,18.32719 26.5438945,18.3361637 C26.5329519,18.3460991 26.5189925,18.3520795 26.5042486,18.3531486 L26.5589977,18.4154266 L26.515576,18.4154266 L26.4646027,18.3531486 L26.4476116,18.3531486 L26.4476116,18.4154266 L26.4117414,18.4154266 L26.4117414,18.2493519 L26.4910333,18.2474646 Z M26.4494995,18.2795473 L26.4494995,18.3248404 L26.4910333,18.3248404 C26.4984242,18.3270431 26.5062972,18.3270431 26.5136881,18.3248404 C26.5163808,18.3194987 26.5163808,18.3131972 26.5136881,18.3078555 C26.5163808,18.3025138 26.5163808,18.2962123 26.5136881,18.2908705 C26.5062824,18.288772 26.498439,18.288772 26.4910333,18.2908705 L26.4494995,18.2795473 Z M22.1771785,17.5114515 L22.1771785,16.6074763 L21.8147014,16.6074763 L21.8147014,16.8263931 C21.6723284,16.6508443 21.4553354,16.5528832 21.2294519,16.5621832 C20.7055157,16.5621832 20.2807814,16.9867626 20.2807814,17.5105079 C20.2807814,18.0342531 20.7055157,18.4588325 21.2294519,18.4588325 C21.4553354,18.4681326 21.6723284,18.3701714 21.8147014,18.1946227 L21.8147014,18.4135394 L22.1771785,18.4135394 L22.1771785,17.5114515 Z M20.7140548,17.5114515 C20.7013819,17.3536149 20.7554099,17.1976858 20.8630294,17.0814991 C20.9706489,16.9653124 21.1220242,16.8994868 21.2804253,16.8999915 C21.5960304,16.9303641 21.8369088,17.1954467 21.8369088,17.5123951 C21.8369088,17.8293435 21.5960304,18.0944261 21.2804253,18.1247987 C21.1220242,18.1253034 20.9706489,18.0594778 20.8630294,17.9432911 C20.7554099,17.8271044 20.7013819,17.6711753 20.7140548,17.5133387 L20.7140548,17.5114515 Z M25.8246041,17.5114515 L25.8246041,15.879012 L25.462127,15.879012 L25.462127,16.8226187 C25.3197541,16.6470699 25.102761,16.5491088 24.8768775,16.5584088 C24.3529413,16.5584088 23.9282071,16.9829882 23.9282071,17.5067334 C23.9282071,18.0304787 24.3529413,18.4550581 24.8768775,18.4550581 C25.102761,18.4643581 25.3197541,18.366397 25.462127,18.1908482 L25.462127,18.409765 L25.8246041,18.409765 L25.8246041,17.5114515 Z M24.3614804,17.5114515 C24.3488075,17.3536149 24.4028355,17.1976858 24.510455,17.0814991 C24.6180745,16.9653124 24.7694498,16.8994868 24.9278509,16.8999915 C25.229496,16.9464116 25.4515496,17.2067979 25.4496569,17.5118789 C25.4477643,17.8169599 25.2224971,18.0745732 24.9202993,18.1172494 C24.7622534,18.117712 24.611202,18.052142 24.5036453,17.9363816 C24.3960886,17.8206211 24.3418113,17.6652009 24.3539288,17.5076771 L24.3614804,17.5114515 Z" id="_Compound_Path_" fill="#FFFFFF"></path>
                            <g id="_Group_" transform="translate(4.719754, 1.321049)">
                                <rect id="Rectangle-path" fill="#FF5F00" x="8.19538024" y="1.53619156" width="5.9468896" height="10.683514"></rect>
                                <path d="M8.57296053,6.87889219 C8.57131755,4.79446547 9.52854239,2.82504094 11.168825,1.53807878 C8.3822429,-0.651078789 4.3805992,-0.332209059 1.97614158,2.27059489 C-0.428316044,4.87339884 -0.428316044,8.88627276 1.97614158,11.4890767 C4.3805992,14.0918807 8.3822429,14.4107504 11.168825,12.2215928 C9.52802039,10.934222 8.57073708,8.96398118 8.57296053,6.87889219 Z" id="_Path_2" fill="#EB001B"></path>
                                <path d="M21.6237715,11.6262075 L21.6237715,10.9623955 L21.778887,10.9623955 L21.778887,10.825055 L21.3861477,10.825055 L21.3861477,10.9623955 L21.5412633,10.9623955 L21.5412633,11.6262075 L21.6237715,11.6262075 Z M22.3861477,11.6262075 L22.3861477,10.825055 L22.2673359,10.825055 L22.128722,11.3973068 L21.9901081,10.825055 L21.8712963,10.825055 L21.8712963,11.6262075 L21.9538045,11.6262075 L21.9538045,11.0196206 L22.0825174,11.5403697 L22.1716263,11.5403697 L22.3003392,11.0196206 L22.3003392,11.6262075 L22.3861477,11.6262075 Z" id="Shape" fill="#F79E1B"></path>
                                <path d="M22.165851,6.87889219 C22.165851,9.48010996 20.6799633,11.8529541 18.3394062,12.9896686 C15.9988491,14.1263831 13.2144776,13.8274027 11.168825,12.2197056 C12.808392,10.9316508 13.7656889,8.96248816 13.7656889,6.87794859 C13.7656889,4.79340901 12.808392,2.82424632 11.168825,1.53619156 C13.2144776,-0.0715055323 15.9988491,-0.37048589 18.3394062,0.766228595 C20.6799633,1.90294308 22.165851,4.27578721 22.165851,6.87700498 L22.165851,6.87889219 Z" id="Shape" fill="#F79E1B"></path>
                            </g>
                        </g>
                    </g>
                </g>
            </g>
        </g>
    </g>
</svg>