<?xml version="1.0" encoding="UTF-8"?>
<svg width="39px" height="24px" viewBox="0 0 39 24" version="1.1" xmlns="http://www.w3.org/2000/svg" xmlns:xlink="http://www.w3.org/1999/xlink">
    <!-- Generator: sketchtool 62 (101010) - https://sketch.com -->
    <title>064FAB9C-E3BB-4FBB-BB66-DE067B619BF7</title>
    <desc>Created with sketchtool.</desc>
    <g id="IO-dono" stroke="none" stroke-width="1" fill="none" fill-rule="evenodd">
        <g id="IO-Dono-02---dettaglio" transform="translate(-386.000000, -2169.000000)">
            <g id="Group-9" transform="translate(191.000000, 2169.000000)">
                <g id="icons/cards/postepay" transform="translate(195.710099, -0.000000)">
                    <g>
                        <polygon id="Rectangle-path" fill="#FBE200" points="2.28436077 7.34125943 36.7196834 7.34125943 36.7196834 17.4944666 2.28436077 17.4944666"></polygon>
                        <path d="M37.7202712,22.3446045 C37.7202712,23.0428734 37.1539007,23.5901653 36.4742562,23.5901653 L1.35928905,23.5901653 C0.660765511,23.5901653 0.113274088,23.0240013 0.113274088,22.3446045 L0.113274088,1.33992139 C0.113274088,0.641652495 0.679644526,0.0943606611 1.35928905,0.0943606611 L36.4742562,0.0943606611 C37.1727798,0.0943606611 37.7202712,0.660524628 37.7202712,1.33992139 L37.7202712,22.3446045 Z" id="Shape" fill="#EEDC00" fill-rule="nonzero"></path>
                        <g id="Group" transform="translate(4.153383, 9.247345)" fill="#004A99" fill-rule="nonzero">
                            <path d="M2.56754599,1.1134558 C2.73745712,1.03796727 2.92624726,1.01909514 3.11503741,1.01909514 C3.47373869,1.01909514 3.77580292,1.13232793 4.0023511,1.35879352 C4.24777829,1.58525911 4.36105237,1.90608535 4.3988104,2.30240013 C4.41768942,2.58548211 4.3988104,2.88743623 4.32329434,3.20826248 C4.24777829,3.52908872 4.1345042,3.81217071 3.98347208,4.03863629 C3.81356095,4.34059041 3.58701277,4.54818386 3.32270657,4.69916092 C3.09615839,4.83126585 2.8507312,4.90675438 2.56754599,4.94449864 L2.56754599,4.37833467 C2.66194106,4.35946254 2.75633613,4.30284614 2.8507312,4.26510188 C3.03952135,4.15186909 3.19055347,3.9820199 3.30382756,3.75555431 C3.43598066,3.52908872 3.53037573,3.30262314 3.60589179,3.03841329 C3.68140785,2.77420344 3.68140785,2.52886572 3.68140785,2.283528 C3.66252883,2.03819028 3.56813376,1.83059682 3.43598066,1.67961977 C3.28494854,1.52864271 3.09615839,1.45315418 2.86961022,1.45315418 C2.77521515,1.45315418 2.68082007,1.47202631 2.586425,1.49089844 L2.586425,1.1134558 L2.56754599,1.1134558 Z M0.094395073,6.28442003 L1.05722482,2.05706241 C1.07610383,1.88721322 1.11386186,1.73623616 1.13274088,1.56638697 C1.15161989,1.39653778 1.15161989,1.24556073 1.17049891,1.07571154 L1.83126442,1.07571154 L1.77462737,1.6418755 C1.98229653,1.43428205 2.18996569,1.26443286 2.39763485,1.1700722 C2.43539288,1.15120007 2.49202993,1.13232793 2.52978796,1.1134558 L2.52978796,1.50977058 C2.43539288,1.52864271 2.34099781,1.58525911 2.22772372,1.6418755 C2.03893358,1.77398043 1.88790146,1.94382962 1.77462737,2.1702952 C1.64247427,2.39676079 1.5480792,2.66097064 1.47256314,2.94405263 C1.39704708,3.24600674 1.39704708,3.49134446 1.39704708,3.68006578 C1.4159261,3.90653137 1.49144215,4.07638056 1.64247427,4.20848548 C1.77462737,4.34059041 1.96341752,4.39720681 2.18996569,4.39720681 C2.30323978,4.39720681 2.41651387,4.37833467 2.51090894,4.35946254 L2.51090894,4.92562651 C2.47315091,4.92562651 2.43539288,4.92562651 2.37875584,4.92562651 C2.11444964,4.92562651 1.90678047,4.86901011 1.71799033,4.77464945 C1.52920018,4.68028879 1.37816807,4.52931173 1.22713595,4.32171828 L0.774039599,6.2655479 L0.094395073,6.2655479 L0.094395073,6.28442003 Z" id="Shape"></path>
                            <path d="M20.4837308,1.67961977 C20.4082148,1.67961977 20.3326987,1.6984919 20.2383037,1.6984919 L20.2383037,1.15120007 C20.2760617,1.13232793 20.3138197,1.13232793 20.3326987,1.1134558 C20.5214889,1.01909514 20.748037,0.981350875 20.9934642,0.981350875 C21.3521655,0.981350875 21.6542297,1.09458367 21.8618989,1.30217712 C22.0695681,1.50977058 22.2017212,1.81172469 22.2206002,2.2269116 C22.2961162,2.98179689 22.1450841,3.62344939 21.7863829,4.13299696 C21.4465606,4.66141666 20.9557062,4.92562651 20.3704568,4.92562651 C20.3326987,4.92562651 20.2760617,4.90675438 20.2383037,4.90675438 L20.2383037,4.18961335 C20.3138197,4.17074122 20.4082148,4.13299696 20.4837308,4.07638056 C20.6158839,3.9820199 20.710279,3.83104284 20.8046741,3.64232152 C20.8990692,3.43472806 20.9934642,3.18939034 21.0501013,2.94405263 C21.1067383,2.69871491 21.1256173,2.49112145 21.1067383,2.30240013 C21.0878593,2.09480668 21.0312223,1.94382962 20.9179482,1.84946896 C20.8046741,1.73623616 20.653642,1.67961977 20.4837308,1.67961977 Z M20.2383037,1.71736403 C20.0117555,1.79285256 19.8229653,1.96270175 19.6719332,2.2269116 C19.445385,2.60435425 19.369869,3.01954115 19.407627,3.49134446 C19.426506,3.73668218 19.4831431,3.90653137 19.6152962,4.03863629 C19.7285703,4.17074122 19.8796024,4.22735762 20.0683925,4.22735762 C20.1250296,4.22735762 20.1816666,4.20848548 20.2383037,4.20848548 L20.2383037,4.92562651 C20.0306345,4.90675438 19.8418443,4.85013798 19.6908122,4.77464945 C19.5020221,4.68028879 19.35099,4.5104396 19.2377159,4.30284614 L18.7846195,6.30329216 L17.6329996,6.30329216 L18.5203133,2.26465587 C18.6335874,1.7551083 18.7091035,1.35879352 18.7279825,1.1134558 L19.7663283,1.1134558 L19.7474493,1.56638697 C19.9173604,1.41540992 20.0683925,1.28330499 20.2383037,1.18894433 L20.2383037,1.71736403 L20.2383037,1.71736403 Z" id="Shape"></path>
                            <path d="M24.8259042,3.05728542 C24.8070252,3.03841329 24.7692672,3.03841329 24.7503881,3.03841329 C24.7126301,3.03841329 24.6748721,3.03841329 24.618235,3.03841329 C24.4294449,3.03841329 24.2784128,3.05728542 24.1273807,3.09502968 L24.1273807,2.47224932 C24.2784128,2.45337719 24.4672029,2.45337719 24.6371141,2.45337719 C24.7126301,2.45337719 24.7881462,2.45337719 24.8259042,2.45337719 C24.8636622,2.45337719 24.9014203,2.45337719 24.9580573,2.45337719 C24.9769363,2.32127226 25.0146943,2.20803947 25.0146943,2.13255094 C25.0335734,2.05706241 25.0335734,2.00044601 25.0335734,1.94382962 C25.0146943,1.83059682 24.9769363,1.7551083 24.9014203,1.6984919 C24.8259042,1.6418755 24.7126301,1.62300337 24.580477,1.62300337 C24.4105659,1.62300337 24.2784128,1.66074763 24.2028967,1.73623616 C24.1840177,1.7551083 24.1462597,1.77398043 24.1273807,1.81172469 L24.1273807,1.03796727 C24.2595338,1.01909514 24.4294449,1.01909514 24.580477,1.01909514 C25.0713314,1.01909514 25.4300327,1.09458367 25.6943389,1.26443286 C25.9397661,1.43428205 26.0907982,1.66074763 26.1096772,1.98157388 C26.1285562,2.07593454 26.1285562,2.1702952 26.1096772,2.283528 C26.0907982,2.37788866 26.0719192,2.50999358 26.0341611,2.62322638 L25.7320969,3.90653137 C25.6943389,4.05750843 25.6754599,4.20848548 25.6565808,4.37833467 C25.6377018,4.54818386 25.6377018,4.69916092 25.6377018,4.86901011 L24.580477,4.86901011 C24.580477,4.79352158 24.580477,4.69916092 24.580477,4.60480026 C24.580477,4.5104396 24.599356,4.41607894 24.599356,4.32171828 C24.4672029,4.5104396 24.2972918,4.66141666 24.1273807,4.75577732 L24.1273807,4.17074122 C24.2406547,4.11412482 24.3539288,4.03863629 24.4672029,3.90653137 C24.6559931,3.69893791 24.7692672,3.41585593 24.8259042,3.05728542 Z M24.1273807,3.09502968 C23.9763485,3.13277395 23.8441954,3.18939034 23.7309214,3.28375101 C23.4854942,3.43472806 23.3910991,3.62344939 23.4288571,3.84991497 C23.4288571,3.9820199 23.4666152,4.07638056 23.5610102,4.15186909 C23.6365263,4.22735762 23.7309214,4.24622975 23.8630745,4.24622975 C23.9574695,4.24622975 24.0518646,4.22735762 24.1462597,4.18961335 L24.1462597,4.77464945 L24.1273807,4.79352158 C23.9385905,4.88788224 23.7498004,4.94449864 23.5043732,4.94449864 C23.1645509,4.94449864 22.9002447,4.85013798 22.6925756,4.66141666 C22.4849064,4.47269533 22.3716323,4.24622975 22.3527533,3.94427563 C22.3149953,3.47247233 22.4849064,3.11390182 22.8813657,2.84969196 C23.1834299,2.66097064 23.5987683,2.52886572 24.1462597,2.49112145 L24.1462597,3.09502968 L24.1273807,3.09502968 Z M24.1273807,1.0568394 L24.1273807,1.83059682 C24.0707436,1.90608535 24.0518646,2.00044601 24.0141066,2.11367881 L22.9191237,2.11367881 C22.9380027,1.77398043 23.1079139,1.49089844 23.3910991,1.30217712 C23.5987683,1.1700722 23.8441954,1.09458367 24.1273807,1.0568394 Z" id="Shape"></path>
                            <polygon id="Shape" points="26.3173464 6.2655479 27.2424181 4.86901011 26.5627735 1.0568394 27.7143934 1.0568394 28.0353367 3.68006578 29.5078998 1.0568394 30.6028827 1.0568394 28.2241268 5.0388593 27.5444823 6.2655479"></polygon>
                            <path d="M6.60765511,1.43428205 C6.51326004,1.43428205 6.41886496,1.45315418 6.32446989,1.47202631 L6.32446989,0.981350875 C6.43774398,0.962478743 6.56989708,0.962478743 6.68317117,0.962478743 C7.13626752,0.962478743 7.47608978,1.07571154 7.74039599,1.28330499 C8.02358121,1.50977058 8.15573431,1.81172469 8.19349234,2.20803947 C8.21237135,2.50999358 8.19349234,2.84969196 8.09909726,3.20826248 C8.02358121,3.54796086 7.8914281,3.8687871 7.72151697,4.11412482 C7.53272683,4.41607894 7.30617865,4.62367239 7.02299343,4.73690519 C6.83420329,4.83126585 6.5887761,4.88788224 6.30559088,4.92562651 L6.30559088,4.43495107 C6.41886496,4.41607894 6.53213905,4.35946254 6.60765511,4.30284614 C6.77756624,4.20848548 6.90971934,4.05750843 7.04187245,3.84991497 C7.17402555,3.60457725 7.28729964,3.3403674 7.34393668,3.05728542 C7.41945274,2.7553313 7.43833175,2.49112145 7.41945274,2.283528 C7.40057372,1.98157388 7.30617865,1.77398043 7.17402555,1.66074763 C7.06075146,1.50977058 6.87196132,1.43428205 6.60765511,1.43428205 Z M6.32446989,1.49089844 C6.23007482,1.50977058 6.11680073,1.56638697 6.02240566,1.62300337 C5.85249453,1.7551083 5.70146241,1.92495749 5.56930931,2.13255094 C5.43715621,2.34014439 5.34276113,2.58548211 5.26724507,2.90630836 C5.19172902,3.22713461 5.19172902,3.47247233 5.19172902,3.69893791 C5.21060803,3.94427563 5.3050031,4.13299696 5.43715621,4.26510188 C5.58818832,4.39720681 5.77697847,4.47269533 6.04128467,4.47269533 C6.13567975,4.47269533 6.23007482,4.4538232 6.30559088,4.4538232 L6.30559088,4.94449864 C6.2111958,4.94449864 6.09792172,4.96337077 5.98464763,4.96337077 C5.53155128,4.96337077 5.17285,4.85013798 4.9085438,4.62367239 C4.62535858,4.39720681 4.47432646,4.07638056 4.45544745,3.68006578 C4.43656843,3.3403674 4.45544745,3.01954115 4.56872153,2.64209851 C4.66311661,2.283528 4.81414872,1.98157388 5.00293887,1.6984919 C5.19172902,1.45315418 5.39939818,1.30217712 5.6825834,1.1700722 C5.87137354,1.09458367 6.0790427,1.03796727 6.30559088,1.01909514 L6.30559088,1.49089844 L6.32446989,1.49089844 Z" id="Shape"></path>
                            <path d="M8.96753194,3.64232152 C8.94865292,3.71781005 8.92977391,3.77442644 8.92977391,3.83104284 C8.91089489,3.88765924 8.91089489,3.9254035 8.92977391,3.96314777 C8.94865292,4.11412482 9.00528997,4.22735762 9.11856405,4.30284614 C9.23183814,4.37833467 9.38287026,4.41607894 9.60941843,4.41607894 C9.91148267,4.41607894 10.1191518,4.35946254 10.289063,4.24622975 C10.4589741,4.11412482 10.5344901,3.96314777 10.5156111,3.79329858 C10.5156111,3.68006578 10.4589741,3.58570512 10.364579,3.49134446 C10.2701839,3.3969838 10.0625148,3.30262314 9.76045055,3.15164608 C9.36399124,2.96292476 9.09968504,2.8119477 8.92977391,2.64209851 C8.75986278,2.50999358 8.68434672,2.32127226 8.6654677,2.13255094 C8.64658869,1.79285256 8.75986278,1.52864271 9.02416898,1.30217712 C9.3073542,1.09458367 9.68493449,0.981350875 10.1569099,0.981350875 C10.5911272,0.981350875 10.9120704,1.0568394 11.1197396,1.1700722 C11.3462878,1.30217712 11.4595619,1.47202631 11.4784409,1.73623616 C11.4784409,1.77398043 11.4784409,1.81172469 11.4784409,1.86834109 C11.4784409,1.90608535 11.4784409,1.98157388 11.4595619,2.07593454 L10.7799173,2.07593454 C10.7799173,2.03819028 10.7799173,2.00044601 10.7799173,1.96270175 C10.7799173,1.94382962 10.7799173,1.88721322 10.7799173,1.86834109 C10.7610383,1.73623616 10.7044013,1.62300337 10.5911272,1.54751484 C10.4967321,1.47202631 10.3457,1.43428205 10.1380308,1.43428205 C9.89260365,1.43428205 9.72269252,1.49089844 9.59053942,1.58525911 C9.45838632,1.67961977 9.40174927,1.83059682 9.40174927,1.98157388 C9.42062829,2.07593454 9.45838632,2.1702952 9.55278139,2.24578373 C9.62829745,2.32127226 9.85484562,2.43450506 10.1757889,2.58548211 C10.6288852,2.79307557 10.9309495,2.98179689 11.0631026,3.11390182 C11.1952557,3.24600674 11.2707717,3.43472806 11.2896507,3.64232152 C11.3085297,3.9820199 11.1763766,4.30284614 10.8365544,4.52931173 C10.5156111,4.77464945 10.0813938,4.88788224 9.55278139,4.88788224 C9.13744307,4.88788224 8.81649982,4.81239371 8.55219361,4.66141666 C8.30676643,4.5104396 8.19349234,4.30284614 8.15573431,4.01976416 C8.13685529,3.96314777 8.13685529,3.88765924 8.15573431,3.81217071 C8.17461332,3.73668218 8.17461332,3.66119365 8.19349234,3.56683299 L8.96753194,3.56683299 L8.96753194,3.64232152 Z" id="Shape"></path>
                            <path d="M13.5740115,4.88788224 C13.4418584,4.90675438 13.3097053,4.90675438 13.1964312,4.92562651 C13.0831571,4.92562651 12.969883,4.94449864 12.875488,4.94449864 C12.5923027,4.94449864 12.3846336,4.90675438 12.2524805,4.81239371 C12.1203274,4.73690519 12.0448113,4.567056 12.0259323,4.35946254 C12.0070533,4.28397401 12.0259323,4.17074122 12.0448113,4.01976416 C12.0636903,3.84991497 12.1014484,3.68006578 12.1203274,3.51021659 L12.5545447,1.60413124 L11.8560212,1.60413124 L11.9881743,1.1134558 L12.6678188,1.1134558 L12.8566089,0.245337719 L13.5928905,0.0566163966 L13.3663423,1.09458367 L14.197019,1.09458367 L14.0837449,1.58525911 L13.2530683,1.58525911 L12.8377299,3.56683299 C12.7999719,3.71781005 12.7622139,3.83104284 12.7622139,3.90653137 C12.7433349,3.9820199 12.7433349,4.03863629 12.7433349,4.09525269 C12.7433349,4.20848548 12.7810929,4.28397401 12.8566089,4.32171828 C12.932125,4.37833467 13.0453991,4.39720681 13.2153102,4.39720681 C13.2719473,4.39720681 13.3474633,4.37833467 13.4418584,4.37833467 C13.5173745,4.37833467 13.5928905,4.35946254 13.6684066,4.34059041 L13.5740115,4.88788224 Z" id="Shape"></path>
                            <path d="M15.9905254,2.54773785 L16.9344761,2.54773785 C16.9533551,2.41563292 16.9533551,2.32127226 16.9533551,2.24578373 C16.9722341,2.1702952 16.9722341,2.11367881 16.9533551,2.05706241 C16.9344761,1.84946896 16.85896,1.6984919 16.7079279,1.58525911 C16.5568958,1.47202631 16.3681057,1.39653778 16.1037995,1.39653778 C16.0660414,1.39653778 16.0094044,1.41540992 15.9716464,1.41540992 L15.9716464,0.962478743 C16.0282834,0.962478743 16.0660414,0.962478743 16.1226785,0.962478743 C16.6135329,0.962478743 16.9911131,1.0568394 17.2365403,1.24556073 C17.4819675,1.43428205 17.6329996,1.71736403 17.6518787,2.13255094 C17.6707577,2.26465587 17.6707577,2.43450506 17.6518787,2.58548211 C17.6518787,2.73645917 17.6329996,2.90630836 17.5763626,3.07615755 L15.9527673,3.07615755 L15.9527673,2.54773785 L15.9905254,2.54773785 Z M15.9905254,4.92562651 L15.9905254,4.35946254 C16.0660414,4.34059041 16.1604365,4.28397401 16.2359526,4.24622975 C16.4058637,4.13299696 16.5380168,3.96314777 16.5946538,3.75555431 L17.4253305,3.75555431 C17.3309354,4.13299696 17.1232662,4.41607894 16.802323,4.64254452 C16.5568958,4.77464945 16.2925896,4.86901011 15.9905254,4.92562651 Z M15.0088166,2.54773785 L15.9905254,2.54773785 L15.9905254,3.05728542 L14.8955425,3.05728542 C14.8577845,3.17051821 14.8389055,3.26487887 14.8200265,3.37811167 C14.8011474,3.47247233 14.8011474,3.56683299 14.8011474,3.66119365 C14.8200265,3.90653137 14.9144215,4.07638056 15.0465746,4.20848548 C15.1976068,4.34059041 15.3863969,4.39720681 15.6695821,4.39720681 C15.7828562,4.39720681 15.8961303,4.37833467 15.9905254,4.34059041 L15.9905254,4.90675438 C15.8583723,4.92562651 15.7262192,4.92562651 15.5940661,4.92562651 C15.1409697,4.92562651 14.8011474,4.81239371 14.5368412,4.60480026 C14.2914141,4.39720681 14.1403819,4.09525269 14.1026239,3.69893791 C14.0837449,3.3969838 14.1026239,3.07615755 14.197019,2.69871491 C14.272535,2.34014439 14.4235672,2.01931815 14.5745993,1.7551083 C14.7445104,1.50977058 14.9710586,1.30217712 15.2353648,1.1700722 C15.461913,1.03796727 15.7073401,0.981350875 16.0094044,0.962478743 L16.0094044,1.41540992 C15.7828562,1.43428205 15.5940661,1.52864271 15.4430339,1.6984919 C15.2164858,1.88721322 15.0843327,2.1702952 15.0088166,2.54773785 Z" id="Shape"></path>
                        </g>
                    </g>
                </g>
            </g>
        </g>
    </g>
</svg>