<?xml version="1.0" encoding="UTF-8"?>
<svg width="39px" height="24px" viewBox="0 0 39 24" version="1.1" xmlns="http://www.w3.org/2000/svg" xmlns:xlink="http://www.w3.org/1999/xlink">
    <!-- Generator: sketchtool 62 (101010) - https://sketch.com -->
    <title>01BF0B56-3CAB-42F7-A466-FBD5AE018AD7</title>
    <desc>Created with sketchtool.</desc>
    <g id="IO-dono" stroke="none" stroke-width="1" fill="none" fill-rule="evenodd">
        <g id="IO-Dono-02---dettaglio" transform="translate(-337.000000, -2169.000000)">
            <g id="Group-9" transform="translate(191.000000, 2169.000000)">
                <g id="icons/cards/visa-electron" transform="translate(146.496448, -0.000000)">
                    <g>
                        <path d="M37.5692391,22.2879881 C37.5692391,22.986257 37.0028686,23.5335489 36.3232241,23.5335489 L1.24601496,23.5335489 C0.547491423,23.5335489 0,22.9673849 0,22.2879881 L0,1.30217712 C0,0.603908231 0.566370438,0.0566163966 1.24601496,0.0566163966 L36.3232241,0.0566163966 C37.0217476,0.0566163966 37.5692391,0.622780363 37.5692391,1.30217712 L37.5692391,22.2879881 L37.5692391,22.2879881 Z" id="Shape" fill="#045EA0" fill-rule="nonzero"></path>
                        <g id="Group" transform="translate(7.362816, 5.284197)">
                            <path d="M5.28612409,8.00178406 C8.13685529,6.77509547 12.1203274,5.6805118 17.4064515,6.7939676 L17.4630885,5.45404621 C11.8937792,4.85013798 7.8914281,6.62411841 5.28612409,7.88855127 L5.28612409,8.00178406 L5.28612409,8.00178406 Z" id="Shape" fill="#FAA929"></path>
                            <polygon id="Shape" fill="#FFFFFF" points="0.151032117 8.98313493 2.83185219 8.98313493 2.83185219 9.79463662 1.17049891 9.79463662 1.15161989 10.5306498 2.81297318 10.5306498 2.81297318 11.3044072 1.15161989 11.3044072 1.15161989 12.0592925 2.79409416 12.0592925 2.79409416 12.8707942 0.151032117 12.8707942"></polygon>
                            <polygon id="Shape" fill="#FFFFFF" points="3.4926177 8.66230869 4.47432646 8.66230869 4.47432646 12.8707942 3.51149672 12.8707942"></polygon>
                            <path d="M7.83479106,12.5499679 C7.4949688,12.8330499 7.00411442,12.9651548 6.55101807,12.9651548 C5.53155128,12.9651548 5.05957591,12.2291417 5.05957591,11.5120007 C5.05957591,10.6627547 5.70146241,9.94561368 6.5887761,9.94561368 C7.66487993,9.94561368 8.00470219,10.700499 8.00470219,11.6818498 L6.04128467,11.6818498 C6.04128467,11.9083154 6.17343777,12.2668859 6.7209292,12.2668859 C7.06075146,12.2668859 7.24954161,12.1725253 7.51384781,11.983804 L7.83479106,12.5499679 L7.83479106,12.5499679 Z M7.11738851,11.0968137 C7.11738851,10.8137318 6.9852354,10.5495219 6.64541314,10.5495219 C6.34334891,10.5495219 6.09792172,10.8326039 6.04128467,11.0968137 L7.11738851,11.0968137 L7.11738851,11.0968137 Z" id="Shape" fill="#FFFFFF"></path>
                            <path d="M10.9498285,12.6820728 C10.6855223,12.851922 10.2324259,12.9651548 9.91148267,12.9651548 C9.00528997,12.9651548 8.36340347,12.4556073 8.36340347,11.5120007 C8.36340347,10.5495219 9.00528997,9.92674155 9.96811971,9.92674155 C10.307942,9.92674155 10.7044013,10.0399743 10.9309495,10.1720793 L10.6100062,10.8137318 C10.4589741,10.7571154 10.307942,10.700499 10.1569099,10.700499 C9.66605548,10.700499 9.34511223,10.9835809 9.34511223,11.4553843 C9.34511223,11.851699 9.66605548,12.1725253 10.0813938,12.1725253 C10.2701839,12.1725253 10.4589741,12.0970367 10.6100062,12.0026761 L10.9498285,12.6820728 L10.9498285,12.6820728 Z" id="Shape" fill="#FFFFFF"></path>
                            <path d="M11.3085297,10.0399743 L11.7427471,10.0399743 L11.7427471,9.0774956 L12.6866978,9.0774956 L12.6678188,10.0399743 L13.4607374,10.0399743 L13.4418584,10.7382432 L12.6489398,10.7382432 C12.6489398,11.134558 12.6300608,11.5497449 12.6300608,11.7950826 C12.6300608,12.0404204 12.6866978,12.1536531 12.913246,12.1536531 C13.0453991,12.1536531 13.1586732,12.0781646 13.2719473,12.0215482 L13.4796164,12.6820728 C13.1964312,12.851922 12.8377299,12.9651548 12.5167867,12.9651548 C11.7238681,12.9651548 11.68611,12.4744794 11.68611,11.8139548 C11.68611,11.4742564 11.7049891,11.1156859 11.7049891,10.7382432 L11.2896507,10.7382432 L11.3085297,10.0399743 L11.3085297,10.0399743 Z" id="Shape" fill="#FFFFFF"></path>
                            <path d="M13.9704708,10.0399743 L14.9521796,10.0399743 L14.9521796,10.4362891 L14.9710586,10.4362891 C15.1220907,10.1909514 15.3108808,9.96448581 15.6884611,9.96448581 C15.8017352,9.96448581 15.9150093,9.98335794 16.0094044,10.0022301 L15.8772513,10.9647088 C15.7828562,10.9458367 15.6695821,10.9080924 15.537429,10.9080924 C15.2164858,10.9080924 14.9521796,11.1911744 14.9521796,11.2477908 L14.9333006,12.8707942 L13.9515918,12.8707942 L13.9704708,10.0399743 L13.9704708,10.0399743 Z" id="Shape" fill="#FFFFFF"></path>
                            <path d="M17.7651527,9.94561368 C18.8034985,9.94561368 19.35099,10.6061383 19.35099,11.4553843 C19.35099,12.3046302 18.8034985,12.9651548 17.7651527,12.9651548 C16.7268069,12.9651548 16.1793155,12.3046302 16.1793155,11.4553843 C16.1793155,10.6061383 16.7268069,9.94561368 17.7651527,9.94561368 L17.7651527,9.94561368 Z M17.7651527,12.2291417 C18.2371281,12.2291417 18.3692812,11.8328269 18.3692812,11.4553843 C18.3692812,11.0779416 18.2371281,10.6816268 17.7651527,10.6816268 C17.2931774,10.6816268 17.1610243,11.0779416 17.1610243,11.4553843 C17.1610243,11.8139548 17.2931774,12.2291417 17.7651527,12.2291417 L17.7651527,12.2291417 Z" id="Shape" fill="#FFFFFF"></path>
                            <path d="M19.8796024,10.0399743 L20.8613111,10.0399743 L20.8613111,10.3419285 C21.0878593,10.1154629 21.4276816,9.92674155 21.7675038,9.92674155 C22.3716323,9.92674155 22.6925756,10.2664399 22.6925756,11.0401973 C22.6925756,11.6252334 22.6925756,12.2480138 22.6736965,12.8707942 L21.6919878,12.8707942 C21.6919878,12.3235023 21.7108668,11.7762105 21.7108668,11.1911744 C21.7108668,10.9647088 21.6542297,10.7759875 21.3521655,10.7759875 C21.2011334,10.7759875 20.9745852,10.9080924 20.8424321,11.0401973 L20.8424321,12.8707942 L19.8418443,12.8707942 L19.8796024,10.0399743 L19.8796024,10.0399743 Z" id="Shape" fill="#FFFFFF"></path>
                            <polygon id="Shape" fill="#FFFFFF" points="8.17461332 4.22735762 9.40174927 0.150977058 10.4967321 0.150977058 9.26959617 4.22735762"></polygon>
                            <path d="M7.68375894,0.150977058 L6.70205018,1.86834109 C6.45662299,2.32127226 6.30559088,2.54773785 6.23007482,2.83081983 L6.2111958,2.83081983 C6.23007482,2.47224932 6.17343777,2.01931815 6.17343777,1.77398043 L6.06016369,0.150977058 L4.21002026,0.150977058 L4.19114124,0.264209851 C4.66311661,0.264209851 4.94630183,0.50954757 5.02181788,1.00022301 L5.38051916,4.22735762 L6.51326004,4.22735762 L8.81649982,0.16984919 L7.68375894,0.16984919 L7.68375894,0.150977058 Z" id="Shape" fill="#FFFFFF"></path>
                            <path d="M16.2359526,4.22735762 L16.1981945,3.62344939 L14.8200265,3.62344939 L14.5368412,4.22735762 L13.3474633,4.22735762 L15.51855,0.16984919 L16.9911131,0.16984919 L17.3498144,4.22735762 L16.2359526,4.22735762 L16.2359526,4.22735762 Z M16.1037995,1.83059682 C16.0849204,1.52864271 16.0849204,1.1134558 16.1037995,0.868118082 L16.0849204,0.868118082 C16.0094044,1.07571154 15.7262192,1.67961977 15.6129451,1.98157388 L15.1976068,2.8685641 L16.1604365,2.8685641 L16.1037995,1.83059682 L16.1037995,1.83059682 Z" id="Shape" fill="#FFFFFF"></path>
                            <path d="M11.667231,4.34059041 C10.8931914,4.34059041 10.383458,4.09525269 10.0058777,3.8687871 L10.5344901,3.07615755 C10.8554334,3.26487887 11.1197396,3.47247233 11.7238681,3.47247233 C11.9126582,3.47247233 12.1014484,3.41585593 12.2147224,3.24600674 C12.3657546,2.98179689 12.1769644,2.83081983 11.7427471,2.60435425 L11.5161989,2.45337719 C10.8743124,2.01931815 10.6100062,1.60413124 10.9120704,0.886990214 C11.1008606,0.434059041 11.610594,0.0754885289 12.4412706,0.0754885289 C13.0076411,0.0754885289 13.5551325,0.320826248 13.8760757,0.566163966 L13.2719473,1.26443286 C12.969883,1.01909514 12.7055768,0.886990214 12.4223916,0.886990214 C12.1958434,0.886990214 12.0070533,0.981350875 11.9504162,1.09458367 C11.8371422,1.32104926 11.9881743,1.47202631 12.3279965,1.67961977 L12.5734237,1.84946896 C13.3474633,2.34014439 13.5362535,2.84969196 13.3285843,3.32149527 C12.988762,4.15186909 12.3468755,4.34059041 11.667231,4.34059041 L11.667231,4.34059041 Z" id="Shape" fill="#FFFFFF"></path>
                        </g>
                    </g>
                </g>
            </g>
        </g>
    </g>
</svg>