<?xml version="1.0" encoding="UTF-8"?>
<svg width="38px" height="24px" viewBox="0 0 38 24" version="1.1" xmlns="http://www.w3.org/2000/svg" xmlns:xlink="http://www.w3.org/1999/xlink">
    <!-- Generator: sketchtool 62 (101010) - https://sketch.com -->
    <title>8A64C49D-FDAA-4FD7-B382-22301AD494A5</title>
    <desc>Created with sketchtool.</desc>
    <g id="IO-dono" stroke="none" stroke-width="1" fill="none" fill-rule="evenodd">
        <g id="IO-Dono-02---dettaglio" transform="translate(-288.000000, -2169.000000)" fill-rule="nonzero">
            <g id="Group-9" transform="translate(191.000000, 2169.000000)">
                <g id="icons/cards/visa" transform="translate(97.282798, -0.000000)">
                    <g>
                        <path d="M37.7013922,22.269116 C37.7013922,22.9673849 37.1350217,23.5146767 36.4553772,23.5146767 L1.37816807,23.5146767 C0.679644526,23.5146767 0.132153102,22.9485128 0.132153102,22.269116 L0.132153102,1.28330499 C0.132153102,0.585036099 0.69852354,0.0377442644 1.37816807,0.0377442644 L36.4553772,0.0377442644 C37.1539007,0.0377442644 37.7013922,0.603908231 37.7013922,1.28330499 L37.7013922,22.269116 Z" id="Shape" fill="#3957A7"></path>
                        <g id="Group" transform="translate(7.551606, 8.115017)" fill="#FFFFFF">
                            <polygon id="Shape" points="9.87372464 7.19028237 8.02358121 7.19028237 9.1752011 0.132104926 11.0064655 0.132104926"></polygon>
                            <path d="M6.47550201,0.132104926 L4.71975365,4.9822429 L4.5309635,3.94427563 L4.5309635,3.94427563 L3.90795602,0.773757421 C3.90795602,0.773757421 3.83243996,0.132104926 3.03952135,0.132104926 L0.151032117,0.132104926 L0.113274088,0.245337719 C0.113274088,0.245337719 1.00058777,0.434059041 2.03893358,1.0568394 L3.6247708,7.19028237 L5.53155128,7.19028237 L8.45779854,0.132104926 L6.47550201,0.132104926 Z" id="Shape"></path>
                            <path d="M20.9368272,7.19028237 L22.6170595,7.19028237 L21.1444964,0.132104926 L19.6719332,0.132104926 C18.9922887,0.132104926 18.8223776,0.660524628 18.8223776,0.660524628 L16.0849204,7.19028237 L17.9917009,7.19028237 L18.3692812,6.1523151 L20.710279,6.1523151 L20.9368272,7.19028237 Z M18.9167726,4.68028879 L19.8796024,2.03819028 L20.4270938,4.68028879 L18.9167726,4.68028879 Z" id="Shape"></path>
                            <path d="M16.2170735,1.83059682 L16.4813797,0.320826248 C16.4813797,0.320826248 15.6695821,0.0188721322 14.8389055,0.0188721322 C13.9327128,0.0188721322 11.7616261,0.415186909 11.7616261,2.35901653 C11.7616261,4.18961335 14.3102931,4.20848548 14.3102931,5.15209209 C14.3102931,6.11457084 12.0259323,5.94472165 11.2707717,5.34081342 L11.0064655,6.92607252 C11.0064655,6.92607252 11.8182631,7.3223873 13.0831571,7.3223873 C14.3291721,7.3223873 16.2359526,6.6807348 16.2359526,4.90675438 C16.2359526,3.07615755 13.6684066,2.90630836 13.6684066,2.11367881 C13.6495276,1.30217712 15.4430339,1.39653778 16.2170735,1.83059682 Z" id="Shape"></path>
                        </g>
                        <path d="M12.0825693,12.0592925 L11.4595619,8.88877427 C11.4595619,8.88877427 11.3840458,8.24712178 10.5911272,8.24712178 L7.70263796,8.24712178 L7.66487993,8.36035457 C7.66487993,8.36035457 9.06192701,8.64343655 10.383458,9.71914809 C11.667231,10.7759875 12.0825693,12.0592925 12.0825693,12.0592925 Z" id="Shape" fill="#F9A533"></path>
                    </g>
                </g>
            </g>
        </g>
    </g>
</svg>