<svg xmlns="http://www.w3.org/2000/svg" xmlns:xlink="http://www.w3.org/1999/xlink" width="236" height="239" viewBox="0 0 236 239">
  <defs>
    <polygon id="logo-bonus-vacanze-a" points="0 .419 235.582 .419 235.582 236.455 0 236.455"/>
  </defs>
  <g fill="none" fill-rule="evenodd">
    <path fill="#FFF" d="M172.466641 26.7825727C172.437333 26.7640273 172.408026 26.7485727 172.380261 26.7315727 172.408026 26.7485727 172.437333 26.7640273 172.466641 26.7825727M185.353937 35.7550182C185.235166 35.6592 185.117937 35.5633818 184.999166 35.4675636 185.117937 35.5633818 185.235166 35.6592 185.353937 35.7550182M170.417142 25.5993727C170.218162 25.4865545 170.017639 25.3737364 169.817116 25.2624636 170.017639 25.3737364 170.218162 25.4865545 170.417142 25.5993727M210.444285 64.8681364C210.427318 64.8387727 210.411893 64.8109545 210.394925 64.7831364 210.411893 64.8109545 210.427318 64.8387727 210.444285 64.8681364M168.374586 24.4779909C167.976625 24.2647182 167.577122 24.0545364 167.177618 23.8474455 167.578664 24.0545364 167.976625 24.2647182 168.374586 24.4779909M187.576656 37.6067818C187.305179 37.3749636 187.032159 37.1431455 186.75914 36.9144182 187.032159 37.1431455 187.305179 37.3749636 187.576656 37.6067818M211.90841 67.4352909C211.797352 67.2359273 211.686293 67.0350182 211.575234 66.8372 211.686293 67.0350182 211.798894 67.2343818 211.90841 67.4352909M166.32154 23.4065273C165.726141 23.1051636 165.1292 22.8068909 164.527631 22.5163455 165.1292 22.8068909 165.726141 23.1067091 166.32154 23.4065273M20.9310405 166.389664C21.2210275 166.992391 21.5187268 167.590482 21.8195111 168.187027 21.5187268 167.590482 21.2210275 166.992391 20.9310405 166.389664M20.790983 166.098345C20.0675582 164.5838 19.3765255 163.049164 18.7209699 161.495982 18.1996105 160.262709 17.7029307 159.021709 17.2278458 157.772982 18.3014144 160.607345 19.4922118 163.382982 20.790983 166.098345M78.9541856 27.4482C67.0739765 32.4832909 56.401532 39.6912909 47.2376366 48.8728364 38.0737412 58.0559273 30.8795974 68.7489273 25.8526431 80.6520182 22.4699765 88.6652 20.1732183 97.0075636 18.9793359 105.572473L64.8790222 55.3652909C66.3258719 53.7842909 68.3850876 52.9172909 70.5245124 52.9945636 72.6654797 53.0702909 74.6583686 54.0763818 75.9910745 55.7578364L98.8321725 84.5682 107.033558 74.9369273C108.386316 73.3466545 110.356068 72.4178364 112.439963 72.3822909 114.520774 72.3467455 116.522918 73.2137455 117.92812 74.7561091L137.398892 96.1591091C137.459048 96.2255636 137.53463 96.2611091 137.624094 96.2642 137.712016 96.2688364 137.792225 96.2410182 137.858552 96.1807455L170.207519 66.4508364C173.18297 63.7169273 177.828931 63.9147455 180.563754 66.8897455L216.687179 106.196836C215.521061 97.4124727 213.194996 88.8599273 209.729035 80.6520182 204.703624 68.7489273 197.50948 58.0574727 188.344042 48.8728364 179.180146 39.6912909 168.509244 32.4832909 156.627493 27.4482 144.329271 22.2369273 131.262892 19.5942 117.790839 19.5942 104.318787 19.5942 91.2539503 22.2369273 78.9541856 27.4482M155.927822 18.8063273C157.174149 19.2823273 158.412763 19.7799636 159.645208 20.3007818 161.195404 20.9591455 162.725548 21.6515091 164.237182 22.3763273 161.527038 21.0750545 158.755195 19.8819636 155.927822 18.8063273M75.9378588 20.3004727C77.1687608 19.7796545 78.4073752 19.2820182 79.6521595 18.8075636 76.8263294 19.8816545 74.0575712 21.0732 71.3505124 22.3744727 72.8606039 21.6496545 74.3892052 20.9572909 75.9378588 20.3004727M43.584881 41.6033273C42.972515 42.1890545 42.366319 42.7809636 41.7678353 43.3806 42.3678614 42.7809636 42.9740575 42.1875091 43.584881 41.6033273M63.196481 26.7343545L63.1193569 26.7791727 63.196481 26.7343545zM71.0475686 22.5205182C70.4506275 22.8095182 69.8567712 23.1047 69.266 23.4045182 69.8567712 23.1047 70.4506275 22.8095182 71.0475686 22.5205182M48.8140549 36.9216818C48.5472052 37.1473182 48.2803556 37.3714091 48.0135059 37.5985909 48.2803556 37.3714091 48.5472052 37.1473182 48.8140549 36.9216818M213.322097 70.0780182C213.115404 69.6777455 212.905626 69.2805636 212.694306 68.8849273 212.905626 69.2805636 213.115404 69.6777455 213.322097 70.0780182M65.7594719 25.2674091C65.562034 25.3755909 65.3645961 25.4868636 65.1687007 25.5965909 65.3661386 25.4868636 65.562034 25.3755909 65.7594719 25.2674091M214.649095 72.7312545C214.360651 72.1316182 214.064494 71.5366182 213.76371 70.9431636 214.062952 71.5366182 214.360651 72.1316182 214.649095 72.7312545M116.408465 11.8426636C116.359106 11.8426636 116.309746 11.8442091 116.260387 11.8457545 116.309746 11.8442091 116.359106 11.8426636 116.408465 11.8426636M218.352444 81.3504091C217.280418 78.5191364 216.091163 75.7435 214.792392 73.0312273 215.515817 74.5457727 216.20685 76.0773182 216.862405 77.6289545 217.383765 78.8622273 217.878902 80.1032273 218.352444 81.3504091M22.2589647 169.044445C22.4656575 169.446264 22.6769778 169.846536 22.888298 170.242173 22.6769778 169.846536 22.4656575 169.446264 22.2589647 169.044445M80.852983 18.3595364C80.6663425 18.4275364 80.4812444 18.4986273 80.2961464 18.5681727 80.4812444 18.4986273 80.6663425 18.4275364 80.852983 18.3595364M50.5757255 35.4743636C50.4615817 35.5670909 50.3489804 35.6567273 50.2363791 35.7494545 50.3489804 35.6567273 50.4615817 35.5670909 50.5757255 35.4743636M164.236719 216.749845C162.725085 217.476209 161.194941 218.168573 159.644745 218.825391 158.412301 219.347755 157.173686 219.845391 155.927359 220.319845 158.756275 219.244209 161.528118 218.052664 164.236719 216.749845M154.727307 220.767409C154.92783 220.694773 155.12681 220.619045 155.325791 220.543318 155.12681 220.619045 154.926288 220.694773 154.727307 220.767409M164.527477 216.609364C165.129046 216.318818 165.727529 216.020545 166.322928 215.719182 165.727529 216.020545 165.130588 216.318818 164.527477 216.609364M23.672651 171.688564C23.7837098 171.889473 23.8963111 172.090382 24.0073699 172.291291 23.8963111 172.090382 23.7837098 171.889473 23.672651 171.688564M79.652468 220.317682C78.4076837 219.843227 77.1690693 219.347136 75.9381673 218.824773 74.3895137 218.167955 72.8609124 217.477136 71.3508209 216.752318 74.0578797 218.052045 76.8250954 219.245136 79.652468 220.317682M167.174842 215.281355C167.57743 215.071173 167.978476 214.860991 168.376437 214.647718 167.978476 214.860991 167.57743 215.072718 167.174842 215.281355M69.2639948 215.720418C69.8563085 216.020236 70.4501647 216.316964 71.0486484 216.605964 70.4501647 216.316964 69.8563085 216.020236 69.2639948 215.720418M169.813106 213.864173C170.015171 213.7529 170.217237 213.638536 170.419302 213.525718 170.217237 213.638536 170.015171 213.7529 169.813106 213.864173M186.748805 202.220409C187.029537 201.9855 187.308727 201.7475 187.586374 201.511045 187.308727 201.749045 187.029537 201.9855 186.748805 202.220409M184.987135 203.666182C185.113618 203.565727 185.238559 203.463727 185.365043 203.363273L184.987135 203.666182zM172.377639 212.397227C172.408489 212.378682 172.437796 212.361682 172.468646 212.343136 172.437796 212.361682 172.408489 212.378682 172.377639 212.397227M119.174139 227.284282C119.223498 227.282736 119.272858 227.281191 119.322217 227.281191 119.272858 227.281191 119.223498 227.282736 119.174139 227.284282M36.7837621 190.401545C37.1555007 190.826545 37.5303242 191.25 37.9082327 191.670364 37.5287817 191.25 37.1555007 190.826545 36.7837621 190.401545M67.2094065 214.648955C67.6058248 214.862227 68.0022431 215.069318 68.4017464 215.277955 68.0022431 215.070864 67.6058248 214.860682 67.2094065 214.648955M35.3015895 188.664455C35.5298771 188.938 35.7597072 189.211545 35.9926222 189.482 35.7597072 189.211545 35.5298771 188.938 35.3015895 188.664455M25.1375477 174.257264C25.154515 174.286627 25.1714824 174.314445 25.1884497 174.343809 25.1714824 174.314445 25.154515 174.286627 25.1375477 174.257264M33.8576706 186.898618L34.1445725 187.255618C34.0489386 187.136618 33.9533046 187.017618 33.8576706 186.898618"/>
    <path fill="#FFF" d="M55.7236105 162.571309C62.1943294 158.696855 68.9766301 156.823764 78.4042902 156.306036 94.8240288 155.4004 124.816081 171.043491 126.085545 171.709582 126.096342 171.715764 126.105597 171.721945 126.117937 171.728127 134.305441 176.145036 141.548944 178.540491 148.909676 179.263764 159.179532 180.272945 169.396944 177.763127 179.276552 171.8054 198.519035 160.199036 196.496839 140.672218 195.418643 134.964855 193.988761 127.387491 187.823454 117.204491 179.984552 113.277491 163.516996 105.027855 153.71297 115.587945 153.615793 115.696127 152.404944 117.037582 150.339558 117.141127 149.000682 115.929491 147.661807 114.716309 147.55846 112.646945 148.767767 111.305491 148.905048 111.152491 152.209048 107.540764 158.084369 105.315309 163.441414 103.287673 172.097833 102.006491 182.906016 107.418673 187.447088 109.693582 191.724395 113.600491 195.27982 118.717491 197.479401 121.885673 199.245545 125.316582 200.457937 128.718127 208.572944 122.530127 214.045676 120.003309 217.565624 119.0714 217.562539 118.550582 217.556369 118.031309 217.547114 117.513582L175.40029 71.6522182C175.281519 71.5239455 175.080996 71.5162182 174.951427 71.6336727L142.60246 101.363582C141.154068 102.694218 139.275323 103.378855 137.310199 103.290764 135.346617 103.202673 133.535741 102.352673 132.210748 100.896855L112.739976 79.4938545C112.719924 79.4706727 112.669022 79.4104 112.554878 79.4134909 112.445362 79.4150364 112.392918 79.4768545 112.374408 79.5000364L92.627532 102.688036C91.3688654 104.165491 89.1538588 104.340127 87.6792444 103.080582 86.2061725 101.819491 86.0303294 99.6017636 87.2874536 98.1243091L94.1885255 90.0199455 70.494434 60.1324C70.4743817 60.1061273 70.4111399 60.0273091 70.2784863 60.0226474 70.1427477 60.0211273 70.0779634 60.0906727 70.0563686 60.1169455L18.0453621 117.005127C18.0253098 117.855127 18.0145124 118.708218 18.0145124 119.562855 18.0145124 133.060855 20.6521595 146.1524 25.8534144 158.474309 26.0030353 158.831309 26.1619111 159.183673 26.317702 159.536036 28.489519 156.803673 32.211532 152.634036 37.5253882 148.441218 45.711349 141.985855 59.4008915 134.238491 78.1374405 133.9974 78.2562118 133.995855 78.5477412 133.989673 78.9163948 133.9804 81.063532 133.932491 81.7854144 133.921673 82.1371007 133.940218L82.5150092 133.957218C88.9857281 134.272491 98.7650745 134.748491 123.515767 146.175582 125.053624 146.884945 126.605362 147.646855 128.246565 148.450491 138.135427 153.304764 149.343114 158.805036 162.139558 154.990855 167.956264 153.255309 175.42497 150.019127 186.831637 139.309127 186.031088 132.867673 182.123976 124.792673 176.885702 122.272036 167.19582 117.610945 161.095297 121.786764 156.406146 126.484945 155.130512 127.764582 153.060499 127.764582 151.784865 126.484945 150.509231 125.206855 150.509231 123.132855 151.784865 121.854764 154.940787 118.692764 164.542748 109.073855 179.713075 116.3684 183.364133 118.125582 186.641911 121.474582 189.193179 126.056855 191.381963 129.988491 192.856578 134.496582 193.347088 138.749673 194.357414 147.5124 190.52897 157.658309 184.036656 163.422855 176.626565 169.998764 170.924003 173.364764 158.564081 174.710855 151.919061 175.435673 146.16714 174.647491 138.709231 171.997036 131.928473 169.584582 128.101571 167.858309 124.051009 166.028491 120.096081 164.245036 116.008499 162.399764 108.690957 159.743127L106.458983 158.931764C91.6480549 153.544309 86.6581203 151.7284 74.8334405 152.176582 62.5722379 152.640218 52.1419634 159.401582 45.5509307 164.991491 40.6103556 169.181218 37.0148261 173.366309 35.186983 175.6644 35.9320026 176.763218 36.7001595 177.846582 37.4899111 178.916036 44.7411268 170.737491 50.1521595 165.9064 55.7236105 162.571309M65.1668497 213.527573C65.3658301 213.640391 65.5648105 213.751664 65.7637908 213.861391 65.5648105 213.751664 65.3658301 213.638845 65.1668497 213.527573M63.1181229 212.345764C63.1443451 212.361218 63.1721098 212.378218 63.198332 212.392127 63.1721098 212.378218 63.1443451 212.361218 63.1181229 212.345764"/>
    <path fill="#FFF" d="M41.1897124 160.1128C51.8081699 151.065709 63.3567451 146.058436 74.5860261 145.633436 87.6894248 145.138891 93.4074118 147.217527 108.688797 152.778073L110.917686 153.586345C118.466601 156.327982 122.669869 158.224255 126.735856 160.060255 130.659935 161.831345 134.366523 163.503527 140.895856 165.826345 147.439072 168.1538 152.194549 168.819891 157.857007 168.201709 168.439987 167.050345 172.782078 164.664164 179.703203 158.520982 182.357817 156.164164 184.454052 152.745618 185.701922 149.050436 178.200824 155.270891 171.421608 159.051073 164.003804 161.264164 160.33732 162.358345 156.800405 162.820436 153.402314 162.820436 142.66817 162.821982 133.285242 158.214982 125.370758 154.331255 123.765033 153.543073 122.248771 152.799709 120.780327 152.121255 97.1818693 141.2258 88.1660523 140.788436 82.198183 140.497891L81.8156471 140.479345C81.5071503 140.470073 79.7965359 140.508709 79.0653987 140.525709 78.6658954 140.534982 78.3512288 140.542709 78.2216601 140.544255 45.8680654 140.959982 29.7074641 165.925255 29.5470458 166.177164 29.5393333 166.189527 29.5300784 166.1988 29.522366 166.211164 30.1640392 167.428982 30.8273072 168.632891 31.5167974 169.8198 33.6916993 167.249709 36.9725621 163.705982 41.1897124 160.1128M50.2254275 203.368991C50.3457412 203.466355 50.4660549 203.563718 50.5863686 203.659536 50.4660549 203.563718 50.3457412 203.466355 50.2254275 203.368991M48.003634 201.517073C48.2766536 201.750436 48.5496732 201.9838 48.8242353 202.212527 48.5496732 201.982255 48.2766536 201.750436 48.003634 201.517073M68.3986614 23.8502273C68.0022431 24.0557727 67.6058248 24.2644091 67.2124915 24.4745909 67.6058248 24.2659545 68.0022431 24.0557727 68.3986614 23.8502273M10.2775686 118.1772C10.2775686 118.129291 10.2791111 118.079836 10.2806536 118.028836 10.2791111 118.079836 10.2775686 118.129291 10.2775686 118.1772M45.3479399 39.9568C44.8034431 40.4528909 44.2651163 40.9551636 43.731417 41.4651636 44.2651163 40.9551636 44.8049856 40.4528909 45.3479399 39.9568M16.7819137 82.5533909C16.849783 82.3679364 16.9207373 82.1824818 16.990149 81.9954818 16.9207373 82.1824818 16.849783 82.3679364 16.7819137 82.5533909M16.7811425 156.570618C16.8551817 156.771527 16.9307634 156.972436 17.0063451 157.173345 16.9307634 156.972436 16.8551817 156.771527 16.7811425 156.570618M41.7613569 195.7397C41.1551608 195.132336 40.5597621 194.520336 39.9705333 193.902155 41.1489908 195.140064 42.3567556 196.3517 43.5938275 197.530882 42.976834 196.942064 42.3660105 196.345518 41.7613569 195.7397M10.2775686 120.9482C10.2775686 120.997655 10.2791111 121.045564 10.2806536 121.096564 10.2791111 121.047109 10.2775686 120.997655 10.2775686 120.9482M189.760042 39.5251545C189.340486 39.1480636 188.919388 38.7725182 188.493663 38.3985182 188.917846 38.7725182 189.340486 39.1465182 189.760042 39.5251545M195.73115 45.3507455C196.244797 45.8932 196.752275 46.4387455 197.253582 46.9904727 196.752275 46.4372 196.244797 45.8932 195.73115 45.3507455M154.727307 18.3581455C154.926288 18.4323273 155.12681 18.5080545 155.325791 18.5822364 155.12681 18.5080545 154.92783 18.4323273 154.727307 18.3581455M197.6736 47.4545727C198.053051 47.8749364 198.427875 48.2999364 198.799613 48.7249364 198.427875 48.2999364 198.053051 47.8749364 197.6736 47.4545727M39.8528418 193.7762C39.3391948 193.233745 38.8301752 192.6882 38.328868 192.136473 38.8317176 192.689745 39.3391948 193.235291 39.8528418 193.7762M191.860596 41.4735091C191.320727 40.9588727 190.77623 40.4504182 190.225563 39.9481455 190.774688 40.4504182 191.320727 40.9588727 191.860596 41.4735091M45.8202484 199.597309C46.2398039 199.977491 46.6639869 200.354582 47.0912549 200.728582 46.6655294 200.354582 46.2413464 199.979036 45.8202484 199.597309M191.870314 197.644473C191.324275 198.165291 190.772065 198.679927 190.215229 199.188382 190.772065 198.678382 191.324275 198.163745 191.870314 197.644473M201.430319 187.2669C201.53058 187.140173 201.632384 187.014991 201.732646 186.889809 201.632384 187.014991 201.53058 187.140173 201.430319 187.2669M199.582115 189.492973C199.819658 189.213245 200.055658 188.935064 200.288573 188.653791 200.055658 188.935064 199.819658 189.213245 199.582115 189.492973M197.666042 191.679945C198.05012 191.254945 198.431114 190.823764 198.80748 190.391036 198.431114 190.823764 198.05012 191.254945 197.666042 191.679945M199.589519 49.6415455C199.820892 49.9150909 200.052264 50.1886364 200.282094 50.4621818 200.052264 50.1886364 199.820892 49.9150909 199.589519 49.6415455M195.720507 193.786864C196.240324 193.239773 196.753971 192.6865 197.261448 192.128591 196.753971 192.684955 196.240324 193.239773 195.720507 193.786864M80.852983 220.767409C80.6663425 220.697864 80.4812444 220.628318 80.2961464 220.558773 80.4812444 220.628318 80.6663425 220.697864 80.852983 220.767409M189.771302 199.589736C189.344034 199.9761 188.913681 200.357827 188.483328 200.736464 188.915224 200.357827 189.344034 199.9761 189.771302 199.589736M43.7218536 197.653436C44.2617229 198.168073 44.8077621 198.676527 45.3584288 199.1788 44.8093046 198.676527 44.2632654 198.168073 43.7218536 197.653436M193.821093 195.7397C193.213354 196.348609 192.599446 196.948245 191.979367 197.5417 193.221067 196.353245 194.435001 195.136973 195.621171 193.892882 195.028858 194.514155 194.428831 195.129245 193.821093 195.7397M116.408465 227.284282C116.359106 227.282736 116.309746 227.281191 116.260387 227.281191 116.309746 227.281191 116.359106 227.282736 116.408465 227.284282M119.174139 11.8426636C119.223498 11.8426636 119.272858 11.8442091 119.322217 11.8457545 119.272858 11.8442091 119.223498 11.8426636 119.174139 11.8426636M217.365872 126.007091C213.466473 127.526273 208.132565 130.910818 202.158525 135.690909 202.311231 136.783545 202.44697 138.046182 202.525637 139.447909 208.990186 134.080545 214.066499 131.499636 217.000303 130.312727 217.153009 128.881636 217.274865 127.447455 217.365872 126.007091M18.7205072 77.6286455C19.3745203 76.0770091 20.0655529 74.5454636 20.7889778 73.0324636 19.491749 75.7447364 18.3024941 78.5188273 17.2289255 81.3501 17.702468 80.1044636 18.1991477 78.8619182 18.7205072 77.6286455M41.7553412 43.3932727C41.1568575 43.9929091 40.5660863 44.6002727 39.981485 45.2138182 40.5645438 44.6002727 41.155315 43.9944545 41.7553412 43.3932727M22.8862928 68.8872455C22.6749725 69.2813364 22.4682797 69.6785182 22.2615869 70.0757 22.4682797 69.6785182 22.676515 69.2813364 22.8862928 68.8872455M24.005519 66.8392091C23.8944601 67.0354818 23.7849438 67.2333 23.6769699 67.4311182 23.7849438 67.2333 23.8960026 67.0370273 24.005519 66.8392091M25.1864444 64.7866909L25.1417124 64.8639636 25.1864444 64.7866909zM21.8176601 70.9442455C21.5184183 71.5361545 21.2238039 72.1311545 20.9353595 72.7292455 21.2238039 72.1311545 21.5184183 71.5361545 21.8176601 70.9442455M47.0803033 38.4067091C46.6607477 38.7745273 46.2442771 39.1454364 45.8308915 39.5178909 46.2442771 39.1454364 46.6622902 38.7745273 47.0803033 38.4067091M34.1379399 51.8781273L33.8649203 52.2181273C33.9559268 52.1037636 34.0453908 51.9909455 34.1379399 51.8781273M39.8423529 45.3612545C39.3348758 45.8959818 38.8335686 46.4353455 38.3368889 46.9808909 38.8335686 46.4353455 39.3333333 45.8959818 39.8423529 45.3612545M201.437106 51.8691636C201.53274 51.9881636 201.629916 52.1071636 201.72555 52.2277091 201.629916 52.1071636 201.53274 51.9881636 201.437106 51.8691636M35.9846013 49.6520545C35.7593987 49.9178727 35.5341961 50.1852364 35.3105359 50.4526 35.5341961 50.1852364 35.7578562 49.9178727 35.9846013 49.6520545M37.8999033 47.4636909C37.5266222 47.8794182 37.1579686 48.2951455 36.7908575 48.7170545 37.1579686 48.2966909 37.5266222 47.8794182 37.8999033 47.4636909M218.576876 157.172882C218.650915 156.971973 218.728039 156.771064 218.802078 156.570155 218.728039 156.771064 218.652458 156.971973 218.576876 157.172882M218.800536 82.5533909C218.732667 82.3679364 218.661712 82.1824818 218.592301 81.9954818 218.661712 82.1824818 218.732667 82.3679364 218.800536 82.5533909M225.304881 118.1772C225.304881 118.129291 225.303339 118.079836 225.301796 118.028836 225.303339 118.079836 225.304881 118.129291 225.304881 118.1772M193.821093 43.3872455C194.425746 43.9930636 195.021145 44.6050636 195.610374 45.2217 194.431916 43.9853364 193.224152 42.7752455 191.988622 41.5929727 192.604073 42.1833364 193.216439 42.7798818 193.821093 43.3872455M225.30195 121.0961C225.30195 121.046645 225.303493 120.998736 225.305035 120.947736 225.303493 120.998736 225.30195 121.048191 225.30195 121.0961M210.391532 174.346436C210.410042 174.315527 210.428552 174.284618 210.448604 174.252164 210.428552 174.284618 210.410042 174.315527 210.391532 174.346436M211.573229 172.292373C211.687373 172.089918 211.798431 171.887464 211.911033 171.685009 211.799974 171.887464 211.687373 172.089918 211.573229 172.292373M216.861942 161.496755C216.206387 163.051482 215.513812 164.584573 214.790387 166.100664 216.090701 163.3853 217.279956 160.608118 218.353524 157.773755 217.879982 159.020936 217.383302 160.261936 216.861942 161.496755M201.388826 152.444409C205.501088 149.322591 210.292042 146.176045 214.358029 144.833045 214.938003 142.607591 215.43931 140.363591 215.86195 138.101045 212.820173 139.779409 208.004539 142.946045 202.133846 148.568409 201.951833 149.827955 201.70812 151.124591 201.388826 152.444409M212.692455 170.245727C212.905318 169.845455 213.116638 169.443636 213.324873 169.041818 213.116638 169.443636 212.905318 169.845455 212.692455 170.245727M213.761088 168.188727C214.063414 167.590636 214.361114 166.991 214.652643 166.386727 214.361114 166.992545 214.063414 167.590636 213.761088 168.188727"/>
    <g transform="translate(0 1.127)">
      <mask id="logo-bonus-vacanze-b" fill="#fff">
        <use xlink:href="#logo-bonus-vacanze-a"/>
      </mask>
      <path fill="#FFF" d="M193.821093,194.613064 C173.512753,214.960518 146.511576,226.165064 117.790531,226.165064 C89.0710275,226.165064 62.0683085,214.960518 41.7615111,194.613064 C21.4531712,174.265609 10.2686222,147.212427 10.2686222,118.436064 C10.2686222,89.6612455 21.4531712,62.6080636 41.7615111,42.2606091 C62.0683085,21.9131545 89.0710275,10.7070636 117.790531,10.7070636 C146.511576,10.7070636 173.512753,21.9131545 193.821093,42.2606091 C214.129433,62.6080636 225.313982,89.6612455 225.313982,118.436064 C225.313982,147.212427 214.129433,174.265609 193.821093,194.613064 M117.790531,0.418972727 C52.7378248,0.418972727 0.000308496732,53.2565182 0.000308496732,118.436064 C0.000308496732,183.615609 52.7378248,236.4547 117.790531,236.4547 C182.844779,236.4547 235.582295,183.615609 235.582295,118.436064 C235.582295,53.2565182 182.844779,0.418972727 117.790531,0.418972727" mask="url(#logo-bonus-vacanze-b)"/>
    </g>
  </g>
</svg>
