<?xml version="1.0" encoding="UTF-8"?>
<svg width="1438px" height="1016px" viewBox="0 0 1438 1016" version="1.1" xmlns="http://www.w3.org/2000/svg" xmlns:xlink="http://www.w3.org/1999/xlink">
    <!-- Generator: Sketch 49.3 (51167) - http://www.bohemiancoding.com/sketch -->
    <title>confetti astratto</title>
    <desc>Created with Sketch.</desc>
    <defs></defs>
    <g id="-wip" stroke="none" stroke-width="1" fill="none" fill-rule="evenodd" opacity="0.300000012" stroke-linecap="round" stroke-linejoin="round">
        <g id="io.italia.it---preview---pa" transform="translate(-1.000000, -2693.000000)" fill="#FFFFFF" stroke="#1424FB" stroke-width="0.5">
            <g id="confetti-astratto" transform="translate(1.000000, 2689.000000)">
                <g id="user-decorative-icon" opacity="0.75" transform="translate(1392.675200, 910.164646) rotate(-241.000000) translate(-1392.675200, -910.164646) translate(1376.675200, 892.664646)">
                    <path d="M16,17.6 C11.1398942,17.6 7.2,13.6601058 7.2,8.8 C7.2,3.9398942 11.1398942,0 16,0 C20.8601058,0 24.8,3.9398942 24.8,8.8 C24.8,13.6601058 20.8601058,17.6 16,17.6 Z M0,35.1 C0,26.263444 7.163444,19.1 16,19.1 C24.836556,19.1 32,26.263444 32,35.1" id="Combined-Shape"></path>
                </g>
                <g id="user-decorative-icon" opacity="0.94" transform="translate(1392.365117, 635.922625) rotate(-304.000000) translate(-1392.365117, -635.922625) translate(1373.365117, 614.922625)">
                    <path d="M19,21.12 C13.2286244,21.12 8.55,16.392127 8.55,10.56 C8.55,4.72787304 13.2286244,0 19,0 C24.7713756,0 29.45,4.72787304 29.45,10.56 C29.45,16.392127 24.7713756,21.12 19,21.12 Z M0,42.12 C0,31.5161328 8.50658975,22.92 19,22.92 C29.4934102,22.92 38,31.5161328 38,42.12" id="Combined-Shape"></path>
                </g>
                <g id="user-decorative-icon" opacity="0.75" transform="translate(1388.211259, 539.347549) rotate(-258.000000) translate(-1388.211259, -539.347549) translate(1375.711259, 525.847549)">
                    <path d="M12.5,13.5771429 C8.70304235,13.5771429 5.625,10.5377959 5.625,6.78857143 C5.625,3.03934696 8.70304235,0 12.5,0 C16.2969577,0 19.375,3.03934696 19.375,6.78857143 C19.375,10.5377959 16.2969577,13.5771429 12.5,13.5771429 Z M0,27.0771429 C0,20.2603711 5.59644063,14.7342857 12.5,14.7342857 C19.4035594,14.7342857 25,20.2603711 25,27.0771429" id="Combined-Shape"></path>
                </g>
                <g id="user-decorative-icon" opacity="0.72" transform="translate(1387.186277, 260.014885) rotate(-296.000000) translate(-1387.186277, -260.014885) translate(1372.186277, 244.014885)">
                    <path d="M15,16.0914286 C10.4436508,16.0914286 6.75,12.4892396 6.75,8.04571429 C6.75,3.60218898 10.4436508,0 15,0 C19.5563492,0 23.25,3.60218898 23.25,8.04571429 C23.25,12.4892396 19.5563492,16.0914286 15,16.0914286 Z M0,32.0914286 C0,24.0122917 6.71572875,17.4628571 15,17.4628571 C23.2842712,17.4628571 30,24.0122917 30,32.0914286" id="Combined-Shape"></path>
                </g>
                <g id="user-decorative-icon" opacity="0.94" transform="translate(1420.881162, 149.822328) rotate(-166.000000) translate(-1420.881162, -149.822328) translate(1407.381162, 135.322328)">
                    <path d="M13.5,14.5828571 C9.39928573,14.5828571 6.075,11.3183734 6.075,7.29142857 C6.075,3.26448377 9.39928573,0 13.5,0 C17.6007143,0 20.925,3.26448377 20.925,7.29142857 C20.925,11.3183734 17.6007143,14.5828571 13.5,14.5828571 Z M0,29.0828571 C0,21.7611393 6.04415588,15.8257143 13.5,15.8257143 C20.9558441,15.8257143 27,21.7611393 27,29.0828571" id="Combined-Shape"></path>
                </g>
                <g id="user-decorative-icon" opacity="0.88" transform="translate(1323.617906, 885.681986) rotate(-222.000000) translate(-1323.617906, -885.681986) translate(1305.117906, 865.181986)">
                    <path d="M18.5,20.6171429 C12.8805027,20.6171429 8.325,16.0018382 8.325,10.3085714 C8.325,4.61530464 12.8805027,0 18.5,0 C24.1194973,0 28.675,4.61530464 28.675,10.3085714 C28.675,16.0018382 24.1194973,20.6171429 18.5,20.6171429 Z M0,41.1171429 C0,30.7657487 8.28273213,22.3742857 18.5,22.3742857 C28.7172679,22.3742857 37,30.7657487 37,41.1171429" id="Combined-Shape"></path>
                </g>
                <g id="user-decorative-icon" opacity="0.88" transform="translate(1320.009673, 749.842515) rotate(-64.000000) translate(-1320.009673, -749.842515) translate(1303.509673, 731.842515)">
                    <path d="M16.5,18.1028571 C11.4880159,18.1028571 7.425,14.0503945 7.425,9.05142857 C7.425,4.05246261 11.4880159,0 16.5,0 C21.5119841,0 25.575,4.05246261 25.575,9.05142857 C25.575,14.0503945 21.5119841,18.1028571 16.5,18.1028571 Z M0,36.1028571 C0,27.0138281 7.38730163,19.6457143 16.5,19.6457143 C25.6126984,19.6457143 33,27.0138281 33,36.1028571" id="Combined-Shape"></path>
                </g>
                <g id="user-decorative-icon" opacity="0.7" transform="translate(1353.758807, 576.202326) rotate(-69.000000) translate(-1353.758807, -576.202326) translate(1337.758807, 558.702326)">
                    <path d="M16,17.6 C11.1398942,17.6 7.2,13.6601058 7.2,8.8 C7.2,3.9398942 11.1398942,0 16,0 C20.8601058,0 24.8,3.9398942 24.8,8.8 C24.8,13.6601058 20.8601058,17.6 16,17.6 Z M0,35.1 C0,26.263444 7.163444,19.1 16,19.1 C24.836556,19.1 32,26.263444 32,35.1" id="Combined-Shape"></path>
                </g>
                <g id="user-decorative-icon" opacity="0.76" transform="translate(1351.129516, 304.456171) rotate(-330.000000) translate(-1351.129516, -304.456171) translate(1339.129516, 290.956171)">
                    <path d="M12,13.5771429 C8.35492065,13.5771429 5.4,10.5377959 5.4,6.78857143 C5.4,3.03934696 8.35492065,0 12,0 C15.6450793,0 18.6,3.03934696 18.6,6.78857143 C18.6,10.5377959 15.6450793,13.5771429 12,13.5771429 Z M0,27.0771429 C0,20.2603711 5.372583,14.7342857 12,14.7342857 C18.627417,14.7342857 24,20.2603711 24,27.0771429" id="Combined-Shape"></path>
                </g>
                <g id="user-decorative-icon" opacity="0.89" transform="translate(1320.676844, 21.554778) rotate(-286.000000) translate(-1320.676844, -21.554778) translate(1305.176844, 4.554778)">
                    <path d="M15.5,17.0971429 C10.7917725,17.0971429 6.975,13.2698171 6.975,8.54857143 C6.975,3.8273258 10.7917725,0 15.5,0 C20.2082275,0 24.025,3.8273258 24.025,8.54857143 C24.025,13.2698171 20.2082275,17.0971429 15.5,17.0971429 Z M0,34.0971429 C0,25.5130599 6.93958638,18.5542857 15.5,18.5542857 C24.0604136,18.5542857 31,25.5130599 31,34.0971429" id="Combined-Shape"></path>
                </g>
                <g id="user-decorative-icon" opacity="0.77" transform="translate(1279.709125, 849.191467) rotate(-120.000000) translate(-1279.709125, -849.191467) translate(1267.709125, 836.191467)">
                    <path d="M12,13.0742857 C8.35492065,13.0742857 5.4,10.1475072 5.4,6.53714286 C5.4,2.92677855 8.35492065,0 12,0 C15.6450793,0 18.6,2.92677855 18.6,6.53714286 C18.6,10.1475072 15.6450793,13.0742857 12,13.0742857 Z M0,26.0742857 C0,19.509987 5.372583,14.1885714 12,14.1885714 C18.627417,14.1885714 24,19.509987 24,26.0742857" id="Combined-Shape"></path>
                </g>
                <g id="user-decorative-icon" opacity="0.76" transform="translate(1274.612802, 742.992358) rotate(-5.000000) translate(-1274.612802, -742.992358) translate(1256.112802, 722.492358)">
                    <path d="M18.5,20.6171429 C12.8805027,20.6171429 8.325,16.0018382 8.325,10.3085714 C8.325,4.61530464 12.8805027,0 18.5,0 C24.1194973,0 28.675,4.61530464 28.675,10.3085714 C28.675,16.0018382 24.1194973,20.6171429 18.5,20.6171429 Z M0,41.1171429 C0,30.7657487 8.28273213,22.3742857 18.5,22.3742857 C28.7172679,22.3742857 37,30.7657487 37,41.1171429" id="Combined-Shape"></path>
                </g>
                <g id="user-decorative-icon" opacity="0.73" transform="translate(1268.652063, 548.539413) rotate(-223.000000) translate(-1268.652063, -548.539413) translate(1255.652063, 534.539413)">
                    <path d="M13,14.08 C9.05116404,14.08 5.85,10.9280846 5.85,7.04 C5.85,3.15191536 9.05116404,0 13,0 C16.948836,0 20.15,3.15191536 20.15,7.04 C20.15,10.9280846 16.948836,14.08 13,14.08 Z M0,28.08 C0,21.0107552 5.82029825,15.28 13,15.28 C20.1797017,15.28 26,21.0107552 26,28.08" id="Combined-Shape"></path>
                </g>
                <g id="user-decorative-icon" opacity="0.97" transform="translate(1274.685690, 290.882933) rotate(-144.000000) translate(-1274.685690, -290.882933) translate(1262.185690, 276.882933)">
                    <path d="M12.5,14.08 C8.70304235,14.08 5.625,10.9280846 5.625,7.04 C5.625,3.15191536 8.70304235,0 12.5,0 C16.2969577,0 19.375,3.15191536 19.375,7.04 C19.375,10.9280846 16.2969577,14.08 12.5,14.08 Z M0,28.08 C0,21.0107552 5.59644063,15.28 12.5,15.28 C19.4035594,15.28 25,21.0107552 25,28.08" id="Combined-Shape"></path>
                </g>
                <g id="user-decorative-icon" opacity="0.83" transform="translate(1260.421385, 31.315782) rotate(-187.000000) translate(-1260.421385, -31.315782) translate(1242.421385, 11.815782)">
                    <path d="M18,19.6114286 C12.532381,19.6114286 8.1,15.2212607 8.1,9.80571429 C8.1,4.39016782 12.532381,0 18,0 C23.467619,0 27.9,4.39016782 27.9,9.80571429 C27.9,15.2212607 23.467619,19.6114286 18,19.6114286 Z M0,39.1114286 C0,29.2649805 8.0588745,21.2828571 18,21.2828571 C27.9411255,21.2828571 36,29.2649805 36,39.1114286" id="Combined-Shape"></path>
                </g>
                <g id="user-decorative-icon" opacity="0.9" transform="translate(1189.721461, 859.433504) rotate(-235.000000) translate(-1189.721461, -859.433504) translate(1176.221461, 844.433504)">
                    <path d="M13.5,15.0857143 C9.39928573,15.0857143 6.075,11.7086621 6.075,7.54285714 C6.075,3.37705217 9.39928573,0 13.5,0 C17.6007143,0 20.925,3.37705217 20.925,7.54285714 C20.925,11.7086621 17.6007143,15.0857143 13.5,15.0857143 Z M0,30.0857143 C0,22.5115234 6.04415588,16.3714286 13.5,16.3714286 C20.9558441,16.3714286 27,22.5115234 27,30.0857143" id="Combined-Shape"></path>
                </g>
                <g id="user-decorative-icon" opacity="0.84" transform="translate(1203.709098, 700.531902) rotate(-356.000000) translate(-1203.709098, -700.531902) translate(1184.709098, 680.031902)">
                    <path d="M19,20.6171429 C13.2286244,20.6171429 8.55,16.0018382 8.55,10.3085714 C8.55,4.61530464 13.2286244,0 19,0 C24.7713756,0 29.45,4.61530464 29.45,10.3085714 C29.45,16.0018382 24.7713756,20.6171429 19,20.6171429 Z M0,41.1171429 C0,30.7657487 8.50658975,22.3742857 19,22.3742857 C29.4934102,22.3742857 38,30.7657487 38,41.1171429" id="Combined-Shape"></path>
                </g>
                <g id="user-decorative-icon" transform="translate(1185.889350, 600.613851) rotate(-116.000000) translate(-1185.889350, -600.613851) translate(1167.889350, 580.613851)">
                    <path d="M18,20.1142857 C12.532381,20.1142857 8.1,15.6115495 8.1,10.0571429 C8.1,4.50273623 12.532381,0 18,0 C23.467619,0 27.9,4.50273623 27.9,10.0571429 C27.9,15.6115495 23.467619,20.1142857 18,20.1142857 Z M0,40.1142857 C0,30.0153646 8.0588745,21.8285714 18,21.8285714 C27.9411255,21.8285714 36,30.0153646 36,40.1142857" id="Combined-Shape"></path>
                </g>
                <g id="user-decorative-icon" opacity="0.72" transform="translate(1172.269677, 297.626151) rotate(-310.000000) translate(-1172.269677, -297.626151) translate(1158.269677, 282.626151)">
                    <path d="M14,15.0857143 C9.74740743,15.0857143 6.3,11.7086621 6.3,7.54285714 C6.3,3.37705217 9.74740743,0 14,0 C18.2525926,0 21.7,3.37705217 21.7,7.54285714 C21.7,11.7086621 18.2525926,15.0857143 14,15.0857143 Z M0,30.0857143 C0,22.5115234 6.2680135,16.3714286 14,16.3714286 C21.7319865,16.3714286 28,22.5115234 28,30.0857143" id="Combined-Shape"></path>
                </g>
                <g id="user-decorative-icon" opacity="0.83" transform="translate(1182.497242, 95.762453) rotate(-54.000000) translate(-1182.497242, -95.762453) translate(1165.497242, 77.262453)">
                    <path d="M17,18.6057143 C11.8361376,18.6057143 7.65,14.4406833 7.65,9.30285714 C7.65,4.16503101 11.8361376,0 17,0 C22.1638624,0 26.35,4.16503101 26.35,9.30285714 C26.35,14.4406833 22.1638624,18.6057143 17,18.6057143 Z M0,37.1057143 C0,27.7642122 7.61115925,20.1914286 17,20.1914286 C26.3888407,20.1914286 34,27.7642122 34,37.1057143" id="Combined-Shape"></path>
                </g>
                <g id="user-decorative-icon" opacity="0.97" transform="translate(1116.503071, 842.115961) rotate(-154.000000) translate(-1116.503071, -842.115961) translate(1102.003071, 826.615961)">
                    <path d="M14.5,15.5885714 C10.0955291,15.5885714 6.525,12.0989508 6.525,7.79428571 C6.525,3.48962058 10.0955291,0 14.5,0 C18.9044709,0 22.475,3.48962058 22.475,7.79428571 C22.475,12.0989508 18.9044709,15.5885714 14.5,15.5885714 Z M0,31.0885714 C0,23.2619075 6.49187113,16.9171429 14.5,16.9171429 C22.5081289,16.9171429 29,23.2619075 29,31.0885714" id="Combined-Shape"></path>
                </g>
                <g id="user-decorative-icon" opacity="0.91" transform="translate(1139.165612, 719.389670) rotate(-290.000000) translate(-1139.165612, -719.389670) translate(1119.665612, 697.889670)">
                    <path d="M19.5,21.6228571 C13.5767461,21.6228571 8.775,16.7824157 8.775,10.8114286 C8.775,4.84044145 13.5767461,0 19.5,0 C25.4232539,0 30.225,4.84044145 30.225,10.8114286 C30.225,16.7824157 25.4232539,21.6228571 19.5,21.6228571 Z M0,43.1228571 C0,32.2665169 8.73044738,23.4657143 19.5,23.4657143 C30.2695526,23.4657143 39,32.2665169 39,43.1228571" id="Combined-Shape"></path>
                </g>
                <g id="user-decorative-icon" opacity="0.72" transform="translate(1108.736990, 507.383092) rotate(-165.000000) translate(-1108.736990, -507.383092) translate(1090.736990, 487.883092)">
                    <path d="M18,19.6114286 C12.532381,19.6114286 8.1,15.2212607 8.1,9.80571429 C8.1,4.39016782 12.532381,0 18,0 C23.467619,0 27.9,4.39016782 27.9,9.80571429 C27.9,15.2212607 23.467619,19.6114286 18,19.6114286 Z M0,39.1114286 C0,29.2649805 8.0588745,21.2828571 18,21.2828571 C27.9411255,21.2828571 36,29.2649805 36,39.1114286" id="Combined-Shape"></path>
                </g>
                <g id="user-decorative-icon" opacity="0.75" transform="translate(1098.119202, 283.313280) rotate(-82.000000) translate(-1098.119202, -283.313280) translate(1082.119202, 265.813280)">
                    <path d="M16,17.6 C11.1398942,17.6 7.2,13.6601058 7.2,8.8 C7.2,3.9398942 11.1398942,0 16,0 C20.8601058,0 24.8,3.9398942 24.8,8.8 C24.8,13.6601058 20.8601058,17.6 16,17.6 Z M0,35.1 C0,26.263444 7.163444,19.1 16,19.1 C24.836556,19.1 32,26.263444 32,35.1" id="Combined-Shape"></path>
                </g>
                <g id="user-decorative-icon" opacity="0.92" transform="translate(1135.085983, 182.610577) rotate(-234.000000) translate(-1135.085983, -182.610577) translate(1119.585983, 165.610577)">
                    <path d="M15.5,17.0971429 C10.7917725,17.0971429 6.975,13.2698171 6.975,8.54857143 C6.975,3.8273258 10.7917725,0 15.5,0 C20.2082275,0 24.025,3.8273258 24.025,8.54857143 C24.025,13.2698171 20.2082275,17.0971429 15.5,17.0971429 Z M0,34.0971429 C0,25.5130599 6.93958638,18.5542857 15.5,18.5542857 C24.0604136,18.5542857 31,25.5130599 31,34.0971429" id="Combined-Shape"></path>
                </g>
                <g id="user-decorative-icon" opacity="0.75" transform="translate(1030.582509, 905.992822) rotate(-204.000000) translate(-1030.582509, -905.992822) translate(1011.582509, 885.492822)">
                    <path d="M19,20.6171429 C13.2286244,20.6171429 8.55,16.0018382 8.55,10.3085714 C8.55,4.61530464 13.2286244,0 19,0 C24.7713756,0 29.45,4.61530464 29.45,10.3085714 C29.45,16.0018382 24.7713756,20.6171429 19,20.6171429 Z M0,41.1171429 C0,30.7657487 8.50658975,22.3742857 19,22.3742857 C29.4934102,22.3742857 38,30.7657487 38,41.1171429" id="Combined-Shape"></path>
                </g>
                <g id="user-decorative-icon" opacity="0.86" transform="translate(1027.742970, 718.758590) rotate(-245.000000) translate(-1027.742970, -718.758590) translate(1015.242970, 705.258590)">
                    <path d="M12.5,13.5771429 C8.70304235,13.5771429 5.625,10.5377959 5.625,6.78857143 C5.625,3.03934696 8.70304235,0 12.5,0 C16.2969577,0 19.375,3.03934696 19.375,6.78857143 C19.375,10.5377959 16.2969577,13.5771429 12.5,13.5771429 Z M0,27.0771429 C0,20.2603711 5.59644063,14.7342857 12.5,14.7342857 C19.4035594,14.7342857 25,20.2603711 25,27.0771429" id="Combined-Shape"></path>
                </g>
                <g id="user-decorative-icon" opacity="0.96" transform="translate(1029.589002, 437.901384) rotate(-25.000000) translate(-1029.589002, -437.901384) translate(1010.089002, 416.401384)">
                    <path d="M19.5,21.6228571 C13.5767461,21.6228571 8.775,16.7824157 8.775,10.8114286 C8.775,4.84044145 13.5767461,0 19.5,0 C25.4232539,0 30.225,4.84044145 30.225,10.8114286 C30.225,16.7824157 25.4232539,21.6228571 19.5,21.6228571 Z M0,43.1228571 C0,32.2665169 8.73044738,23.4657143 19.5,23.4657143 C30.2695526,23.4657143 39,32.2665169 39,43.1228571" id="Combined-Shape"></path>
                </g>
                <g id="user-decorative-icon" opacity="0.74" transform="translate(1065.347201, 336.803151) rotate(-43.000000) translate(-1065.347201, -336.803151) translate(1048.347201, 318.303151)">
                    <path d="M17,18.6057143 C11.8361376,18.6057143 7.65,14.4406833 7.65,9.30285714 C7.65,4.16503101 11.8361376,0 17,0 C22.1638624,0 26.35,4.16503101 26.35,9.30285714 C26.35,14.4406833 22.1638624,18.6057143 17,18.6057143 Z M0,37.1057143 C0,27.7642122 7.61115925,20.1914286 17,20.1914286 C26.3888407,20.1914286 34,27.7642122 34,37.1057143" id="Combined-Shape"></path>
                </g>
                <g id="user-decorative-icon" opacity="0.86" transform="translate(1028.508044, 108.412391) rotate(-220.000000) translate(-1028.508044, -108.412391) translate(1012.008044, 90.412391)">
                    <path d="M16.5,18.1028571 C11.4880159,18.1028571 7.425,14.0503945 7.425,9.05142857 C7.425,4.05246261 11.4880159,0 16.5,0 C21.5119841,0 25.575,4.05246261 25.575,9.05142857 C25.575,14.0503945 21.5119841,18.1028571 16.5,18.1028571 Z M0,36.1028571 C0,27.0138281 7.38730163,19.6457143 16.5,19.6457143 C25.6126984,19.6457143 33,27.0138281 33,36.1028571" id="Combined-Shape"></path>
                </g>
                <g id="user-decorative-icon" opacity="0.7" transform="translate(988.057334, 1000.097666) rotate(-207.000000) translate(-988.057334, -1000.097666) translate(970.057334, 980.097666)">
                    <path d="M18,20.1142857 C12.532381,20.1142857 8.1,15.6115495 8.1,10.0571429 C8.1,4.50273623 12.532381,0 18,0 C23.467619,0 27.9,4.50273623 27.9,10.0571429 C27.9,15.6115495 23.467619,20.1142857 18,20.1142857 Z M0,40.1142857 C0,30.0153646 8.0588745,21.8285714 18,21.8285714 C27.9411255,21.8285714 36,30.0153646 36,40.1142857" id="Combined-Shape"></path>
                </g>
                <g id="user-decorative-icon" opacity="0.73" transform="translate(962.331319, 681.123017) rotate(-62.000000) translate(-962.331319, -681.123017) translate(948.331319, 665.623017)">
                    <path d="M14,15.5885714 C9.74740743,15.5885714 6.3,12.0989508 6.3,7.79428571 C6.3,3.48962058 9.74740743,0 14,0 C18.2525926,0 21.7,3.48962058 21.7,7.79428571 C21.7,12.0989508 18.2525926,15.5885714 14,15.5885714 Z M0,31.0885714 C0,23.2619075 6.2680135,16.9171429 14,16.9171429 C21.7319865,16.9171429 28,23.2619075 28,31.0885714" id="Combined-Shape"></path>
                </g>
                <g id="user-decorative-icon" transform="translate(998.374340, 474.869401) rotate(-327.000000) translate(-998.374340, -474.869401) translate(979.874340, 454.369401)">
                    <path d="M18.5,20.6171429 C12.8805027,20.6171429 8.325,16.0018382 8.325,10.3085714 C8.325,4.61530464 12.8805027,0 18.5,0 C24.1194973,0 28.675,4.61530464 28.675,10.3085714 C28.675,16.0018382 24.1194973,20.6171429 18.5,20.6171429 Z M0,41.1171429 C0,30.7657487 8.28273213,22.3742857 18.5,22.3742857 C28.7172679,22.3742857 37,30.7657487 37,41.1171429" id="Combined-Shape"></path>
                </g>
                <g id="user-decorative-icon" opacity="0.9" transform="translate(952.027107, 338.155645) rotate(-307.000000) translate(-952.027107, -338.155645) translate(932.527107, 316.655645)">
                    <path d="M19.5,21.6228571 C13.5767461,21.6228571 8.775,16.7824157 8.775,10.8114286 C8.775,4.84044145 13.5767461,0 19.5,0 C25.4232539,0 30.225,4.84044145 30.225,10.8114286 C30.225,16.7824157 25.4232539,21.6228571 19.5,21.6228571 Z M0,43.1228571 C0,32.2665169 8.73044738,23.4657143 19.5,23.4657143 C30.2695526,23.4657143 39,32.2665169 39,43.1228571" id="Combined-Shape"></path>
                </g>
                <g id="user-decorative-icon" opacity="0.93" transform="translate(989.001694, 40.510439) rotate(-209.000000) translate(-989.001694, -40.510439) translate(972.501694, 22.510439)">
                    <path d="M16.5,18.1028571 C11.4880159,18.1028571 7.425,14.0503945 7.425,9.05142857 C7.425,4.05246261 11.4880159,0 16.5,0 C21.5119841,0 25.575,4.05246261 25.575,9.05142857 C25.575,14.0503945 21.5119841,18.1028571 16.5,18.1028571 Z M0,36.1028571 C0,27.0138281 7.38730163,19.6457143 16.5,19.6457143 C25.6126984,19.6457143 33,27.0138281 33,36.1028571" id="Combined-Shape"></path>
                </g>
                <g id="user-decorative-icon" opacity="0.81" transform="translate(886.145498, 897.502513) rotate(-347.000000) translate(-886.145498, -897.502513) translate(872.645498, 883.002513)">
                    <path d="M13.5,14.5828571 C9.39928573,14.5828571 6.075,11.3183734 6.075,7.29142857 C6.075,3.26448377 9.39928573,0 13.5,0 C17.6007143,0 20.925,3.26448377 20.925,7.29142857 C20.925,11.3183734 17.6007143,14.5828571 13.5,14.5828571 Z M0,29.0828571 C0,21.7611393 6.04415588,15.8257143 13.5,15.8257143 C20.9558441,15.8257143 27,21.7611393 27,29.0828571" id="Combined-Shape"></path>
                </g>
                <g id="user-decorative-icon" opacity="0.77" transform="translate(922.942381, 772.531104) rotate(-65.000000) translate(-922.942381, -772.531104) translate(907.442381, 755.531104)">
                    <path d="M15.5,17.0971429 C10.7917725,17.0971429 6.975,13.2698171 6.975,8.54857143 C6.975,3.8273258 10.7917725,0 15.5,0 C20.2082275,0 24.025,3.8273258 24.025,8.54857143 C24.025,13.2698171 20.2082275,17.0971429 15.5,17.0971429 Z M0,34.0971429 C0,25.5130599 6.93958638,18.5542857 15.5,18.5542857 C24.0604136,18.5542857 31,25.5130599 31,34.0971429" id="Combined-Shape"></path>
                </g>
                <g id="user-decorative-icon" opacity="0.88" transform="translate(918.780366, 486.598683) rotate(-313.000000) translate(-918.780366, -486.598683) translate(901.280366, 467.098683)">
                    <path d="M17.5,19.6114286 C12.1842593,19.6114286 7.875,15.2212607 7.875,9.80571429 C7.875,4.39016782 12.1842593,0 17.5,0 C22.8157407,0 27.125,4.39016782 27.125,9.80571429 C27.125,15.2212607 22.8157407,19.6114286 17.5,19.6114286 Z M0,39.1114286 C0,29.2649805 7.83501688,21.2828571 17.5,21.2828571 C27.1649831,21.2828571 35,29.2649805 35,39.1114286" id="Combined-Shape"></path>
                </g>
                <g id="user-decorative-icon" opacity="0.79" transform="translate(873.944754, 343.798426) rotate(-248.000000) translate(-873.944754, -343.798426) translate(861.944754, 330.298426)">
                    <path d="M12,13.5771429 C8.35492065,13.5771429 5.4,10.5377959 5.4,6.78857143 C5.4,3.03934696 8.35492065,0 12,0 C15.6450793,0 18.6,3.03934696 18.6,6.78857143 C18.6,10.5377959 15.6450793,13.5771429 12,13.5771429 Z M0,27.0771429 C0,20.2603711 5.372583,14.7342857 12,14.7342857 C18.627417,14.7342857 24,20.2603711 24,27.0771429" id="Combined-Shape"></path>
                </g>
                <g id="user-decorative-icon" opacity="0.84" transform="translate(891.172127, 62.627555) rotate(-323.000000) translate(-891.172127, -62.627555) translate(879.172127, 49.127555)">
                    <path d="M12,13.5771429 C8.35492065,13.5771429 5.4,10.5377959 5.4,6.78857143 C5.4,3.03934696 8.35492065,0 12,0 C15.6450793,0 18.6,3.03934696 18.6,6.78857143 C18.6,10.5377959 15.6450793,13.5771429 12,13.5771429 Z M0,27.0771429 C0,20.2603711 5.372583,14.7342857 12,14.7342857 C18.627417,14.7342857 24,20.2603711 24,27.0771429" id="Combined-Shape"></path>
                </g>
                <g id="user-decorative-icon" opacity="0.79" transform="translate(809.041928, 833.001011) rotate(-203.000000) translate(-809.041928, -833.001011) translate(796.041928, 819.001011)">
                    <path d="M13,14.08 C9.05116404,14.08 5.85,10.9280846 5.85,7.04 C5.85,3.15191536 9.05116404,0 13,0 C16.948836,0 20.15,3.15191536 20.15,7.04 C20.15,10.9280846 16.948836,14.08 13,14.08 Z M0,28.08 C0,21.0107552 5.82029825,15.28 13,15.28 C20.1797017,15.28 26,21.0107552 26,28.08" id="Combined-Shape"></path>
                </g>
                <g id="user-decorative-icon" opacity="0.79" transform="translate(843.006902, 762.278625) rotate(-289.000000) translate(-843.006902, -762.278625) translate(829.006902, 746.778625)">
                    <path d="M14,15.5885714 C9.74740743,15.5885714 6.3,12.0989508 6.3,7.79428571 C6.3,3.48962058 9.74740743,0 14,0 C18.2525926,0 21.7,3.48962058 21.7,7.79428571 C21.7,12.0989508 18.2525926,15.5885714 14,15.5885714 Z M0,31.0885714 C0,23.2619075 6.2680135,16.9171429 14,16.9171429 C21.7319865,16.9171429 28,23.2619075 28,31.0885714" id="Combined-Shape"></path>
                </g>
                <g id="user-decorative-icon" opacity="0.74" transform="translate(872.642860, 513.440536) rotate(-151.000000) translate(-872.642860, -513.440536) translate(857.642860, 496.940536)">
                    <path d="M15,16.5942857 C10.4436508,16.5942857 6.75,12.8795283 6.75,8.29714286 C6.75,3.71475739 10.4436508,0 15,0 C19.5563492,0 23.25,3.71475739 23.25,8.29714286 C23.25,12.8795283 19.5563492,16.5942857 15,16.5942857 Z M0,33.0942857 C0,24.7626758 6.71572875,18.0085714 15,18.0085714 C23.2842712,18.0085714 30,24.7626758 30,33.0942857" id="Combined-Shape"></path>
                </g>
                <g id="user-decorative-icon" opacity="0.84" transform="translate(909.072051, 224.321807) rotate(-102.000000) translate(-909.072051, -224.321807) translate(895.072051, 208.821807)">
                    <path d="M14,15.5885714 C9.74740743,15.5885714 6.3,12.0989508 6.3,7.79428571 C6.3,3.48962058 9.74740743,0 14,0 C18.2525926,0 21.7,3.48962058 21.7,7.79428571 C21.7,12.0989508 18.2525926,15.5885714 14,15.5885714 Z M0,31.0885714 C0,23.2619075 6.2680135,16.9171429 14,16.9171429 C21.7319865,16.9171429 28,23.2619075 28,31.0885714" id="Combined-Shape"></path>
                </g>
                <g id="user-decorative-icon" opacity="0.88" transform="translate(821.756986, 32.619766) rotate(-235.000000) translate(-821.756986, -32.619766) translate(804.256986, 13.119766)">
                    <path d="M17.5,19.6114286 C12.1842593,19.6114286 7.875,15.2212607 7.875,9.80571429 C7.875,4.39016782 12.1842593,0 17.5,0 C22.8157407,0 27.125,4.39016782 27.125,9.80571429 C27.125,15.2212607 22.8157407,19.6114286 17.5,19.6114286 Z M0,39.1114286 C0,29.2649805 7.83501688,21.2828571 17.5,21.2828571 C27.1649831,21.2828571 35,29.2649805 35,39.1114286" id="Combined-Shape"></path>
                </g>
                <g id="user-decorative-icon" opacity="0.87" transform="translate(777.304958, 942.251189) rotate(-202.000000) translate(-777.304958, -942.251189) translate(763.804958, 927.251189)">
                    <path d="M13.5,15.0857143 C9.39928573,15.0857143 6.075,11.7086621 6.075,7.54285714 C6.075,3.37705217 9.39928573,0 13.5,0 C17.6007143,0 20.925,3.37705217 20.925,7.54285714 C20.925,11.7086621 17.6007143,15.0857143 13.5,15.0857143 Z M0,30.0857143 C0,22.5115234 6.04415588,16.3714286 13.5,16.3714286 C20.9558441,16.3714286 27,22.5115234 27,30.0857143" id="Combined-Shape"></path>
                </g>
                <g id="user-decorative-icon" opacity="0.9" transform="translate(739.426573, 801.282910) rotate(-33.000000) translate(-739.426573, -801.282910) translate(719.926573, 779.782910)">
                    <path d="M19.5,21.6228571 C13.5767461,21.6228571 8.775,16.7824157 8.775,10.8114286 C8.775,4.84044145 13.5767461,0 19.5,0 C25.4232539,0 30.225,4.84044145 30.225,10.8114286 C30.225,16.7824157 25.4232539,21.6228571 19.5,21.6228571 Z M0,43.1228571 C0,32.2665169 8.73044738,23.4657143 19.5,23.4657143 C30.2695526,23.4657143 39,32.2665169 39,43.1228571" id="Combined-Shape"></path>
                </g>
                <g id="user-decorative-icon" opacity="0.72" transform="translate(829.302715, 265.033462) rotate(-337.000000) translate(-829.302715, -265.033462) translate(812.802715, 247.033462)">
                    <path d="M16.5,18.1028571 C11.4880159,18.1028571 7.425,14.0503945 7.425,9.05142857 C7.425,4.05246261 11.4880159,0 16.5,0 C21.5119841,0 25.575,4.05246261 25.575,9.05142857 C25.575,14.0503945 21.5119841,18.1028571 16.5,18.1028571 Z M0,36.1028571 C0,27.0138281 7.38730163,19.6457143 16.5,19.6457143 C25.6126984,19.6457143 33,27.0138281 33,36.1028571" id="Combined-Shape"></path>
                </g>
                <g id="user-decorative-icon" opacity="0.96" transform="translate(846.226666, 162.056859) rotate(-270.000000) translate(-846.226666, -162.056859) translate(829.226666, 143.556859)">
                    <path d="M17,18.6057143 C11.8361376,18.6057143 7.65,14.4406833 7.65,9.30285714 C7.65,4.16503101 11.8361376,0 17,0 C22.1638624,0 26.35,4.16503101 26.35,9.30285714 C26.35,14.4406833 22.1638624,18.6057143 17,18.6057143 Z M0,37.1057143 C0,27.7642122 7.61115925,20.1914286 17,20.1914286 C26.3888407,20.1914286 34,27.7642122 34,37.1057143" id="Combined-Shape"></path>
                </g>
                <g id="user-decorative-icon" opacity="0.91" transform="translate(706.105424, 888.402135) rotate(-308.000000) translate(-706.105424, -888.402135) translate(691.605424, 872.902135)">
                    <path d="M14.5,15.5885714 C10.0955291,15.5885714 6.525,12.0989508 6.525,7.79428571 C6.525,3.48962058 10.0955291,0 14.5,0 C18.9044709,0 22.475,3.48962058 22.475,7.79428571 C22.475,12.0989508 18.9044709,15.5885714 14.5,15.5885714 Z M0,31.0885714 C0,23.2619075 6.49187113,16.9171429 14.5,16.9171429 C22.5081289,16.9171429 29,23.2619075 29,31.0885714" id="Combined-Shape"></path>
                </g>
                <g id="user-decorative-icon" opacity="0.79" transform="translate(670.130008, 715.649518) rotate(-76.000000) translate(-670.130008, -715.649518) translate(655.630008, 699.649518)">
                    <path d="M14.5,16.0914286 C10.0955291,16.0914286 6.525,12.4892396 6.525,8.04571429 C6.525,3.60218898 10.0955291,0 14.5,0 C18.9044709,0 22.475,3.60218898 22.475,8.04571429 C22.475,12.4892396 18.9044709,16.0914286 14.5,16.0914286 Z M0,32.0914286 C0,24.0122917 6.49187113,17.4628571 14.5,17.4628571 C22.5081289,17.4628571 29,24.0122917 29,32.0914286" id="Combined-Shape"></path>
                </g>
                <g id="user-decorative-icon" opacity="0.96" transform="translate(686.584952, 498.994234) rotate(-148.000000) translate(-686.584952, -498.994234) translate(671.584952, 482.494234)">
                    <path d="M15,16.5942857 C10.4436508,16.5942857 6.75,12.8795283 6.75,8.29714286 C6.75,3.71475739 10.4436508,0 15,0 C19.5563492,0 23.25,3.71475739 23.25,8.29714286 C23.25,12.8795283 19.5563492,16.5942857 15,16.5942857 Z M0,33.0942857 C0,24.7626758 6.71572875,18.0085714 15,18.0085714 C23.2842712,18.0085714 30,24.7626758 30,33.0942857" id="Combined-Shape"></path>
                </g>
                <g id="user-decorative-icon" opacity="0.89" transform="translate(846.012322, 341.075951) rotate(-28.000000) translate(-846.012322, -341.075951) translate(833.012322, 326.575951)">
                    <path d="M13,14.5828571 C9.05116404,14.5828571 5.85,11.3183734 5.85,7.29142857 C5.85,3.26448377 9.05116404,0 13,0 C16.948836,0 20.15,3.26448377 20.15,7.29142857 C20.15,11.3183734 16.948836,14.5828571 13,14.5828571 Z M0,29.0828571 C0,21.7611393 5.82029825,15.8257143 13,15.8257143 C20.1797017,15.8257143 26,21.7611393 26,29.0828571" id="Combined-Shape"></path>
                </g>
                <g id="user-decorative-icon" opacity="0.75" transform="translate(681.469373, 39.701219) rotate(-80.000000) translate(-681.469373, -39.701219) translate(666.969373, 23.701219)">
                    <path d="M14.5,16.0914286 C10.0955291,16.0914286 6.525,12.4892396 6.525,8.04571429 C6.525,3.60218898 10.0955291,0 14.5,0 C18.9044709,0 22.475,3.60218898 22.475,8.04571429 C22.475,12.4892396 18.9044709,16.0914286 14.5,16.0914286 Z M0,32.0914286 C0,24.0122917 6.49187113,17.4628571 14.5,17.4628571 C22.5081289,17.4628571 29,24.0122917 29,32.0914286" id="Combined-Shape"></path>
                </g>
                <g id="user-decorative-icon" opacity="0.79" transform="translate(613.976346, 967.331244) rotate(-357.000000) translate(-613.976346, -967.331244) translate(599.976346, 952.331244)">
                    <path d="M14,15.0857143 C9.74740743,15.0857143 6.3,11.7086621 6.3,7.54285714 C6.3,3.37705217 9.74740743,0 14,0 C18.2525926,0 21.7,3.37705217 21.7,7.54285714 C21.7,11.7086621 18.2525926,15.0857143 14,15.0857143 Z M0,30.0857143 C0,22.5115234 6.2680135,16.3714286 14,16.3714286 C21.7319865,16.3714286 28,22.5115234 28,30.0857143" id="Combined-Shape"></path>
                </g>
                <g id="user-decorative-icon" opacity="0.89" transform="translate(627.017496, 690.520237) rotate(-266.000000) translate(-627.017496, -690.520237) translate(609.517496, 671.020237)">
                    <path d="M17.5,19.6114286 C12.1842593,19.6114286 7.875,15.2212607 7.875,9.80571429 C7.875,4.39016782 12.1842593,0 17.5,0 C22.8157407,0 27.125,4.39016782 27.125,9.80571429 C27.125,15.2212607 22.8157407,19.6114286 17.5,19.6114286 Z M0,39.1114286 C0,29.2649805 7.83501688,21.2828571 17.5,21.2828571 C27.1649831,21.2828571 35,29.2649805 35,39.1114286" id="Combined-Shape"></path>
                </g>
                <g id="user-decorative-icon" opacity="0.93" transform="translate(640.769222, 592.077584) rotate(-287.000000) translate(-640.769222, -592.077584) translate(622.269222, 572.077584)">
                    <path d="M18.5,20.1142857 C12.8805027,20.1142857 8.325,15.6115495 8.325,10.0571429 C8.325,4.50273623 12.8805027,0 18.5,0 C24.1194973,0 28.675,4.50273623 28.675,10.0571429 C28.675,15.6115495 24.1194973,20.1142857 18.5,20.1142857 Z M0,40.1142857 C0,30.0153646 8.28273213,21.8285714 18.5,21.8285714 C28.7172679,21.8285714 37,30.0153646 37,40.1142857" id="Combined-Shape"></path>
                </g>
                <g id="user-decorative-icon" opacity="0.95" transform="translate(622.690397, 394.232983) rotate(-25.000000) translate(-622.690397, -394.232983) translate(607.690397, 377.732983)">
                    <path d="M15,16.5942857 C10.4436508,16.5942857 6.75,12.8795283 6.75,8.29714286 C6.75,3.71475739 10.4436508,0 15,0 C19.5563492,0 23.25,3.71475739 23.25,8.29714286 C23.25,12.8795283 19.5563492,16.5942857 15,16.5942857 Z M0,33.0942857 C0,24.7626758 6.71572875,18.0085714 15,18.0085714 C23.2842712,18.0085714 30,24.7626758 30,33.0942857" id="Combined-Shape"></path>
                </g>
                <g id="user-decorative-icon" opacity="0.72" transform="translate(602.508103, 137.393395) rotate(-217.000000) translate(-602.508103, -137.393395) translate(586.008103, 119.393395)">
                    <path d="M16.5,18.1028571 C11.4880159,18.1028571 7.425,14.0503945 7.425,9.05142857 C7.425,4.05246261 11.4880159,0 16.5,0 C21.5119841,0 25.575,4.05246261 25.575,9.05142857 C25.575,14.0503945 21.5119841,18.1028571 16.5,18.1028571 Z M0,36.1028571 C0,27.0138281 7.38730163,19.6457143 16.5,19.6457143 C25.6126984,19.6457143 33,27.0138281 33,36.1028571" id="Combined-Shape"></path>
                </g>
                <g id="user-decorative-icon" opacity="0.7" transform="translate(526.235163, 976.969190) rotate(-290.000000) translate(-526.235163, -976.969190) translate(506.735163, 955.469190)">
                    <path d="M19.5,21.6228571 C13.5767461,21.6228571 8.775,16.7824157 8.775,10.8114286 C8.775,4.84044145 13.5767461,0 19.5,0 C25.4232539,0 30.225,4.84044145 30.225,10.8114286 C30.225,16.7824157 25.4232539,21.6228571 19.5,21.6228571 Z M0,43.1228571 C0,32.2665169 8.73044738,23.4657143 19.5,23.4657143 C30.2695526,23.4657143 39,32.2665169 39,43.1228571" id="Combined-Shape"></path>
                </g>
                <g id="user-decorative-icon" opacity="0.85" transform="translate(530.465373, 768.607262) rotate(-296.000000) translate(-530.465373, -768.607262) translate(513.965373, 750.607262)">
                    <path d="M16.5,18.1028571 C11.4880159,18.1028571 7.425,14.0503945 7.425,9.05142857 C7.425,4.05246261 11.4880159,0 16.5,0 C21.5119841,0 25.575,4.05246261 25.575,9.05142857 C25.575,14.0503945 21.5119841,18.1028571 16.5,18.1028571 Z M0,36.1028571 C0,27.0138281 7.38730163,19.6457143 16.5,19.6457143 C25.6126984,19.6457143 33,27.0138281 33,36.1028571" id="Combined-Shape"></path>
                </g>
                <g id="user-decorative-icon" opacity="0.84" transform="translate(533.884446, 424.931806) rotate(-342.000000) translate(-533.884446, -424.931806) translate(518.884446, 408.431806)">
                    <path d="M15,16.5942857 C10.4436508,16.5942857 6.75,12.8795283 6.75,8.29714286 C6.75,3.71475739 10.4436508,0 15,0 C19.5563492,0 23.25,3.71475739 23.25,8.29714286 C23.25,12.8795283 19.5563492,16.5942857 15,16.5942857 Z M0,33.0942857 C0,24.7626758 6.71572875,18.0085714 15,18.0085714 C23.2842712,18.0085714 30,24.7626758 30,33.0942857" id="Combined-Shape"></path>
                </g>
                <g id="user-decorative-icon" opacity="0.85" transform="translate(534.359260, 268.691957) rotate(-148.000000) translate(-534.359260, -268.691957) translate(515.359260, 248.191957)">
                    <path d="M19,20.6171429 C13.2286244,20.6171429 8.55,16.0018382 8.55,10.3085714 C8.55,4.61530464 13.2286244,0 19,0 C24.7713756,0 29.45,4.61530464 29.45,10.3085714 C29.45,16.0018382 24.7713756,20.6171429 19,20.6171429 Z M0,41.1171429 C0,30.7657487 8.50658975,22.3742857 19,22.3742857 C29.4934102,22.3742857 38,30.7657487 38,41.1171429" id="Combined-Shape"></path>
                </g>
                <g id="user-decorative-icon" opacity="0.85" transform="translate(540.797611, 18.298299) rotate(-317.000000) translate(-540.797611, -18.298299) translate(528.797611, 5.298299)">
                    <path d="M12,13.0742857 C8.35492065,13.0742857 5.4,10.1475072 5.4,6.53714286 C5.4,2.92677855 8.35492065,0 12,0 C15.6450793,0 18.6,2.92677855 18.6,6.53714286 C18.6,10.1475072 15.6450793,13.0742857 12,13.0742857 Z M0,26.0742857 C0,19.509987 5.372583,14.1885714 12,14.1885714 C18.627417,14.1885714 24,19.509987 24,26.0742857" id="Combined-Shape"></path>
                </g>
                <g id="user-decorative-icon" opacity="0.79" transform="translate(493.164561, 936.356617) rotate(-128.000000) translate(-493.164561, -936.356617) translate(474.664561, 916.356617)">
                    <path d="M18.5,20.1142857 C12.8805027,20.1142857 8.325,15.6115495 8.325,10.0571429 C8.325,4.50273623 12.8805027,0 18.5,0 C24.1194973,0 28.675,4.50273623 28.675,10.0571429 C28.675,15.6115495 24.1194973,20.1142857 18.5,20.1142857 Z M0,40.1142857 C0,30.0153646 8.28273213,21.8285714 18.5,21.8285714 C28.7172679,21.8285714 37,30.0153646 37,40.1142857" id="Combined-Shape"></path>
                </g>
                <g id="user-decorative-icon" opacity="0.72" transform="translate(447.692889, 772.195302) rotate(-77.000000) translate(-447.692889, -772.195302) translate(430.192889, 753.195302)">
                    <path d="M17.5,19.1085714 C12.1842593,19.1085714 7.875,14.830972 7.875,9.55428571 C7.875,4.27759942 12.1842593,0 17.5,0 C22.8157407,0 27.125,4.27759942 27.125,9.55428571 C27.125,14.830972 22.8157407,19.1085714 17.5,19.1085714 Z M0,38.1085714 C0,28.5145963 7.83501688,20.7371429 17.5,20.7371429 C27.1649831,20.7371429 35,28.5145963 35,38.1085714" id="Combined-Shape"></path>
                </g>
                <g id="user-decorative-icon" opacity="0.84" transform="translate(469.027842, 456.443541) rotate(-186.000000) translate(-469.027842, -456.443541) translate(453.527842, 439.943541)">
                    <path d="M15.5,16.5942857 C10.7917725,16.5942857 6.975,12.8795283 6.975,8.29714286 C6.975,3.71475739 10.7917725,0 15.5,0 C20.2082275,0 24.025,3.71475739 24.025,8.29714286 C24.025,12.8795283 20.2082275,16.5942857 15.5,16.5942857 Z M0,33.0942857 C0,24.7626758 6.93958638,18.0085714 15.5,18.0085714 C24.0604136,18.0085714 31,24.7626758 31,33.0942857" id="Combined-Shape"></path>
                </g>
                <g id="user-decorative-icon" opacity="0.72" transform="translate(495.304521, 257.756036) rotate(-68.000000) translate(-495.304521, -257.756036) translate(476.804521, 237.756036)">
                    <path d="M18.5,20.1142857 C12.8805027,20.1142857 8.325,15.6115495 8.325,10.0571429 C8.325,4.50273623 12.8805027,0 18.5,0 C24.1194973,0 28.675,4.50273623 28.675,10.0571429 C28.675,15.6115495 24.1194973,20.1142857 18.5,20.1142857 Z M0,40.1142857 C0,30.0153646 8.28273213,21.8285714 18.5,21.8285714 C28.7172679,21.8285714 37,30.0153646 37,40.1142857" id="Combined-Shape"></path>
                </g>
                <g id="user-decorative-icon" opacity="0.72" transform="translate(476.158956, 54.126975) rotate(-200.000000) translate(-476.158956, -54.126975) translate(459.658956, 36.126975)">
                    <path d="M16.5,18.1028571 C11.4880159,18.1028571 7.425,14.0503945 7.425,9.05142857 C7.425,4.05246261 11.4880159,0 16.5,0 C21.5119841,0 25.575,4.05246261 25.575,9.05142857 C25.575,14.0503945 21.5119841,18.1028571 16.5,18.1028571 Z M0,36.1028571 C0,27.0138281 7.38730163,19.6457143 16.5,19.6457143 C25.6126984,19.6457143 33,27.0138281 33,36.1028571" id="Combined-Shape"></path>
                </g>
                <g id="user-decorative-icon" opacity="0.93" transform="translate(376.303484, 852.287156) rotate(-255.000000) translate(-376.303484, -852.287156) translate(361.303484, 835.787156)">
                    <path d="M15,16.5942857 C10.4436508,16.5942857 6.75,12.8795283 6.75,8.29714286 C6.75,3.71475739 10.4436508,0 15,0 C19.5563492,0 23.25,3.71475739 23.25,8.29714286 C23.25,12.8795283 19.5563492,16.5942857 15,16.5942857 Z M0,33.0942857 C0,24.7626758 6.71572875,18.0085714 15,18.0085714 C23.2842712,18.0085714 30,24.7626758 30,33.0942857" id="Combined-Shape"></path>
                </g>
                <g id="user-decorative-icon" opacity="0.96" transform="translate(380.493568, 685.306920) rotate(-351.000000) translate(-380.493568, -685.306920) translate(367.993568, 671.806920)">
                    <path d="M12.5,13.5771429 C8.70304235,13.5771429 5.625,10.5377959 5.625,6.78857143 C5.625,3.03934696 8.70304235,0 12.5,0 C16.2969577,0 19.375,3.03934696 19.375,6.78857143 C19.375,10.5377959 16.2969577,13.5771429 12.5,13.5771429 Z M0,27.0771429 C0,20.2603711 5.59644063,14.7342857 12.5,14.7342857 C19.4035594,14.7342857 25,20.2603711 25,27.0771429" id="Combined-Shape"></path>
                </g>
                <g id="user-decorative-icon" opacity="0.85" transform="translate(375.767461, 447.106595) rotate(-246.000000) translate(-375.767461, -447.106595) translate(360.767461, 430.606595)">
                    <path d="M15,16.5942857 C10.4436508,16.5942857 6.75,12.8795283 6.75,8.29714286 C6.75,3.71475739 10.4436508,0 15,0 C19.5563492,0 23.25,3.71475739 23.25,8.29714286 C23.25,12.8795283 19.5563492,16.5942857 15,16.5942857 Z M0,33.0942857 C0,24.7626758 6.71572875,18.0085714 15,18.0085714 C23.2842712,18.0085714 30,24.7626758 30,33.0942857" id="Combined-Shape"></path>
                </g>
                <g id="user-decorative-icon" opacity="0.7" transform="translate(374.182054, 261.084709) rotate(-279.000000) translate(-374.182054, -261.084709) translate(360.682054, 246.084709)">
                    <path d="M13.5,15.0857143 C9.39928573,15.0857143 6.075,11.7086621 6.075,7.54285714 C6.075,3.37705217 9.39928573,0 13.5,0 C17.6007143,0 20.925,3.37705217 20.925,7.54285714 C20.925,11.7086621 17.6007143,15.0857143 13.5,15.0857143 Z M0,30.0857143 C0,22.5115234 6.04415588,16.3714286 13.5,16.3714286 C20.9558441,16.3714286 27,22.5115234 27,30.0857143" id="Combined-Shape"></path>
                </g>
                <g id="user-decorative-icon" opacity="0.79" transform="translate(383.377793, 62.284407) rotate(-312.000000) translate(-383.377793, -62.284407) translate(369.377793, 46.784407)">
                    <path d="M14,15.5885714 C9.74740743,15.5885714 6.3,12.0989508 6.3,7.79428571 C6.3,3.48962058 9.74740743,0 14,0 C18.2525926,0 21.7,3.48962058 21.7,7.79428571 C21.7,12.0989508 18.2525926,15.5885714 14,15.5885714 Z M0,31.0885714 C0,23.2619075 6.2680135,16.9171429 14,16.9171429 C21.7319865,16.9171429 28,23.2619075 28,31.0885714" id="Combined-Shape"></path>
                </g>
                <g id="user-decorative-icon" opacity="0.78" transform="translate(304.474619, 985.539589) rotate(-259.000000) translate(-304.474619, -985.539589) translate(292.474619, 972.539589)">
                    <path d="M12,13.0742857 C8.35492065,13.0742857 5.4,10.1475072 5.4,6.53714286 C5.4,2.92677855 8.35492065,0 12,0 C15.6450793,0 18.6,2.92677855 18.6,6.53714286 C18.6,10.1475072 15.6450793,13.0742857 12,13.0742857 Z M0,26.0742857 C0,19.509987 5.372583,14.1885714 12,14.1885714 C18.627417,14.1885714 24,19.509987 24,26.0742857" id="Combined-Shape"></path>
                </g>
                <g id="user-decorative-icon" opacity="0.95" transform="translate(314.680488, 751.364543) rotate(-208.000000) translate(-314.680488, -751.364543) translate(295.180488, 730.364543)">
                    <path d="M19.5,21.12 C13.5767461,21.12 8.775,16.392127 8.775,10.56 C8.775,4.72787304 13.5767461,0 19.5,0 C25.4232539,0 30.225,4.72787304 30.225,10.56 C30.225,16.392127 25.4232539,21.12 19.5,21.12 Z M0,42.12 C0,31.5161328 8.73044738,22.92 19.5,22.92 C30.2695526,22.92 39,31.5161328 39,42.12" id="Combined-Shape"></path>
                </g>
                <g id="user-decorative-icon" opacity="0.97" transform="translate(322.473142, 438.826742) rotate(-191.000000) translate(-322.473142, -438.826742) translate(307.973142, 422.826742)">
                    <path d="M14.5,16.0914286 C10.0955291,16.0914286 6.525,12.4892396 6.525,8.04571429 C6.525,3.60218898 10.0955291,0 14.5,0 C18.9044709,0 22.475,3.60218898 22.475,8.04571429 C22.475,12.4892396 18.9044709,16.0914286 14.5,16.0914286 Z M0,32.0914286 C0,24.0122917 6.49187113,17.4628571 14.5,17.4628571 C22.5081289,17.4628571 29,24.0122917 29,32.0914286" id="Combined-Shape"></path>
                </g>
                <g id="user-decorative-icon" opacity="0.74" transform="translate(334.546510, 322.342121) rotate(-217.000000) translate(-334.546510, -322.342121) translate(322.546510, 308.842121)">
                    <path d="M12,13.5771429 C8.35492065,13.5771429 5.4,10.5377959 5.4,6.78857143 C5.4,3.03934696 8.35492065,0 12,0 C15.6450793,0 18.6,3.03934696 18.6,6.78857143 C18.6,10.5377959 15.6450793,13.5771429 12,13.5771429 Z M0,27.0771429 C0,20.2603711 5.372583,14.7342857 12,14.7342857 C18.627417,14.7342857 24,20.2603711 24,27.0771429" id="Combined-Shape"></path>
                </g>
                <g id="user-decorative-icon" opacity="0.9" transform="translate(334.795227, 132.814558) rotate(-97.000000) translate(-334.795227, -132.814558) translate(322.795227, 119.814558)">
                    <path d="M12,13.0742857 C8.35492065,13.0742857 5.4,10.1475072 5.4,6.53714286 C5.4,2.92677855 8.35492065,0 12,0 C15.6450793,0 18.6,2.92677855 18.6,6.53714286 C18.6,10.1475072 15.6450793,13.0742857 12,13.0742857 Z M0,26.0742857 C0,19.509987 5.372583,14.1885714 12,14.1885714 C18.627417,14.1885714 24,19.509987 24,26.0742857" id="Combined-Shape"></path>
                </g>
                <g id="user-decorative-icon" opacity="0.71" transform="translate(261.698671, 925.884623) rotate(-304.000000) translate(-261.698671, -925.884623) translate(243.698671, 906.384623)">
                    <path d="M18,19.6114286 C12.532381,19.6114286 8.1,15.2212607 8.1,9.80571429 C8.1,4.39016782 12.532381,0 18,0 C23.467619,0 27.9,4.39016782 27.9,9.80571429 C27.9,15.2212607 23.467619,19.6114286 18,19.6114286 Z M0,39.1114286 C0,29.2649805 8.0588745,21.2828571 18,21.2828571 C27.9411255,21.2828571 36,29.2649805 36,39.1114286" id="Combined-Shape"></path>
                </g>
                <g id="user-decorative-icon" opacity="0.79" transform="translate(273.152651, 665.904147) rotate(-256.000000) translate(-273.152651, -665.904147) translate(254.652651, 645.404147)">
                    <path d="M18.5,20.6171429 C12.8805027,20.6171429 8.325,16.0018382 8.325,10.3085714 C8.325,4.61530464 12.8805027,0 18.5,0 C24.1194973,0 28.675,4.61530464 28.675,10.3085714 C28.675,16.0018382 24.1194973,20.6171429 18.5,20.6171429 Z M0,41.1171429 C0,30.7657487 8.28273213,22.3742857 18.5,22.3742857 C28.7172679,22.3742857 37,30.7657487 37,41.1171429" id="Combined-Shape"></path>
                </g>
                <g id="user-decorative-icon" opacity="0.81" transform="translate(253.886976, 599.303817) rotate(-48.000000) translate(-253.886976, -599.303817) translate(234.886976, 578.803817)">
                    <path d="M19,20.6171429 C13.2286244,20.6171429 8.55,16.0018382 8.55,10.3085714 C8.55,4.61530464 13.2286244,0 19,0 C24.7713756,0 29.45,4.61530464 29.45,10.3085714 C29.45,16.0018382 24.7713756,20.6171429 19,20.6171429 Z M0,41.1171429 C0,30.7657487 8.50658975,22.3742857 19,22.3742857 C29.4934102,22.3742857 38,30.7657487 38,41.1171429" id="Combined-Shape"></path>
                </g>
                <g id="user-decorative-icon" opacity="0.99" transform="translate(231.150743, 264.602704) rotate(-345.000000) translate(-231.150743, -264.602704) translate(214.150743, 245.602704)">
                    <path d="M17,19.1085714 C11.8361376,19.1085714 7.65,14.830972 7.65,9.55428571 C7.65,4.27759942 11.8361376,0 17,0 C22.1638624,0 26.35,4.27759942 26.35,9.55428571 C26.35,14.830972 22.1638624,19.1085714 17,19.1085714 Z M0,38.1085714 C0,28.5145963 7.61115925,20.7371429 17,20.7371429 C26.3888407,20.7371429 34,28.5145963 34,38.1085714" id="Combined-Shape"></path>
                </g>
                <g id="user-decorative-icon" opacity="0.85" transform="translate(249.233595, 121.412091) rotate(-349.000000) translate(-249.233595, -121.412091) translate(235.733595, 106.412091)">
                    <path d="M13.5,15.0857143 C9.39928573,15.0857143 6.075,11.7086621 6.075,7.54285714 C6.075,3.37705217 9.39928573,0 13.5,0 C17.6007143,0 20.925,3.37705217 20.925,7.54285714 C20.925,11.7086621 17.6007143,15.0857143 13.5,15.0857143 Z M0,30.0857143 C0,22.5115234 6.04415588,16.3714286 13.5,16.3714286 C20.9558441,16.3714286 27,22.5115234 27,30.0857143" id="Combined-Shape"></path>
                </g>
                <g id="user-decorative-icon" opacity="0.77" transform="translate(157.253047, 828.339996) rotate(-290.000000) translate(-157.253047, -828.339996) translate(143.753047, 813.839996)">
                    <path d="M13.5,14.5828571 C9.39928573,14.5828571 6.075,11.3183734 6.075,7.29142857 C6.075,3.26448377 9.39928573,0 13.5,0 C17.6007143,0 20.925,3.26448377 20.925,7.29142857 C20.925,11.3183734 17.6007143,14.5828571 13.5,14.5828571 Z M0,29.0828571 C0,21.7611393 6.04415588,15.8257143 13.5,15.8257143 C20.9558441,15.8257143 27,21.7611393 27,29.0828571" id="Combined-Shape"></path>
                </g>
                <g id="user-decorative-icon" opacity="0.96" transform="translate(165.124938, 732.670923) rotate(-11.000000) translate(-165.124938, -732.670923) translate(147.624938, 713.170923)">
                    <path d="M17.5,19.6114286 C12.1842593,19.6114286 7.875,15.2212607 7.875,9.80571429 C7.875,4.39016782 12.1842593,0 17.5,0 C22.8157407,0 27.125,4.39016782 27.125,9.80571429 C27.125,15.2212607 22.8157407,19.6114286 17.5,19.6114286 Z M0,39.1114286 C0,29.2649805 7.83501688,21.2828571 17.5,21.2828571 C27.1649831,21.2828571 35,29.2649805 35,39.1114286" id="Combined-Shape"></path>
                </g>
                <g id="user-decorative-icon" opacity="0.92" transform="translate(191.929637, 576.946189) rotate(-223.000000) translate(-191.929637, -576.946189) translate(174.929637, 558.446189)">
                    <path d="M17,18.6057143 C11.8361376,18.6057143 7.65,14.4406833 7.65,9.30285714 C7.65,4.16503101 11.8361376,0 17,0 C22.1638624,0 26.35,4.16503101 26.35,9.30285714 C26.35,14.4406833 22.1638624,18.6057143 17,18.6057143 Z M0,37.1057143 C0,27.7642122 7.61115925,20.1914286 17,20.1914286 C26.3888407,20.1914286 34,27.7642122 34,37.1057143" id="Combined-Shape"></path>
                </g>
                <g id="user-decorative-icon" opacity="0.77" transform="translate(178.838067, 397.804017) rotate(-350.000000) translate(-178.838067, -397.804017) translate(164.838067, 382.804017)">
                    <path d="M14,15.0857143 C9.74740743,15.0857143 6.3,11.7086621 6.3,7.54285714 C6.3,3.37705217 9.74740743,0 14,0 C18.2525926,0 21.7,3.37705217 21.7,7.54285714 C21.7,11.7086621 18.2525926,15.0857143 14,15.0857143 Z M0,30.0857143 C0,22.5115234 6.2680135,16.3714286 14,16.3714286 C21.7319865,16.3714286 28,22.5115234 28,30.0857143" id="Combined-Shape"></path>
                </g>
                <g id="user-decorative-icon" opacity="0.83" transform="translate(177.583761, 30.605537) rotate(-237.000000) translate(-177.583761, -30.605537) translate(159.583761, 11.105537)">
                    <path d="M18,19.6114286 C12.532381,19.6114286 8.1,15.2212607 8.1,9.80571429 C8.1,4.39016782 12.532381,0 18,0 C23.467619,0 27.9,4.39016782 27.9,9.80571429 C27.9,15.2212607 23.467619,19.6114286 18,19.6114286 Z M0,39.1114286 C0,29.2649805 8.0588745,21.2828571 18,21.2828571 C27.9411255,21.2828571 36,29.2649805 36,39.1114286" id="Combined-Shape"></path>
                </g>
                <g id="user-decorative-icon" opacity="0.78" transform="translate(115.125385, 990.067001) rotate(-254.000000) translate(-115.125385, -990.067001) translate(98.625385, 971.567001)">
                    <path d="M16.5,18.6057143 C11.4880159,18.6057143 7.425,14.4406833 7.425,9.30285714 C7.425,4.16503101 11.4880159,0 16.5,0 C21.5119841,0 25.575,4.16503101 25.575,9.30285714 C25.575,14.4406833 21.5119841,18.6057143 16.5,18.6057143 Z M0,37.1057143 C0,27.7642122 7.38730163,20.1914286 16.5,20.1914286 C25.6126984,20.1914286 33,27.7642122 33,37.1057143" id="Combined-Shape"></path>
                </g>
                <g id="user-decorative-icon" opacity="0.8" transform="translate(100.400902, 698.374115) rotate(-159.000000) translate(-100.400902, -698.374115) translate(82.900902, 679.374115)">
                    <path d="M17.5,19.1085714 C12.1842593,19.1085714 7.875,14.830972 7.875,9.55428571 C7.875,4.27759942 12.1842593,0 17.5,0 C22.8157407,0 27.125,4.27759942 27.125,9.55428571 C27.125,14.830972 22.8157407,19.1085714 17.5,19.1085714 Z M0,38.1085714 C0,28.5145963 7.83501688,20.7371429 17.5,20.7371429 C27.1649831,20.7371429 35,28.5145963 35,38.1085714" id="Combined-Shape"></path>
                </g>
                <g id="user-decorative-icon" opacity="0.79" transform="translate(87.555179, 429.147942) rotate(-146.000000) translate(-87.555179, -429.147942) translate(68.555179, 408.147942)">
                    <path d="M19,21.12 C13.2286244,21.12 8.55,16.392127 8.55,10.56 C8.55,4.72787304 13.2286244,0 19,0 C24.7713756,0 29.45,4.72787304 29.45,10.56 C29.45,16.392127 24.7713756,21.12 19,21.12 Z M0,42.12 C0,31.5161328 8.50658975,22.92 19,22.92 C29.4934102,22.92 38,31.5161328 38,42.12" id="Combined-Shape"></path>
                </g>
                <g id="user-decorative-icon" opacity="0.85" transform="translate(89.693760, 264.273315) rotate(-221.000000) translate(-89.693760, -264.273315) translate(72.693760, 245.773315)">
                    <path d="M17,18.6057143 C11.8361376,18.6057143 7.65,14.4406833 7.65,9.30285714 C7.65,4.16503101 11.8361376,0 17,0 C22.1638624,0 26.35,4.16503101 26.35,9.30285714 C26.35,14.4406833 22.1638624,18.6057143 17,18.6057143 Z M0,37.1057143 C0,27.7642122 7.61115925,20.1914286 17,20.1914286 C26.3888407,20.1914286 34,27.7642122 34,37.1057143" id="Combined-Shape"></path>
                </g>
                <g id="user-decorative-icon" opacity="0.73" transform="translate(126.018805, 174.139006) rotate(-248.000000) translate(-126.018805, -174.139006) translate(113.518805, 160.639006)">
                    <path d="M12.5,13.5771429 C8.70304235,13.5771429 5.625,10.5377959 5.625,6.78857143 C5.625,3.03934696 8.70304235,0 12.5,0 C16.2969577,0 19.375,3.03934696 19.375,6.78857143 C19.375,10.5377959 16.2969577,13.5771429 12.5,13.5771429 Z M0,27.0771429 C0,20.2603711 5.59644063,14.7342857 12.5,14.7342857 C19.4035594,14.7342857 25,20.2603711 25,27.0771429" id="Combined-Shape"></path>
                </g>
                <g id="user-decorative-icon" opacity="0.97" transform="translate(46.637659, 996.978011) rotate(-226.000000) translate(-46.637659, -996.978011) translate(30.137659, 978.978011)">
                    <path d="M16.5,18.1028571 C11.4880159,18.1028571 7.425,14.0503945 7.425,9.05142857 C7.425,4.05246261 11.4880159,0 16.5,0 C21.5119841,0 25.575,4.05246261 25.575,9.05142857 C25.575,14.0503945 21.5119841,18.1028571 16.5,18.1028571 Z M0,36.1028571 C0,27.0138281 7.38730163,19.6457143 16.5,19.6457143 C25.6126984,19.6457143 33,27.0138281 33,36.1028571" id="Combined-Shape"></path>
                </g>
                <g id="user-decorative-icon" opacity="0.89" transform="translate(18.520544, 696.588939) rotate(-317.000000) translate(-18.520544, -696.588939) translate(6.520544, 683.588939)">
                    <path d="M12,13.0742857 C8.35492065,13.0742857 5.4,10.1475072 5.4,6.53714286 C5.4,2.92677855 8.35492065,0 12,0 C15.6450793,0 18.6,2.92677855 18.6,6.53714286 C18.6,10.1475072 15.6450793,13.0742857 12,13.0742857 Z M0,26.0742857 C0,19.509987 5.372583,14.1885714 12,14.1885714 C18.627417,14.1885714 24,19.509987 24,26.0742857" id="Combined-Shape"></path>
                </g>
                <g id="user-decorative-icon" opacity="0.85" transform="translate(61.565999, 488.059946) rotate(-39.000000) translate(-61.565999, -488.059946) translate(46.065999, 471.059946)">
                    <path d="M15.5,17.0971429 C10.7917725,17.0971429 6.975,13.2698171 6.975,8.54857143 C6.975,3.8273258 10.7917725,0 15.5,0 C20.2082275,0 24.025,3.8273258 24.025,8.54857143 C24.025,13.2698171 20.2082275,17.0971429 15.5,17.0971429 Z M0,34.0971429 C0,25.5130599 6.93958638,18.5542857 15.5,18.5542857 C24.0604136,18.5542857 31,25.5130599 31,34.0971429" id="Combined-Shape"></path>
                </g>
                <g id="user-decorative-icon" opacity="0.72" transform="translate(52.840815, 392.337971) rotate(-63.000000) translate(-52.840815, -392.337971) translate(36.340815, 374.337971)">
                    <path d="M16.5,18.1028571 C11.4880159,18.1028571 7.425,14.0503945 7.425,9.05142857 C7.425,4.05246261 11.4880159,0 16.5,0 C21.5119841,0 25.575,4.05246261 25.575,9.05142857 C25.575,14.0503945 21.5119841,18.1028571 16.5,18.1028571 Z M0,36.1028571 C0,27.0138281 7.38730163,19.6457143 16.5,19.6457143 C25.6126984,19.6457143 33,27.0138281 33,36.1028571" id="Combined-Shape"></path>
                </g>
                <g id="user-decorative-icon" opacity="0.86" transform="translate(53.414552, 147.772335) rotate(-192.000000) translate(-53.414552, -147.772335) translate(39.414552, 132.272335)">
                    <path d="M14,15.5885714 C9.74740743,15.5885714 6.3,12.0989508 6.3,7.79428571 C6.3,3.48962058 9.74740743,0 14,0 C18.2525926,0 21.7,3.48962058 21.7,7.79428571 C21.7,12.0989508 18.2525926,15.5885714 14,15.5885714 Z M0,31.0885714 C0,23.2619075 6.2680135,16.9171429 14,16.9171429 C21.7319865,16.9171429 28,23.2619075 28,31.0885714" id="Combined-Shape"></path>
                </g>
            </g>
        </g>
    </g>
</svg>