<?xml version="1.0" encoding="UTF-8"?>
<svg width="19px" height="25px" viewBox="0 0 19 25" version="1.1" xmlns="http://www.w3.org/2000/svg" xmlns:xlink="http://www.w3.org/1999/xlink">
    <!-- Generator: sketchtool 50.2 (55047) - http://www.bohemiancoding.com/sketch -->
    <title>658D91FA-F0E2-43D9-9E4C-42A3884CC623</title>
    <desc>Created with sketchtool.</desc>
    <defs></defs>
    <g id="-wip" stroke="none" stroke-width="1" fill="none" fill-rule="evenodd">
        <g id="io.italia.it---preview" transform="translate(-1124.000000, -110.000000)" fill="#FFFFFF" fill-rule="nonzero">
            <g id="Group-16" transform="translate(1094.000000, 98.000000)">
                <path d="M46.8036908,15.5575 C48.2405197,17.4199375 49,19.9481406 49,22.8689219 C49,24.4079688 48.785187,25.9681563 48.3832542,27.4559219 L44.3235723,28.2819531 L43.3280822,35.165125 C42.3772618,35.7742188 41.3559752,36.1507188 40.2940495,36.2761094 L40.2940495,31.7576875 L41.9006424,31.7576875 L41.9006424,30.1876563 L40.2940495,30.1876563 C40.2940495,18.0625521 40.2940495,12 40.2940495,12 C41.9006424,12.2761562 41.8935883,12.3771385 43.4794471,13 C44.2679126,13.3096775 44.5590131,13.5236406 45.0426981,13.8650781 L45.0426981,19.4430625 L46.6310342,19.4430625 L46.6310342,15.3415 C46.6895032,15.4124219 46.7472118,15.4842912 46.8036908,15.5575 Z M43.9030509,26.1649844 C45.1623864,26.1649844 46.186945,25.1522031 46.186945,23.9073906 C46.186945,22.6625781 45.1623864,21.6497969 43.9030509,21.6497969 C42.6437153,21.6497969 41.6191567,22.6625781 41.6191567,23.9073906 C41.6191567,25.1522031 42.6437153,26.1649844 43.9030509,26.1649844 Z M43.9030509,23.2198281 C44.2865846,23.2198281 44.5986563,23.5283125 44.5986563,23.9073906 C44.5986563,24.2865156 44.286632,24.5949531 43.9030509,24.5949531 C43.5194697,24.5949531 43.2074455,24.2865156 43.2074455,23.9073906 C43.2074455,23.5282656 43.5194697,23.2198281 43.9030509,23.2198281 Z M45.7378767,29.5971719 L47.8230806,29.1729062 C47.4502638,30.1404062 46.9951731,31.0570937 46.4651587,31.8920781 C46.060523,32.5295312 45.6228355,33.1027187 45.1575969,33.6092031 L45.7378767,29.5971719 Z M38.7059505,12 C38.7059505,12 38.7059347,18.0625677 38.7059031,30.1877031 L37.0993576,30.1877031 L37.0993576,31.7577344 L38.7059505,31.7577344 L38.7059505,36.2761562 C37.6440248,36.1507656 36.6226908,35.7743594 35.6719178,35.1651719 L34.6764277,28.282 L30.6167458,27.4559687 C30.2147656,25.96825 30,24.4080156 30,22.8689687 C30,19.9481875 30.7594329,17.4199844 32.1962618,15.5575469 C32.252834,15.4842812 32.3104494,15.4124687 32.3689658,15.3415469 L32.3689658,19.4430625 L33.9572545,19.4430625 L33.9572545,13.865125 C34.4408921,13.5236875 34.7320403,13.309732 35.5205054,13.0000469 C37.1063646,12.3771695 37.0993576,12.2761562 38.7059505,12 Z M35.0969017,26.1649844 C36.3562372,26.1649844 37.3807959,25.1522031 37.3807959,23.9073906 C37.3807959,22.6625781 36.3562372,21.6497969 35.0969017,21.6497969 C33.8375662,21.6497969 32.8130076,22.6625312 32.8130076,23.9073906 C32.8130076,25.15225 33.8375662,26.1649844 35.0969017,26.1649844 Z M35.0969017,23.2198281 C35.4804829,23.2198281 35.7925071,23.5283125 35.7925071,23.9073906 C35.7925071,24.2865156 35.4804829,24.5949531 35.0969017,24.5949531 C34.7133206,24.5949531 34.4012963,24.2865156 34.4012963,23.9073906 C34.4012963,23.5282656 34.7133206,23.2198281 35.0969017,23.2198281 Z M33.2620759,29.5971719 L33.8423556,33.6092031 C33.3771171,33.1027187 32.9394296,32.5295781 32.5347939,31.8920781 C32.0047794,31.0570937 31.5496888,30.1404062 31.176872,29.1729062 L33.2620759,29.5971719 Z" id="droid"></path>
            </g>
        </g>
    </g>
</svg>