<?xml version="1.0" encoding="UTF-8"?>
<svg width="19px" height="18px" viewBox="0 0 19 18" version="1.1" xmlns="http://www.w3.org/2000/svg" xmlns:xlink="http://www.w3.org/1999/xlink">
    <!-- Generator: sketchtool 49.3 (51167) - http://www.bohemiancoding.com/sketch -->
    <title>C538E6D3-A684-49CD-9982-CD1EFA3DD9CB</title>
    <desc>Created with sketchtool.</desc>
    <defs></defs>
    <g id="-wip" stroke="none" stroke-width="1" fill="none" fill-rule="evenodd">
        <g id="io.italia.it---preview" transform="translate(-665.000000, -423.000000)" fill="#0073E6" fill-rule="nonzero">
            <g id="section-navigation" transform="translate(664.000000, 417.000000)">
                <g id="sections-icons" transform="translate(0.000000, 6.000000)">
                    <path d="M17.4385592,0 L3.56178239,0 C2.14912351,0 1,1.1273848 1,2.51331949 L1,11.6987681 C1,13.0843118 2.14912351,14.2120876 3.56178239,14.2120876 L3.85897147,14.2120876 L3.83118295,18 L9.41952207,14.2120876 L17.4382176,14.2120876 C18.8504778,14.2120876 19.9999999,13.0843118 19.9999999,11.6987681 L19.9999999,2.51331949 C20.0002847,1.1273848 18.8508195,0 17.4385592,0 Z M19.2683875,11.6987123 C19.2683875,12.6886098 18.4475443,13.4939245 17.4385592,13.4939245 L9.19146262,13.4939245 L4.57332997,16.6237302 L4.59639216,13.4935893 L3.56178239,13.4935893 C2.55279728,13.4935893 1.7319541,12.6882746 1.7319541,11.6983771 L1.7319541,2.51331949 C1.7319541,1.52342201 2.55279728,0.718107245 3.56178239,0.718107245 L17.4381606,0.718107245 C18.4471457,0.718107245 19.2679889,1.52342201 19.2679889,2.51331949 L19.2679889,11.6987681 L19.2683875,11.6987681 L19.2683875,11.6987123 Z M7.87725937,6.88967309 C7.87725937,7.48459483 7.38577845,7.96683396 6.77932823,7.96683396 C6.17287801,7.96683396 5.68139709,7.4846507 5.68139709,6.88967309 C5.68139709,6.29469548 6.17287801,5.81256809 6.77932823,5.81256809 C7.38577845,5.81256809 7.87725937,6.29475135 7.87725937,6.88967309 Z M11.5980735,6.88967309 C11.5980735,7.48459483 11.1069342,7.96683396 10.5001423,7.96683396 C9.89409072,7.96683396 9.40221119,7.4846507 9.40221119,6.88967309 C9.40221119,6.29469548 9.89409072,5.81256809 10.5001423,5.81256809 C11.1069342,5.81256809 11.5980735,6.29475135 11.5980735,6.88967309 Z M15.318489,7.00922727 C15.318489,7.60414901 14.8273497,8.08638814 14.2205578,8.08638814 C13.6145062,8.08638814 13.1226267,7.60420488 13.1226267,7.00922727 C13.1226267,6.41424967 13.6145062,5.93212227 14.2205578,5.93212227 C14.8273497,5.93212227 15.318489,6.41430553 15.318489,7.00922727 Z" id="icon-messages"></path>
                </g>
            </g>
        </g>
    </g>
</svg>