<?xml version="1.0" encoding="UTF-8"?>
<svg width="16px" height="19px" viewBox="0 0 16 19" version="1.1" xmlns="http://www.w3.org/2000/svg" xmlns:xlink="http://www.w3.org/1999/xlink">
    <!-- Generator: sketchtool 49.3 (51167) - http://www.bohemiancoding.com/sketch -->
    <title>B0236B20-7A47-477E-BCBA-30818C7C3404</title>
    <desc>Created with sketchtool.</desc>
    <defs></defs>
    <g id="-wip" stroke="none" stroke-width="1" fill="none" fill-rule="evenodd">
        <g id="io.italia.it---preview" transform="translate(-665.000000, -504.000000)" fill="#0073E6" fill-rule="nonzero">
            <g id="section-navigation" transform="translate(664.000000, 417.000000)">
                <g id="sections-icons" transform="translate(0.000000, 6.000000)">
                    <path d="M16.8839742,85.7078346 L12.1912403,81.1135916 C12.1169095,81.0408573 12.0161971,81 11.9111636,81 L2.92486846,81 C1.86346547,81 1,81.8454241 1,82.8845588 L1,98.1154783 C1,99.1545759 1.86350337,100 2.92490636,100 L15.0750936,100 C16.1364966,100 17,99.154613 17,98.1154783 L17,85.9820352 C16.9999621,85.8792053 16.9582292,85.7805688 16.8839742,85.7078346 Z M12.3073419,82.3240228 L15.6477555,85.5943172 L13.4401191,85.5943172 C13.1374893,85.5943172 12.8529778,85.4789444 12.6390445,85.2694995 C12.4250734,85.0600917 12.307304,84.7815864 12.3073419,84.4853428 L12.3073419,82.3240228 Z M16.207833,98.1154412 C16.207833,98.7269654 15.6996847,99.2244527 15.0750936,99.2244527 L2.92486846,99.2244527 C2.30023951,99.2244527 1.79209122,98.7269654 1.79209122,98.1154412 L1.79209122,82.8845588 C1.79212912,82.2730346 2.30027741,81.7755102 2.92486846,81.7755102 L11.5152128,81.7755102 L11.5152128,84.4852686 C11.5151369,84.9886563 11.7153487,85.4619112 12.0788912,85.8178265 C12.4424716,86.173779 12.9258682,86.3697903 13.4400812,86.3697903 L16.2077951,86.3697903 L16.2077951,98.1154412 L16.207833,98.1154412 Z M11.6718343,94.6513991 L4.57246519,94.6513991 C4.35375598,94.6513991 4.17640063,94.8249964 4.17640063,95.0391542 C4.17640063,95.253312 4.35375598,95.4269093 4.57246519,95.4269093 L11.6718343,95.4269093 C11.8905435,95.4269093 12.0678989,95.253312 12.0678989,95.0391542 C12.0678989,94.8249964 11.8905435,94.6513991 11.6718343,94.6513991 Z M11.6718343,92.0864041 L4.57246519,92.0864041 C4.35375598,92.0864041 4.17640063,92.2600014 4.17640063,92.4741592 C4.17640063,92.688317 4.35375598,92.8619143 4.57246519,92.8619143 L11.6718343,92.8619143 C11.8905435,92.8619143 12.0678989,92.688317 12.0678989,92.4741592 C12.0678989,92.2600014 11.8905435,92.0864041 11.6718343,92.0864041 Z M11.6718343,89.5214091 L4.57246519,89.5214091 C4.35375598,89.5214091 4.17640063,89.6950065 4.17640063,89.9091642 C4.17640063,90.123322 4.35375598,90.2969193 4.57246519,90.2969193 L11.6718343,90.2969193 C11.8905435,90.2969193 12.0678989,90.123322 12.0678989,89.9091642 C12.0678989,89.6950065 11.8905435,89.5214091 11.6718343,89.5214091 Z M9.38209695,87.1417751 L4.45147368,87.1417751 C4.29957671,87.1417751 4.17640063,87.3153724 4.17640063,87.5295302 C4.17640063,87.743688 4.29957671,87.9172853 4.45147368,87.9172853 L9.38209695,87.9172853 C9.53399392,87.9172853 9.65717,87.743688 9.65717,87.5295302 C9.65717,87.3153724 9.53399392,87.1417751 9.38209695,87.1417751 Z" id="icon-document"></path>
                </g>
            </g>
        </g>
    </g>
</svg>