<?xml version="1.0" encoding="UTF-8"?>
<svg width="16px" height="17px" viewBox="0 0 16 17" version="1.1" xmlns="http://www.w3.org/2000/svg" xmlns:xlink="http://www.w3.org/1999/xlink">
    <!-- Generator: sketchtool 49.3 (51167) - http://www.bohemiancoding.com/sketch -->
    <title>D7010CCC-21FC-4336-B900-583FAB113CD3</title>
    <desc>Created with sketchtool.</desc>
    <defs></defs>
    <g id="-wip" stroke="none" stroke-width="1" fill="none" fill-rule="evenodd">
        <g id="io.italia.it---preview" transform="translate(-665.000000, -589.000000)" fill="#0073E6" fill-rule="nonzero">
            <g id="section-navigation" transform="translate(664.000000, 417.000000)">
                <g id="sections-icons" transform="translate(0.000000, 6.000000)">
                    <path d="M9,173.791667 C11.0083082,173.791667 12.6363636,172.206008 12.6363636,170.25 C12.6363636,168.293992 11.0083082,166.708333 9,166.708333 C6.99169182,166.708333 5.36363636,168.293992 5.36363636,170.25 C5.36363636,172.206008 6.99169182,173.791667 9,173.791667 Z M9,174.5 C6.59003018,174.5 4.63636364,172.59721 4.63636364,170.25 C4.63636364,167.90279 6.59003018,166 9,166 C11.4099698,166 13.3636364,167.90279 13.3636364,170.25 C13.3636364,172.59721 11.4099698,174.5 9,174.5 Z M16.2727273,183 C16.2727273,179.087983 13.0166164,175.916667 9,175.916667 C4.98338364,175.916667 1.72727273,179.087983 1.72727273,183 L1,183 C1,178.696781 4.581722,175.208333 9,175.208333 C13.418278,175.208333 17,178.696781 17,183 L16.2727273,183 Z M17,183 L16.2727273,183 C16.2727273,179.087983 13.0166164,175.916667 9,175.916667 C4.98338364,175.916667 1.72727273,179.087983 1.72727273,183 L1,183 C1,178.696781 4.581722,175.208333 9,175.208333 C13.418278,175.208333 17,178.696781 17,183 Z" id="icon-user"></path>
                </g>
            </g>
        </g>
    </g>
</svg>