<?xml version="1.0" encoding="UTF-8"?>
<svg width="19px" height="19px" viewBox="0 0 19 19" version="1.1" xmlns="http://www.w3.org/2000/svg" xmlns:xlink="http://www.w3.org/1999/xlink">
    <!-- Generator: sketchtool 49.3 (51167) - http://www.bohemiancoding.com/sketch -->
    <title>A20AA140-831F-4B7C-B8F5-60A5A85A7BA6</title>
    <desc>Created with sketchtool.</desc>
    <defs></defs>
    <g id="-wip" stroke="none" stroke-width="1" fill="none" fill-rule="evenodd">
        <g id="io.italia.it---preview" transform="translate(-665.000000, -461.000000)" fill="#0073E6" fill-rule="nonzero">
            <g id="section-navigation" transform="translate(664.000000, 417.000000)">
                <g id="sections-icons" transform="translate(0.000000, 6.000000)">
                    <path d="M20,46.8509807 L19.0791578,46.8509807 L19.0791578,42.6575747 C19.0791578,41.6522444 18.2529961,40.8343745 17.2374734,40.8343745 L15.990293,40.8343745 L14.7139979,38.562665 C14.5194788,38.2154887 14.1492964,38 13.7478214,38 C13.5606956,38 13.37506,38.0477729 13.2111458,38.1378152 L8.3129783,40.8343178 L2.84168439,40.8343178 C1.82616171,40.8343178 1,41.6521877 1,42.657518 L1,55.1767998 C1,56.1821301 1.82616171,57 2.84168439,57 L17.2374734,57 C18.2529961,57 19.0791578,56.1821301 19.0791578,55.1767998 L19.0791578,51.5001015 L20,51.5001015 L20,46.8509807 Z M17.2374734,41.5636206 C17.8046966,41.5636206 18.2680693,41.9902292 18.3303108,42.5360999 L16.946096,42.5360999 L16.4001931,41.5636206 L17.2374734,41.5636206 Z M13.5695217,38.7752034 C13.742262,38.6793171 13.9747221,38.7463807 14.0700903,38.9167065 L16.1033136,42.5357595 L6.73796962,42.5357595 L13.5695217,38.7752034 Z M18.3424611,55.1767998 C18.3424611,55.7799185 17.8466495,56.270754 17.2374161,56.270754 L2.84168439,56.270754 C2.23245102,56.270754 1.73663937,55.7799185 1.73663937,55.1767998 L1.73663937,42.6575747 C1.73663937,42.054456 2.23245102,41.5636206 2.84168439,41.5636206 L6.98842586,41.5636206 L5.22187835,42.5361567 L3.07190927,42.5361567 C2.86822014,42.5361567 2.70356092,42.6995037 2.70356092,42.9008081 C2.70356092,43.1021124 2.86822014,43.2654595 3.07190927,43.2654595 L3.89698204,43.2654595 L17.3557094,43.2654595 L18.3424611,43.2654595 L18.3424611,46.8513211 L15.6488243,46.8513211 C14.3979186,46.8513211 13.3798742,47.8592046 13.3798742,49.0974988 L13.3798742,49.254321 C13.3798742,50.4926719 14.397976,51.5004987 15.6488243,51.5004987 L18.3424611,51.5004987 L18.3424611,55.1767998 Z M19.2633033,50.7708555 L19.0791578,50.7708555 L15.6488243,50.7708555 C14.8038641,50.7708555 14.1165136,50.0904603 14.1165136,49.2539238 L14.1165136,49.0971016 C14.1165136,48.2606218 14.8038068,47.58017 15.6488243,47.58017 L19.0791578,47.58017 L19.2633033,47.58017 L19.2633033,50.7708555 Z M16.7770237,49.2054701 C16.7770237,49.6503482 16.4130884,50.0105741 15.9637573,50.0105741 C15.5143689,50.0105741 15.1504909,49.6502915 15.1504909,49.2054701 C15.1504909,48.7606487 15.5144262,48.4003661 15.9637573,48.4003661 C16.4131457,48.4003094 16.7770237,48.7609324 16.7770237,49.2054701 Z" id="icon-wallet"></path>
                </g>
            </g>
        </g>
    </g>
</svg>