<?xml version="1.0" encoding="UTF-8"?>
<svg width="48px" height="44px" viewBox="0 0 48 44" version="1.1" xmlns="http://www.w3.org/2000/svg" xmlns:xlink="http://www.w3.org/1999/xlink">
    <!-- Generator: sketchtool 50.2 (55047) - http://www.bohemiancoding.com/sketch -->
    <title>94F59CD9-1F3B-4B53-9E3A-7E8EBA7BCFB2</title>
    <desc>Created with sketchtool.</desc>
    <defs></defs>
    <g id="-wip" stroke="none" stroke-width="1" fill="none" fill-rule="evenodd">
        <g id="io.italia.it---preview---giornalisti" transform="translate(-935.000000, -1091.000000)" fill="#0073E6" fill-rule="nonzero">
            <path d="M981.624788,1112.45088 C982.388795,1112.45088 983,1113.06549 983,1113.81108 L983,1126.18388 C983,1131.0403 979.006791,1135 974.086587,1135 L943.913413,1135 C939.003396,1135 935,1131.05038 935,1126.18388 L935,1113.60957 C935,1112.8539 935.611205,1112.24937 936.375212,1112.24937 C937.139219,1112.24937 937.750424,1112.8539 937.750424,1113.60957 L937.750424,1126.18388 C937.750424,1129.53904 940.511036,1132.2796 943.913413,1132.2796 L974.086587,1132.2796 C977.478778,1132.2796 980.249576,1129.54912 980.249576,1126.18388 L980.249576,1113.81108 C980.249576,1113.05542 980.860781,1112.45088 981.624788,1112.45088 Z M958.032258,1124.19899 L949.281834,1115.55416 C948.741935,1115.02015 948.741935,1114.16373 949.281834,1113.62972 C949.821732,1113.09572 950.687606,1113.09572 951.227504,1113.62972 L957.624788,1119.95718 L957.624788,1092.3602 C957.624788,1091.60453 958.235993,1091 959,1091 C959.764007,1091 960.375212,1091.60453 960.375212,1092.3602 L960.375212,1119.95718 L966.762309,1113.62972 C967.302207,1113.09572 968.168081,1113.09572 968.70798,1113.62972 C969.247878,1114.16373 969.247878,1115.02015 968.70798,1115.55416 L959.967742,1124.19899 C959.702886,1124.47103 959.34635,1124.60202 959,1124.60202 C958.65365,1124.60202 958.297114,1124.46096 958.032258,1124.19899 Z" id="download-copy-6"></path>
        </g>
    </g>
</svg>