<?xml version="1.0" encoding="UTF-8"?>
<svg width="48px" height="48px" viewBox="0 0 48 48" version="1.1" xmlns="http://www.w3.org/2000/svg" xmlns:xlink="http://www.w3.org/1999/xlink">
    <!-- Generator: sketchtool 50.2 (55047) - http://www.bohemiancoding.com/sketch -->
    <title>A6924650-3BC6-4024-B500-6DE7BBC36FAB</title>
    <desc>Created with sketchtool.</desc>
    <defs></defs>
    <g id="-wip" stroke="none" stroke-width="1" fill="none" fill-rule="evenodd">
        <g id="io.italia.it---preview---giornalisti" transform="translate(-532.000000, -2907.000000)">
            <g id="Group-2-Copy" transform="translate(128.000000, 2744.000000)">
                <g id="zoom-button-copy" transform="translate(404.000000, 163.000000)">
                    <rect id="Rectangle-2" fill="#0073E6" x="0" y="0" width="48" height="48"></rect>
                    <path d="M27.879516,26.8188558 L32.8682179,31.8075577 C33.1611111,32.1004509 33.1611111,32.5753246 32.8682179,32.8682179 C32.5753246,33.1611111 32.1004509,33.1611111 31.8075577,32.8682179 L26.8188558,27.879516 C25.5719483,28.8927338 23.9818915,29.5 22.25,29.5 C18.2459356,29.5 15,26.2540644 15,22.25 C15,18.2459356 18.2459356,15 22.25,15 C26.2540644,15 29.5,18.2459356 29.5,22.25 C29.5,23.9818915 28.8927338,25.5719483 27.879516,26.8188558 Z M22.25,28 C25.4256373,28 28,25.4256373 28,22.25 C28,19.0743627 25.4256373,16.5 22.25,16.5 C19.0743627,16.5 16.5,19.0743627 16.5,22.25 C16.5,25.4256373 19.0743627,28 22.25,28 Z" id="Combined-Shape" fill="#FFFFFF" fill-rule="nonzero"></path>
                </g>
            </g>
        </g>
    </g>
</svg>