<?xml version="1.0" encoding="UTF-8"?>
<svg width="19px" height="19px" viewBox="0 0 19 19" version="1.1" xmlns="http://www.w3.org/2000/svg" xmlns:xlink="http://www.w3.org/1999/xlink">
    <!-- Generator: sketchtool 49.3 (51167) - http://www.bohemiancoding.com/sketch -->
    <title>AFFEF8FE-FE2A-49A0-91E7-BC73C091ABBB</title>
    <desc>Created with sketchtool.</desc>
    <defs></defs>
    <g id="-wip" stroke="none" stroke-width="1" fill="none" fill-rule="evenodd">
        <g id="io.italia.it---preview" transform="translate(-664.000000, -546.000000)" fill="#0073E6" fill-rule="nonzero">
            <g id="section-navigation" transform="translate(664.000000, 417.000000)">
                <g id="sections-icons" transform="translate(0.000000, 6.000000)">
                    <path d="M18.2663637,130.619324 L16.6476641,130.619324 C16.4830622,129.998031 16.2363875,129.401948 15.9116324,128.840771 L17.0754238,127.676951 C17.3605969,127.39103 17.3605969,126.926243 17.0750816,126.640322 L15.4519904,125.017192 C15.1752584,124.740453 14.6925174,124.739712 14.4149869,125.017192 L13.2592374,126.172969 C12.6884919,125.838681 12.0811302,125.585384 11.4462779,125.417128 L11.4462779,123.733141 C11.4462779,123.328812 11.1174733,123 10.7131549,123 L8.41745439,123 C8.01313597,123 7.68433139,123.328812 7.68433139,123.733141 L7.68433139,125.417128 C7.0392128,125.587951 6.42341001,125.845982 5.84644779,126.186886 L4.6306408,124.970993 C4.35350958,124.693855 3.8711678,124.693855 3.59403658,124.970993 L1.97094536,126.594123 C1.68503081,126.880044 1.68503081,127.344831 1.97094536,127.630752 L3.20551675,128.865353 C2.8869784,129.419971 2.64503754,130.007898 2.48265997,130.619324 L0.733123006,130.619324 C0.328804584,130.619324 0,130.948136 0,131.352464 L0,133.647878 C0,134.052206 0.328804584,134.381018 0.733123006,134.381018 L2.48231777,134.381018 C2.6505699,135.015145 2.90386064,135.623319 3.23853979,136.194021 L2.01720044,137.415048 C1.87866335,137.553588 1.80240806,137.737986 1.80275027,137.934075 C1.80275027,138.129823 1.87900556,138.313821 2.01720044,138.451677 L3.64063386,140.075549 C3.91776508,140.352687 4.40010686,140.352687 4.67723808,140.075549 L5.90667635,138.846081 C6.46749777,139.170844 7.06316734,139.417524 7.6848447,139.58213 L7.6848447,141.266859 C7.6848447,141.671188 8.01364929,142 8.41796771,142 L10.7136682,142 C11.1179866,142 11.4467912,141.671188 11.4467912,141.266859 L11.4467912,139.58213 C12.0585445,139.420091 12.6461722,139.177802 13.2000354,138.859655 L14.3693592,140.029007 C14.6468326,140.305746 15.12849,140.305404 15.4059634,140.028665 L17.0290546,138.405535 C17.3149692,138.120013 17.3149692,137.654428 17.0290546,137.368906 L15.8788375,136.218661 C16.2197334,135.641685 16.4774158,135.025525 16.6485767,134.380334 L18.266877,134.380334 C18.6711954,134.380334 19,134.051522 19,133.647193 L19,131.35178 C18.9994867,130.948136 18.6703399,130.619324 18.2663637,130.619324 Z M18.2663637,133.647878 L16.0655688,133.647878 L16.0018041,133.934883 C15.8332098,134.695857 15.5318959,135.415765 15.1063035,136.074132 L14.9457511,136.323037 L16.5105529,137.887876 L14.8871195,139.511006 L13.3090856,137.932592 L13.0612702,138.088016 C12.4216269,138.489777 11.7277437,138.775299 11.0001531,138.936597 L10.7131549,139.000363 L10.7138963,141.267202 L8.41745439,141.267202 L8.41745439,139.000363 L8.13045619,138.936597 C7.39294152,138.773132 6.6921001,138.483161 6.04624007,138.074099 L5.79808244,137.916851 L4.15850821,139.557206 L2.53507479,137.933334 L4.1695159,136.299595 L4.0100471,136.051089 C3.59107078,135.396772 3.29414855,134.684564 3.12812077,133.93494 L3.06435606,133.647935 L0.733123006,133.647935 L0.733123006,131.352521 L3.06475531,131.352521 L3.12852001,131.065516 C3.28941467,130.33825 3.57532922,129.64475 3.97708109,129.003608 L4.13250043,128.756186 L2.48927599,127.112466 L4.11236721,125.489336 L5.74281589,127.119824 L5.99171497,126.959267 C6.65006559,126.533665 7.36955732,126.232401 8.13057026,126.063403 L8.41756846,125.999637 L8.41756846,123.733141 L10.713269,123.733141 L10.713269,125.99958 L11.0002672,126.063004 C11.7509568,126.229435 12.4628059,126.526364 13.1160234,126.944951 L13.3645233,127.104424 L14.9333746,125.535535 L16.556808,127.159007 L14.9828236,128.73303 L15.1397258,128.980851 C15.5484359,129.627126 15.8387421,130.328326 16.0022033,131.065459 L16.065968,131.352464 L18.2667629,131.352464 L18.2667629,133.647878 L18.2663637,133.647878 Z M9.56516205,128.727155 C7.48459615,128.727155 5.7922649,130.419584 5.7922649,132.500143 C5.7922649,134.580359 7.48465318,136.272446 9.56516205,136.272446 C11.6453287,136.272446 13.337717,134.580416 13.337717,132.500143 C13.337717,130.419584 11.6453857,128.727155 9.56516205,128.727155 Z M9.56516205,135.539305 C7.88891457,135.539305 6.52533088,134.175689 6.52533088,132.500143 C6.52533088,130.823855 7.88891457,129.460238 9.56516205,129.460238 C11.2410103,129.460238 12.604594,130.823855 12.604594,132.500143 C12.604651,134.175746 11.2414095,135.539305 9.56516205,135.539305 Z" id="icon-settings"></path>
                </g>
            </g>
        </g>
    </g>
</svg>