<?xml version="1.0" encoding="UTF-8"?>
<svg width="33px" height="28px" viewBox="0 0 33 28" version="1.1" xmlns="http://www.w3.org/2000/svg" xmlns:xlink="http://www.w3.org/1999/xlink">
    <defs></defs>
    <g id="-wip" stroke="none" stroke-width="1" fill="none" fill-rule="evenodd">
        <g id="io.italia.it---preview" transform="translate(-704.000000, -984.000000)" fill="#0073E6">
            <g id="main-navigation" transform="translate(0.000000, 969.000000)">
                <path d="M726.606954,42.0888889 C720.060385,42.0888889 715.174603,37.1725713 715.174603,31.1079861 C715.174603,25.043401 720.060385,20.1270833 726.606954,20.1270833 C732.114218,20.1270833 737,25.043401 737,31.1079861 C737,37.1725713 732.114218,42.0888889 726.606954,42.0888889 Z M705.350042,24.7111111 L709.253133,24.7111111 C709.718215,24.7111111 710.095238,25.0881345 710.095238,25.5532164 L710.095238,40.9690058 C710.095238,41.4340877 709.718215,41.8111111 709.253133,41.8111111 L705.350042,41.8111111 C704.88496,41.8111111 704.507937,41.4340877 704.507937,40.9690058 L704.507937,25.5532164 C704.507937,25.0881345 704.88496,24.7111111 705.350042,24.7111111 Z M707.301587,21.6444444 C705.478171,21.6444444 704,20.1570349 704,18.3222222 C704,16.4874096 705.478171,15 707.301587,15 C709.125004,15 710.603175,16.4874096 710.603175,18.3222222 C710.603175,20.1570349 709.125004,21.6444444 707.301587,21.6444444 Z" id="io-logo-temp-blue"></path>
            </g>
        </g>
    </g>
</svg>