<?xml version="1.0" encoding="iso-8859-1"?>
<svg version="1.1" xmlns="http://www.w3.org/2000/svg" xmlns:xlink="http://www.w3.org/1999/xlink" x="0px" y="0px" viewBox="0 0 286.054 286.054" xml:space="preserve">
	<path style="fill:#FFF;" d="M181.224,91.886c-1.689,1.698-2.548,3.924-2.548,6.15s0.858,4.452,2.548,6.15 c10.298,10.334,16.537,24.055,16.537,38.671c0,14.598-6.231,28.328-16.537,38.653c-3.388,3.406-3.388,8.903,0,12.309 c3.388,3.388,8.886,3.388,12.273,0c13.588-13.614,21.07-31.716,21.07-50.962c0-19.255-7.491-37.366-21.07-50.971 C190.119,88.489,184.612,88.489,181.224,91.886z M131.397,100.074l-26.826,16.278H89.285c-9.779,0-8.85,7.974-8.85,17.78v17.789 c0,9.824-0.93,17.78,8.85,17.78h15.116l26.996,16.359c5.9,3.629,11.719,0.697,11.719-6.499v-73.006 C143.116,99.368,137.297,96.454,131.397,100.074z M143.027,0C64.031,0,0,64.04,0,143.027c0,78.996,64.031,143.027,143.027,143.027 c78.987,0,143.027-64.031,143.027-143.027C286.054,64.049,222.014,0,143.027,0z M143.027,259.236 c-64.183,0-116.209-52.026-116.209-116.209S78.844,26.818,143.027,26.818s116.209,52.026,116.209,116.209 S207.21,259.236,143.027,259.236z M175.271,113.134c-3.281-3.281-8.608-3.281-11.889,0c-1.645,1.645-2.458,4.407-2.458,6.722 c0,2.306,0.822,3.513,2.458,5.149c4.747,4.747,7.643,11.049,7.643,17.762s-2.896,13.024-7.643,17.762 c-3.281,3.281-3.281,8.591,0,11.871c3.281,3.272,8.608,3.272,11.907,0c7.929-7.92,12.291-18.433,12.291-29.633 C187.58,131.576,183.218,121.045,175.271,113.134z"/>
</svg>
