<?xml version="1.0" encoding="UTF-8"?>
<svg width="47px" height="30px" viewBox="0 0 47 30" version="1.1" xmlns="http://www.w3.org/2000/svg" xmlns:xlink="http://www.w3.org/1999/xlink">
    <title>4FBB1441-A77A-40F6-8671-E9F99913829F</title>
    <g id="Pagine-Foglia" stroke="none" stroke-width="1" fill="none" fill-rule="evenodd">
        <g id="Pagina-Metodi-di-pagamento-MVP" transform="translate(-257.000000, -6722.000000)" fill-rule="nonzero">
            <g id="Group-10" transform="translate(0.000000, 927.000000)">
                <g id="Group-8" transform="translate(256.000000, 5795.000000)">
                    <g id="ic-applepay" transform="translate(1.000000, 0.000000)">
                        <path d="M42.6503972,0 L4.19523962,0 C4.03507925,0 3.87463585,0 3.71476132,0.000933962264 C3.57961698,0.00189622642 3.44478679,0.00339622642 3.3099566,0.0070754717 C3.0159,0.0150283019 2.71932453,0.0323773585 2.42894717,0.0845660377 C2.1339283,0.137660377 1.8594,0.224264151 1.59157925,0.360622642 C1.32828679,0.494518868 1.08723962,0.669650943 0.878346226,0.878632075 C0.669362264,1.08761321 0.494230189,1.32826415 0.360362264,1.59183962 C0.223975472,1.85966038 0.137315094,2.13427358 0.0845886792,2.42951887 C0.0321198113,2.71998113 0.014654717,3.0165 0.00673018868,3.31024528 C0.00310754717,3.44507547 0.00155377358,3.57990566 0.000673584906,3.71470755 C1.13207547e-06,3.87492453 1.13207547e-06,4.0350283 1.13207547e-06,4.1955283 L1.13207547e-06,25.7949057 C1.13207547e-06,25.9554057 1.13207547e-06,26.1152292 0.000673584906,26.2757575 C0.00155377358,26.4105594 0.00310754717,26.5453896 0.00673018868,26.6802198 C0.014654717,26.9737075 0.0321198113,27.2702264 0.0845886792,27.5606038 C0.137315094,27.8559623 0.223975472,28.1304623 0.360362264,28.3983113 C0.494230189,28.6618868 0.669362264,28.9028491 0.878346226,29.1115189 C1.08723962,29.3208396 1.32828679,29.4959434 1.59157925,29.6295 C1.8594,29.7662264 2.1339283,29.8528585 2.42894717,29.9059245 C2.71932453,29.9577736 3.0159,29.975434 3.3099566,29.9833868 C3.44478679,29.9864434 3.57961698,29.9882547 3.71476132,29.9888774 C3.87463585,29.9901226 4.03507925,29.9901226 4.19523962,29.9901226 L42.6503972,29.9901226 C42.8102745,29.9901226 42.9707208,29.9901226 43.1305642,29.9888774 C43.2653972,29.9882547 43.4002302,29.9864434 43.5356774,29.9833868 C43.8291113,29.975434 44.1256302,29.9577736 44.4167179,29.9059245 C44.7113406,29.8528585 44.9859255,29.7662264 45.2537745,29.6295 C45.51735,29.4959434 45.7576896,29.3208396 45.9670132,29.1115189 C46.1756547,28.9028491 46.350784,28.6618868 46.4849943,28.3983113 C46.6216896,28.1304623 46.7082651,27.8559623 46.7607368,27.5606038 C46.8132368,27.2702264 46.8302745,26.9737075 46.8382274,26.6802198 C46.8419066,26.5453896 46.8437208,26.4105594 46.8443434,26.2757575 C46.8455858,26.1152292 46.8455858,25.9554085 46.8455858,25.7949057 L46.8455858,4.1955283 C46.8455858,4.0350283 46.8455858,3.87492453 46.8443434,3.71470755 C46.8437208,3.57990566 46.8419066,3.44507547 46.8382274,3.31024528 C46.8302717,3.0165 46.8132368,2.71998113 46.7607368,2.42951887 C46.7082679,2.13427358 46.6216896,1.85966038 46.4849943,1.59183962 C46.350784,1.32826415 46.1756547,1.08761321 45.9670132,0.878632075 C45.7576896,0.669650943 45.51735,0.494518868 45.2537745,0.360622642 C44.9859255,0.224264151 44.7113406,0.137660377 44.4167179,0.0845660377 C44.125633,0.0323773585 43.8291142,0.0150283019 43.5356774,0.0070754717 C43.4002302,0.00339622642 43.2653972,0.00189622642 43.1305642,0.000933962264 C42.9707208,0 42.8102745,0 42.6503972,0 L42.6503972,0 Z" id="XMLID_4_" fill="#000000"></path>
                        <path d="M42.6503972,0.999622642 L43.1234604,1.0005283 C43.2516113,1.00143396 43.3797651,1.00282075 43.5086264,1.00633019 C43.7327802,1.01238679 43.9949915,1.0245283 44.2394066,1.06833962 C44.4518689,1.10660377 44.6300547,1.16479245 44.8010575,1.25184906 C44.9698783,1.33763208 45.1245509,1.45004717 45.2596019,1.58490566 C45.3951679,1.72066981 45.5077274,1.87559434 45.5946425,2.04628302 C45.6812151,2.21595283 45.7390358,2.39329245 45.7770736,2.60731132 C45.8207717,2.84906604 45.8328566,3.11199057 45.8390009,3.3375283 C45.8424509,3.46483019 45.8441491,3.59213208 45.8447745,3.72246226 C45.8459632,3.88007547 45.8459632,4.03760377 45.8459632,4.1955283 L45.8459632,25.7949057 C45.8459632,25.9528302 45.8459632,26.1100755 45.8447462,26.2710566 C45.8441491,26.3983302 45.8424538,26.5256321 45.8389726,26.6531604 C45.8328566,26.8783585 45.8207745,27.1411415 45.7765387,27.3857547 C45.7390358,27.5968302 45.6812462,27.7741981 45.5941925,27.944717 C45.5075292,28.1149811 45.3951425,28.2697358 45.2601679,28.4046509 C45.12435,28.5405 44.9701868,28.6525755 44.7993594,28.7391509 C44.629633,28.825783 44.4517528,28.8839179 44.2413849,28.921783 C43.9920198,28.966217 43.7188217,28.9784434 43.513067,28.9840189 C43.3836142,28.986934 43.254784,28.9886858 43.1228151,28.9893113 C42.9655387,28.9905001 42.8077019,28.9905001 42.6504,28.9905001 L4.19523962,28.9905001 C4.19314528,28.9905001 4.19110755,28.9905001 4.18898491,28.9905001 C4.03349434,28.9905001 3.87769245,28.9905001 3.7193717,28.989283 C3.59028679,28.9886858 3.46148491,28.9869623 3.3369566,28.9841321 C3.12650377,28.9784434 2.85313585,28.9662453 2.60580566,28.922066 C2.39362925,28.8839151 2.21574906,28.825783 2.04378679,28.7380189 C1.87457264,28.6522075 1.72052264,28.5402453 1.58464528,28.4041415 C1.44981509,28.2695377 1.33776792,28.1152642 1.25113585,27.9447453 C1.16441887,27.7743962 1.1064,27.5964906 1.06825189,27.3828962 C1.02415472,27.1387642 1.01204151,26.8770283 1.00598774,26.6533585 C1.00253208,26.5252925 1.00108868,26.3972547 1.00026792,26.2699528 L0.999645283,25.8941321 L0.999645283,25.7949057 L0.999645283,4.1955283 L0.999645283,4.09630189 L1.00023962,3.72127358 C1.00108868,3.59320755 1.00253208,3.46516981 1.00598774,3.33721698 C1.01204151,3.11332075 1.02415472,2.8514717 1.06861698,2.60530189 C1.1064283,2.39363208 1.16441887,2.21572642 1.25158868,2.0445283 C1.33754151,1.87531132 1.44978679,1.72083962 1.58532736,1.58533019 C1.72032736,1.45027358 1.87488113,1.338 2.04517358,1.25139623 C2.21529623,1.16476415 2.39351321,1.10660377 2.60569245,1.06842453 C2.85016415,1.0245 3.11255094,1.01238679 3.33726792,1.00630189 C3.46536226,1.00282075 3.5934566,1.00143396 3.72058868,1.0005566 L4.19523962,0.999622642 L42.6503972,0.999622642" id="XMLID_3_" fill="#FFFFFF"></path>
                        <g id="Group" transform="translate(6.226415, 8.207547)" fill="#000000">
                            <g id="Path">
                                <path d="M6.56213208,1.87939528 C6.96323774,1.37769906 7.23542547,0.704068868 7.16363774,0.0156990566 C6.57647547,0.044895283 5.8599566,0.403069811 5.44512736,0.905159434 C5.07265472,1.3351217 4.74298585,2.03695755 4.82893019,2.69647075 C5.48805,2.7536434 6.14656132,2.36701415 6.56213208,1.87939528"></path>
                                <path d="M7.15614906,2.82524151 C6.19894811,2.76822453 5.3850934,3.36849906 4.92798113,3.36849906 C4.47061698,3.36849906 3.77062925,2.85397358 3.01353396,2.86784151 C2.02812736,2.88231509 1.11378396,3.4394717 0.613732075,4.32561226 C-0.414789623,6.09832925 0.34230566,8.72788868 1.34248868,10.171667 C1.8282,10.88595 2.41356509,11.6724283 3.18487358,11.6441774 C3.91363019,11.6155811 4.19927264,11.1722943 5.08510755,11.1722943 C5.97029151,11.1722943 6.22759528,11.6441774 6.9990283,11.6298821 C7.79902358,11.6155783 8.29916321,10.9152425 8.78486887,10.2002632 C9.34207075,9.38601792 9.57016981,8.59979717 9.58451604,8.55663679 C9.57016698,8.54234151 8.04189906,7.95605943 8.0277283,6.19807642 C8.0133,4.72609245 9.22758962,4.02593491 9.28473962,3.98251415 C8.59901887,2.96833019 7.52759434,2.85397358 7.15614906,2.82524151"></path>
                            </g>
                            <g transform="translate(11.320755, 0.566038)">
                                <path d="M4.16995755,0.267113208 C6.25041792,0.267113208 7.69911792,1.70119528 7.69911792,3.78910755 C7.69911792,5.88447453 6.22060755,7.32600566 4.11778868,7.32600566 L1.81432075,7.32600566 L1.81432075,10.9891698 L0.150065094,10.9891698 L0.150065094,0.267113208 L4.16995755,0.267113208 L4.16995755,0.267113208 Z M1.81431792,5.92904717 L3.72393679,5.92904717 C5.17292264,5.92904717 5.99759717,5.14894528 5.99759717,3.79655943 C5.99759717,2.44431792 5.17292264,1.67152642 3.73138868,1.67152642 L1.81431792,1.67152642 L1.81431792,5.92904717 L1.81431792,5.92904717 Z" id="Shape"></path>
                                <path d="M8.13395377,8.76753962 C8.13395377,7.40024717 9.18163868,6.56066887 11.0393774,6.45661698 L13.1791726,6.33035094 L13.1791726,5.72854245 C13.1791726,4.85915094 12.5921264,4.33903585 11.611517,4.33903585 C10.6825047,4.33903585 10.1029104,4.78476792 9.96188208,5.48331792 L8.4461066,5.48331792 C8.53525472,4.07145283 9.7388717,3.03122264 11.6708519,3.03122264 C13.565567,3.03122264 14.7766358,4.03433208 14.7766358,5.60213208 L14.7766358,10.9891726 L13.2385075,10.9891726 L13.2385075,9.70371792 L13.2015311,9.70371792 C12.7483472,10.5731094 11.76,11.1228906 10.7346736,11.1228906 C9.20399434,11.1228906 8.13395377,10.1718057 8.13395377,8.76753962 Z M13.1791726,8.06167925 L13.1791726,7.44496698 L11.2546443,7.56378113 C10.2961075,7.63071226 9.7537783,8.05422736 9.7537783,8.72296698 C9.7537783,9.40646887 10.318466,9.85234245 11.1804057,9.85234245 C12.3023292,9.85234245 13.1791726,9.07955094 13.1791726,8.06167925 Z" id="Shape"></path>
                                <path d="M16.2287745,13.864783 L16.2287745,12.5644245 C16.3474443,12.5940934 16.614883,12.5940934 16.7487453,12.5940934 C17.4917264,12.5940934 17.8930274,12.2820792 18.1381075,11.4796217 C18.1381075,11.4647151 18.2794217,11.0040792 18.2794217,10.9966274 L15.4559802,3.17239528 L17.1944745,3.17239528 L19.1711689,9.53287925 L19.2006934,9.53287925 L21.1773906,3.17239528 L22.8714566,3.17239528 L19.9436745,11.397784 C19.2752236,13.2926434 18.5024292,13.9019038 16.8826075,13.9019038 C16.7487481,13.9019038 16.3474472,13.8869972 16.2287745,13.864783 Z" id="Path"></path>
                            </g>
                        </g>
                    </g>
                </g>
            </g>
        </g>
    </g>
</svg>