<?xml version="1.0" encoding="UTF-8"?>
<svg width="24px" height="16px" viewBox="0 0 24 16" version="1.1" xmlns="http://www.w3.org/2000/svg" xmlns:xlink="http://www.w3.org/1999/xlink">
    <title>CF0AC28E-46F3-4596-AEC7-F77163BF8DE8</title>
    <g id="Pagine-Foglia" stroke="none" stroke-width="1" fill="none" fill-rule="evenodd">
        <g id="Pagina-Metodi-di-pagamento-MVP" transform="translate(-289.000000, -1122.000000)" fill-rule="nonzero">
            <g id="Group-10" transform="translate(0.000000, 927.000000)">
                <g id="amex" transform="translate(289.000000, 195.000000)">
                    <rect id="Rectangle" fill="#016FD0" x="0" y="0" width="24" height="16" rx="2"></rect>
                    <polygon id="Path" fill="#FFFFFE" points="13.7640663 13.3938564 13.7640663 7.69246409 23.9116022 7.70156906 23.9116022 9.27646409 22.7387403 10.5298564 23.9116022 11.7947403 23.9116022 13.4030497 22.0389834 13.4030497 21.0438011 12.304884 20.0556906 13.4072044"></polygon>
                    <polygon id="Path" fill="#016FD0" points="14.4418122 12.7687956 14.4418122 8.3199116 18.2140994 8.3199116 18.2140994 9.34479558 15.6632044 9.34479558 15.6632044 10.0404862 18.1532818 10.0404862 18.1532818 11.0483094 15.6632044 11.0483094 15.6632044 11.7316243 18.2140994 11.7316243 18.2140994 12.7687956"></polygon>
                    <polygon id="Path" fill="#016FD0" points="18.1952707 12.7687956 20.2826077 10.5417901 18.1951823 8.32 19.8108287 8.32 21.0863204 9.73003315 22.3654365 8.32 23.9116022 8.32 23.9116022 8.35500552 21.8687293 10.5417901 23.9116022 12.7056796 23.9116022 12.7687956 22.3498785 12.7687956 21.0517569 11.3446188 19.7669834 12.7687956"></polygon>
                    <polygon id="Path" fill="#FFFFFE" points="14.2373481 2.6319558 16.6834033 2.6319558 17.5425414 4.58280663 17.5425414 2.6319558 20.5623867 2.6319558 21.0831381 4.09352486 21.6056575 2.6319558 23.9116022 2.6319558 23.9116022 8.33334807 11.7250829 8.33334807"></polygon>
                    <g id="Group" transform="translate(12.000000, 3.000000)" fill="#016FD0">
                        <path d="M2.7004641,0.25135912 L0.726453,4.69653039 L2.0803536,4.69653039 L2.4527735,3.80636464 L4.4707182,3.80636464 L4.8428729,4.69653039 L6.230453,4.69653039 L4.264663,0.25135912 L2.7004641,0.25135912 Z M2.8700994,2.80879558 L3.4620994,1.39372376 L4.0536575,2.80879558 L2.8700994,2.80879558 Z" id="Shape"></path>
                        <polygon id="Path" points="6.2119779 4.69573481 6.2119779 0.25065193 8.1150939 0.25719337 9.0943646 2.98992265 10.08 0.25065193 11.9116022 0.25065193 11.9116022 4.69573481 10.7329945 4.70616575 10.7329945 1.65281768 9.6204199 4.69573481 8.5446188 4.69573481 7.4089724 1.64238674 7.4089724 4.69573481"></polygon>
                    </g>
                </g>
            </g>
        </g>
    </g>
</svg>