<?xml version="1.0" encoding="UTF-8"?>
<svg width="48px" height="30px" viewBox="0 0 48 30" version="1.1" xmlns="http://www.w3.org/2000/svg" xmlns:xlink="http://www.w3.org/1999/xlink">
    <title>7A46DBDA-EEA3-4C4C-8D44-319AE4DDEEB9</title>
    <g id="Pagine-Foglia" stroke="none" stroke-width="1" fill="none" fill-rule="evenodd">
        <g id="Pagina-Metodi-di-pagamento-MVP" transform="translate(-257.000000, -1293.000000)" fill-rule="nonzero">
            <g id="Group-10" transform="translate(0.000000, 927.000000)">
                <g id="icons/cards/amex" transform="translate(257.000000, 366.000000)">
                    <path d="M48,28.4057971 C48,29.2995169 47.2752894,30 46.4056366,30 L1.59436336,30 C0.700553598,30 0,29.2753623 0,28.4057971 L0,1.5942029 C0,0.700483092 0.724710619,0 1.59436336,0 L46.4056366,0 C47.2994464,0 48,0.724637681 48,1.5942029 L48,28.4057971 Z" id="Shape" fill="#006FCF"></path>
                    <g id="Group" transform="translate(5.040000, 7.920000)">
                        <path d="M9.84,6.288 L9.84,5.808 L9.624,6.288 L7.656,6.288 L7.416,5.784 L7.416,6.288 L3.696,6.288 L3.264,5.256 L2.52,5.256 L2.064,6.288 L0.144,6.288 L0.144,3.168 L1.536,0 L4.224,0 L4.608,0.888 L4.608,0 L7.896,0 L8.616,1.512 L9.312,0 L19.68,0 C19.68,0 20.232,0 20.592,0.24 L20.592,0 L23.208,0 L23.208,0.336 C23.208,0.336 23.688,0 24.384,0 C25.08,0 28.992,0 28.992,0 L29.4,0.912 L29.4,0 L32.352,0 L32.88,0.912 L32.88,0 L35.712,0 L35.712,6.288 L32.808,6.288 L32.136,5.184 L32.136,6.264 L28.536,6.264 L28.032,5.136 L27.336,5.136 L26.856,6.264 L24.672,6.264 C24.672,6.264 23.856,6.264 23.256,5.808 C23.256,6.048 23.256,6.264 23.256,6.264 L18.912,6.264 C18.912,6.264 18.912,5.016 18.912,4.8 C18.912,4.584 18.744,4.608 18.744,4.608 L18.576,4.608 L18.576,6.264 L9.84,6.264 L9.84,6.288 Z" id="Shape" fill="#FFFFFF"></path>
                        <path d="M7.68,7.656 L13.392,7.656 L14.208,8.592 L15.048,7.656 L19.44,7.656 C19.44,7.656 19.848,7.656 20.232,7.872 L20.232,7.656 C20.232,7.656 23.64,7.656 24.144,7.656 C24.648,7.656 25.056,7.896 25.056,7.896 L25.056,7.656 L30.072,7.656 L30.072,7.896 C30.072,7.896 30.432,7.656 30.912,7.656 C31.392,7.656 34.176,7.656 34.176,7.656 L34.176,7.896 C34.176,7.896 34.584,7.656 35.016,7.656 C35.448,7.656 37.584,7.656 37.584,7.656 L37.584,13.584 C37.584,13.584 37.248,13.968 36.552,13.968 L33.168,13.968 L33.168,13.776 C33.168,13.776 32.856,13.968 32.352,13.968 C31.872,13.968 23.352,13.968 23.352,13.968 C23.352,13.968 23.352,12.576 23.352,12.432 C23.352,12.288 23.28,12.264 23.16,12.264 L23.04,12.264 L23.04,13.968 L20.232,13.968 L20.232,12.264 C20.232,12.264 19.92,12.432 19.392,12.432 C18.864,12.432 18.384,12.432 18.384,12.432 L18.384,13.968 L14.928,13.968 L14.136,13.008 L13.296,13.968 L7.68,13.968 L7.68,7.656 Z" id="Shape" fill="#FFFFFF"></path>
                        <polygon id="Shape" fill="#006FCF" points="25.68 8.592 29.256 8.592 29.256 9.552 26.76 9.552 26.76 10.392 29.184 10.392 29.184 11.232 26.76 11.232 26.76 12.12 29.256 12.12 29.256 13.056 25.68 13.056"></polygon>
                        <path d="M36.168,10.344 C37.512,10.416 37.632,11.088 37.632,11.808 C37.632,12.648 36.936,13.104 36.216,13.104 L33.912,13.104 L33.912,12.144 L35.712,12.144 C36.024,12.144 36.48,12.144 36.48,11.712 C36.48,11.52 36.408,11.376 36.072,11.352 C35.928,11.328 35.4,11.304 35.304,11.304 C34.08,11.28 33.792,10.656 33.792,9.936 C33.792,9.096 34.392,8.64 35.088,8.64 L37.392,8.64 L37.392,9.6 L35.712,9.6 C35.328,9.6 34.92,9.552 34.92,9.984 C34.92,10.248 35.136,10.32 35.376,10.344 C35.496,10.296 36.096,10.344 36.168,10.344 Z" id="Shape" fill="#006FCF"></path>
                        <path d="M32.04,10.344 C33.384,10.416 33.504,11.088 33.504,11.808 C33.504,12.648 32.808,13.104 32.088,13.104 L29.784,13.104 L29.784,12.144 L31.584,12.144 C31.896,12.144 32.352,12.144 32.352,11.712 C32.352,11.52 32.28,11.376 31.944,11.352 C31.8,11.328 31.272,11.304 31.176,11.304 C29.952,11.28 29.688,10.656 29.688,9.936 C29.688,9.096 30.264,8.64 30.984,8.64 L33.288,8.64 L33.288,9.6 L31.608,9.6 C31.224,9.6 30.816,9.552 30.816,9.984 C30.816,10.248 31.032,10.32 31.272,10.344 C31.368,10.296 31.968,10.344 32.04,10.344 Z" id="Shape" fill="#006FCF"></path>
                        <path d="M19.056,8.616 L15.216,8.616 L13.968,10.008 L12.744,8.616 L8.424,8.616 L8.424,13.08 L12.6,13.08 L13.92,11.616 L15.216,13.104 L17.328,13.104 L17.328,11.592 L18.792,11.592 C19.368,11.592 20.4,11.568 20.4,10.008 C20.376,8.856 19.584,8.616 19.056,8.616 Z M12.024,12.12 L9.504,12.12 L9.504,11.232 L11.928,11.232 L11.928,10.392 L9.504,10.392 L9.504,9.552 L12.168,9.552 L13.224,10.776 L12.024,12.12 Z M16.224,12.648 L14.64,10.776 L16.224,9.024 L16.224,12.648 Z M18.696,10.632 L17.328,10.632 L17.328,9.552 L18.696,9.552 C19.152,9.552 19.296,9.84 19.296,10.056 C19.296,10.368 19.128,10.632 18.696,10.632 Z" id="Shape" fill="#006FCF"></path>
                        <path d="M24.336,11.04 C24.936,10.752 25.104,10.344 25.104,9.816 C25.104,8.856 24.336,8.616 23.784,8.616 L20.928,8.616 L20.928,13.08 L22.032,13.08 L22.032,11.496 L23.472,11.496 C23.856,11.496 24,11.88 24,12.264 L24.024,13.08 L25.08,13.08 L25.032,12.168 C25.056,11.424 24.864,11.088 24.336,11.04 Z M23.4,10.584 L22.032,10.584 L22.032,9.576 L23.4,9.576 C23.856,9.576 24,9.864 24,10.08 C24,10.368 23.856,10.584 23.4,10.584 Z" id="Shape" fill="#006FCF"></path>
                        <polygon id="Rectangle-path" fill="#006FCF" points="21.384 0.888 22.488 0.888 22.488 5.352 21.384 5.352"></polygon>
                        <polygon id="Shape" fill="#006FCF" points="12.408 0.888 15.984 0.888 15.984 1.848 13.512 1.848 13.512 2.688 15.912 2.688 15.912 3.552 13.512 3.552 13.512 4.416 15.984 4.416 15.984 5.352 12.408 5.352"></polygon>
                        <path d="M20.04,3.336 C20.64,3.048 20.808,2.64 20.808,2.112 C20.808,1.152 20.04,0.912 19.488,0.912 L16.632,0.912 L16.632,5.376 L17.736,5.376 L17.736,3.792 L19.176,3.792 C19.56,3.792 19.704,4.176 19.704,4.56 L19.728,5.376 L20.784,5.376 L20.736,4.464 C20.76,3.72 20.568,3.384 20.04,3.336 Z M19.104,2.856 L17.736,2.856 L17.736,1.848 L19.104,1.848 C19.56,1.848 19.704,2.136 19.704,2.352 C19.704,2.664 19.56,2.856 19.104,2.856 Z" id="Shape" fill="#006FCF"></path>
                        <path d="M9.888,0.888 L8.544,3.888 L7.2,0.888 L5.472,0.888 L5.472,5.184 L3.552,0.888 L2.112,0.888 L0.168,5.352 L1.32,5.352 L1.752,4.344 L3.936,4.344 L4.368,5.352 L6.576,5.352 L6.576,2.04 L8.04,5.352 L9.048,5.352 L10.536,2.088 L10.536,5.352 L11.64,5.352 L11.64,0.888 L9.888,0.888 Z M2.16,3.408 L2.808,1.848 L3.48,3.408 L2.16,3.408 Z" id="Shape" fill="#006FCF"></path>
                        <path d="M33.792,0.888 L33.792,3.984 L31.944,0.888 L30.336,0.888 L30.336,5.088 L28.464,0.888 L27.024,0.888 L25.512,4.344 C25.512,4.344 24.864,4.344 24.816,4.32 C24.552,4.272 24.144,4.08 24.144,3.288 L24.144,2.976 C24.144,1.92 24.72,1.848 25.44,1.848 L26.112,1.848 L26.112,0.888 L24.672,0.888 C24.168,0.888 23.088,1.272 23.064,3.096 C23.04,4.32 23.568,5.352 24.792,5.352 L26.232,5.352 L26.664,4.344 L28.848,4.344 L29.28,5.352 L31.44,5.352 L31.44,2.088 L33.408,5.352 L34.896,5.352 L34.896,0.888 L33.792,0.888 L33.792,0.888 Z M27.048,3.408 L27.696,1.848 L28.392,3.408 L27.048,3.408 Z" id="Shape" fill="#006FCF"></path>
                    </g>
                </g>
            </g>
        </g>
    </g>
</svg>