<?xml version="1.0" encoding="UTF-8"?>
<svg width="48px" height="30px" viewBox="0 0 48 30" version="1.1" xmlns="http://www.w3.org/2000/svg" xmlns:xlink="http://www.w3.org/1999/xlink">
    <title>394E9B60-9105-4F2C-92EF-B526A1CC714B</title>
    <g id="Pagine-Foglia" stroke="none" stroke-width="1" fill="none" fill-rule="evenodd">
        <g id="Pagina-Metodi-di-pagamento-MVP" transform="translate(-257.000000, -6973.000000)">
            <rect fill="#FFFFFF" x="0" y="0" width="1280" height="8067"></rect>
            <g id="Group-10" transform="translate(0.000000, 927.000000)">
                <g id="Group-7" transform="translate(256.000000, 6046.000000)">
                    <text id="Bancomat-PAY" font-family="TitilliumWeb-SemiBold, Titillium Web" font-size="24" font-weight="500" line-spacing="42" fill="#0066CC">
                        <tspan x="1" y="56">Bancomat PAY</tspan>
                    </text>
                    <g id="logobancomatpay" transform="translate(1.000000, 5.000000)" fill="#3CBDEE">
                        <path d="M9.55227926,0.414550073 C10.1080964,-0.138183358 11.00918,-0.138183358 11.5649971,0.414550073 L11.5649971,0.414550073 L20.700375,9.49924363 C21.2561922,10.0519771 21.2561922,10.9480613 20.700375,11.5007947 L20.700375,11.5007947 L11.5649971,20.585335 C11.00918,21.1382217 10.1080964,21.1382217 9.55227926,20.585335 L9.55227926,20.585335 L0.416747281,11.5007947 C-0.13891576,10.9480613 -0.13891576,10.0519771 0.416747281,9.49924363 L0.416747281,9.49924363 Z M14.4935957,12.2201452 L11.7900368,12.2201452 C11.7889579,12.2805382 11.7869541,12.3418508 11.7786307,12.4096013 C11.7018706,13.030545 11.3871233,13.3814066 10.8035615,13.3814066 L10.8035615,13.3814066 L6.23864706,13.3814066 L5.9721446,15.5002181 L10.5689654,15.5002181 C12.8357006,15.5002181 14.2249353,14.5825212 14.4598397,12.6796834 C14.4801858,12.5144459 14.4891257,12.3643832 14.4935957,12.2201452 L14.4935957,12.2201452 Z M35.437237,5.49936041 C36.2905382,5.49936041 37.0253081,6.10466943 37.1843773,6.93836803 L38.8163774,15.5002181 L36.093089,15.5002181 L35.8658914,14.0992243 L35.8621921,14.0766919 L32.8938263,14.0766919 L32.8870442,14.0935529 L32.3113434,15.5002181 L29.6732927,15.5002181 L34.0493896,5.49936041 L35.437237,5.49936041 Z M28.0698079,5.4995137 C29.2666799,5.4995137 30.130154,5.78798966 30.6361851,6.35681766 C31.1352799,6.91782829 31.3094544,7.74616203 31.1682652,8.88887632 C31.0326248,9.98759879 30.6640838,10.8537931 30.0731234,11.4635473 C29.3876772,12.170482 28.4010478,12.5288543 27.1406715,12.5288543 L27.1406715,12.5288543 L25.6157964,12.5288543 L25.2489509,15.5003713 L22.6428065,15.5003713 L23.8775961,5.4995137 Z M41.6290651,5.4995137 L42.9554119,9.48667454 L42.9856227,9.43471208 L45.2801026,5.4995137 L48,5.4995137 L43.8766874,12.3110412 L43.8736046,12.3159462 L43.8729881,12.3216176 L43.4805559,15.5003713 L40.8334111,15.5003713 L41.2317005,12.2741003 L41.2326253,12.2678158 L41.2304674,12.2618378 L38.8078998,5.4995137 L41.6290651,5.4995137 Z M46.8852829,13.3814066 C47.1803007,13.3814066 47.4315436,13.4845651 47.6391658,13.6899624 C47.8477129,13.8961262 47.9512928,14.1452088 47.9512928,14.4373635 C47.9512928,14.7308977 47.8477129,14.9813599 47.6391658,15.1889031 C47.4315436,15.396753 47.1803007,15.5003713 46.8852829,15.5003713 C46.5904193,15.5003713 46.3394846,15.396753 46.1321707,15.1889031 C45.9257815,14.981973 45.8235889,14.7318174 45.8235889,14.4373635 C45.8235889,14.1459752 45.9271688,13.8968926 46.1357158,13.6899624 C46.3424132,13.4845651 46.5918065,13.3814066 46.8852829,13.3814066 Z M46.8852829,13.5257978 C46.632961,13.5257978 46.4171696,13.6148544 46.2380626,13.7940406 C46.0601888,13.9720006 45.9712519,14.1865948 45.9712519,14.4388963 C45.9712519,14.6930372 46.0601888,14.9088577 46.2368295,15.0880439 C46.4150116,15.2669235 46.6312655,15.3564399 46.8852829,15.3564399 C47.1393003,15.3564399 47.3555542,15.2669235 47.533428,15.0880439 C47.7113018,14.9088577 47.8003929,14.6930372 47.8003929,14.4388963 C47.8003929,14.1865948 47.7113018,13.9720006 47.533428,13.7940406 C47.3547835,13.6148544 47.1385296,13.5257978 46.8852829,13.5257978 Z M46.8655534,13.853054 C47.0098254,13.853054 47.1161798,13.8670027 47.1843082,13.8948999 C47.3048432,13.9451763 47.3649565,14.0431232 47.3649565,14.1896604 C47.3649565,14.2937386 47.3273472,14.3697663 47.2512036,14.4189697 C47.2114363,14.4454874 47.1542516,14.464341 47.0822697,14.4759904 C47.1735187,14.4900924 47.2405682,14.5281062 47.2826475,14.5894188 C47.3254975,14.651038 47.3464601,14.7111244 47.3464601,14.7690649 L47.3464601,14.8547493 C47.3464601,14.8811137 47.3473849,14.9105438 47.3498511,14.9413534 C47.3517008,14.9720097 47.3547835,14.9916297 47.3595617,15.0018996 L47.3668062,15.0158482 L47.1741352,15.0158482 C47.172748,15.0120162 47.1718232,15.0083374 47.1707442,15.0045054 C47.1698194,15.0008266 47.1688946,14.9960749 47.1684321,14.9916297 L47.1639622,14.9540757 L47.1639622,14.8619535 C47.1639622,14.7276788 47.1268152,14.6392353 47.0534461,14.5957034 C47.0098254,14.571025 46.9336819,14.5586092 46.8239365,14.5586092 L46.6616305,14.5586092 L46.6616305,15.0158482 L46.4553955,15.0158482 L46.4553955,13.853054 L46.8655534,13.853054 Z M46.8378088,13.9928469 L46.6616305,13.9928469 L46.6616305,14.4143712 L46.8479818,14.4143712 C46.9352232,14.4143712 47.0007313,14.4059408 47.0443521,14.3884667 C47.1246573,14.3567374 47.1650411,14.2958846 47.1650411,14.2063681 C47.1650411,14.12191 47.1393003,14.0653491 47.0875103,14.0360723 C47.0355663,14.0075619 46.9521783,13.9928469 46.8378088,13.9928469 Z M35.0110489,8.95141521 L34.9755974,9.03372743 L33.7688607,11.8392405 L35.5270988,11.8392405 L35.5213957,11.8078177 L35.026925,9.03955213 L35.0110489,8.95141521 Z M11.7359348,5.49966698 L7.20693423,5.49966698 L6.94027762,7.69956442 L11.3693976,7.69956442 C12.0343436,7.69956442 12.128367,8.03693721 12.0617799,8.57679499 C11.9951929,9.1155798 11.7914241,9.5602497 11.1428165,9.56178252 L11.1428165,9.56178252 L6.71030557,9.5619358 L6.4735515,11.4758098 L16.2899056,11.4758098 C16.415527,10.4572536 15.6166362,9.56178252 14.5848447,9.56178252 L14.5848447,9.56178252 L14.3194212,9.56178252 C14.5723596,9.1913009 14.7469965,8.70386543 14.8226777,8.09104562 C15.0077959,6.59271803 14.314797,5.49966698 11.7359348,5.49966698 L11.7359348,5.49966698 Z M27.6863156,7.77957742 L26.2021327,7.77957742 L25.8943216,10.2728558 L25.8906223,10.3030523 L27.381279,10.3030523 C28.1057218,10.3030523 28.4457475,9.942534 28.5548763,9.05825248 C28.6182265,8.54521898 28.5661283,8.21459058 28.3911831,8.01777702 C28.2484524,7.85759775 28.0180179,7.77957742 27.6863156,7.77957742 L27.6863156,7.77957742 Z" id="Combined-Shape"></path>
                    </g>
                </g>
            </g>
        </g>
    </g>
</svg>