<?xml version="1.0" encoding="UTF-8"?>
<svg width="60px" height="45px" viewBox="0 0 60 45" version="1.1" xmlns="http://www.w3.org/2000/svg" xmlns:xlink="http://www.w3.org/1999/xlink">
    <title>9BFFEC1B-03AD-479A-A77E-BD8B8857AA49</title>
    <g id="Pagine-Foglia" stroke="none" stroke-width="1" fill="none" fill-rule="evenodd">
        <g id="Pagina-Metodi-di-pagamento-MVP" transform="translate(-609.000000, -637.000000)">
            <g id="Group-9" transform="translate(518.000000, 603.000000)">
                <g id="Group-11" transform="translate(9.000000, 34.000000)">
                    <g id="ic-card" transform="translate(82.000000, 0.000000)">
                        <g id="Group-2" transform="translate(0.333333, 0.332782)">
                            <g id="Group" transform="translate(0.425225, 0.000000)">
                                <path d="M3.27802365,6.87351298 C3.27802365,5.10302516 4.70512949,3.6677612 6.47789629,3.6677612 L53.4093469,3.6677612 C55.766872,3.6677612 57.6780236,5.57013471 57.6780236,7.9295103 L57.6780236,39.4060121 C57.6780236,41.7597111 55.7737964,43.6677612 53.4093469,43.6677612 L7.54670041,43.6677612 C5.18917533,43.6677612 3.27802365,41.7653877 3.27802365,39.4060121 L3.27802365,6.87351298 Z" id="mail-copy" fill-opacity="0.8" fill="#CBF1F2" fill-rule="nonzero"></path>
                                <path d="M49.4010811,0.316732733 L3.73621622,0.316732733 C1.67382486,0.316732733 0,1.9905576 0,4.05294895 L0,35.5511889 C0,37.6091522 1.67382486,39.2829771 3.73621622,39.2829771 L49.4010811,39.2829771 C51.4634724,39.2829771 53.1372973,37.6091522 53.1372973,35.5511889 L53.1372973,4.05294895 C53.1372973,1.9905576 51.4634724,0.316732733 49.4010811,0.316732733 Z M51.36384,35.5511889 C51.36384,36.6327544 50.4859676,37.5150549 49.4010811,37.5150549 L3.73621622,37.5150549 C2.65132973,37.5150549 1.7734573,36.6327544 1.7734573,35.5511889 L1.7734573,4.05294895 C1.7734573,2.96806246 2.65132973,2.09019003 3.73621622,2.09019003 L49.4010811,2.09019003 C50.4859676,2.09019003 51.36384,2.96806246 51.36384,4.05294895 L51.36384,35.5511889 Z" id="Fill-1" fill="#00C5CA"></path>
                                <path d="M14.171053,25.9986527 L6.20156541,25.9986527 C5.70783135,25.9986527 5.31483676,26.3971825 5.31483676,26.8853814 C5.31483676,27.3735803 5.70783135,27.77211 6.20156541,27.77211 L14.171053,27.77211 C14.6592519,27.77211 15.0577816,27.3735803 15.0577816,26.8853814 C15.0577816,26.3971825 14.6592519,25.9986527 14.171053,25.9986527 Z" id="Fill-2" fill="#00C5CA"></path>
                                <path d="M25.68192,25.9986527 L17.7124324,25.9986527 C17.2242335,25.9986527 16.8257038,26.3971825 16.8257038,26.8853814 C16.8257038,27.3735803 17.2242335,27.77211 17.7124324,27.77211 L25.68192,27.77211 C26.1712259,27.77211 26.5686486,27.3735803 26.5686486,26.8853814 C26.5686486,26.3971825 26.1712259,25.9986527 25.68192,25.9986527 Z" id="Fill-3" fill="#00C5CA"></path>
                                <path d="M46.4765,6.99865273 L36.6607973,6.99865273 C36.059502,6.99865273 35.5686486,8.12224824 35.5686486,9.49865273 C35.5686486,10.8750572 36.059502,11.9986527 36.6607973,11.9986527 L46.4765,11.9986527 C47.0791588,11.9986527 47.5686486,10.8750572 47.5686486,9.49865273 C47.5686486,8.12224824 47.0791588,6.99865273 46.4765,6.99865273 Z" id="Fill-3-Copy" fill="#00C5CA"></path>
                                <path d="M7.08275892,30.4267608 L6.20156541,30.4267608 C5.70783135,30.4267608 5.31483676,30.8252906 5.31483676,31.3134895 C5.31483676,31.8016884 5.70783135,32.2002181 6.20156541,32.2002181 L7.08275892,32.2002181 C7.57649297,32.2002181 7.96948757,31.8016884 7.96948757,31.3134895 C7.96948757,30.8252906 7.57649297,30.4267608 7.08275892,30.4267608 Z" id="Fill-4" fill="#00C5CA"></path>
                                <path d="M12.3975957,30.4267608 L10.6296735,30.4267608 C10.1359395,30.4267608 9.74294486,30.8252906 9.74294486,31.3134895 C9.74294486,31.8016884 10.1359395,32.2002181 10.6296735,32.2002181 L12.3975957,32.2002181 C12.8869016,32.2002181 13.2843243,31.8016884 13.2843243,31.3134895 C13.2843243,30.8252906 12.8869016,30.4267608 12.3975957,30.4267608 Z" id="Fill-5" fill="#00C5CA"></path>
                                <path d="M16.8257038,30.4267608 L15.9389751,30.4267608 C15.4507762,30.4267608 15.0577816,30.8252906 15.0577816,31.3134895 C15.0577816,31.8016884 15.4507762,32.2002181 15.9389751,32.2002181 L16.8257038,32.2002181 C17.3150097,32.2002181 17.7124324,31.8016884 17.7124324,31.3134895 C17.7124324,30.8252906 17.3150097,30.4267608 16.8257038,30.4267608 Z" id="Fill-6" fill="#00C5CA"></path>
                                <path d="M22.1405405,30.4267608 L20.3670832,30.4267608 C19.8788843,30.4267608 19.4858897,30.8252906 19.4858897,31.3134895 C19.4858897,31.8016884 19.8788843,32.2002181 20.3670832,32.2002181 L22.1405405,32.2002181 C22.6287395,32.2002181 23.0272692,31.8016884 23.0272692,31.3134895 C23.0272692,30.8252906 22.6287395,30.4267608 22.1405405,30.4267608 Z" id="Fill-7" fill="#00C5CA"></path>
                                <path d="M25.0553427,30.6869122 C24.8948238,30.8551803 24.7951914,31.0843349 24.7951914,31.3134895 C24.7951914,31.5426441 24.8948238,31.7717987 25.0553427,31.9400668 C25.2191827,32.1005857 25.4527654,32.2002181 25.68192,32.2002181 C25.9110746,32.2002181 26.1446573,32.1005857 26.3140324,31.9400668 C26.4690162,31.7717987 26.5686486,31.5426441 26.5686486,31.3134895 C26.5686486,31.0843349 26.4690162,30.8551803 26.3140324,30.6869122 C25.9763892,30.3581252 25.3708454,30.3581252 25.0553427,30.6869122 Z" id="Fill-8" fill="#00C5CA"></path>
                                <path d="M42.5076238,22.4572733 C41.3795632,22.4572733 40.3245665,22.7639198 39.4123762,23.2963998 C38.4946508,22.7639198 37.4396541,22.4572733 36.3115935,22.4572733 C32.89088,22.4572733 30.1100281,25.2381252 30.1100281,28.6588387 C30.1100281,32.0740171 32.89088,34.8548689 36.3115935,34.8548689 C37.4396541,34.8548689 38.4946508,34.5482225 39.4123762,34.0157425 C40.3245665,34.5482225 41.3795632,34.8548689 42.5076238,34.8548689 C45.9283373,34.8548689 48.7091892,32.0740171 48.7091892,28.6588387 C48.7091892,25.2381252 45.9283373,22.4572733 42.5076238,22.4572733 Z M40.7397016,28.6588387 C40.7397016,29.8909598 40.2293622,31.006843 39.4123762,31.8105446 C38.5898551,31.006843 38.0795157,29.8909598 38.0795157,28.6588387 C38.0795157,27.4211825 38.5898551,26.3064062 39.4123762,25.5015976 C40.2293622,26.3064062 40.7397016,27.4211825 40.7397016,28.6588387 Z M31.8834854,28.6588387 C31.8834854,26.21563 33.8683849,24.2307306 36.3115935,24.2307306 C36.8695351,24.2307306 37.4009081,24.3425403 37.8935351,24.5329489 C36.9127092,25.6311198 36.3115935,27.0713619 36.3115935,28.6588387 C36.3115935,30.2407803 36.9127092,31.6810225 37.8935351,32.7791933 C37.4009081,32.9696019 36.8695351,33.0869468 36.3115935,33.0869468 C33.8683849,33.0869468 31.8834854,31.0976192 31.8834854,28.6588387 Z M42.5076238,33.0869468 C41.9507892,33.0869468 41.4183092,32.9696019 40.9256822,32.7791933 C41.9065081,31.6810225 42.5076238,30.2407803 42.5076238,28.6588387 C42.5076238,27.0713619 41.9065081,25.6311198 40.9256822,24.5329489 C41.4183092,24.3425403 41.9507892,24.2307306 42.5076238,24.2307306 C44.9508324,24.2307306 46.9357319,26.21563 46.9357319,28.6588387 C46.9357319,31.0976192 44.9508324,33.0869468 42.5076238,33.0869468 Z" id="Fill-9" fill="#00C5CA"></path>
                                <path d="M7.31191351,19.8026225 L19.2567351,19.8026225 C20.3593341,19.8026225 21.2538119,18.9026095 21.2538119,17.8044387 L21.2538119,9.39767544 C21.2538119,8.29950462 20.3593341,7.39949165 19.2567351,7.39949165 L7.31191351,7.39949165 C6.20931459,7.39949165 5.31483676,8.29950462 5.31483676,9.39767544 L5.31483676,17.8044387 C5.31483676,18.9026095 6.20931459,19.8026225 7.31191351,19.8026225 Z M7.08275892,14.4877857 L10.6296735,14.4877857 L10.6296735,12.7143284 L7.08275892,12.7143284 L7.08275892,14.4877857 Z M7.08275892,17.8044387 L7.08275892,16.2557079 L10.6296735,16.2557079 L10.6296735,17.8044387 C10.6296735,17.8819306 10.6418508,17.9561014 10.650707,18.0291652 L7.31191351,18.0291652 C7.18681946,18.0291652 7.08275892,17.9295327 7.08275892,17.8044387 Z M19.4858897,14.4877857 L15.9389751,14.4877857 L15.9389751,12.9390549 C15.9389751,12.8183889 16.0430357,12.7143284 16.1681297,12.7143284 L19.2567351,12.7143284 C19.334227,12.7143284 19.4072908,12.7010441 19.4858897,12.6932949 L19.4858897,14.4877857 Z M19.2567351,18.0291652 L15.9179416,18.0291652 C15.9267978,17.9561014 15.9389751,17.8819306 15.9389751,17.8044387 L15.9389751,16.2557079 L19.4858897,16.2557079 L19.4858897,17.8044387 C19.4858897,17.9295327 19.3818292,18.0291652 19.2567351,18.0291652 Z M19.2567351,9.17294895 C19.3818292,9.17294895 19.4858897,9.27258138 19.4858897,9.39767544 L19.4858897,10.7172517 C19.4858897,10.8423457 19.3818292,10.9464062 19.2567351,10.9464062 L16.1681297,10.9464062 C15.0655308,10.9464062 14.171053,11.8408841 14.171053,12.9390549 L14.171053,17.8044387 C14.171053,17.9295327 14.0669924,18.0291652 13.9463265,18.0291652 L12.6223222,18.0291652 C12.5016562,18.0291652 12.3975957,17.9295327 12.3975957,17.8044387 L12.3975957,9.39767544 C12.3975957,9.27258138 12.5016562,9.17294895 12.6223222,9.17294895 L19.2567351,9.17294895 Z M7.31191351,9.17294895 L10.650707,9.17294895 C10.6418508,9.24601273 10.6296735,9.32018354 10.6296735,9.39767544 L10.6296735,10.9464062 L7.08275892,10.9464062 L7.08275892,9.39767544 C7.08275892,9.27258138 7.18681946,9.17294895 7.31191351,9.17294895 Z" id="Fill-10" fill="#00C5CA"></path>
                            </g>
                        </g>
                    </g>
                </g>
            </g>
        </g>
    </g>
</svg>