<?xml version="1.0" encoding="UTF-8"?>
<svg width="48px" height="32px" viewBox="0 0 48 32" version="1.1" xmlns="http://www.w3.org/2000/svg" xmlns:xlink="http://www.w3.org/1999/xlink">
    <title>773AD686-478A-405A-BBEA-27EF8DB3731E</title>
    <g id="Pagine-Foglia" stroke="none" stroke-width="1" fill="none" fill-rule="evenodd">
        <g id="Pagina-Metodi-di-pagamento-MVP" transform="translate(-257.000000, -1620.000000)" fill-rule="nonzero">
            <g id="Group-10" transform="translate(0.000000, 927.000000)">
                <g id="diners" transform="translate(257.000000, 693.000000)">
                    <path d="M43.9944828,31.5 L43.998762,31.5 C45.9089366,31.5162212 47.47612,29.954505 47.5000166,28.008311 L47.5000166,4.01260438 C47.4923404,3.07137842 47.1177266,2.17234212 46.4594594,1.51360356 C45.8028638,0.856537768 44.9178322,0.492297706 43.9944828,0.500000035 L4.00126,0.500000035 C3.08216786,0.492297706 2.19713626,0.856537768 1.54054056,1.51360356 C0.882273302,2.17234212 0.507659638,3.07137842 0.499983372,4.00852672 L0.499983372,27.9873914 C0.507659638,28.9286172 0.882273302,29.8276536 1.54054056,30.4863922 C2.19713626,31.143458 3.08216786,31.507698 4.00551724,31.5 L43.9944828,31.5 Z" id="shape" stroke="#5C6F82" fill="#FFFFFF"></path>
                    <path d="M20.0042284,4.10358066 L20.0042284,4.07158066 L28.0042284,4.07158066 L28.0042284,4.10358066 C34.2750962,4.56245836 39.1284566,9.78394572 39.1284566,16.0715807 C39.1284566,22.3592156 34.2750962,27.580703 28.0042284,28.0395806 L28.0042284,28.0715807 L20.0042284,28.0715807 L20.0042284,28.0395806 C13.7333604,27.580703 8.88,22.3592156 8.88,16.0715807 C8.88,9.78394572 13.7333604,4.56245836 20.0042284,4.10358066 Z" id="shape" fill="#0165AC"></path>
                    <path d="M23.2042284,22.8555806 C26.0748004,21.8350054 27.9923112,19.1181785 27.9923112,16.0715807 C27.9923112,13.0249829 26.0748004,10.3081558 23.2042284,9.28758066 L23.2042284,22.8555806 L23.2042284,22.8555806 Z M18.4042283,9.28758066 C15.5336562,10.3081558 13.6161454,13.0249829 13.6161454,16.0715807 C13.6161454,19.1181785 15.5336562,21.8350054 18.4042283,22.8555806 L18.4042283,9.28758066 L18.4042283,9.28758066 Z M20.8042284,26.4715806 C15.0604669,26.4715806 10.4042283,21.815342 10.4042283,16.0715807 C10.4042283,10.3278193 15.0604669,5.67158066 20.8042284,5.67158066 C26.5479898,5.67158066 31.2042284,10.3278193 31.2042284,16.0715807 C31.2042284,21.815342 26.5479898,26.4715806 20.8042284,26.4715806 Z" id="shape" fill="#FFFFFF"></path>
                </g>
            </g>
        </g>
    </g>
</svg>