<?xml version="1.0" encoding="UTF-8"?>
<svg width="47px" height="76px" viewBox="0 0 47 76" version="1.1" xmlns="http://www.w3.org/2000/svg" xmlns:xlink="http://www.w3.org/1999/xlink">
    <title>BDE65CF3-F6C1-480E-A27E-AC8CDE48809E</title>
    <defs>
        <polygon id="path-1" points="0.0080933223 0 40.9512666 0 40.9512666 69.063017 0.0080933223 69.063017"></polygon>
    </defs>
    <g id="Pagine-Foglia" stroke="none" stroke-width="1" fill="none" fill-rule="evenodd">
        <g id="Pagina-Metodi-di-pagamento-MVP" transform="translate(-877.000000, -621.000000)">
            <g id="Group-9-Copy" transform="translate(779.000000, 603.000000)">
                <g id="Group-14" transform="translate(9.000000, 16.000000)">
                    <g id="ic-device" transform="translate(89.000000, 2.000000)">
                        <g id="Group-2" transform="translate(0.308317, 0.308317)">
                            <path d="M-10.497046,21.5993681 C-10.497046,19.5544161 -8.84855072,17.896655 -6.79670052,17.896655 L55.4857153,17.896655 C58.2085663,17.896655 60.4158732,20.1067109 60.4158732,22.8299895 L60.4158732,54.8944379 C60.4158732,57.6190434 58.21583,59.8277725 55.4857153,59.8277725 L-5.56688809,59.8277725 C-8.28973914,59.8277725 -10.497046,57.6177165 -10.497046,54.8944379 L-10.497046,21.5993681 Z" id="mail-copy" fill-opacity="0.8" fill="#CBF1F2" fill-rule="nonzero" transform="translate(24.959414, 38.862214) rotate(90.000000) translate(-24.959414, -38.862214) "></path>
                            <g id="Group" transform="translate(0.154159, 0.000000)">
                                <g id="Group-3">
                                    <mask id="mask-2" fill="white">
                                        <use xlink:href="#path-1"></use>
                                    </mask>
                                    <g id="Clip-2"></g>
                                    <path d="M38.9240243,60.4132788 L38.9240243,63.7245267 C38.9240243,65.5502453 37.4386299,67.0357746 35.6127764,67.0357746 L5.33849028,67.0357746 C3.51263677,67.0357746 2.02724235,65.5502453 2.02724235,63.7245267 L2.02724235,60.4132788 L38.9240243,60.4132788 Z M38.924,8.514 L38.9240243,58.3859015 L2.02724235,58.3859015 L2.02724235,8.51457973 L38.924,8.514 Z M35.6127764,2.02724235 C37.4386299,2.02724235 38.9240243,3.51277166 38.9240243,5.33849028 L38.9240243,6.48733738 L2.02724235,6.48733738 L2.02724235,5.33849028 C2.02724235,3.51277166 3.51263677,2.02724235 5.33849028,2.02724235 L35.6127764,2.02724235 Z M5.33849028,0 C2.39494896,0 0,2.39494896 0,5.33849028 L0,63.7245267 C0,66.668068 2.39494896,69.063017 5.33849028,69.063017 L35.6127764,69.063017 C38.5563177,69.063017 40.9512666,66.668068 40.9512666,63.7245267 L40.9512666,5.33849028 C40.9512666,2.39494896 38.5563177,0 35.6127764,0 L5.33849028,0 Z" id="Fill-1" fill="#00C5CA" mask="url(#mask-2)"></path>
                                </g>
                                <path d="M22.6381016,62.7108381 L18.313165,62.7108381 C17.753242,62.7108381 17.2994764,63.1647386 17.2994764,63.7245267 C17.2994764,64.2843148 17.753242,64.7380804 18.313165,64.7380804 L22.6381016,64.7380804 C23.1980246,64.7380804 23.6516553,64.2843148 23.6516553,63.7245267 C23.6516553,63.1647386 23.1980246,62.7108381 22.6381016,62.7108381" id="Fill-4" fill="#00C5CA"></path>
                                <path d="M20.4755659,5.27091104 L20.6107244,5.27091104 C21.1707823,5.27091104 21.624413,4.81714544 21.624413,4.25735731 C21.624413,3.69743429 21.1707823,3.24366869 20.6107244,3.24366869 L20.4755659,3.24366869 C19.9156429,3.24366869 19.4620121,3.69743429 19.4620121,4.25735731 C19.4620121,4.81714544 19.9156429,5.27091104 20.4755659,5.27091104" id="Fill-5" fill="#00C5CA"></path>
                                <path d="M24.8005024,5.27091104 L24.9356609,5.27091104 C25.4955839,5.27091104 25.9493495,4.81714544 25.9493495,4.25735731 C25.9493495,3.69743429 25.4955839,3.24366869 24.9356609,3.24366869 L24.8005024,3.24366869 C24.2405794,3.24366869 23.7868138,3.69743429 23.7868138,4.25735731 C23.7868138,4.81714544 24.2405794,5.27091104 24.8005024,5.27091104" id="Fill-6" fill="#00C5CA"></path>
                                <path d="M16.1507642,5.27091104 L16.2859227,5.27091104 C16.8458457,5.27091104 17.2994764,4.81714544 17.2994764,4.25735731 C17.2994764,3.69743429 16.8458457,3.24366869 16.2859227,3.24366869 L16.1507642,3.24366869 C15.5908412,3.24366869 15.1370756,3.69743429 15.1370756,4.25735731 C15.1370756,4.81714544 15.5908412,5.27091104 16.1507642,5.27091104" id="Fill-7" fill="#00C5CA"></path>
                            </g>
                        </g>
                    </g>
                </g>
            </g>
        </g>
    </g>
</svg>