<?xml version="1.0" encoding="UTF-8"?>
<svg width="48px" height="48px" viewBox="0 0 48 48" version="1.1" xmlns="http://www.w3.org/2000/svg" xmlns:xlink="http://www.w3.org/1999/xlink">
    <title>ic-filters</title>
    <defs>
        <path d="M14.02,10.433 C11.989,10.433 10.336,12.086 10.336,14.117 C10.336,16.148 11.989,17.801 14.02,17.801 C16.051,17.801 17.703,16.148 17.703,14.117 C17.703,12.086 16.051,10.433 14.02,10.433 L14.02,10.433 Z M14.02,19.724 C10.929,19.724 8.414,17.209 8.414,14.117 C8.414,11.025 10.929,8.51 14.02,8.51 C17.111,8.51 19.626,11.025 19.626,14.117 C19.626,17.209 17.111,19.724 14.02,19.724 L14.02,19.724 Z M8.659,22.151 L9.224,22.476 C9.897,22.864 10.618,23.169 11.366,23.383 L11.982,23.559 L12.273,26.055 C12.287,26.171 12.385,26.26 12.5,26.26 L15.309,26.26 C15.425,26.26 15.522,26.171 15.536,26.054 L15.818,23.609 L16.455,23.443 C17.254,23.235 18.027,22.922 18.753,22.514 L19.315,22.198 L21.219,23.704 C21.311,23.776 21.444,23.768 21.528,23.685 L23.51,21.703 C23.593,21.62 23.6,21.491 23.525,21.398 L22.034,19.505 L22.359,18.941 C22.777,18.218 23.095,17.459 23.304,16.685 L23.474,16.056 L25.797,15.788 C25.912,15.775 26,15.678 26,15.562 L26,12.752 C26,12.637 25.912,12.539 25.795,12.525 L23.492,12.257 L23.326,11.622 C23.124,10.856 22.819,10.105 22.419,9.391 L22.104,8.829 L23.52,7.04 C23.593,6.948 23.584,6.815 23.501,6.731 L21.524,4.753 C21.44,4.669 21.312,4.663 21.22,4.737 L19.457,6.135 L18.889,5.801 C18.156,5.371 17.367,5.04 16.541,4.818 L15.912,4.648 L15.648,2.386 C15.635,2.27 15.538,2.182 15.422,2.182 L12.613,2.182 C12.498,2.182 12.4,2.27 12.386,2.387 L12.123,4.65 L11.492,4.818 C10.65,5.043 9.841,5.385 9.087,5.835 L8.517,6.175 L6.703,4.737 C6.612,4.665 6.479,4.673 6.395,4.756 L4.413,6.739 C4.33,6.822 4.323,6.95 4.397,7.043 L5.876,8.916 L5.566,9.476 C5.173,10.186 4.875,10.942 4.68,11.724 L4.518,12.37 L2.124,12.643 C2.01,12.657 1.922,12.754 1.922,12.87 L1.922,15.68 C1.922,15.795 2.01,15.893 2.127,15.907 L4.585,16.192 L4.764,16.804 C4.975,17.528 5.268,18.223 5.633,18.868 L5.952,19.432 L4.397,21.393 C4.325,21.484 4.333,21.617 4.416,21.701 L6.398,23.684 C6.48,23.767 6.61,23.773 6.703,23.7 L8.659,22.151 Z M15.309,28.182 L12.5,28.182 C11.409,28.182 10.491,27.364 10.364,26.278 L10.219,25.036 C9.749,24.871 9.291,24.678 8.846,24.455 L7.896,25.206 C7.04,25.886 5.812,25.816 5.039,25.043 L3.053,23.057 C2.283,22.279 2.215,21.052 2.89,20.199 L3.654,19.236 C3.45,18.822 3.27,18.394 3.116,17.957 L1.904,17.816 C0.818,17.688 -0.001,16.77 -0.001,15.68 L-0.001,12.87 C-0.001,11.78 0.818,10.861 1.903,10.734 L2.998,10.609 C3.158,10.1 3.355,9.602 3.587,9.12 L2.889,8.236 C2.211,7.381 2.281,6.152 3.053,5.38 L5.039,3.393 C5.819,2.623 7.045,2.556 7.897,3.23 L8.688,3.857 C9.227,3.577 9.787,3.34 10.362,3.15 L10.477,2.163 C10.604,1.078 11.522,0.259 12.613,0.259 L15.422,0.259 C16.513,0.259 17.431,1.078 17.558,2.162 L17.673,3.151 C18.225,3.334 18.762,3.558 19.278,3.823 L20.025,3.23 C20.883,2.55 22.112,2.62 22.884,3.394 L24.864,5.375 C25.634,6.153 25.703,7.38 25.028,8.233 L24.399,9.028 C24.634,9.506 24.833,9.997 24.997,10.496 L26.019,10.616 C27.104,10.744 27.922,11.662 27.922,12.752 L27.922,15.562 C27.922,16.652 27.104,17.571 26.02,17.698 L24.968,17.819 C24.796,18.33 24.586,18.833 24.338,19.323 L25.034,20.205 C25.712,21.061 25.642,22.29 24.869,23.062 L22.883,25.048 C22.104,25.819 20.878,25.886 20.025,25.211 L19.118,24.493 C18.62,24.738 18.105,24.947 17.58,25.117 L17.446,26.277 C17.318,27.364 16.399,28.182 15.309,28.182 L15.309,28.182 Z M36.015,23.184 C35.931,23.184 35.845,23.188 35.76,23.196 C34.973,23.261 34.261,23.629 33.751,24.232 C33.242,24.834 32.999,25.596 33.066,26.378 C33.132,27.162 33.499,27.872 34.102,28.38 C34.705,28.89 35.478,29.14 36.255,29.067 C37.041,29.001 37.754,28.633 38.264,28.03 C38.771,27.428 39.016,26.665 38.948,25.884 L38.948,25.882 C38.883,25.101 38.515,24.39 37.912,23.882 C37.375,23.428 36.709,23.184 36.015,23.184 L36.015,23.184 Z M35.996,31 C34.851,31 33.75,30.6 32.861,29.85 C31.866,29.009 31.259,27.834 31.15,26.54 C31.04,25.247 31.441,23.987 32.282,22.992 C33.124,21.996 34.301,21.388 35.598,21.28 C36.901,21.168 38.156,21.571 39.152,22.412 C40.148,23.252 40.756,24.428 40.864,25.722 C40.975,27.015 40.572,28.276 39.732,29.271 C38.891,30.267 37.713,30.875 36.417,30.983 C36.276,30.995 36.136,31 35.996,31 L35.996,31 Z M32.042,33.073 L32.631,33.347 C33.226,33.623 33.839,33.824 34.453,33.941 L35.088,34.062 L35.492,36.059 C35.517,36.182 35.631,36.256 35.763,36.259 L37.746,36.089 C37.873,36.079 37.973,35.976 37.977,35.852 L38.041,33.86 L38.66,33.641 C39.308,33.412 39.923,33.101 40.489,32.716 L41.021,32.356 L42.658,33.435 C42.766,33.506 42.905,33.488 42.989,33.388 L44.276,31.866 C44.356,31.771 44.353,31.631 44.269,31.54 L42.93,30.125 L43.211,29.532 C43.504,28.912 43.714,28.266 43.833,27.613 L43.949,26.974 L45.796,26.597 C45.921,26.572 46.009,26.454 45.999,26.329 L45.83,24.346 C45.819,24.221 45.716,24.121 45.591,24.118 L43.72,24.058 L43.5,23.441 C43.275,22.812 42.973,22.215 42.599,21.666 L42.233,21.131 L43.257,19.596 C43.332,19.485 43.313,19.348 43.219,19.268 L41.692,17.981 C41.597,17.9 41.455,17.904 41.365,17.989 L40.038,19.23 L39.444,18.944 C38.819,18.642 38.146,18.425 37.444,18.298 L36.804,18.183 L36.437,16.384 C36.411,16.261 36.295,16.174 36.168,16.183 L34.18,16.352 C34.054,16.363 33.955,16.465 33.951,16.588 L33.891,18.423 L33.276,18.644 C32.591,18.891 31.948,19.228 31.367,19.646 L30.828,20.035 L29.268,19 C29.16,18.93 29.021,18.949 28.938,19.047 L27.653,20.578 C27.57,20.676 27.573,20.815 27.658,20.905 L28.979,22.311 L28.72,22.895 C28.447,23.507 28.253,24.152 28.14,24.812 L28.029,25.461 L26.125,25.85 C26.001,25.874 25.913,25.993 25.923,26.118 L26.092,28.1 C26.103,28.226 26.206,28.325 26.332,28.329 L28.332,28.393 L28.561,28.991 C28.776,29.556 29.065,30.108 29.421,30.631 L29.784,31.164 L28.667,32.848 C28.598,32.954 28.616,33.092 28.714,33.174 L30.239,34.459 C30.335,34.541 30.477,34.537 30.568,34.453 L32.042,33.073 Z M35.746,38.182 C34.713,38.182 33.813,37.458 33.607,36.44 L33.454,35.684 C33.108,35.592 32.765,35.48 32.425,35.348 L31.885,35.854 C31.085,36.608 29.843,36.642 28.999,35.929 L27.474,34.644 C26.633,33.934 26.457,32.705 27.064,31.787 L27.48,31.16 C27.31,30.87 27.154,30.575 27.016,30.275 L26.27,30.25 C25.173,30.215 24.272,29.363 24.177,28.266 L24.007,26.276 C23.919,25.173 24.666,24.183 25.743,23.965 L26.379,23.836 C26.47,23.455 26.584,23.08 26.72,22.713 L26.26,22.224 C25.502,21.423 25.469,20.182 26.184,19.338 L27.469,17.808 C28.183,16.966 29.41,16.79 30.328,17.397 L30.805,17.712 C31.189,17.474 31.593,17.263 32.011,17.08 L32.029,16.528 C32.062,15.433 32.916,14.532 34.015,14.436 L36.014,14.266 C37.111,14.184 38.103,14.925 38.32,16.001 L38.432,16.545 C38.854,16.651 39.268,16.784 39.668,16.943 L40.049,16.588 C40.848,15.832 42.09,15.799 42.933,16.512 L44.458,17.798 C45.308,18.514 45.478,19.749 44.852,20.669 L44.538,21.139 C44.734,21.474 44.911,21.821 45.066,22.177 L45.651,22.196 C46.748,22.23 47.649,23.083 47.746,24.18 L47.915,26.171 C48.003,27.273 47.257,28.263 46.179,28.481 L45.583,28.602 C45.484,28.988 45.361,29.368 45.214,29.743 L45.665,30.22 C46.423,31.022 46.458,32.263 45.745,33.107 L44.457,34.631 C43.746,35.469 42.517,35.643 41.601,35.04 L41.018,34.656 C40.664,34.864 40.298,35.048 39.921,35.21 L39.898,35.913 C39.863,37.011 39.009,37.911 37.911,38.005 L35.92,38.175 C35.861,38.179 35.804,38.182 35.746,38.182 L35.746,38.182 Z M17.501,35.899 C16.987,35.899 16.495,36.105 16.111,36.479 C15.676,36.905 15.433,37.488 15.426,38.12 C15.413,39.365 16.331,40.387 17.472,40.401 C17.975,40.4 18.496,40.201 18.885,39.82 C19.32,39.394 19.563,38.812 19.57,38.179 C19.582,36.935 18.665,35.912 17.523,35.899 L17.501,35.899 Z M17.495,42.324 C17.48,42.324 17.465,42.323 17.45,42.323 C15.249,42.297 13.479,40.403 13.503,38.101 C13.516,36.954 13.964,35.89 14.767,35.105 C15.523,34.366 16.5,33.967 17.546,33.977 C19.746,34.002 21.516,35.896 21.493,38.199 C21.48,39.345 21.032,40.41 20.229,41.195 C19.484,41.923 18.515,42.324 17.495,42.324 L17.495,42.324 Z M13.906,43.287 L14.491,43.652 C14.911,43.915 15.35,44.119 15.796,44.257 L16.405,44.447 L16.56,46.019 C16.574,46.158 16.667,46.244 16.745,46.245 L17.916,46.26 L17.918,46.26 C18.008,46.26 18.092,46.162 18.106,46.042 L18.29,44.503 L18.924,44.337 C19.414,44.21 19.893,44.013 20.346,43.751 L20.935,43.412 L22.096,44.406 C22.166,44.466 22.247,44.464 22.311,44.395 L23.144,43.531 C23.24,43.432 23.249,43.259 23.166,43.144 L22.308,41.963 L22.612,41.425 C22.878,40.956 23.083,40.457 23.221,39.942 L23.392,39.306 L24.811,39.152 C24.894,39.143 24.985,39.039 24.986,38.899 L24.9990738,37.661 C25.002,37.511 24.913,37.41 24.828,37.399 L23.428,37.206 L23.275,36.568 C23.149,36.043 22.963,35.541 22.723,35.075 L22.444,34.533 L23.281,33.444 C23.365,33.333 23.36,33.161 23.268,33.061 L22.452,32.177 C22.421,32.143 22.336,32.077 22.236,32.157 L21.138,33.051 L20.551,32.676 C20.103,32.388 19.62,32.166 19.118,32.016 L18.498,31.831 L18.362,30.42 C18.349,30.284 18.255,30.198 18.177,30.197 L17.002,30.182 L17,30.182 C16.913,30.182 16.831,30.279 16.816,30.399 L16.646,31.803 L16.022,31.974 C15.503,32.116 15.001,32.332 14.533,32.619 L13.934,32.984 L12.827,32.028 C12.76,31.969 12.682,31.974 12.617,32.041 L11.777,32.911 C11.683,33.009 11.673,33.183 11.757,33.297 L12.605,34.456 L12.322,34.989 C12.064,35.473 11.871,35.973 11.748,36.475 L11.587,37.128 L10.112,37.289 C10.028,37.298 9.937,37.402 9.937,37.541 L9.92196726,38.781 C9.92,38.929 10.01,39.032 10.094,39.042 L11.592,39.247 L11.754,39.871 C11.878,40.352 12.056,40.812 12.282,41.24 L12.57,41.785 L11.642,42.996 C11.557,43.108 11.562,43.281 11.654,43.38 L12.47,44.264 C12.535,44.336 12.613,44.343 12.685,44.285 L13.906,43.287 Z M17.921,48.182 L17.889,48.182 L16.725,48.166 C15.65,48.158 14.755,47.315 14.647,46.206 L14.614,45.872 C14.434,45.798 14.256,45.716 14.081,45.627 L13.902,45.773 C13.04,46.479 11.817,46.391 11.057,45.569 L10.241,44.685 C9.51,43.892 9.457,42.691 10.115,41.829 L10.311,41.572 C10.227,41.379 10.151,41.182 10.082,40.982 L9.836,40.948 C8.774,40.805 7.984,39.863 7.999,38.756 L8.014,37.524 C8.021,36.419 8.834,35.495 9.903,35.377 L10.073,35.36 C10.155,35.117 10.249,34.875 10.355,34.638 L10.204,34.431 C9.564,33.553 9.645,32.352 10.394,31.575 L11.234,30.705 C12.008,29.904 13.232,29.844 14.081,30.57 L14.155,30.634 C14.395,30.517 14.64,30.412 14.889,30.32 L14.908,30.169 C15.04,29.063 15.931,28.276 17.035,28.26 L18.197,28.275 C19.271,28.284 20.167,29.126 20.275,30.235 L20.291,30.39 C20.524,30.483 20.752,30.587 20.977,30.704 L21.021,30.667 C21.882,29.963 23.106,30.051 23.865,30.872 L24.681,31.756 C25.412,32.548 25.466,33.749 24.808,34.613 L24.696,34.758 C24.796,34.993 24.885,35.232 24.964,35.476 L25.087,35.494 C26.149,35.636 26.939,36.579 26.922,37.687 L26.908,38.917 C26.899,40.023 26.088,40.947 25.019,41.064 L24.878,41.079 C24.789,41.328 24.687,41.573 24.575,41.813 L24.72,42.012 C25.358,42.888 25.278,44.088 24.528,44.867 L23.694,45.731 C22.917,46.534 21.693,46.592 20.846,45.867 L20.693,45.736 C20.481,45.834 20.266,45.922 20.047,46.001 L20.015,46.271 C19.884,47.366 18.986,48.182 17.921,48.182 L17.921,48.182 Z" id="path-1"></path>
    </defs>
    <g id="Pagine-Foglia" stroke="none" stroke-width="1" fill="none" fill-rule="evenodd">
        <g id="Artboard" transform="translate(-161.000000, -9.000000)">
            <g id="Group" transform="translate(161.000000, 9.000000)">
                <g id="colors/@bluegrey-light" transform="translate(0.000500, -0.259100)">
                    <mask id="mask-2" fill="white">
                        <use xlink:href="#path-1"></use>
                    </mask>
                    <g id="Mask"></g>
                    <g id="Group" mask="url(#mask-2)">
                        <g transform="translate(-24.000000, -19.000000)">
                            <rect id="Rectangle-Copy-9" fill="#00C5CA" x="0" y="0" width="100" height="100"></rect>
                        </g>
                    </g>
                </g>
            </g>
        </g>
    </g>
</svg>