<?xml version="1.0" encoding="UTF-8"?>
<svg width="47px" height="30px" viewBox="0 0 47 30" version="1.1" xmlns="http://www.w3.org/2000/svg" xmlns:xlink="http://www.w3.org/1999/xlink">
    <title>C4F55B6B-C329-45F8-A40D-9F3EC33A6494</title>
    <g id="Pagine-Foglia" stroke="none" stroke-width="1" fill="none" fill-rule="evenodd">
        <g id="Pagina-Metodi-di-pagamento-MVP" transform="translate(-257.000000, -7248.000000)" fill-rule="nonzero">
            <g id="Group-10" transform="translate(0.000000, 927.000000)">
                <g id="Group-5" transform="translate(256.000000, 6321.000000)">
                    <g id="ic-googlepay" transform="translate(1.000000, 0.000000)">
                        <g id="border">
                            <path d="M42.6541557,0.00990047145 L4.19556033,0.00990047145 C4.03535746,0.00990047145 3.87487155,0.00990047145 3.71495172,0.0107490833 C3.57993976,0.0118805657 3.44521084,0.0132949188 3.31019889,0.0169722367 C3.01611623,0.0248926139 2.71948618,0.0421477213 2.42908309,0.0944787847 C2.13415132,0.147375589 1.85959868,0.233933997 1.59183912,0.370277633 C1.32832521,0.504075432 1.08745482,0.679172342 0.878285347,0.887930853 C0.669398919,1.09697224 0.494194721,1.33741225 0.360314936,1.60104767 C0.223887757,1.86864326 0.137276311,2.14302776 0.0846301382,2.43806182 C0.0319839653,2.72856993 0.0147182849,3.02473546 0.00679305457,3.31835516 C0.00311348335,3.45328444 0.0014152197,3.58793086 0.000566087881,3.72257726 C-4.52870305e-05,3.88268204 -4.52870305e-05,4.0427868 -4.52870305e-05,4.20317444 L-4.52870305e-05,25.7912938 C-4.52870305e-05,25.9516815 -4.52870305e-05,26.1115035 0.000566087881,26.2718911 C0.0014152197,26.4065375 0.00311348335,26.5414668 0.00679305457,26.6761132 C0.0147182849,26.96945 0.0319839653,27.2658984 0.0846301382,27.5561237 C0.137276311,27.8511577 0.223887757,28.1255422 0.360314936,28.3934206 C0.494194721,28.6567732 0.669398919,28.897496 0.878285347,29.1062546 C1.08745482,29.315296 1.32832521,29.4903929 1.59183912,29.6239078 C1.85959868,29.7605343 2.13415132,29.8470928 2.42908309,29.9002724 C2.71948618,29.9520377 3.01611623,29.9695757 3.31019889,29.977496 C3.44521084,29.9806076 3.57993976,29.9825878 3.71495172,29.9831535 C3.87487155,29.984285 4.03535746,29.984285 4.19556033,29.984285 L42.6541557,29.984285 C42.8140756,29.984285 42.9745615,29.984285 43.1344813,29.9831535 C43.2692102,29.9825878 43.4039391,29.9806076 43.5395172,29.977496 C43.8330337,29.9695757 44.1296638,29.9520377 44.4206329,29.9002724 C44.7152817,29.8470928 44.9898343,29.7605343 45.2578769,29.6239078 C45.5213908,29.4903929 45.7616951,29.315296 45.9711476,29.1062546 C46.1797511,28.897496 46.3549553,28.6567732 46.4891181,28.3934206 C46.6258283,28.1255422 46.7124397,27.8511577 46.7648029,27.5561237 C46.8174491,27.2658984 46.8344317,26.96945 46.8423569,26.6761132 C46.8460365,26.5414668 46.8477347,26.4065375 46.8485839,26.2718911 C46.8497161,26.1115035 46.8497161,25.9516815 46.8497161,25.7912938 L46.8497161,4.20317444 C46.8497161,4.0427868 46.8497161,3.88268204 46.8485839,3.72257726 C46.8477347,3.58793086 46.8460365,3.45328444 46.8423569,3.31835516 C46.8344317,3.02473546 46.8174491,2.72856993 46.7648029,2.43806182 C46.7124397,2.14302776 46.6258283,1.86864326 46.4891181,1.60104767 C46.3549553,1.33741225 46.1797511,1.09697224 45.9711476,0.887930853 C45.7616951,0.679172342 45.5213908,0.504075432 45.2578769,0.370277633 C44.9898343,0.233933997 44.7152817,0.147375589 44.4206329,0.0944787847 C44.1296638,0.0421477213 43.8330337,0.0248926139 43.5395172,0.0169722367 C43.4039391,0.0132949188 43.2692102,0.0118805657 43.1344813,0.0107490833 C42.9745615,0.00990047145 42.8140756,0.00990047145 42.6541557,0.00990047145" id="Fill-1" fill="#3C4043"></path>
                            <path d="M42.6541557,1.00899948 L43.1274052,1.00984809 C43.2553411,1.0106967 43.38356,1.01211105 43.512345,1.01578837 C43.7365158,1.02172865 43.9988975,1.03389209 44.2434474,1.07773703 C44.4557304,1.11592457 44.6340481,1.17419592 44.8050066,1.26103719 C44.9739838,1.34674699 45.1285258,1.4593295 45.2635379,1.5939759 C45.3991159,1.7297538 45.5117674,1.88448403 45.5986618,2.055055 C45.6852733,2.22477737 45.7430143,2.40185438 45.7812251,2.61570456 C45.8248139,2.85755893 45.8369849,3.12034573 45.8429287,3.34579361 C45.8466084,3.47280251 45.8483066,3.60009429 45.8488727,3.73049764 C45.8500049,3.88805657 45.8500049,4.04533264 45.8500049,4.20317444 L45.8500049,25.7912938 C45.8500049,25.9491356 45.8500049,26.1064117 45.8488727,26.2670822 C45.8483066,26.394374 45.8466084,26.5216658 45.8429287,26.6492404 C45.8369849,26.8741225 45.8248139,27.1369094 45.7806591,27.3813096 C45.7430143,27.592331 45.6852733,27.769408 45.5980958,27.9399791 C45.5114843,28.1102671 45.3991159,28.2647145 45.2641039,28.3996438 C45.1282428,28.5354217 44.9742669,28.6474384 44.8033084,28.7339969 C44.6334821,28.8205553 44.4557304,28.8788267 44.2454287,28.9164484 C43.995784,28.9608591 43.7226467,28.9733054 43.5168737,28.9786799 C43.3875226,28.9817915 43.2587376,28.9834887 43.126556,28.9840545 C42.9694667,28.9851859 42.8115281,28.9851859 42.6541557,28.9851859 L4.19556033,28.9851859 C4.19357902,28.9851859 4.19159772,28.9851859 4.18933337,28.9851859 C4.03394224,28.9851859 3.87798503,28.9851859 3.71976346,28.9840545 C3.59069543,28.9834887 3.46191044,28.9817915 3.3373711,28.9789628 C3.12678641,28.9733054 2.85336597,28.9608591 2.60598556,28.9167313 C2.3937026,28.8788267 2.21595101,28.8205553 2.04386029,28.7328654 C1.87460002,28.6471556 1.72062411,28.5351388 1.58476303,28.399078 C1.45003411,28.2647145 1.3379487,28.11055 1.25133726,27.9399791 C1.16444278,27.7696909 1.10641876,27.5920482 1.06820783,27.3784809 C1.02433602,27.1343635 1.01216513,26.8729911 1.00593816,26.6492404 C1.00254164,26.521383 1.00112642,26.3932425 1.00027729,26.2662336 L0.999711197,25.8905815 L0.999711197,4.10416972 L1.00027729,3.72936617 C1.00112642,3.60122578 1.00254164,3.47336826 1.00593816,3.34551074 C1.01216513,3.12147721 1.02433602,2.8598219 1.06877392,2.61372447 C1.10641876,2.40242012 1.16444278,2.2244945 1.25162031,2.05335778 C1.33766567,1.88420115 1.45003411,1.7297538 1.58532911,1.59454165 C1.72034107,1.4593295 1.8751661,1.34731273 2.04527551,1.26075432 C2.21538492,1.17391305 2.3937026,1.11592457 2.60598556,1.07773703 C2.85053552,1.03389209 3.11291725,1.02172865 3.33765415,1.01578837 C3.46559001,1.01211105 3.59380892,1.0106967 3.72089564,1.00984809 L4.19556033,1.00899948 L42.6541557,1.00899948" id="wihit-fill" fill="#FFFFFE"></path>
                        </g>
                        <g id="GPay-logo" transform="translate(5.377835, 8.490566)">
                            <g id="Pay" transform="translate(15.834916, 0.840970)" fill="#3C4043">
                                <path d="M1.34306616,6.35773585 L1.34306616,10.6298652 L0.0082905319,10.6298652 L0.0082905319,0.084097035 L3.54834765,0.084097035 C4.40227244,0.067277628 5.23132563,0.395256065 5.83653446,1.00075472 C7.04695211,2.14447439 7.1215669,4.0702965 5.98576403,5.30652291 C5.93602084,5.35698114 5.88627764,5.40743935 5.83653446,5.45789757 C5.21474456,6.05498653 4.45201563,6.35773585 3.54834765,6.35773585 L1.34306616,6.35773585 Z M1.34306616,1.37919138 L1.34306616,5.06264151 L3.58150978,5.06264151 C4.07894169,5.07946092 4.55979254,4.87762803 4.89970435,4.51601078 C5.59610903,3.78436658 5.57952796,2.60700808 4.85825169,1.90059299 C4.51833988,1.56420485 4.06236063,1.37919138 3.58150978,1.37919138 L1.34306616,1.37919138 Z" id="Shape"></path>
                                <path d="M9.87402349,3.17886792 C10.8605968,3.17886792 11.6399068,3.44797844 12.2119535,3.97778976 C12.7840001,4.50760107 13.0658783,5.24765498 13.0658783,6.18113208 L13.0658783,10.6298652 L11.7891364,10.6298652 L11.7891364,9.62911051 L11.7311026,9.62911051 C11.1756369,10.4532615 10.4460702,10.8653369 9.52582115,10.8653369 C8.74651115,10.8653369 8.08326859,10.6298652 7.56096508,10.1589218 C7.04695211,9.72161725 6.7567835,9.07407008 6.77336456,8.3928841 C6.77336456,7.64442049 7.05524264,7.05574124 7.61070828,6.61002696 C8.16617391,6.16431267 8.91232179,5.94566038 9.84086136,5.94566038 C10.6367524,5.94566038 11.2834139,6.09703504 11.7974269,6.38296496 L11.7974269,6.07180593 C11.7974269,5.60927224 11.5984541,5.17196765 11.2502518,4.86921833 C10.8937589,4.54964959 10.4377797,4.37304582 9.96521934,4.37304582 C9.21907147,4.37304582 8.6304437,4.69261456 8.19933604,5.33175202 L7.02208051,4.5832884 C7.65216094,3.64981132 8.60557211,3.17886792 9.87402349,3.17886792 Z M8.14959286,8.41811321 C8.14959286,8.77132075 8.31540349,9.09929919 8.58899104,9.30113208 C8.88745019,9.53660377 9.25223359,9.66274932 9.62530753,9.65433962 C10.1890637,9.65433962 10.7279483,9.42727762 11.1258937,9.02361186 C11.5652919,8.60312668 11.7891364,8.10695418 11.7891364,7.53509434 C11.3746097,7.19870619 10.7942725,7.03051213 10.0481247,7.03892184 C9.50924008,7.03892184 9.05326083,7.17347709 8.68847743,7.43417789 C8.33198455,7.69487871 8.14959286,8.02285714 8.14959286,8.41811321 Z" id="Shape"></path>
                                <polygon id="Path" points="20.3947084 3.41433962 15.9344023 13.8003235 14.558174 13.8003235 16.2162804 10.1673315 13.2897226 3.41433962 14.7405657 3.41433962 16.8546514 8.59471699 16.8795229 8.59471699 18.9438654 3.41433962"></polygon>
                            </g>
                            <g id="Super-G">
                                <path d="M11.7808458,6.27363881 C11.7808458,5.86156335 11.7476837,5.44948787 11.6813594,5.04582211 L6.05208828,5.04582211 L6.05208828,7.37530997 L9.27710519,7.37530997 C9.14445668,8.12377359 8.71334902,8.79654986 8.08326859,9.21703504 L8.08326859,10.7307817 L10.006672,10.7307817 C11.1341843,9.67956874 11.7808458,8.12377359 11.7808458,6.27363881 Z" id="Path" fill="#4285F4"></path>
                                <path d="M6.05208828,12.1940701 C7.66045147,12.1940701 9.0200987,11.655849 10.006672,10.7307817 L8.08326859,9.21703504 C7.54438403,9.58706199 6.85626988,9.79730458 6.05208828,9.79730458 C4.49346828,9.79730458 3.17527372,8.72927224 2.7027134,7.29962264 L0.721276275,7.29962264 L0.721276275,8.8638275 C1.73272116,10.9073854 3.7970636,12.1940701 6.05208828,12.1940701 Z" id="Path" fill="#34A853"></path>
                                <path d="M2.7027134,7.29962264 C2.45399744,6.55115903 2.45399744,5.73541779 2.7027134,4.97854447 L2.7027134,3.42274932 L0.721276275,3.42274932 C-0.132648511,5.12991913 -0.132648511,7.14824798 0.721276275,8.85541779 L2.7027134,7.29962264 Z" id="Path" fill="#FBBC04"></path>
                                <path d="M6.05208828,2.48086253 C6.90601307,2.46404313 7.72677572,2.79202156 8.34027508,3.38911051 L10.0481247,1.6567116 C8.96206498,0.630727762 7.5360935,0.067277628 6.05208828,0.084097035 C3.7970636,0.084097035 1.73272116,1.37919138 0.721276275,3.42274932 L2.7027134,4.98695418 C3.17527372,3.54889488 4.49346828,2.48086253 6.05208828,2.48086253 Z" id="Path" fill="#EA4335"></path>
                            </g>
                        </g>
                    </g>
                </g>
            </g>
        </g>
    </g>
</svg>