<?xml version="1.0" encoding="UTF-8"?>
<svg width="24px" height="16px" viewBox="0 0 24 16" version="1.1" xmlns="http://www.w3.org/2000/svg" xmlns:xlink="http://www.w3.org/1999/xlink">
    <title>ic-jcb-small</title>
    <g id="Page-1" stroke="none" stroke-width="1" fill="none" fill-rule="evenodd">
        <g id="ic-jcb-small" fill-rule="nonzero">
            <g id="jcb">
                <path d="M0.214285711,15.713555 L4.92857143,15.713555 C6.00107143,15.713555 7.28571429,14.5402762 7.28571429,13.6184144 L7.28571429,0 L2.57142857,0 C1.49892857,0 0.214285711,1.17327878 0.214285711,3.142711 L0.214285711,15.713555 Z" id="Path" fill="#047AB1"></path>
                <path d="M2.88964286,10.6223633 C1.98459702,10.6225209 1.08401269,10.5096776 0.214285711,10.2871407 L0.214285711,9.1348133 C0.889195701,9.50575564 1.6606514,9.71507657 2.45357143,9.74240409 C3.36107143,9.74240409 3.86785714,9.17671611 3.86785714,8.40151407 L3.86785714,5.23785166 L6.10714286,5.23785166 L6.10714286,8.40151407 C6.10714286,9.63764706 5.37642857,10.6223633 2.88964286,10.6223633 L2.88964286,10.6223633 Z" id="Path" fill="#FFFFFF"></path>
                <path d="M8.46428571,15.713555 L13.1785714,15.713555 C14.2510714,15.713555 15.5357143,14.5402762 15.5357143,13.6184144 L15.5357143,0 L10.8214286,0 C9.74892857,0 8.46428571,1.17327878 8.46428571,3.142711 L8.46428571,15.713555 Z" id="Path" fill="#D42D06"></path>
                <path d="M8.46428571,5.9711509 C9.14785714,5.38451151 10.3264286,5.01786189 12.2357143,5.10166752 C13.2728571,5.14357033 14.3571429,5.41593862 14.3571429,5.41593862 L14.3571429,6.57874169 C13.7369797,6.24534454 13.0398812,6.04119417 12.3182143,5.9816266 C10.8685714,5.86639386 9.98464286,6.58921739 9.98464286,7.85677749 C9.98464286,9.1243376 10.8685714,9.84716116 12.3182143,9.74240409 C13.0403206,9.6775213 13.7369631,9.46992523 14.3571429,9.1348133 L14.3571429,10.2871407 C14.3571429,10.2871407 13.2728571,10.5699847 12.2357143,10.6118874 C10.3264286,10.6956931 9.14785714,10.3290434 8.46428571,9.74240409 L8.46428571,5.9711509 Z" id="Path" fill="#FFFFFF"></path>
                <path d="M16.7142857,15.713555 L21.4285714,15.713555 C22.5010714,15.713555 23.7857143,14.5402762 23.7857143,13.6184144 L23.7857143,0 L19.0714286,0 C17.9989286,0 16.7142857,1.17327878 16.7142857,3.142711 L16.7142857,15.713555 Z" id="Path" fill="#67B637"></path>
                <path d="M22.6071429,9.11386189 C22.6071429,9.95191813 21.8764286,10.4757034 20.8982143,10.4757034 L16.7142857,10.4757034 L16.7142857,5.23785166 L20.5210714,5.23785166 L20.7921429,5.24832737 C21.6525,5.29023018 22.2889286,5.74068542 22.2889286,6.51588747 C22.2889286,7.12347826 21.8528571,7.64726343 21.0632143,7.77297187 L21.0632143,7.80439898 C21.9353571,7.85677749 22.6071429,8.34913555 22.6071429,9.11386189 Z M19.6017857,6.06543223 C19.5510618,6.05868858 19.4998589,6.05518768 19.4485714,6.05495652 L18.0342857,6.05495652 L18.0342857,7.37489514 L19.6017857,7.37489514 C19.8964286,7.31204092 20.1439286,7.07109974 20.1439286,6.71492583 C20.1439286,6.35875192 19.8964286,6.11781074 19.6017857,6.06543223 L19.6017857,6.06543223 Z M19.7785714,8.2024757 C19.7162184,8.19377267 19.653087,8.19026553 19.59,8.192 L18.0342857,8.192 L18.0342857,9.62717136 L19.59,9.62717136 L19.7785714,9.60621995 C20.0732143,9.54336573 20.3207143,9.27099744 20.3207143,8.90434783 C20.3207143,8.53769821 20.085,8.27580563 19.7785714,8.2024757 L19.7785714,8.2024757 Z" id="Shape" fill="#FFFFFF"></path>
            </g>
        </g>
    </g>
</svg>