<?xml version="1.0" encoding="UTF-8"?>
<svg width="48px" height="30px" viewBox="0 0 48 30" version="1.1" xmlns="http://www.w3.org/2000/svg" xmlns:xlink="http://www.w3.org/1999/xlink">
    <title>ic-jcb-large</title>
    <defs>
        <linearGradient x1="-57.5270968%" y1="50.1241953%" x2="232.39121%" y2="50.1241953%" id="linearGradient-1">
            <stop stop-color="#007940" offset="0%"></stop>
            <stop stop-color="#00873F" offset="22.85%"></stop>
            <stop stop-color="#40A737" offset="74.33%"></stop>
            <stop stop-color="#5CB531" offset="100%"></stop>
        </linearGradient>
        <linearGradient x1="0.182516704%" y1="49.95997%" x2="100.273441%" y2="49.95997%" id="linearGradient-2">
            <stop stop-color="#007940" offset="0%"></stop>
            <stop stop-color="#00873F" offset="22.85%"></stop>
            <stop stop-color="#40A737" offset="74.33%"></stop>
            <stop stop-color="#5CB531" offset="100%"></stop>
        </linearGradient>
        <linearGradient x1="-62.8015845%" y1="49.8578253%" x2="253.671294%" y2="49.8578253%" id="linearGradient-3">
            <stop stop-color="#007940" offset="0%"></stop>
            <stop stop-color="#00873F" offset="22.85%"></stop>
            <stop stop-color="#40A737" offset="74.33%"></stop>
            <stop stop-color="#5CB531" offset="100%"></stop>
        </linearGradient>
        <linearGradient x1="0.175556793%" y1="50.0058048%" x2="101.808162%" y2="50.0058048%" id="linearGradient-4">
            <stop stop-color="#1F286F" offset="0%"></stop>
            <stop stop-color="#004E94" offset="47.51%"></stop>
            <stop stop-color="#0066B1" offset="82.61%"></stop>
            <stop stop-color="#006FBC" offset="100%"></stop>
        </linearGradient>
        <linearGradient x1="-0.575855512%" y1="49.9142191%" x2="98.13299%" y2="49.9142191%" id="linearGradient-5">
            <stop stop-color="#6C2C2F" offset="0%"></stop>
            <stop stop-color="#882730" offset="17.35%"></stop>
            <stop stop-color="#BE1833" offset="57.31%"></stop>
            <stop stop-color="#DC0436" offset="85.85%"></stop>
            <stop stop-color="#E60039" offset="100%"></stop>
        </linearGradient>
    </defs>
    <g id="Page-1" stroke="none" stroke-width="1" fill="none" fill-rule="evenodd">
        <g id="ic-jcb-large" fill-rule="nonzero">
            <g id="Group">
                <path d="M46.4080402,0.25 C46.7815553,0.25 47.1151107,0.399846611 47.3561926,0.640448475 C47.6005304,0.884299801 47.75,1.22110169 47.75,1.58879032 L47.75,1.58879032 L47.75,28.3575 C47.75,28.7300173 47.5998817,29.0626379 47.3589792,29.3030608 C47.1144601,29.5470931 46.7767123,29.6962903 46.4080402,29.6962903 L46.4080402,29.6962903 L1.5919598,29.6962903 C1.21844466,29.6962903 0.884889271,29.5464437 0.64380743,29.3058418 C0.399469646,29.0619905 0.25,28.7251886 0.25,28.3575 L0.25,28.3575 L0.25,1.58879032 C0.25,1.21627298 0.400118296,0.883652443 0.641020802,0.643229555 C0.885539944,0.399197233 1.22328775,0.25 1.5919598,0.25 L1.5919598,0.25 Z" id="Shape" stroke="#E6E9F2" stroke-width="0.5" fill="#FFFFFF"></path>
                <g id="JCB_logo" transform="translate(7.065327, 2.000000)">
                    <g id="g6327" transform="translate(23.567839, 0.056452)">
                        <path d="M2.12261307,15.6499267 L4.59899497,15.6499267 C4.66974874,15.6499267 4.83484087,15.626393 4.90559464,15.626393 C5.37728643,15.5322581 5.77822446,15.108651 5.77822446,14.5203079 C5.77822446,13.9554985 5.37728643,13.5318915 4.90559464,13.4142229 C4.83484087,13.3906891 4.69333333,13.3906891 4.59899497,13.3906891 L2.12261307,13.3906891 L2.12261307,15.6499267 Z" id="path6338" fill="url(#linearGradient-1)"></path>
                        <path d="M4.3159799,0.0470674487 C1.95752094,0.0470674487 0.0235845896,1.95329912 0.0235845896,4.33020528 L0.0235845896,8.77807918 L6.08482412,8.77807918 C6.22633166,8.77807918 6.39142379,8.77807918 6.50934673,8.8016129 C7.87725293,8.87221408 8.89139028,9.57822581 8.89139028,10.8019795 C8.89139028,11.7668622 8.20743719,12.5905425 6.93386935,12.7552786 L6.93386935,12.802346 C8.32536013,12.8964809 9.38666667,13.6730938 9.38666667,14.8733138 C9.38666667,16.1676686 8.20743719,17.0148827 6.65085427,17.0148827 L6.22706285e-15,17.0148827 L6.22706285e-15,25.7223607 L6.29708543,25.7223607 C8.65554439,25.7223607 10.5894807,23.816129 10.5894807,21.4392229 L10.5894807,0.0470674487 L4.3159799,0.0470674487 Z" id="path6349" fill="url(#linearGradient-2)"></path>
                        <path d="M5.47162479,11.0843842 C5.47162479,10.5195748 5.07068677,10.1430352 4.59899497,10.072434 C4.5518258,10.072434 4.43390285,10.0489003 4.36314908,10.0489003 L2.12261307,10.0489003 L2.12261307,12.119868 L4.36314908,12.119868 C4.43390285,12.119868 4.57541039,12.119868 4.59899497,12.0963343 C5.07068677,12.0257331 5.47162479,11.6491935 5.47162479,11.0843842 L5.47162479,11.0843842 Z" id="path6360" fill="url(#linearGradient-3)"></path>
                    </g>
                    <path d="M4.39813768,0.0564516129 C2.08814675,0.0564516129 0.193954181,1.96219296 0.193954181,4.33848772 L0.193954181,14.902412 C1.37204956,15.4906037 2.59634475,15.8670465 3.82063995,15.8670465 C5.27593424,15.8670465 6.06133115,14.972995 6.06133115,13.7495561 L6.06133115,8.76168985 L9.66491701,8.76168985 L9.66491701,13.7260284 C9.66491701,15.6552974 8.48682164,17.2316514 4.49053732,17.2316514 C2.06504684,17.2316514 0.170854271,16.6905149 0.170854271,16.6905149 L0.170854271,25.7016129 L6.33853007,25.7016129 C8.648521,25.7016129 10.5427136,23.7958716 10.5427136,21.4195768 L10.5427136,0.0564516129 L4.39813768,0.0564516129 Z" id="path6371" fill="url(#linearGradient-4)"></path>
                    <path d="M16.1941332,0.298387097 C13.8841423,0.298387097 11.9899497,2.20063807 11.9899497,4.57258065 L11.9899497,10.1619107 C13.0525456,9.24601205 14.9005383,8.65889755 17.8804266,8.79980503 C19.4743204,8.87025877 21.1837137,9.31646579 21.1837137,9.31646579 L21.1837137,11.1247784 C20.329017,10.6785714 19.312621,10.2793336 17.9959262,10.1853952 C15.7321351,10.0210032 14.3692404,11.148263 14.3692404,13.1209677 C14.3692404,15.117157 15.7321351,16.2444169 17.9959262,16.0565402 C19.312621,15.9626019 20.329017,15.5398795 21.1837137,15.117157 L21.1837137,16.9254697 C21.1837137,16.9254697 19.4974203,17.3716767 17.8804266,17.4421305 C14.9005383,17.5830379 13.0525456,16.9959234 11.9899497,16.0800248 L11.9899497,25.9435484 L18.1576255,25.9435484 C20.4676165,25.9435484 22.361809,24.0412974 22.361809,21.6693548 L22.361809,0.298387097 L16.1941332,0.298387097 Z" id="path6384" fill="url(#linearGradient-5)"></path>
                </g>
            </g>
        </g>
    </g>
</svg>