<?xml version="1.0" encoding="UTF-8"?>
<svg width="25px" height="25px" viewBox="0 0 25 25" version="1.1" xmlns="http://www.w3.org/2000/svg" xmlns:xlink="http://www.w3.org/1999/xlink">
    <title>ic-ko</title>
    <defs>
        <path d="M12.5,0 C19.4035594,0 25,5.59644063 25,12.5 C25,19.4035594 19.4035594,25 12.5,25 C5.59644063,25 0,19.4035594 0,12.5 C0,5.59644063 5.59644063,0 12.5,0 Z M12.5,2 C6.70101013,2 2,6.70101013 2,12.5 C2,18.2989899 6.70101013,23 12.5,23 C18.2989899,23 23,18.2989899 23,12.5 C23,6.70101013 18.2989899,2 12.5,2 Z M15.680355,8.1715765 C16.0013205,7.92201068 16.4654187,7.94469848 16.7603601,8.23963991 C17.07988,8.55915978 17.07988,9.07720385 16.7603601,9.39672373 L16.7603601,9.39672373 L13.657,12.5 L16.7603601,15.6032763 C17.07988,15.9227961 17.07988,16.4408402 16.7603601,16.7603601 C16.4654187,17.0553015 16.0013205,17.0779893 15.680355,16.8284235 L15.6032763,16.7603601 L12.5,13.657 L9.39672373,16.7603601 L9.319645,16.8284235 C8.99867947,17.0779893 8.53458133,17.0553015 8.23963991,16.7603601 C7.92012003,16.4408402 7.92012003,15.9227961 8.23963991,15.6032763 L8.23963991,15.6032763 L11.343,12.5 L8.23963991,9.39672373 C7.92012003,9.07720385 7.92012003,8.55915978 8.23963991,8.23963991 C8.53458133,7.94469848 8.99867947,7.92201068 9.319645,8.1715765 L9.39672373,8.23963991 L12.5,11.343 L15.6032763,8.23963991 Z" id="path-1"></path>
    </defs>
    <g id="ic-ko" stroke="none" stroke-width="1" fill="none" fill-rule="evenodd">
        <g id="colors/@bluegrey">
            <mask id="mask-2" fill="white">
                <use xlink:href="#path-1"></use>
            </mask>
            <g id="Mask" fill-rule="nonzero"></g>
            <g id="Group" mask="url(#mask-2)">
                <g transform="translate(-32.000000, -33.000000)">
                    <rect id="Rectangle-Copy-11" fill="#C02927" x="0" y="0" width="100" height="100"></rect>
                </g>
            </g>
        </g>
    </g>
</svg>