<?xml version="1.0" encoding="UTF-8"?>
<svg width="27px" height="24px" viewBox="0 0 27 24" version="1.1" xmlns="http://www.w3.org/2000/svg" xmlns:xlink="http://www.w3.org/1999/xlink">
    <title>D4399844-727F-4A45-8FFC-6AD78B949E9A</title>
    <defs>
        <path d="M12.9174208,0 C19.5448378,0 24.9174208,5.372583 24.9174208,12 C24.9174208,18.627417 19.5448378,24 12.9174208,24 C6.29000382,24 0.917420822,18.627417 0.917420822,12 C0.917420822,5.372583 6.29000382,0 12.9174208,0 Z M12.9174208,2 C7.39457332,2 2.91742082,6.4771525 2.91742082,12 C2.91742082,17.5228475 7.39457332,22 12.9174208,22 C18.4402683,22 22.9174208,17.5228475 22.9174208,12 C22.9174208,6.4771525 18.4402683,2 12.9174208,2 Z M16.0977758,7.6715765 C16.4187414,7.42201068 16.8828395,7.44469848 17.1777809,7.73963991 C17.4973008,8.05915978 17.4973008,8.57720385 17.1777809,8.89672373 L17.1777809,8.89672373 L14.0744208,12 L17.1777809,15.1032763 C17.4973008,15.4227961 17.4973008,15.9408402 17.1777809,16.2603601 C16.8828395,16.5553015 16.4187414,16.5779893 16.0977758,16.3284235 L16.0206971,16.2603601 L12.9174208,13.157 L9.81414455,16.2603601 L9.73706582,16.3284235 C9.41610029,16.5779893 8.95200215,16.5553015 8.65706073,16.2603601 C8.33754085,15.9408402 8.33754085,15.4227961 8.65706073,15.1032763 L8.65706073,15.1032763 L11.7604208,12 L8.65706073,8.89672373 C8.33754085,8.57720385 8.33754085,8.05915978 8.65706073,7.73963991 C8.95200215,7.44469848 9.41610029,7.42201068 9.73706582,7.6715765 L9.81414455,7.73963991 L12.9174208,10.843 L16.0206971,7.73963991 Z" id="path-1"></path>
    </defs>
    <g id="Pagine-Foglia" stroke="none" stroke-width="1" fill="none" fill-rule="evenodd">
        <g id="Pagina-Metodi-di-pagamento-MVP" transform="translate(-257.000000, -1767.000000)">
            <g id="Group-10" transform="translate(0.000000, 927.000000)">
                <g id="ic-ko" transform="translate(257.256944, 840.000000)">
                    <g id="colors/@bluegrey" transform="translate(0.082579, 0.000000)">
                        <mask id="mask-2" fill="white">
                            <use xlink:href="#path-1"></use>
                        </mask>
                        <g id="Mask" fill-rule="nonzero"></g>
                        <g mask="url(#mask-2)" fill="#C02927" id="Rectangle-Copy-11">
                            <g transform="translate(-31.000000, -33.000000)">
                                <rect x="0" y="0" width="100" height="100"></rect>
                            </g>
                        </g>
                    </g>
                </g>
            </g>
        </g>
    </g>
</svg>