<?xml version="1.0" encoding="UTF-8"?>
<svg width="48px" height="30px" viewBox="0 0 48 30" version="1.1" xmlns="http://www.w3.org/2000/svg" xmlns:xlink="http://www.w3.org/1999/xlink">
    <title>A87479BF-A74F-43A7-BF63-44DF9C5B666F</title>
    <g id="Pagine-Foglia" stroke="none" stroke-width="1" fill="none" fill-rule="evenodd">
        <g id="Pagina-Metodi-di-pagamento-MVP" transform="translate(-378.000000, -2273.000000)" fill-rule="nonzero">
            <g id="Group-10" transform="translate(0.000000, 927.000000)">
                <g id="icons/cards/mastercard" transform="translate(378.000000, 1346.000000)">
                    <path d="M46.272,29.904 L1.656,29.904 C0.768,29.904 0.072,29.184 0.072,28.32 L0.072,1.632 C0.072,0.744 0.792,0.048 1.656,0.048 L46.248,0.048 C47.136,0.048 47.832,0.768 47.832,1.632 L47.832,28.32 C47.856,29.208 47.136,29.904 46.272,29.904 Z" id="Shape" fill="#000000"></path>
                    <g id="mc_acc" transform="translate(3.840000, 2.160000)">
                        <rect id="_Path_" fill="#000000" x="0" y="0" width="40.3968" height="25.5456"></rect>
                        <path d="M11.28,23.412 L11.28,21.972 C11.3005989,21.7299069 11.2150597,21.4907987 11.0455737,21.3167071 C10.8760877,21.1426155 10.6393583,21.0506978 10.3968,21.0648 C10.0738273,21.044143 9.76507741,21.2003558 9.5904,21.4728 C9.43109809,21.2084855 9.14034582,21.0520682 8.832,21.0648 C8.55877196,21.0486053 8.29684438,21.1759312 8.1408,21.4008 L8.1408,21.12 L7.668,21.12 L7.668,23.4168 L8.1336,23.4168 L8.1336,22.0968 C8.11640809,21.935557 8.1709842,21.7749106 8.28283962,21.6575086 C8.39469504,21.5401066 8.55251429,21.4778257 8.7144,21.4872 C9.0456,21.4872 9.2328,21.7032 9.2328,22.092 L9.2328,23.4144 L9.6984,23.4144 L9.6984,22.0968 C9.68205729,21.935751 9.7369188,21.7756037 9.84858049,21.658405 C9.96024217,21.5412064 10.1175491,21.4786645 10.2792,21.4872 C10.62,21.4872 10.8024,21.7032 10.8024,22.092 L10.8024,23.4144 L11.28,23.412 Z M18.7584,21.12 L17.9232,21.12 L17.9232,20.424 L17.4552,20.424 L17.4552,21.12 L16.9752,21.12 L16.9752,21.5376 L17.4552,21.5376 L17.4552,22.6248 C17.4552,23.1576 17.6424,23.4744045 18.2328,23.4744045 C18.4533561,23.4750109 18.6696206,23.4134587 18.8568,23.2968 L18.7128,22.8888 C18.5789288,22.9686503 18.4269914,23.0132406 18.2712,23.0184 C18.0312,23.0184 17.9208,22.8648 17.9208,22.6344 L17.9208,21.5328 L18.756,21.5328 L18.7584,21.12 Z M23.0208,21.0624 C22.7682618,21.0571897 22.531462,21.1846973 22.3968,21.3984 L22.3968,21.12 L21.9408,21.12 L21.9408,23.4168 L22.4016,23.4168 L22.4016,22.1208 C22.4016,21.7416 22.584,21.4968 22.9104,21.4968 C23.0171722,21.4953395 23.1231876,21.5149116 23.2224,21.5544 L23.376,21.12 C23.2619933,21.0792154 23.1418812,21.0581146 23.0208,21.0576 L23.0208,21.0624 Z M16.5768,21.3024 C16.2941778,21.1345202 15.9693332,21.0512267 15.6408,21.0624 C15.06,21.0624 14.7048,21.336 14.7048,21.7824 C14.7048,22.1568 14.964,22.3824 15.4776,22.4544 L15.7176,22.488 C15.9912,22.5264 16.14,22.6224 16.14,22.752 C16.14,22.9296 15.9384,23.0448 15.5976,23.0448 C15.3232364,23.0544569 15.0538569,22.9697464 14.8344,22.8048 L14.5944,23.1648 C14.8869048,23.3642595 15.2340095,23.4682232 15.588,23.4624 C16.2504,23.4624 16.6176,23.1552 16.6176,22.7184 C16.6176,22.2816 16.3368,22.116 15.84,22.044 L15.6,22.0104 C15.384,21.9816 15.192,21.9144 15.192,21.7704 C15.192,21.6264 15.3744,21.4872 15.648,21.4872 C15.9008672,21.4902444 16.1487416,21.5579967 16.368,21.684 L16.5768,21.3024 Z M23.5368,22.2624 C23.5208162,22.585295 23.6421033,22.8998951 23.8707041,23.1284959 C24.0993049,23.3570967 24.413905,23.4783838 24.7368,23.4624 C25.0365309,23.4776496 25.3310962,23.380032 25.5624,23.1888 L25.3224,22.8288 C25.1497514,22.960242 24.9393743,23.0326117 24.7224,23.0352 C24.3211861,22.9965784 24.0149688,22.6594685 24.0149688,22.2564 C24.0149688,21.8533315 24.3211861,21.5162216 24.7224,21.4776 C24.9393743,21.4801883 25.1497514,21.552558 25.3224,21.684 L25.5624,21.324 C25.3310962,21.132768 25.0365309,21.0351504 24.7368,21.0504 C24.413905,21.0344162 24.0993049,21.1557033 23.8707041,21.3843041 C23.6421033,21.6129049 23.5208162,21.927505 23.5368,22.2504 L23.5368,22.2624 Z M20.3064,21.0624 C19.6344,21.0624 19.1712,21.5424 19.1712,22.2624 C19.1513484,22.5808579 19.2670091,22.8928734 19.4896389,23.1214461 C19.7122687,23.3500188 20.0211297,23.4738572 20.34,23.4624 C20.6824298,23.474217 21.0172583,23.3597603 21.2808,23.1408 L21.0408,22.8 C20.8511963,22.9518252 20.6164712,23.0362586 20.3736,23.04 C20.025161,23.0527697 19.7244359,22.7978298 19.68,22.452 L21.396,22.452 C21.396,22.3896 21.396,22.3272 21.396,22.26 C21.396,21.54 20.9592,21.06 20.3136,21.06 L20.3064,21.0624 Z M20.3064,21.4896 C20.4641805,21.4844195 20.6173694,21.5431614 20.7312336,21.6525072 C20.8450977,21.7618529 20.909991,21.9125391 20.9112,22.0704 L19.68,22.0704 C19.6980969,21.7367032 19.9795918,21.4786663 20.3136,21.4896 L20.3064,21.4896 Z M14.088,22.2648 L14.088,21.12 L13.6272,21.12 L13.6272,21.3984 C13.446208,21.1751518 13.170355,21.050573 12.8832,21.0624 C12.2171446,21.0624 11.6772,21.6023446 11.6772,22.2684 C11.6772,22.9344554 12.2171446,23.4744 12.8832,23.4744 C13.170355,23.486227 13.446208,23.3616482 13.6272,23.1384 L13.6272,23.4168 L14.088,23.4168 L14.088,22.2648 Z M12.228,22.2648 C12.2118895,22.0640766 12.2805727,21.8657791 12.4173843,21.7180225 C12.5541959,21.570266 12.7466322,21.4865545 12.948,21.4871963 C13.3492139,21.5258216 13.6554312,21.8629315 13.6554312,22.266 C13.6554312,22.6690685 13.3492139,23.0061784 12.948,23.0448037 C12.7466322,23.0454455 12.5541959,22.961734 12.4173843,22.8139775 C12.2805727,22.6662209 12.2118895,22.4679234 12.228,22.2672 L12.228,22.2648 Z M29.9616,21.0648 C29.7090618,21.0595897 29.472262,21.1870973 29.3376,21.4008 L29.3376,21.12 L28.8816,21.12 L28.8816,23.4168 L29.3424,23.4168 L29.3424,22.1208 C29.3424,21.7416 29.5248,21.4968 29.8512,21.4968 C29.9579722,21.4953395 30.0639876,21.5149116 30.1632,21.5544 L30.3168,21.1224 C30.2027933,21.0816154 30.0826812,21.0605146 29.9616,21.06 L29.9616,21.0648 Z M33.6624,23.0856 C33.6936031,23.0852177 33.7245813,23.0909242 33.7536,23.1024 C33.7811623,23.1136474 33.8063915,23.1299243 33.828,23.1504 C33.8490886,23.1710931 33.866175,23.1955023 33.8784,23.2224 C33.9029667,23.2790513 33.9029667,23.3433487 33.8784,23.4 C33.866175,23.4268977 33.8490886,23.4513069 33.828,23.472 C33.8063915,23.4924757 33.7811623,23.5087526 33.7536,23.52 C33.7248678,23.5326781 33.693805,23.5392176 33.6624,23.5392 C33.5695319,23.5385 33.4854031,23.4842836 33.4464,23.4 C33.4221178,23.34329 33.4221178,23.27911 33.4464,23.2224 C33.458625,23.1955023 33.4757114,23.1710931 33.4968,23.1504 C33.5184085,23.1299243 33.5436377,23.1136474 33.5712,23.1024 C33.5997136,23.0884473 33.6307119,23.0802898 33.6624,23.0784 L33.6624,23.0856 Z M33.6624,23.4912031 C33.6863543,23.4913455 33.7100701,23.4864388 33.732,23.4768 C33.7526208,23.4675316 33.7713388,23.4545103 33.7872,23.4384 C33.8494313,23.3705023 33.8494313,23.2662977 33.7872,23.1984 C33.7714132,23.1822017 33.7526774,23.1691681 33.732,23.16 C33.7100701,23.1503612 33.6863543,23.1454545 33.6624,23.1455969 C33.6384667,23.1456613 33.6147927,23.1505594 33.5928,23.16 C33.5712371,23.1688416 33.5516549,23.1818964 33.5352,23.1984 C33.4729687,23.2662977 33.4729687,23.3705023 33.5352,23.4384 C33.5517346,23.4548063 33.5712963,23.4678474 33.5928,23.4768 C33.6151292,23.4846028 33.6387922,23.4878667 33.6624,23.4864 L33.6624,23.4912031 Z M33.6768,23.2056 C33.6992043,23.2045135 33.7212818,23.2113066 33.7392,23.2248 C33.7541046,23.237135 33.7621468,23.2559001 33.7608,23.2752 C33.7614967,23.2913172 33.7554025,23.306988 33.744,23.3184 C33.7300891,23.331035 33.7123432,23.3386404 33.6936,23.34 L33.7632,23.4192 L33.708,23.4192 L33.6432,23.34 L33.6216,23.34 L33.6216,23.4192 L33.576,23.4192 L33.576,23.208 L33.6768,23.2056 Z M33.624,23.2464 L33.624,23.304 L33.6768,23.304 C33.6861957,23.3068012 33.6962043,23.3068012 33.7056,23.304 C33.7090231,23.2972069 33.7090231,23.2891931 33.7056,23.2824 C33.7090231,23.2756069 33.7090231,23.2675931 33.7056,23.2608 C33.6961855,23.2581312 33.6862145,23.2581312 33.6768,23.2608 L33.624,23.2464 Z M28.1928,22.2696 L28.1928,21.12 L27.732,21.12 L27.732,21.3984 C27.551008,21.1751518 27.275155,21.050573 26.988,21.0624 C26.3219446,21.0624 25.782,21.6023446 25.782,22.2684 C25.782,22.9344554 26.3219446,23.4744 26.988,23.4744 C27.275155,23.486227 27.551008,23.3616482 27.732,23.1384 L27.732,23.4168 L28.1928,23.4168 L28.1928,22.2696 Z M26.3328,22.2696 C26.3166895,22.0688766 26.3853727,21.8705791 26.5221843,21.7228225 C26.6589959,21.575066 26.8514322,21.4913545 27.0528,21.4919963 C27.4540139,21.5306216 27.7602312,21.8677315 27.7602312,22.2708 C27.7602312,22.6738685 27.4540139,23.0109784 27.0528,23.0496037 C26.8514322,23.0502455 26.6589959,22.966534 26.5221843,22.8187775 C26.3853727,22.6710209 26.3166895,22.4727234 26.3328,22.272 L26.3328,22.2696 Z M32.8296,22.2696 L32.8296,20.1936 L32.3688,20.1936 L32.3688,21.3936 C32.187808,21.1703518 31.911955,21.045773 31.6248,21.0576 C30.9587446,21.0576 30.4188,21.5975446 30.4188,22.2636 C30.4188,22.9296554 30.9587446,23.4696 31.6248,23.4696 C31.911955,23.481427 32.187808,23.3568482 32.3688,23.1336 L32.3688,23.412 L32.8296,23.412 L32.8296,22.2696 Z M30.9696,22.2696 C30.9534895,22.0688766 31.0221727,21.8705791 31.1589843,21.7228225 C31.2957959,21.575066 31.4882322,21.4913545 31.6896,21.4919963 C32.0730671,21.5510295 32.3553535,21.8821671 32.3529474,22.2701435 C32.3505413,22.65812 32.0641698,22.9857311 31.68,23.0400031 C31.4790838,23.0405914 31.2870592,22.9572051 31.1503275,22.8099906 C31.0135958,22.6627761 30.9445955,22.4651257 30.96,22.2648 L30.9696,22.2696 Z" id="_Compound_Path_" fill="#FFFFFF"></path>
                        <g id="_Group_" transform="translate(6.000000, 1.680000)">
                            <rect id="Rectangle-path" fill="#FF5F00" x="10.4184" y="1.9536" width="7.56" height="13.5864"></rect>
                            <path d="M10.8984,8.748 C10.8963114,6.09720035 12.1131861,3.59265089 14.1984,1.956 C10.6559497,-0.827987572 5.56884895,-0.422475708 2.51217549,2.88755275 C-0.544497967,6.19758122 -0.544497967,11.3008188 2.51217549,14.6108472 C5.56884895,17.9208757 10.6559497,18.3263876 14.1984,15.5424 C12.1125225,13.9052294 10.8955734,11.3996419 10.8984,8.748 Z" id="_Path_2" fill="#EB001B"></path>
                            <path d="M27.4248238,14.7664 L27.4248238,13.9378286 L27.5799393,13.9378286 L27.5799393,13.7664 L27.1872,13.7664 L27.1872,13.9378286 L27.3423155,13.9378286 L27.3423155,14.7664 L27.4248238,14.7664 Z M28.1872,14.7664 L28.1872,13.7664 L28.0683881,13.7664 L27.9297743,14.4806857 L27.7911604,13.7664 L27.6723485,13.7664 L27.6723485,14.7664 L27.7548568,14.7664 L27.7548568,14.0092571 L27.8835696,14.6592571 L27.9726785,14.6592571 L28.1013914,14.0092571 L28.1013914,14.7664 L28.1872,14.7664 Z" id="Shape" fill="#F79E1B"></path>
                            <path d="M28.1784,8.748 C28.1784,12.0560113 26.289461,15.0735961 23.3140213,16.5191745 C20.3385815,17.964753 16.7989415,17.5845348 14.1984,15.54 C16.2827041,13.9019596 17.4996704,11.3977432 17.4996704,8.7468 C17.4996704,6.09585684 16.2827041,3.59164036 14.1984,1.9536 C16.7989415,-0.090934758 20.3385815,-0.471152981 23.3140213,0.974425468 C26.289461,2.42000392 28.1784,5.43758871 28.1784,8.7456 L28.1784,8.748 Z" id="Shape" fill="#F79E1B"></path>
                        </g>
                    </g>
                </g>
            </g>
        </g>
    </g>
</svg>