<?xml version="1.0" encoding="UTF-8"?>
<svg width="48px" height="30px" viewBox="0 0 48 30" version="1.1" xmlns="http://www.w3.org/2000/svg" xmlns:xlink="http://www.w3.org/1999/xlink">
    <title>C696CD0E-64C6-474E-9DB4-2DB318486CD1</title>
    <g id="Pagine-Foglia" stroke="none" stroke-width="1" fill="none" fill-rule="evenodd">
        <g id="Pagina-Metodi-di-pagamento-MVP" transform="translate(-378.000000, -1947.000000)" fill-rule="nonzero">
            <g id="Group-10" transform="translate(0.000000, 927.000000)">
                <g id="Group" transform="translate(378.000000, 1020.000000)">
                    <g id="icons/cards/maestro" fill="#000000">
                        <path d="M47.76,28.32 C47.76,29.208 47.04,29.904 46.176,29.904 L1.584,29.904 C0.696,29.904 0,29.184 0,28.32 L0,1.632 C0,0.744 0.72,0.048 1.584,0.048 L46.176,0.048 C47.064,0.048 47.76,0.768 47.76,1.632 L47.76,28.32 L47.76,28.32 Z" id="Shape"></path>
                    </g>
                    <g id="ms_acc" transform="translate(3.600000, 2.160000)">
                        <rect id="Rectangle-path" fill="#000000" x="0" y="0" width="40.3968" height="25.5456"></rect>
                        <path d="M14.6784,23.4096 L14.6784,21.9696 C14.6953828,21.7252431 14.6063747,21.4853977 14.4340928,21.3112781 C14.2618108,21.1371586 14.0229233,21.0456108 13.7784,21.06 C13.4553202,21.0388195 13.1463191,21.1951593 12.972,21.468 C12.813071,21.2032942 12.5220668,21.0467413 12.2136,21.06 C11.9450202,21.0464225 11.6893348,21.1760915 11.5416,21.4008 L11.5416,21.1176 L11.0424,21.1176 L11.0424,23.4096 L11.5464,23.4096 L11.5464,22.1328 C11.5237865,21.9737607 11.5738051,21.8129745 11.6826474,21.6948295 C11.7914896,21.5766845 11.9476436,21.5136765 12.108,21.5232 C12.4392,21.5232 12.6072,21.7392 12.6072,22.128 L12.6072,23.4024 L13.1112,23.4024 L13.1112,22.1328 C13.0903847,21.9741223 13.1410251,21.8143856 13.2494596,21.6966832 C13.3578941,21.5789808 13.5129511,21.5154391 13.6728,21.5232 C14.0136,21.5232 14.1768,21.7392 14.1768,22.128 L14.1768,23.4024 L14.6784,23.4096 Z M17.4864,22.2648 L17.4864,21.12 L16.9824,21.12 L16.9824,21.3984 C16.8106716,21.1767889 16.5425552,21.051668 16.2624,21.0624 C15.5996583,21.0624 15.0624,21.5996583 15.0624,22.2624 C15.0624,22.9251417 15.5996583,23.4624 16.2624,23.4624 C16.5425552,23.473132 16.8106716,23.3480111 16.9824,23.1264 L16.9824,23.4048 L17.4816,23.4048 L17.4864,22.2648 Z M15.6312,22.2648 C15.6533988,21.8881605 15.9725861,21.598346 16.3496137,21.6124974 C16.7266414,21.6266488 17.0232053,21.9395749 17.0171078,22.3168188 C17.0110103,22.6940626 16.7044881,22.9972409 16.3272,22.9992 C16.1340372,23.0037302 15.9479106,22.9266386 15.8145214,22.786854 C15.6811323,22.6470695 15.6128353,22.4575391 15.6264,22.2648 L15.6312,22.2648 Z M28.152,21.0648 C28.316346,21.0643753 28.4792621,21.0953293 28.632,21.156 C28.780553,21.2142602 28.9159947,21.3015629 29.0304,21.4128 C29.1414426,21.5213923 29.2295803,21.6511506 29.2896,21.7944 C29.4149899,22.1021167 29.4149899,22.4466833 29.2896,22.7544 C29.2296379,22.8976806 29.1414928,23.0274497 29.0304,23.136 C28.9179032,23.2455816 28.7849906,23.3320156 28.6392,23.3904 C28.3227262,23.5133733 27.9716738,23.5133733 27.6552,23.3904 C27.5100894,23.3320735 27.3779524,23.2456135 27.2664,23.136 C27.1564185,23.0270243 27.0691356,22.8973236 27.0096,22.7544 C26.884465,22.4466334 26.884465,22.1021666 27.0096,21.7944 C27.0691356,21.6514764 27.1564185,21.5217757 27.2664,21.4128 C27.3779524,21.3031865 27.5100894,21.2167265 27.6552,21.1584 C27.8111882,21.0937449 27.9783435,21.0603138 28.1472,21.06 L28.152,21.0648 Z M28.152,21.5448 C28.0542558,21.5434668 27.9572069,21.5614086 27.8664,21.5976 C27.7808681,21.6318936 27.7032718,21.6833522 27.6384,21.7488 C27.5722205,21.8176987 27.520774,21.8993598 27.4872,21.9888 C27.4138814,22.1804263 27.4138814,22.3923737 27.4872,22.584 C27.5207133,22.6734703 27.5721672,22.755143 27.6384,22.824 C27.7032282,22.8895007 27.7808363,22.9409671 27.8664,22.9752 C28.0492412,23.0467955 28.2523588,23.0467955 28.4352,22.9752 C28.524855,22.9420602 28.6066002,22.8905607 28.6752,22.824 C28.7415951,22.7552701 28.7930714,22.6735617 28.8264,22.584 C28.8997186,22.3923737 28.8997186,22.1804263 28.8264,21.9888 C28.7930094,21.899269 28.7415406,21.8175726 28.6752,21.7488 C28.6066002,21.6822393 28.524855,21.6307398 28.4352,21.5976 C28.344664,21.5561537 28.2467296,21.5333023 28.1472,21.5304 L28.152,21.5448 Z M20.1984,22.2648 C20.1984,21.5448 19.752,21.0648 19.1112,21.0648 C18.4484583,21.0740784 17.9187217,21.6188583 17.9280001,22.2816 C17.9372785,22.9443417 18.4820583,23.4740783 19.1448,23.4648 C19.4864795,23.4764741 19.8205063,23.3619994 20.0832,23.1432 L19.8432,22.7736 C19.6536869,22.9255869 19.4189044,23.010041 19.176,23.0136 C18.8328879,23.043108 18.5286193,22.7941609 18.4896,22.452 L20.1912,22.452 C20.1984,22.3944 20.1984,22.332 20.1984,22.2648 Z M18.492,22.0632 C18.5100788,21.7427576 18.7808348,21.495453 19.1016,21.5064 C19.2524647,21.5031836 19.3984248,21.5600471 19.5073534,21.6644745 C19.6162819,21.7689019 19.6792508,21.9123339 19.6824,22.0632 L18.492,22.0632 Z M22.2984,21.7032 C22.0792246,21.5769973 21.8312971,21.5092305 21.5784,21.5064 C21.3048,21.5064 21.1416,21.6072 21.1416,21.7752 C21.1416,21.9432 21.3144,21.972 21.5304,22.0008 L21.7704,22.0344 C22.2696,22.1064 22.572,22.3176 22.572,22.7208 C22.572,23.124 22.188,23.4696 21.528,23.4696 C21.1742686,23.4790095 20.8268475,23.374699 20.5368,23.172 L20.7768,22.7832 C20.9970488,22.9465991 21.2658726,23.0311349 21.54,23.0232 C21.8808,23.0232 22.0632,22.9224 22.0632,22.7448 C22.0632,22.6152 21.9336,22.5432 21.66,22.5048 L21.42,22.4712 C20.9064,22.3992 20.628,22.1688 20.628,21.7944 C20.628,21.3384 21.0024,21.06 21.588,21.06 C21.9157538,21.0490187 22.2397758,21.1323149 22.5216,21.3 L22.2984,21.7032 Z M24.6984,21.5736 L23.8848,21.5736 L23.8848,22.6128 C23.8848,22.8528 23.9664,22.9968 24.216,22.9968 C24.3717914,22.9916406 24.5237288,22.9470503 24.6576,22.8672 L24.8016,23.2944 C24.6144738,23.4111787 24.398174,23.4727409 24.1776,23.4720066 C23.5872,23.4720066 23.3808,23.1552 23.3808,22.6224 L23.3808,21.5784 L22.9152,21.5784 L22.9152,21.1224 L23.3808,21.1224 L23.3808,20.4264 L23.8848,20.4264 L23.8848,21.1224 L24.6984,21.1224 L24.6984,21.5736 Z M26.424,21.06 C26.5450895,21.060421 26.6652173,21.0815245 26.7792,21.1224 L26.6256,21.6024 C26.5264051,21.5628509 26.4203775,21.5432766 26.3136,21.5448 C25.9872,21.5448 25.8336,21.756 25.8336,22.1352 L25.8336,23.4192 L25.3344,23.4192 L25.3344,21.1272 L25.8288,21.1272 L25.8288,21.4056 C25.9535959,21.1912328 26.1856602,21.0623082 26.4336,21.0696 L26.424,21.06 Z M29.8752,23.0736 C29.9064031,23.0732177 29.9373813,23.0789242 29.9664,23.0904 C29.9939623,23.1016474 30.0191915,23.1179243 30.0408,23.1384 C30.0618886,23.1590931 30.078975,23.1835023 30.0912,23.2104 C30.1157667,23.2670513 30.1157667,23.3313487 30.0912,23.388 C30.078975,23.4148977 30.0618886,23.4393069 30.0408,23.46 C30.0191915,23.4804757 29.9939623,23.4967526 29.9664,23.508 C29.9376678,23.5206781 29.906605,23.5272176 29.8752,23.5272 C29.7823319,23.5265 29.6982031,23.4722836 29.6592,23.388 C29.6349178,23.33129 29.6349178,23.26711 29.6592,23.2104 C29.671425,23.1835023 29.6885114,23.1590931 29.7096,23.1384 C29.7312085,23.1179243 29.7564377,23.1016474 29.784,23.0904 C29.809401,23.0811752 29.8361776,23.0763068 29.8632,23.076 L29.8752,23.0736 Z M29.8752,23.4792031 C29.8991543,23.4793455 29.9228701,23.4744388 29.9448,23.4648 C29.9654487,23.455581 29.9841754,23.4425537 30,23.4264 C30.041326,23.3847789 30.0594377,23.3254382 30.0483969,23.2678339 C30.0373561,23.2102296 29.9985867,23.1617912 29.9448,23.1384 C29.9228484,23.1288291 29.8991472,23.1239254 29.8752,23.1239992 C29.8512735,23.1241264 29.8276123,23.1290219 29.8056,23.1384 C29.7840371,23.1472416 29.7644549,23.1602964 29.748,23.1768 C29.6857687,23.2446977 29.6857687,23.3489023 29.748,23.4168 C29.7815721,23.4507927 29.8274241,23.4698256 29.8752,23.4696 L29.8752,23.4792031 Z M29.8896,23.1936 C29.9120043,23.1925135 29.9340818,23.1993066 29.952,23.2128 C29.9669046,23.225135 29.9749468,23.2439001 29.9736,23.2632 C29.9742967,23.2793172 29.9682025,23.294988 29.9568,23.3064 C29.9428891,23.319035 29.9251432,23.3266404 29.9064,23.328 L29.976,23.4072 L29.9208,23.4072 L29.856,23.328 L29.8344,23.328 L29.8344,23.4072 L29.7888,23.4072 L29.7888,23.196 L29.8896,23.1936 Z M29.8368,23.2344 L29.8368,23.292 L29.8896,23.292 C29.8989957,23.2948012 29.9090043,23.2948012 29.9184,23.292 C29.9218231,23.2852069 29.9218231,23.2771931 29.9184,23.2704 C29.9218231,23.2636069 29.9218231,23.2555931 29.9184,23.2488 C29.9090043,23.2459988 29.8989957,23.2459988 29.8896,23.2488 L29.8368,23.2344 Z" id="Shape" fill="#FFFFFF"></path>
                        <g id="_Group_" transform="translate(6.000000, 1.680000)">
                            <rect id="Rectangle-path" fill="#7673C0" x="10.4184" y="1.9536" width="7.56" height="13.5864"></rect>
                            <path d="M10.8984,8.7456 C10.8963114,6.09480035 12.1131861,3.59025089 14.1984,1.9536 C10.6559497,-0.830387572 5.56884895,-0.424875708 2.51217549,2.88515275 C-0.544497967,6.19518122 -0.544497967,11.2984188 2.51217549,14.6084472 C5.56884895,17.9184757 10.6559497,18.3239876 14.1984,15.54 C12.1125225,13.9028294 10.8955734,11.3972419 10.8984,8.7456 L10.8984,8.7456 Z" id="_Path_" fill="#EB001B"></path>
                            <path d="M27.4176238,14.7569078 L27.4176238,13.9342128 L27.5727393,13.9342128 L27.5727393,13.764 L27.18,13.764 L27.18,13.9342128 L27.3351155,13.9342128 L27.3351155,14.7569078 L27.4176238,14.7569078 Z M28.18,14.7569078 L28.18,13.764 L28.0611881,13.764 L27.9225743,14.4732199 L27.7839604,13.764 L27.6651485,13.764 L27.6651485,14.7569078 L27.7509571,14.7569078 L27.7509571,14.012227 L27.87967,14.657617 L27.9687789,14.657617 L28.0974917,14.012227 L28.0974917,14.764 L28.18,14.7569078 Z" id="Shape" fill="#00A1DF"></path>
                            <path d="M28.1784,8.7456 C28.1784,12.0536113 26.289461,15.0711961 23.3140213,16.5167745 C20.3385815,17.962353 16.7989415,17.5821348 14.1984,15.5376 C16.2827041,13.8995596 17.4996704,11.3953432 17.4996704,8.7444 C17.4996704,6.09345684 16.2827041,3.58924036 14.1984,1.9512 C16.7989415,-0.093334758 20.3385815,-0.473552981 23.3140213,0.972025468 C26.289461,2.41760392 28.1784,5.43518871 28.1784,8.7432 L28.1784,8.7456 Z" id="Shape" fill="#00A1DF"></path>
                        </g>
                    </g>
                </g>
            </g>
        </g>
    </g>
</svg>