<?xml version="1.0" encoding="UTF-8"?>
<svg width="27px" height="24px" viewBox="0 0 27 24" version="1.1" xmlns="http://www.w3.org/2000/svg" xmlns:xlink="http://www.w3.org/1999/xlink">
    <title>EEACBE20-7A3D-46F8-8663-35A364D3D280</title>
    <defs>
        <path d="M12.9174208,0 C19.5448378,0 24.9174208,5.372583 24.9174208,12 C24.9174208,18.627417 19.5448378,24 12.9174208,24 C6.29000382,24 0.917420822,18.627417 0.917420822,12 C0.917420822,5.372583 6.29000382,0 12.9174208,0 Z M12.9174208,2 C7.39457332,2 2.91742082,6.4771525 2.91742082,12 C2.91742082,17.5228475 7.39457332,22 12.9174208,22 C18.4402683,22 22.9174208,17.5228475 22.9174208,12 C22.9174208,6.4771525 18.4402683,2 12.9174208,2 Z M18.6690074,8.22083837 C19.0685895,8.60627893 19.1077761,9.22474075 18.7789913,9.65566345 L18.6965824,9.75158662 L11.9443167,16.7515866 C11.5490208,17.1613856 10.91125,17.1906569 10.4813149,16.8394007 L10.3859934,16.7515866 L7.1382592,13.3846961 C6.72316937,12.954377 6.73551511,12.2690377 7.1658342,11.8539479 C7.5654162,11.4685073 8.18488812,11.4516209 8.60368958,11.7957126 L8.69658245,11.8815229 L11.1644208,14.44 L17.1382592,8.24841338 C17.553349,7.81809429 18.2386884,7.80574854 18.6690074,8.22083837 Z" id="path-1"></path>
    </defs>
    <g id="Pagine-Foglia" stroke="none" stroke-width="1" fill="none" fill-rule="evenodd">
        <g id="Pagina-Metodi-di-pagamento-MVP" transform="translate(-256.000000, -1439.000000)">
            <g id="Group-10" transform="translate(0.000000, 927.000000)">
                <g id="ic-ok" transform="translate(256.256944, 512.000000)">
                    <g id="colors/@bluegrey" transform="translate(0.082579, 0.000000)">
                        <mask id="mask-2" fill="white">
                            <use xlink:href="#path-1"></use>
                        </mask>
                        <g id="Mask" fill-rule="nonzero"></g>
                        <g mask="url(#mask-2)" fill="#00C5CA" id="Rectangle-Copy-9">
                            <g transform="translate(-31.000000, -33.000000)">
                                <rect x="0" y="0" width="100" height="100"></rect>
                            </g>
                        </g>
                    </g>
                </g>
            </g>
        </g>
    </g>
</svg>