<?xml version="1.0" encoding="UTF-8"?>
<svg width="25px" height="25px" viewBox="0 0 25 25" version="1.1" xmlns="http://www.w3.org/2000/svg" xmlns:xlink="http://www.w3.org/1999/xlink">
    <title>ic-ok</title>
    <defs>
        <path d="M12.5,0 C19.4035594,0 25,5.59644063 25,12.5 C25,19.4035594 19.4035594,25 12.5,25 C5.59644063,25 0,19.4035594 0,12.5 C0,5.59644063 5.59644063,0 12.5,0 Z M12.5,2 C6.70101013,2 2,6.70101013 2,12.5 C2,18.2989899 6.70101013,23 12.5,23 C18.2989899,23 23,18.2989899 23,12.5 C23,6.70101013 18.2989899,2 12.5,2 Z M18.6462929,8.29794993 C19.0732964,8.6764448 19.1151723,9.28376186 18.7638245,9.70691928 L18.6757602,9.80111391 L11.460116,16.6749731 C11.0376926,17.0773874 10.3561545,17.1061312 9.89671476,16.7612047 L9.79485181,16.6749731 L6.32423977,13.3687543 C5.88066414,12.9461896 5.89385713,12.2732002 6.35370713,11.8655903 C6.7807107,11.4870955 7.44269427,11.4705133 7.89023624,11.8084045 L7.98950394,11.8926684 L10.6266993,14.4050415 L17.0104961,8.32502803 C17.4540717,7.90246335 18.1864429,7.89034007 18.6462929,8.29794993 Z" id="path-1"></path>
    </defs>
    <g id="ic-ok" stroke="none" stroke-width="1" fill="none" fill-rule="evenodd">
        <mask id="mask-2" fill="white">
            <use xlink:href="#path-1"></use>
        </mask>
        <g id="Mask" fill-rule="nonzero"></g>
        <g id="Group" mask="url(#mask-2)">
            <g transform="translate(-33.291667, -34.375000)" id="colors/@bluegrey">
                <rect id="Rectangle-Copy-9" fill="#00C5CA" x="0" y="0" width="100" height="100"></rect>
            </g>
        </g>
    </g>
</svg>