<?xml version="1.0" encoding="UTF-8"?>
<svg width="48px" height="31px" viewBox="0 0 48 31" version="1.1" xmlns="http://www.w3.org/2000/svg" xmlns:xlink="http://www.w3.org/1999/xlink">
    <title>8B88B8A7-AC13-4890-A94D-3DC4EC68BA5E</title>
    <g id="Pagine-Foglia" stroke="none" stroke-width="1" fill="none" fill-rule="evenodd">
        <g id="Pagina-Metodi-di-pagamento-MVP" transform="translate(-257.000000, -3578.000000)">
            <g id="Group-10" transform="translate(0.000000, 927.000000)">
                <g id="ic-pagobancomat-large" transform="translate(257.000000, 2651.000000)">
                    <path d="M47.7808655,19.2481871 L47.9075556,2.64495906 C47.9075556,1.23396491 46.9466199,0.229707602 45.7458713,0.0901052632 L2.17431579,0.0901052632 C1.01408187,0.251602339 0.0126315789,1.23377778 0.0126315789,2.64477193 L0.0126315789,19.2481871 L47.7808655,19.2481871" id="Fill-1" fill="#F6BD33"></path>
                    <path d="M47.9075556,21.7699591 C47.9075556,20.3589649 46.9466199,19.3547076 45.7458713,19.2151053 L2.17431579,19.2151053 C1.01408187,19.3766023 0.0126315789,20.3587778 0.0126315789,21.7697719 L0.0126315789,30.0294371 L47.7808655,30.0294371 L47.9075556,21.7699591 Z" id="Fill-1-Copy" fill="#FFFFFF" transform="translate(23.960094, 24.622271) scale(1, -1) translate(-23.960094, -24.622271) "></path>
                    <path d="M2.36863968,0.09375 C1.06036144,0.09375 0,1.19699265 0,2.55837266 L0,27.5354747 C0,28.8965626 1.06045503,30 2.36882686,30 L45.5377039,30 C46.8459822,30 47.90625,28.8967573 47.90625,27.5356695 L47.90625,2.55837266 C47.90625,1.1971874 46.845795,0.09375 45.5376103,0.09375 L2.36863968,0.09375 Z M2.39413127,0.09375 L2.39413127,0.454741788 L45.5121187,0.454936445 C46.6253518,0.454936445 47.53125,1.39824526 47.53125,2.55723427 L47.53125,27.5229942 C47.53125,28.6820805 46.6254453,29.625 45.5122122,29.625 L2.39431823,29.625 C1.28099168,29.625 0.375,28.6820805 0.375,27.5227995 L0.375,2.55723427 C0.375,1.39805061 1.28071125,0.454741788 2.39413127,0.454741788 L2.39413127,0.09375 L2.39413127,0.09375 Z" id="Fill-3" fill="#0D3567"></path>
                    <path d="M25.5375906,26.2529839 C26.5150877,26.2529839 26.6822924,25.5245629 26.7991579,24.5720482 C26.8829006,23.8907851 26.8858012,23.4132178 26.6430877,23.1388787 C26.4982456,22.9750424 26.2700351,22.8953231 25.9458246,22.8953231 C25.5014737,22.8953231 25.2030877,23.0395102 25.0065965,23.3483757 C24.8101988,23.6573348 24.7320702,24.1170307 24.6765848,24.5680249 C24.5925614,25.2529371 24.5890058,25.7328436 24.8325614,26.007557 C24.9784327,26.1727032 25.2089825,26.2529839 25.5375906,26.2529839 M26.1440936,21.3134751 C27.0284912,21.3134751 27.6483743,21.528212 28.0392047,21.9700365 C28.4921637,22.481943 28.6260585,23.2648202 28.4732632,24.5087968 C28.3494737,25.5173582 28.1052632,26.2236038 27.7048889,26.7312061 C27.190924,27.382902 26.4223626,27.6996272 25.3557895,27.6996272 C24.4689591,27.6996272 23.8470175,27.4837675 23.4543158,27.0400716 C23.0064094,26.5338728 22.867462,25.7306915 23.017076,24.5128202 C23.1415205,23.4998611 23.386386,22.7911827 23.7875088,22.2829254 C24.3024094,21.6306681 25.0733099,21.3134751 26.1440936,21.3134751" id="Fill-4" fill="#0D3567"></path>
                    <path d="M4.61164912,26.3026681 C4.97356725,26.3026681 5.16874854,26.0839079 5.21618713,25.6968202 C5.26381287,25.3100132 5.12776608,25.1164225 4.74909942,25.1164225 L3.88266667,25.1164225 L3.73698246,26.3026681 L4.61164912,26.3026681 Z M4.82021053,23.9218494 C5.22385965,23.9218494 5.35054971,23.6444225 5.39181287,23.3077675 C5.43316959,22.9712061 5.37478363,22.7611477 4.96271345,22.7611477 L4.17178947,22.7611477 L4.02928655,23.9218494 L4.82021053,23.9218494 Z M2.69960234,21.3896389 L5.18989474,21.3896389 C6.78830409,21.3896389 7.21787135,22.0710892 7.10306433,23.0049839 C7.01436257,23.7282588 6.70708772,24.1742003 6.26273684,24.3676974 C6.80795322,24.5864576 6.98030409,25.0323991 6.87812865,25.8653348 C6.73253801,27.0513933 5.87153216,27.6233699 4.46652632,27.6233699 L1.93431579,27.6233699 L2.69960234,21.3896389 L2.69960234,21.3896389 Z" id="Fill-5" fill="#0D3567"></path>
                    <path d="M35.6232047,21.3896389 L34.8578246,27.6233699 L33.2591345,27.6233699 L33.6867368,24.1406096 L33.7015205,24.021405 L32.1803041,27.6233699 L31.1396491,27.6233699 L30.5061988,24.1356506 L30.4866433,24.027019 L30.473076,24.1365863 L30.0450058,27.6233699 L28.5985497,27.6233699 L29.3639298,21.3896389 L30.5483041,21.3896389 C31.0899649,21.3896389 31.5502222,21.777288 31.6418246,22.3114635 L32.058386,24.7333582 L32.0682105,24.7900599 L32.0902924,24.737288 L33.5047485,21.3896389 L35.6232047,21.3896389" id="Fill-6" fill="#0D3567"></path>
                    <path d="M37.682807,25.3414518 L38.7726784,25.3414518 L38.7692164,25.3218962 L38.4625029,23.5963289 L38.4528655,23.5413114 L38.4307836,23.5927734 L37.682807,25.3414518 Z M38.7170058,21.3896389 C39.2456608,21.3896389 39.7013333,21.7669956 39.7997661,22.2868553 L40.8117895,27.6233699 L39.1236491,27.6233699 L38.9827368,26.7500132 L38.9803977,26.7361652 L37.1403977,26.7361652 L37.1362807,26.7465512 L36.7792281,27.6233699 L35.1440468,27.6233699 L37.8568421,21.3896389 L38.7170058,21.3896389 L38.7170058,21.3896389 Z" id="Fill-7" fill="#0D3567"></path>
                    <path d="M18.4809357,21.3900132 L17.7158363,27.6229956 L16.2018246,27.6229956 L14.6608655,24.3766798 L14.6362573,24.3245629 L14.6290526,24.3820132 L14.2310175,27.6229956 L12.674807,27.6229956 L13.4403743,21.3900132 L14.4689591,21.3900132 C14.8971228,21.3900132 15.2916023,21.6407734 15.4734035,22.0285161 L16.5549474,24.3339196 L16.5618713,24.2761886 L16.9163041,21.3900132 L18.4809357,21.3900132" id="Fill-8" fill="#0D3567"></path>
                    <path d="M21.7747836,21.3134751 C22.4641871,21.3134751 23.0632982,21.4784342 23.5092398,21.7910424 L22.4614737,23.1601184 C22.214924,22.9980599 21.888,22.9125395 21.5150409,22.9125395 C20.8001871,22.9125395 20.4295673,23.1588085 20.2576842,24.5596038 C20.1633684,25.3275102 20.2139883,25.7748553 20.4219883,26.0097091 C20.562152,26.1684927 20.7734269,26.2359547 21.1279532,26.2359547 C21.5135439,26.2359547 21.8135205,26.1477208 22.192655,25.9214751 L22.8460351,27.1938962 C22.319345,27.4976155 21.7759064,27.6996272 20.8511813,27.6996272 C20.0141287,27.6996272 19.4232515,27.4916272 19.0443977,27.0634635 C18.5949942,26.5553933 18.448655,25.7211477 18.5969591,24.5128202 C18.7277661,23.4471827 18.9927485,22.7135219 19.4305497,22.2043289 C19.9459181,21.6049371 20.7127018,21.3134751 21.7747836,21.3134751" id="Fill-9" fill="#0D3567"></path>
                    <path d="M10.3216842,25.3414518 L9.25155556,25.3414518 L9.26166082,25.3181535 L9.99981287,23.5927734 L10.021614,23.5413114 L10.031345,23.5963289 L10.3379649,25.3218962 L10.3414269,25.3414518 L10.3216842,25.3414518 Z M6.71307602,27.6233699 L8.34825731,27.6233699 L8.70512281,26.7465512 L8.7094269,26.7361652 L10.5494269,26.7361652 L10.5516725,26.7500132 L10.6923977,27.6233699 L12.3803509,27.6233699 L11.3686082,22.2868553 C11.2704561,21.7669956 10.8147836,21.389826 10.285848,21.389826 L9.42549708,21.389826 L6.71307602,27.6233699 L6.71307602,27.6233699 Z" id="Fill-10" fill="#0D3567"></path>
                    <path d="M42.7668772,10.6109942 L35.3936842,10.6109942 L35.571462,9.16519298 L38.9008655,9.16519298 C39.3879766,9.16388304 39.5411462,8.82807018 39.5912047,8.42095906 C39.6411696,8.01328655 39.5705263,7.75840936 39.0706901,7.75840936 L35.7442807,7.75840936 L35.9443275,6.09637427 L39.3464327,6.09637427 C41.2832749,6.09637427 41.8037895,6.92238596 41.6648421,8.05408187 C41.6082339,8.5171462 41.4769591,8.88533333 41.2871111,9.16519298 L41.4863158,9.16519298 C42.2613333,9.16519298 42.8613801,9.84168421 42.7668772,10.6109942 M41.3923743,11.5203743 C41.2158129,12.9579415 40.1723509,13.6510877 38.4698947,13.6510877 L35.0169825,13.6510877 L35.2172164,12.0503392 L38.6460819,12.0503392 C39.0844444,12.0503392 39.3207953,11.7854503 39.3783392,11.3165848 C39.3848889,11.2649357 39.3861053,11.2189942 39.3868538,11.1732398 L41.4178246,11.1732398 C41.4144561,11.2823392 41.4077193,11.3953684 41.3923743,11.5203743 M46.0799064,9.11784795 L39.2180585,2.25534503 C38.8004678,1.83794152 38.1236023,1.83794152 37.7061053,2.25534503 L30.8441637,9.11784795 C30.4266667,9.5354386 30.4266667,10.2123977 30.8441637,10.6299883 L37.7061053,17.4923977 C38.1236023,17.9099883 38.8004678,17.9099883 39.2180585,17.4923977 L46.0799064,10.6299883 C46.4973099,10.2123977 46.4973099,9.5354386 46.0799064,9.11784795" id="Fill-11" fill="#FFFFFE"></path>
                    <path d="M25.7498947,12.2328889 C27.0157661,12.2328889 27.2322807,11.2891696 27.3838596,10.0557661 C27.492117,9.17323977 27.4961404,8.5548538 27.181848,8.19967251 C26.9942456,7.98746199 26.6985731,7.88435088 26.2784561,7.88435088 C25.7032982,7.88435088 25.3168655,8.07073684 25.0624561,8.47101754 C24.8081404,8.87083041 24.7066199,9.46638596 24.6350409,10.0504327 C24.525848,10.9375439 24.5219181,11.5590175 24.8369591,11.9151345 C25.0262456,12.1288421 25.324538,12.2328889 25.7498947,12.2328889 M26.5354854,5.83560234 C27.6805614,5.83560234 28.483462,6.11368421 28.9894737,6.68584795 C29.5762339,7.3488655 29.7494269,8.36294737 29.5516257,9.97361404 C29.3912515,11.28 29.0750877,12.194807 28.556538,12.8520234 C27.8909942,13.6957193 26.8959064,14.1061988 25.5146667,14.1061988 C24.3659415,14.1061988 23.5605146,13.826807 23.0519766,13.2520234 C22.4720468,12.5964912 22.2922105,11.5563977 22.4859883,9.97904094 C22.6471111,8.66704094 22.964117,7.74933333 23.4837895,7.09090058 C24.1505497,6.24645614 25.1486316,5.83560234 26.5354854,5.83560234" id="Fill-12" fill="#FFFFFE"></path>
                    <path d="M12.2806082,11.0238129 L10.8950643,11.0238129 L10.9079766,10.9937778 L11.8636725,8.75939181 L11.8920234,8.69267836 L11.9047485,8.76388304 L12.3062456,11.0238129 L12.2806082,11.0238129 Z M7.60748538,13.9794152 L9.72519298,13.9794152 L10.1871345,12.8436023 L10.1925614,12.8300351 L12.5755322,12.8300351 L12.5783392,12.8483743 L12.7607018,13.9794152 L14.946807,13.9794152 L13.6365848,7.06750877 C13.5091462,6.3945731 12.9193918,5.90596491 12.2342924,5.90596491 L11.1201871,5.90596491 L7.60748538,13.9794152 L7.60748538,13.9794152 Z" id="Fill-13" fill="#FFFFFE"></path>
                    <path d="M18.5131228,10.8909474 L19.9071813,10.8909474 L19.8894971,11.0326082 C19.8001404,11.7620585 19.5685614,12.3176608 18.6973567,12.3176608 C17.706386,12.3176608 17.4249357,11.8602105 17.6483743,10.0415439 C17.881076,8.14699415 18.4754152,7.91822222 19.3244444,7.91822222 C20.8507135,7.91822222 21.6203977,8.13660819 21.6203977,8.13660819 L21.8688187,6.11405848 C21.8688187,6.11405848 21.0619883,5.83812865 19.677848,5.83812865 C16.8905731,5.83812865 15.8328889,7.17745029 15.4894035,9.97614035 C15.1898947,12.4158129 15.636117,14.1036725 18.2821053,14.1036725 C20.873731,14.1036725 21.6010292,13.1455439 21.9099883,10.629614 L22.093193,9.13787135 L18.7284211,9.13787135 L18.5131228,10.8909474" id="Fill-14" fill="#FFFFFE"></path>
                    <path d="M5.74035088,9.79134503 C6.32832749,9.79134503 6.57272515,9.48631579 6.65534503,8.8108538 C6.74105263,8.11405848 6.5714152,7.80921637 5.98381287,7.80921637 L4.81833918,7.80921637 L4.57506433,9.79134503 L5.74035088,9.79134503 Z M2.92519298,5.93590643 L6.28996491,5.93590643 C8.40243275,5.93590643 8.98591813,7.03588304 8.784,8.68042105 C8.58488889,10.3030643 7.71536842,11.6206784 5.54844444,11.6206784 L4.35050292,11.6206784 L4.05782456,14.0055205 L1.93412865,14.0055205 L2.92519298,5.93590643 L2.92519298,5.93590643 Z" id="Fill-15" fill="#FFFFFE"></path>
                    <polyline id="Fill-17" fill="#0D3567" points="45.9600468 21.3896389 45.776 22.886902 43.9095205 22.886902 43.3298713 27.6233699 41.6720468 27.6233699 42.2515088 22.886902 42.2534737 22.886902 40.6125848 22.886902 40.822269 21.3896389 45.9855906 21.3896389"></polyline>
                </g>
            </g>
        </g>
    </g>
</svg>