<?xml version="1.0" encoding="UTF-8"?>
<svg width="48px" height="31px" viewBox="0 0 48 31" version="1.1" xmlns="http://www.w3.org/2000/svg" xmlns:xlink="http://www.w3.org/1999/xlink">
    <title>ic-pagobancomat-large</title>
    <g id="Pagine-Foglia" stroke="none" stroke-width="1" fill="none" fill-rule="evenodd">
        <g id="Pagina-Metodi-di-pagamento-MVP" transform="translate(-257.000000, -6162.000000)">
            <g id="Group-10" transform="translate(0.000000, 927.000000)">
                <g id="ic-pagobancomat-large" transform="translate(257.000000, 5235.090105)">
                    <path d="M47.7808655,19.1580819 L47.9075556,2.5548538 C47.9075556,1.14385965 46.9466199,0.139602339 45.7458713,-2.04281037e-13 L2.17431579,-2.04281037e-13 C1.01408187,0.161497076 0.0126315789,1.14367251 0.0126315789,2.55466667 L0.0126315789,19.1580819 L47.7808655,19.1580819" id="Fill-1" fill="#F6BD33"></path>
                    <path d="M47.9075556,21.6798538 C47.9075556,20.2688596 46.9466199,19.2646023 45.7458713,19.125 L2.17431579,19.125 C1.01408187,19.2864971 0.0126315789,20.2686725 0.0126315789,21.6796667 L0.0126315789,29.9393319 L47.7808655,29.9393319 L47.9075556,21.6798538 Z" id="Fill-1-Copy" fill="#FFFFFF" transform="translate(23.960094, 24.532166) scale(1, -1) translate(-23.960094, -24.532166) "></path>
                    <path d="M2.36863968,0.00364473684 C1.06036144,0.00364473684 0,1.10688739 0,2.4682674 L0,27.4453694 C0,28.8064573 1.06045503,29.9098947 2.36882686,29.9098947 L45.5377039,29.9098947 C46.8459822,29.9098947 47.90625,28.8066521 47.90625,27.4455642 L47.90625,2.4682674 C47.90625,1.10708214 46.845795,0.00364473684 45.5376103,0.00364473684 L2.36863968,0.00364473684 Z M2.39413127,0.00364473684 L2.39413127,0.364636525 L45.5121187,0.364831182 C46.6253518,0.364831182 47.53125,1.30814 47.53125,2.467129 L47.53125,27.4328889 C47.53125,28.5919752 46.6254453,29.5348947 45.5122122,29.5348947 L2.39431823,29.5348947 C1.28099168,29.5348947 0.375,28.5919752 0.375,27.4326942 L0.375,2.467129 C0.375,1.30794534 1.28071125,0.364636525 2.39413127,0.364636525 L2.39413127,0.00364473684 L2.39413127,0.00364473684 Z" id="Fill-3" fill="#0D3567"></path>
                    <path d="M25.5375906,26.1628787 C26.5150877,26.1628787 26.6822924,25.4344576 26.7991579,24.481943 C26.8829006,23.8006798 26.8858012,23.3231126 26.6430877,23.0487734 C26.4982456,22.8849371 26.2700351,22.8052178 25.9458246,22.8052178 C25.5014737,22.8052178 25.2030877,22.949405 25.0065965,23.2582705 C24.8101988,23.5672295 24.7320702,24.0269254 24.6765848,24.4779196 C24.5925614,25.1628319 24.5890058,25.6427383 24.8325614,25.9174518 C24.9784327,26.082598 25.2089825,26.1628787 25.5375906,26.1628787 M26.1440936,21.2233699 C27.0284912,21.2233699 27.6483743,21.4381067 28.0392047,21.8799313 C28.4921637,22.3918377 28.6260585,23.1747149 28.4732632,24.4186915 C28.3494737,25.4272529 28.1052632,26.1334985 27.7048889,26.6411009 C27.190924,27.2927968 26.4223626,27.6095219 25.3557895,27.6095219 C24.4689591,27.6095219 23.8470175,27.3936623 23.4543158,26.9499664 C23.0064094,26.4437675 22.867462,25.6405863 23.017076,24.4227149 C23.1415205,23.4097558 23.386386,22.7010775 23.7875088,22.1928202 C24.3024094,21.5405629 25.0733099,21.2233699 26.1440936,21.2233699" id="Fill-4" fill="#0D3567"></path>
                    <path d="M4.61164912,26.2125629 C4.97356725,26.2125629 5.16874854,25.9938026 5.21618713,25.6067149 C5.26381287,25.2199079 5.12776608,25.0263173 4.74909942,25.0263173 L3.88266667,25.0263173 L3.73698246,26.2125629 L4.61164912,26.2125629 Z M4.82021053,23.8317442 C5.22385965,23.8317442 5.35054971,23.5543173 5.39181287,23.2176623 C5.43316959,22.8811009 5.37478363,22.6710424 4.96271345,22.6710424 L4.17178947,22.6710424 L4.02928655,23.8317442 L4.82021053,23.8317442 Z M2.69960234,21.2995336 L5.18989474,21.2995336 C6.78830409,21.2995336 7.21787135,21.9809839 7.10306433,22.9148787 C7.01436257,23.6381535 6.70708772,24.084095 6.26273684,24.2775921 C6.80795322,24.4963523 6.98030409,24.9422939 6.87812865,25.7752295 C6.73253801,26.961288 5.87153216,27.5332646 4.46652632,27.5332646 L1.93431579,27.5332646 L2.69960234,21.2995336 L2.69960234,21.2995336 Z" id="Fill-5" fill="#0D3567"></path>
                    <path d="M35.6232047,21.2995336 L34.8578246,27.5332646 L33.2591345,27.5332646 L33.6867368,24.0505044 L33.7015205,23.9312997 L32.1803041,27.5332646 L31.1396491,27.5332646 L30.5061988,24.0455453 L30.4866433,23.9369137 L30.473076,24.046481 L30.0450058,27.5332646 L28.5985497,27.5332646 L29.3639298,21.2995336 L30.5483041,21.2995336 C31.0899649,21.2995336 31.5502222,21.6871827 31.6418246,22.2213582 L32.058386,24.6432529 L32.0682105,24.6999547 L32.0902924,24.6471827 L33.5047485,21.2995336 L35.6232047,21.2995336" id="Fill-6" fill="#0D3567"></path>
                    <path d="M37.682807,25.2513465 L38.7726784,25.2513465 L38.7692164,25.2317909 L38.4625029,23.5062237 L38.4528655,23.4512061 L38.4307836,23.5026681 L37.682807,25.2513465 Z M38.7170058,21.2995336 C39.2456608,21.2995336 39.7013333,21.6768904 39.7997661,22.19675 L40.8117895,27.5332646 L39.1236491,27.5332646 L38.9827368,26.6599079 L38.9803977,26.6460599 L37.1403977,26.6460599 L37.1362807,26.6564459 L36.7792281,27.5332646 L35.1440468,27.5332646 L37.8568421,21.2995336 L38.7170058,21.2995336 L38.7170058,21.2995336 Z" id="Fill-7" fill="#0D3567"></path>
                    <path d="M18.4809357,21.2999079 L17.7158363,27.5328904 L16.2018246,27.5328904 L14.6608655,24.2865746 L14.6362573,24.2344576 L14.6290526,24.2919079 L14.2310175,27.5328904 L12.674807,27.5328904 L13.4403743,21.2999079 L14.4689591,21.2999079 C14.8971228,21.2999079 15.2916023,21.5506681 15.4734035,21.9384108 L16.5549474,24.2438143 L16.5618713,24.1860833 L16.9163041,21.2999079 L18.4809357,21.2999079" id="Fill-8" fill="#0D3567"></path>
                    <path d="M21.7747836,21.2233699 C22.4641871,21.2233699 23.0632982,21.3883289 23.5092398,21.7009371 L22.4614737,23.0700132 C22.214924,22.9079547 21.888,22.8224342 21.5150409,22.8224342 C20.8001871,22.8224342 20.4295673,23.0687032 20.2576842,24.4694985 C20.1633684,25.237405 20.2139883,25.68475 20.4219883,25.9196038 C20.562152,26.0783874 20.7734269,26.1458494 21.1279532,26.1458494 C21.5135439,26.1458494 21.8135205,26.0576155 22.192655,25.8313699 L22.8460351,27.1037909 C22.319345,27.4075102 21.7759064,27.6095219 20.8511813,27.6095219 C20.0141287,27.6095219 19.4232515,27.4015219 19.0443977,26.9733582 C18.5949942,26.465288 18.448655,25.6310424 18.5969591,24.4227149 C18.7277661,23.3570775 18.9927485,22.6234167 19.4305497,22.1142237 C19.9459181,21.5148319 20.7127018,21.2233699 21.7747836,21.2233699" id="Fill-9" fill="#0D3567"></path>
                    <path d="M10.3216842,25.2513465 L9.25155556,25.2513465 L9.26166082,25.2280482 L9.99981287,23.5026681 L10.021614,23.4512061 L10.031345,23.5062237 L10.3379649,25.2317909 L10.3414269,25.2513465 L10.3216842,25.2513465 Z M6.71307602,27.5332646 L8.34825731,27.5332646 L8.70512281,26.6564459 L8.7094269,26.6460599 L10.5494269,26.6460599 L10.5516725,26.6599079 L10.6923977,27.5332646 L12.3803509,27.5332646 L11.3686082,22.19675 C11.2704561,21.6768904 10.8147836,21.2997208 10.285848,21.2997208 L9.42549708,21.2997208 L6.71307602,27.5332646 L6.71307602,27.5332646 Z" id="Fill-10" fill="#0D3567"></path>
                    <path d="M42.7668772,10.5208889 L35.3936842,10.5208889 L35.571462,9.07508772 L38.9008655,9.07508772 C39.3879766,9.07377778 39.5411462,8.73796491 39.5912047,8.3308538 C39.6411696,7.92318129 39.5705263,7.66830409 39.0706901,7.66830409 L35.7442807,7.66830409 L35.9443275,6.00626901 L39.3464327,6.00626901 C41.2832749,6.00626901 41.8037895,6.8322807 41.6648421,7.96397661 C41.6082339,8.42704094 41.4769591,8.79522807 41.2871111,9.07508772 L41.4863158,9.07508772 C42.2613333,9.07508772 42.8613801,9.75157895 42.7668772,10.5208889 M41.3923743,11.430269 C41.2158129,12.8678363 40.1723509,13.5609825 38.4698947,13.5609825 L35.0169825,13.5609825 L35.2172164,11.9602339 L38.6460819,11.9602339 C39.0844444,11.9602339 39.3207953,11.695345 39.3783392,11.2264795 C39.3848889,11.1748304 39.3861053,11.1288889 39.3868538,11.0831345 L41.4178246,11.0831345 C41.4144561,11.1922339 41.4077193,11.3052632 41.3923743,11.430269 M46.0799064,9.02774269 L39.2180585,2.16523977 C38.8004678,1.74783626 38.1236023,1.74783626 37.7061053,2.16523977 L30.8441637,9.02774269 C30.4266667,9.44533333 30.4266667,10.1222924 30.8441637,10.539883 L37.7061053,17.4022924 C38.1236023,17.819883 38.8004678,17.819883 39.2180585,17.4022924 L46.0799064,10.539883 C46.4973099,10.1222924 46.4973099,9.44533333 46.0799064,9.02774269" id="Fill-11" fill="#FFFFFE"></path>
                    <path d="M25.7498947,12.1427836 C27.0157661,12.1427836 27.2322807,11.1990643 27.3838596,9.96566082 C27.492117,9.0831345 27.4961404,8.46474854 27.181848,8.10956725 C26.9942456,7.89735673 26.6985731,7.79424561 26.2784561,7.79424561 C25.7032982,7.79424561 25.3168655,7.98063158 25.0624561,8.38091228 C24.8081404,8.78072515 24.7066199,9.3762807 24.6350409,9.96032749 C24.525848,10.8474386 24.5219181,11.4689123 24.8369591,11.8250292 C25.0262456,12.0387368 25.324538,12.1427836 25.7498947,12.1427836 M26.5354854,5.74549708 C27.6805614,5.74549708 28.483462,6.02357895 28.9894737,6.59574269 C29.5762339,7.25876023 29.7494269,8.27284211 29.5516257,9.88350877 C29.3912515,11.1898947 29.0750877,12.1047018 28.556538,12.7619181 C27.8909942,13.605614 26.8959064,14.0160936 25.5146667,14.0160936 C24.3659415,14.0160936 23.5605146,13.7367018 23.0519766,13.1619181 C22.4720468,12.506386 22.2922105,11.4662924 22.4859883,9.88893567 C22.6471111,8.57693567 22.964117,7.65922807 23.4837895,7.00079532 C24.1505497,6.15635088 25.1486316,5.74549708 26.5354854,5.74549708" id="Fill-12" fill="#FFFFFE"></path>
                    <path d="M12.2806082,10.9337076 L10.8950643,10.9337076 L10.9079766,10.9036725 L11.8636725,8.66928655 L11.8920234,8.6025731 L11.9047485,8.67377778 L12.3062456,10.9337076 L12.2806082,10.9337076 Z M7.60748538,13.8893099 L9.72519298,13.8893099 L10.1871345,12.7534971 L10.1925614,12.7399298 L12.5755322,12.7399298 L12.5783392,12.758269 L12.7607018,13.8893099 L14.946807,13.8893099 L13.6365848,6.97740351 C13.5091462,6.30446784 12.9193918,5.81585965 12.2342924,5.81585965 L11.1201871,5.81585965 L7.60748538,13.8893099 L7.60748538,13.8893099 Z" id="Fill-13" fill="#FFFFFE"></path>
                    <path d="M18.5131228,10.8008421 L19.9071813,10.8008421 L19.8894971,10.9425029 C19.8001404,11.6719532 19.5685614,12.2275556 18.6973567,12.2275556 C17.706386,12.2275556 17.4249357,11.7701053 17.6483743,9.9514386 C17.881076,8.05688889 18.4754152,7.82811696 19.3244444,7.82811696 C20.8507135,7.82811696 21.6203977,8.04650292 21.6203977,8.04650292 L21.8688187,6.02395322 C21.8688187,6.02395322 21.0619883,5.74802339 19.677848,5.74802339 C16.8905731,5.74802339 15.8328889,7.08734503 15.4894035,9.88603509 C15.1898947,12.3257076 15.636117,14.0135673 18.2821053,14.0135673 C20.873731,14.0135673 21.6010292,13.0554386 21.9099883,10.5395088 L22.093193,9.04776608 L18.7284211,9.04776608 L18.5131228,10.8008421" id="Fill-14" fill="#FFFFFE"></path>
                    <path d="M5.74035088,9.70123977 C6.32832749,9.70123977 6.57272515,9.39621053 6.65534503,8.72074854 C6.74105263,8.02395322 6.5714152,7.71911111 5.98381287,7.71911111 L4.81833918,7.71911111 L4.57506433,9.70123977 L5.74035088,9.70123977 Z M2.92519298,5.84580117 L6.28996491,5.84580117 C8.40243275,5.84580117 8.98591813,6.94577778 8.784,8.59031579 C8.58488889,10.2129591 7.71536842,11.5305731 5.54844444,11.5305731 L4.35050292,11.5305731 L4.05782456,13.9154152 L1.93412865,13.9154152 L2.92519298,5.84580117 L2.92519298,5.84580117 Z" id="Fill-15" fill="#FFFFFE"></path>
                    <polyline id="Fill-17" fill="#0D3567" points="45.9600468 21.2995336 45.776 22.7967968 43.9095205 22.7967968 43.3298713 27.5332646 41.6720468 27.5332646 42.2515088 22.7967968 42.2534737 22.7967968 40.6125848 22.7967968 40.822269 21.2995336 45.9855906 21.2995336"></polyline>
                </g>
            </g>
        </g>
    </g>
</svg>