<?xml version="1.0" encoding="UTF-8"?>
<svg width="105px" height="30px" viewBox="0 0 105 30" version="1.1" xmlns="http://www.w3.org/2000/svg" xmlns:xlink="http://www.w3.org/1999/xlink">
    <title>A68BCFE0-363A-434A-BF51-16DCFDE2336A</title>
    <g id="Pagine-Foglia" stroke="none" stroke-width="1" fill="none" fill-rule="evenodd">
        <g id="Pagina-Metodi-di-pagamento-MVP" transform="translate(-257.000000, -1947.000000)">
            <g id="Group-10" transform="translate(0.000000, 927.000000)">
                <g id="ic-postamat-large" transform="translate(257.000000, 1020.000000)">
                    <path d="M2,30 L102.705882,30 C103.810452,30 104.705882,29.1045695 104.705882,28 L104.705882,2 C104.705882,0.8954305 103.810452,-2.02906125e-16 102.705882,0 L2,0 C0.8954305,2.02906125e-16 -1.3527075e-16,0.8954305 0,2 L0,28 C-1.82683884e-15,29.1045695 0.8954305,30 2,30 Z" id="Fill-1" fill="#DFCB03"></path>
                    <g id="Group-20" transform="translate(7.647059, 3.529412)" fill="#0F266C">
                        <path d="M83.1464742,6.94305882 L82.5041344,6.11070588 L83.1033958,5.44894118 L83.7032473,4.766 L84.4954762,5.59835294 L85.2877051,6.40952941 L84.7521761,7.09247059 C84.473937,7.47658824 84.1313755,7.79658824 84.0245647,7.79658824 C83.8959198,7.79658824 83.5102798,7.41276471 83.1464742,6.94305882 M81.5620164,9.39776471 L81.6688271,9.07747059 L81.3478047,9.18423529 L81.4549105,8.86394118 L81.2194548,8.39452941 C81.0052432,8.03158824 81.0695657,7.86070588 81.5620164,7.34864706 C82.0332229,6.85747059 82.2258953,6.77217647 82.4613511,6.96423529 C82.6327794,7.11364706 82.8894792,7.47658824 83.0393684,7.77541176 C83.2963633,8.28747059 83.2963633,8.41570588 82.9110184,9.03452941 C82.6752676,9.39776471 82.3970286,9.71776471 82.2902178,9.71776471 C82.182817,9.71776471 82.054467,9.611 81.9901445,9.50423529 L81.8833338,9.29070588 M84.9451436,9.69629412 L84.3671263,8.84276471 L84.9879269,8.20217647 L85.6090226,7.56188235 L86.079934,8.15982353 C86.7222738,8.92805882 86.7010297,9.376 86.0586899,10.0377647 L85.5234559,10.5715882 L84.9451436,9.69629412 M83.1677183,11.7883529 C82.8039126,11.4251176 82.5256736,11.0624706 82.5256736,10.9983529 C82.5256736,10.6780588 83.6176807,9.73923529 83.8746756,9.82452941 C84.0245647,9.88864706 84.3028038,10.2301176 84.5170154,10.5715882 C84.8808211,11.1904118 84.8808211,11.2333529 84.4526929,11.8521765 C84.2172372,12.1939412 83.9602422,12.4924706 83.9171639,12.4924706 C83.8531364,12.4924706 83.5102798,12.1721765 83.1677183,11.7883529 M86.8078404,12.3430588 C86.2729015,11.6601176 86.2729015,11.6812941 86.8078404,10.8062941 C87.2362637,10.1018824 87.2578029,10.1018824 87.685931,10.4862941 C88.6492932,11.3398235 88.6280491,12.2151176 87.6646869,12.706 C87.3005862,12.8768824 87.150402,12.8127647 86.8078404,12.3430588 M80.9196766,12.5992353 L81.2406989,12.706 L81.6047997,12.1721765 C81.8190113,11.8736471 82.0972503,11.6386471 82.2258953,11.6386471 C82.3757844,11.6386471 82.6968068,11.9801176 82.9538017,12.3857059 L83.4247132,13.1542353 L82.8251567,13.7733529 C82.3327061,14.2854118 82.1615728,14.3495294 81.9689004,14.136 C81.8402554,13.9865882 81.5620164,13.6451176 81.3693439,13.3889412 L81.0264873,12.9192353 M84.859577,14.2001176 L84.4311537,13.3462941 L84.9023603,12.6845294 L85.3948109,12.0227647 L85.9943674,12.7271765 C86.3153898,13.1327647 86.5723847,13.5171765 86.5723847,13.6024706 C86.5723847,13.6877647 86.2941456,14.0507059 85.9515841,14.4133529 L85.3092443,15.0536471 L84.859577,14.2001176 M84.1313755,19.771 C84.067053,19.3868824 83.8315973,19.0880588 83.4890357,18.9383529 C83.0178292,18.7036471 82.9538017,18.5545294 82.9538017,17.6151176 C82.9538017,17.0174706 82.996585,16.5477647 83.0609075,16.5477647 C83.12523,16.5477647 83.4034691,16.676 83.6817081,16.8680588 C84.1529147,17.1883529 84.195698,17.1668824 84.6453653,16.5477647 L85.1165719,15.9074706 L84.5382595,15.1392353 L83.9389981,14.3921765 L83.3819299,14.9042353 C82.9538017,15.3315882 82.6112402,15.4380588 81.8190113,15.4380588 C80.8125708,15.4380588 80.7913266,15.4168824 80.7913266,14.7551176 C80.7913266,14.3921765 80.705465,13.9439412 80.6198983,13.7945294 C80.4912533,13.6024706 80.6411425,13.0901176 81.0480265,12.3215882 C81.8190113,10.8704118 81.8833338,9.41894118 81.2194548,9.05629412 C79.9560194,8.39452941 77.4506877,10.5927647 74.9668951,14.5627647 L74.003533,16.121 L73.3181148,15.0324706 L72.6542359,13.9439412 L74.3245553,12.1939412 C76.4017589,10.0165882 78.1145666,8.05276471 80.705465,4.78717647 C81.8190113,3.37835294 82.8251567,2.24717647 82.9322625,2.24717647 C83.0393684,2.24717647 83.6817081,2.97305882 84.3455871,3.89070588 C85.0310053,4.80835294 86.2298232,6.32423529 87.0223471,7.26305882 C89.4418171,10.1448235 91.0905974,12.5136471 90.897925,12.8339412 C90.6837134,13.2183529 85.9085057,18.7036471 84.9879269,19.6430588 L84.2384813,20.3901176 L84.1313755,19.771 M83.5746023,22.6736471 C83.5533582,22.5245294 83.5533582,22.0548235 83.5746023,21.6280588 C83.6176807,20.646 83.4034691,20.5180588 82.4398119,20.9233529 L81.6688271,21.2436471 L81.6688271,20.3901176 C81.6688271,19.9204118 81.7974721,19.1092353 81.9901445,18.5757059 C82.589701,16.8039412 81.9689004,16.7186471 80.2130143,18.2980588 C79.1637905,19.2586471 78.971118,19.3439412 78.9280397,18.9812941 C78.8855514,18.7465882 79.0566846,17.9354118 79.2921404,17.1883529 C79.5275961,16.4198235 79.6774852,15.7583529 79.634997,15.7154118 C79.5706745,15.6730588 79.1425463,15.8221765 78.6713398,16.0783529 C78.2001332,16.3130588 77.7720051,16.4412941 77.7076826,16.356 C77.5362543,16.0568824 77.9862167,14.7121765 78.4999115,14.0080588 C80.3413642,11.4468824 80.6411425,10.9771765 80.5555758,10.8918824 C80.5127925,10.8489412 80.0843693,10.9771765 79.6131628,11.1904118 C78.6070173,11.6386471 77.3223377,13.0686471 75.4165625,15.8862941 C74.6455777,16.9962941 73.9392105,17.9139412 73.8321047,17.9565882 C73.4680039,18.0636471 71.6053071,14.7977647 71.6053071,14.0718824 C71.6053071,13.2607059 71.9691128,12.7486471 74.2602329,10.3580588 C75.7163407,8.82129412 78.6713398,5.36364706 82.2258953,0.987764706 C82.9538017,0.112764706 82.996585,0.0912941176 83.4034691,0.454235294 C83.6389248,0.667764706 84.2815597,1.45747059 84.8164986,2.226 C85.3735668,2.99423529 87.0008079,5.10747059 88.4569158,6.94305882 C89.9130237,8.75717647 91.3475924,10.6568824 91.6473706,11.1477647 C92.4180603,12.4283529 92.225683,13.1968824 90.7049575,14.9898235 C85.9943674,20.5607059 83.5961415,23.1433529 83.5746023,22.6736471" id="Fill-2"></path>
                        <path d="M2.19802951,10.6318824 L2.97639072,10.6318824 C3.34314696,10.6318824 3.81317328,10.6318824 4.22418812,10.2833529 C4.57619151,9.96894118 4.75263578,9.471 4.75263578,8.99041176 C4.75263578,8.37747059 4.48855948,7.96305882 4.2091402,7.731 C3.81317328,7.41482353 3.31393629,7.38276471 2.85836779,7.38276471 L2.19802951,7.38276471 L2.19802951,10.6318824 Z M3.13778707,5.52541176 C4.23864593,5.52541176 5.00166416,5.65894118 5.72130896,6.37158824 C6.51383293,7.16688235 6.71948788,8.24541176 6.71948788,9.04041176 C6.71948788,9.471 6.66106653,10.6654118 5.91221105,11.5104118 C5.36871547,12.1233529 4.56143864,12.4892353 3.43107405,12.4892353 L2.19802951,12.4892353 L2.19802951,16.5833529 L0.28959876,16.5833529 L0.28959876,5.52541176 L3.13778707,5.52541176 Z" id="Fill-4"></path>
                        <path d="M16.5500896,11.0624412 C16.5500896,8.8245 15.1355849,7.23273529 13.1368666,7.23273529 C11.1384433,7.23273529 9.72393855,8.8245 9.72393855,11.0624412 C9.72393855,13.3003824 11.1384433,14.8759706 13.1368666,14.8759706 C15.1355849,14.8759706 16.5500896,13.3003824 16.5500896,11.0624412 M18.6098848,11.0624412 C18.6098848,14.4277353 16.3653838,16.8318529 13.1368666,16.8318529 C9.90834937,16.8318529 7.66384834,14.4277353 7.66384834,11.0624412 C7.66384834,7.69744118 9.90834937,5.27685294 13.1368666,5.27685294 C16.3653838,5.27685294 18.6098848,7.69744118 18.6098848,11.0624412" id="Fill-6"></path>
                        <path d="M24.5283216,8.04541176 C23.9060457,7.18423529 23.1719431,7.10041176 22.7895488,7.10041176 C21.6727568,7.10041176 21.3213435,7.831 21.3213435,8.39394118 C21.3213435,8.65952941 21.4013041,8.90805882 21.6568237,9.14041176 C21.9120483,9.38835294 22.2625764,9.521 22.9329466,9.76923529 C23.7623528,10.0674706 24.5445497,10.3674706 25.0868651,10.8804118 C25.5657431,11.3283529 25.9962317,12.0748235 25.9962317,13.2018824 C25.9962317,15.3562941 24.4964554,16.8318824 22.2944426,16.8318824 C20.3323114,16.8318824 19.1839483,15.5883529 18.6251098,14.7433529 L19.9814883,13.4004118 C20.4919374,14.4774706 21.4650365,14.876 22.2153672,14.876 C23.1566001,14.876 23.8585414,14.2792353 23.8585414,13.3504118 C23.8585414,12.9524706 23.7307816,12.6377647 23.4436908,12.3554118 C23.0447734,11.9748235 22.4062693,11.7589412 21.8002216,11.5430588 C21.2416781,11.3445294 20.571898,11.0798235 20.0295826,10.5818824 C19.6781693,10.2674706 19.1839483,9.65305882 19.1839483,8.526 C19.1839483,6.90188235 20.2367128,5.27688235 22.5980566,5.27688235 C23.2681317,5.27688235 24.5283216,5.40894118 25.6138374,6.56982353 L24.5283216,8.04541176 Z" id="Fill-8"></path>
                        <polygon id="Fill-10" points="31.0465213 7.38279412 31.0465213 16.5833824 28.8613268 16.5833824 28.8613268 7.38279412 26.3394719 7.38279412 26.3394719 5.52544118 33.5677861 5.52544118 33.5677861 7.38279412"></polygon>
                        <polygon id="Fill-12" points="68.2184031 7.38279412 68.2184031 16.5833824 66.0332086 16.5833824 66.0332086 7.38279412 63.5110586 7.38279412 63.5110586 5.52544118 70.7396679 5.52544118 70.7396679 7.38279412"></polygon>
                        <path d="M39.2846397,12.5054412 L37.7701105,8.52602941 L36.2561714,12.5054412 L39.2846397,12.5054412 Z M39.8900974,14.2630882 L35.6026194,14.2630882 L34.6616816,16.5833824 L32.4145251,16.5833824 L36.9893888,5.52544118 L38.6148596,5.52544118 L43.0619635,16.5833824 L40.830445,16.5833824 L39.8900974,14.2630882 Z" id="Fill-14"></path>
                        <path d="M61.1425155,12.5054412 L59.6276912,8.52602941 L58.1137521,12.5054412 L61.1425155,12.5054412 Z M61.7479731,14.2630882 L57.4604952,14.2630882 L56.5195574,16.5833824 L54.2721058,16.5833824 L58.8472646,5.52544118 L60.4724403,5.52544118 L64.9198393,16.5833824 L62.6880257,16.5833824 L61.7479731,14.2630882 Z" id="Fill-16"></path>
                        <polygon id="Fill-18" points="44.7959269 5.52532353 46.2541002 5.52532353 48.9999036 12.5553235 51.869336 5.52532353 53.3275093 5.52532353 55.0648068 16.5835588 53.0168139 16.5835588 52.0864982 9.76944118 49.3097138 16.5835588 48.6272462 16.5835588 45.9749759 9.76944118 44.920146 16.5835588 42.8730383 16.5835588"></polygon>
                    </g>
                </g>
            </g>
        </g>
    </g>
</svg>