<?xml version="1.0" encoding="UTF-8"?>
<svg width="48px" height="30px" viewBox="0 0 48 30" version="1.1" xmlns="http://www.w3.org/2000/svg" xmlns:xlink="http://www.w3.org/1999/xlink">
    <title>ic-paypal-large</title>
    <g id="ic-paypal-large" stroke="none" stroke-width="1" fill="none" fill-rule="evenodd">
        <g id="PayPal" transform="translate(18.000000, 3.000000)" fill-rule="nonzero">
            <path d="M3.75019355,15.0472258 L4.02012903,13.3326452 L3.41883871,13.3187097 L0.547612903,13.3187097 L2.54296774,0.66683871 C2.55524562,0.586939826 2.62419665,0.528089902 2.70503226,0.528513829 L7.54632258,0.528513829 C9.15354839,0.528513829 10.2627097,0.862967742 10.8418065,1.52309677 C11.1132903,1.83277419 11.2861935,2.1563871 11.3698065,2.51251613 C11.4575484,2.88619355 11.4590968,3.33264516 11.3734194,3.87716129 L11.3672258,3.91690323 L11.3672258,4.26580645 L11.6387097,4.4196129 C11.8459649,4.52461422 12.0322584,4.66665203 12.1883871,4.83870968 C12.4206452,5.10348387 12.5708387,5.44 12.6343226,5.83896774 C12.699871,6.24929032 12.6781935,6.73754839 12.5708387,7.29032258 C12.4469677,7.92619355 12.2467097,8.48 11.9762581,8.93316129 C11.737635,9.33912072 11.4167969,9.69072418 11.0343226,9.96541935 C10.6750968,10.2203871 10.2482581,10.4139355 9.76567742,10.5378065 C9.29806452,10.6596129 8.76490323,10.7210323 8.18012903,10.7210323 L7.80335484,10.7210323 C7.53393548,10.7210323 7.27225806,10.8180645 7.06683871,10.992 C6.8617106,11.1677914 6.7256333,11.4106821 6.68283871,11.6774194 L6.65445161,11.8317419 L6.17754839,14.8536774 L6.15587097,14.9646452 C6.15019355,14.9997419 6.1403871,15.0172903 6.12593548,15.0291613 C6.11193597,15.0406102 6.0944703,15.0469779 6.0763871,15.0472258 L3.75019355,15.0472258 Z" id="Path" fill="#253B80"></path>
            <path d="M11.8957419,3.95716129 C11.8812903,4.04954839 11.8647742,4.144 11.8461935,4.24103226 C11.2077419,7.51896774 9.02348387,8.65135484 6.23380645,8.65135484 L4.81341935,8.65135484 C4.47225806,8.65135484 4.18477419,8.89909677 4.1316129,9.2356129 L3.4043871,13.8477419 L3.19845161,15.1550968 C3.18184956,15.2600448 3.21201609,15.3670013 3.28100921,15.4478076 C3.35000232,15.5286139 3.45090825,15.5752258 3.55716129,15.5752258 L6.0763871,15.5752258 C6.37470968,15.5752258 6.62812903,15.3584516 6.67509677,15.0642581 L6.69987097,14.9362581 L7.17419355,11.9261935 L7.20464516,11.7610323 C7.25109677,11.4658065 7.50503226,11.2490323 7.80335484,11.2490323 L8.18012903,11.2490323 C10.6209032,11.2490323 12.5316129,10.2580645 13.0900645,7.39045161 C13.3233548,6.19251613 13.2025806,5.19225806 12.5852903,4.48877419 C12.3896414,4.27115513 12.1559755,4.09100848 11.8957419,3.95716129 L11.8957419,3.95716129 Z" id="Path" fill="#179BD7"></path>
            <path d="M11.227871,3.69083871 C11.0240136,3.63186642 10.8166324,3.58583917 10.6069677,3.55303226 C10.1926813,3.48936354 9.77397926,3.45881521 9.35483871,3.46167742 L5.56025806,3.46167742 C5.26187242,3.4614935 5.00789159,3.67883183 4.96206452,3.97367742 L4.15483871,9.08645161 L4.1316129,9.2356129 C4.1835753,8.89930045 4.47311636,8.65118502 4.81341935,8.65135484 L6.23380645,8.65135484 C9.02348387,8.65135484 11.2077419,7.51845161 11.8461935,4.24103226 C11.8652903,4.144 11.8812903,4.04954839 11.8957419,3.95716129 C11.7272698,3.86881475 11.5516871,3.79474888 11.3708387,3.73574194 C11.3234261,3.72001024 11.2757641,3.70504057 11.227871,3.69083871 L11.227871,3.69083871 Z" id="Path" fill="#222D65"></path>
            <path d="M4.96206452,3.97367742 C5.00750887,3.67869599 5.26179806,3.46126667 5.56025806,3.46219355 L9.35483871,3.46219355 C9.8043871,3.46219355 10.224,3.4916129 10.6069677,3.55354839 C10.86612,3.59427729 11.1216936,3.65519387 11.3713548,3.73574194 C11.5597419,3.79819355 11.7347097,3.872 11.8962581,3.95716129 C12.0861935,2.74580645 11.8947097,1.92103226 11.2397419,1.17419355 C10.5176774,0.352 9.21445161,0 7.54683871,0 L2.70554839,0 C2.36490323,0 2.07432258,0.247741935 2.02167742,0.584774194 L0.00516129032,13.3667097 C-0.0138469339,13.4868063 0.0206397385,13.6092075 0.0995495612,13.7017157 C0.178459384,13.7942238 0.293892403,13.8475775 0.415483871,13.8477419 L3.4043871,13.8477419 L4.15483871,9.08645161 L4.96206452,3.97367742 Z" id="Path" fill="#253B80"></path>
        </g>
        <g id="Group-17" transform="translate(12.000000, 20.000000)" fill-rule="nonzero">
            <path d="M2.75271779,0.000260850369 L0.96842002,0.000260850369 C0.846381284,0.000183925672 0.742446884,0.0889543081 0.723434554,0.209503013 L0.00178407559,4.78491315 C-0.00493007888,4.82788084 0.00750046058,4.87163443 0.0358027969,4.90465383 C0.0641051333,4.93767322 0.105442834,4.95664924 0.148931896,4.95658577 L1.00077167,4.95658577 C1.12289492,4.95664243 1.22686018,4.86773498 1.24575713,4.74708259 L1.44038883,3.51302375 C1.45927048,3.392469 1.56308897,3.30359241 1.68511339,3.30352074 L2.24996274,3.30352074 C3.42531899,3.30352074 4.10366001,2.73475789 4.28081137,1.6076682 C4.36064689,1.11456647 4.28420308,0.727129387 4.05330623,0.455792981 C3.79971105,0.157844736 3.34991878,0.000260850369 2.75271779,0.000260850369 L2.75271779,0.000260850369 Z M2.95856819,1.6713279 C2.86099145,2.31157745 2.37180322,2.31157745 1.89879081,2.31157745 L1.62954161,2.31157745 L1.81843349,1.11587097 C1.82985779,1.04360154 1.89215358,0.99037788 1.96532041,0.99037788 L2.08872629,0.99037788 C2.41093828,0.99037788 2.71488723,0.99037788 2.87194927,1.17405175 C2.96561251,1.28362992 2.99431155,1.44643176 2.95856819,1.6713279 L2.95856819,1.6713279 Z M8.08630446,1.65071677 L7.23185568,1.65071677 C7.15868885,1.65071791 7.09639306,1.70394042 7.08496876,1.77620985 L7.04713821,2.01519461 L6.98739202,1.92857568 C6.80241364,1.66010918 6.38993012,1.57035945 5.97822931,1.57035945 C5.0340308,1.57035945 4.22758769,2.28548742 4.07052566,3.28864942 C3.98886383,3.78905636 4.10496451,4.26754768 4.38882413,4.60123928 C4.64920272,4.90805814 5.02176848,5.03589933 5.46503824,5.03589933 C6.22582378,5.03589933 6.64769971,4.5467111 6.64769971,4.5467111 L6.60960825,4.78413045 C6.60273905,4.82708937 6.61502539,4.87090197 6.64323023,4.90402509 C6.67143507,4.93714822 6.71272967,4.95625985 6.75623427,4.95632471 L7.52589042,4.95632471 C7.64801367,4.95638153 7.75197893,4.86747408 7.77087589,4.74682169 L8.23266958,1.82238922 C8.23954842,1.77952451 8.22728523,1.73579924 8.19911925,1.70276321 C8.17095327,1.66972717 8.12971761,1.65070334 8.08630446,1.65071677 L8.08630446,1.65071677 Z M6.89529418,3.31369585 C6.81284966,3.80184048 6.42541258,4.12953137 5.93126724,4.12953137 C5.68315097,4.12953137 5.48486667,4.04995675 5.35754728,3.89915633 C5.23127149,3.7493995 5.18326582,3.53624389 5.22344448,3.29882453 C5.30041009,2.81485431 5.69436968,2.4764665 6.18094891,2.4764665 C6.42358627,2.4764665 6.62082697,2.55708472 6.75075536,2.70918965 C6.88094466,2.86285998 6.93260293,3.0773201 6.89529418,3.31369585 L6.89529418,3.31369585 Z M12.6369291,1.65071624 L11.7783059,1.65071624 C11.6960957,1.6508469 11.6192527,1.69156296 11.5729773,1.75951223 L10.3887504,3.50389224 L9.88677805,1.82760723 C9.8551402,1.72263161 9.75847645,1.65076974 9.64883689,1.65071624 L8.80508503,1.65071624 C8.7570303,1.65058898 8.71187554,1.67368985 8.68386099,1.71273416 C8.65584644,1.75177847 8.64842529,1.80195345 8.66393792,1.84743566 L9.60970184,4.62289401 L8.72055331,5.87808579 C8.68833936,5.92345454 8.68414724,5.98301125 8.70968816,6.03244528 C8.73522908,6.08187931 8.78622972,6.11289637 8.84187199,6.11289637 L9.69945157,6.11289637 C9.78072703,6.11300808 9.8568818,6.07322429 9.90321477,6.00644878 L12.7590304,1.88422262 C12.7905793,1.83876619 12.7942825,1.77955251 12.768643,1.73051955 C12.7430034,1.68148659 12.692261,1.65071624 12.6369291,1.65071624 L12.6369291,1.65071624 Z" id="Shape" fill="#253B80"></path>
            <path d="M15.4796997,0.00026090039 L13.695141,0.00026090039 C13.5732011,0.000312343716 13.4694134,0.0890519293 13.4504165,0.209503013 L12.728766,4.78491315 C12.7219732,4.82780687 12.7343035,4.8715241 12.7625083,4.90454684 C12.7907132,4.93756957 12.8319638,4.95658561 12.875392,4.95658561 L13.7911524,4.95658561 C13.8765017,4.95646047 13.9490836,4.89427904 13.962303,4.80995959 L14.1671098,3.51302375 C14.1859915,3.392469 14.28981,3.30359241 14.4118344,3.30352074 L14.9764229,3.30352074 C16.15204,3.30352074 16.8301201,2.73475789 17.0075324,1.6076682 C17.0876288,1.11456647 17.0106632,0.727129387 16.7797664,0.455792981 C16.5264321,0.157844736 16.0769007,0.00026090039 15.4796997,0.00026090039 L15.4796997,0.00026090039 Z M15.6855501,1.6713279 C15.5882343,2.31157745 15.099046,2.31157745 14.6257727,2.31157745 L14.3567844,2.31157745 L14.5459372,1.11587097 C14.5571414,1.04358481 14.619414,0.990287431 14.6925632,0.990377765 L14.8159691,0.990377765 C15.1379202,0.990377765 15.4421301,0.990377765 15.5991921,1.17405175 C15.6928553,1.28362992 15.7212935,1.44643176 15.6855501,1.6713279 L15.6855501,1.6713279 Z M20.8130255,1.65071677 L19.9590985,1.65071677 C19.8859084,1.65051544 19.8235734,1.70386623 19.8124725,1.77620985 L19.7746419,2.01519461 L19.7146348,1.92857568 C19.5296565,1.66010918 19.1174338,1.57035945 18.705733,1.57035945 C17.7615345,1.57035945 16.9553523,2.28548742 16.7982903,3.28864942 C16.7168894,3.78905636 16.8324682,4.26754768 17.1163279,4.60123928 C17.3772282,4.90805814 17.7492722,5.03589933 18.192542,5.03589933 C18.9533275,5.03589933 19.3752034,4.5467111 19.3752034,4.5467111 L19.337112,4.78413045 C19.3302283,4.82717941 19.3425811,4.87108075 19.3709032,4.90422368 C19.3992254,4.93736661 19.440664,4.95641269 19.4842598,4.95632471 L20.253655,4.95632471 C20.3756795,4.95625304 20.479498,4.86737644 20.4983796,4.74682169 L20.9604342,1.82238922 C20.9670628,1.7793927 20.9545654,1.73564699 20.9262241,1.70264073 C20.8978829,1.66963447 20.8565299,1.65066596 20.8130255,1.65071677 L20.8130255,1.65071677 Z M19.6220152,3.31369585 C19.5400925,3.80184048 19.1521336,4.12953137 18.6579883,4.12953137 C18.4103938,4.12953137 18.2115877,4.04995675 18.0842683,3.89915633 C17.9579925,3.7493995 17.9105086,3.53624389 17.9501655,3.29882453 C18.0276529,2.81485431 18.4210907,2.4764665 18.9076699,2.4764665 C19.1503073,2.4764665 19.347548,2.55708472 19.4774764,2.70918965 C19.6081875,2.86285998 19.6598458,3.0773201 19.6220152,3.31369585 L19.6220152,3.31369585 Z M21.8203619,0.125753988 L21.0880145,4.78491315 C21.0812217,4.82780687 21.093552,4.8715241 21.1217568,4.90454684 C21.1499616,4.93756957 21.1912123,4.95658561 21.2346405,4.95658561 L21.9709014,4.95658561 C22.0932637,4.95658561 22.197102,4.86787948 22.2158869,4.74708259 L22.9380592,0.171933357 C22.9448437,0.129015031 22.9325185,0.0852762074 22.9043235,0.0522148189 C22.8761285,0.0191534304 22.8348843,7.68965411e-05 22.7914331,0 L21.9669879,0 C21.893876,0.000258881802 21.8317572,0.053535159 21.8203619,0.125753988 L21.8203619,0.125753988 Z" id="Shape" fill="#179BD7"></path>
        </g>
        <rect id="Rectangle" stroke="#E6E9F2" stroke-width="0.5" x="0.25" y="0.25" width="47.5" height="29.5" rx="2"></rect>
    </g>
</svg>