<?xml version="1.0" encoding="UTF-8"?>
<svg width="206px" height="30px" viewBox="0 0 206 30" version="1.1" xmlns="http://www.w3.org/2000/svg" xmlns:xlink="http://www.w3.org/1999/xlink">
    <title>ic-samsungpay-large</title>
    <defs>
        <polygon id="path-1" points="0.6279 0.4246 17.96 0.4246 17.96 24.9996 0.6279 24.9996"></polygon>
        <polygon id="path-3" points="0.0008 0.22 14.1891584 0.22 14.1891584 21.2379 0.0008 21.2379"></polygon>
    </defs>
    <g id="Pagine-Foglia" stroke="none" stroke-width="1" fill="none" fill-rule="evenodd">
        <g id="ic-samsungpay-large">
            <path d="M154.2495,1.0366 L161.4355,1.0366 C165.7755,1.0366 168.9945,4.3706 168.9945,8.5096 C168.9945,12.6776 165.7755,16.0116 161.4065,16.0116 L158.1585,16.0116 L158.1585,22.0196 L154.2495,22.0196 L154.2495,1.0366 Z M158.1585,4.6576 L158.1585,12.3906 L161.1475,12.3906 C163.4765,12.3906 165.0575,10.6656 165.0575,8.5096 C165.0575,6.3826 163.4765,4.6576 161.1475,4.6576 L158.1585,4.6576 Z" id="Fill-1" fill="#000000"></path>
            <path d="M169.7427,13.6259 C169.7427,8.0499 173.8247,4.8589 178.0787,4.8589 C180.2927,4.8589 182.2747,5.7789 183.4817,7.2159 L183.4817,5.2039 L187.3627,5.2039 L187.3627,22.0189 L183.4817,22.0189 L183.4817,19.8339 C182.2467,21.3869 180.2347,22.3639 178.0207,22.3639 C173.9687,22.3639 169.7427,19.1159 169.7427,13.6259 M183.6837,13.5689 C183.6837,10.7229 181.5277,8.3939 178.6537,8.3939 C175.7797,8.3939 173.5657,10.6649 173.5657,13.5689 C173.5657,16.4999 175.7797,18.7999 178.6537,18.7999 C181.5277,18.7999 183.6837,16.4719 183.6837,13.5689" id="Fill-3" fill="#000000"></path>
            <g id="Group-7" transform="translate(188.000000, 4.779900)">
                <mask id="mask-2" fill="white">
                    <use xlink:href="#path-1"></use>
                </mask>
                <g id="Clip-6"></g>
                <polygon id="Fill-5" fill="#000000" mask="url(#mask-2)" points="7.5269 16.4056 0.6279 0.4246 4.7669 0.4246 9.4529 11.7496 13.8789 0.4246 17.9609 0.4246 7.9289 24.9996 3.9919 24.9996"></polygon>
            </g>
            <polygon id="Fill-8" fill="#000000" points="113.3911 1.6254 113.6581 17.0304 113.5501 17.0304 109.0391 1.6254 101.7561 1.6254 101.7561 21.0474 106.5811 21.0474 106.3111 5.1114 106.4181 5.1114 111.2631 21.0474 118.2511 21.0474 118.2511 1.6254"></polygon>
            <polygon id="Fill-10" fill="#000000" points="21.0103 1.6254 17.3723 21.2494 22.6773 21.2494 25.3613 3.4434 25.4703 3.4424 28.0863 21.2494 33.3593 21.2494 29.7403 1.6254"></polygon>
            <polygon id="Fill-12" fill="#000000" points="50.6626 1.6254 48.2416 16.6304 48.1316 16.6304 45.7146 1.6254 37.7096 1.6254 37.2766 21.2494 42.1876 21.2494 42.3106 3.6084 42.4206 3.6084 45.6976 21.2494 50.6786 21.2494 53.9566 3.6104 54.0646 3.6084 54.1876 21.2494 59.0976 21.2494 58.6636 1.6254"></polygon>
            <g id="Group-16" transform="translate(0.000000, 0.779900)">
                <mask id="mask-4" fill="white">
                    <use xlink:href="#path-3"></use>
                </mask>
                <g id="Clip-15"></g>
                <path d="M9.1128,14.9339 C9.3048,15.4089 9.2438,16.0169 9.1518,16.3859 C8.9918,17.0389 8.5478,17.7059 7.2398,17.7059 C6.0128,17.7059 5.2678,16.9959 5.2678,15.9269 L5.2638,14.0249 L0.0008,14.0249 L0.0008,15.5379 C0.0008,19.9149 3.4438,21.2379 7.1328,21.2379 C10.6818,21.2379 13.6018,20.0269 14.0688,16.7509 C14.3068,15.0569 14.1328,13.9469 14.0478,13.5339 C13.2188,9.4239 5.7738,8.1989 5.2188,5.9009 C5.1248,5.5019 5.1478,5.0889 5.1968,4.8699 C5.3368,4.2389 5.7628,3.5519 6.9898,3.5519 C8.1388,3.5519 8.8128,4.2609 8.8128,5.3289 L8.8128,6.5459 L13.7108,6.5459 L13.7108,5.1629 C13.7108,0.8889 9.8698,0.2199 7.0928,0.2199 C3.6058,0.2199 0.7528,1.3769 0.2318,4.5769 C0.0908,5.4519 0.0708,6.2349 0.2778,7.2239 C1.1288,11.2349 8.1018,12.3939 9.1128,14.9339" id="Fill-14" fill="#000000" mask="url(#mask-4)"></path>
            </g>
            <path d="M72.9165,15.6762 C73.1035,16.1482 73.0465,16.7462 72.9545,17.1132 C72.7955,17.7592 72.3565,18.4182 71.0625,18.4182 C69.8465,18.4182 69.1075,17.7172 69.1075,16.6562 L69.1035,14.7762 L63.8945,14.7762 L63.8925,16.2742 C63.8925,20.6082 67.3045,21.9152 70.9545,21.9152 C74.4705,21.9152 77.3605,20.7182 77.8225,17.4732 C78.0585,15.7972 77.8855,14.7002 77.8015,14.2882 C76.9785,10.2182 69.6085,9.0062 69.0615,6.7312 C68.9655,6.3382 68.9895,5.9302 69.0365,5.7122 C69.1755,5.0892 69.5985,4.4062 70.8115,4.4062 C71.9525,4.4062 72.6185,5.1062 72.6185,6.1672 L72.6185,7.3692 L77.4675,7.3692 L77.4675,6.0022 C77.4675,1.7702 73.6645,1.1102 70.9145,1.1102 C67.4635,1.1102 64.6385,2.2512 64.1245,5.4222 C63.9825,6.2882 63.9635,7.0632 64.1695,8.0402 C65.0105,12.0142 71.9165,13.1602 72.9165,15.6762" id="Fill-17" fill="#000000"></path>
            <path d="M89.3911,18.3124 C90.7561,18.3124 91.1751,17.3724 91.2731,16.8894 C91.3141,16.6784 91.3211,16.3924 91.3191,16.1404 L91.3191,1.6224 L96.2871,1.6224 L96.2871,15.6934 C96.2921,16.0544 96.2551,16.7924 96.2371,16.9844 C95.8941,20.6464 92.9981,21.8344 89.3911,21.8344 C85.7821,21.8344 82.8871,20.6464 82.5431,16.9844 C82.5261,16.7924 82.4881,16.0544 82.4981,15.6934 L82.4981,1.6224 L87.4621,1.6224 L87.4621,16.1404 C87.4561,16.3924 87.4661,16.6784 87.5081,16.8894 C87.6041,17.3724 88.0251,18.3124 89.3911,18.3124" id="Fill-19" fill="#000000"></path>
            <path d="M130.3228,18.1083 C131.7438,18.1083 132.2388,17.2083 132.3288,16.6843 C132.3688,16.4623 132.3798,16.1883 132.3758,15.9393 L132.3758,13.0893 L130.3638,13.0893 L130.3638,10.2283 L137.3148,10.2283 L137.3148,15.4893 C137.3118,15.8583 137.3028,16.1283 137.2438,16.7803 C136.9198,20.3553 133.8208,21.6313 130.3428,21.6313 C126.8628,21.6313 123.7668,20.3553 123.4388,16.7803 C123.3838,16.1283 123.3728,15.8583 123.3718,15.4893 L123.3728,7.2323 C123.3728,6.8843 123.4148,6.2693 123.4558,5.9413 C123.8928,2.2723 126.8628,1.0913 130.3438,1.0913 C133.8238,1.0913 136.8708,2.2613 137.2318,5.9413 C137.2958,6.5663 137.2738,7.2323 137.2778,7.2323 L137.2778,7.8873 L132.3288,7.8873 L132.3288,6.7873 C132.3308,6.7893 132.3258,6.3213 132.2668,6.0393 C132.1778,5.6073 131.8048,4.6153 130.3048,4.6153 C128.8778,4.6153 128.4588,5.5553 128.3488,6.0393 C128.2938,6.2983 128.2708,6.6483 128.2708,6.9683 L128.2708,15.9393 C128.2688,16.1883 128.2778,16.4623 128.3158,16.6843 C128.4078,17.2083 128.9038,18.1083 130.3228,18.1083" id="Fill-21" fill="#000000"></path>
        </g>
    </g>
</svg>