<?xml version="1.0" encoding="UTF-8"?>
<svg width="48px" height="30px" viewBox="0 0 48 30" version="1.1" xmlns="http://www.w3.org/2000/svg" xmlns:xlink="http://www.w3.org/1999/xlink">
    <title>4C03176F-0DC3-4421-8C69-F8076494B94C</title>
    <defs>
        <path d="M3,0 L45,0 C46.6568542,-3.04359188e-16 48,1.34314575 48,3 L48,27 C48,28.6568542 46.6568542,30 45,30 L3,30 C1.34314575,30 2.02906125e-16,28.6568542 0,27 L0,3 C-2.02906125e-16,1.34314575 1.34314575,3.04359188e-16 3,0 Z" id="path-1"></path>
    </defs>
    <g id="Pagine-Foglia" stroke="none" stroke-width="1" fill="none" fill-rule="evenodd">
        <g id="Pagina-Metodi-di-pagamento-MVP" transform="translate(-257.000000, -7498.000000)">
            <g id="Group-10" transform="translate(0.000000, 927.000000)">
                <g id="Group-6" transform="translate(256.000000, 6571.000000)">
                    <g id="ic-satispay" transform="translate(1.000000, 0.000000)">
                        <mask id="mask-2" fill="white">
                            <use xlink:href="#path-1"></use>
                        </mask>
                        <use id="Mask" fill="#EF373F" xlink:href="#path-1"></use>
                        <path d="M29.9069329,7.40624467 C30.1057371,7.62531991 29.9649949,8 29.6835104,8 L25,8 L27.7233385,5 L29.9069329,7.40624467 Z" id="path142" fill="#FFFFFF" fill-rule="nonzero" mask="url(#mask-2)" transform="translate(27.500000, 6.500000) scale(-1, 1) rotate(-180.000000) translate(-27.500000, -6.500000) "></path>
                        <path d="M23,18.5788475 L19.8540682,22 L17.0231222,18.9209153 L14.0870356,15.7279661 C13.9709881,15.6022408 13.9709881,15.3977592 14.0870356,15.2720339 L17.0231222,12.0786103 L19.8540682,9 L23,12.4211525 L20.3784629,15.2720339 L20.1686178,15.4997628 L20.3784629,15.7279661 L23,18.5788475 Z" id="path146" fill="#FFFFFF" fill-rule="nonzero" mask="url(#mask-2)" transform="translate(18.500000, 15.500000) scale(-1, 1) rotate(-180.000000) translate(-18.500000, -15.500000) "></path>
                        <path d="M27.7239262,25 L25,22 L29.6821855,22 C29.9644698,22 30.1063117,22.3761562 29.9066132,22.5960946 L27.7239262,25 Z" id="path150" fill="#FFFFFF" fill-rule="nonzero" mask="url(#mask-2)" transform="translate(27.500000, 23.500000) scale(-1, 1) rotate(-180.000000) translate(-27.500000, -23.500000) "></path>
                        <path d="M33.9085934,15.2156154 L30.8250528,18.31293 L27.3525187,21.8009757 L24.2588981,24.9084152 C24.2030004,24.9645627 24.1274009,24.9953977 24.0485942,24.9981591 C24.045387,24.9981591 24.0421797,25 24.0385143,25 L18.3117425,25 C18.0345446,25 17.8957165,24.6631153 18.0918169,24.4661389 L20.745128,21.8009757 L24.0485942,18.4822928 L27.3012027,15.2156154 L27.5211283,14.9942472 L27.3012027,14.7733392 L24.0485942,11.5066618 L20.745128,8.18797892 L18.1028131,5.53386106 C17.9067128,5.33688474 18.0455408,5 18.3227388,5 L24.0476779,5 L24.0499688,5 C24.1324409,5 24.2117057,5.0331362 24.2698944,5.09158478 L27.3525187,8.18797892 L30.8250528,11.6755644 L33.9085934,14.7733392 C34.0304689,14.8952988 34.0304689,15.0931956 33.9085934,15.2156154" id="path154" fill="#FFFFFF" fill-rule="nonzero" mask="url(#mask-2)" transform="translate(26.000000, 15.000000) scale(-1, 1) rotate(-180.000000) translate(-26.000000, -15.000000) "></path>
                    </g>
                </g>
            </g>
        </g>
    </g>
</svg>