<?xml version="1.0" encoding="UTF-8"?>
<svg width="28px" height="30px" viewBox="0 0 28 30" version="1.1" xmlns="http://www.w3.org/2000/svg" xmlns:xlink="http://www.w3.org/1999/xlink">
    <title>ic-vpay-large</title>
    <g id="Page-1" stroke="none" stroke-width="1" fill="none" fill-rule="evenodd">
        <g id="ic-vpay-large" fill-rule="nonzero">
            <rect id="Rectangle" fill="#FFFFFF" x="0" y="0" width="27.7" height="30"></rect>
            <g id="Group" fill="#1C3378">
                <path d="M9.5,6.6 L12.1,16.4 L15.5,16.4 L20.7,4.1 L17.3,4.1 L14,12.5 L12.6,5.4 C12.4,4.6 11.8,4.1 11.1,4.1 L5.7,4.1 L5.6,4.5 C6.7,4.7 8,5.1 8.8,5.5 C9.2,5.8 9.4,6 9.5,6.6 Z" id="Path"></path>
                <path d="M8.7,22.3 C8.4,22.3 8.2,22.3 8.1,22.4 L8.1,24.3 C8.2,24.3 8.4,24.3 8.6,24.3 C9.4,24.3 9.8,23.9 9.8,23.2 C9.8,22.6 9.4,22.3 8.7,22.3 Z" id="Path"></path>
                <path d="M13.9,22.4 L13.9,22.4 C13.8,22.7 13.7,23.1 13.6,23.5 L13.2,24.9 L14.6,24.9 L14.2,23.5 C14.1,23.1 14,22.7 13.9,22.4 Z" id="Path"></path>
                <path d="M0,0 L0,30 L28,30 L28,0 L0,0 Z M10.4,24.5 C10,24.9 9.4,25.1 8.6,25.1 C8.4,25.1 8.2,25.1 8.1,25.1 L8.1,27.3 L7.1,27.3 L7.1,21.6 C7.5,21.5 8,21.5 8.7,21.5 C9.4,21.5 10,21.7 10.3,22 C10.6,22.3 10.8,22.7 10.8,23.3 C10.8,23.8 10.7,24.2 10.4,24.5 Z M15.3,27.3 L14.8,25.7 L13,25.7 L12.5,27.3 L11.5,27.3 L13.3,21.6 L14.6,21.6 L16.4,27.3 L15.3,27.3 Z M19.6,24.9 L19.6,27.3 L18.6,27.3 L18.6,24.9 L16.8,21.6 L18,21.6 L18.7,23.1 C18.9,23.5 19,23.8 19.2,24.2 L19.2,24.2 C19.3,23.8 19.5,23.5 19.7,23.1 L20.4,21.6 L21.5,21.6 L19.6,24.9 Z M27.3,19.5 L0.7,19.5 L0.7,0.7 L27.3,0.7 L27.3,19.5 Z" id="Shape"></path>
            </g>
        </g>
    </g>
</svg>