<?xml version="1.0" encoding="UTF-8"?>
<svg width="50px" height="32px" viewBox="0 0 50 32" version="1.1" xmlns="http://www.w3.org/2000/svg" xmlns:xlink="http://www.w3.org/1999/xlink">
    <title>25B608E6-E860-421C-8DB3-8484BDB27EE5</title>
    <g id="Pagine-Foglia" stroke="none" stroke-width="1" fill="none" fill-rule="evenodd">
        <g id="Pagina-Metodi-di-pagamento-MVP" transform="translate(-377.000000, -2599.000000)" fill-rule="nonzero">
            <g id="Group-10" transform="translate(0.000000, 927.000000)">
                <g id="visa" transform="translate(378.000000, 1673.000000)">
                    <rect id="Container" stroke="#5C6F82" stroke-width="0.9375" fill="#FFFFFF" x="0" y="0" width="48" height="30" rx="3.75"></rect>
                    <path d="M6.35199866,10.71457 C5.37110792,10.1765737 4.25163544,9.74388332 3,9.4436121 L3.05250094,9.20977894 L8.18433604,9.20977894 C8.87992976,9.23416042 9.44435837,9.44344847 9.62802443,10.1825838 L10.7433131,15.4998572 L11.0849688,17.1013616 L14.208687,9.20977894 L17.5814793,9.20977894 L12.5679021,20.7703657 L9.19493535,20.7703657 L6.35199866,10.71457 L6.35199866,10.71457 Z M20.0624535,20.7826384 L16.8728039,20.7826384 L18.8678393,9.20977894 L22.0573144,9.20977894 L20.0624535,20.7826384 Z M31.6252164,9.49270234 L31.1914298,11.9917226 L30.9029362,11.8688334 C30.3257749,11.6348366 29.5639009,11.4010034 28.526964,11.4257122 C27.2676394,11.4257122 26.7028618,11.9301962 26.6897801,12.4227349 C26.6897801,12.9645274 27.37299,13.3215771 28.4885912,13.8510971 C30.3262982,14.6759767 31.178697,15.6854355 31.1659643,17.0028538 C31.1401498,19.4036936 28.961274,20.9551087 25.6144704,20.9551087 C24.1835149,20.9426724 22.8052346,20.6589309 22.05714,20.3391898 L22.5034851,17.7413346 L22.9234926,17.9262412 C23.9604296,18.3575807 24.6427673,18.5418328 25.91622,18.5418328 C26.8345502,18.5418328 27.8191607,18.1844558 27.8317191,17.4091573 C27.8317191,16.9043461 27.4122349,16.5346966 26.1782014,15.9683589 C24.9708544,15.4141302 23.3565816,14.4909065 23.3827449,12.8287111 C23.3963498,10.5757966 25.6144704,9 28.7643519,9 C29.9982109,9 30.9960774,9.25854191 31.6252164,9.49270234 Z M35.8645358,16.6827855 L38.5157456,16.6827855 C38.3845804,16.1041753 37.7805581,13.3340133 37.7805581,13.3340133 L37.5576473,12.3368269 C37.4001444,12.7676756 37.1247326,13.4695023 37.1379887,13.4447936 C37.1379887,13.4447936 36.1272148,16.0179401 35.8645358,16.6827855 Z M39.8017567,9.20977894 L42.375,20.7824747 L39.4216918,20.7824747 C39.4216918,20.7824747 39.1326752,19.4527839 39.0411037,19.0464802 L34.9458568,19.0464802 C34.8274245,19.3541124 34.2764263,20.7824747 34.2764263,20.7824747 L30.9296227,20.7824747 L35.6674393,10.1699839 C35.995701,9.41890335 36.5737344,9.20977894 37.3345618,9.20977894 L39.8017567,9.20977894 L39.8017567,9.20977894 Z" id="Shape" fill="#171E6C"></path>
                </g>
            </g>
        </g>
    </g>
</svg>