<?xml version="1.0" encoding="UTF-8"?>
<svg width="63px" height="66px" viewBox="0 0 63 66" version="1.1" xmlns="http://www.w3.org/2000/svg" xmlns:xlink="http://www.w3.org/1999/xlink">
    <title>pictograms/deco/question</title>
    <defs>
        <path d="M57.4272441,0.246398279 C59.6853691,0.246398279 61.5223691,2.08277328 61.5223691,4.34014828 L61.5223691,4.34014828 L61.5223691,20.7926483 C61.5223691,23.0500233 59.6859941,24.8863983 57.4286191,24.8863983 L57.4286191,24.8863983 L50.8211191,24.8863983 C50.6461191,24.8863983 50.4838691,24.9658983 50.3761191,25.1045233 L50.3761191,25.1045233 L47.2742441,29.1011483 C46.9774941,29.4845233 46.5397441,29.6942733 46.0802441,29.6942733 C45.9134941,29.6942733 45.7438691,29.6666483 45.5771191,29.6096483 C44.9507441,29.3955233 44.5461191,28.8295233 44.5461191,28.1676483 L44.5461191,28.1676483 L44.5461191,25.5051483 C44.5461191,25.1638983 44.2684941,24.8863983 43.9273691,24.8863983 L43.9273691,24.8863983 L40.9749941,24.8863983 C40.6213691,24.8863983 40.2708691,24.8398983 39.9323691,24.7506483 L39.9323691,24.7506483 L39.9323691,27.1627733 C40.7514941,27.8505233 41.2736191,28.8816483 41.2736191,30.0326483 L41.2736191,30.0326483 L41.2736191,30.9126483 C41.2736191,32.9776483 39.5936191,34.6576483 37.5286191,34.6576483 L37.5286191,34.6576483 L35.7639941,34.6576483 C34.1201191,38.7337733 30.9403691,41.2216483 28.7227441,42.5362733 C28.8277441,42.8550233 28.8816191,43.1921483 28.8784941,43.5381483 C28.8686191,44.7958983 28.0861191,45.8793983 26.9774941,46.3552733 C26.9891191,47.1073983 27.4518691,47.7516483 28.1286191,48.0127733 C28.5137441,48.1607733 28.7344941,48.1245233 31.1399941,48.5278983 C32.4178691,48.7276483 33.6157441,49.1827733 34.6998691,49.8807733 C35.1352441,50.1610233 35.2609941,50.7412733 34.9807441,51.1765233 C34.8016191,51.4548983 34.4997441,51.6066483 34.1916191,51.6066483 C34.0177441,51.6066483 33.8419941,51.5583983 33.6849941,51.4572733 C32.8219941,50.9017733 31.8683691,50.5393983 30.8501191,50.3802733 C28.0728691,49.9431483 28.2116191,49.9711483 28.0286191,49.9331483 L28.0286191,49.9331483 C26.1882441,51.7021483 23.6791191,52.7065233 21.0498691,52.7065233 C20.4297441,52.7065233 19.8129941,52.6503983 19.2109941,52.5411483 C18.5146191,52.9087733 17.7222441,53.1180233 16.8816191,53.1180233 L16.8816191,53.1180233 L12.7394941,53.1180233 C12.7082441,53.1180233 12.6809941,53.1391483 12.6731191,53.1693983 L12.6731191,53.1693983 L10.2809941,62.3713983 L30.8082441,62.3713983 L30.8082441,58.5410233 C30.8082441,58.0232733 31.2278691,57.6035233 31.7457441,57.6035233 C32.2636191,57.6035233 32.6832441,58.0232733 32.6832441,58.5410233 L32.6832441,58.5410233 L32.6832441,62.3716483 L37.0073691,62.3716483 C37.1529941,62.3716483 37.2463691,62.2948983 37.2888691,62.2491483 C37.3313691,62.2033983 37.4014941,62.1046483 37.3909941,61.9588983 L37.3909941,61.9588983 L37.0359941,57.0998983 C36.9649941,56.1196483 36.7053691,55.1830233 36.2641191,54.3152733 C36.0294941,53.8537733 36.2133691,53.2892733 36.6748691,53.0546483 C37.1361191,52.8198983 37.7006191,53.0038983 37.9354941,53.4653983 C38.4904941,54.5568983 38.8169941,55.7338983 38.9061191,56.9637733 L38.9061191,56.9637733 L39.2611191,61.8232733 C39.3059941,62.4482733 39.0872441,63.0686483 38.6612441,63.5263983 C38.2353691,63.9840233 37.6326191,64.2465233 37.0073691,64.2465233 L37.0073691,64.2465233 L2.13261909,64.2465233 C1.55986909,64.2465233 1.03024409,63.9865233 0.679869095,63.5333983 C0.329369095,63.0802733 0.211119095,62.5022733 0.355244095,61.9478983 L0.355244095,61.9478983 L4.67936909,45.3128983 C4.70861909,45.2006483 4.75849409,45.0945233 4.82636909,45.0003983 C5.03586909,44.7100233 8.45011909,39.9818983 9.11461909,39.0616483 C7.90736909,37.7165233 6.97649409,36.2401483 6.33674409,34.6577733 L6.33674409,34.6577733 L3.82361909,34.6577733 C1.75786909,34.6577733 0.0773690946,32.9777733 0.0773690946,30.9127733 L0.0773690946,30.9127733 L0.0773690946,30.0327733 C0.0773690946,28.9565233 0.534119095,27.9856483 1.26324409,27.3016483 L1.26324409,27.3016483 L1.02649409,19.1210233 C0.921744095,15.4702733 3.22486909,12.2596483 6.67174409,11.1788983 C9.21161909,7.00027328 13.7762441,4.42014828 18.6773691,4.42014828 L18.6773691,4.42014828 L22.8686191,4.42014828 C28.6657441,4.42014828 33.7959941,7.32677328 36.8811191,11.7583983 L36.8811191,11.7583983 L36.8811191,4.34014828 C36.8811191,2.08277328 38.7174941,0.246398279 40.9748691,0.246398279 L40.9748691,0.246398279 Z M14.5810998,35.4974322 L14.4388691,35.5121483 C14.1108691,35.5647733 13.8229941,35.7423983 13.6283691,36.0121483 C12.8914475,37.0340625 7.24925342,44.847502 6.5146283,45.8650631 L6.44986909,45.9547733 L2.18261909,62.3713983 L8.34361909,62.3713983 L10.8584941,52.6976483 C11.0811191,51.8411483 11.8546191,51.2430233 12.7394941,51.2430233 L12.7394941,51.2430233 L16.8816191,51.2430233 C18.6083691,51.2430233 20.0131191,49.8381483 20.0131191,48.1115233 L20.0131191,48.1115233 L20.0131191,46.4011483 C20.0131191,45.4842733 20.7589941,44.7383983 21.6758691,44.7383983 L21.6758691,44.7383983 L25.7204941,44.7383983 C26.4226191,44.7383983 26.9982441,44.1928983 27.0035459,43.5222733 C27.0064941,43.1893983 26.8789941,42.8776483 26.6447441,42.6432733 C26.4124941,42.4111483 26.1039941,42.2832733 25.7758691,42.2832733 L25.7758691,42.2832733 L15.1901191,42.2832733 C14.6227441,42.2832733 14.1078691,41.9706483 13.8463691,41.4675233 C13.5851191,40.9646483 13.6249941,40.3641483 13.9506191,39.9003983 L13.9506191,39.9003983 L15.6981191,37.4036483 C15.8452441,37.1942733 15.9179941,36.9502733 15.9094941,36.6966483 C15.8997441,36.3222733 15.7236191,35.9880233 15.4257441,35.7718983 L15.4257441,35.7718983 L15.3799941,35.7385233 C15.1056191,35.5393983 14.7707441,35.4587733 14.4388691,35.5121483 Z M25.1127441,46.6135233 L21.8881191,46.6135233 L21.8881191,48.1116483 C21.8881191,49.1136483 21.5911191,50.0470233 21.0821191,50.8306483 C22.9937441,50.8232733 24.8204941,50.1676483 26.2458691,49.0035233 C25.6001191,48.3916483 25.1838691,47.5500233 25.1127441,46.6135233 L25.1127441,46.6135233 Z M22.8686191,6.29514828 L18.6773691,6.29514828 C14.3188691,6.29514828 10.2673691,8.65014828 8.10411909,12.4413983 C7.97911909,12.6603983 7.77111909,12.8197733 7.52724409,12.8836483 C4.71974409,13.6185233 2.81724409,16.1612733 2.90074409,19.0672733 L2.90074409,19.0672733 L3.11161909,26.3553983 C3.34236909,26.3107733 3.58011909,26.2866483 3.82361909,26.2866483 L3.82361909,26.2866483 L5.47899409,26.2866483 C5.59249409,25.2030233 5.76711909,24.1531483 6.00224409,23.1573983 C6.12124409,22.6533983 6.62624409,22.3413983 7.13011909,22.4603983 C7.63411909,22.5793983 7.94611909,23.0843983 7.82711909,23.5882733 C7.55249409,24.7512733 7.36536909,25.9975233 7.27099409,27.2922733 C7.10636909,29.4971483 7.14661909,31.3488983 7.86836909,33.4106483 C8.38049409,34.8753983 9.17699409,36.2472733 10.2409941,37.5017733 C11.0633691,36.3626483 11.7548691,35.4047733 12.1076191,34.9155233 C12.5959941,34.2386483 13.3183691,33.7931483 14.1419941,33.6610233 C14.9696191,33.5285233 15.8007441,33.7275233 16.4822441,34.2218983 L16.4822441,34.2218983 L16.5278691,34.2551483 C17.3008691,34.8160233 17.7589941,35.6860233 17.7834941,36.6412733 C17.8056191,37.2978983 17.6153691,37.9363983 17.2331191,38.4803983 L17.2331191,38.4803983 L15.8837441,40.4083983 L25.7758691,40.4083983 C26.4471191,40.4083983 27.0858691,40.6202733 27.6159941,41.0122733 C29.6971191,39.8071483 32.8317441,37.4151483 34.2323691,33.4107733 C34.6793691,32.1335233 34.9059941,30.7842733 34.9059941,29.4002733 C34.9059941,28.6786483 34.8803691,27.9698983 34.8298691,27.2937733 C34.7377441,26.0257733 34.5573691,24.8070233 34.2939941,23.6691483 C34.0434941,22.5912733 33.0881191,21.7941483 31.9708691,21.7312733 C28.1027441,21.5142733 24.1599941,20.5126483 20.5692441,18.8345233 C20.4563691,18.7818983 20.3178691,18.8072733 20.2612441,18.8913983 C19.6924941,19.7361483 18.6581191,20.2720233 17.6147441,20.2613983 C16.1416191,20.2443983 14.9284941,19.3472733 14.1442441,18.6740233 C13.4766191,18.0998983 12.8107441,17.4352733 12.1079941,16.6417733 C11.9583691,16.4723983 11.7758691,16.4487733 11.6791191,16.4472733 C11.5848691,16.4472733 11.4059941,16.4717733 11.2612441,16.6348983 C10.4683691,17.5295233 9.77824409,18.5612733 9.21011909,19.7010233 C8.97899409,20.1643983 8.41624409,20.3527733 7.95274409,20.1217733 C7.48936909,19.8906483 7.30099409,19.3277733 7.53199409,18.8643983 C8.17336909,17.5776483 8.95599409,16.4088983 9.85811909,15.3908983 C10.3198691,14.8703983 10.9833691,14.5721483 11.6789941,14.5721483 L11.6789941,14.5721483 C12.3811191,14.5727733 13.0484941,14.8742733 13.5123691,15.3993983 C14.1574941,16.1278983 14.7641191,16.7340233 15.3661191,17.2517733 C16.2588691,18.0181483 16.9806191,18.3787733 17.6369941,18.3863983 C18.0396191,18.3955233 18.4911191,18.1632733 18.7059941,17.8440233 C19.2751191,16.9990233 20.4169941,16.6945233 21.3624941,17.1355233 C24.7393691,18.7137733 28.4438691,19.6555233 32.0761191,19.8591483 C34.0194941,19.9685233 35.6824941,21.3610233 36.1204941,23.2453983 C36.3446191,24.2136483 36.5121191,25.2333983 36.6219941,26.2863983 L36.6219941,26.2863983 L37.5286191,26.2863983 C37.7081191,26.2863983 37.8844941,26.2998983 38.0573691,26.3243983 L38.0573691,26.3243983 L38.0573691,21.4838983 C38.0573691,13.1087733 31.2437441,6.29514828 22.8686191,6.29514828 L22.8686191,6.29514828 Z M20.7562441,33.3216483 C22.5998691,32.2461483 24.5488691,32.2461483 26.3924941,33.3216483 C26.8397441,33.5825233 26.9908691,34.1565233 26.7299941,34.6037733 C26.5557441,34.9023983 26.2418691,35.0690233 25.9193691,35.0690233 C25.7588691,35.0691359 25.5963691,35.0278983 25.4478691,34.9412733 C24.1696191,34.1956483 22.9792441,34.1956483 21.7009941,34.9412733 C21.2538691,35.2021483 20.6796191,35.0511483 20.4187441,34.6037733 C20.1578691,34.1566483 20.3089941,33.5825233 20.7562441,33.3216483 Z M5.34486909,28.1613983 L3.82361909,28.1613983 C2.79174409,28.1613983 1.95236909,29.0008983 1.95236909,30.0326483 L1.95236909,30.0326483 L1.95236909,30.9126483 C1.95236909,31.9437733 2.79174409,32.7826483 3.82361909,32.7826483 L3.82361909,32.7826483 L5.72974409,32.7826483 C5.32261909,31.1338983 5.28036909,29.7915233 5.34486909,28.1613983 L5.34486909,28.1613983 Z M37.5286191,28.1613983 L36.7561191,28.1613983 C36.7721191,28.5683983 36.7809941,28.9821483 36.7809941,29.4001483 C36.7809941,30.5530233 36.6421191,31.6856483 36.3712441,32.7826483 L36.3712441,32.7826483 L37.5286191,32.7826483 C38.5597441,32.7826483 39.3986191,31.9437733 39.3986191,30.9126483 L39.3986191,30.9126483 L39.3986191,30.0326483 C39.3986191,29.0008983 38.5597441,28.1613983 37.5286191,28.1613983 L37.5286191,28.1613983 Z M16.3131191,27.4068983 C16.8308691,27.4068983 17.2506191,27.8266483 17.2506191,28.3443983 L17.2506191,28.3443983 L17.2506191,29.3911483 C17.2506191,29.9088983 16.8308691,30.3286483 16.3131191,30.3286483 C15.7953691,30.3286483 15.3756191,29.9088983 15.3756191,29.3911483 L15.3756191,29.3911483 L15.3756191,28.3443983 C15.3756191,27.8266483 15.7953691,27.4068983 16.3131191,27.4068983 Z M30.3227441,27.4068983 C30.8406191,27.4068983 31.2602441,27.8266483 31.2602441,28.3443983 L31.2602441,28.3443983 L31.2602441,29.3911483 C31.2602441,29.9088983 30.8406191,30.3286483 30.3227441,30.3286483 C29.8049941,30.3286483 29.3852441,29.9088983 29.3852441,29.3911483 L29.3852441,29.3911483 L29.3852441,28.3443983 C29.3852441,27.8266483 29.8049941,27.4068983 30.3227441,27.4068983 Z M57.4272441,2.12139828 L40.9748691,2.12139828 C39.7514941,2.12139828 38.7561191,3.11664828 38.7561191,4.34014828 L38.7561191,4.34014828 L38.7561191,15.2577733 C39.5149941,17.1876483 39.9322441,19.2878983 39.9322441,21.4838983 L39.9322441,21.4838983 L39.9322441,22.7508983 C40.2501191,22.9215233 40.6038691,23.0113983 40.9748691,23.0113983 L40.9748691,23.0113983 L43.9273691,23.0113983 C45.3024941,23.0113983 46.4211191,24.1301483 46.4211191,25.5051483 L46.4211191,25.5051483 L46.4211191,27.1423983 L48.8956191,23.9540233 C49.3618691,23.3546483 50.0633691,23.0113983 50.8211191,23.0113983 L50.8211191,23.0113983 L57.4286191,23.0113983 C58.6519941,23.0113983 59.6473691,22.0161483 59.6473691,20.7926483 L59.6473691,20.7926483 L59.6473691,4.34014828 C59.6473691,3.11664828 58.6513691,2.12139828 57.4272441,2.12139828 L57.4272441,2.12139828 Z M48.6066191,18.1568983 C49.1243691,18.1568983 49.5441191,18.5766483 49.5441191,19.0943983 L49.5441191,19.0943983 L49.5441191,19.3690233 C49.5441191,19.8867733 49.1244941,20.3065233 48.6066191,20.3065233 C48.0887441,20.3065233 47.6691191,19.8867733 47.6691191,19.3690233 L47.6691191,19.3690233 L47.6691191,19.0943983 C47.6691191,18.5766483 48.0887441,18.1568983 48.6066191,18.1568983 Z M49.2016191,4.82652328 C51.5986191,4.82652328 53.5488691,6.77664828 53.5488691,9.17377328 C53.5488691,11.4555233 51.7816191,13.3323983 49.5441191,13.5076483 L49.5441191,13.5076483 L49.5441191,15.7908983 C49.5441191,16.3086483 49.1244941,16.7283983 48.6066191,16.7283983 C48.0887441,16.7283983 47.6691191,16.3086483 47.6691191,15.7908983 L47.6691191,15.7908983 L47.6691191,12.5835233 C47.6691191,12.0657733 48.0887441,11.6460233 48.6066191,11.6460233 L48.6066191,11.6460233 L49.2016191,11.6460233 C50.5648691,11.6460233 51.6738691,10.5370233 51.6738691,9.17377328 C51.6738691,7.81052328 50.5648691,6.70152328 49.2016191,6.70152328 C47.8384941,6.70152328 46.7294941,7.81052328 46.7294941,9.17377328 C46.7294941,9.69152328 46.3098691,10.1112733 45.7919941,10.1112733 C45.2741191,10.1112733 44.8544941,9.69152328 44.8544941,9.17377328 C44.8544941,6.77664828 46.8044941,4.82652328 49.2016191,4.82652328 Z" id="path-1"></path>
    </defs>
    <g id="Pagine-Foglia" stroke="none" stroke-width="1" fill="none" fill-rule="evenodd">
        <g id="Pagina-Metodi-di-pagamento---Empty-State" transform="translate(-609.000000, -1290.000000)">
            <g id="Group-4" transform="translate(456.000000, 1290.000000)">
                <g id="pictograms/deco/question" transform="translate(153.000000, 0.000000)">
                    <g id="colors/@aqua" transform="translate(0.016798, 0.753602)">
                        <mask id="mask-2" fill="white">
                            <use xlink:href="#path-1"></use>
                        </mask>
                        <g id="Mask"></g>
                        <g id="Group" mask="url(#mask-2)">
                            <g transform="translate(-3.733333, -1.600000)" id="colors/@aqua">
                                <rect id="Rectangle-Copy-9" fill="#00C5CA" x="0" y="0" width="70.4" height="69.3333333"></rect>
                            </g>
                        </g>
                    </g>
                </g>
            </g>
        </g>
    </g>
</svg>