<svg xmlns="http://www.w3.org/2000/svg" xmlns:xlink="http://www.w3.org/1999/xlink" width="234" height="213" viewBox="0 0 234 213">
  <defs>
    <polygon id="cloud-a" points="0 .482 234 .482 234 212.517 0 212.517"/>
  </defs>
  <g fill="none" fill-rule="evenodd" opacity=".08">
    <polygon fill="#06C" points="66.55 196.336 74.064 196.336 74.064 188.785 66.55 188.785"/>
    <polygon fill="#06C" points="81.578 196.336 89.092 196.336 89.092 188.785 81.578 188.785"/>
    <polygon fill="#06C" points="66.55 148.87 74.064 148.87 74.064 141.319 66.55 141.319"/>
    <polygon fill="#06C" points="81.578 148.87 89.092 148.87 89.092 141.319 81.578 141.319"/>
    <mask id="cloud-b" fill="#fff">
      <use xlink:href="#cloud-a"/>
    </mask>
    <path fill="#06C" d="M54.6,98.6512225 C54.6,100.819588 52.853775,102.577643 50.7,102.577643 C48.546225,102.577643 46.8,100.819588 46.8,98.6512225 C46.8,96.4828567 48.546225,94.7248018 50.7,94.7248018 C52.853775,94.7248018 54.6,96.4823659 54.6,98.6512225 L54.6,98.6512225 Z M136.5,47.6077531 C136.5,45.4393873 138.246225,43.6813324 140.4,43.6813324 C142.553775,43.6813324 144.3,45.4393873 144.3,47.6077531 C144.3,49.776119 142.553775,51.5341738 140.4,51.5341738 C138.246225,51.5341738 136.5,49.776119 136.5,47.6077531 L136.5,47.6077531 Z M183.3,86.8719603 C183.3,84.7035945 185.046225,82.9455396 187.2,82.9455396 C189.353775,82.9455396 191.1,84.7035945 191.1,86.8719603 C191.1,89.0403262 189.353775,90.7983811 187.2,90.7983811 C185.046225,90.7983811 183.3,89.0403262 183.3,86.8719603 L183.3,86.8719603 Z M192.071588,140.926994 C189.186563,141.534608 186.247425,141.84185 183.3,141.84185 L183.3,130.062588 C183.3,127.894222 181.553775,126.136168 179.4,126.136168 L140.4,126.136168 L140.4,90.7983811 L176.2176,90.7983811 C178.371375,96.931941 185.056463,100.146207 191.148263,97.9773506 C197.24055,95.8089847 200.433188,89.0786088 198.278925,82.9455396 C196.12515,76.8119796 189.440063,73.5977135 183.348263,75.7665701 C180.0162,76.9523492 177.3954,79.5913947 176.2176,82.9455396 L136.5,82.9455396 C134.346225,82.9455396 132.6,84.7035945 132.6,86.8719603 L132.6,126.136168 L113.1,126.136168 L113.1,51.5341738 L129.4176,51.5341738 C131.571375,57.6677338 138.256463,60.882 144.348263,58.7131433 C150.44055,56.5447775 153.633188,49.8144016 151.478925,43.6813324 C149.32515,37.5477724 142.640063,34.3335062 136.548263,36.5023629 C133.2162,37.688142 130.5954,40.3271875 129.4176,43.6813324 L109.2,43.6813324 C107.046225,43.6813324 105.3,45.4393873 105.3,47.6077531 L105.3,126.136168 L85.8,126.136168 L85.8,98.6512225 C85.8,96.4828567 84.053775,94.7248018 81.9,94.7248018 L61.6824,94.7248018 C59.528625,88.5912418 52.8435375,85.3769757 46.7517375,87.5458323 C40.6599375,89.7146889 37.4668125,96.4445741 39.621075,102.577643 C41.7753375,108.710712 48.4599375,111.925469 54.5517375,109.756613 C57.8838,108.570834 60.5046,105.931788 61.6824,102.577643 L78,102.577643 L78,126.136168 L54.6,126.136168 C52.446225,126.136168 50.7,127.894222 50.7,130.062588 L50.7,141.84185 L42.9,141.84185 C23.5145625,141.84185 7.8,126.020829 7.8,106.504064 C7.8,86.987299 23.5145625,71.1662775 42.9,71.1662775 C45.2736375,71.1682407 47.6409375,71.4087339 49.9668,71.8848124 C51.12315,72.1125448 52.3199625,71.808738 53.2311,71.0563377 C54.138825,70.2975569 54.65655,69.1657661 54.639,67.9780238 C54.639,67.8994954 54.6039,67.3183851 54.6,67.2398567 C54.57855,34.7295839 80.7382875,8.35728835 113.0298,8.33567979 C140.073375,8.31753334 163.600125,26.9734306 169.9191,53.4463407 C170.4105,55.5101656 172.441425,56.8073569 174.5055,56.3754506 C197.69685,51.4919648 220.428975,66.4604622 225.2796,89.808923 C230.130225,113.157875 215.26245,136.043999 192.071588,140.926994 L192.071588,140.926994 Z M58.5,157.547533 L175.5,157.547533 L175.5,133.989009 L58.5,133.989009 L58.5,157.547533 Z M70.2,173.253216 L163.8,173.253216 L163.8,165.400375 L70.2,165.400375 L70.2,173.253216 Z M58.5,204.664582 L175.5,204.664582 L175.5,181.106058 L58.5,181.106058 L58.5,204.664582 Z M176.553,48.0632179 C166.043475,12.7656772 129.1017,-7.27133854 94.041675,3.30938371 C67.3062,11.3776875 48.4575,35.4456649 46.9014,63.5019042 C45.5715,63.3762587 44.2338,63.313436 42.9,63.313436 C19.2070125,63.313436 0,82.6505673 0,106.504064 C0,130.358051 19.2070125,149.694692 42.9,149.694692 L50.7,149.694692 L50.7,161.473954 C50.7,163.64232 52.446225,165.400375 54.6,165.400375 L62.4,165.400375 L62.4,173.253216 L54.6,173.253216 C52.446225,173.253216 50.7,175.011271 50.7,177.179637 L50.7,208.591003 C50.7,210.759369 52.446225,212.517423 54.6,212.517423 L179.4,212.517423 C181.553775,212.517423 183.3,210.759369 183.3,208.591003 L183.3,177.179637 C183.3,175.011271 181.553775,173.253216 179.4,173.253216 L171.6,173.253216 L171.6,165.400375 L179.4,165.400375 C181.553775,165.400375 183.3,163.64232 183.3,161.473954 L183.3,149.694692 C211.300538,149.694692 234,126.841942 234,98.6512225 C234,70.4605033 211.300538,47.6077531 183.3,47.6077531 C181.043363,47.6087347 178.78965,47.7608835 176.553,48.0632179 Z" mask="url(#cloud-b)"/>
  </g>
</svg>
