<?xml version="1.0" encoding="UTF-8"?>
<svg width="198px" height="148px" viewBox="0 0 198 148" version="1.1" xmlns="http://www.w3.org/2000/svg" xmlns:xlink="http://www.w3.org/1999/xlink">
    <!-- Generator: Sketch 59.1 (86144) - https://sketch.com -->
    <title>Group 14</title>
    <desc>Created with Sketch.</desc>
    <defs>
        <polygon id="path-1" points="0 148 198 148 198 0 0 0"></polygon>
    </defs>
    <g id="Home" stroke="none" stroke-width="1" fill="none" fill-rule="evenodd" opacity="0.08">
        <g id="Large-Devices_Pubbliche-Amministrazioni" transform="translate(-751.000000, -2237.000000)">
            <g id="Group-14" transform="translate(751.000000, 2237.000000)">
                <path d="M178.664062,0 L73.4765625,0 C71.3407148,0 69.609375,1.74367368 69.609375,3.89473684 C69.609375,6.0458 71.3407148,7.78947368 73.4765625,7.78947368 L178.664062,7.78947368 C185.061551,7.78947368 190.265625,13.0306211 190.265625,19.4736842 L190.265625,128.526316 C190.265625,134.969379 185.061551,140.210526 178.664062,140.210526 L19.3359375,140.210526 C12.9384492,140.210526 7.734375,134.969379 7.734375,128.526316 L7.734375,19.4736842 C7.734375,13.0306211 12.9384492,7.78947368 19.3359375,7.78947368 L42.5390625,7.78947368 C44.6749102,7.78947368 46.40625,6.0458 46.40625,3.89473684 C46.40625,1.74367368 44.6749102,0 42.5390625,0 L19.3359375,0 C8.67410156,0 0,8.73589474 0,19.4736842 L0,128.526316 C0,139.264105 8.67410156,148 19.3359375,148 L178.664062,148 C189.325898,148 198,139.264105 198,128.526316 L198,19.4736842 C198,8.73589474 189.325898,0 178.664062,0" id="Fill-1" fill="#0066CC"></path>
                <path d="M81.6493958,77.3019531 C79.0389688,72.4863281 75.0040417,68.65625 70.1817083,66.3078125 C72.3859063,63.6988281 73.721375,60.3160156 73.721375,56.6203125 L73.721375,55.1523438 C73.721375,46.9246094 67.1164896,40.2324219 59,40.2324219 C50.8838958,40.2324219 44.2790104,46.9246094 44.2790104,55.1523438 L44.2790104,56.6203125 C44.2790104,60.3160156 45.6144792,63.6988281 47.8186771,66.3078125 C42.9963438,68.6546875 38.9614167,72.4863281 36.3509896,77.3019531 C32.2031354,72.178125 29.7083333,65.6289063 29.7083333,58.5 C29.7083333,42.1304688 42.8487292,28.8125 59,28.8125 C75.1516563,28.8125 88.2916667,42.1304688 88.2916667,58.5 C88.2916667,65.6289063 85.79725,72.178125 81.6493958,77.3019531 M51.9873438,56.6203125 L51.9873438,55.1523438 C51.9873438,51.2324219 55.1338854,48.0449219 59,48.0449219 C62.8665,48.0449219 66.0130417,51.2324219 66.0130417,55.1523438 L66.0130417,56.6203125 C66.0130417,60.5386719 62.8665,63.7277344 59,63.7277344 C55.1338854,63.7277344 51.9873438,60.5386719 51.9873438,56.6203125 M42.2644375,82.8441406 C45.0409792,76.0796875 51.6034687,71.5402344 59,71.5402344 C66.3969167,71.5402344 72.9609479,76.0796875 75.7371042,82.8441406 C70.9887708,86.2070313 65.2194687,88.1875 59,88.1875 C52.7809167,88.1875 47.0116146,86.2070313 42.2644375,82.8441406 M59,21 C38.5987396,21 22,37.8230469 22,58.5 C22,79.1773438 38.5987396,96 59,96 C79.4016458,96 96,79.1773438 96,58.5 C96,37.8230469 79.4016458,21 59,21" id="Fill-3" fill="#0066CC"></path>
                <mask id="mask-2" fill="white">
                    <use xlink:href="#path-1"></use>
                </mask>
                <g id="Clip-6"></g>
                <path d="M120.682927,70.2 L168.317073,70.2 L168.317073,46.8 L120.682927,46.8 L120.682927,70.2 Z M116.841463,78 L172.158537,78 C174.280177,78 176,76.25397 176,74.1 L176,42.9 C176,40.74603 174.280177,39 172.158537,39 L116.841463,39 C114.719823,39 113,40.74603 113,42.9 L113,74.1 C113,76.25397 114.719823,78 116.841463,78 L116.841463,78 Z" id="Fill-5" fill="#0066CC" mask="url(#mask-2)"></path>
                <path d="M116.841463,94 L172.158537,94 C174.280177,94 176,92.2092 176,90 C176,87.7908 174.280177,86 172.158537,86 L116.841463,86 C114.719823,86 113,87.7908 113,90 C113,92.2092 114.719823,94 116.841463,94" id="Fill-7" fill="#0066CC" mask="url(#mask-2)"></path>
                <path d="M114.172,107.828 C114.9156,108.5716 115.9484,109 117,109 C118.0516,109 119.0844,108.5716 119.8284,107.828 C120.572,107.0844 121,106.0516 121,105 C121,103.9484 120.572,102.9156 119.8284,102.1716 C119.0844,101.428 118.0516,101 117,101 C115.9484,101 114.9156,101.428 114.172,102.1716 C113.4284,102.9156 113,103.9484 113,105 C113,106.0516 113.4284,107.0844 114.172,107.828" id="Fill-8" fill="#0066CC" mask="url(#mask-2)"></path>
                <path d="M130.172,102.172 C129.4284,102.9156 129,103.9484 129,105 C129,106.0516 129.4284,107.0844 130.172,107.8284 C130.9156,108.572 131.9484,109 133,109 C134.0516,109 135.0844,108.572 135.8284,107.8284 C136.572,107.0844 137,106.0516 137,105 C137,103.9484 136.572,102.9156 135.8284,102.172 C135.0844,101.4284 134.0516,101 133,101 C131.9484,101 130.9156,101.4284 130.172,102.172" id="Fill-9" fill="#0066CC" mask="url(#mask-2)"></path>
                <path d="M172.190476,101 L147.809524,101 C145.705524,101 144,102.7908 144,105 C144,107.2092 145.705524,109 147.809524,109 L172.190476,109 C174.294476,109 176,107.2092 176,105 C176,102.7908 174.294476,101 172.190476,101" id="Fill-10" fill="#0066CC" mask="url(#mask-2)"></path>
                <path d="M86,107 C86,104.792 84.2809622,103 82.1628621,103 L34.8371379,103 C32.7194215,103 31,104.792 31,107 C31,109.2092 32.7194215,111 34.8371379,111 L82.1628621,111 C84.2809622,111 86,109.2092 86,107" id="Fill-11" fill="#0066CC" mask="url(#mask-2)"></path>
                <path d="M39.8621829,118 C37.730258,118 36,119.792 36,122 C36,124.2092 37.730258,126 39.8621829,126 L75.1378171,126 C77.2693558,126 79,124.2092 79,122 C79,119.792 77.2693558,118 75.1378171,118 L39.8621829,118 Z" id="Fill-12" fill="#0066CC" mask="url(#mask-2)"></path>
                <path d="M57,8 C58.0516,8 59.0844,7.572 59.828,6.828 C60.572,6.0844 61,5.0516 61,4 C61,2.9484 60.572,1.9156 59.828,1.172 C59.0844,0.428 58.0516,0 57,0 C55.9484,0 54.9156,0.428 54.172,1.172 C53.428,1.9156 53,2.9484 53,4 C53,5.0516 53.428,6.0844 54.172,6.828 C54.9156,7.572 55.9484,8 57,8" id="Fill-13" fill="#0066CC" mask="url(#mask-2)"></path>
            </g>
        </g>
    </g>
</svg>