<svg xmlns="http://www.w3.org/2000/svg" xmlns:xlink="http://www.w3.org/1999/xlink" width="222" height="220" viewBox="0 0 222 220">
  <defs>
    <polygon id="collaboratori-a" points=".111 0 138.729 0 138.729 160.852 .111 160.852"/>
  </defs>
  <g fill="none" fill-rule="evenodd" opacity=".08">
    <g transform="translate(83.16 59.148)">
      <mask id="collaboratori-b" fill="#fff">
        <use xlink:href="#collaboratori-a"/>
      </mask>
      <path fill="#06C" d="M9.74211672,153.703461 L15.3243962,135.148236 C17.2699531,128.678393 22.6157561,123.906436 29.2800948,122.70183 L44.7943888,119.888699 L53.5261058,146.025437 L69.4201954,130.16181 L85.3178681,146.021862 L94.049585,119.885125 L109.563879,122.698256 C116.224635,123.906436 121.574021,128.678393 123.519578,135.144662 L129.098274,153.703461 L9.74211672,153.703461 Z M84.6478512,118.180089 L86.9266251,118.594731 L82.1827625,132.789067 L74.8699047,125.497089 L84.6478512,118.180089 Z M63.9669032,125.493514 L56.6540454,132.785492 L51.9101828,118.591156 L54.1925397,118.180089 L63.9669032,125.493514 Z M58.9758151,112.825489 C62.2833515,113.833498 65.7870559,114.383971 69.4201954,114.383971 C73.053335,114.383971 76.5574873,113.833498 79.8645758,112.825489 L69.4201954,120.639344 L58.9758151,112.825489 Z M40.7563728,78.63898 L40.7563728,60.6020576 C49.6027451,59.7834973 57.8113473,55.9552087 64.1747159,49.6104729 L65.5684943,48.2199927 C72.7523648,56.1303592 83.1000048,60.7664845 93.888351,60.7664845 L98.0840181,60.7664845 L98.0840181,78.63898 C98.0840181,94.4060954 85.2247106,107.234973 69.4201954,107.234973 C53.6156802,107.234973 40.7563728,94.4060954 40.7563728,78.63898 L40.7563728,78.63898 Z M33.5904171,53.6174863 L33.5904171,57.6995643 C32.314877,58.0319927 31.1186103,58.5324226 30.0074393,59.1794069 L30.0074393,44.0128073 C30.0074393,23.6882055 46.5822948,7.14899818 66.9586897,7.14899818 C76.8262106,7.14899818 86.1097062,10.9844357 93.089347,17.9475599 L96.2495334,21.1038426 L97.2133545,21.3397596 C104.056842,23.0447956 108.832952,29.1500401 108.832952,36.1846543 L108.832952,59.1794069 C107.722228,58.5324226 106.525514,58.0284182 105.249974,57.6995643 L105.249974,53.6174863 L93.888351,53.6174863 C84.1784811,53.6174863 74.8985685,48.9920845 69.0762296,41.246145 L66.2277622,37.450027 L59.1083852,44.5561311 C53.2466335,50.4004372 45.4572397,53.6174863 37.173395,53.6174863 L33.5904171,53.6174863 Z M33.5904171,77.6452692 C31.4585453,76.404918 30.0074393,74.1243876 30.0074393,71.4899818 C30.0074393,68.855576 31.4585453,66.5750455 33.5904171,65.3346944 L33.5904171,77.6452692 Z M105.249974,77.6452692 L105.249974,65.3346944 C107.381846,66.5750455 108.832952,68.855576 108.832952,71.4899818 C108.832952,74.1243876 107.381846,76.404918 105.249974,77.6452692 L105.249974,77.6452692 Z M130.384563,133.092899 C127.657917,124.035118 120.173076,117.357954 110.846585,115.667216 L87.3350846,111.399264 L87.3350846,109.547674 C96.1277122,104.454012 102.566323,95.7644051 104.572791,85.4912947 C111.086645,84.1472831 115.998907,78.381616 115.998907,71.4899818 L115.998907,36.1846543 C115.998907,26.2082273 109.449224,17.5078965 99.9471665,14.6768933 L98.1556776,12.8896437 C89.8216712,4.57535883 78.7431038,0 66.9586897,0 C42.6338532,0 22.8414837,19.7419585 22.8414837,44.0128073 L22.8414837,71.4899818 C22.8414837,78.381616 27.7537463,84.1472831 34.2676,85.4912947 C36.2776505,95.7644051 42.7126787,104.457587 51.5053063,109.547674 L51.5053063,111.399264 L27.9938058,115.663642 C18.6673145,117.357954 11.1824738,124.035118 8.45582768,133.092899 L0.111072313,160.852459 L138.729319,160.852459 L130.384563,133.092899 Z" mask="url(#collaboratori-b)"/>
    </g>
    <path fill="#06C" d="M77.4681543,69.6862346 L69.3158426,77.8856595 L62.1278208,73.6989458 L60.4111729,74.5831627 C58.8358128,75.3963581 57.2321952,76.0710618 55.6497707,76.5859672 L53.8165603,77.1789962 L51.683113,85.2257251 L40.1540205,85.2257251 L38.0205733,77.1789962 L36.1873628,76.5859672 C34.6049384,76.0675107 33.0013207,75.3963581 31.4259607,74.5831627 L29.7093127,73.6989458 L22.5212909,77.8856595 L14.3689792,69.6862346 L18.5299078,62.4633544 L17.6503906,60.7375334 C16.834453,59.1431021 16.1668677,57.5309155 15.6617635,55.9506885 L15.0718865,54.1041311 L7.06439489,51.9592837 L7.06439489,40.3685851 L15.0718865,38.2237377 L15.6617635,36.3771803 C16.1668677,34.8005044 16.834453,33.1883178 17.6503906,31.5903354 L18.5299078,29.8645145 L14.3689792,22.6416343 L22.5212909,14.4422093 L29.7093127,18.6289231 L31.4259607,17.7447062 C33.0013207,16.9315107 34.6049384,16.2568071 36.1873628,15.7419016 L38.0205733,15.1488726 L40.1540205,7.10214376 L51.683113,7.10214376 L53.8165603,15.1488726 L55.6497707,15.7419016 C57.2321952,16.2603581 58.8358128,16.9315107 60.4111729,17.7447062 L62.1278208,18.6289231 L69.3158426,14.4422093 L77.4681543,22.6416343 L73.3072258,29.8645145 L74.1867429,31.5903354 C75.0026805,33.1847667 75.6702658,34.7969533 76.1753701,36.3771803 L76.7652471,38.2237377 L84.7727387,40.3685851 L84.7727387,51.9592837 L76.7652471,54.1041311 L76.1753701,55.9506885 C75.6702658,57.5273644 75.0026805,59.1395511 74.1867429,60.7375334 L73.3072258,62.4633544 L77.4681543,69.6862346 Z M91.8371336,57.4172812 L91.8371336,34.9105876 L82.2507497,32.3431627 C81.9681739,31.6009887 81.6608727,30.8588146 81.325314,30.1166406 L86.3021802,21.4733317 L70.4779356,5.56452963 L61.880567,10.5679899 C61.14587,10.2306381 60.4076407,9.92169483 59.6729436,9.63760908 L57.1085683,0 L34.7285653,0 L32.1677221,9.64116015 C31.4294929,9.9252459 30.6947958,10.2341892 29.9600987,10.571541 L21.3627301,5.56452963 L5.53848559,21.4733317 L10.5153518,30.1166406 C10.1762608,30.8588146 9.86895966,31.6009887 9.58638386,32.3431627 L0,34.9105876 L0,57.4172812 L9.58638386,59.9847062 C9.86895966,60.7268802 10.1762608,61.4690542 10.5153518,62.2112282 L5.53848559,70.8545372 L21.3627301,86.7633392 L29.9600987,81.7598789 C30.6947958,82.0972308 31.4330251,82.406174 32.1677221,82.6902598 L34.7285653,92.3278689 L57.1085683,92.3278689 L59.6694114,82.6867087 C60.4076407,82.402623 61.1423378,82.0936797 61.8770348,81.7563279 L70.4744034,86.7597881 L86.298648,70.8509861 L81.3217818,62.2076772 C81.6573405,61.4655032 81.9681739,60.7233291 82.2472175,59.9811551 L91.8371336,57.4172812 Z"/>
    <path fill="#06C" d="M66.0124076 60.7981077C69.1875551 56.5448431 70.8664495 51.4857705 70.8664495 46.1639344 70.8664495 32.6438782 59.8377292 21.6393443 46.2801303 21.6393443 32.7225314 21.6393443 21.6938111 32.6438782 21.6938111 46.1639344 21.6938111 59.6839906 32.7225314 70.6885246 46.2801303 70.6885246 51.7593671 70.6885246 56.9400558 68.9332646 61.267248 65.6084309L56.9822038 60.0588665C53.8913523 62.4307447 50.1928674 63.6814988 46.2801303 63.6814988 36.5966329 63.6814988 28.7184737 55.8231194 28.7184737 46.1639344 28.7184737 36.5047494 36.5966329 28.64637 46.2801303 28.64637 55.9636277 28.64637 63.8417869 36.5047494 63.8417869 46.1639344 63.8417869 49.9652459 62.6440819 53.5773677 60.3786282 56.6114098L66.0124076 60.7981077zM215.524728 43.7905736L210.926464 48.3965455 210.926464 35.6223653C210.926464 15.9801931 194.973457 0 175.363711 0L154.026059 0 154.026059 7.12447305 175.363711 7.12447305C191.050441 7.12447305 203.813913 19.90934 203.813913 35.6223653L203.813913 48.3965455 199.215649 43.7905736 194.187076 48.8275761 207.370189 62.0327869 220.553746 48.8275761 215.524728 43.7905736zM18.1343439 184.377635L18.1343439 171.6039 22.9171574 176.209426 28.1475506 171.172424 14.4353388 157.967213.723127036 171.172424 5.95352019 176.209426 10.7363337 171.603455 10.7363337 184.377635C10.7363337 204.019807 27.3300705 220 47.7263844 220L47.7263844 212.875527C31.410073 212.875527 18.1343439 200.09066 18.1343439 184.377635"/>
    <polygon fill="#06C" points="0 112.525 91.837 112.525 91.837 106.033 0 106.033"/>
    <polygon fill="#06C" points="0 141.377 91.837 141.377 91.837 134.885 0 134.885"/>
    <polygon fill="#06C" points="0 127.672 42.664 127.672 42.664 121.18 0 121.18"/>
    <polygon fill="#06C" points="69.616 121.18 52.728 121.18 49.173 121.18 49.173 127.672 52.728 127.672 69.616 127.672 91.837 127.672 91.837 121.18"/>
    <polygon fill="#06C" points="138.84 6.492 145.349 6.492 145.349 0 138.84 0"/>
    <polygon fill="#06C" points="125.101 6.492 131.609 6.492 131.609 0 125.101 0"/>
    <polygon fill="#06C" points="53.511 220 60.02 220 60.02 213.508 53.511 213.508"/>
    <polygon fill="#06C" points="67.974 220 74.482 220 74.482 213.508 67.974 213.508"/>
  </g>
</svg>
