<svg width="254" height="48" viewBox="0 0 254 48" fill="none" xmlns="http://www.w3.org/2000/svg">
<path d="M47.6934 42.483L28.3109 2.75937C27.5831 1.133 25.9532 0 24.0573 0C22.1014 0 20.4274 1.20524 19.7367 2.91443L0.403511 42.483C0.14449 43.0152 0 43.6107 0 44.2415C0 45.956 1.07133 47.4185 2.5814 48L4.33817 44.4001C3.91528 44.1341 3.63335 43.6636 3.63335 43.1279C3.63335 42.698 3.81484 42.3121 4.10382 42.0372L5.22448 42.5835L5.8271 41.3483L15.8373 20.8609C15.8391 20.8644 26.8501 43.4292 27.6184 45.0045C27.9091 45.6952 28.5928 46.1798 29.3875 46.1798C30.1839 46.1798 30.8658 45.6952 31.1583 45.0045C31.6235 44.0512 35.7309 35.6322 37.6057 31.7909L42.2698 41.3483L42.8724 42.5835L43.9931 42.0372C44.2821 42.3103 44.4636 42.698 44.4636 43.1279C44.4636 43.6636 44.1816 44.1341 43.7587 44.4001L45.5155 48C47.0256 47.4185 48.0969 45.9543 48.0969 44.2415C48.0969 43.6107 47.9507 43.0134 47.6934 42.483ZM29.3875 45.3358C28.7937 45.3358 28.3126 44.8547 28.3126 44.2609C28.3126 43.6671 28.7937 43.1861 29.3875 43.1861C29.9813 43.1861 30.4623 43.6671 30.4623 44.2609C30.4641 44.8547 29.9813 45.3358 29.3875 45.3358ZM30.3407 41.7623C30.161 42.1059 29.8015 42.3403 29.3875 42.3403C28.9734 42.3403 28.6139 42.1059 28.4342 41.7623C26.9876 38.7898 23.9198 32.494 21.2961 27.1074C21.1534 27.1761 20.9948 27.2166 20.8257 27.2166C20.2319 27.2166 19.7508 26.7356 19.7508 26.1418C19.7508 25.7171 19.9975 25.3506 20.3552 25.1762C18.8363 22.0556 17.5764 19.4706 17.0478 18.3852L21.7701 8.71862L24.4432 3.24746L24.4467 3.24922C24.5559 3.00077 24.8044 2.82809 25.0934 2.82809C25.4845 2.82809 25.7999 3.14526 25.7999 3.53644C25.7999 3.68973 25.7488 3.8307 25.666 3.94699L24.8431 5.63151L24.8414 5.63327L25.2273 6.42267L26.3462 8.7151L36.4022 29.3223C34.7018 32.8094 31.7733 38.8232 30.3407 41.7623Z" fill="white"/>
<path d="M62.7289 15.213V12.217H64.4369C64.6889 12.217 64.9316 12.2357 65.1649 12.273C65.3983 12.3103 65.6036 12.385 65.7809 12.497C65.9583 12.5997 66.0983 12.749 66.2009 12.945C66.3129 13.141 66.3689 13.3977 66.3689 13.715C66.3689 14.0323 66.3129 14.289 66.2009 14.485C66.0983 14.681 65.9583 14.835 65.7809 14.947C65.6036 15.0497 65.3983 15.1197 65.1649 15.157C64.9316 15.1943 64.6889 15.213 64.4369 15.213H62.7289ZM60.5309 10.509V20.505H62.7289V16.921H65.0389C65.6643 16.921 66.1963 16.8323 66.6349 16.655C67.0736 16.4683 67.4283 16.2257 67.6989 15.927C67.9789 15.6283 68.1796 15.2877 68.3009 14.905C68.4316 14.513 68.4969 14.1163 68.4969 13.715C68.4969 13.3043 68.4316 12.9077 68.3009 12.525C68.1796 12.1423 67.9789 11.8017 67.6989 11.503C67.4283 11.2043 67.0736 10.9663 66.6349 10.789C66.1963 10.6023 65.6643 10.509 65.0389 10.509H60.5309Z" fill="white"/>
<path d="M72.0668 15.031V12.217H74.4748C74.9788 12.217 75.3568 12.329 75.6088 12.553C75.8608 12.7677 75.9868 13.1177 75.9868 13.603C75.9868 14.107 75.8608 14.471 75.6088 14.695C75.3568 14.919 74.9788 15.031 74.4748 15.031H72.0668ZM69.8688 10.509V20.505H72.0668V16.599H74.2648C74.8155 16.599 75.2121 16.7203 75.4548 16.963C75.6975 17.2057 75.8561 17.5883 75.9308 18.111C75.9868 18.5123 76.0288 18.9323 76.0568 19.371C76.0848 19.8097 76.1595 20.1877 76.2808 20.505H78.4788C78.3761 20.365 78.2968 20.197 78.2408 20.001C78.1941 19.7957 78.1568 19.581 78.1288 19.357C78.1101 19.133 78.0961 18.9137 78.0868 18.699C78.0775 18.4843 78.0681 18.2977 78.0588 18.139C78.0401 17.887 78.0028 17.635 77.9468 17.383C77.9001 17.131 77.8208 16.9023 77.7088 16.697C77.5968 16.4823 77.4522 16.3003 77.2748 16.151C77.0975 15.9923 76.8735 15.8757 76.6028 15.801V15.773C77.1628 15.549 77.5641 15.2223 77.8068 14.793C78.0588 14.3637 78.1848 13.855 78.1848 13.267C78.1848 12.8843 78.1148 12.5297 77.9748 12.203C77.8441 11.867 77.6481 11.573 77.3868 11.321C77.1348 11.069 76.8268 10.873 76.4628 10.733C76.1081 10.5837 75.7068 10.509 75.2588 10.509H69.8688Z" fill="white"/>
<path d="M79.9723 10.509V20.505H87.5603V18.657H82.1703V16.207H87.0143V14.499H82.1703V12.357H87.4483V10.509H79.9723Z" fill="white"/>
<path d="M89.0505 10.509V20.505H91.1085V13.491H91.1365L93.5865 20.505H95.2805L97.7305 13.421H97.7585V20.505H99.8165V10.509H96.7225L94.5105 17.383H94.4825L92.1445 10.509H89.0505Z" fill="white"/>
<path d="M101.752 10.509V20.505H103.95V10.509H101.752Z" fill="white"/>
<path d="M108.401 16.641L109.703 12.973H109.731L110.991 16.641H108.401ZM108.611 10.509L104.831 20.505H107.043L107.827 18.279H111.565L112.321 20.505H114.603L110.865 10.509H108.611Z" fill="white"/>
<path d="M116.391 12.357V20.505H118.589V12.357H121.585V10.509H113.395V12.357H116.391Z" fill="white"/>
<path d="M123.973 16.641L125.275 12.973H125.303L126.563 16.641H123.973ZM124.183 10.509L120.403 20.505H122.615L123.399 18.279H127.137L127.893 20.505H130.175L126.437 10.509H124.183Z" fill="white"/>
<path d="M141.597 13.869H143.725C143.66 13.2903 143.501 12.777 143.249 12.329C142.997 11.881 142.675 11.5077 142.283 11.209C141.901 10.901 141.462 10.6677 140.967 10.509C140.482 10.3503 139.964 10.271 139.413 10.271C138.648 10.271 137.957 10.4063 137.341 10.677C136.735 10.9477 136.221 11.321 135.801 11.797C135.381 12.273 135.059 12.833 134.835 13.477C134.611 14.1117 134.499 14.8023 134.499 15.549C134.499 16.277 134.611 16.9583 134.835 17.593C135.059 18.2183 135.381 18.7643 135.801 19.231C136.221 19.6977 136.735 20.0663 137.341 20.337C137.957 20.5983 138.648 20.729 139.413 20.729C140.029 20.729 140.594 20.6357 141.107 20.449C141.621 20.2623 142.069 19.9917 142.451 19.637C142.834 19.2823 143.142 18.853 143.375 18.349C143.609 17.845 143.753 17.2803 143.809 16.655H141.681C141.597 17.327 141.364 17.8683 140.981 18.279C140.608 18.6897 140.085 18.895 139.413 18.895C138.919 18.895 138.499 18.8017 138.153 18.615C137.808 18.419 137.528 18.1623 137.313 17.845C137.099 17.5277 136.94 17.173 136.837 16.781C136.744 16.3797 136.697 15.969 136.697 15.549C136.697 15.1103 136.744 14.6857 136.837 14.275C136.94 13.8643 137.099 13.5003 137.313 13.183C137.528 12.8563 137.808 12.5997 138.153 12.413C138.499 12.217 138.919 12.119 139.413 12.119C139.684 12.119 139.941 12.1657 140.183 12.259C140.435 12.343 140.659 12.4643 140.855 12.623C141.051 12.7817 141.215 12.9683 141.345 13.183C141.476 13.3883 141.56 13.617 141.597 13.869Z" fill="white"/>
<path d="M147.074 15.549C147.074 15.1103 147.121 14.6857 147.214 14.275C147.317 13.8643 147.476 13.5003 147.69 13.183C147.905 12.8563 148.185 12.5997 148.53 12.413C148.876 12.217 149.296 12.119 149.79 12.119C150.285 12.119 150.705 12.217 151.05 12.413C151.396 12.5997 151.676 12.8563 151.89 13.183C152.105 13.5003 152.259 13.8643 152.352 14.275C152.455 14.6857 152.506 15.1103 152.506 15.549C152.506 15.969 152.455 16.3797 152.352 16.781C152.259 17.173 152.105 17.5277 151.89 17.845C151.676 18.1623 151.396 18.419 151.05 18.615C150.705 18.8017 150.285 18.895 149.79 18.895C149.296 18.895 148.876 18.8017 148.53 18.615C148.185 18.419 147.905 18.1623 147.69 17.845C147.476 17.5277 147.317 17.173 147.214 16.781C147.121 16.3797 147.074 15.969 147.074 15.549ZM144.876 15.549C144.876 16.277 144.988 16.9583 145.212 17.593C145.436 18.2183 145.758 18.7643 146.178 19.231C146.598 19.6977 147.112 20.0663 147.718 20.337C148.334 20.5983 149.025 20.729 149.79 20.729C150.565 20.729 151.256 20.5983 151.862 20.337C152.469 20.0663 152.982 19.6977 153.402 19.231C153.822 18.7643 154.144 18.2183 154.368 17.593C154.592 16.9583 154.704 16.277 154.704 15.549C154.704 14.8023 154.592 14.1117 154.368 13.477C154.144 12.833 153.822 12.273 153.402 11.797C152.982 11.321 152.469 10.9477 151.862 10.677C151.256 10.4063 150.565 10.271 149.79 10.271C149.025 10.271 148.334 10.4063 147.718 10.677C147.112 10.9477 146.598 11.321 146.178 11.797C145.758 12.273 145.436 12.833 145.212 13.477C144.988 14.1117 144.876 14.8023 144.876 15.549Z" fill="white"/>
<path d="M156.207 10.509V20.505H158.265V13.813H158.293L162.451 20.505H164.649V10.509H162.591V17.215H162.563L158.391 10.509H156.207Z" fill="white"/>
<path d="M170.48 10.509V20.505H172.678V10.509H170.48Z" fill="white"/>
<path d="M174.609 10.509V20.505H181.679V18.657H176.807V10.509H174.609Z" fill="white"/>
<path d="M67.1949 30.869H69.3229C69.2576 30.2903 69.0989 29.777 68.8469 29.329C68.5949 28.881 68.2729 28.5077 67.8809 28.209C67.4983 27.901 67.0596 27.6677 66.5649 27.509C66.0796 27.3503 65.5616 27.271 65.0109 27.271C64.2456 27.271 63.5549 27.4063 62.9389 27.677C62.3323 27.9477 61.8189 28.321 61.3989 28.797C60.9789 29.273 60.6569 29.833 60.4329 30.477C60.2089 31.1117 60.0969 31.8023 60.0969 32.549C60.0969 33.277 60.2089 33.9583 60.4329 34.593C60.6569 35.2183 60.9789 35.7643 61.3989 36.231C61.8189 36.6977 62.3323 37.0663 62.9389 37.337C63.5549 37.5983 64.2456 37.729 65.0109 37.729C65.6269 37.729 66.1916 37.6357 66.7049 37.449C67.2183 37.2623 67.6663 36.9917 68.0489 36.637C68.4316 36.2823 68.7396 35.853 68.9729 35.349C69.2063 34.845 69.3509 34.2803 69.4069 33.655H67.2789C67.1949 34.327 66.9616 34.8683 66.5789 35.279C66.2056 35.6897 65.6829 35.895 65.0109 35.895C64.5163 35.895 64.0963 35.8017 63.7509 35.615C63.4056 35.419 63.1256 35.1623 62.9109 34.845C62.6963 34.5277 62.5376 34.173 62.4349 33.781C62.3416 33.3797 62.2949 32.969 62.2949 32.549C62.2949 32.1103 62.3416 31.6857 62.4349 31.275C62.5376 30.8643 62.6963 30.5003 62.9109 30.183C63.1256 29.8563 63.4056 29.5997 63.7509 29.413C64.0963 29.217 64.5163 29.119 65.0109 29.119C65.2816 29.119 65.5383 29.1657 65.7809 29.259C66.0329 29.343 66.2569 29.4643 66.4529 29.623C66.6489 29.7817 66.8123 29.9683 66.9429 30.183C67.0736 30.3883 67.1576 30.617 67.1949 30.869Z" fill="white"/>
<path d="M72.6719 32.549C72.6719 32.1103 72.7185 31.6857 72.8119 31.275C72.9145 30.8643 73.0732 30.5003 73.2879 30.183C73.5025 29.8563 73.7825 29.5997 74.1279 29.413C74.4732 29.217 74.8932 29.119 75.3879 29.119C75.8825 29.119 76.3025 29.217 76.6479 29.413C76.9932 29.5997 77.2732 29.8563 77.4879 30.183C77.7025 30.5003 77.8565 30.8643 77.9499 31.275C78.0525 31.6857 78.1039 32.1103 78.1039 32.549C78.1039 32.969 78.0525 33.3797 77.9499 33.781C77.8565 34.173 77.7025 34.5277 77.4879 34.845C77.2732 35.1623 76.9932 35.419 76.6479 35.615C76.3025 35.8017 75.8825 35.895 75.3879 35.895C74.8932 35.895 74.4732 35.8017 74.1279 35.615C73.7825 35.419 73.5025 35.1623 73.2879 34.845C73.0732 34.5277 72.9145 34.173 72.8119 33.781C72.7185 33.3797 72.6719 32.969 72.6719 32.549ZM70.4739 32.549C70.4739 33.277 70.5859 33.9583 70.8099 34.593C71.0339 35.2183 71.3559 35.7643 71.7759 36.231C72.1959 36.6977 72.7092 37.0663 73.3159 37.337C73.9319 37.5983 74.6225 37.729 75.3879 37.729C76.1625 37.729 76.8532 37.5983 77.4599 37.337C78.0665 37.0663 78.5799 36.6977 78.9999 36.231C79.4199 35.7643 79.7419 35.2183 79.9659 34.593C80.1899 33.9583 80.3019 33.277 80.3019 32.549C80.3019 31.8023 80.1899 31.1117 79.9659 30.477C79.7419 29.833 79.4199 29.273 78.9999 28.797C78.5799 28.321 78.0665 27.9477 77.4599 27.677C76.8532 27.4063 76.1625 27.271 75.3879 27.271C74.6225 27.271 73.9319 27.4063 73.3159 27.677C72.7092 27.9477 72.1959 28.321 71.7759 28.797C71.3559 29.273 71.0339 29.833 70.8099 30.477C70.5859 31.1117 70.4739 31.8023 70.4739 32.549Z" fill="white"/>
<path d="M81.8044 27.509V37.505H83.8624V30.491H83.8904L86.3404 37.505H88.0344L90.4844 30.421H90.5124V37.505H92.5704V27.509H89.4764L87.2644 34.383H87.2364L84.8984 27.509H81.8044Z" fill="white"/>
<path d="M96.7035 32.213V29.217H98.4115C98.6635 29.217 98.9062 29.2357 99.1395 29.273C99.3729 29.3103 99.5782 29.385 99.7555 29.497C99.9329 29.5997 100.073 29.749 100.176 29.945C100.288 30.141 100.344 30.3977 100.344 30.715C100.344 31.0323 100.288 31.289 100.176 31.485C100.073 31.681 99.9329 31.835 99.7555 31.947C99.5782 32.0497 99.3729 32.1197 99.1395 32.157C98.9062 32.1943 98.6635 32.213 98.4115 32.213H96.7035ZM94.5055 27.509V37.505H96.7035V33.921H99.0135C99.6389 33.921 100.171 33.8323 100.61 33.655C101.048 33.4683 101.403 33.2257 101.674 32.927C101.954 32.6283 102.154 32.2877 102.276 31.905C102.406 31.513 102.472 31.1163 102.472 30.715C102.472 30.3043 102.406 29.9077 102.276 29.525C102.154 29.1423 101.954 28.8017 101.674 28.503C101.403 28.2043 101.048 27.9663 100.61 27.789C100.171 27.6023 99.6389 27.509 99.0135 27.509H94.5055Z" fill="white"/>
<path d="M105.324 33.641L106.626 29.973H106.654L107.914 33.641H105.324ZM105.534 27.509L101.754 37.505H103.966L104.75 35.279H108.488L109.244 37.505H111.526L107.788 27.509H105.534Z" fill="white"/>
<path d="M113.886 34.187H111.758C111.749 34.803 111.861 35.335 112.094 35.783C112.328 36.231 112.64 36.5997 113.032 36.889C113.434 37.1783 113.891 37.3883 114.404 37.519C114.927 37.659 115.464 37.729 116.014 37.729C116.696 37.729 117.293 37.6497 117.806 37.491C118.329 37.3323 118.763 37.113 119.108 36.833C119.463 36.5437 119.729 36.203 119.906 35.811C120.084 35.419 120.172 34.9943 120.172 34.537C120.172 33.977 120.051 33.5197 119.808 33.165C119.575 32.801 119.295 32.5117 118.968 32.297C118.642 32.0823 118.31 31.9283 117.974 31.835C117.648 31.7323 117.391 31.6623 117.204 31.625C116.579 31.4663 116.07 31.3357 115.678 31.233C115.296 31.1303 114.992 31.0277 114.768 30.925C114.554 30.8223 114.409 30.7103 114.334 30.589C114.26 30.4677 114.222 30.309 114.222 30.113C114.222 29.8983 114.269 29.721 114.362 29.581C114.456 29.441 114.572 29.3243 114.712 29.231C114.862 29.1377 115.025 29.0723 115.202 29.035C115.38 28.9977 115.557 28.979 115.734 28.979C116.005 28.979 116.252 29.0023 116.476 29.049C116.71 29.0957 116.915 29.175 117.092 29.287C117.27 29.399 117.41 29.553 117.512 29.749C117.624 29.945 117.69 30.1923 117.708 30.491H119.836C119.836 29.9123 119.724 29.4223 119.5 29.021C119.286 28.6103 118.992 28.2743 118.618 28.013C118.245 27.7517 117.816 27.565 117.33 27.453C116.854 27.3317 116.355 27.271 115.832 27.271C115.384 27.271 114.936 27.3317 114.488 27.453C114.04 27.5743 113.639 27.761 113.284 28.013C112.93 28.265 112.64 28.5823 112.416 28.965C112.202 29.3383 112.094 29.7817 112.094 30.295C112.094 30.7523 112.178 31.1443 112.346 31.471C112.524 31.7883 112.752 32.0543 113.032 32.269C113.312 32.4837 113.63 32.661 113.984 32.801C114.339 32.9317 114.703 33.0437 115.076 33.137C115.44 33.2397 115.8 33.333 116.154 33.417C116.509 33.501 116.826 33.599 117.106 33.711C117.386 33.823 117.61 33.963 117.778 34.131C117.956 34.299 118.044 34.5183 118.044 34.789C118.044 35.041 117.979 35.251 117.848 35.419C117.718 35.5777 117.554 35.7037 117.358 35.797C117.162 35.8903 116.952 35.9557 116.728 35.993C116.504 36.021 116.294 36.035 116.098 36.035C115.809 36.035 115.529 36.0023 115.258 35.937C114.988 35.8623 114.75 35.755 114.544 35.615C114.348 35.4657 114.19 35.2743 114.068 35.041C113.947 34.8077 113.886 34.523 113.886 34.187Z" fill="white"/>
<path d="M122.978 34.187H120.85C120.841 34.803 120.953 35.335 121.186 35.783C121.419 36.231 121.732 36.5997 122.124 36.889C122.525 37.1783 122.983 37.3883 123.496 37.519C124.019 37.659 124.555 37.729 125.106 37.729C125.787 37.729 126.385 37.6497 126.898 37.491C127.421 37.3323 127.855 37.113 128.2 36.833C128.555 36.5437 128.821 36.203 128.998 35.811C129.175 35.419 129.264 34.9943 129.264 34.537C129.264 33.977 129.143 33.5197 128.9 33.165C128.667 32.801 128.387 32.5117 128.06 32.297C127.733 32.0823 127.402 31.9283 127.066 31.835C126.739 31.7323 126.483 31.6623 126.296 31.625C125.671 31.4663 125.162 31.3357 124.77 31.233C124.387 31.1303 124.084 31.0277 123.86 30.925C123.645 30.8223 123.501 30.7103 123.426 30.589C123.351 30.4677 123.314 30.309 123.314 30.113C123.314 29.8983 123.361 29.721 123.454 29.581C123.547 29.441 123.664 29.3243 123.804 29.231C123.953 29.1377 124.117 29.0723 124.294 29.035C124.471 28.9977 124.649 28.979 124.826 28.979C125.097 28.979 125.344 29.0023 125.568 29.049C125.801 29.0957 126.007 29.175 126.184 29.287C126.361 29.399 126.501 29.553 126.604 29.749C126.716 29.945 126.781 30.1923 126.8 30.491H128.928C128.928 29.9123 128.816 29.4223 128.592 29.021C128.377 28.6103 128.083 28.2743 127.71 28.013C127.337 27.7517 126.907 27.565 126.422 27.453C125.946 27.3317 125.447 27.271 124.924 27.271C124.476 27.271 124.028 27.3317 123.58 27.453C123.132 27.5743 122.731 27.761 122.376 28.013C122.021 28.265 121.732 28.5823 121.508 28.965C121.293 29.3383 121.186 29.7817 121.186 30.295C121.186 30.7523 121.27 31.1443 121.438 31.471C121.615 31.7883 121.844 32.0543 122.124 32.269C122.404 32.4837 122.721 32.661 123.076 32.801C123.431 32.9317 123.795 33.0437 124.168 33.137C124.532 33.2397 124.891 33.333 125.246 33.417C125.601 33.501 125.918 33.599 126.198 33.711C126.478 33.823 126.702 33.963 126.87 34.131C127.047 34.299 127.136 34.5183 127.136 34.789C127.136 35.041 127.071 35.251 126.94 35.419C126.809 35.5777 126.646 35.7037 126.45 35.797C126.254 35.8903 126.044 35.9557 125.82 35.993C125.596 36.021 125.386 36.035 125.19 36.035C124.901 36.035 124.621 36.0023 124.35 35.937C124.079 35.8623 123.841 35.755 123.636 35.615C123.44 35.4657 123.281 35.2743 123.16 35.041C123.039 34.8077 122.978 34.523 122.978 34.187Z" fill="white"/>
<path d="M132.336 32.549C132.336 32.1103 132.383 31.6857 132.476 31.275C132.579 30.8643 132.737 30.5003 132.952 30.183C133.167 29.8563 133.447 29.5997 133.792 29.413C134.137 29.217 134.557 29.119 135.052 29.119C135.547 29.119 135.967 29.217 136.312 29.413C136.657 29.5997 136.937 29.8563 137.152 30.183C137.367 30.5003 137.521 30.8643 137.614 31.275C137.717 31.6857 137.768 32.1103 137.768 32.549C137.768 32.969 137.717 33.3797 137.614 33.781C137.521 34.173 137.367 34.5277 137.152 34.845C136.937 35.1623 136.657 35.419 136.312 35.615C135.967 35.8017 135.547 35.895 135.052 35.895C134.557 35.895 134.137 35.8017 133.792 35.615C133.447 35.419 133.167 35.1623 132.952 34.845C132.737 34.5277 132.579 34.173 132.476 33.781C132.383 33.3797 132.336 32.969 132.336 32.549ZM130.138 32.549C130.138 33.277 130.25 33.9583 130.474 34.593C130.698 35.2183 131.02 35.7643 131.44 36.231C131.86 36.6977 132.373 37.0663 132.98 37.337C133.596 37.5983 134.287 37.729 135.052 37.729C135.827 37.729 136.517 37.5983 137.124 37.337C137.731 37.0663 138.244 36.6977 138.664 36.231C139.084 35.7643 139.406 35.2183 139.63 34.593C139.854 33.9583 139.966 33.277 139.966 32.549C139.966 31.8023 139.854 31.1117 139.63 30.477C139.406 29.833 139.084 29.273 138.664 28.797C138.244 28.321 137.731 27.9477 137.124 27.677C136.517 27.4063 135.827 27.271 135.052 27.271C134.287 27.271 133.596 27.4063 132.98 27.677C132.373 27.9477 131.86 28.321 131.44 28.797C131.02 29.273 130.698 29.833 130.474 30.477C130.25 31.1117 130.138 31.8023 130.138 32.549Z" fill="white"/>
<path d="M147.563 35.657V29.357H149.131C149.672 29.357 150.125 29.4363 150.489 29.595C150.862 29.7443 151.161 29.9637 151.385 30.253C151.609 30.5423 151.768 30.8923 151.861 31.303C151.964 31.7043 152.015 32.157 152.015 32.661C152.015 33.2117 151.945 33.6783 151.805 34.061C151.665 34.4437 151.478 34.7563 151.245 34.999C151.012 35.2323 150.746 35.4003 150.447 35.503C150.148 35.6057 149.84 35.657 149.523 35.657H147.563ZM145.365 27.509V37.505H149.677C150.442 37.505 151.105 37.379 151.665 37.127C152.234 36.8657 152.706 36.511 153.079 36.063C153.462 35.615 153.746 35.083 153.933 34.467C154.12 33.851 154.213 33.179 154.213 32.451C154.213 31.6203 154.096 30.897 153.863 30.281C153.639 29.665 153.322 29.1517 152.911 28.741C152.51 28.3303 152.029 28.0223 151.469 27.817C150.918 27.6117 150.321 27.509 149.677 27.509H145.365Z" fill="white"/>
<path d="M155.728 27.509V29.665H156.652C156.652 30.0103 156.587 30.3043 156.456 30.547C156.325 30.7803 156.083 30.9577 155.728 31.079V32.003C156.017 31.9657 156.283 31.8817 156.526 31.751C156.778 31.611 156.993 31.4383 157.17 31.233C157.347 31.0277 157.483 30.7897 157.576 30.519C157.679 30.2483 157.725 29.959 157.716 29.651V27.509H155.728Z" fill="white"/>
<path d="M161.402 32.549C161.402 32.1103 161.449 31.6857 161.542 31.275C161.645 30.8643 161.804 30.5003 162.018 30.183C162.233 29.8563 162.513 29.5997 162.858 29.413C163.204 29.217 163.624 29.119 164.118 29.119C164.613 29.119 165.033 29.217 165.378 29.413C165.724 29.5997 166.004 29.8563 166.218 30.183C166.433 30.5003 166.587 30.8643 166.68 31.275C166.783 31.6857 166.834 32.1103 166.834 32.549C166.834 32.969 166.783 33.3797 166.68 33.781C166.587 34.173 166.433 34.5277 166.218 34.845C166.004 35.1623 165.724 35.419 165.378 35.615C165.033 35.8017 164.613 35.895 164.118 35.895C163.624 35.895 163.204 35.8017 162.858 35.615C162.513 35.419 162.233 35.1623 162.018 34.845C161.804 34.5277 161.645 34.173 161.542 33.781C161.449 33.3797 161.402 32.969 161.402 32.549ZM159.204 32.549C159.204 33.277 159.316 33.9583 159.54 34.593C159.764 35.2183 160.086 35.7643 160.506 36.231C160.926 36.6977 161.44 37.0663 162.046 37.337C162.662 37.5983 163.353 37.729 164.118 37.729C164.893 37.729 165.584 37.5983 166.19 37.337C166.797 37.0663 167.31 36.6977 167.73 36.231C168.15 35.7643 168.472 35.2183 168.696 34.593C168.92 33.9583 169.032 33.277 169.032 32.549C169.032 31.8023 168.92 31.1117 168.696 30.477C168.472 29.833 168.15 29.273 167.73 28.797C167.31 28.321 166.797 27.9477 166.19 27.677C165.584 27.4063 164.893 27.271 164.118 27.271C163.353 27.271 162.662 27.4063 162.046 27.677C161.44 27.9477 160.926 28.321 160.506 28.797C160.086 29.273 159.764 29.833 159.54 30.477C159.316 31.1117 159.204 31.8023 159.204 32.549Z" fill="white"/>
<path d="M172.733 32.031V29.217H175.141C175.645 29.217 176.023 29.329 176.275 29.553C176.527 29.7677 176.653 30.1177 176.653 30.603C176.653 31.107 176.527 31.471 176.275 31.695C176.023 31.919 175.645 32.031 175.141 32.031H172.733ZM170.535 27.509V37.505H172.733V33.599H174.931C175.481 33.599 175.878 33.7203 176.121 33.963C176.364 34.2057 176.522 34.5883 176.597 35.111C176.653 35.5123 176.695 35.9323 176.723 36.371C176.751 36.8097 176.826 37.1877 176.947 37.505H179.145C179.042 37.365 178.963 37.197 178.907 37.001C178.86 36.7957 178.823 36.581 178.795 36.357C178.776 36.133 178.762 35.9137 178.753 35.699C178.743 35.4843 178.734 35.2977 178.725 35.139C178.706 34.887 178.669 34.635 178.613 34.383C178.566 34.131 178.487 33.9023 178.375 33.697C178.263 33.4823 178.118 33.3003 177.941 33.151C177.764 32.9923 177.539 32.8757 177.269 32.801V32.773C177.829 32.549 178.23 32.2223 178.473 31.793C178.725 31.3637 178.851 30.855 178.851 30.267C178.851 29.8843 178.781 29.5297 178.641 29.203C178.51 28.867 178.314 28.573 178.053 28.321C177.801 28.069 177.493 27.873 177.129 27.733C176.774 27.5837 176.373 27.509 175.925 27.509H170.535Z" fill="white"/>
<path d="M182.402 32.549C182.402 32.1103 182.449 31.6857 182.542 31.275C182.645 30.8643 182.804 30.5003 183.018 30.183C183.233 29.8563 183.513 29.5997 183.858 29.413C184.204 29.217 184.624 29.119 185.118 29.119C185.613 29.119 186.033 29.217 186.378 29.413C186.724 29.5997 187.004 29.8563 187.218 30.183C187.433 30.5003 187.587 30.8643 187.68 31.275C187.783 31.6857 187.834 32.1103 187.834 32.549C187.834 32.969 187.783 33.3797 187.68 33.781C187.587 34.173 187.433 34.5277 187.218 34.845C187.004 35.1623 186.724 35.419 186.378 35.615C186.033 35.8017 185.613 35.895 185.118 35.895C184.624 35.895 184.204 35.8017 183.858 35.615C183.513 35.419 183.233 35.1623 183.018 34.845C182.804 34.5277 182.645 34.173 182.542 33.781C182.449 33.3797 182.402 32.969 182.402 32.549ZM180.204 32.549C180.204 33.277 180.316 33.9583 180.54 34.593C180.764 35.2183 181.086 35.7643 181.506 36.231C181.926 36.6977 182.44 37.0663 183.046 37.337C183.662 37.5983 184.353 37.729 185.118 37.729C185.893 37.729 186.584 37.5983 187.19 37.337C187.797 37.0663 188.31 36.6977 188.73 36.231C189.15 35.7643 189.472 35.2183 189.696 34.593C189.92 33.9583 190.032 33.277 190.032 32.549C190.032 31.8023 189.92 31.1117 189.696 30.477C189.472 29.833 189.15 29.273 188.73 28.797C188.31 28.321 187.797 27.9477 187.19 27.677C186.584 27.4063 185.893 27.271 185.118 27.271C184.353 27.271 183.662 27.4063 183.046 27.677C182.44 27.9477 181.926 28.321 181.506 28.797C181.086 29.273 180.764 29.833 180.54 30.477C180.316 31.1117 180.204 31.8023 180.204 32.549Z" fill="white"/>
<path d="M197.951 33.641L199.253 29.973H199.281L200.541 33.641H197.951ZM198.161 27.509L194.381 37.505H196.593L197.377 35.279H201.115L201.871 37.505H204.153L200.415 27.509H198.161Z" fill="white"/>
<path d="M207.213 35.657V29.357H208.781C209.323 29.357 209.775 29.4363 210.139 29.595C210.513 29.7443 210.811 29.9637 211.035 30.253C211.259 30.5423 211.418 30.8923 211.511 31.303C211.614 31.7043 211.665 32.157 211.665 32.661C211.665 33.2117 211.595 33.6783 211.455 34.061C211.315 34.4437 211.129 34.7563 210.895 34.999C210.662 35.2323 210.396 35.4003 210.097 35.503C209.799 35.6057 209.491 35.657 209.173 35.657H207.213ZM205.015 27.509V37.505H209.327C210.093 37.505 210.755 37.379 211.315 37.127C211.885 36.8657 212.356 36.511 212.729 36.063C213.112 35.615 213.397 35.083 213.583 34.467C213.77 33.851 213.863 33.179 213.863 32.451C213.863 31.6203 213.747 30.897 213.513 30.281C213.289 29.665 212.972 29.1517 212.561 28.741C212.16 28.3303 211.679 28.0223 211.119 27.817C210.569 27.6117 209.971 27.509 209.327 27.509H205.015Z" fill="white"/>
<path d="M215.392 27.509V37.505H217.59V27.509H215.392Z" fill="white"/>
<path d="M222.97 31.471H224.874C224.874 31.2097 224.897 30.9483 224.944 30.687C225 30.4163 225.088 30.1737 225.21 29.959C225.331 29.735 225.49 29.5577 225.686 29.427C225.891 29.287 226.138 29.217 226.428 29.217C226.857 29.217 227.207 29.3523 227.478 29.623C227.758 29.8843 227.898 30.253 227.898 30.729C227.898 31.0277 227.828 31.2937 227.688 31.527C227.557 31.7603 227.389 31.9703 227.184 32.157C226.988 32.3437 226.768 32.5163 226.526 32.675C226.283 32.8243 226.054 32.9737 225.84 33.123C225.42 33.4123 225.018 33.697 224.636 33.977C224.262 34.257 223.936 34.565 223.656 34.901C223.376 35.2277 223.152 35.601 222.984 36.021C222.825 36.441 222.746 36.9357 222.746 37.505H229.942V35.797H225.308C225.55 35.461 225.83 35.167 226.148 34.915C226.465 34.663 226.792 34.4297 227.128 34.215C227.464 33.991 227.795 33.767 228.122 33.543C228.458 33.319 228.756 33.0717 229.018 32.801C229.279 32.521 229.489 32.2037 229.648 31.849C229.806 31.4943 229.886 31.0697 229.886 30.575C229.886 30.099 229.792 29.6697 229.606 29.287C229.428 28.9043 229.186 28.5823 228.878 28.321C228.57 28.0597 228.21 27.859 227.8 27.719C227.398 27.579 226.974 27.509 226.526 27.509C225.938 27.509 225.415 27.6117 224.958 27.817C224.51 28.013 224.136 28.293 223.838 28.657C223.539 29.0117 223.315 29.4317 223.166 29.917C223.016 30.393 222.951 30.911 222.97 31.471Z" fill="white"/>
<path d="M232.513 32.563C232.513 32.395 232.513 32.1943 232.513 31.961C232.522 31.7183 232.541 31.471 232.569 31.219C232.597 30.967 232.644 30.7197 232.709 30.477C232.774 30.225 232.863 30.001 232.975 29.805C233.096 29.609 233.246 29.4503 233.423 29.329C233.61 29.2077 233.838 29.147 234.109 29.147C234.38 29.147 234.608 29.2077 234.795 29.329C234.982 29.4503 235.136 29.609 235.257 29.805C235.378 30.001 235.467 30.225 235.523 30.477C235.588 30.7197 235.635 30.967 235.663 31.219C235.7 31.471 235.719 31.7183 235.719 31.961C235.728 32.1943 235.733 32.395 235.733 32.563C235.733 32.843 235.724 33.1837 235.705 33.585C235.686 33.977 235.626 34.3597 235.523 34.733C235.43 35.097 235.271 35.4097 235.047 35.671C234.832 35.9323 234.52 36.063 234.109 36.063C233.708 36.063 233.4 35.9323 233.185 35.671C232.97 35.4097 232.812 35.097 232.709 34.733C232.616 34.3597 232.56 33.977 232.541 33.585C232.522 33.1837 232.513 32.843 232.513 32.563ZM230.525 32.563C230.525 33.543 230.618 34.3643 230.805 35.027C231.001 35.6803 231.262 36.203 231.589 36.595C231.916 36.987 232.294 37.267 232.723 37.435C233.162 37.603 233.624 37.687 234.109 37.687C234.604 37.687 235.066 37.603 235.495 37.435C235.934 37.267 236.316 36.987 236.643 36.595C236.979 36.203 237.24 35.6803 237.427 35.027C237.623 34.3643 237.721 33.543 237.721 32.563C237.721 31.611 237.623 30.813 237.427 30.169C237.24 29.5157 236.979 28.993 236.643 28.601C236.316 28.209 235.934 27.929 235.495 27.761C235.066 27.593 234.604 27.509 234.109 27.509C233.624 27.509 233.162 27.593 232.723 27.761C232.294 27.929 231.916 28.209 231.589 28.601C231.262 28.993 231.001 29.5157 230.805 30.169C230.618 30.813 230.525 31.611 230.525 32.563Z" fill="white"/>
<path d="M238.528 31.471H240.432C240.432 31.2097 240.456 30.9483 240.502 30.687C240.558 30.4163 240.647 30.1737 240.768 29.959C240.89 29.735 241.048 29.5577 241.244 29.427C241.45 29.287 241.697 29.217 241.986 29.217C242.416 29.217 242.766 29.3523 243.036 29.623C243.316 29.8843 243.456 30.253 243.456 30.729C243.456 31.0277 243.386 31.2937 243.246 31.527C243.116 31.7603 242.948 31.9703 242.742 32.157C242.546 32.3437 242.327 32.5163 242.084 32.675C241.842 32.8243 241.613 32.9737 241.398 33.123C240.978 33.4123 240.577 33.697 240.194 33.977C239.821 34.257 239.494 34.565 239.214 34.901C238.934 35.2277 238.71 35.601 238.542 36.021C238.384 36.441 238.304 36.9357 238.304 37.505H245.5V35.797H240.866C241.109 35.461 241.389 35.167 241.706 34.915C242.024 34.663 242.35 34.4297 242.686 34.215C243.022 33.991 243.354 33.767 243.68 33.543C244.016 33.319 244.315 33.0717 244.576 32.801C244.838 32.521 245.048 32.2037 245.206 31.849C245.365 31.4943 245.444 31.0697 245.444 30.575C245.444 30.099 245.351 29.6697 245.164 29.287C244.987 28.9043 244.744 28.5823 244.436 28.321C244.128 28.0597 243.769 27.859 243.358 27.719C242.957 27.579 242.532 27.509 242.084 27.509C241.496 27.509 240.974 27.6117 240.516 27.817C240.068 28.013 239.695 28.293 239.396 28.657C239.098 29.0117 238.874 29.4317 238.724 29.917C238.575 30.393 238.51 30.911 238.528 31.471Z" fill="white"/>
<path d="M246.308 31.471H248.212C248.212 31.2097 248.235 30.9483 248.282 30.687C248.338 30.4163 248.426 30.1737 248.548 29.959C248.669 29.735 248.828 29.5577 249.024 29.427C249.229 29.287 249.476 29.217 249.766 29.217C250.195 29.217 250.545 29.3523 250.816 29.623C251.096 29.8843 251.236 30.253 251.236 30.729C251.236 31.0277 251.166 31.2937 251.026 31.527C250.895 31.7603 250.727 31.9703 250.522 32.157C250.326 32.3437 250.106 32.5163 249.864 32.675C249.621 32.8243 249.392 32.9737 249.178 33.123C248.758 33.4123 248.356 33.697 247.974 33.977C247.6 34.257 247.274 34.565 246.994 34.901C246.714 35.2277 246.49 35.601 246.322 36.021C246.163 36.441 246.084 36.9357 246.084 37.505H253.28V35.797H248.646C248.888 35.461 249.168 35.167 249.486 34.915C249.803 34.663 250.13 34.4297 250.466 34.215C250.802 33.991 251.133 33.767 251.46 33.543C251.796 33.319 252.094 33.0717 252.356 32.801C252.617 32.521 252.827 32.2037 252.986 31.849C253.144 31.4943 253.224 31.0697 253.224 30.575C253.224 30.099 253.13 29.6697 252.944 29.287C252.766 28.9043 252.524 28.5823 252.216 28.321C251.908 28.0597 251.548 27.859 251.138 27.719C250.736 27.579 250.312 27.509 249.864 27.509C249.276 27.509 248.753 27.6117 248.296 27.817C247.848 28.013 247.474 28.293 247.176 28.657C246.877 29.0117 246.653 29.4317 246.504 29.917C246.354 30.393 246.289 30.911 246.308 31.471Z" fill="white"/>
</svg>
