<?xml version="1.0" encoding="UTF-8"?>
<svg width="244px" height="491px" viewBox="0 0 244 491" version="1.1" xmlns="http://www.w3.org/2000/svg" xmlns:xlink="http://www.w3.org/1999/xlink">
    <defs></defs>
    <g id="-wip" stroke="none" stroke-width="1" fill="none" fill-rule="evenodd">
        <g id="io.italia.it---home" fill="#FFFFFF">
            <g id="mockup" transform="translate(0.000000, 339.000000)">
                <path d="M63,-339 L63,-332 C63,-327.029437 67.0294373,-323 72,-323 L173,-323 C177.970563,-323 182,-327.029437 182,-332 L182,-339 L224,-339 C235.045695,-339 244,-330.045695 244,-319 L244,132 C244,143.045695 235.045695,152 224,152 L20,152 C8.954305,152 1.3527075e-15,143.045695 0,132 L0,-319 C-1.3527075e-15,-330.045695 8.954305,-339 20,-339 L63,-339 Z" id="Combined-Shape"></path>
            </g>
        </g>
    </g>
</svg>