<?xml version="1.0" encoding="UTF-8"?>
<svg width="19px" height="20px" viewBox="0 0 19 20" version="1.1" xmlns="http://www.w3.org/2000/svg" xmlns:xlink="http://www.w3.org/1999/xlink">
    <!-- Generator: sketchtool 62 (101010) - https://sketch.com -->
    <title>9188282C-BF59-4366-99FA-A49983515782</title>
    <desc>Created with sketchtool.</desc>
    <g id="IO-dono" stroke="none" stroke-width="1" fill="none" fill-rule="evenodd">
        <g id="IO-Dono-02---dettaglio" transform="translate(-192.000000, -1298.000000)" fill="#5C6F82" fill-rule="nonzero">
            <g id="Group-30" transform="translate(192.000000, 1298.000000)">
                <path d="M15.6244444,-5.66657832e-13 C16.7412171,-5.66657832e-13 17.6497698,0.89296875 17.6497698,1.99058594 L17.6497698,1.99058594 L17.6497698,2.76824219 C18.4355129,3.04214844 19,3.7796875 19,4.6446875 L19,4.6446875 L19,10.180625 C19,10.7123437 18.7893159,11.2121875 18.4067381,11.5882031 L18.4067381,11.5882031 L10.4404077,19.4178906 C10.0455887,19.8059766 9.52692671,20 9.00830445,20 C8.48968219,20 7.97102019,19.8059766 7.57620116,19.4179687 L7.57620116,19.4179687 L1.94353184,13.8820312 C1.56095403,13.5060547 1.35026995,13.0061719 1.35026995,12.4744531 C1.35026995,12.3207031 1.36843305,12.1697266 1.40273231,12.0234766 L1.40273231,12.0234766 L0.593261891,11.2278906 C0.210684082,10.8519141 5.91526828e-13,10.3520312 5.91526828e-13,9.8203125 C5.91526828e-13,9.28859375 0.210684082,8.78871094 0.593261891,8.41273437 L0.593261891,8.41273437 L8.55951278,0.583085937 C8.94205084,0.207070312 9.45061781,-5.66657832e-13 9.99165581,-5.66657832e-13 L9.99165581,-5.66657832e-13 Z M16.9746348,3.98113281 L11.3419258,3.98113281 C11.1615665,3.98113281 10.9920574,4.05019531 10.8645182,4.17546875 L10.8645182,4.17546875 L2.89822762,12.0051562 C2.77072818,12.1305469 2.70046041,12.2971094 2.70046041,12.474375 C2.70046041,12.6516406 2.77072818,12.8182812 2.89822762,12.9435937 L2.89822762,12.9435937 L8.53093669,18.4795312 C8.79412288,18.7382031 9.22236679,18.7382812 9.48567221,18.4795312 L9.48567221,18.4795312 L17.4520026,10.6498437 C17.579502,10.5244922 17.6497698,10.3578516 17.6497698,10.1805859 L17.6497698,10.1805859 L17.6497698,4.64464844 C17.6497698,4.27878906 17.3468791,3.98113281 16.9746348,3.98113281 L16.9746348,3.98113281 Z M15.6244046,1.32707031 L9.99169555,1.32707031 C9.81133631,1.32707031 9.64182723,1.39613281 9.51428805,1.52140625 L9.51428805,1.52140625 L1.54799741,9.35105469 C1.42049797,9.47644531 1.3502302,9.64300781 1.3502302,9.82027344 C1.3502302,9.99753906 1.42049797,10.1641797 1.54799741,10.2894922 L1.54799741,10.2894922 L2.14125931,10.8725 L9.90974298,3.2371875 C10.292281,2.86117187 10.800848,2.65410156 11.341886,2.65410156 L11.341886,2.65410156 L16.2994999,2.65410156 L16.2994999,1.99058594 C16.2994999,1.62472656 15.9966489,1.32707031 15.6244046,1.32707031 L15.6244046,1.32707031 Z M14.2742142,5.30824219 C15.3909868,5.30824219 16.2995396,6.20121094 16.2995396,7.29882812 C16.2995396,8.39644531 15.3909868,9.28941406 14.2742142,9.28941406 C13.1574415,9.28941406 12.2488887,8.39644531 12.2488887,7.29882812 C12.2488887,6.20121094 13.1574415,5.30824219 14.2742142,5.30824219 Z M14.2742142,6.63535156 C13.9019698,6.63535156 13.5991189,6.93300781 13.5991189,7.29886719 C13.5991189,7.66472656 13.9019698,7.96238281 14.2742142,7.96238281 C14.6464585,7.96238281 14.9493094,7.66472656 14.9493094,7.29886719 C14.9493094,6.93300781 14.6464585,6.63535156 14.2742142,6.63535156 Z" id="icon-tags"></path>
            </g>
        </g>
    </g>
</svg>