<?xml version="1.0" encoding="UTF-8"?>
<svg width="56px" height="42px" viewBox="0 0 56 42" version="1.1" xmlns="http://www.w3.org/2000/svg" xmlns:xlink="http://www.w3.org/1999/xlink">
    <title>42586D6C-C18F-481A-B5B7-5200D91BEE3C</title>
    <g id="Page-1" stroke="none" stroke-width="1" fill="none" fill-rule="evenodd">
        <g id="dashboard-12012021-review" transform="translate(-279.000000, -2362.000000)" fill="#FFFFFF" fill-rule="nonzero">
            <g id="Group-7" transform="translate(245.000000, 2299.000000)">
                <path d="M68.7265625,63 C71.4643281,63 73.69175,65.2644632 73.6916406,68.0477368 C73.6916406,69.2942526 73.2439688,70.4357684 72.5048125,71.3174368 C73.6638594,71.7742421 74.6777656,72.576 75.4060938,73.6360579 C75.4218438,73.6359474 75.4372656,73.6348421 75.4530156,73.6348421 C78.1908906,73.6348421 80.4182031,75.8993053 80.4182031,78.6828 C80.4182031,79.9292053 79.9705313,81.0707211 79.231375,81.9523895 C80.3903125,82.4091947 81.4041094,83.2108421 82.1324375,84.2706789 C82.1481875,84.2705684 82.1637188,84.2694632 82.1795781,84.2694632 C84.9173438,84.2694632 87.1446563,86.5339263 87.1446563,89.3174211 C87.1446563,90.5674737 86.6943594,91.7119737 85.951375,92.5946368 C88.31825,93.5300211 90,95.8581474 90,98.5773158 L90,98.5773158 L90,103.894737 C90,104.505063 89.5102188,105 88.9061406,105 L88.9061406,105 L35.09375,105 C34.4896719,105 34,104.505063 34,103.894737 L34,103.894737 L34,98.5774263 C34,95.8582579 35.6816406,93.5301316 38.0485156,92.5947474 C37.3054219,91.7120842 36.855125,90.5675842 36.855125,89.3175316 C36.855125,86.5340368 39.0825469,84.2695737 41.8203125,84.2695737 C41.8360625,84.2695737 41.8515937,84.2706789 41.8673438,84.2707895 C42.5956719,83.2108421 43.6094688,82.4093053 44.7685156,81.9525 C44.0293594,81.0708316 43.5816875,79.9293158 43.5816875,78.6829105 C43.5816875,75.8994158 45.8091094,73.6349526 48.546875,73.6349526 C48.5625156,73.6349526 48.5780469,73.6360579 48.5936875,73.6361684 C49.3220156,72.5761105 50.3358125,71.7743526 51.4949687,71.3175474 C50.7558125,70.4359895 50.3081406,69.2943632 50.3081406,68.0478474 C50.3081406,65.2644632 52.5355625,63 55.2734375,63 C58.0112031,63 60.2384063,65.2644632 60.2385156,68.0478474 C60.2385156,69.2943632 59.7908438,70.4358789 59.0516875,71.3175474 C60.2108438,71.7743526 61.2246406,72.5761105 61.9530781,73.6361684 C61.9687188,73.6360579 61.98425,73.6349526 62,73.6349526 L62,73.6349526 L62.0468125,73.6361684 C62.77525,72.5761105 63.7889375,71.7743526 64.9482031,71.3175474 C64.2090469,70.4359895 63.761375,69.2943632 63.761375,68.0478474 C63.761375,65.2644632 65.9887969,63 68.7265625,63 Z M43.2848438,94.3652684 L40.3556719,94.3652684 C38.057375,94.3652684 36.1875,96.2547158 36.1875,98.5773158 L36.1875,98.5773158 L36.1875,98.6798842 L39.5819531,98.6798842 C40.1860312,98.6798842 40.6757031,99.1748211 40.6757031,99.7851474 C40.6757031,100.395584 40.1860312,100.890411 39.5819531,100.890411 L39.5819531,100.890411 L36.1875,100.890411 L36.1875,102.789474 L47.4530156,102.789474 L47.4530156,98.5773158 C47.4530156,96.2548263 45.58325,94.3652684 43.2848438,94.3652684 L43.2848438,94.3652684 Z M56.7379688,94.3653789 L53.8087969,94.3653789 C51.5105,94.3653789 49.640625,96.2548263 49.640625,98.5774263 L49.640625,98.5774263 L49.640625,102.789474 L60.9061406,102.789474 L60.9061406,98.5774263 C60.9061406,96.2549368 59.036375,94.3653789 56.7379688,94.3653789 L56.7379688,94.3653789 Z M70.1910938,94.3653789 L67.2618125,94.3653789 C64.963625,94.3653789 63.09375,96.2548263 63.09375,98.5774263 L63.09375,98.5774263 L63.09375,102.789474 L74.3592656,102.789474 L74.3592656,98.5774263 C74.3592656,96.2549368 72.4895,94.3653789 70.1910938,94.3653789 L70.1910938,94.3653789 Z M83.6442188,94.3653789 L80.7150469,94.3653789 C78.41675,94.3653789 76.546875,96.2548263 76.546875,98.5774263 L76.546875,98.5774263 L76.546875,102.789474 L87.8122813,102.789474 L87.8122813,100.890521 L84.4179375,100.890521 C83.8139688,100.890521 83.3241875,100.395695 83.3241875,99.7852579 C83.3241875,99.1749316 83.8139688,98.6799947 84.4179375,98.6799947 L84.4179375,98.6799947 L87.8122813,98.6799947 L87.8122813,98.5774263 C87.8122813,96.2549368 85.9425156,94.3653789 83.6442188,94.3653789 L83.6442188,94.3653789 Z M81.2755937,98.6801053 C81.8796719,98.6801053 82.3693437,99.1750421 82.3693437,99.7853684 C82.3693437,100.395695 81.8795625,100.890632 81.2755937,100.890632 L81.2755937,100.890632 L81.2497812,100.890632 C80.6458125,100.890632 80.1560312,100.395695 80.1560312,99.7853684 C80.1560312,99.1750421 80.6458125,98.6801053 81.2497812,98.6801053 L81.2497812,98.6801053 Z M42.7501094,98.6801053 C43.3541875,98.6801053 43.8438594,99.1750421 43.8438594,99.7853684 C43.8438594,100.395695 43.3541875,100.890632 42.7501094,100.890632 L42.7501094,100.890632 L42.7244062,100.890632 C42.1203281,100.890632 41.6306562,100.395695 41.6306562,99.7853684 C41.6306562,99.1750421 42.1203281,98.6801053 42.7244062,98.6801053 L42.7244062,98.6801053 Z M50.0520937,83.7307579 L47.0414375,83.7307579 C45.9712031,83.7307579 44.9627656,84.1580526 44.2057813,84.8919474 C45.7418438,85.7512895 46.7852812,87.4127211 46.7852812,89.3175316 C46.7852812,90.5675842 46.3349844,91.7120842 45.5918906,92.5947474 C46.7990625,93.0717789 47.8283906,93.9100105 48.5466562,94.9792421 C49.2649219,93.9100105 50.29425,93.0717789 51.5014219,92.5947474 C50.7583281,91.7121947 50.3080312,90.5675842 50.3080312,89.3175316 C50.3080312,87.4127211 51.3515781,85.7511789 52.8876406,84.8919474 C52.130875,84.1580526 51.1224375,83.7307579 50.0520937,83.7307579 L50.0520937,83.7307579 Z M63.5052188,83.7307579 L60.4945625,83.7307579 C59.4243281,83.7307579 58.4158906,84.1580526 57.6590156,84.8920579 C59.1950781,85.7512895 60.2384063,87.4127211 60.2384063,89.3175316 C60.2384063,90.5675842 59.7881094,91.7120842 59.045125,92.5947474 C60.2522969,93.0716684 61.2817344,93.9100105 62,94.9792421 C62.7181563,93.9100105 63.7474844,93.0717789 64.9546563,92.5947474 C64.2115625,91.7120842 63.7612656,90.5675842 63.7612656,89.3175316 C63.7612656,87.4127211 64.8047031,85.7512895 66.3407656,84.8920579 C65.5838906,84.1580526 64.5754531,83.7307579 63.5052188,83.7307579 L63.5052188,83.7307579 Z M76.9582344,83.7306474 L73.9475781,83.7306474 C72.8773437,83.7306474 71.8689063,84.1579421 71.1120313,84.8918368 C72.6480938,85.7511789 73.6915312,87.4126105 73.6915312,89.3174211 C73.6915312,90.5674737 73.2412344,91.7119737 72.49825,92.5946368 C73.7054219,93.0716684 74.7348594,93.9099 75.4530156,94.9791316 C76.1712812,93.9099 77.2006094,93.0716684 78.4077813,92.5946368 C77.6646875,91.7119737 77.2143906,90.5674737 77.2143906,89.3174211 C77.2143906,87.4126105 78.2580469,85.7512895 79.7937813,84.8918368 C79.0370156,84.1579421 78.0284688,83.7306474 76.9582344,83.7306474 L76.9582344,83.7306474 Z M82.1796875,86.4799895 C80.648,86.4799895 79.4018906,87.7529211 79.4018906,89.3174211 C79.4018906,90.8819211 80.648,92.1547421 82.1796875,92.1547421 C83.7112656,92.1547421 84.9572656,90.8819211 84.9572656,89.3174211 C84.9572656,87.7529211 83.7112656,86.4801 82.1796875,86.4799895 Z M68.7265625,86.4799895 C67.194875,86.4799895 65.9487656,87.7529211 65.9487656,89.3174211 C65.9487656,90.8820316 67.194875,92.1547421 68.7265625,92.1547421 C70.2581406,92.1547421 71.50425,90.8819211 71.50425,89.3174211 C71.50425,87.7529211 70.2581406,86.4799895 68.7265625,86.4799895 Z M55.2734375,86.4799895 C53.74175,86.4799895 52.4956406,87.7529211 52.4956406,89.3174211 C52.4956406,90.8820316 53.7418594,92.1547421 55.2734375,92.1547421 C56.8049063,92.1547421 58.0509063,90.8819211 58.0509063,89.3174211 C58.0509063,87.7529211 56.8049063,86.4799895 55.2734375,86.4799895 Z M41.8203125,86.4801 C40.2887344,86.4801 39.042625,87.7529211 39.042625,89.3175316 C39.042625,90.8820316 40.2887344,92.1548526 41.8203125,92.1548526 C43.3517813,92.1548526 44.5978906,90.8820316 44.5978906,89.3175316 C44.5978906,87.7530316 43.3518906,86.4801 41.8203125,86.4801 Z M70.2317813,73.0958053 L67.221125,73.0958053 C66.1507813,73.0958053 65.1422344,73.5232105 64.3853594,74.2572158 C65.9215313,75.1164474 66.9650781,76.7779895 66.9650781,78.6829105 C66.9650781,79.9293158 66.5174063,81.0708316 65.77825,81.9525 C66.9372969,82.4093053 67.9509844,83.2109526 68.6793125,84.2707895 C68.6951719,84.2707895 68.7107031,84.2695737 68.7265625,84.2695737 C68.7424219,84.2695737 68.7579531,84.2707895 68.7737031,84.2707895 C69.5020313,83.2108421 70.5156094,82.4093053 71.6747656,81.9525 C70.9356094,81.0708316 70.4879375,79.9293158 70.4879375,78.6829105 C70.4879375,76.7779895 71.5314844,75.1164474 73.0675469,74.2572158 C72.3106719,73.5232105 71.302125,73.0958053 70.2317813,73.0958053 L70.2317813,73.0958053 Z M56.7786563,73.0958053 L53.768,73.0958053 C52.6977656,73.0958053 51.6891094,73.5232105 50.9324531,74.2572158 C52.4685156,75.1164474 53.5120625,76.7779895 53.5120625,78.6829105 C53.5120625,79.9293158 53.0643906,81.0708316 52.3252344,81.9525 C53.4842813,82.4093053 54.4980781,83.2108421 55.2264063,84.2707895 C55.2421563,84.2707895 55.2575781,84.2695737 55.2734375,84.2695737 C55.2891875,84.2695737 55.3047188,84.2707895 55.3204688,84.2707895 C56.0487969,83.2108421 57.0625938,82.4093053 58.2216406,81.9525 C57.4824844,81.0708316 57.0348125,79.9293158 57.0348125,78.6829105 C57.0348125,76.7779895 58.07825,75.1164474 59.6144219,74.2573263 C58.8575469,73.5232105 57.849,73.0958053 56.7786563,73.0958053 L56.7786563,73.0958053 Z M75.453125,75.8454789 C73.9215469,75.8454789 72.6754375,77.1184105 72.6754375,78.6829105 C72.6754375,80.2474105 73.9215469,81.5202316 75.453125,81.5202316 C76.9847031,81.5202316 78.2308125,80.2474105 78.2308125,78.6829105 C78.2308125,77.1183 76.9847031,75.8454789 75.453125,75.8454789 Z M62,75.8454789 C60.4684219,75.8454789 59.2223125,77.1183 59.2223125,78.6829105 C59.2223125,80.2474105 60.4684219,81.5202316 62,81.5202316 C63.5314688,81.5202316 64.7775781,80.2474105 64.7775781,78.6829105 C64.7775781,77.1184105 63.5315781,75.8454789 62,75.8454789 Z M48.546875,75.8454789 C47.0152969,75.8454789 45.7691875,77.1183 45.7691875,78.6829105 C45.7691875,80.2474105 47.0152969,81.5202316 48.546875,81.5202316 C50.0783438,81.5202316 51.3244531,80.2474105 51.3244531,78.6829105 C51.3244531,77.1184105 50.0784531,75.8454789 48.546875,75.8454789 Z M68.7265625,65.2105263 C67.1949844,65.2105263 65.948875,66.4833474 65.948875,68.0478474 C65.948875,69.6123474 67.1949844,70.8852789 68.7265625,70.8852789 C70.2581406,70.8852789 71.50425,69.6123474 71.50425,68.0478474 C71.50425,66.4833474 70.2581406,65.2105263 68.7265625,65.2105263 Z M55.2734375,65.2105263 C53.7418594,65.2105263 52.4956406,66.4833474 52.4956406,68.0478474 C52.4956406,69.6123474 53.7418594,70.8852789 55.2734375,70.8852789 C56.8049063,70.8852789 58.0509063,69.6123474 58.0509063,68.0478474 C58.0509063,66.4833474 56.8049063,65.2105263 55.2734375,65.2105263 Z" id="icon-people"></path>
            </g>
        </g>
    </g>
</svg>