<?xml version="1.0" encoding="UTF-8"?>
<svg width="24px" height="20px" viewBox="0 0 24 20" version="1.1" xmlns="http://www.w3.org/2000/svg" xmlns:xlink="http://www.w3.org/1999/xlink">
    <!-- Generator: sketchtool 62 (101010) - https://sketch.com -->
    <title>E44E3C27-6F04-4AAB-A4F6-11987E8D3EF2</title>
    <desc>Created with sketchtool.</desc>
    <g id="IO-dono" stroke="none" stroke-width="1" fill="none" fill-rule="evenodd">
        <g id="IO-Dono-02---dettaglio" transform="translate(-189.000000, -1326.000000)" fill="#5C6F82" fill-rule="nonzero">
            <g id="Group-15" transform="translate(189.000000, 1325.000000)">
                <g id="icon-partners" transform="translate(0.000000, 1.000000)">
                    <path d="M21.4963235,2.07261029 C21.410386,1.98667279 21.2922794,1.9379136 21.1713695,1.9379136 C21.050046,1.9379136 20.9319393,1.98667279 20.8459559,2.07261029 C20.7605239,2.15804228 20.7117647,2.27619485 20.7117647,2.39751838 C20.7117647,2.51838235 20.7605239,2.63699449 20.8459559,2.72247243 C20.9318934,2.80795037 21.05,2.85712316 21.1713695,2.85712316 C21.2922335,2.85712316 21.410386,2.80799632 21.4963235,2.72247243 C21.5818015,2.63699449 21.6305147,2.51842831 21.6305147,2.39751838 C21.6305147,2.27619485 21.5818015,2.15804228 21.4963235,2.07261029 Z" id="Path"></path>
                    <path d="M10.9407629,12.8964154 C10.8548713,12.8104779 10.7367188,12.7617188 10.6158088,12.7617188 C10.4944853,12.7617188 10.3763327,12.8104779 10.2903952,12.8964154 C10.2049632,12.9818474 10.156204,13.1 10.156204,13.2213235 C10.156204,13.3421875 10.2049632,13.4607537 10.2903952,13.5462776 C10.3763327,13.6317555 10.4944393,13.6809283 10.6158088,13.6809283 C10.7366728,13.6809283 10.8548254,13.6318015 10.9407629,13.5462776 C11.0262408,13.4607996 11.0749541,13.3422335 11.0749541,13.2213235 C11.075,13.1 11.0262868,12.9818474 10.9407629,12.8964154 Z" id="Path"></path>
                    <path d="M22.6095129,3.59894301 C22.4840533,3.37826287 22.2033548,3.3011489 21.9828125,3.42660846 C21.7621783,3.55206801 21.6850184,3.83267463 21.8105239,4.05330882 C23.1756893,6.45395221 22.763557,9.49623162 20.8082261,11.4515165 L20.4597426,11.8 C20.3755515,11.5790901 20.2451287,11.371875 20.0674173,11.1942096 L15.3451746,6.47201287 C15.6539982,6.32008272 15.9393382,6.11737132 16.1898438,5.86686581 L17.0955423,4.96112132 C17.275,4.7816636 17.275,4.490625 17.0955423,4.31116728 C16.9160386,4.13170956 16.6250919,4.13170956 16.4455423,4.31116728 L15.5398438,5.21691176 C15.1143382,5.64237132 14.5486673,5.87670037 13.9469669,5.87670037 L12.136443,5.87670037 C12.014568,5.87670037 11.8977022,5.92513787 11.811443,6.01130515 L10.4254136,7.39733456 C10.0138327,7.8089614 9.34411765,7.8089614 8.93253676,7.39733456 C8.52090993,6.98575368 8.52090993,6.3160386 8.93253676,5.90445772 L12.096875,2.74016544 C14.0306526,0.806341912 17.0496324,0.381066176 19.4381893,1.70597426 C19.6601563,1.82899816 19.9399357,1.74898897 20.0630515,1.5269761 C20.1861673,1.30500919 20.1060202,1.02522978 19.8840533,0.902113971 C18.5665901,0.171461397 17.0143842,-0.120955882 15.5130974,0.0789981618 C14.1081342,0.266084559 12.8221507,0.854365809 11.7680147,1.78782169 C10.4730239,0.639797794 8.82444853,0.0119944853 7.07904412,0.0119944853 C5.18814338,0.0119944853 3.41047794,0.748345588 2.07339154,2.08538603 C0.736305147,3.42242647 0,5.20022978 0,7.09108456 C0,8.98198529 0.736351103,10.7596507 2.07339154,12.0967371 L2.24659926,12.2699449 C2.27674632,12.300046 2.31020221,12.3246783 2.34554228,12.3446691 C2.37628676,12.7422794 2.54287684,13.13125 2.84632353,13.4346507 C3.18405331,13.7723346 3.62743566,13.9410846 4.07095588,13.9410846 C4.09397978,13.9410846 4.11704963,13.9403493 4.14007353,13.9394301 C4.13915441,13.9626838 4.13837316,13.9859375 4.13837316,14.009329 C4.13837316,14.471921 4.31852022,14.9068474 4.64563419,15.2339614 C4.98336397,15.5716452 5.42674632,15.7404412 5.87026654,15.7403952 C5.89329044,15.7403952 5.91636029,15.7396599 5.93938419,15.7387408 C5.93846507,15.7619945 5.93768382,15.7852482 5.93768382,15.8086397 C5.93768382,16.2712316 6.11783088,16.7061581 6.44499081,17.0332721 C6.78267463,17.3709099 7.2261489,17.5397059 7.66962316,17.5397059 C7.69292279,17.5397059 7.71622243,17.5389706 7.73952206,17.5380515 C7.72086397,18.0045496 7.88892463,18.4772518 8.24430147,18.8326746 C8.5714614,19.1597886 9.00638787,19.3399357 9.46893382,19.3399357 C9.93157169,19.3399357 10.3664982,19.1597886 10.6935662,18.8326746 L11.3358915,18.1903033 L12.2034926,19.0578125 C12.5306066,19.3849724 12.9655331,19.5651195 13.428125,19.5651195 C13.8907169,19.5651195 14.3256434,19.3849724 14.6527574,19.0578585 C15.0124081,18.6982077 15.1804228,18.2183824 15.1569853,17.7464154 C15.1858456,17.7478401 15.2147978,17.7486673 15.243704,17.7486673 C15.6872243,17.7486673 16.1307904,17.5798713 16.4684283,17.2421875 C16.8236213,16.8869945 16.991682,16.4146599 16.9732077,15.9483915 C16.9964614,15.9493107 17.0197151,15.9500919 17.0431066,15.9500919 C17.5056985,15.9500919 17.940625,15.7699449 18.267739,15.4428309 C18.622932,15.0876379 18.7909926,14.6153033 18.7725184,14.1490349 C18.7957721,14.149954 18.8190257,14.1507353 18.8424173,14.1507353 C19.3050092,14.1507353 19.7399357,13.9705882 20.0670496,13.6434743 C20.2331801,13.4773437 20.3582721,13.285432 20.4426471,13.0806066 C20.4873621,13.0588235 20.5294118,13.0298254 20.5665901,12.992693 L21.4578585,12.1014246 C23.7051471,9.85459559 24.1785846,6.35818015 22.6095129,3.59894301 Z M4.07100184,13.0227022 C3.85390625,13.0227022 3.64981618,12.9381893 3.49627757,12.7846507 C3.34278493,12.6311581 3.2582261,12.427068 3.2582261,12.2099724 C3.2582261,11.9929228 3.34273897,11.7887868 3.49627757,11.6352941 L4.28828125,10.8432904 C4.4417739,10.6897518 4.64590993,10.605239 4.86300551,10.605239 C5.08005515,10.605239 5.28419118,10.6897518 5.43768382,10.8432904 C5.75459559,11.1602022 5.75459559,11.6757813 5.43768382,11.9926471 L4.64568015,12.7846967 C4.4921875,12.9381434 4.28814338,13.0227022 4.07100184,13.0227022 Z M5.2957261,14.5840533 C5.1421875,14.4305607 5.05767463,14.2264246 5.05767463,14.009375 C5.05767463,13.7922794 5.1421875,13.5881893 5.2957261,13.4346967 L6.08777574,12.6426471 C6.08777574,12.6426471 6.08777574,12.6426471 6.08777574,12.6426011 C6.24126838,12.4891085 6.44535846,12.4045496 6.66245404,12.4045496 C6.87950368,12.4045496 7.08363971,12.4890625 7.23713235,12.6426011 C7.55404412,12.9595129 7.55404412,13.4750919 7.23713235,13.7919577 L6.44512868,14.5840074 C6.12817096,14.9008732 5.61245404,14.9008732 5.2957261,14.5840533 Z M7.09503676,16.383364 C6.94149816,16.2298713 6.85698529,16.0257353 6.85698529,15.8086857 C6.85698529,15.5915901 6.94149816,15.3875 7.09503676,15.2340074 L7.8870864,14.4419577 C7.8870864,14.4419577 7.8870864,14.4419577 7.8870864,14.4419118 C8.04057904,14.2884191 8.24466912,14.2038603 8.46176471,14.2038603 C8.67886029,14.2038603 8.88295037,14.2883732 9.03644301,14.4419118 C9.35335478,14.7588695 9.35335478,15.2744485 9.03644301,15.5913143 L8.24439338,16.383364 C7.92752757,16.7002757 7.41194853,16.7002757 7.09503676,16.383364 Z M10.8357996,17.3907169 L10.04375,18.1828125 C9.89025735,18.3363051 9.68616728,18.420864 9.46907169,18.420864 C9.25202206,18.420864 9.04788603,18.3363511 8.89439338,18.1828125 C8.57748162,17.8658548 8.57748162,17.3502757 8.89439338,17.0334099 L9.68644301,16.2413603 C9.68644301,16.2413603 9.68644301,16.2413603 9.68644301,16.2413143 C9.83993566,16.0878217 10.0440257,16.0032629 10.2611213,16.0032629 C10.478171,16.0032629 10.682307,16.0877757 10.8357996,16.2413143 C10.9893382,16.394807 11.0738511,16.598943 11.0738511,16.8159926 C11.0738971,17.0331801 10.9893382,17.2372243 10.8357996,17.3907169 Z M19.4174173,12.9935202 C19.2639246,13.1470588 19.0597886,13.2315717 18.842739,13.2315717 C18.6256434,13.2315717 18.4215533,13.1470588 18.2680607,12.9935202 L16.3550551,11.0805147 C16.3549632,11.0804228 16.3549173,11.0803768 16.3548254,11.0802849 L14.5556526,9.28111213 C14.3761489,9.10165441 14.0852022,9.10165441 13.9056526,9.28111213 C13.7261949,9.46056985 13.7261949,9.75160846 13.9056526,9.93106618 L17.6180607,13.6433824 C17.9349724,13.9603401 17.9349724,14.4759191 17.6180607,14.7927849 C17.464568,14.9463235 17.260432,15.0308364 17.0433824,15.0308364 C16.8262868,15.0308364 16.6221967,14.9463235 16.468704,14.7927849 L12.756296,11.0804228 C12.5767923,10.901011 12.2858456,10.901011 12.106296,11.0804228 C11.9268382,11.2598805 11.9268382,11.5509191 12.106296,11.7304228 L13.9052849,13.5293658 C13.9054228,13.5295037 13.9055607,13.5296875 13.9056985,13.5298254 L15.81875,15.4427849 C16.1356618,15.7597426 16.1356618,16.2753676 15.818796,16.5922335 C15.5018382,16.9091452 14.9861673,16.9091452 14.6693934,16.5922335 L12.7563419,14.679182 C12.7209559,14.6438419 12.681204,14.6157169 12.6388787,14.5943015 L12.0932445,14.0486673 C11.9137408,13.8692555 11.6227941,13.8692555 11.4432445,14.0486673 C11.2637868,14.228125 11.2637868,14.5191636 11.4432445,14.6986673 L14.003079,17.2584099 C14.3199908,17.5753676 14.3199908,18.0909467 14.003079,18.4078125 C13.8495864,18.5613511 13.6454504,18.645864 13.4284007,18.645864 C13.2113051,18.645864 13.0072151,18.5613511 12.8537224,18.4078125 L11.8796415,17.4337776 C11.9538603,17.2390625 11.9931066,17.0305607 11.9931066,16.8159467 C11.9931066,16.3533548 11.8129596,15.9184283 11.4858456,15.5913143 C11.1586857,15.2642004 10.7237592,15.0840533 10.2612132,15.0840533 C10.2378217,15.0840533 10.214568,15.0848346 10.1913143,15.0857537 C10.2097426,14.6194853 10.0417279,14.1471507 9.68653493,13.7919577 C9.359375,13.4648438 8.92444853,13.2846967 8.46190257,13.2846967 C8.43851103,13.2846967 8.41525735,13.2854779 8.39200368,13.2863971 C8.41047794,12.8201287 8.24241728,12.3477941 7.88722426,11.9926011 C7.56006434,11.6654871 7.12513787,11.4853401 6.66259191,11.4853401 C6.63920037,11.4853401 6.61594669,11.4861213 6.59269301,11.4870404 C6.61116728,11.0207721 6.44310662,10.5484375 6.0879136,10.1932445 C5.41263787,9.51796875 4.31378676,9.51801471 3.63851103,10.1932445 L2.84650735,10.9852482 C2.74659926,11.0851562 2.66190257,11.1944853 2.59149816,11.3102022 C1.51194853,10.163557 0.919393382,8.67288603 0.919393382,7.09099265 C0.919393382,5.44563419 1.56011029,3.89871324 2.72362132,2.73529412 C3.88704044,1.571875 5.43400735,0.931112132 7.07931985,0.931112132 C8.57454044,0.931112132 9.98841912,1.46034007 11.1070772,2.4301011 L8.28276654,5.25441176 C7.9097886,5.62743566 7.70436581,6.12334559 7.70436581,6.65082721 C7.70436581,7.17835478 7.9097886,7.67426471 8.28276654,8.0472886 C8.66778493,8.43226103 9.17352941,8.62477022 9.67922794,8.62477022 C10.1849265,8.62477022 10.690671,8.43230699 11.0756893,8.0472886 L12.3271599,6.79581801 L13.9472426,6.79581801 C14.0810202,6.79581801 14.2133272,6.78667279 14.3440257,6.77045037 L19.417693,11.8440257 C19.7342831,12.1610754 19.7342831,12.6767004 19.4174173,12.9935202 Z" id="Shape"></path>
                </g>
            </g>
        </g>
    </g>
</svg>