<?xml version="1.0" encoding="UTF-8"?>
<svg width="45px" height="54px" viewBox="0 0 45 54" version="1.1" xmlns="http://www.w3.org/2000/svg" xmlns:xlink="http://www.w3.org/1999/xlink">
    <!-- Generator: sketchtool 62 (101010) - https://sketch.com -->
    <title>FBB6D2F9-C9E7-4C62-B420-ACE777FA603E</title>
    <desc>Created with sketchtool.</desc>
    <g id="IO-dono" stroke="none" stroke-width="1" fill="none" fill-rule="evenodd">
        <g id="IO-Dono-02---dettaglio" transform="translate(-1016.000000, -619.000000)" fill="#E3E9ED" fill-rule="nonzero">
            <g id="Group-21" transform="translate(854.000000, 619.000000)">
                <g id="Group-18" transform="translate(125.435556, 0.000000)">
                    <path d="M62.1945982,1.22788075 C63.6361042,-0.220409961 65.9023478,-0.389686585 67.5352357,0.731652395 C69.1682287,-0.388631902 71.4346822,-0.219566215 72.8762932,1.22766982 C74.5128555,2.87308078 74.5127505,5.54870612 72.8765031,7.19253507 L72.8765031,7.19253507 L68.9448273,11.1424284 C69.0067666,11.4992277 69.0401508,11.8635152 69.0401508,12.2331816 C69.0401508,13.9089674 68.390523,15.4844529 67.2110517,16.6693893 L67.2110517,16.6693893 L64.082907,19.8120283 L68.7259401,19.8120283 C69.1608799,19.8120283 69.513409,20.1661908 69.513409,20.603146 C69.513409,21.0401012 69.1608799,21.3942637 68.7259401,21.3942637 L68.7259401,21.3942637 L62.5079691,21.3942637 L60.9010116,23.008667 L67.4849494,23.008667 C67.9198893,23.008667 68.2724184,23.3628296 68.2724184,23.7997847 C68.2724184,24.2367399 67.9198893,24.5909025 67.4849494,24.5909025 L67.4849494,24.5909025 L50.5149456,24.5909025 C50.0800057,24.5909025 49.7274766,24.2367399 49.7274766,23.7997847 C49.7274766,23.3628296 50.0800057,23.008667 50.5149456,23.008667 L50.5149456,23.008667 L57.0988834,23.008667 L55.4919259,21.3942637 L42.4510785,21.3942637 L39.2589998,26.2053057 L78.7410002,26.2053057 L75.5489215,21.3942637 L72.4018801,21.3942637 C71.9669403,21.3942637 71.6144111,21.0401012 71.6144111,20.603146 C71.6144111,20.1661908 71.9669403,19.8120283 72.4018801,19.8120283 L72.4018801,19.8120283 L75.9704237,19.8120283 C76.2338232,19.8120283 76.4796908,19.9442855 76.6257206,20.1643978 L76.6257206,20.1643978 L80.8623688,26.5498707 C80.9490838,26.67696 81,26.8306273 81,26.996318 L81,26.996318 L81,31.258503 C81,31.6954582 80.6474709,32.0496207 80.212531,32.0496207 L80.212531,32.0496207 L79.9393682,32.0496207 L79.9393682,53.2086713 C79.9393682,53.6456265 79.5868391,54 79.1518992,54 L79.1518992,54 L75.1018038,54 C74.6668639,54 74.3143348,53.6456265 74.3143348,53.2086713 C74.3143348,52.7717162 74.6668639,52.4175536 75.1018038,52.4175536 L75.1018038,52.4175536 L78.3644302,52.4175536 L78.3644302,32.0496207 L46.3255392,32.0496207 C45.8905994,32.0496207 45.5380702,31.6954582 45.5380702,31.258503 C45.5380702,30.8215478 45.8905994,30.4673853 46.3255392,30.4673853 L46.3255392,30.4673853 L79.425062,30.4673853 L79.425062,27.7874357 L38.574938,27.7874357 L38.574938,30.4673853 L42.6224089,30.4673853 C43.0573487,30.4673853 43.4098778,30.8215478 43.4098778,31.258503 C43.4098778,31.6954582 43.0573487,32.0496207 42.6224089,32.0496207 L42.6224089,32.0496207 L39.6355698,32.0496207 L39.6355698,52.4177645 L71.4222943,52.4177645 C71.8572342,52.4177645 72.2097633,52.7719271 72.2097633,53.2088823 C72.2097633,53.6458374 71.8572342,54 71.4222943,54 L71.4222943,54 L38.8481008,54 C38.4131609,54 38.0606318,53.6458374 38.0606318,53.2088823 L38.0606318,53.2088823 L38.0606318,32.0498317 L37.787469,32.0498317 C37.3525291,32.0498317 37,31.6956691 37,31.2587139 L37,31.2587139 L37,26.9965289 C37,26.8307328 37.0509162,26.6770655 37.1376312,26.5499762 L37.1376312,26.5499762 L41.3742794,20.1645033 C41.5204142,19.944391 41.7662817,19.8121337 42.0295763,19.8121337 L42.0295763,19.8121337 L53.916988,19.8121337 L50.7888433,16.6694947 C49.609267,15.4845584 48.9597442,13.9090729 48.9597442,12.2332871 C48.9597442,11.8636207 48.9931285,11.4993331 49.0550678,11.1425339 L49.0550678,11.1425339 L45.1233919,7.19264053 C43.4872495,5.54881159 43.4871445,2.87318625 45.1231819,1.22819716 C46.5652128,-0.219355278 48.8316663,-0.388526434 50.4647643,0.731757863 C52.0975472,-0.389475648 54.3637908,-0.220093557 55.8052968,1.22798622 C56.5984348,2.02479924 57.0352644,3.08412286 57.0352644,4.21073525 C57.0352644,4.88351754 56.8783165,5.53172572 56.5839473,6.11475449 C57.4596011,6.3127185 58.282029,6.6976778 59,7.25201919 C59.717761,6.69788873 60.539769,6.311031 61.4151078,6.11296153 C61.1212636,5.53035464 60.9646307,4.88277927 60.9646307,4.21062978 C60.9646307,3.08401739 61.4014602,2.02469377 62.1945982,1.22788075 Z M59,36.8755338 C60.6263791,35.7606284 62.8822294,35.9295886 64.3171216,37.3711293 C65.947385,39.0090521 65.947385,41.6741306 64.3171216,43.3120533 L64.3171216,43.3120533 L59.5568238,48.0944079 C59.4030254,48.2488135 59.2015652,48.3261218 59,48.3261218 C58.7984348,48.3261218 58.5969746,48.248919 58.4431762,48.0944079 L58.4431762,48.0944079 L53.6828784,43.3120533 C52.052615,41.6741306 52.052615,39.0090521 53.6828784,37.3711293 C55.1177706,35.9296941 57.3736209,35.7607338 59,36.8755338 Z M56.6392728,37.7278985 C55.9703283,37.7278985 55.3018038,37.9823181 54.7965261,38.4899371 C53.7803016,39.5108702 53.7803016,41.1723124 54.7965261,42.1932455 L54.7965261,42.1932455 L59,46.4161963 L63.2034739,42.1932455 C64.2196984,41.1723124 64.2196984,39.5108702 63.2034739,38.4899371 C62.2035217,37.4853515 60.5637049,37.4722734 59.5480053,38.4610388 C59.2426131,38.7583539 58.7574919,38.7583539 58.4520996,38.4610388 C57.9496564,37.9719822 57.2941496,37.7278985 56.6392728,37.7278985 Z M66.097614,8.91567617 C64.3059935,7.11585961 61.367866,7.09244565 59.5480053,8.86389124 C59.2426131,9.16110091 58.7574919,9.16110091 58.4520996,8.86389124 C57.5518801,7.98755512 56.377553,7.55038901 55.2041706,7.55038901 C54.0054877,7.55038901 52.8078546,8.00611754 51.9024909,8.91567617 C51.0204333,9.80182084 50.5346822,10.9799018 50.5346822,12.2330761 C50.5346822,13.4862505 51.0204333,14.6644369 51.902386,15.5504761 L51.902386,15.5504761 L59,22.680977 L66.097614,15.5504761 C66.9796717,14.6643314 67.4654228,13.4862505 67.4654228,12.2330761 C67.4654228,10.9799018 66.9796717,9.80182084 66.097614,8.91567617 Z M71.7626455,2.34647756 C70.7561844,1.33609123 69.1053445,1.32290769 68.0829261,2.31757924 C67.7775339,2.61478891 67.2924127,2.61478891 66.9870204,2.3173683 C65.9652319,1.32238035 64.314917,1.33545842 63.3083508,2.34668849 C62.8126265,2.84460434 62.5396736,3.50662887 62.5394636,4.21062978 C62.5394636,4.86917386 62.7784024,5.49059309 63.214917,5.97521993 C64.7249761,6.07520388 66.132363,6.71318164 67.2110517,7.7969739 C67.7010021,8.28919446 68.0980435,8.84954755 68.396507,9.45567387 L68.396507,9.45567387 L71.7628555,6.07372732 C72.7852739,5.04657154 72.7851689,3.37458256 71.7626455,2.34647756 Z M54.6915442,2.34668849 C53.684978,1.33535295 52.0346631,1.32227488 51.0128746,2.3173683 C50.7075873,2.61468345 50.2224661,2.61489438 49.9169689,2.31757924 C48.8947605,1.32290769 47.2438156,1.33609123 46.2368295,2.34689943 C45.2147261,3.37458256 45.2146211,5.04657154 46.2370395,6.07372732 L46.2370395,6.07372732 L49.6032831,9.45567387 C49.9018515,8.84954755 50.2987879,8.28919446 50.7887383,7.7969739 C51.867427,6.7132871 53.2748139,6.07520388 54.7847681,5.97521993 C55.2213877,5.49027668 55.4602214,4.86906839 55.4602214,4.21062978 C55.4602214,3.50662887 55.1871636,2.84470981 54.6915442,2.34668849 Z" id="icon-heartbox"></path>
                </g>
            </g>
        </g>
    </g>
</svg>