<svg xmlns="http://www.w3.org/2000/svg" xmlns:xlink="http://www.w3.org/1999/xlink" width="78" height="70" viewBox="0 0 78 70">
  <defs>
    <polygon id="icon-newsletter-a" points="0 70 78 70 78 0 0 0"/>
  </defs>
  <g fill="none" fill-rule="evenodd">
    <path fill="#FFF" d="M75.4864868,66.4728105 L51.1822281,51.0974895 L75.4864868,33.690136 L75.4864868,66.4728105 Z M18.2236293,67.4999986 L41.6644962,52.6690528 L44.5903827,54.7649915 C45.0285194,55.0787417 45.6201376,55.0787417 46.0582744,54.7649915 L48.9841608,52.6690528 L72.4250277,67.4999986 L18.2236293,67.4999986 Z M15.1621702,33.690136 L39.4664289,51.0949895 L15.1621702,66.4728105 L15.1621702,33.690136 Z M21.4459532,32.4999791 L21.4459532,35.1098243 L17.8015162,32.4999791 L21.4459532,32.4999791 Z M21.4459532,25.7824753 L21.4459532,29.9999777 L17.0282967,29.9999777 L21.4459532,25.7824753 Z M18.93244,16.2499658 L18.93244,12.4999679 C18.93244,10.4290293 20.6205783,8.74996582 22.7027098,8.74996582 L57.9244131,8.74996582 C57.0929115,9.82543517 56.6400078,11.1432484 56.6351379,12.4999679 L56.6351379,16.2499658 L18.93244,16.2499658 Z M45.3243285,2.9827751 L48.7478906,6.24996443 L41.9007665,6.24996443 L45.3243285,2.9827751 Z M59.1486511,17.4999707 L59.1486511,12.4999679 C59.1486511,10.4290293 60.8367894,8.74996582 62.9189209,8.74996582 C65.0010523,8.74996582 66.6891906,10.4290293 66.6891906,12.4999679 L66.6891906,36.9104503 L45.3243285,52.2101463 L23.9594664,36.9104503 L23.9594664,18.7499658 L57.8918945,18.7499658 C58.5859383,18.7499658 59.1486511,18.1902836 59.1486511,17.4999707 L59.1486511,17.4999707 Z M69.2027038,32.4999791 L72.8471409,32.4999791 L69.2027038,35.1098243 L69.2027038,32.4999791 Z M69.2027038,25.7824753 L73.6203604,29.9999777 L69.2027038,29.9999777 L69.2027038,25.7824753 Z M77.6127619,30.3491966 L69.2027038,22.3174734 L69.2027038,12.4999679 C69.1984623,9.05027849 66.3878832,6.25433943 62.9189209,6.24996443 L52.3770894,6.24996443 L46.193847,0.347929882 C45.7077964,-0.115976627 44.9408607,-0.115976627 44.4548101,0.347929882 L38.2715676,6.24996443 L22.7027098,6.24996443 C19.2337474,6.25433943 16.4231684,9.05027849 16.4189268,12.4999679 L16.4189268,17.4999707 C16.4189268,18.1902836 16.9816396,18.7499714 17.6756834,18.7499714 L21.4459532,18.7499714 L21.4459532,22.3174734 L13.0358952,30.3491966 C12.7873715,30.5835718 12.6474003,30.9095094 12.6486486,31.2499784 L12.6486486,68.7499993 C12.6486486,69.4403122 13.2113698,70 13.9054136,70 L76.7432434,70 C77.4372872,70 78,69.4403122 78,68.7499993 L78,31.2499784 C78,30.9099782 77.8589291,30.5852905 77.6104055,30.3515404 L77.6127619,30.3491966 Z"/>
    <mask id="icon-newsletter-b" fill="#fff">
      <use xlink:href="#icon-newsletter-a"/>
    </mask>
    <polygon fill="#FFF" points="31.622 32.9 56.919 32.9 56.919 30.1 31.622 30.1" mask="url(#icon-newsletter-b)"/>
    <polygon fill="#FFF" points="31.622 27.3 56.919 27.3 56.919 24.5 31.622 24.5" mask="url(#icon-newsletter-b)"/>
    <polygon fill="#FFF" points="31.622 37.8 56.919 37.8 56.919 35 31.622 35" mask="url(#icon-newsletter-b)"/>
    <polygon fill="#FFF" points="0 18.9 12.649 18.9 12.649 16.1 0 16.1" mask="url(#icon-newsletter-b)"/>
    <polygon fill="#FFF" points="3.514 23.8 17.568 23.8 17.568 21 3.514 21" mask="url(#icon-newsletter-b)"/>
  </g>
</svg>
