<svg xmlns="http://www.w3.org/2000/svg" xmlns:xlink="http://www.w3.org/1999/xlink" width="50" height="46" viewBox="0 0 50 46">
  <defs>
    <path id="dashboard-bonus-3-copy-3-a" d="M33.8116586,38.5938875 C34.6454168,38.5938875 35.3220901,39.2253181 35.3220901,40.0033308 L35.3220901,40.0033308 L35.3220901,42.8222174 C35.3220901,44.6357304 33.7411404,46.110977 31.7976872,46.110977 L31.7976872,46.110977 L18.7073445,46.110977 C16.7638912,46.110977 15.183036,44.6357304 15.183036,42.8222174 L15.183036,42.8222174 L15.183036,40.0033308 C15.183036,39.2253181 15.8596148,38.5938875 16.6934674,38.5938875 C17.5272255,38.5938875 18.2038988,39.2253181 18.2038988,40.0033308 L18.2038988,40.0033308 L18.2038988,42.8222174 C18.2038988,43.0815549 18.4294251,43.2920905 18.7073445,43.2920905 L18.7073445,43.2920905 L31.7976872,43.2920905 C32.0756065,43.2920905 32.3012272,43.0815549 32.3012272,42.8222174 L32.3012272,42.8222174 L32.3012272,40.0033308 C32.3012272,39.2253181 32.9779005,38.5938875 33.8116586,38.5938875 Z M25.250405,20.8584254 C26.1213993,20.8584254 26.8282933,21.5654961 26.8282933,22.4367082 L26.8282933,22.4367082 L26.8282933,34.4106468 L28.8711657,32.3672637 C29.4875283,31.7506484 30.4869233,31.7506484 31.1033846,32.3672637 C31.7197472,32.9838791 31.7197472,33.9834254 31.1033846,34.6000407 L31.1033846,34.6000407 L26.3697195,39.3348892 C26.0582838,39.6442327 25.6543444,39.7978193 25.250405,39.7978193 C24.8464655,39.7978193 24.4425261,39.6442327 24.135331,39.3348892 L24.135331,39.3348892 L19.4016659,34.6000407 C18.7853033,33.9834254 18.7853033,32.9838791 19.4016659,32.3672637 C20.0181272,31.7506484 21.0174236,31.7506484 21.6338849,32.3672637 L21.6338849,32.3672637 L23.6725166,34.4064052 L23.6725166,22.4367082 C23.6725166,21.5654961 24.3794106,20.8584254 25.250405,20.8584254 Z M24.6212506,0.720401118 C30.3436627,0.720401118 35.6207771,3.84935882 38.3126642,8.76198656 C44.5090347,9.54218622 49.2424627,14.7824249 49.2424627,21.0608819 C49.2424627,27.9106663 43.6000695,33.4847552 36.6650627,33.4847552 L36.6650627,33.4847552 L36.3880741,33.4847552 C35.5386423,33.4847552 34.8492483,32.7967051 34.8492483,31.9489291 C34.8492483,31.1011531 35.5386423,30.413103 36.3880741,30.413103 L36.3880741,30.413103 L36.6650627,30.413103 C41.9032256,30.413103 46.1648112,26.2172261 46.1648112,21.0608819 C46.1648112,16.1113944 42.2459029,12.0199537 37.2416415,11.7476325 C36.6773733,11.716916 36.1747544,11.3790342 35.9346014,10.86914 C33.9013317,6.57084267 29.4613385,3.79205331 24.6212506,3.79205331 C18.4330552,3.79205331 13.1168931,8.33195526 12.2551506,14.3503778 C12.1464711,15.1060042 11.4981445,15.6691725 10.7307514,15.6691725 C6.43838926,15.6691725 3.07768999,18.976286 3.07768999,23.0410417 C3.07768999,27.1058935 6.44050515,30.413103 10.5707135,30.413103 L10.5707135,30.413103 L12.8235544,30.413103 C13.6729862,30.413103 14.3623801,31.1011531 14.3623801,31.9489291 C14.3623801,32.7967051 13.6729862,33.4847552 12.8235544,33.4847552 L12.8235544,33.4847552 L10.5707135,33.4847552 C4.74366122,33.4847552 3.84706436e-05,28.7994297 3.84706436e-05,23.0410417 C3.84706436e-05,17.6595071 4.14255741,13.2138665 9.44429303,12.6568415 C11.0385165,5.76818155 17.3477021,0.720401118 24.6212506,0.720401118 Z"/>
  </defs>
  <g fill="none" fill-rule="evenodd" transform="translate(0 -.656)">
    <mask id="dashboard-bonus-3-copy-3-b" fill="#fff">
      <use xlink:href="#dashboard-bonus-3-copy-3-a"/>
    </mask>
    <g fill="#5C6F82" mask="url(#dashboard-bonus-3-copy-3-b)">
      <rect width="132" height="132" transform="translate(-69 -44)"/>
    </g>
  </g>
</svg>
