<?xml version="1.0" encoding="UTF-8"?>
<svg width="21px" height="24px" viewBox="0 0 21 24" version="1.1" xmlns="http://www.w3.org/2000/svg" xmlns:xlink="http://www.w3.org/1999/xlink">
    <!-- Generator: sketchtool 62 (101010) - https://sketch.com -->
    <title>59449A16-4A2E-4364-A533-ED6EBEEF2D80</title>
    <desc>Created with sketchtool.</desc>
    <g id="IO-dono" stroke="none" stroke-width="1" fill="none" fill-rule="evenodd">
        <g id="IO-Dono-02---dettaglio" transform="translate(-913.000000, -855.000000)" fill="#0066CC" fill-rule="nonzero">
            <path d="M928.503342,861.75 C931.894333,861.75 933.75,863.675646 933.75,867.170399 C933.75,869.151112 932.166696,871.502622 929.033723,874.258787 L928.715261,874.535754 C928.029492,875.125749 926.543869,876.239186 924.240241,877.891396 L923.49857,878.422302 L921.371613,876.890001 C919.847487,875.779789 918.821529,874.997576 918.285094,874.536059 C914.940209,871.658789 913.25,869.216808 913.25,867.170399 C913.25,863.67525 915.10533,861.75 918.496658,861.75 C919.202292,861.75 919.905122,861.874429 920.572771,862.116432 C920.962192,862.257585 921.163452,862.6877 921.022299,863.077121 C920.881146,863.466542 920.451031,863.667803 920.06161,863.52665 C919.557195,863.343815 919.02729,863.25 918.496658,863.25 C915.946427,863.25 914.75,864.491516 914.75,867.170399 C914.75,868.60653 916.125522,870.641729 918.964426,873.138957 L919.26333,873.398933 C919.876843,873.926764 921.242314,874.953483 923.343922,876.465727 L923.499,876.576 L925.099192,875.418104 C926.230291,874.590287 927.045441,873.970962 927.540241,873.563846 L927.73709,873.398572 C930.777657,870.783678 932.25,868.656382 932.25,867.170399 C932.25,864.491904 931.053228,863.25 928.503342,863.25 C928.090106,863.25 927.493586,863.387308 926.8685,863.620318 C926.480375,863.764997 926.048452,863.567645 925.903774,863.17952 C925.759095,862.791395 925.956447,862.359472 926.344571,862.214794 C927.122711,861.924731 927.881809,861.75 928.503342,861.75 Z M923.946212,855.397052 L924.03033,855.46967 L928.03033,859.46967 C928.323223,859.762563 928.323223,860.237437 928.03033,860.53033 C927.764064,860.796597 927.3474,860.820803 927.053788,860.602948 L926.96967,860.53033 L924.25,857.81 L924.25,866 C924.25,866.414214 923.914214,866.75 923.5,866.75 C923.120304,866.75 922.806509,866.467846 922.756847,866.101771 L922.75,866 L922.75,857.81 L920.03033,860.53033 C919.764064,860.796597 919.3474,860.820803 919.053788,860.602948 L918.96967,860.53033 C918.703403,860.264064 918.679197,859.8474 918.897052,859.553788 L918.96967,859.46967 L922.96967,855.46967 C923.235936,855.203403 923.6526,855.179197 923.946212,855.397052 Z" id="icon-share-love"></path>
        </g>
    </g>
</svg>