<svg xmlns="http://www.w3.org/2000/svg" width="19" height="20" viewBox="0 0 19 20">
  <path fill="#FFF" fill-rule="evenodd" d="M3.73553873.307139036C2.96671401-.108144043 2.06402045-.0985421217 1.30010834.313140237L10.2533547 8.38475499 13.2611051 5.44536696 3.73553873.307139036zM.345234249 1.01633394C.125763905 1.36827097 5.32907052e-15 1.77100304 5.32907052e-15 2.19792323L5.32907052e-15 16.8873639C5.32907052e-15 17.3009806.11466709 17.6952468.321807639 18.0399274L9.36078007 9.17377483.345234249 1.01633394zM17.2350869 7.67962017L14.3843499 6.09800363 11.1809317 9.3176792 15.1067969 12.9582577 17.2363073 11.7766083C18.0027251 11.3496086 18.4615385 10.583954 18.4615385 9.72750071 18.4603562 8.87104737 18.0027251 8.10539282 17.2350869 7.67962017M10.3364186 10.1959102L1.30903092 18.9781928C1.7007802 19.1956675 2.13056077 19.3103598 2.56283583 19.3103598 2.98037424 19.3103598 3.40040713 19.2076146 3.7847497 19.0009296L14.0230371 13.5040274 10.3364186 10.1959102z"/>
</svg>
