<?xml version="1.0" encoding="UTF-8"?>
<svg width="49px" height="48px" viewBox="0 0 49 48" version="1.1" xmlns="http://www.w3.org/2000/svg" xmlns:xlink="http://www.w3.org/1999/xlink">
    <!-- Generator: sketchtool 62 (101010) - https://sketch.com -->
    <title>7FA25FFB-6F20-4287-A987-B1B2BB0249AD</title>
    <desc>Created with sketchtool.</desc>
    <g id="IO-dono" stroke="none" stroke-width="1" fill="none" fill-rule="evenodd">
        <g id="IO-Dono-02---dettaglio" transform="translate(-887.000000, -625.000000)" fill="#E3E9ED" fill-rule="nonzero">
            <g id="Group-21" transform="translate(854.000000, 619.000000)">
                <g id="Group-20" transform="translate(0.435556, 6.000000)">
                    <g id="icon-donors" transform="translate(33.000000, 0.000000)">
                        <path d="M42.9763183,36.6291504 C43.6838379,35.8015136 44.1123047,34.7285156 44.1123047,33.5566406 L44.1123047,33.0498047 C44.1123047,30.4376221 41.9871826,28.3125 39.375,28.3125 C36.7628174,28.3125 34.6376953,30.4376221 34.6376953,33.0498047 L34.6376953,33.5566406 C34.6376953,34.7285156 35.0661621,35.8015136 35.7736817,36.6291504 C34.0418701,37.0748291 32.5803223,38.1987305 31.6875,39.6990967 C30.7946777,38.1987305 29.3331299,37.0748291 27.6013183,36.6291504 C28.3088379,35.8015136 28.7373047,34.7285156 28.7373047,33.5566406 L28.7373047,33.0498047 C28.7373047,30.4376221 26.6121826,28.3125 24,28.3125 C21.3878174,28.3125 19.2626953,30.4376221 19.2626953,33.0498047 L19.2626953,33.5566406 C19.2626953,34.7285156 19.6911621,35.8015136 20.3986817,36.6291504 C18.6668701,37.0748291 17.2053223,38.1987305 16.3125,39.6990967 C15.4196777,38.1987305 13.9581299,37.0748291 12.2263183,36.6291504 C12.9338379,35.8015136 13.3623047,34.7285156 13.3623047,33.5566406 L13.3623047,33.0498047 C13.3623047,30.4376221 11.2371826,28.3125 8.625,28.3125 C6.01281741,28.3125 3.88769531,30.4376221 3.88769531,33.0498047 L3.88769531,33.5566406 C3.88769531,34.7285156 4.31616206,35.8015136 5.02368169,36.6291504 C2.13830569,37.3718261 0,39.9953614 0,43.1092529 L0,47.0625 C0,47.5803223 0.419677688,48 0.9375,48 L47.0625,48 C47.5803223,48 48,47.5803223 48,47.0625 L48,43.1092529 C48,39.9953614 45.8616943,37.3718261 42.9763183,36.6291504 L42.9763183,36.6291504 Z M36.5126953,33.0498047 C36.5126953,31.4714355 37.7966308,30.1875 39.375,30.1875 C40.9533692,30.1875 42.2373047,31.4714355 42.2373047,33.0498047 L42.2373047,33.5566406 C42.2373047,35.1350098 40.9533692,36.4189453 39.375,36.4189453 C37.7966308,36.4189453 36.5126953,35.1350098 36.5126953,33.5566406 L36.5126953,33.0498047 Z M21.1376953,33.0498047 C21.1376953,31.4714355 22.4216308,30.1875 24,30.1875 C25.5783692,30.1875 26.8623047,31.4714355 26.8623047,33.0498047 L26.8623047,33.5566406 C26.8623047,35.1350098 25.5783692,36.4189453 24,36.4189453 C22.4216308,36.4189453 21.1376953,35.1350098 21.1376953,33.5566406 L21.1376953,33.0498047 Z M5.76269531,33.0498047 C5.76269531,31.4714355 7.04663081,30.1875 8.625,30.1875 C10.2033692,30.1875 11.4873047,31.4714355 11.4873047,33.0498047 L11.4873047,33.5566406 C11.4873047,35.1350098 10.2033692,36.4189453 8.625,36.4189453 C7.04663081,36.4189453 5.76269531,35.1350098 5.76269531,33.5566406 L5.76269531,33.0498047 Z M1.875,43.1092529 C1.875,40.4542237 4.03491206,38.2939453 6.69030759,38.2939453 L10.5596924,38.2939453 C13.2147217,38.2939453 15.375,40.4542237 15.375,43.1092529 L15.375,46.125 L1.875,46.125 L1.875,43.1092529 Z M17.25,43.1092529 C17.25,40.4542237 19.4099121,38.2939453 22.0653076,38.2939453 L25.9346924,38.2939453 C28.5897217,38.2939453 30.75,40.4542237 30.75,43.1092529 L30.75,46.125 L17.25,46.125 L17.25,43.1092529 Z M46.125,46.125 L32.625,46.125 L32.625,43.1092529 C32.625,40.4542237 34.7849121,38.2939453 37.4403076,38.2939453 L41.3096924,38.2939453 C43.9647217,38.2939453 46.125,40.4542237 46.125,43.1092529 L46.125,46.125 Z" id="Shape"></path>
                        <path d="M7.25061038,18.8049317 L7.2421875,24.0102539 C7.24145512,24.3728027 7.45019531,24.7034912 7.77758794,24.8587646 C7.90576172,24.9195557 8.04309084,24.9495849 8.17932131,24.9495849 C8.39208984,24.9495849 8.60266116,24.8770752 8.77331541,24.7371826 L14.0690918,20.4027099 L19.9277344,20.4027099 L23.2792969,24.5969239 C23.4624023,24.8261719 23.7432862,24.9580078 24.0355224,24.9488526 C24.3288574,24.9415283 24.6016846,24.7972412 24.7727051,24.5592041 L27.7617188,20.4023438 L33.9686279,20.4023438 L39.2402344,24.7360839 C39.5203857,24.9664307 39.9082031,25.0144043 40.2359619,24.8594971 C40.5640869,24.7045898 40.7731933,24.3742676 40.7731933,24.0117188 L40.7731933,18.789917 C43.6827393,16.9207763 45.46875,13.6794433 45.46875,10.2011719 C45.46875,4.57617188 40.8925781,1.0658141e-14 35.2675781,1.0658141e-14 L12.7324219,1.0658141e-14 C7.10742187,1.0658141e-14 2.53125,4.57617188 2.53125,10.2011719 C2.53125,13.6911621 4.32604978,16.9383545 7.25061037,18.8049317 L7.25061038,18.8049317 Z M12.7324219,1.875 L35.2675781,1.875 C39.8587646,1.875 43.59375,5.61035156 43.59375,10.2011719 C43.59375,13.1916504 41.9761963,15.9675293 39.3728027,17.4466553 C39.0794677,17.6129151 38.8981933,17.9241943 38.8981933,18.2614746 L38.8981933,22.0275879 L34.8995362,18.7408448 C34.7318115,18.6027833 34.5216065,18.5273438 34.3044433,18.5273438 L27.28125,18.5273438 C26.9794922,18.5273438 26.6964112,18.6727295 26.5202636,18.9177246 L23.9725342,22.4604492 L21.1113281,18.8796386 C20.9333496,18.6569824 20.6638183,18.5273438 20.3789062,18.5273438 L13.734375,18.5273438 C13.5179443,18.5273438 13.3081055,18.602417 13.1403808,18.7393799 L9.12048337,22.0301513 L9.12634275,18.2768555 C9.12707522,17.9377442 8.94470212,17.625 8.64953616,17.4587402 C6.03222656,15.9829102 4.40625,13.2019043 4.40625,10.2011719 C4.40625,5.61035156 8.14123537,1.875 12.7324219,1.875 Z" id="Shape"></path>
                        <path d="M35.2675781,5.625 L35.2990723,5.625 L35.3027344,5.625 C35.8187256,5.625 36.2384033,5.20788572 36.240243,4.69116206 C36.2424317,4.17333984 35.8242188,3.75219731 35.3063964,3.75 L35.2675781,3.75 C34.7497558,3.75 34.3300781,4.16967769 34.3300781,4.6875 C34.3300781,5.20532231 34.7497558,5.625 35.2675781,5.625 Z" id="Path"></path>
                        <path d="M38.2734375,6.75402834 C39.2713623,7.62561038 39.84375,8.88208013 39.84375,10.2011719 C39.84375,11.4503174 39.3475342,12.6177979 38.4466553,13.4893799 C38.0745849,13.8493652 38.0646973,14.442627 38.4243164,14.8150635 C38.6085205,15.005127 38.8531494,15.100708 39.0985107,15.100708 C39.333252,15.100708 39.5679932,15.0131836 39.75,14.8370362 C41.0196533,13.6091308 41.71875,11.9630127 41.71875,10.2011719 C41.71875,8.34045413 40.9123536,6.56909175 39.5068359,5.34155269 C39.1168213,5.00097656 38.5246583,5.04125981 38.184082,5.43127444 C37.8435058,5.82128906 37.8834229,6.41345213 38.2734375,6.75402834 L38.2734375,6.75402834 Z" id="Path"></path>
                        <path d="M21.1182862,13.1499023 C22.284668,14.229126 23.4364013,15.0153808 23.4847412,15.0483398 C23.6436768,15.1567383 23.8278808,15.2105713 24.0120849,15.2105713 C24.1959229,15.2105713 24.380127,15.1563721 24.5390625,15.0483398 C24.5874023,15.0153808 25.7391357,14.229126 26.9055176,13.1499023 C28.6270752,11.5576172 29.463501,10.1967773 29.463501,8.99047856 C29.463501,6.89611819 27.8701172,5.19213863 25.9112549,5.19213863 C25.2348633,5.19213863 24.5753174,5.40051272 24.0120849,5.78100581 C23.4481201,5.40051272 22.7889404,5.19213863 22.1125489,5.19213863 C20.1536865,5.19213863 18.5603027,6.895752 18.5603027,8.99047856 C18.5603027,10.1967773 19.3967286,11.557251 21.1182862,13.1499023 L21.1182862,13.1499023 Z M22.1125489,7.06713863 C22.5618896,7.06713863 22.9844971,7.26965334 23.3027344,7.63769531 C23.4810791,7.84350581 23.739624,7.96179197 24.0120849,7.96179197 C24.2841797,7.96179197 24.5427246,7.84350581 24.7210693,7.63769531 C25.0393067,7.26965334 25.4619141,7.06713863 25.9112549,7.06713863 C26.8363037,7.06713863 27.588501,7.92993169 27.588501,8.99047856 C27.588501,10.0393067 25.612793,11.9307862 24.0113526,13.1220703 C22.4099121,11.932251 20.4349365,10.0422364 20.4349365,8.99047856 C20.4353027,7.92993169 21.1875,7.06713863 22.1125489,7.06713863 L22.1125489,7.06713863 Z" id="Shape"></path>
                    </g>
                </g>
            </g>
        </g>
    </g>
</svg>