<svg xmlns="http://www.w3.org/2000/svg" xmlns:xlink="http://www.w3.org/1999/xlink" width="56" height="56" viewBox="0 0 56 56">
  <defs>
    <path id="icons-no-results-a" d="M28.8657872,0 C44.3297715,0 56.8657872,12.5360156 56.8657872,28 C56.8657872,43.4639844 44.3297715,56 28.8657872,56 C13.4018028,56 0.865787162,43.4639844 0.865787162,28 C0.865787162,12.5360156 13.4018028,0 28.8657872,0 Z M28.8657872,3.5 C15.3347872,3.5 4.36578716,14.469 4.36578716,28 C4.36578716,41.531 15.3347872,52.5 28.8657872,52.5 C42.3967872,52.5 53.3657872,41.531 53.3657872,28 C53.3657872,14.469 42.3967872,3.5 28.8657872,3.5 Z M28.8657872,29.8583389 C33.0982738,29.8583389 37.0692189,31.5379071 40.002719,34.4714071 C41.4639145,35.9326027 42.62754,37.6679148 43.4200891,39.5792273 C43.7902938,40.4720136 43.3666577,41.4958702 42.4738714,41.8660749 C41.5810851,42.2362797 40.5572285,41.8126436 40.1870238,40.9198573 C39.5710217,39.4343059 38.6655658,38.0840015 37.5278452,36.9462809 C35.2442157,34.6626513 32.1604749,33.3583389 28.8657872,33.3583389 C25.5710994,33.3583389 22.4873587,34.6626513 20.2037291,36.9462809 C19.0660085,38.0840015 18.1605526,39.4343059 17.5445506,40.9198573 C17.1743458,41.8126436 16.1504893,42.2362797 15.2577029,41.8660749 C14.3649166,41.4958702 13.9412805,40.4720136 14.3114853,39.5792273 C15.1040343,37.6679148 16.2676598,35.9326027 17.7288554,34.4714071 C20.6623554,31.5379071 24.6333005,29.8583389 28.8657872,29.8583389 Z M20.1157872,15.75 C22.0487838,15.75 23.6157872,17.3170034 23.6157872,19.25 C23.6157872,21.1829966 22.0487838,22.75 20.1157872,22.75 C18.1827905,22.75 16.6157872,21.1829966 16.6157872,19.25 C16.6157872,17.3170034 18.1827905,15.75 20.1157872,15.75 Z M37.6157872,15.75 C39.5487838,15.75 41.1157872,17.3170034 41.1157872,19.25 C41.1157872,21.1829966 39.5487838,22.75 37.6157872,22.75 C35.6827905,22.75 34.1157872,21.1829966 34.1157872,19.25 C34.1157872,17.3170034 35.6827905,15.75 37.6157872,15.75 Z"/>
  </defs>
  <g fill="none" fill-rule="evenodd" transform="translate(-.866)">
    <mask id="icons-no-results-b" fill="#fff">
      <use xlink:href="#icons-no-results-a"/>
    </mask>
    <g mask="url(#icons-no-results-b)">
      <rect width="74.667" height="81.667" fill="#0073E6" transform="translate(-9.333 -14)"/>
    </g>
  </g>
</svg>
