<svg xmlns="http://www.w3.org/2000/svg" width="17" height="20" viewBox="0 0 17 20">
  <g fill="#FFF" fill-rule="evenodd">
    <path d="M16.1482812,13.8949961 C16.0822266,13.7928086 15.9747656,13.7246055 15.8541406,13.7083164 C14.2673828,13.5010508 13.1490625,12.0467539 13.3562891,10.459957 C13.5026953,9.33909766 14.2875391,8.40573828 15.3666406,8.06913672 C15.5858203,7.99890234 15.7065234,7.76433203 15.6363281,7.54519141 C15.6253516,7.51108984 15.6101172,7.47851172 15.5908203,7.44827734 C14.8626953,6.13413672 13.5679297,5.23034766 12.0833203,4.99995703 C11.3351953,5.03566016 10.5979297,5.19358984 9.90082031,5.46745703 C9.40015625,5.66894141 8.87152344,5.79233984 8.33335937,5.83327734 C7.79519531,5.79233984 7.26648437,5.66894141 6.76585937,5.46745703 C6.06871094,5.19358984 5.33144531,5.03566016 4.58335937,4.99995703 C3.0275,4.99995703 -1.4033219e-13,7.20577734 -1.4033219e-13,11.249957 C-1.4033219e-13,15.0932773 2.80335937,19.999957 5,19.999957 C5.83820312,20.007457 6.66625,19.8167148 7.41671875,19.4432773 C7.69933594,19.287418 8.01171875,19.1931211 8.33335937,19.1665977 C8.65503906,19.1931211 8.96746094,19.287418 9.25003906,19.4432773 C10.0004687,19.8167148 10.8285547,20.007457 11.6667187,19.999957 C13.4083984,19.999957 15.3742578,17.009957 16.1975781,14.2391758 C16.2320312,14.1227695 16.2140625,13.9970664 16.1482812,13.8949961"/>
    <path d="M7.91662109,5 C10.4467383,4.99722656 12.497207,2.94683594 12.4999414,0.416679688 C12.4999414,0.1865625 12.313418,0 12.0833008,0 C9.55314453,0.0027734375 7.50271484,2.05316406 7.49998046,4.58332031 C7.49998046,4.8134375 7.68650391,5 7.91662109,5"/>
  </g>
</svg>
