<?xml version="1.0" encoding="UTF-8"?>
<svg width="16px" height="16px" viewBox="0 0 16 16" version="1.1" xmlns="http://www.w3.org/2000/svg" xmlns:xlink="http://www.w3.org/1999/xlink">
    <!-- Generator: sketchtool 62 (101010) - https://sketch.com -->
    <title>AC591397-0447-4BAF-BE87-EDE1FBE45902</title>
    <desc>Created with sketchtool.</desc>
    <g id="IO-dono" stroke="none" stroke-width="1" fill="none" fill-rule="evenodd">
        <g id="IO-Dono-01---lista" transform="translate(-183.000000, -1265.000000)" fill="#5C6F82" fill-rule="nonzero">
            <g id="Group-11-Copy" transform="translate(159.000000, 840.000000)">
                <g id="Group-15" transform="translate(24.000000, 424.000000)">
                    <g id="icon-tag" transform="translate(0.000000, 1.000000)">
                        <path d="M14.2775879,0 L8.20544434,0 C8.08117675,0 7.96191406,0.0494384687 7.87402344,0.137329094 L0.503540031,7.50756837 C-0.167846688,8.17919922 -0.167846688,9.27185059 0.503540031,9.94323731 L6.05664062,15.4962158 C6.38085937,15.8204346 6.8133545,15.9991455 7.274292,15.9991455 L7.27441406,15.9991455 C7.73547362,15.9991455 8.16796875,15.8204346 8.49230956,15.4960938 L15.8625488,8.12573244 C15.9504394,8.03784181 16,7.91857909 16,7.79431153 L16,1.72216797 C16,0.772583 15.2271728,0 14.2775879,0 Z M15.0625,7.60021972 L7.82934569,14.8332519 C7.68212891,14.9805908 7.48498534,15.0616455 7.27441406,15.0616455 C7.06372069,15.0616455 6.86669922,14.9805908 6.71948244,14.833374 L1.16638184,9.2803955 C0.860473625,8.97448731 0.860473625,8.47644044 1.16638184,8.17041016 L8.39953612,0.9375 L14.2775879,0.9375 C14.7103272,0.9375 15.0625,1.28955078 15.0625,1.72229003 L15.0625,7.60021972 Z" id="Shape"></path>
                        <path d="M11.8682861,2.65869141 C11.4748535,2.65869141 11.1049805,2.81201172 10.8267822,3.09020997 C10.548584,3.36828613 10.3953858,3.73815919 10.3953858,4.13159181 C10.3953858,4.52502441 10.548584,4.89489747 10.8267822,5.17309569 C11.1049805,5.45129394 11.4748535,5.60449219 11.8682861,5.60449219 C12.2615967,5.60449219 12.6314697,5.45129394 12.909668,5.17309569 C13.1878662,4.89489747 13.3410644,4.52502441 13.3410644,4.13159181 C13.3410644,3.73815919 13.1878662,3.36828613 12.90979,3.09020997 C12.6315918,2.81201172 12.2617188,2.65869141 11.8682861,2.65869141 L11.8682861,2.65869141 Z M12.2468262,4.51013184 C12.1457519,4.61132812 12.0112305,4.66699219 11.8682861,4.66699219 C11.7252197,4.66699219 11.5908203,4.61132812 11.4897461,4.51013184 C11.3885498,4.40905762 11.3328858,4.27453613 11.3328858,4.13159181 C11.3328858,3.98864747 11.3885498,3.85412597 11.4897461,3.75305175 C11.5908203,3.65185547 11.7253418,3.59619141 11.8682861,3.59619141 C12.0112305,3.59619141 12.1456299,3.65185547 12.2468262,3.75305175 C12.3480225,3.85412597 12.4036865,3.98864747 12.4036865,4.13159181 C12.4036865,4.27453613 12.3479004,4.40905762 12.2468262,4.51013184 L12.2468262,4.51013184 Z" id="Shape"></path>
                    </g>
                </g>
            </g>
        </g>
    </g>
</svg>