<?xml version="1.0" encoding="UTF-8"?>
<svg width="215px" height="152px" viewBox="0 0 215 152" version="1.1" xmlns="http://www.w3.org/2000/svg" xmlns:xlink="http://www.w3.org/1999/xlink">
    <!-- Generator: Sketch 48.2 (47327) - http://www.bohemiancoding.com/sketch -->
    <title>Group 25</title>
    <desc>Created with Sketch.</desc>
    <defs></defs>
    <g id="io.italia.it---preview---pa" stroke="none" stroke-width="1" fill="none" fill-rule="evenodd" transform="translate(-652.000000, -2794.000000)">
        <g id="Group-25" transform="translate(654.000000, 2796.000000)">
            <path d="M117.488543,73.2253968 L117.282272,74.1126984 C117.982234,74.3603175 118.661609,74.5460317 119.299809,74.6698413 C119.93801,74.7936508 120.57621,74.8555556 121.193824,74.8555556 C122.71727,74.8555556 123.952497,74.5460317 124.85833,73.9063492 C125.764163,73.2666667 126.21708,72.4206349 126.21708,71.347619 C126.21708,70.7285714 126.011209,70.2126984 125.64064,69.7793651 C125.249485,69.3460317 124.652459,68.9952381 123.828974,68.6857143 L122.840793,68.3349206 L122.779032,68.3142857 C121.749676,67.9222222 121.234998,67.5301587 121.234998,67.1380952 C121.234998,66.7253968 121.440869,66.3952381 121.852612,66.1269841 C122.264354,65.8587302 122.820206,65.7349206 123.478994,65.7349206 C124.096607,65.7349206 124.673046,65.8174603 125.187724,65.9619048 C125.702402,66.1063492 126.134731,66.3333333 126.525886,66.6222222 L126.99939,64.6206349 C126.484712,64.4349206 125.970034,64.2904762 125.414182,64.1873016 C124.884646,64.0852312 124.314812,64.0437476 123.744547,64.0428713 L124.178955,62.1238095 L115.244148,62.1238095 L114.688296,64.5793651 L117.920473,64.5793651 L115.902936,73.2253968 L117.488543,73.2253968 Z M120.921832,64.5793651 C120.724186,64.6715361 120.536354,64.7759501 120.358194,64.8928889 L120.432101,64.5793651 L120.921832,64.5793651 Z M119.393802,68.9839856 C119.759059,69.3197825 120.443298,69.6733833 121.482043,70.0269841 L122.511399,70.3571429 C122.902554,70.4809524 123.190774,70.6666667 123.396645,70.8730159 C123.581929,71.0793651 123.684865,71.3269841 123.684865,71.615873 C123.684865,72.0904762 123.478994,72.4619048 123.046664,72.7301587 C122.614335,72.9984127 122.017308,73.1428571 121.276172,73.1428571 C120.679146,73.1428571 120.08212,73.0603175 119.485093,72.8539683 C119.172084,72.7457834 118.870392,72.6149108 118.574085,72.4613505 L119.393802,68.9839856 Z M200.44186,71 L204.460465,71 L204.460465,62.5 L192.404651,62.5 L192.404651,65.5 L188.386047,65.5 L188.386047,74 L200.44186,74 L200.44186,71 Z M208.981395,79 L109.018605,79 L109.018605,119.5 C109.018605,121.432997 110.592896,123 112.534884,123 L205.465116,123 C207.407104,123 208.981395,121.432997 208.981395,119.5 L208.981395,79 Z M112.534884,56 L205.465116,56 C209.626518,56 213,59.3578644 213,63.5 L213,119.5 C213,123.642136 209.626518,127 205.465116,127 L112.534884,127 C108.373482,127 105,123.642136 105,119.5 L105,63.5 C105,59.3578644 108.373482,56 112.534884,56 Z M119.823628,96 L125.851535,96 L127.348465,96 L133.376372,96 C134.625153,96 135.64186,94.988 135.64186,93.745 L135.64186,85.745 L135.64186,84.255 C135.64186,83.012 134.625153,82 133.376372,82 L125.851535,82 L119.823628,82 C118.574847,82 117.55814,83.012 117.55814,84.255 L117.55814,93.745 C117.55814,94.988 118.574847,96 119.823628,96 Z M123.586047,90 L119.567442,90 L119.567442,88 L123.586047,88 L123.586047,90 Z M119.567442,93.745 L119.567442,92 L123.586047,92 L123.586047,93.745 C123.586047,93.832 123.602121,93.915 123.612167,94 L119.823628,94 C119.681972,94 119.567442,93.886 119.567442,93.745 Z M133.632558,90 L129.613953,90 L129.613953,88.255 C129.613953,88.114 129.728484,88 129.87014,88 L133.376372,88 C133.463777,88 133.547163,87.984 133.632558,87.974 L133.632558,90 Z M133.376372,94 L129.587833,94 C129.597879,93.915 129.613953,93.832 129.613953,93.745 L129.613953,92 L133.632558,92 L133.632558,93.745 C133.632558,93.886 133.518028,94 133.376372,94 Z M133.376372,84 C133.518028,84 133.632558,84.114 133.632558,84.255 L133.632558,85.745 C133.632558,85.886 133.518028,86 133.376372,86 L129.87014,86 C128.621358,86 127.604651,87.012 127.604651,88.255 L127.604651,93.745 C127.604651,93.886 127.490121,94 127.348465,94 L125.851535,94 C125.709879,94 125.595349,93.886 125.595349,93.745 L125.595349,84.255 C125.595349,84.114 125.709879,84 125.851535,84 L133.376372,84 Z M119.823628,84 L123.612167,84 C123.602121,84.085 123.586047,84.168 123.586047,84.255 L123.586047,86 L119.567442,86 L119.567442,84.255 C119.567442,84.114 119.681972,84 119.823628,84 Z M165,88 L195,88 C195.552285,88 196,88.4477153 196,89 C196,89.5522847 195.552285,90 195,90 L165,90 C164.447715,90 164,89.5522847 164,89 C164,88.4477153 164.447715,88 165,88 Z M146,112 L176,112 C176.552285,112 177,112.447715 177,113 C177,113.552285 176.552285,114 176,114 L146,114 C145.447715,114 145,113.552285 145,113 C145,112.447715 145.447715,112 146,112 Z M173,104 L191,104 C191.552285,104 192,104.447715 192,105 C192,105.552285 191.552285,106 191,106 L173,106 C172.447715,106 172,105.552285 172,105 C172,104.447715 172.447715,104 173,104 Z M162,96 L187,96 C187.552285,96 188,96.4477153 188,97 C188,97.5522847 187.552285,98 187,98 L162,98 C161.447715,98 161,97.5522847 161,97 C161,96.4477153 161.447715,96 162,96 Z M146,88 L160,88 C160.552285,88 161,88.4477153 161,89 C161,89.5522847 160.552285,90 160,90 L146,90 C145.447715,90 145,89.5522847 145,89 C145,88.4477153 145.447715,88 146,88 Z M146,104 L167,104 C167.552285,104 168,104.447715 168,105 C168,105.552285 167.552285,106 167,106 L146,106 C145.447715,106 145,105.552285 145,105 C145,104.447715 145.447715,104 146,104 Z M146,96 L158,96 C158.552285,96 159,96.4477153 159,97 C159,97.5522847 158.552285,98 158,98 L146,98 C145.447715,98 145,97.5522847 145,97 C145,96.4477153 145.447715,96 146,96 Z" id="Combined-Shape" fill="#0BD9D3"></path>
            <g id="user-decorative-icon" fill="#FFFFFF" stroke="#0BD9D3" stroke-linecap="round" stroke-linejoin="round" stroke-width="4">
                <path d="M66,72.7065527 C45.9520636,72.7065527 29.7,56.4306365 29.7,36.3532764 C29.7,16.2759162 45.9520636,0 66,0 C86.0479364,0 102.3,16.2759162 102.3,36.3532764 C102.3,56.4306365 86.0479364,72.7065527 66,72.7065527 Z M0,148 C0,111.495709 29.5492065,81.9031339 66,81.9031339 C102.450793,81.9031339 132,111.495709 132,148" id="Combined-Shape"></path>
            </g>
        </g>
    </g>
</svg>