<svg xmlns="http://www.w3.org/2000/svg" xmlns:xlink="http://www.w3.org/1999/xlink" width="55" height="69" viewBox="0 0 55 69">
  <defs>
    <polygon id="ic-documenti-white-a" points="0 .15 54.596 .15 54.596 68.293 0 68.293"/>
  </defs>
  <g fill="none" fill-rule="evenodd">
    <mask id="ic-documenti-white-b" fill="#fff">
      <use xlink:href="#ic-documenti-white-a"/>
    </mask>
    <path fill="#FFF" d="M51.7787412,59.8123827 C51.7787412,62.8893058 49.2659512,65.3658537 46.1438096,65.3658537 L8.52829506,65.3658537 C5.40634384,65.3658537 2.89355384,62.8893058 2.89355384,59.8123827 L2.89355384,8.48030019 C2.89355384,5.40337711 5.40634384,2.92682927 8.52829506,2.92682927 L38.8340654,2.92682927 L38.8340654,15.8348968 C38.8340654,16.5853659 39.4432267,17.260788 40.2808233,17.260788 L51.7787412,17.260788 L51.7787412,59.8123827 Z M41.651436,5.1782364 L50.0274027,14.4090056 L41.651436,14.4090056 L41.651436,5.1782364 Z M54.3676764,15.1594747 C54.2915312,15.0844278 54.2915312,15.0093809 54.2153861,14.934334 L41.2707103,0.600375235 C41.1943748,0.52532833 41.0422748,0.450281426 40.9661297,0.375234522 C40.8899845,0.375234522 40.8899845,0.300187617 40.813649,0.300187617 C40.6615491,0.225140713 40.4329233,0.150093809 40.2808233,0.150093809 L8.52829506,0.150093809 C3.80729566,0.150093809 3.80725758e-05,3.90243902 3.80725758e-05,8.55534709 L3.80725758e-05,59.8874296 C3.80725758e-05,64.5403377 3.80729566,68.2926829 8.52829506,68.2926829 L46.0678548,68.2926829 C50.7888543,68.2926829 54.5961118,64.5403377 54.5961118,59.8874296 L54.5961118,15.8348968 C54.5961118,15.684803 54.5197763,15.4596623 54.5197763,15.3095685 C54.4438215,15.2345216 54.4438215,15.1594747 54.3676764,15.1594747 L54.3676764,15.1594747 Z" mask="url(#ic-documenti-white-b)"/>
    <path fill="#FFF" d="M22.0317383 14L10.3456686 14C9.63742198 14 9 14.5990586 9 15.4227642 9 16.2464698 9.56659732 16.8455285 10.3456686 16.8455285L22.0317383 16.8455285C22.7399849 16.8455285 23.3774069 16.2464698 23.3774069 15.4227642 23.3774069 14.5990586 22.7399849 14 22.0317383 14M22.0317383 51L10.3456686 51C9.63742198 51 9 51.5990586 9 52.4227642 9 53.1715875 9.56659732 53.8455285 10.3456686 53.8455285L22.0317383 53.8455285C22.7399849 53.8455285 23.3774069 53.2464698 23.3774069 52.4227642 23.3065823 51.6739409 22.7399849 51 22.0317383 51M43.5148001 21L10.4287172 21C9.67676079 21 9 21.5990586 9 22.4227642 9 23.1715875 9.60156514 23.8455285 10.4287172 23.8455285L43.5148001 23.8455285C44.2667565 23.8455285 44.9435173 23.2464698 44.9435173 22.4227642 44.8683217 21.6739409 44.2667565 21 43.5148001 21M43.5148001 29L10.4287172 29C9.67676079 29 9 29.5990586 9 30.4227642 9 31.1715875 9.60156514 31.8455285 10.4287172 31.8455285L43.5148001 31.8455285C44.2667565 31.8455285 44.9435173 31.2464698 44.9435173 30.4227642 44.8683217 29.6739409 44.2667565 29 43.5148001 29M43.5148001 36L10.4287172 36C9.67676079 36 9 36.5990586 9 37.4227642 9 38.1715875 9.60156514 38.8455285 10.4287172 38.8455285L43.5148001 38.8455285C44.2667565 38.8455285 44.9435173 38.2464698 44.9435173 37.4227642 44.8683217 36.6739409 44.2667565 36 43.5148001 36M43.5148001 44L10.4287172 44C9.67676079 44 9 44.5990586 9 45.4227642 9 46.1715875 9.60156514 46.8455285 10.4287172 46.8455285L43.5148001 46.8455285C44.2667565 46.8455285 44.9435173 46.2464698 44.9435173 45.4227642 44.8683217 44.6739409 44.2667565 44 43.5148001 44"/>
  </g>
</svg>
