<svg xmlns="http://www.w3.org/2000/svg" xmlns:xlink="http://www.w3.org/1999/xlink" width="66" height="66" viewBox="0 0 66 66">
  <defs>
    <polygon id="entra-a" points="0 .002 27.912 .002 27.912 66 0 66"/>
    <polygon id="entra-c" points=".087 .002 40.912 .002 40.912 21.959 .087 21.959"/>
  </defs>
  <g fill="none" fill-rule="evenodd">
    <path fill="#FFF" d="M63.9544961,31 L38.0455039,31 C36.9163858,31 36,30.103972 36,28.9999375 C36,27.896028 36.9163858,27 38.0455039,27 L63.9544961,27 C65.0836142,27 66,27.896028 66,28.9999375 C66,30.103972 65.0836142,31 63.9544961,31"/>
    <path fill="#FFF" d="M53.9994018,41 C53.487193,41 52.9756091,40.7970396 52.5858904,40.3892961 C51.8047032,39.575111 51.8047032,38.2560634 52.5858904,37.4423991 L61.1719505,28.4999024 L52.5858904,19.5570151 C51.8047032,18.7434809 51.8047032,17.4243032 52.5858904,16.6106388 C53.3675776,15.7964537 54.6341008,15.7964537 55.4151631,16.6106388 L65.4141096,27.0252822 C66.1952968,27.8388163 66.1952968,29.1579941 65.4141096,29.9716584 L55.4151631,40.3861716 C55.0230696,40.7970396 54.5116107,41 53.9994018,41"/>
    <mask id="entra-b" fill="#fff">
      <use xlink:href="#entra-a"/>
    </mask>
    <path fill="#FFF" d="M5.58253271,4.12690781 C4.81488785,4.12690781 4.18685047,4.74578672 4.18685047,5.50207969 L4.18685047,55.0005328 C4.18685047,55.586025 4.58591589,56.1303961 5.15520561,56.325818 L21.8743458,61.814775 C21.9944579,61.8529313 22.1508131,61.8751031 22.3296729,61.8751031 C23.0973178,61.8751031 23.7249626,61.2563531 23.7249626,60.4999313 L23.7249626,11.001607 C23.7249626,10.4159859 23.3257664,9.87161484 22.7564766,9.67632187 L6.03746729,4.18736484 C5.91735514,4.14907969 5.76086916,4.12690781 5.58253271,4.12690781 M22.3296729,65.9999742 C21.7322523,65.9999742 21.1654486,65.9174742 20.5991682,65.7442242 L3.80139252,60.2306461 C1.51585981,59.4440602 -6.54205607e-05,57.345982 -6.54205607e-05,55.0005328 L-6.54205607e-05,5.50207969 C-6.54205607e-05,2.46878672 2.50384112,0.00203671875 5.58253271,0.00203671875 C6.17942991,0.00203671875 6.74636449,0.084665625 7.31303738,0.257786719 L24.1102897,5.77149375 C26.3963458,6.55795078 27.9117477,8.65615781 27.9117477,11.001607 L27.9117477,60.4999312 C27.9117477,63.5332242 25.4084953,65.9999742 22.3296729,65.9999742" mask="url(#entra-b)"/>
    <g transform="translate(3)">
      <mask id="entra-d" fill="#fff">
        <use xlink:href="#entra-c"/>
      </mask>
      <path fill="#FFF" d="M38.8361212,21.9586246 C37.6901972,21.9586246 36.7601718,21.0365544 36.7601718,19.900145 L36.7601718,7.54978246 C36.7601718,5.65868304 35.2077509,4.1188117 33.300732,4.1188117 L2.16239968,4.1188117 C1.01660538,4.1188117 0.0865800633,3.19674152 0.0865800633,2.06046082 C0.0865800633,0.924180117 1.01660538,0.00198128655 2.16239968,0.00198128655 L33.300732,0.00198128655 C37.4995991,0.00198128655 40.9119408,3.38625029 40.9119408,7.54978246 L40.9119408,19.900145 C40.9119408,21.0365544 39.9819155,21.9586246 38.8361212,21.9586246" mask="url(#entra-d)"/>
    </g>
    <path fill="#FFF" d="M37.3003719,58 L26.1000656,58 C24.9408294,58 24,57.0759801 24,55.9374557 C24,54.7990601 24.9408294,53.8750403 26.1000656,53.8750403 L37.3003719,53.8750403 C39.2295447,53.8750403 40.8,52.3321282 40.8,50.4374235 L40.8,38.0625443 C40.8,36.9240199 41.7408294,36 42.9000656,36 C44.0591706,36 45,36.9240199 45,38.0625443 L45,50.4374235 C45,54.6091772 41.5480171,58 37.3003719,58"/>
  </g>
</svg>
