<?xml version="1.0" encoding="UTF-8"?>
<svg width="48px" height="50px" viewBox="0 0 48 50" version="1.1" xmlns="http://www.w3.org/2000/svg" xmlns:xlink="http://www.w3.org/1999/xlink">
    <title>6A17D914-2986-4FE2-9C1E-FA5194DFD7DE</title>
    <g id="Page-1" stroke="none" stroke-width="1" fill="none" fill-rule="evenodd">
        <g id="dashboard-12012021-review" transform="translate(-922.000000, -2354.000000)" fill="#0074E6" fill-rule="nonzero">
            <g id="Group-7" transform="translate(245.000000, 2299.000000)">
                <path d="M703.43936,56.2802406 C705.084179,54.5733504 707.760854,54.5731558 709.405861,56.2802406 L709.405861,56.2802406 L723.766245,71.182548 C725.411252,72.8896328 725.411252,75.6671238 723.766245,77.3741113 L723.766245,77.3741113 L717.747336,83.6201581 L717.747336,100.433182 C717.747336,102.847288 715.854725,104.811321 713.528409,104.811321 L713.528409,104.811321 L681.218927,104.811321 C678.892611,104.811321 677,102.847288 677,100.433182 L677,100.433182 L677,79.358089 C677,76.9439835 678.892611,74.9799507 681.218927,74.9799507 L681.218927,74.9799507 L685.41976,74.9799507 Z M713.528409,77.8987096 L681.218927,77.8987096 C680.443488,77.8987096 679.812618,78.5533872 679.812618,79.358089 L679.812618,79.358089 L679.812618,100.433182 C679.812618,101.237884 680.443488,101.892562 681.218927,101.892562 L681.218927,101.892562 L713.528409,101.892562 C714.303848,101.892562 714.934718,101.237884 714.934718,100.433182 L714.934718,100.433182 L714.934718,79.358089 C714.934718,78.5533872 714.303848,77.8987096 713.528409,77.8987096 L713.528409,77.8987096 Z M687.858487,94.5563586 L687.858487,97.4751175 L682.625236,97.4751175 L682.625236,94.5563586 L687.858487,94.5563586 Z M695.946358,94.5563586 L695.946358,97.4751175 L690.713107,97.4751175 L690.713107,94.5563586 L695.946358,94.5563586 Z M704.034323,94.5563586 L704.034323,97.4751175 L698.800978,97.4751175 L698.800978,94.5563586 L704.034323,94.5563586 Z M712.1221,94.5563586 L712.1221,97.4751175 L706.888849,97.4751175 L706.888849,94.5563586 L712.1221,94.5563586 Z M692.119416,82.3162512 L692.119416,91.072528 L682.625236,91.072528 L682.625236,82.3162512 L692.119416,82.3162512 Z M689.306798,85.2350101 L685.437854,85.2350101 L685.437854,88.153769 L689.306798,88.153769 L689.306798,85.2350101 Z M720.783089,72.2144266 L716.689229,76.4627775 C717.346913,77.2350811 717.747336,78.2487661 717.747336,79.358089 L717.747336,79.358089 L717.747336,79.4925465 L721.777443,75.3103542 C722.32581,74.7412935 722.32581,73.8153659 721.777443,73.2463052 L721.777443,73.2463052 L720.783089,72.2144266 Z M716.80539,68.0866204 L710.16283,74.9799507 L713.528409,74.9799507 C713.722573,74.9799507 713.913363,74.9948363 714.100683,75.0212998 L714.100683,75.0212998 L718.794286,70.1505722 L716.80539,68.0866204 Z M706.422704,57.9172752 C706.062595,57.9172752 705.702487,58.0596134 705.428256,58.3440951 L705.428256,58.3440951 L689.397271,74.9799507 L706.185226,74.9799507 L714.816588,66.0228633 L707.417059,58.3440951 C707.142922,58.0596134 706.782813,57.9172752 706.422704,57.9172752 Z" id="icon-cards"></path>
            </g>
        </g>
    </g>
</svg>