<?xml version="1.0" encoding="UTF-8"?>
<svg width="19px" height="20px" viewBox="0 0 19 20" version="1.1" xmlns="http://www.w3.org/2000/svg" xmlns:xlink="http://www.w3.org/1999/xlink">
    <!-- Generator: sketchtool 62 (101010) - https://sketch.com -->
    <title>E7DF1D22-E1A8-4069-B94E-A3CD44DA3D5E</title>
    <desc>Created with sketchtool.</desc>
    <g id="IO-dono" stroke="none" stroke-width="1" fill="none" fill-rule="evenodd">
        <g id="IO-Dono-01---lista" transform="translate(-364.000000, -775.000000)" fill="#FFFFFF" fill-rule="nonzero">
            <g id="icon-tags" transform="translate(364.000000, 775.000000)">
                <path d="M16.8581818,2.68435606 L16.8581818,1.93026515 C16.8581818,0.865909091 15.9922727,0 14.9279167,0 L9.55950758,0 C9.04386364,0 8.55916667,0.200795455 8.19458333,0.565416667 L0.602234848,8.15780303 C0.237613636,8.52238636 0.0368181818,9.00712121 0.0368181818,9.52272727 C0.0368181818,10.0383333 0.237613636,10.5230682 0.602234848,10.8876515 L1.37371212,11.6591288 C1.34102273,11.800947 1.32371212,11.9473485 1.32371212,12.0964394 C1.32371212,12.6120455 1.52450758,13.0967803 1.88912879,13.4613636 L7.25742424,18.8295455 C7.63371212,19.2057955 8.1280303,19.3939394 8.62231061,19.3939394 C9.11659091,19.3939394 9.61090909,19.2057955 9.98719697,18.8294697 L17.5796212,11.2370455 C17.9442424,10.8724242 18.1450379,10.3877273 18.1450379,9.87212121 L18.1450379,4.50393939 C18.1450379,3.66515152 17.6070455,2.94996212 16.8581818,2.68435606 Z M1.51215909,9.97768939 C1.39064394,9.85617424 1.32367424,9.69458333 1.32367424,9.52268939 C1.32367424,9.35079545 1.39064394,9.1892803 1.51215909,9.06768939 L9.10454545,1.47530303 C9.22609848,1.35382576 9.38765152,1.28685606 9.55954545,1.28685606 L14.9278788,1.28685606 C15.2826515,1.28685606 15.5712879,1.57549242 15.5712879,1.93026515 L15.5712879,2.57367424 L10.8463636,2.57367424 C10.3307197,2.57367424 9.84602273,2.7744697 9.48143939,3.13909091 L2.07757576,10.5430303 L1.51215909,9.97768939 Z M16.669697,10.3271212 L9.07727273,17.9195455 C8.82632576,18.1704545 8.41818182,18.1703788 8.16734848,17.9195455 L2.79901515,12.5513636 C2.6775,12.4298485 2.6105303,12.2682576 2.6105303,12.0963636 C2.6105303,11.9244697 2.6775,11.7629545 2.79901515,11.6413636 L10.3914015,4.04893939 C10.5129545,3.92746212 10.6745076,3.86049242 10.8464015,3.86049242 L16.2147348,3.86049242 C16.5695076,3.86049242 16.8581818,4.14912879 16.8581818,4.50390152 L16.8581818,9.87208333 L16.8581818,9.87208333 C16.8581818,10.0439773 16.7912121,10.2055682 16.669697,10.3271212 Z" id="Shape"></path>
                <path d="M13.6410606,5.14738636 C12.5767045,5.14738636 11.7107955,6.01329545 11.7107955,7.07765152 C11.7107955,8.14200758 12.5767045,9.00791667 13.6410606,9.00791667 C14.7054167,9.00791667 15.5713258,8.14200758 15.5713258,7.07765152 C15.5713258,6.01329545 14.7054167,5.14738636 13.6410606,5.14738636 Z M13.6410606,7.72109848 C13.2862879,7.72109848 12.9976515,7.43246212 12.9976515,7.07768939 C12.9976515,6.72291667 13.2862879,6.4342803 13.6410606,6.4342803 C13.9958333,6.4342803 14.2844697,6.72291667 14.2844697,7.07768939 C14.2844697,7.43246212 13.9958333,7.72109848 13.6410606,7.72109848 Z" id="Shape"></path>
            </g>
        </g>
    </g>
</svg>