<?xml version="1.0" encoding="UTF-8"?>
<svg width="37px" height="24px" viewBox="0 0 37 24" version="1.1" xmlns="http://www.w3.org/2000/svg" xmlns:xlink="http://www.w3.org/1999/xlink">
    <!-- Generator: sketchtool 62 (101010) - https://sketch.com -->
    <title>0B9FAF67-2427-4C06-9075-BCC9F7E93E4E</title>
    <desc>Created with sketchtool.</desc>
    <g id="IO-dono" stroke="none" stroke-width="1" fill="none" fill-rule="evenodd">
        <g id="IO-Dono-02---dettaglio" transform="translate(-439.000000, -2043.000000)" fill="#FFFFFF" fill-rule="nonzero">
            <g id="Group-2-Copy-3" transform="translate(191.000000, 2022.000000)">
                <g id="Group-31" transform="translate(178.000000, 18.055556)">
                    <g id="icon-pagopa-logo" transform="translate(70.000000, 3.000000)">
                        <path d="M25.658427,7.09213483 L27.5892135,7.09213483 C28.8710112,7.09213483 29.5119101,6.74157303 29.5119101,6.04044944 L29.5119101,1.07865169 C29.5119101,0.373932584 28.8494382,0.0224719101 27.5244944,0.0242628013 L23.4417978,0.0242628013 L23.4417978,10.1851685 L25.6503371,10.1851685 L25.658427,7.09213483 Z M25.658427,1.20539326 L27.3141573,1.20539326 L27.3141573,5.91370787 L25.658427,5.91370787 L25.658427,1.20539326 Z" id="Shape"></path>
                        <path d="M3.64044944,3.10382022 L0.221123596,3.10382022 L0.221123596,13.2997753 L2.07101124,13.2997753 L2.07101124,10.2795506 L2.07101124,10.1905618 L3.68898876,10.1905618 C4.76764045,10.1905618 5.30696629,9.83910112 5.30696629,9.13617978 L5.30696629,4.16089888 C5.29797753,3.45617978 4.74247191,3.10382022 3.64044944,3.10382022 Z M3.45438202,9.0094382 L2.07101124,9.0094382 L2.07101124,4.28494382 L3.45438202,4.28494382 L3.45438202,9.0094382 Z" id="Shape"></path>
                        <path d="M11.0157303,4.16089888 C11.0157303,3.45707865 10.4764045,3.10382022 9.39775281,3.10382022 L7.58561798,3.12269663 C6.50696629,3.12269663 5.96764045,3.4705618 5.96764045,4.16629213 L5.96764045,5.24494382 L7.78247191,5.24494382 L7.78247191,4.30382022 L9.16853933,4.30382022 L9.16853933,6.01617978 L7.5505618,6.01617978 C6.47191011,6.01617978 5.93258427,6.36853933 5.93258427,7.07325843 L5.93258427,9.14426966 C5.93258427,9.85438202 6.45033708,10.2139326 7.4858427,10.2229213 L10.9914607,10.2229213 L11.0157303,4.16089888 Z M7.77977528,9.01483146 L7.77977528,7.19460674 L9.16853933,7.19460674 L9.16853933,9.01483146 L7.77977528,9.01483146 Z" id="Shape"></path>
                        <path d="M13.4373034,13.2997753 L15.2844944,13.2997753 C16.3631461,13.2997753 16.9024719,12.9492135 16.9024719,12.2426966 L16.9024719,3.10382022 L13.4831461,3.10382022 C12.3793258,3.10382022 11.825618,3.45617978 11.8220225,4.16089888 L11.8220225,9.13617978 C11.8220225,9.84 12.3613483,10.1905618 13.44,10.1905618 L15.0579775,10.1905618 L15.0579775,10.2660674 L15.0579775,12.1186517 L13.6692135,12.1186517 L13.6692135,11.185618 L11.8220225,11.185618 L11.8220225,12.2426966 C11.8220225,12.9438202 12.3613483,13.2997753 13.4373034,13.2997753 Z M13.6692135,9.0094382 L13.6692135,4.28494382 L15.0552809,4.28494382 L15.0552809,9.0094382 L13.6692135,9.0094382 Z" id="Shape"></path>
                        <path d="M19.1622472,10.1932584 L20.952809,10.1932584 C22.0566292,10.1932584 22.6103371,9.84089888 22.6139326,9.13617978 L22.6139326,4.16089888 C22.6139326,3.45707865 22.0746067,3.10382022 20.9959551,3.10382022 L19.1514607,3.10382022 C18.072809,3.10382022 17.5334654,3.45617978 17.5334654,4.16089888 L17.5334654,9.13617978 C17.5298876,9.83910112 18.072809,10.1914607 19.1622472,10.1932584 Z M19.3806742,4.28494382 L20.7775281,4.28494382 L20.7775281,9.0094382 L19.3914607,9.0094382 L19.3806742,4.28494382 Z" id="Shape"></path>
                        <path d="M36.3208989,1.09483146 C36.3208989,0.391910112 35.6808989,0.0395505618 34.4008989,0.037752809 L32.1950562,0.037752809 C30.8979775,0.037752809 30.2534831,0.391011236 30.2534831,1.09483146 L30.2534831,10.1959551 L32.4593258,10.1959551 L32.4593258,7.08404494 L34.1258427,7.08404494 L34.1258427,9.68629213 C34.1287071,12.8828886 32.8603171,15.9494233 30.6002341,18.2100121 C28.3401512,20.4706009 25.2739004,21.7396771 22.0773034,21.7375281 C18.3373502,21.7419439 14.8023918,20.0291393 12.4880899,17.091236 L13.5910112,16.2525843 L9.35460674,13.3914607 L9.35460674,19.5640449 L10.7676404,18.4368539 C14.518254,23.2421386 20.903834,25.1397266 26.6699857,23.1625169 C32.4361374,21.1853073 36.3136231,15.7685208 36.3262921,9.67280899 L36.3208989,1.09483146 Z M34.1258427,5.90292135 L32.4593258,5.90292135 L32.4593258,1.2188764 L34.1258427,1.2188764 L34.1258427,5.90292135 Z" id="Shape"></path>
                    </g>
                </g>
            </g>
        </g>
    </g>
</svg>