<svg xmlns="http://www.w3.org/2000/svg" xmlns:xlink="http://www.w3.org/1999/xlink" width="50" height="48" viewBox="0 0 50 48">
  <defs>
    <path id="dashboard-bonus-3-copy-a" d="M35.9114941,-0.000101341392 C37.3870801,-0.000101341392 38.587666,1.1325269 38.5875684,2.52468124 L38.5875684,2.52468124 L38.5875684,20.5702664 C38.9354199,20.4501308 39.3040723,20.3888653 39.672041,20.3888653 C40.8749707,20.3888653 42.0890332,21.0392928 42.5325879,22.2928858 C42.9305371,22.1283443 43.3627637,22.0445994 43.7938184,22.0445994 C45.2599316,22.0445994 46.7434277,23.0099222 46.8271191,24.8570073 C47.1759473,24.7358583 47.5462598,24.6742243 47.9155957,24.6742243 C49.4249707,24.6742243 50.9530957,25.6972196 50.9530957,27.6521871 L50.9530957,27.6521871 L50.9530957,36.9881246 C50.9530957,37.0212909 50.9511426,37.0546414 50.947334,37.0877156 C50.7536816,38.7698906 50.303584,39.5949937 49.9421582,40.2580428 C49.6106152,40.8656305 49.3917676,41.2670346 49.3917676,42.3050468 L49.3917676,42.3050468 L49.3917676,45.2847601 C49.3917676,46.3241543 48.4954785,47.1698021 47.3938184,47.1698021 L47.3938184,47.1698021 L45.6746777,47.1698021 C45.1354199,47.1698021 44.6981152,46.7571584 44.6981152,46.2483325 C44.6981152,45.7395066 45.1354199,45.326955 45.6746777,45.326955 L45.6746777,45.326955 L47.393916,45.326955 C47.4154004,45.326955 47.4387402,45.3048441 47.4387402,45.284668 L47.4387402,45.284668 L47.4387402,42.3049547 C47.4387402,40.8206718 47.828584,40.1059386 48.2054395,39.4148824 C48.5190137,38.8398161 48.8433301,38.2454949 49.0000684,36.9370854 L49.0000684,36.9370854 L49.0000684,27.6520029 C49.0000684,27.2718805 48.8868848,26.9788196 48.6637402,26.7809276 C48.4745801,26.6130694 48.2019238,26.516795 47.9158887,26.516795 C47.7346387,26.516795 46.831416,26.5715194 46.831416,27.6520029 L46.831416,27.6520029 L46.831416,31.1618238 C46.831416,31.6706497 46.3941113,32.0832013 45.8548535,32.0832013 C45.3156934,32.0832013 44.878291,31.6706497 44.878291,31.1618238 L44.878291,31.1618238 L44.878291,25.0222859 C44.878291,24.6421635 44.7651074,24.3491948 44.5419629,24.1511184 C44.3528027,23.9833524 44.0801465,23.8871702 43.7940137,23.8871702 C43.6128613,23.8871702 42.7096387,23.9418945 42.7096387,25.0222859 L42.7096387,25.0222859 L42.7096387,30.1878409 C42.7096387,30.6966668 42.272334,31.1092184 41.7330762,31.1092184 C41.193916,31.1092184 40.7565137,30.6966668 40.7565137,30.1878409 L40.7565137,30.1878409 L40.7565137,23.3667361 C40.7565137,22.9866137 40.6433301,22.6935528 40.4201855,22.4955686 C40.2310254,22.3278026 39.9583691,22.2315282 39.6722363,22.2315282 C39.491084,22.2315282 38.5878613,22.2862526 38.5878613,23.3667361 L38.5878613,23.3667361 L38.5878613,29.2111862 C38.5878613,29.7200122 38.1505566,30.1325638 37.6112988,30.1325638 C37.072041,30.1325638 36.6347363,29.7200122 36.6347363,29.2111862 L36.6347363,29.2111862 L36.6347363,18.5668393 C36.6347363,18.1866248 36.5214551,17.8932875 36.2980176,17.6950269 C36.1086621,17.5270766 35.8359082,17.4307101 35.5496777,17.4307101 C35.3687207,17.4307101 34.466084,17.4855266 34.466084,18.5669314 L34.466084,18.5669314 L34.466084,34.4053011 C34.466084,34.914127 34.0287793,35.3266786 33.4895215,35.3266786 C32.9502637,35.3266786 32.512959,34.914127 32.512959,34.4053011 L32.512959,34.4053011 L32.512959,31.4725733 C32.512959,30.571372 31.9404004,29.7812776 31.0544629,29.4600254 C30.5988965,29.2944704 30.2658887,29.3025778 30.1380566,29.3839273 C30.0403027,29.446114 29.978877,29.6392154 29.9732129,29.9011369 L29.9732129,29.9011369 L29.9732129,33.7237342 L29.9759473,36.6217294 C29.9759473,37.2432286 30.6057324,37.7218363 31.6431348,38.4361089 C32.1915723,38.813928 32.7588574,39.204553 33.2147168,39.6847269 C35.1385449,41.7118311 35.1385449,43.5282374 35.1385449,45.2847601 C35.1385449,45.3061339 35.1608105,45.3270471 35.1834668,45.3270471 L35.1834668,45.3270471 L36.9024121,45.3270471 C37.4416699,45.3270471 37.8789746,45.7395987 37.8789746,46.2484246 C37.8789746,46.7573426 37.4416699,47.1698021 36.9024121,47.1698021 L36.9024121,47.1698021 L35.1833691,47.1698021 C34.081709,47.1698021 33.1853223,46.3242464 33.1853223,45.2848522 C33.1853223,43.7707197 33.1846387,42.5570184 31.9822949,41.1609025 L31.9822949,41.1609025 L13.4588574,41.1609025 C11.9832715,41.1609025 10.7826855,40.0281821 10.7826855,38.6360278 L10.7826855,38.6360278 L10.7826855,26.0561523 L1.92956055,26.0561523 C1.39030273,26.0561523 0.952998047,25.6436008 0.952998047,25.1347748 L0.952998047,25.1347748 L0.952998047,11.4454875 C0.952998047,10.9366616 1.39030273,10.52411 1.92956055,10.52411 L1.92956055,10.52411 L10.7827832,10.52411 L10.7827832,2.52468124 C10.7827832,1.1325269 11.9833691,-0.000101341392 13.4589551,-0.000101341392 L13.4589551,-0.000101341392 Z M41.2170465,45.3078451 C41.7757085,45.3078451 42.2302664,45.7246976 42.2302664,46.2388282 C42.2302664,46.7529588 41.7785413,47.1698113 41.2198793,47.1698113 L41.2170465,47.1698113 C40.6583845,47.1698113 40.2053443,46.7529588 40.2053443,46.2388282 C40.2053443,45.7246976 40.6583845,45.3078451 41.2170465,45.3078451 Z M28.0227246,36.5149525 L12.7359082,36.5149525 L12.7359082,38.6359357 C12.7359082,39.0121886 13.0602246,39.3181475 13.4589551,39.3181475 L13.4589551,39.3180554 L29.646748,39.3180554 C28.7958691,38.6577701 28.0228223,37.8263101 28.0228223,36.6225586 L28.0228223,36.6225586 L28.0227246,36.5149525 Z M17.0609082,1.84256154 L13.4588574,1.84256154 C13.060127,1.84256154 12.7358105,2.14861254 12.7358105,2.52468124 L12.7358105,2.52468124 L12.7358105,10.52411 L21.727998,10.52411 L21.727998,9.1839162 C21.727998,8.67509029 22.1653027,8.26253869 22.7045605,8.26253869 C23.2438184,8.26253869 23.681123,8.67509029 23.681123,9.1839162 L23.681123,9.1839162 L23.681123,27.3963462 C23.681123,27.9051721 23.2438184,28.3177237 22.7045605,28.3177237 C22.1653027,28.3177237 21.727998,27.9051721 21.727998,27.3963462 L21.727998,27.3963462 L21.727998,26.0561523 L12.7358105,26.0561523 L12.7358105,34.6723817 L28.0209668,34.6723817 L28.0201855,29.8774598 C28.040498,28.733684 28.5891309,28.1471938 29.0458691,27.8564361 C29.7556348,27.404822 30.7177441,27.3634563 31.7556348,27.7403541 C32.0243848,27.8378261 32.2772168,27.9587909 32.5128613,28.0996554 L32.5128613,28.0996554 L32.5128613,18.5669314 C32.5128613,17.4345795 33.0301465,16.7378114 33.4639355,16.352622 C34.0193066,15.85955 34.7600293,15.5880472 35.5494824,15.5880472 C35.9175488,15.5880472 36.2866895,15.6493127 36.634541,15.7696326 L36.634541,15.7696326 L36.634541,2.52468124 C36.634541,2.14852042 36.3102246,1.84256154 35.9114941,1.84256154 L35.9114941,1.84256154 L32.3094434,1.84256154 L32.3094434,2.82759987 C32.3094434,4.38963922 30.9635449,5.6605524 29.3093457,5.6605524 L29.3093457,5.6605524 L20.0610059,5.6605524 C18.406709,5.6605524 17.0609082,4.38963922 17.0609082,2.82759987 L17.0609082,2.82759987 L17.0609082,1.84256154 Z M21.727998,12.3666808 L7.63141602,12.3666808 C7.22213867,14.6557064 5.31657227,16.4661243 2.90612305,16.8569336 L2.90612305,16.8569336 L2.90612305,19.7231445 C5.31657227,20.1140459 7.22213867,21.9244638 7.63141602,24.2133052 L7.63141602,24.2133052 L21.727998,24.2133052 L21.727998,12.3666808 Z M2.90612305,21.6065282 L2.90612305,24.2133973 L5.63737305,24.2133973 C5.2890332,22.9434054 4.23854492,21.9412312 2.90612305,21.6065282 L2.90612305,21.6065282 Z M14.5044583,14.2750745 C16.8234095,14.2750745 18.7100172,16.0849036 18.7100172,18.3093347 C18.7100172,20.5337657 16.8234095,22.3435948 14.5044583,22.3435948 C12.1855071,22.3435948 10.2988022,20.5338584 10.2988022,18.3093347 C10.2988022,16.0848109 12.1855071,14.2750745 14.5044583,14.2750745 Z M14.5043611,16.1285508 C13.2569883,16.1285508 12.2422588,17.1068593 12.2422588,18.3093347 C12.2422588,19.51181 13.2570854,20.4900259 14.5043611,20.4901185 C15.7516367,20.4901185 16.7663662,19.5119026 16.7663662,18.3093347 C16.7663662,17.1067667 15.7516367,16.1285508 14.5043611,16.1285508 Z M5.63737305,12.3667729 L2.90612305,12.3667729 L2.90612305,14.973642 C4.23854492,14.638939 5.2890332,13.6367648 5.63737305,12.3667729 L5.63737305,12.3667729 Z M30.3563184,1.84256154 L19.0140332,1.84256154 L19.0140332,2.82759987 C19.0140332,3.37364571 19.4837598,3.81788952 20.0610059,3.81788952 L20.0610059,3.81788952 L29.3093457,3.81788952 C29.8865918,3.81788952 30.3563184,3.37364571 30.3563184,2.82759987 L30.3563184,2.82759987 L30.3563184,1.84256154 Z"/>
  </defs>
  <g fill="none" fill-rule="evenodd" transform="translate(-.953)">
    <mask id="dashboard-bonus-3-copy-b" fill="#fff">
      <use xlink:href="#dashboard-bonus-3-copy-a"/>
    </mask>
    <use fill="#5C6F82" xlink:href="#dashboard-bonus-3-copy-a"/>
    <g fill="#FFF" mask="url(#dashboard-bonus-3-copy-b)">
      <rect width="72" height="77" transform="translate(-13 -16)"/>
    </g>
  </g>
</svg>
