<?xml version="1.0" encoding="UTF-8"?>
<svg width="24px" height="20px" viewBox="0 0 24 20" version="1.1" xmlns="http://www.w3.org/2000/svg" xmlns:xlink="http://www.w3.org/1999/xlink">
    <g id="IO-dono" stroke="none" stroke-width="1" fill="#06c" >
        <g id="IO-Dono-01---lista" transform="translate(-884.000000, -74.000000)" fill="#06c" fill-rule="nonzero">
            <path d="M901.36878,74 C903.174592,74 904.864998,74.6977658 906.128748,75.964643 C908.665389,78.5076791 908.61692,82.6469014 906.020748,85.1918213 L906.020748,85.1918213 L897.754858,93.2935041 C897.27439,93.7644707 896.643124,94 896.011999,94 C895.380734,94 894.749609,93.7644707 894.268999,93.2934582 L894.268999,93.2934582 L885.949531,85.1385676 C884.692344,83.9062891 884,82.2678307 884,80.5249785 C884,78.7821262 884.692344,77.1436678 885.949531,75.9113894 C887.206906,74.6787893 888.878562,74 890.656578,74 C892.434031,74 894.105405,74.6787893 895.362874,75.9113894 L895.362874,75.9113894 L896.012515,76.5481822 L896.661546,75.9115731 C897.919108,74.6788352 899.590811,74 901.36878,74 Z M901.368639,75.2080179 C899.919827,75.2080179 898.557686,75.7611395 897.533046,76.7655161 L897.533046,76.7655161 L895.017827,79.2329217 C894.897499,79.3509161 894.739765,79.4100052 894.581937,79.4100052 C894.424296,79.4100052 894.266702,79.3510999 894.146374,79.2332434 C893.905671,78.9974384 893.905484,78.6150135 894.146046,78.3790248 L894.146046,78.3790248 L895.141343,77.4026765 L894.491374,76.765562 C893.466734,75.7611855 892.104828,75.2080179 890.656578,75.2080179 C889.207765,75.2080179 887.845578,75.7611855 886.820984,76.765562 C885.796578,77.7697088 885.232437,79.1047728 885.232437,80.5249325 C885.232437,81.9450922 885.796578,83.2801562 886.820984,84.2842571 L886.820984,84.2842571 L895.140499,92.4392855 C895.620968,92.9102981 896.402843,92.9102981 896.883358,92.4393315 L896.883358,92.4393315 L905.149202,84.3375567 C907.270295,82.2584573 907.314404,78.8812819 905.247405,76.8091666 C904.217467,75.7766699 902.839999,75.2080179 901.368639,75.2080179 Z M901.821171,76.6952616 C901.912389,76.3738556 902.252092,76.1857906 902.579983,76.2752053 C903.319717,76.4770547 904.000952,76.8680719 904.549952,77.4062145 C905.325311,78.1663316 905.789608,79.1765436 905.857342,80.250807 C905.878342,80.5837919 905.620061,80.8703693 905.280405,80.8908162 C905.267467,80.8916432 905.254576,80.8920108 905.241826,80.8920108 C904.918811,80.8920108 904.647545,80.6455 904.627342,80.3251967 C904.57817,79.54523 904.241233,78.8119465 903.678545,78.2603871 C903.279405,77.8691402 902.785342,77.5851358 902.249702,77.4390673 C901.921811,77.3496525 901.729952,77.0166217 901.821171,76.6952616 Z" id="icon-heart"></path>
        </g>
    </g>
</svg>