<svg xmlns="http://www.w3.org/2000/svg" xmlns:xlink="http://www.w3.org/1999/xlink" width="50" height="42" viewBox="0 0 50 42">
  <defs>
    <path id="dashboard-bonus-3-a" d="M37.9647461,0.527931999 C41.2347656,0.527931999 44.359082,1.06949946 46.7623047,2.05273359 C49.4647461,3.15848755 50.9530273,4.73090819 50.9530273,6.48031295 L50.9530273,6.48031295 L50.9530273,30.2898368 C50.9530273,32.0392415 49.4647461,33.6116622 46.7623047,34.7174161 C44.5272461,35.6319003 41.6680664,36.1636463 38.6483398,36.233686 L38.6483398,36.233686 C38.6483398,39.6356701 33.1905273,42.1945987 25.9530273,42.1945987 C18.7155273,42.1945987 13.2577148,39.6356701 13.2577148,36.2422177 L13.2577148,36.2422177 C10.2379883,36.1636463 7.37880859,35.6319003 5.14375,34.7174161 C2.44130859,33.6116622 0.953027344,32.0392415 0.953027344,30.2898368 L0.953027344,30.2898368 L0.953027344,6.48031295 C0.953027344,4.73090819 2.44130859,3.15848755 5.14375,2.05273359 C7.546875,1.06949946 10.6712891,0.527931999 13.9413086,0.527931999 C17.2113281,0.527931999 20.3357422,1.06949946 22.7388672,2.05283279 C24.1589844,2.63388438 25.2432617,3.34390422 25.9530273,4.14072962 C26.6626953,3.34390422 27.7470703,2.63378517 29.1671875,2.05273359 C31.5703125,1.06949946 34.6946289,0.527931999 37.9647461,0.527931999 Z M36.6952148,27.5993606 C34.4848633,29.2424161 30.5832031,30.2898368 25.9530273,30.2898368 C21.3228516,30.2898368 17.4211914,29.2424161 15.2108398,27.5993606 L15.2108398,27.5993606 L15.2108398,30.2898368 C15.2108398,31.5773368 17.6598633,33.3109677 22.1984375,33.9878526 C22.7319336,34.0674161 23.1010742,34.5713844 23.0227539,35.1134479 C22.9514648,35.6067018 22.534375,35.961563 22.0578125,35.961563 C22.0105469,35.961563 21.9628906,35.9580907 21.9147461,35.9509479 C19.5274414,35.5948963 17.4640625,34.9355709 15.9475586,34.0441026 C15.6764648,33.8847772 15.4320312,33.7231701 15.2108398,33.5605709 L15.2108398,33.5605709 L15.2108398,36.2422177 C15.2108398,37.1144399 16.2693359,38.0831899 18.0423828,38.8337852 C20.1396484,39.7215828 22.9490234,40.2104717 25.9530273,40.2104717 C28.9570312,40.2104717 31.7664062,39.7215828 33.8636719,38.8337852 C35.6367187,38.0831899 36.6952148,37.1144399 36.6952148,36.2422177 L36.6952148,36.2422177 L36.6952148,33.5605709 C36.4740234,33.7231701 36.2294922,33.8847772 35.9584961,34.0441026 C34.4418945,34.9356701 32.3785156,35.5948963 29.9912109,35.9509479 C29.9432617,35.9580907 29.8954102,35.961563 29.8481445,35.961563 C29.3716797,35.961563 28.9545898,35.606801 28.8833008,35.1134479 C28.8048828,34.5713844 29.1740234,34.0674161 29.7076172,33.9878526 C34.2461914,33.3109677 36.6952148,31.5773368 36.6952148,30.2898368 L36.6952148,30.2898368 Z M25.9530078,34.2580808 C26.4920703,34.2580808 26.9295703,34.7025253 26.9295703,35.2501443 C26.9295703,35.7977633 26.4920703,36.2422078 25.9530078,36.2422078 C25.4139453,36.2422078 24.9764453,35.7977633 24.9764453,35.2501443 C24.9764453,34.7025253 25.4139453,34.2580808 25.9530078,34.2580808 Z M48.9999023,27.5502534 C48.3878906,27.9975749 47.6395508,28.4060074 46.7623047,28.764936 C44.5272461,29.6794201 41.6680664,30.2111661 38.6483398,30.2812058 L38.6483398,30.2812058 L38.6483398,34.2482693 C41.3919922,34.1778328 44.0516602,33.6874558 46.0326172,32.8769399 C47.8628906,32.1280312 48.9999023,31.1367614 48.9999023,30.2898368 L48.9999023,30.2898368 Z M2.90615234,27.5503526 L2.90615234,30.2898368 C2.90615234,31.1367614 4.04316406,32.1280312 5.8734375,32.8769399 C7.85439453,33.687555 10.5138672,34.1778328 13.2577148,34.2483685 L13.2577148,34.2483685 L13.2577148,30.281305 C10.2379883,30.2112653 7.37880859,29.6795193 5.14375,28.7650352 C4.26650391,28.4061066 3.51816406,27.9977733 2.90615234,27.5503526 L2.90615234,27.5503526 Z M25.9530273,20.3692018 C20.2151367,20.3692018 16.0378906,22.1390431 15.3141602,23.850055 C15.2449219,24.0148368 15.2108398,24.1748566 15.2108398,24.3374558 C15.2108398,25.209678 16.2693359,26.178428 18.0423828,26.9290233 C20.1396484,27.8168209 22.9490234,28.3057098 25.9530273,28.3057098 C28.9570312,28.3057098 31.7664062,27.8168209 33.8636719,26.9290233 C35.6367187,26.178428 36.6952148,25.209678 36.6952148,24.3374558 C36.6952148,24.1748566 36.6612305,24.0148368 36.5910156,23.8480709 C35.8681641,22.1390431 31.690918,20.3692018 25.9530273,20.3692018 Z M2.90615234,21.5979717 L2.90615234,24.3374558 C2.90615234,25.1843804 4.04316406,26.1756503 5.87353516,26.924559 C7.85449219,27.7350749 10.5139648,28.2254518 13.2578125,28.2958883 L13.2578125,28.2958883 L13.2580078,24.3289241 C10.2381836,24.2588844 7.37890625,23.7271383 5.14375,22.8126542 C4.26650391,22.4537256 3.51816406,22.0453923 2.90615234,21.5979717 L2.90615234,21.5979717 Z M49,21.5979717 C48.3879883,22.0453923 47.6396484,22.4537256 46.7624023,22.8126542 C44.5271484,23.7272376 41.6679687,24.2589836 38.6481445,24.3289241 L38.6481445,24.3289241 L38.6483398,28.2958883 C41.3919922,28.2254518 44.0516602,27.7350749 46.0326172,26.924559 C47.8628906,26.1756503 49,25.1843804 49,24.3374558 L49,24.3374558 Z M48.9999023,15.6455907 C48.3878906,16.0930114 47.6395508,16.5013447 46.7623047,16.8602733 C44.359082,17.8435074 41.2347656,18.3850749 37.9647461,18.3850749 C34.6946289,18.3850749 31.5703125,17.8435074 29.1671875,16.8602733 C28.2898437,16.5013447 27.5415039,16.0930114 26.9295898,15.6455907 L26.9295898,15.6455907 L26.9295898,18.4026344 C29.455957,18.4895391 31.8787109,18.9106701 33.8384766,19.6118606 C35.8046875,20.3153328 37.2192383,21.2535272 37.987793,22.3530312 C40.9619141,22.3504518 43.8929687,21.8476741 46.0326172,20.972178 C47.8628906,20.2232693 48.9999023,19.2319995 48.9999023,18.3850749 L48.9999023,18.3850749 Z M24.9764648,15.6455907 C24.3644531,16.0930114 23.6161133,16.5013447 22.7388672,16.8602733 C20.3357422,17.8435074 17.2113281,18.3850749 13.9413086,18.3850749 C10.6712891,18.3850749 7.546875,17.8435074 5.14375,16.8602733 C4.26650391,16.5013447 3.51816406,16.0930114 2.90615234,15.6455907 L2.90615234,15.6455907 L2.90615234,18.3850749 C2.90615234,19.2319995 4.04316406,20.2232693 5.8734375,20.972178 C8.01318359,21.8476741 10.9443359,22.3504518 13.9185547,22.3530312 C14.6876953,21.252932 16.1020508,20.3151344 18.0675781,19.6118606 C20.0272461,18.9107693 22.4500977,18.4895391 24.9764648,18.4026344 L24.9764648,18.4026344 Z M48.9999023,9.69320978 C48.3878906,10.1406304 47.6395508,10.5489637 46.7623047,10.9078923 C44.359082,11.8911264 41.2347656,12.4326939 37.9647461,12.4326939 C34.6946289,12.4326939 31.5703125,11.8911264 29.1671875,10.9078923 C28.2898437,10.5489637 27.5415039,10.1406304 26.9295898,9.69320978 L26.9295898,9.69320978 L26.9295898,12.4326939 C26.9295898,13.2796185 28.0665039,14.2708883 29.896875,15.0197971 C32.0419922,15.8975749 34.9827148,16.4009479 37.9647461,16.4009479 C40.9467773,16.4009479 43.8874023,15.8975749 46.0326172,15.0197971 C47.8628906,14.2708883 48.9999023,13.2796185 48.9999023,12.4326939 L48.9999023,12.4326939 Z M24.9764648,9.69320978 C24.3644531,10.1406304 23.6161133,10.5489637 22.7388672,10.9078923 C20.3357422,11.8911264 17.2113281,12.4326939 13.9413086,12.4326939 C10.6712891,12.4326939 7.546875,11.8911264 5.14375,10.9078923 C4.26650391,10.5489637 3.51816406,10.1406304 2.90615234,9.69320978 L2.90615234,9.69320978 L2.90615234,12.4326939 C2.90615234,13.2796185 4.04316406,14.2708883 5.8734375,15.0197971 C8.01865234,15.8975749 10.9592773,16.4009479 13.9413086,16.4009479 C16.9233398,16.4009479 19.8639648,15.8975749 22.0091797,15.0197971 C23.8394531,14.2708883 24.9764648,13.2796185 24.9764648,12.4326939 L24.9764648,12.4326939 Z M13.9413086,2.51205898 C10.9592773,2.51205898 8.01865234,3.015432 5.8734375,3.89320978 C4.04316406,4.64211851 2.90615234,5.63338835 2.90615234,6.48031295 C2.90615234,7.32723755 4.04316406,8.3185074 5.8734375,9.06741613 C8.01865234,9.9451939 10.9592773,10.4485669 13.9413086,10.4485669 C16.9233398,10.4485669 19.8639648,9.9451939 22.0091797,9.06741613 C23.8394531,8.3185074 24.9764648,7.32723755 24.9764648,6.48031295 C24.9764648,5.63338835 23.8394531,4.64211851 22.0091797,3.89320978 C19.8639648,3.015432 16.9233398,2.51205898 13.9413086,2.51205898 Z M37.9647461,2.51205898 C34.9827148,2.51205898 32.0419922,3.015432 29.896875,3.89320978 C28.0665039,4.64211851 26.9295898,5.63338835 26.9295898,6.48031295 C26.9295898,7.32723755 28.0665039,8.3185074 29.896875,9.06741613 C32.0419922,9.9451939 34.9827148,10.4485669 37.9647461,10.4485669 C40.9467773,10.4485669 43.8874023,9.9451939 46.0326172,9.06741613 C47.8628906,8.3185074 48.9999023,7.32723755 48.9999023,6.48031295 C48.9999023,5.63338835 47.8628906,4.64211851 46.0326172,3.89320978 C43.8874023,3.015432 40.9467773,2.51205898 37.9647461,2.51205898 Z"/>
  </defs>
  <g fill="none" fill-rule="evenodd" transform="translate(-.953 -.528)">
    <mask id="dashboard-bonus-3-b" fill="#fff">
      <use xlink:href="#dashboard-bonus-3-a"/>
    </mask>
    <use fill="#5C6F82" xlink:href="#dashboard-bonus-3-a"/>
    <g fill="#FFF" mask="url(#dashboard-bonus-3-b)">
      <rect width="91" height="79" transform="translate(-11 -21)"/>
    </g>
  </g>
</svg>
