<?xml version="1.0" encoding="UTF-8"?>
<svg width="16px" height="17px" viewBox="0 0 16 17" version="1.1" xmlns="http://www.w3.org/2000/svg" xmlns:xlink="http://www.w3.org/1999/xlink">
    <!-- Generator: Sketch 48.2 (47327) - http://www.bohemiancoding.com/sketch -->
    <title>icon-user</title>
    <desc>Created with Sketch.</desc>
    <defs></defs>
    <g id="Page-1" stroke="none" stroke-width="1" fill="none" fill-rule="evenodd">
        <g id="icon-user" fill="#0BD9D3" fill-rule="nonzero">
            <path d="M8,7.791667 C10.0083082,7.791667 11.6363636,6.206008 11.6363636,4.25 C11.6363636,2.293992 10.0083082,0.708333 8,0.708333 C5.99169182,0.708333 4.36363636,2.293992 4.36363636,4.25 C4.36363636,6.206008 5.99169182,7.791667 8,7.791667 Z M8,8.5 C5.59003018,8.5 3.63636364,6.59721 3.63636364,4.25 C3.63636364,1.90279 5.59003018,0 8,0 C10.4099698,0 12.3636364,1.90279 12.3636364,4.25 C12.3636364,6.59721 10.4099698,8.5 8,8.5 Z M15.2727273,17 C15.2727273,13.087983 12.0166164,9.916667 8,9.916667 C3.98338364,9.916667 0.72727273,13.087983 0.72727273,17 L0,17 C0,12.696781 3.581722,9.208333 8,9.208333 C12.418278,9.208333 16,12.696781 16,17 L15.2727273,17 Z M16,17 L15.2727273,17 C15.2727273,13.087983 12.0166164,9.916667 8,9.916667 C3.98338364,9.916667 0.72727273,13.087983 0.72727273,17 L0,17 C0,12.696781 3.581722,9.208333 8,9.208333 C12.418278,9.208333 16,12.696781 16,17 Z"></path>
        </g>
    </g>
</svg>