<svg xmlns="http://www.w3.org/2000/svg" width="19" height="19" viewBox="0 0 19 19">
  <path fill="#5C6F82" d="M10.5,3 C14.6421356,3 18,6.35786438 18,10.5 C18,12.2101481 17.4276233,13.7866104 16.4639906,15.0482663 L21.2949946,19.880781 C21.6855188,20.2713053 21.6855188,20.9044703 21.2949946,21.2949946 C20.9044703,21.6855188 20.2713053,21.6855188 19.880781,21.2949946 L15.0482663,16.4639906 C13.7866104,17.4276233 12.2101481,18 10.5,18 C6.35786438,18 3,14.6421356 3,10.5 C3,6.35786438 6.35786438,3 10.5,3 Z M10.5,5 C7.46243388,5 5,7.46243388 5,10.5 C5,13.5375661 7.46243388,16 10.5,16 C13.5375661,16 16,13.5375661 16,10.5 C16,7.46243388 13.5375661,5 10.5,5 Z" transform="translate(-3 -3)"/>
</svg>
