<?xml version="1.0" encoding="UTF-8"?>
<svg width="40px" height="42px" viewBox="0 0 40 42" version="1.1" xmlns="http://www.w3.org/2000/svg" xmlns:xlink="http://www.w3.org/1999/xlink">
    <title>609BB42B-0505-40C4-9606-E986AAA6B6B1</title>
    <g id="Page-1" stroke="none" stroke-width="1" fill="none" fill-rule="evenodd">
        <g id="dashboard-12012021-review" transform="translate(-596.000000, -2362.000000)" fill="#0074E6">
            <g id="Group-7" transform="translate(245.000000, 2299.000000)">
                <path d="M383.5,63 C387.642136,63 391,66.4845762 391,70.7830189 L391,96.7264151 C391,101.024858 387.642136,104.509434 383.5,104.509434 L358.5,104.509434 C354.357864,104.509434 351,101.024858 351,96.7264151 L351,70.7830189 C351,66.4845762 354.357864,63 358.5,63 L383.5,63 Z M383.5,66.4591195 L358.5,66.4591195 C356.290861,66.4591195 354.483269,68.2432225 354.342196,70.4987213 L354.333333,70.7830189 L354.333333,96.7264151 C354.333333,99.0189178 356.05256,100.894721 358.226041,101.041117 L358.5,101.050314 L383.5,101.050314 C385.709139,101.050314 387.516731,99.2662114 387.657804,97.0107127 L387.666667,96.7264151 L387.666667,70.7830189 C387.666667,68.4905161 385.94744,66.614713 383.773959,66.4683167 L383.5,66.4591195 Z M382.246241,86.9976415 C383.84987,86.9976415 384.684991,88.9291805 383.704199,90.1681751 L383.572066,90.3192526 L377.322066,96.8051016 C376.589833,97.5649661 375.402649,97.5649661 374.670416,96.8051016 C373.990485,96.0995132 373.941919,94.9868423 374.524716,94.2230992 L374.670416,94.0533889 L377.721241,90.8891509 L359.746241,90.8891509 C358.779743,90.8891509 357.984041,90.1302877 357.882243,89.1554076 L357.871241,88.9433962 C357.871241,87.9404263 358.602509,87.1146983 359.541939,87.0090589 L359.746241,86.9976415 L382.246241,86.9976415 Z M367.325825,72.0015021 C368.005756,72.7070906 368.054322,73.8197615 367.471525,74.5835045 L367.325825,74.7532148 L364.275,77.9174528 L382.25,77.9174528 C383.216498,77.9174528 384.0122,78.6763161 384.113998,79.6511961 L384.125,79.8632075 C384.125,80.8661775 383.393732,81.6919054 382.454302,81.7975448 L382.25,81.8089623 L359.75,81.8089623 C358.146371,81.8089623 357.31125,79.8774232 358.292042,78.6384287 L358.424175,78.4873512 L364.674175,72.0015021 C365.406408,71.2416377 366.593592,71.2416377 367.325825,72.0015021 Z" id="icon-transaction-copy"></path>
            </g>
        </g>
    </g>
</svg>