<?xml version="1.0" encoding="UTF-8"?>
<svg width="124px" height="120px" viewBox="0 0 124 120" version="1.1" xmlns="http://www.w3.org/2000/svg" xmlns:xlink="http://www.w3.org/1999/xlink">
    <!-- Generator: sketchtool 62 (101010) - https://sketch.com -->
    <title>F2D85DDF-F36D-4DE8-84A1-BCC223CF6369</title>
    <desc>Created with sketchtool.</desc>
    <g id="IO-dono" stroke="none" stroke-width="1" fill="none" fill-rule="evenodd">
        <g id="IO-Dono-03---grazie" transform="translate(-184.000000, -215.000000)" fill="#FFFFFF" fill-rule="nonzero">
            <path d="M197.816986,263.462646 C199.485809,263.462646 200.84433,264.818482 200.84433,266.484008 L200.84433,266.484008 L200.84433,267.345096 L206.075958,267.345096 C207.745728,267.345096 209.103302,268.700932 209.103302,270.366458 L209.103302,270.366458 L209.103302,274.102561 L243.881805,274.102561 C245.659424,274.105394 247.986694,275.098666 249.299805,276.412959 L249.299805,276.412959 L249.492798,276.605571 L250.261932,275.836067 C251.374481,274.722885 252.853149,274.10917 254.426422,274.10917 L254.426422,274.10917 L282.895752,274.10917 L282.895752,270.367402 C282.895752,268.700932 284.253326,267.34604 285.923096,267.34604 L285.923096,267.34604 L291.15567,267.34604 L291.15567,266.484952 C291.15567,264.818482 292.514191,263.46359 294.183014,263.46359 L294.183014,263.46359 L304.972656,263.46359 C306.642425,263.46359 308,264.818482 308,266.484952 L308,266.484952 L308,313.04414 C308,314.709666 306.642425,316.065502 304.972656,316.065502 L304.972656,316.065502 L294.183014,316.065502 C292.514191,316.065502 291.15567,314.709666 291.15567,313.04414 L291.15567,313.04414 L291.15567,312.182108 L285.923096,312.182108 C284.253326,312.182108 282.895752,310.827216 282.895752,309.160746 L282.895752,309.160746 L282.895752,307.364924 L281.063263,308.396908 C282.786957,310.980172 282.510712,314.514222 280.234528,316.792517 L280.234528,316.792517 L279.684876,317.342972 C278.431366,318.596837 276.760651,319.287974 274.978302,319.287974 C274.120239,319.287974 273.288666,319.12652 272.515747,318.819663 C272.2518,320.014045 271.65863,321.147999 270.732452,322.07518 L270.732452,322.07518 L270.1828,322.625634 C268.930237,323.880444 267.258576,324.570636 265.477173,324.570636 C264.196228,324.570636 262.973938,324.212794 261.921936,323.546206 C261.619202,324.581966 261.061981,325.558244 260.247437,326.373067 L260.247437,326.373067 L259.696839,326.924466 C258.444275,328.178331 256.772614,328.869468 254.991211,328.869468 C253.877716,328.869468 252.806793,328.599433 251.855072,328.090523 C251.562744,329.176325 250.993225,330.202644 250.143677,331.05429 L250.143677,331.05429 L249.593079,331.604744 C248.340515,332.85861 246.6698,333.549746 244.887451,333.549746 C243.684082,333.549746 242.531799,333.233447 241.523315,332.642394 L241.523315,332.642394 L241.094757,333.071993 C239.853546,334.314528 238.210266,335 236.468597,335 C234.793152,335 233.230286,334.357961 232.067596,333.193792 C230.829224,331.954089 230.231323,330.307447 230.266327,328.656084 C230.222809,328.657028 230.179291,328.658917 230.135773,328.658917 C228.460327,328.658917 226.897461,328.017821 225.733826,326.853653 C224.496399,325.61395 223.898499,323.966364 223.934448,322.315945 C223.889984,322.315945 223.846466,322.318777 223.802948,322.318777 C222.127503,322.318777 220.564636,321.677682 219.401947,320.512569 C218.162628,319.272867 217.565674,317.626225 217.600677,315.974861 C217.557159,315.975805 217.513641,315.978638 217.470123,315.978638 C215.794678,315.978638 214.231812,315.336598 213.068176,314.17243 C211.735199,312.837366 211.145813,311.032102 211.28772,309.256108 L211.28772,309.256108 L209.104248,307.697274 L209.104248,309.160746 C209.104248,310.826272 207.745728,312.182108 206.076904,312.182108 L206.076904,312.182108 L200.84433,312.182108 L200.84433,313.043196 C200.84433,314.709666 199.485809,316.064558 197.816986,316.064558 L197.816986,316.064558 L187.027344,316.064558 C185.357575,316.064558 184,314.708722 184,313.043196 L184,313.043196 L184,266.484008 C184,264.818482 185.357575,263.462646 187.027344,263.462646 L187.027344,263.462646 Z M237.62088,325.063496 C236.851745,325.063496 236.122345,325.369409 235.567017,325.925528 L235.567017,325.925528 L234.761932,326.731854 C233.654114,327.84126 233.599243,329.591762 234.639893,330.634132 C235.116699,331.111885 235.765686,331.374366 236.468597,331.374366 C237.237732,331.374366 237.967133,331.067508 238.521515,330.512333 L238.521515,330.512333 L239.327545,329.706007 C240.435364,328.596601 240.490234,326.846099 239.449585,325.803729 C238.972778,325.325977 238.323792,325.063496 237.62088,325.063496 Z M205.471436,270.971675 L200.84433,270.971675 L200.84433,308.556473 L205.471436,308.556473 L205.471436,298.928715 C205.471436,297.927889 206.284088,297.115898 207.287842,297.115898 C208.290649,297.115898 209.104248,297.927889 209.104248,298.928715 L209.104248,298.928715 L209.104248,303.238876 L212.647186,305.768323 C212.81369,305.553995 212.993439,305.346276 213.190216,305.149888 L213.190216,305.149888 L213.9953,304.344506 C215.237457,303.100083 216.879791,302.415555 218.62146,302.415555 C220.296906,302.415555 221.859772,303.057595 223.023407,304.221763 C224.26178,305.461466 224.85968,307.108108 224.82373,308.759471 C224.867249,308.758527 224.910767,308.756639 224.955231,308.756639 C226.62973,308.756639 228.193542,309.397734 229.356232,310.561902 C230.594604,311.801605 231.191559,313.449192 231.156555,315.09961 C231.200073,315.09961 231.243591,315.096778 231.287109,315.096778 C232.962555,315.096778 234.525421,315.737873 235.689056,316.902986 C236.927429,318.142688 237.525329,319.789331 237.48938,321.440694 C237.532898,321.43975 237.576416,321.437861 237.62088,321.437861 C239.29538,321.437861 240.859192,322.078957 242.021881,323.243125 C243.719086,324.942641 244.213867,327.40694 243.521362,329.598371 C243.938568,329.809867 244.403076,329.923168 244.887451,329.923168 C245.69632,329.923168 246.454102,329.61159 247.020783,329.04414 L247.020783,329.04414 L247.570435,328.493686 C248.751099,327.311578 248.751099,325.388292 247.570435,324.206184 L247.570435,324.206184 L235.066559,311.686416 C234.358917,310.97734 234.359863,309.830166 235.070343,309.122979 C235.781769,308.416735 236.931214,308.418624 237.639801,309.1277 L237.639801,309.1277 L252.85788,324.363862 C253.423615,324.931311 254.181396,325.242889 254.991211,325.242889 C255.800079,325.242889 256.557861,324.931311 257.124542,324.363862 L257.124542,324.363862 L257.674194,323.813407 C258.854858,322.631299 258.854858,320.708014 257.674194,319.525906 L257.674194,319.525906 L257.613647,319.465478 L246.809814,308.648058 C246.101227,307.938982 246.103119,306.790865 246.813599,306.084622 C247.524078,305.377434 248.674469,305.379323 249.382111,306.088398 L249.382111,306.088398 L263.343841,320.065974 C263.909576,320.633424 264.667358,320.945002 265.477173,320.945002 C266.286041,320.945002 267.043823,320.633424 267.609558,320.065974 L267.609558,320.065974 L268.160156,319.51552 C269.34082,318.333412 269.34082,316.410126 268.160156,315.227074 L268.160156,315.227074 L256.078216,303.127464 C255.369629,302.418388 255.371521,301.27027 256.082001,300.564027 C256.79248,299.856839 257.942871,299.858728 258.651459,300.567804 L258.651459,300.567804 L272.845917,314.783312 C273.411652,315.349817 274.169434,315.662339 274.978302,315.662339 C275.788117,315.662339 276.545898,315.349817 277.111633,314.783312 L277.111633,314.783312 L277.662231,314.231913 C278.842896,313.049805 278.842896,311.126519 277.662231,309.944412 L277.662231,309.944412 L262.730804,294.994335 L261.892609,295.833707 C259.782928,297.946772 256.976013,299.109996 253.990296,299.109996 C252.03009,299.109996 250.099213,298.587867 248.412415,297.619143 L248.412415,297.619143 L244.004791,302.031276 C242.614105,303.424879 240.773102,304.192494 238.821411,304.192494 C236.949188,304.192494 235.201843,303.475865 233.901978,302.175735 C232.568054,300.839726 231.852844,299.044848 231.888794,297.121563 C231.92569,295.220937 232.690094,293.428892 234.041992,292.074944 L234.041992,292.074944 L246.92807,279.173728 L246.727508,278.972619 C246.101227,278.345686 244.690674,277.730084 243.879913,277.72914 L243.879913,277.72914 L209.104248,277.72914 L209.104248,290.227192 C209.104248,291.228963 208.290649,292.040009 207.287842,292.040009 C206.284088,292.040009 205.471436,291.228963 205.471436,290.227192 L205.471436,290.227192 L205.471436,270.971675 Z M231.287109,318.722412 C230.518921,318.722412 229.78952,319.028325 229.235138,319.583501 C229.234192,319.584445 229.234192,319.584445 229.234192,319.584445 L228.429108,320.390771 C228.429108,320.390771 228.428161,320.390771 228.428161,320.391715 C227.320343,321.501121 227.266419,323.251623 228.307068,324.293993 C228.782928,324.770801 229.432861,325.033282 230.135773,325.033282 C230.904907,325.033282 231.634308,324.727369 232.18869,324.17125 L232.18869,324.17125 L232.993774,323.365868 C234.102539,322.255517 234.15741,320.505016 233.115814,319.462646 C232.639954,318.985837 231.990021,318.722412 231.287109,318.722412 Z M224.955231,312.383217 C224.186096,312.383217 223.455749,312.68913 222.901367,313.244305 L222.901367,313.244305 L222.096283,314.050631 C220.987518,315.160038 220.932648,316.911483 221.974243,317.952909 C222.45105,318.430662 223.100036,318.693143 223.802948,318.693143 C224.572083,318.693143 225.301483,318.38723 225.855866,317.831111 L225.855866,317.831111 L226.66095,317.025729 C227.769714,315.915378 227.823639,314.164877 226.78299,313.121563 C226.307129,312.645698 225.658142,312.383217 224.955231,312.383217 Z M304.367188,267.089225 L294.788483,267.089225 L294.788483,312.438924 L304.367188,312.438924 L304.367188,267.089225 Z M197.211517,267.089225 L187.632812,267.089225 L187.632812,312.438924 L197.211517,312.438924 L197.211517,267.089225 Z M218.62146,306.042134 C217.852326,306.042134 217.122925,306.348991 216.567596,306.904166 L216.567596,306.904166 L215.763458,307.709548 C214.654694,308.819899 214.599823,310.5704 215.641419,311.61277 C216.118225,312.089579 216.767212,312.353004 217.470123,312.353004 C218.239258,312.353004 218.968659,312.047091 219.523041,311.490971 L219.523041,311.490971 L220.328125,310.684645 C221.43689,309.575239 221.49176,307.824737 220.450165,306.782367 C219.973358,306.305559 219.324371,306.042134 218.62146,306.042134 Z M192.423584,305.569102 C192.900391,305.569102 193.367737,305.762658 193.706421,306.09784 C194.046051,306.436799 194.23999,306.903222 194.23999,307.381919 C194.23999,307.857784 194.046051,308.324206 193.706421,308.663165 C193.367737,309.00118 192.900391,309.194736 192.423584,309.194736 C191.943939,309.194736 191.476593,309.00118 191.136963,308.663165 C190.800171,308.324206 190.60434,307.857784 190.60434,307.381919 C190.60434,306.903222 190.800171,306.436799 191.136963,306.09784 C191.476593,305.762658 191.943939,305.569102 192.423584,305.569102 Z M299.579254,305.569102 C300.056061,305.569102 300.523407,305.762658 300.863037,306.09784 C301.199829,306.436799 301.392822,306.903222 301.392822,307.381919 C301.392822,307.857784 301.199829,308.324206 300.863037,308.663165 C300.523407,309.00118 300.056061,309.194736 299.579254,309.194736 C299.099609,309.194736 298.632263,309.00118 298.293579,308.663165 C297.953949,308.324206 297.76001,307.857784 297.76001,307.381919 C297.76001,306.903222 297.953949,306.436799 298.293579,306.09784 C298.632263,305.762658 299.099609,305.569102 299.579254,305.569102 Z M291.15567,270.971675 L286.528564,270.971675 L286.528564,283.217633 C286.528564,284.219403 285.714966,285.03045 284.712158,285.03045 C283.708405,285.03045 282.895752,284.219403 282.895752,283.217633 L282.895752,283.217633 L282.895752,277.734805 L254.426422,277.734805 C253.825684,277.734805 253.259949,277.969904 252.835174,278.395728 L252.835174,278.395728 L236.615234,294.63366 C235.928406,295.321964 235.539581,296.230261 235.52066,297.189543 C235.503632,298.1205 235.842316,298.982533 236.474274,299.616075 C237.087311,300.228845 237.920776,300.566859 238.821411,300.566859 C239.800568,300.566859 240.727692,300.177859 241.432495,299.47256 L241.432495,299.47256 L246.898743,293.999174 C247.551514,293.346749 248.591217,293.286321 249.314941,293.86038 C250.636566,294.908415 252.296875,295.485306 253.990296,295.485306 C256.003479,295.485306 257.896515,294.699752 259.319367,293.274991 L259.319367,293.274991 L264.691956,287.896023 C265.399597,287.186947 266.549988,287.185058 267.260467,287.892246 C267.970947,288.598489 267.972839,289.746607 267.265198,290.455683 L267.265198,290.455683 L265.295532,292.427121 L278.518402,305.666352 L282.895752,303.202053 L282.895752,291.919155 C282.895752,290.918329 283.709351,290.106338 284.712158,290.106338 C285.714966,290.106338 286.528564,290.918329 286.528564,291.919155 L286.528564,291.919155 L286.528564,308.556473 L291.15567,308.556473 L291.15567,270.971675 Z M246,229.701759 C257.465118,229.701759 266.792175,239.037767 266.792175,250.513277 C266.792175,254.27865 265.776123,257.968488 263.85376,261.18435 C263.340057,262.044494 262.225617,262.324914 261.36377,261.812227 C260.501923,261.29954 260.220001,260.186357 260.73465,259.327157 C262.320221,256.673079 263.159363,253.62528 263.159363,250.513277 C263.159363,241.037531 255.461395,233.327393 246,233.327393 C236.538605,233.327393 228.840637,241.037531 228.840637,250.513277 C228.840637,259.989968 236.538605,267.699162 246,267.699162 C249.089783,267.699162 252.118073,266.868288 254.756592,265.296235 C255.618439,264.783548 256.73288,265.064912 257.247528,265.924112 C257.76123,266.784256 257.479309,267.896495 256.618408,268.410126 C253.416992,270.316417 249.745392,271.324796 246,271.324796 C234.534882,271.324796 225.207825,261.988788 225.207825,250.513277 C225.207825,239.037767 234.534882,229.701759 246,229.701759 Z M252.042389,252.315709 C253.045197,252.315709 253.858795,253.1277 253.858795,254.128526 C253.858795,258.098784 250.332886,261.328809 246,261.328809 C241.666168,261.328809 238.141205,258.098784 238.141205,254.128526 C238.141205,253.1277 238.953857,252.315709 239.957611,252.315709 C240.960419,252.315709 241.774017,253.1277 241.774017,254.128526 C241.774017,256.09902 243.669891,257.703175 246,257.703175 C248.330109,257.703175 250.225983,256.09902 250.225983,254.128526 C250.225983,253.1277 251.039581,252.315709 252.042389,252.315709 Z M237.920776,244.004131 C238.92453,244.004131 239.737183,244.816122 239.737183,245.816948 L239.737183,245.816948 L239.737183,247.772336 C239.737183,248.774106 238.92453,249.585153 237.920776,249.585153 C236.917969,249.585153 236.10437,248.774106 236.10437,247.772336 L236.10437,247.772336 L236.10437,245.816948 C236.10437,244.816122 236.917969,244.004131 237.920776,244.004131 Z M254.079224,244.004131 C255.082977,244.004131 255.89563,244.816122 255.89563,245.816948 L255.89563,245.816948 L255.89563,247.772336 C255.89563,248.774106 255.082977,249.585153 254.079224,249.585153 C253.076416,249.585153 252.262817,248.774106 252.262817,247.772336 L252.262817,247.772336 L252.262817,245.816948 C252.262817,244.816122 253.076416,244.004131 254.079224,244.004131 Z M211.190277,225.725835 C212.424866,225.725835 213.532684,226.413195 214.079498,227.51788 L214.079498,227.51788 L215.758728,230.915968 L219.515472,231.460758 C220.737762,231.638263 221.734894,232.476691 222.11615,233.648413 C222.498352,234.822023 222.186157,236.08533 221.301605,236.945474 L221.301605,236.945474 L218.583618,239.59011 L219.225037,243.32338 C219.433167,244.538534 218.942169,245.743302 217.943146,246.468429 C217.388763,246.870648 216.733154,247.082143 216.049164,247.082143 C215.528839,247.082143 215.010407,246.95468 214.549683,246.712971 L214.549683,246.712971 L211.190277,244.950195 L207.829925,246.712971 C207.369202,246.95468 206.850769,247.082143 206.330444,247.082143 C205.645508,247.082143 204.990845,246.869704 204.436462,246.468429 C203.437439,245.743302 202.946442,244.538534 203.155518,243.32338 L203.155518,243.32338 L203.796936,239.589166 L201.078949,236.945474 C200.194397,236.08533 199.882202,234.822023 200.263458,233.649357 C200.64566,232.476691 201.641846,231.638263 202.864136,231.460758 L202.864136,231.460758 L206.62088,230.915968 L208.301056,227.518825 C208.84787,226.413195 209.954742,225.725835 211.190277,225.725835 Z M211.189331,229.867933 L209.455231,233.374602 C209.191284,233.909949 208.679474,234.28101 208.088196,234.36693 L208.088196,234.36693 L204.210358,234.928715 L207.016327,237.658327 C207.444885,238.074708 207.639771,238.675204 207.538544,239.263425 L207.538544,239.263425 L206.876312,243.11755 L210.344513,241.297179 C210.609406,241.158385 210.899841,241.089461 211.189331,241.089461 C211.479767,241.089461 211.770203,241.158385 212.035095,241.297179 L212.035095,241.297179 L215.503296,243.11755 L214.841064,239.263425 C214.739838,238.675204 214.934723,238.074708 215.363281,237.658327 L215.363281,237.658327 L218.169251,234.928715 L214.291412,234.36693 C213.700134,234.28101 213.188324,233.909949 212.923431,233.374602 L212.923431,233.374602 L211.189331,229.867933 Z M276.252624,215 C279.913818,215 283.208893,216.597545 285.480347,219.131712 L285.480347,219.131712 L286.497345,218.113891 C287.204987,217.404815 288.355377,217.402927 289.065857,218.10917 C289.776337,218.816358 289.778229,219.964475 289.069641,220.673551 L289.069641,220.673551 L287.514343,222.230497 C288.241852,223.80727 288.649597,225.55966 288.649597,227.407412 C288.649597,234.248908 283.088745,239.813879 276.251678,239.813879 C269.415558,239.813879 263.854706,234.247964 263.854706,227.406468 C263.854706,220.565915 269.416504,215 276.252624,215 Z M276.251678,218.625634 C271.419281,218.625634 267.487518,222.565679 267.486572,227.407412 C267.486572,232.249144 271.418335,236.188245 276.251678,236.188245 C281.085022,236.188245 285.016785,232.249144 285.016785,227.407412 C285.016785,226.592588 284.903259,225.803257 284.694183,225.053582 L284.694183,225.053582 L278.051056,231.705299 C277.571411,232.185884 276.932831,232.450254 276.251678,232.450254 C275.571472,232.450254 274.932892,232.185884 274.452301,231.705299 L274.452301,231.705299 L269.810059,227.057122 C269.102417,226.348047 269.104309,225.199929 269.814789,224.493686 C270.525269,223.787443 271.675659,223.788387 272.383301,224.497463 L272.383301,224.497463 L276.251678,228.371415 L282.909943,221.705535 C281.30072,219.822849 278.913849,218.625634 276.251678,218.625634 Z" id="ill-handshake"></path>
        </g>
    </g>
</svg>