<svg xmlns="http://www.w3.org/2000/svg" width="323" height="210" viewBox="0 0 323 210">
  <g fill="#06C" fill-rule="evenodd" opacity=".1">
    <g fill-opacity=".3" transform="translate(63.475 29.734)">
      <path d="M86.7410072,159.381023 L86.7410072,132.600412 C86.7410072,125.206328 92.7775719,119.210908 100.223445,119.210908 C107.669318,119.210908 113.706686,125.206328 113.706686,132.600412 L113.706686,159.381023 L86.7410072,159.381023 Z"/>
      <polygon points="171.956 21.28 171.956 1.195 202.293 1.195 194.591 11.238 202.293 21.28"/>
      <polygon points="30.388 21.28 30.388 1.195 .052 1.195 6.147 11.238 .052 21.28"/>
      <polygon points="53.984 94.126 146.656 94.126 146.656 80.735 53.984 80.735"/>
      <polygon points="53.984 13.784 146.656 13.784 146.656 .394 53.984 .394"/>
      <polygon points=".052 175.267 198.788 175.267 198.788 160.133 .052 160.133"/>
    </g>
    <polygon points="285.734 150.643 292.264 150.643 292.264 144.128 285.734 144.128"/>
    <polygon points="298.795 150.643 305.326 150.643 305.326 144.128 298.795 144.128"/>
    <polygon points="292.264 144.128 298.795 144.128 298.795 137.613 292.264 137.613"/>
    <polygon points="292.264 157.158 298.795 157.158 298.795 150.643 292.264 150.643"/>
    <polygon points="309.407 189.731 309.407 196.247 302.877 196.247 302.877 202.762 309.407 202.762 309.407 209.277 315.938 209.277 315.938 202.762 322.469 202.762 322.469 196.247 315.938 196.247 315.938 189.731"/>
    <polygon points="24.606 13.831 31.137 13.831 31.137 7.316 24.606 7.316"/>
    <polygon points="37.667 13.831 44.198 13.831 44.198 7.316 37.667 7.316"/>
    <polygon points="31.137 7.316 37.667 7.316 37.667 .802 31.137 .802"/>
    <polygon points="31.137 20.346 37.667 20.346 37.667 13.831 31.137 13.831"/>
    <polygon points="6.531 61.064 6.531 67.579 0 67.579 0 74.094 6.531 74.094 6.531 80.609 13.061 80.609 13.061 74.094 19.592 74.094 19.592 67.579 13.061 67.579 13.061 61.064"/>
    <g transform="translate(57.85 .078)">
      <path d="M28.052791 127.883588L42.3138035 127.883588 42.3138035 113.658092 28.052791 113.658092 28.052791 127.883588zM43.2249527 107.43584L27.1424453 107.43584C24.2041095 107.43584 21.8153557 109.818779 21.8153557 112.74916L21.8153557 128.793321C21.8153557 131.722901 24.2041095 134.106641 27.1424453 134.106641L43.2249527 134.106641C46.1624851 134.106641 48.5520423 131.722901 48.5520423 128.793321L48.5520423 112.74916C48.5520423 109.818779 46.1624851 107.43584 43.2249527 107.43584L43.2249527 107.43584zM28.052791 160.832748L42.3138035 160.832748 42.3138035 146.607252 28.052791 146.607252 28.052791 160.832748zM43.2249527 140.384198L27.1424453 140.384198C24.2041095 140.384198 21.8153557 142.767939 21.8153557 145.697519L21.8153557 161.741679C21.8153557 164.672061 24.2041095 167.055 27.1424453 167.055L43.2249527 167.055C46.1624851 167.055 48.5520423 164.672061 48.5520423 161.741679L48.5520423 145.697519C48.5520423 142.767939 46.1624851 140.384198 43.2249527 140.384198L43.2249527 140.384198zM168.466194 127.883588L182.726403 127.883588 182.726403 113.658092 168.466194 113.658092 168.466194 127.883588zM183.638356 107.43584L167.554241 107.43584C164.617512 107.43584 162.227955 109.818779 162.227955 112.74916L162.227955 128.793321C162.227955 131.722901 164.617512 134.106641 167.554241 134.106641L183.638356 134.106641C186.575085 134.106641 188.964642 131.722901 188.964642 128.793321L188.964642 112.74916C188.964642 109.818779 186.575085 107.43584 183.638356 107.43584L183.638356 107.43584zM168.466194 160.832748L182.726403 160.832748 182.726403 146.607252 168.466194 146.607252 168.466194 160.832748zM183.638356 140.384198L167.554241 140.384198C164.617512 140.384198 162.227955 142.767939 162.227955 145.697519L162.227955 161.741679C162.227955 164.672061 164.617512 167.055 167.554241 167.055L183.638356 167.055C186.575085 167.055 188.964642 164.672061 188.964642 161.741679L188.964642 145.697519C188.964642 142.767939 186.575085 140.384198 183.638356 140.384198L183.638356 140.384198z"/>
      <path d="M196.985246,42.3698244 L201.258166,49.2349008 L178.689144,49.2349008 L178.689144,32.2216947 L201.258166,32.2216947 L196.985246,39.086771 C196.359333,40.092687 196.359333,41.3647099 196.985246,42.3698244 L196.985246,42.3698244 Z M191.367296,88.1305878 L148.658982,88.1305878 L148.658982,74.9446718 L178.150007,74.9446718 L191.367296,88.1305878 Z M148.658982,184.939786 L148.658982,128.565206 L152.280278,128.565206 C154.002945,128.565206 155.399398,127.172153 155.399398,125.453679 L155.399398,110.322458 C155.399398,108.603985 154.002945,107.210931 152.280278,107.210931 L148.658982,107.210931 L148.658982,94.3528397 L196.638945,94.3528397 L196.638945,184.939786 L148.658982,184.939786 Z M7.09017139,202.934863 L203.093321,202.934863 L203.093321,191.162038 L7.09017139,191.162038 L7.09017139,202.934863 Z M14.1407311,94.3528397 L61.5237062,94.3528397 L61.5237062,107.210931 L57.9016067,107.210931 C56.1797435,107.210931 54.7832908,108.603985 54.7832908,110.322458 L54.7832908,125.453679 C54.7832908,127.172153 56.1797435,128.565206 57.9016067,128.565206 L61.5237062,128.565206 L61.5237062,184.939786 L14.1407311,184.939786 L14.1407311,94.3528397 Z M32.6304724,74.9446718 L61.5237062,74.9446718 L61.5237062,88.1305878 L19.4123803,88.1305878 L32.6304724,74.9446718 Z M67.761945,107.210931 L142.420744,107.210931 L142.420744,47.352916 L67.761945,47.352916 L67.761945,107.210931 Z M61.0207261,32.2216947 L65.2896291,32.2216947 L144.893059,32.2216947 L149.161159,32.2216947 L149.161159,41.1306641 L61.0207261,41.1306641 L61.0207261,32.2216947 Z M90.7302983,6.98001527 L119.45239,6.98001527 L137.613507,25.9986412 L72.5683779,25.9986412 L90.7302983,6.98001527 Z M61.0207261,122.342954 L149.161159,122.342954 L149.161159,113.433985 L61.0207261,113.433985 L61.0207261,122.342954 Z M116.804915,184.939786 L93.786746,184.939786 L93.786746,162.499443 C93.786746,156.697992 98.5176515,151.978603 104.333258,151.978603 L106.258403,151.978603 C112.073206,151.978603 116.804915,156.697992 116.804915,162.499443 L116.804915,184.939786 Z M123.043154,184.939786 L123.043154,162.499443 C123.043154,153.266656 115.513719,145.75555 106.258403,145.75555 L104.333258,145.75555 C95.0779425,145.75555 87.5485072,153.266656 87.5485072,162.499443 L87.5485072,184.939786 L67.761945,184.939786 L67.761945,128.565206 L142.420744,128.565206 L142.420744,184.939786 L123.043154,184.939786 Z M9.5215097,49.2349008 L13.7944301,42.3698244 C14.420343,41.3647099 14.420343,40.092687 13.7944301,39.086771 L9.5215097,32.2216947 L32.0897286,32.2216947 L32.0897286,49.2349008 L9.5215097,49.2349008 Z M203.306244,40.7282977 L209.51636,30.7516947 C210.113348,29.7922672 210.142273,28.5851679 209.591888,27.597687 C209.042306,26.6110076 207.998582,25.9986412 206.866475,25.9986412 L175.570828,25.9986412 C173.848161,25.9986412 172.451709,27.3916947 172.451709,29.1101679 L172.451709,52.3464275 L172.451709,68.7216183 L148.658982,68.7216183 L148.658982,47.352916 L152.280278,47.352916 C154.002945,47.352916 155.399398,45.9598626 155.399398,44.2413893 L155.399398,29.1101679 C155.399398,27.3916947 154.002945,25.9986412 152.280278,25.9986412 L146.229251,25.9986412 L123.047171,1.722 C122.458219,1.10562595 121.642684,0.756961832 120.788582,0.756961832 L89.3941067,0.756961832 C88.5400047,0.756961832 87.7244699,1.10562595 87.1355172,1.722 L63.9534376,25.9986412 L57.9016067,25.9986412 C56.1797435,25.9986412 54.7832908,27.3916947 54.7832908,29.1101679 L54.7832908,44.2413893 C54.7832908,45.9598626 56.1797435,47.352916 57.9016067,47.352916 L61.5237062,47.352916 L61.5237062,68.7216183 L38.3279674,68.7216183 L38.3279674,52.3464275 L38.3279674,29.1101679 C38.3279674,27.3916947 36.9315147,25.9986412 35.208848,25.9986412 L3.91320124,25.9986412 C2.78109428,25.9986412 1.7373704,26.6110076 1.18698483,27.597687 C0.637402736,28.5851679 0.666328109,29.7922672 1.26331567,30.7516947 L7.47343259,40.7282977 L1.26331567,50.7049008 C0.666328109,51.6643282 0.637402736,52.8714275 1.18698483,53.8581069 C1.7373704,54.8455878 2.78109428,55.4579542 3.91320124,55.4579542 L32.0897286,55.4579542 L32.0897286,68.7216183 L31.3384724,68.7216183 C30.5116888,68.7216183 29.717848,69.0494427 29.1329127,69.6329542 L8.81605199,89.9003588 C8.23111667,90.4838702 7.90249229,91.2757786 7.90249229,92.1005496 L7.90249229,184.939786 L6.24812164,184.939786 C3.27202214,184.939786 0.851932587,187.354786 0.851932587,190.32284 L0.851932587,203.774061 C0.851932587,206.742916 3.27202214,209.157916 6.24812164,209.157916 L203.933763,209.157916 C206.910666,209.157916 209.330756,206.742916 209.330756,203.774061 L209.330756,190.32284 C209.330756,187.354786 206.910666,184.939786 203.933763,184.939786 L202.877184,184.939786 L202.877184,92.1005496 C202.877184,91.2757786 202.548559,90.4838702 201.963624,89.9003588 L181.647567,69.6329542 C181.062632,69.0494427 180.268791,68.7216183 179.442007,68.7216183 L178.689144,68.7216183 L178.689144,55.4579542 L206.866475,55.4579542 C207.998582,55.4579542 209.042306,54.8455878 209.591888,53.8581069 C210.142273,52.8714275 210.113348,51.6643282 209.51636,50.7049008 L203.306244,40.7282977 Z"/>
      <path d="M105.091666,59.4978092 C115.161713,59.4978092 123.354825,67.6709771 123.354825,77.717313 C123.354825,87.7636489 115.161713,95.9368168 105.091666,95.9368168 C95.0208149,95.9368168 86.827703,87.7636489 86.827703,77.717313 C86.827703,67.6709771 95.0208149,59.4978092 105.091666,59.4978092 M105.091666,102.15987 C118.601422,102.15987 129.593064,91.1949847 129.593064,77.717313 C129.593064,64.2404427 118.601422,53.2747557 105.091666,53.2747557 C91.581106,53.2747557 80.5894642,64.2404427 80.5894642,77.717313 C80.5894642,91.1949847 91.581106,102.15987 105.091666,102.15987"/>
      <path d="M109.612782,85.8268397 C110.221822,86.4343969 111.020483,86.7381756 111.818342,86.7381756 C112.6162,86.7381756 113.414861,86.4343969 114.023901,85.8268397 C115.241981,84.6117252 115.241981,82.6415725 114.023901,81.426458 L108.210705,75.6274122 L108.210705,69.7626412 C108.210705,68.0433664 106.814252,66.6511145 105.091585,66.6511145 C103.368919,66.6511145 101.972466,68.0433664 101.972466,69.7626412 L101.972466,76.9162672 C101.972466,77.7418397 102.30109,78.5329466 102.886026,79.116458 L109.612782,85.8268397 Z"/>
    </g>
  </g>
</svg>
