<svg xmlns="http://www.w3.org/2000/svg" xmlns:xlink="http://www.w3.org/1999/xlink" width="323" height="210" viewBox="0 0 323 210">
  <defs>
    <polygon id="intro-sviluppatori-a" points="0 209.198 322.469 209.198 322.469 .724 0 .724"/>
  </defs>
  <g fill="none" fill-rule="evenodd" opacity=".1" transform="translate(0 .078)">
    <polygon fill="#06C" points="285.734 150.565 292.264 150.565 292.264 144.05 285.734 144.05"/>
    <polygon fill="#06C" points="298.795 150.565 305.326 150.565 305.326 144.05 298.795 144.05"/>
    <polygon fill="#06C" points="292.264 144.05 298.795 144.05 298.795 137.536 292.264 137.536"/>
    <polygon fill="#06C" points="292.264 157.08 298.795 157.08 298.795 150.565 292.264 150.565"/>
    <polygon fill="#06C" points="309.408 189.654 309.408 196.169 302.877 196.169 302.877 202.684 309.408 202.684 309.408 209.199 315.938 209.199 315.938 202.684 322.469 202.684 322.469 196.169 315.938 196.169 315.938 189.654"/>
    <polygon fill="#06C" points="24.606 13.753 31.137 13.753 31.137 7.239 24.606 7.239"/>
    <polygon fill="#06C" points="37.667 13.753 44.198 13.753 44.198 7.239 37.667 7.239"/>
    <polygon fill="#06C" points="31.137 7.239 37.667 7.239 37.667 .724 31.137 .724"/>
    <polygon fill="#06C" points="31.137 20.268 37.667 20.268 37.667 13.753 31.137 13.753"/>
    <polygon fill="#06C" points="6.531 60.986 6.531 67.501 0 67.501 0 74.016 6.531 74.016 6.531 80.531 13.061 80.531 13.061 74.016 19.592 74.016 19.592 67.501 13.061 67.501 13.061 60.986"/>
    <path fill="#06C" fill-opacity=".3" d="M66.5261888,4.3771374 C64.6106863,4.3771374 63.0430918,5.94091603 63.0430918,7.85175573 L63.0430918,41.1992748 C63.0430918,43.110916 64.6106863,44.6746947 66.5261888,44.6746947 L261.957258,44.6746947 C263.873564,44.6746947 265.441159,43.110916 265.441159,41.1992748 L265.441159,7.85175573 C265.441159,5.94091603 263.873564,4.3771374 261.957258,4.3771374 L66.5261888,4.3771374 Z"/>
    <polygon fill="#06C" points="80.176 27.322 86.181 27.322 86.181 21.309 80.176 21.309"/>
    <polygon fill="#06C" points="92.186 27.322 98.191 27.322 98.191 21.309 92.186 21.309"/>
    <polygon fill="#06C" points="104.196 27.322 110.2 27.322 110.2 21.309 104.196 21.309"/>
    <polygon fill="#06C" points="128.214 27.322 245.689 27.322 245.689 21.309 128.214 21.309"/>
    <path fill="#06C" d="M176.676983,141.451511 L163.303015,119.124985 L212.532393,119.124985 L225.906361,141.451511 L176.676983,141.451511 Z M211.322348,174.941702 L161.168162,174.941702 L161.168162,126.408458 L172.711796,145.679565 C173.21558,146.519565 174.121908,147.032542 175.099746,147.032542 L211.322348,147.032542 L211.322348,174.941702 Z M116.58693,174.941702 L155.59601,174.941702 L155.59601,119.124985 L116.58693,119.124985 L116.58693,174.941702 Z M102.002918,141.451511 L111.013975,126.408458 L111.013975,141.451511 L102.002918,141.451511 Z M152.907557,113.543153 C151.049905,111.147389 150.036714,108.204183 150.023055,105.170405 C150.023055,97.4645267 156.26049,91.216626 163.954639,91.216626 C171.647985,91.216626 177.886224,97.4645267 177.886224,105.170405 C177.872565,108.204183 176.859373,111.147389 175.002525,113.543153 L152.907557,113.543153 Z M136.943965,111.902427 C136.670781,110.876473 135.840784,110.094183 134.801077,109.884183 L127.732037,108.467084 L127.732037,101.874527 L134.801077,100.456626 C135.851229,100.245824 136.688458,99.4483053 136.952803,98.4087252 C137.618087,95.748458 138.674667,93.2020076 140.087189,90.8543359 C140.65043,89.9269695 140.627129,88.759145 140.028535,87.8558244 L136.024781,81.8339542 L140.655251,77.1955191 L146.67896,81.2055573 C147.581271,81.8050992 148.747928,81.8283435 149.671933,81.2648702 C152.017299,79.8501756 154.558714,78.7913588 157.214224,78.1244885 C158.252323,77.8607863 159.048575,77.0223893 159.259087,75.9707863 L160.663575,68.8900992 L167.245704,68.8900992 L168.660637,75.9707863 C168.871953,77.0223893 169.6674,77.8607863 170.7055,78.1244885 C173.36101,78.7913588 175.904032,79.8501756 178.248595,81.2648702 C179.173403,81.8283435 180.339256,81.8050992 181.241567,81.2055573 L187.254027,77.1955191 L191.884498,81.8339542 L187.880744,87.8670458 C187.282149,88.7703664 187.258848,89.9389924 187.82209,90.8647557 C189.234612,93.2140305 190.291192,95.7596794 190.956475,98.419145 C191.220821,99.4595267 192.057246,100.256244 193.108201,100.467847 L200.177241,101.874527 L200.177241,108.467084 L193.108201,109.884183 C192.068495,110.094183 191.238498,110.876473 190.965313,111.902427 C190.809438,112.488344 190.651152,113.018153 190.486438,113.543153 L181.569388,113.543153 C185.479134,105.332313 183.215724,95.5063969 176.108117,89.8428092 C169.00051,84.1808244 158.93207,84.1808244 151.824463,89.8428092 C144.716856,95.5063969 142.451838,105.332313 146.361585,113.543153 L137.444535,113.543153 C137.258127,113.023763 137.099037,112.488344 136.943965,111.902427 L136.943965,111.902427 Z M216.496776,114.89613 C215.992993,114.056931 215.086664,113.543153 214.108826,113.543153 L203.242527,113.543153 L203.521336,113.487046 C204.817353,113.22174 205.750197,112.077962 205.750197,110.752237 L205.750197,99.5885725 C205.750197,98.2628473 204.817353,97.1198702 203.521336,96.8537634 L195.885841,95.3196412 C195.268766,93.3134198 194.462873,91.3705191 193.481821,89.5173893 L197.797326,83.0226183 C198.532512,81.9157099 198.385475,80.4425038 197.447007,79.503916 L189.589751,71.6329237 C188.65048,70.6927328 187.181714,70.5452519 186.075318,71.2810534 L179.591214,75.603687 C177.740794,74.6210153 175.800383,73.8146794 173.798908,73.1959008 L172.265863,65.5501374 C172.004731,64.2428473 170.858162,63.303458 169.527595,63.3082488 L158.381684,63.3082488 C157.058348,63.3082488 155.9166,64.2412443 155.65145,65.5405191 L154.119209,73.1878855 C152.11693,73.8058626 150.17652,74.613 148.3261,75.5956718 L141.841995,71.2730382 C140.737206,70.5372366 139.266833,70.683916 138.329169,71.6249084 L130.471109,79.4942977 C129.531838,80.4344885 129.385604,81.9060916 130.119988,83.0138015 L134.435493,89.5085725 C133.45444,91.3625038 132.649351,93.3054046 132.031473,95.3100229 L124.397585,96.8457481 C123.092729,97.1070458 122.155868,98.2556336 122.159082,99.5885725 L122.159082,110.752237 C122.159082,112.077962 123.091925,113.22174 124.387943,113.487046 L124.666751,113.543153 L113.800453,113.543153 C112.829042,113.553573 111.934766,114.078573 111.451873,114.921779 L111.412502,114.89613 L94.6944403,142.804489 C94.177801,143.666931 94.1625348,144.740977 94.6574801,145.615443 C95.1516219,146.492313 96.0780373,147.032542 97.0823905,147.032542 L111.013975,147.032542 L111.013975,177.732618 C111.013975,179.273954 112.261784,180.523534 113.800453,180.523534 L214.108826,180.523534 C215.647495,180.523534 216.895303,179.273954 216.895303,177.732618 L216.895303,147.032542 L230.826888,147.032542 C231.831241,147.032542 232.757657,146.492313 233.250995,145.615443 C233.746744,144.740977 233.731478,143.666931 233.214838,142.804489 L216.496776,114.89613 Z"/>
    <mask id="intro-sviluppatori-b" fill="#fff">
      <use xlink:href="#intro-sviluppatori-a"/>
    </mask>
    <polygon fill="#06C" points="194.604 169.36 205.75 169.36 205.75 163.778 194.604 163.778" mask="url(#intro-sviluppatori-b)"/>
    <polygon fill="#06C" points="183.459 169.36 189.032 169.36 189.032 163.778 183.459 163.778" mask="url(#intro-sviluppatori-b)"/>
    <polygon fill="#06C" fill-opacity=".3" points="113.801 177.015 113.801 117.009 213.841 117.009 230.764 143.113 213.841 144.13 213.502 177.015" mask="url(#intro-sviluppatori-b)"/>
    <polygon fill="#06C" fill-opacity=".3" points="111.014 144.829 97.648 143.777 112.813 119.125" mask="url(#intro-sviluppatori-b)"/>
    <path fill="#06C" d="M257.6432,202.802771 L70.8407296,202.802771 C68.260747,202.802771 66.1620505,200.709183 66.1620505,198.135481 L66.1620505,47.7867023 L198.621779,47.7867023 C200.344446,47.7867023 201.740899,46.3936489 201.740899,44.6751756 C201.740899,42.9567023 200.344446,41.5636489 198.621779,41.5636489 L66.1620505,41.5636489 L66.1620505,11.7596794 C66.1620505,9.1859771 68.260747,7.09238931 70.8407296,7.09238931 L257.6432,7.09238931 C260.223182,7.09238931 262.321879,9.1859771 262.321879,11.7596794 L262.321879,41.5636489 L218.743394,41.5636489 C217.020727,41.5636489 215.625078,42.9567023 215.625078,44.6751756 C215.625078,46.3936489 217.020727,47.7867023 218.743394,47.7867023 L262.321879,47.7867023 L262.321879,198.135481 C262.321879,200.709183 260.223182,202.802771 257.6432,202.802771 M257.6432,0.869335878 L70.8407296,0.869335878 C64.8210381,0.869335878 59.9238117,5.75544275 59.9238117,11.7596794 L59.9238117,198.135481 C59.9238117,204.139718 64.8210381,209.025824 70.8407296,209.025824 L257.6432,209.025824 C263.662891,209.025824 268.560118,204.139718 268.560118,198.135481 L268.560118,11.7596794 C268.560118,5.75544275 263.662891,0.869335878 257.6432,0.869335878" mask="url(#intro-sviluppatori-b)"/>
  </g>
</svg>
