<?xml version="1.0" encoding="UTF-8"?>
<svg width="444px" height="304px" viewBox="0 0 444 304" version="1.1" xmlns="http://www.w3.org/2000/svg" xmlns:xlink="http://www.w3.org/1999/xlink">
    <!-- Generator: Sketch 58 (84663) - https://sketch.com -->
    <title>Group 35</title>
    <desc>Created with Sketch.</desc>
    <defs>
        <polygon id="path-1" points="0 304 443.15 304 443.15 0.215 0 0.215"></polygon>
    </defs>
    <g id="Home" stroke="none" stroke-width="1" fill="none" fill-rule="evenodd" opacity="0.2">
        <g id="Large-Devices_Pubbliche-Amministrazioni" transform="translate(-722.000000, -156.000000)">
            <g id="Group-35" transform="translate(722.000000, 155.000000)">
                <polygon id="Fill-1" fill="#0066CC" points="261.087 17.256 269.215 17.256 269.215 9.128 261.087 9.128"></polygon>
                <polygon id="Fill-2" fill="#0066CC" points="277.343 17.256 285.471 17.256 285.471 9.128 277.343 9.128"></polygon>
                <polygon id="Fill-3" fill="#0066CC" points="269.215 9.128 277.343 9.128 277.343 1 269.215 1"></polygon>
                <polygon id="Fill-4" fill="#0066CC" points="269.215 25.384 277.343 25.384 277.343 17.256 269.215 17.256"></polygon>
                <polygon id="Fill-5" fill="#0066CC" points="158.8759 18.2718 158.8759 26.3998 150.7479 26.3998 150.7479 34.5278 158.8759 34.5278 158.8759 42.6558 167.0039 42.6558 167.0039 34.5278 175.1319 34.5278 175.1319 26.3998 167.0039 26.3998 167.0039 18.2718"></polygon>
                <polygon id="Fill-6" fill="#0066CC" points="32.512 172.705 40.64 172.705 40.64 164.577 32.512 164.577"></polygon>
                <polygon id="Fill-7" fill="#0066CC" points="40.64 164.577 48.768 164.577 48.768 156.449 40.64 156.449"></polygon>
                <polygon id="Fill-8" fill="#0066CC" points="40.64 180.832 48.768 180.832 48.768 172.704 40.64 172.704"></polygon>
                <polygon id="Fill-9" fill="#0066CC" points="8.1279 221.4729 8.1279 229.6009 -0.0001 229.6009 -0.0001 237.7289 8.1279 237.7289 8.1279 245.8569 16.2559 245.8569 16.2559 237.7289 24.3849 237.7289 24.3849 229.6009 16.2559 229.6009 16.2559 221.4729"></polygon>
                <g id="Group-34" transform="translate(0.000000, 0.785000)">
                    <path d="M40.6401,110.9595 C36.1581,110.9595 32.5121,107.3135 32.5121,102.8315 C32.5121,98.3485 36.1581,94.7035 40.6401,94.7035 C45.1221,94.7035 48.7681,98.3485 48.7681,102.8315 C48.7681,107.3135 45.1221,110.9595 40.6401,110.9595 M40.6401,86.5755 C31.6751,86.5755 24.3841,93.8665 24.3841,102.8315 C24.3841,111.7965 31.6751,119.0875 40.6401,119.0875 C49.6051,119.0875 56.8961,111.7965 56.8961,102.8315 C56.8961,93.8665 49.6051,86.5755 40.6401,86.5755" id="Fill-10" fill="#0066CC"></path>
                    <mask id="mask-2" fill="white">
                        <use xlink:href="#path-1"></use>
                    </mask>
                    <g id="Clip-13"></g>
                    <polygon id="Fill-12" fill="#0066CC" mask="url(#mask-2)" points="402.51 171.919 410.638 171.919 410.638 163.791 402.51 163.791"></polygon>
                    <polygon id="Fill-14" fill="#0066CC" mask="url(#mask-2)" points="394.382 163.792 402.51 163.792 402.51 155.664 394.382 155.664"></polygon>
                    <polygon id="Fill-15" fill="#0066CC" mask="url(#mask-2)" points="394.382 180.047 402.51 180.047 402.51 171.919 394.382 171.919"></polygon>
                    <polygon id="Fill-16" fill="#0066CC" mask="url(#mask-2)" points="435.0219 236.9439 443.1499 236.9439 443.1499 228.8159 435.0219 228.8159 435.0219 220.6879 426.8939 220.6879 426.8939 228.8159 418.7659 228.8159 418.7659 236.9439 426.8939 236.9439 426.8939 245.0719 435.0219 245.0719"></polygon>
                    <path d="M394.3818,102.8311 C394.3818,98.3491 398.0278,94.7031 402.5098,94.7031 C406.9928,94.7031 410.6378,98.3491 410.6378,102.8311 C410.6378,107.3141 406.9928,110.9591 402.5098,110.9591 C398.0278,110.9591 394.3818,107.3141 394.3818,102.8311 M386.2538,102.8311 C386.2538,111.7961 393.5448,119.0871 402.5098,119.0871 C411.4748,119.0871 418.7658,111.7961 418.7658,102.8311 C418.7658,93.8661 411.4748,86.5751 402.5098,86.5751 C393.5448,86.5751 386.2538,93.8661 386.2538,102.8311" id="Fill-17" fill="#0066CC" mask="url(#mask-2)"></path>
                    <g id="Group-26" mask="url(#mask-2)" fill="#0066CC" fill-opacity="0.3">
                        <g transform="translate(102.000000, 88.000000)">
                            <path d="M106.2548,195.6797 L106.2548,163.1677 C106.2548,154.1907 113.5338,146.9117 122.5108,146.9117 C131.4878,146.9117 138.7668,154.1907 138.7668,163.1677 L138.7668,195.6797 L106.2548,195.6797 Z" id="Fill-18"></path>
                            <polygon id="Fill-19" points="207.8554 24.9912 207.8554 0.6072 244.4314 0.6072 232.2394 12.7992 244.4314 24.9912"></polygon>
                            <polygon id="Fill-20" points="37.1665 24.9912 37.1665 0.6072 0.5905 0.6072 12.7825 12.7992 0.5905 24.9912"></polygon>
                            <polygon id="Fill-21" points="73.743 195.679 89.999 195.679 89.999 114.399 73.743 114.399"></polygon>
                            <polygon id="Fill-22" points="155.023 195.679 171.279 195.679 171.279 114.399 155.023 114.399"></polygon>
                            <polygon id="Fill-23" points="65.615 114.4 179.407 114.4 179.407 98.144 65.615 98.144"></polygon>
                            <polygon id="Fill-24" points="65.615 16.863 179.407 16.863 179.407 0.607 65.615 0.607"></polygon>
                            <polygon id="Fill-25" points="0.591 211.936 244.432 211.936 244.432 195.68 0.591 195.68"></polygon>
                        </g>
                    </g>
                    <path d="M106.655,295.872 L342.368,295.872 L342.368,287.744 L106.655,287.744 L106.655,295.872 Z M114.783,279.616 L171.679,279.616 L171.679,263.36 L114.783,263.36 L114.783,279.616 Z M136.785,141.439 L171.679,141.439 L171.679,157.695 L120.529,157.695 L136.785,141.439 Z M179.806,182.08 L269.215,182.08 L269.215,108.928 L179.806,108.928 L179.806,182.08 Z M171.679,100.799 L277.344,100.799 L277.344,92.671 L171.679,92.671 L171.679,100.799 Z M209.937,60.159 L239.084,60.159 L263.469,84.543 L185.553,84.543 L209.937,60.159 Z M312.237,141.439 L328.493,157.695 L277.343,157.695 L277.343,141.439 L312.237,141.439 Z M261.087,279.615 L269.215,279.615 L269.215,206.463 L261.087,206.463 L261.087,279.615 Z M179.807,279.615 L187.935,279.615 L187.935,206.463 L179.807,206.463 L179.807,279.615 Z M171.678,198.335 L277.343,198.335 L277.343,190.207 L171.678,190.207 L171.678,198.335 Z M277.343,165.823 L334.239,165.823 L334.239,255.232 L277.343,255.232 L277.343,206.463 L281.407,206.463 C283.65,206.463 285.471,204.643 285.471,202.399 L285.471,186.144 C285.471,183.9 283.65,182.08 281.407,182.08 L277.343,182.08 L277.343,165.823 Z M114.783,165.823 L171.679,165.823 L171.679,182.08 L167.615,182.08 C165.372,182.08 163.551,183.9 163.551,186.144 L163.551,202.399 C163.551,204.643 165.372,206.463 167.615,206.463 L171.679,206.463 L171.679,255.232 L114.783,255.232 L114.783,165.823 Z M224.511,230.848 C213.307,230.848 204.191,239.963 204.191,251.168 L204.191,279.616 L196.063,279.616 L196.063,206.463 L252.959,206.463 L252.959,279.616 L244.831,279.616 L244.831,251.168 C244.831,239.963 235.715,230.848 224.511,230.848 L224.511,230.848 Z M236.703,279.616 L212.319,279.616 L212.319,251.168 C212.319,244.446 217.789,238.976 224.511,238.976 C231.233,238.976 236.703,244.446 236.703,251.168 L236.703,279.616 Z M277.343,279.616 L334.239,279.616 L334.239,263.36 L277.343,263.36 L277.343,279.616 Z M112.401,108.927 L117.656,103.672 C119.245,102.084 119.245,99.515 117.656,97.926 L112.401,92.671 L135.102,92.671 L135.102,108.927 L112.401,108.927 Z M313.919,92.671 L336.621,92.671 L331.366,97.926 C329.777,99.515 329.777,102.084 331.366,103.672 L336.621,108.927 L313.919,108.927 L313.919,92.671 Z M346.432,279.616 L342.368,279.616 L342.368,161.759 C342.368,160.638 341.912,159.622 341.177,158.886 L316.792,134.502 C316.033,133.738 314.996,133.312 313.919,133.312 L313.919,117.055 L346.432,117.055 C348.073,117.055 349.557,116.064 350.186,114.548 C350.816,113.028 350.467,111.28 349.305,110.118 L339.986,100.799 L349.305,91.48 C350.467,90.318 350.816,88.571 350.186,87.051 C349.557,85.535 348.073,84.543 346.432,84.543 L309.855,84.543 C307.612,84.543 305.791,86.364 305.791,88.607 L305.791,133.312 L277.343,133.312 L277.343,108.927 L281.407,108.927 C283.65,108.927 285.471,107.106 285.471,104.863 L285.471,88.607 C285.471,86.364 283.65,84.543 281.407,84.543 L274.962,84.543 L243.64,53.222 C242.88,52.458 241.844,52.031 240.767,52.031 L208.255,52.031 C207.178,52.031 206.142,52.458 205.382,53.222 L174.061,84.543 L167.615,84.543 C165.372,84.543 163.551,86.364 163.551,88.607 L163.551,104.863 C163.551,107.106 165.372,108.927 167.615,108.927 L171.679,108.927 L171.679,133.312 L143.231,133.312 L143.231,88.607 C143.231,86.364 141.41,84.543 139.166,84.543 L102.59,84.543 C100.949,84.543 99.465,85.535 98.835,87.051 C98.206,88.571 98.555,90.318 99.717,91.48 L109.036,100.799 L99.717,110.118 C98.555,111.28 98.206,113.028 98.835,114.548 C99.465,116.064 100.949,117.055 102.59,117.055 L135.102,117.055 L135.102,133.312 C134.026,133.312 132.989,133.738 132.229,134.502 L107.845,158.886 C107.11,159.622 106.655,160.638 106.655,161.759 L106.655,279.616 L102.59,279.616 C100.347,279.616 98.5258712,281.437 98.5258712,283.68 L98.5258712,299.936 C98.5258712,302.179 100.347,304 102.59,304 L346.432,304 C348.675,304 350.496,302.179 350.496,299.936 L350.496,283.68 C350.496,281.437 348.675,279.616 346.432,279.616 L346.432,279.616 Z" id="Fill-27" fill="#0066CC" mask="url(#mask-2)"></path>
                    <path d="M131.039,198.335 L147.295,198.335 L147.295,182.079 L131.039,182.079 L131.039,198.335 Z M151.359,173.952 L126.975,173.952 C124.731,173.952 122.911,175.772 122.911,178.016 L122.911,202.399 C122.911,204.643 124.731,206.463 126.975,206.463 L151.359,206.463 C153.602,206.463 155.423,204.643 155.423,202.399 L155.423,178.016 C155.423,175.772 153.602,173.952 151.359,173.952 L151.359,173.952 Z" id="Fill-28" fill="#0066CC" mask="url(#mask-2)"></path>
                    <path d="M131.039,238.976 L147.295,238.976 L147.295,222.72 L131.039,222.72 L131.039,238.976 Z M151.359,214.592 L126.975,214.592 C124.731,214.592 122.911,216.412 122.911,218.656 L122.911,243.04 C122.911,245.283 124.731,247.104 126.975,247.104 L151.359,247.104 C153.602,247.104 155.423,245.283 155.423,243.04 L155.423,218.656 C155.423,216.412 153.602,214.592 151.359,214.592 L151.359,214.592 Z" id="Fill-29" fill="#0066CC" mask="url(#mask-2)"></path>
                    <path d="M301.728,198.336 L317.984,198.336 L317.984,182.08 L301.728,182.08 L301.728,198.336 Z M297.663,206.463 L322.047,206.463 C324.29,206.463 326.111,204.643 326.111,202.399 L326.111,178.016 C326.111,175.772 324.29,173.952 322.047,173.952 L297.663,173.952 C295.42,173.952 293.599,175.772 293.599,178.016 L293.599,202.399 C293.599,204.643 295.42,206.463 297.663,206.463 L297.663,206.463 Z" id="Fill-30" fill="#0066CC" mask="url(#mask-2)"></path>
                    <path d="M301.728,238.976 L317.984,238.976 L317.984,222.72 L301.728,222.72 L301.728,238.976 Z M297.663,247.104 L322.047,247.104 C324.29,247.104 326.111,245.283 326.111,243.04 L326.111,218.656 C326.111,216.412 324.29,214.592 322.047,214.592 L297.663,214.592 C295.42,214.592 293.599,216.412 293.599,218.656 L293.599,243.04 C293.599,245.283 295.42,247.104 297.663,247.104 L297.663,247.104 Z" id="Fill-31" fill="#0066CC" mask="url(#mask-2)"></path>
                    <path d="M224.5112,125.1831 C235.7152,125.1831 244.8312,134.2991 244.8312,145.5031 C244.8312,156.7081 235.7152,165.8231 224.5112,165.8231 C213.3062,165.8231 204.1912,156.7081 204.1912,145.5031 C204.1912,134.2991 213.3062,125.1831 224.5112,125.1831 M224.5112,173.9521 C240.1982,173.9521 252.9592,161.1901 252.9592,145.5031 C252.9592,129.8161 240.1982,117.0551 224.5112,117.0551 C208.8232,117.0551 196.0632,129.8161 196.0632,145.5031 C196.0632,161.1901 208.8232,173.9521 224.5112,173.9521" id="Fill-32" fill="#0066CC" mask="url(#mask-2)"></path>
                    <path d="M229.7656,156.5049 L235.5126,150.7579 L228.5756,143.8209 L228.5756,133.3119 L220.4466,133.3119 L220.4466,145.5039 C220.4466,146.5809 220.8736,147.6169 221.6376,148.3769 L229.7656,156.5049 Z" id="Fill-33" fill="#0066CC" mask="url(#mask-2)"></path>
                </g>
            </g>
        </g>
    </g>
</svg>