<svg xmlns="http://www.w3.org/2000/svg" xmlns:xlink="http://www.w3.org/1999/xlink" width="323" height="210" viewBox="0 0 323 210">
  <defs>
    <polygon id="intro-cittadini-a" points="0 209.273 322.916 209.273 322.916 0 0 0"/>
  </defs>
  <g fill="none" fill-rule="evenodd" opacity=".1">
    <path fill="#06C" d="M202.465908 114.544299L202.465908 96.8874023C206.917747 97.3629195 210.396023 101.140506 210.396023 105.715448 210.396023 110.291195 206.917747 114.069586 202.465908 114.544299M202.465908 90.7386667L202.465908 83.3822299C202.465908 81.6893563 201.094069 80.3167126 199.400391 80.3167126 197.706713 80.3167126 196.334874 81.6893563 196.334874 83.3822299L196.334874 95.5421149 190.705908 95.5421149C189.013034 95.5421149 187.640391 96.9147586 187.640391 98.6076322 187.640391 100.300506 189.013034 101.673149 190.705908 101.673149L196.334874 101.673149 196.334874 121.340736C196.334874 138.567977 182.318782 152.584069 165.09154 152.584069 158.816483 152.584069 152.764299 150.73108 147.589931 147.224644 146.188322 146.274414 144.28223 146.64131 143.332 148.04292 142.382575 149.443724 142.748667 151.349816 144.150276 152.300046 150.344069 156.496828 157.585448 158.715103 165.09154 158.715103 185.700506 158.715103 202.465908 141.948897 202.465908 121.340736L202.465908 120.693839C210.30269 120.20223 216.527862 113.673724 216.527862 105.716253 216.527862 97.7587816 210.30269 91.2302759 202.465908 90.7386667M119.787218 105.716172C119.787218 101.140425 123.265494 97.3636437 127.717333 96.8881264L127.717333 114.545023C123.266299 114.069506 119.787218 110.29192 119.787218 105.716172M133.849172 121.340655L133.849172 87.7575517 143.301586 87.7575517C147.106529 87.7575517 150.680552 89.6000805 153.108023 92.8120345 157.36354 98.4434138 163.846184 101.673874 170.896069 101.673874L176.809057 101.673874C178.502736 101.673874 179.874575 100.30123 179.874575 98.6083563 179.874575 96.9146782 178.502736 95.5420345 176.809057 95.5420345L170.896069 95.5420345C165.786069 95.5420345 161.085609 93.1998506 157.999172 89.1165172 154.402621 84.3565172 149.045609 81.6265172 143.301586 81.6265172L133.849172 81.6265172 133.849172 70.523069C133.849172 66.516977 137.108598 63.2567471 141.11469 63.2567471L143.302391 63.2567471C147.170897 63.2567471 150.42308 64.8876667 150.445609 64.898931 151.395034 65.3913448 152.53354 65.3519195 153.449172 64.7967471 154.363195 64.2407701 154.921586 63.247092 154.921586 62.176977 154.921586 59.1508851 157.38446 56.6888161 160.410552 56.6888161L189.069517 56.6888161C193.076414 56.6888161 196.335839 59.9482414 196.335839 63.9551379L196.335839 69.4851379C196.335839 71.1780115 197.707678 72.5506552 199.401356 72.5506552 201.095034 72.5506552 202.466874 71.1780115 202.466874 69.4851379L202.466874 63.9551379C202.466874 56.5681264 196.456529 50.5577816 189.069517 50.5577816L160.410552 50.5577816C155.458253 50.5577816 151.219632 53.6723793 149.550897 58.0445632 147.84354 57.5545632 145.672736 57.1257126 143.303195 57.1257126L141.115494 57.1257126C133.728483 57.1257126 127.718138 63.1360575 127.718138 70.523069L127.718138 90.7385862C119.882161 91.231 113.656989 97.7587011 113.656989 105.716172 113.656989 113.674448 119.882161 120.202149 127.718138 120.693759L127.718138 121.340655C127.718138 128.485483 129.751356 135.440425 133.598138 141.452379 134.18308 142.366402 135.172736 142.866057 136.182506 142.866057 136.748943 142.866057 137.320207 142.709966 137.831931 142.382494 139.258483 141.47008 139.67446 139.574448 138.762046 138.147897 135.547678 133.123989 133.849172 127.312379 133.849172 121.340655"/>
    <path fill="#06C" d="M170.803701,126.629034 C169.531632,128.563287 167.39623,129.717885 165.091862,129.717885 C162.787494,129.717885 160.652897,128.563287 159.380023,126.629034 C158.449908,125.213747 156.548644,124.821103 155.134161,125.752023 C153.719678,126.682138 153.327034,128.582598 154.257149,129.99708 C156.66692,133.661218 160.71646,135.84892 165.091057,135.84892 C169.465655,135.84892 173.516805,133.661218 175.92577,129.99708 C176.855885,128.582598 176.463241,126.682138 175.048759,125.752023 C173.634276,124.821908 171.733816,125.214552 170.803701,126.629034"/>
    <path fill="#06C" d="M165.091782,203.142414 C143.540632,203.142414 123.189138,196.358851 106.064885,183.502184 C107.297529,181.335402 108.005575,178.833103 108.005575,176.166667 C108.005575,167.961379 101.330632,161.285632 93.1253448,161.285632 C90.491092,161.285632 88.0161494,161.976782 85.8678736,163.182069 C73.2461494,146.153563 66.5864943,125.967816 66.5864943,104.636322 C66.5864943,74.3303448 80.7763793,45.442069 104.662471,26.8462069 C107.349023,29.4868966 111.030057,31.1210345 115.086839,31.1210345 C123.292126,31.1210345 129.967874,24.4452874 129.967874,16.24 C129.967874,15.033908 129.819828,13.8624138 129.547874,12.7383908 C140.869368,8.35413793 152.813621,6.13103448 165.091782,6.13103448 C219.407759,6.13103448 263.597874,50.3203448 263.597874,104.636322 C263.597874,158.953103 219.407759,203.142414 165.091782,203.142414 M84.3761494,176.166667 C84.3761494,171.342299 88.300977,167.416667 93.1253448,167.416667 C97.9497126,167.416667 101.875345,171.342299 101.875345,176.166667 C101.875345,180.991034 97.9497126,184.916667 93.1253448,184.916667 C88.300977,184.916667 84.3761494,180.991034 84.3761494,176.166667 M115.086839,7.4908046 C119.911207,7.4908046 123.836839,11.4156322 123.836839,16.2408046 C123.836839,21.0651724 119.911207,24.9908046 115.086839,24.9908046 C110.261667,24.9908046 106.337644,21.0651724 106.337644,16.2408046 C106.337644,11.4156322 110.261667,7.4908046 115.086839,7.4908046 M239.080977,30.6471264 C219.317644,10.8845977 193.041092,0 165.091782,0 C151.891552,0 139.052586,2.42264368 126.892701,7.19632184 C124.169943,3.65126437 119.891897,1.35896552 115.086839,1.35896552 C106.881552,1.35896552 100.205805,8.03471264 100.205805,16.24 C100.205805,18.1782759 100.582356,20.0296552 101.260632,21.7297701 C89.1361494,31.0848276 79.0633908,43.1304598 72.0561494,56.7032184 C64.4663793,71.4048276 60.4554598,87.9803448 60.4554598,104.636322 C60.4554598,127.461954 67.6324713,149.057356 81.2341954,167.231609 C79.3586782,169.721034 78.2451149,172.816322 78.2451149,176.166667 C78.2451149,184.371954 84.9200575,191.047701 93.1253448,191.047701 C96.4435057,191.047701 99.5114368,189.955057 101.988793,188.111724 C120.263621,201.964483 142.032816,209.273448 165.091782,209.273448 C193.041092,209.273448 219.317644,198.388851 239.080977,178.626322 C258.84431,158.862989 269.728908,132.586437 269.728908,104.636322 C269.728908,76.6870115 258.84431,50.4104598 239.080977,30.6471264"/>
    <path fill="#06C" d="M236.972046,104.636563 C236.972046,128.084149 225.663425,149.831621 206.596069,163.327138 C203.868483,160.255184 199.892966,158.314494 195.470897,158.314494 C187.265609,158.314494 180.590667,164.990241 180.590667,173.195529 C180.590667,173.745069 180.622851,174.287368 180.681586,174.821621 C175.588483,175.947253 170.355379,176.516908 165.091701,176.516908 C125.456414,176.516908 93.2113563,144.271851 93.2113563,104.636563 C93.2113563,65.0020805 125.457218,32.757023 165.091701,32.757023 C185.926759,32.757023 205.488138,41.6655287 219.163885,57.2819655 C216.630207,59.9516207 215.070092,63.5546092 215.070092,67.5172529 C215.070092,75.7225402 221.745034,82.3982874 229.950322,82.3982874 C231.114575,82.3982874 232.245839,82.259092 233.333655,82.0056437 C235.746644,89.2808161 236.972046,96.8802414 236.972046,104.636563 M195.471701,181.944724 C190.646529,181.944724 186.721701,178.019897 186.721701,173.194724 C186.721701,168.370356 190.647333,164.444724 195.471701,164.444724 C200.296069,164.444724 204.220897,168.370356 204.220897,173.194724 C204.220897,178.019897 200.296069,181.944724 195.471701,181.944724 M238.700322,67.5172529 C238.700322,72.3416207 234.77469,76.2672529 229.950322,76.2672529 C225.125954,76.2672529 221.200322,72.3416207 221.200322,67.5172529 C221.200322,62.6928851 225.125954,58.7672529 229.950322,58.7672529 C234.77469,58.7672529 238.700322,62.6928851 238.700322,67.5172529 M244.831356,67.5172529 C244.831356,59.3119655 238.155609,52.6362184 229.950322,52.6362184 C227.929172,52.6362184 226.002161,53.0425402 224.244115,53.7763333 C209.383195,36.4951839 187.942276,26.6251839 165.091701,26.6251839 C122.076299,26.6251839 87.0811264,61.6211609 87.0811264,104.636563 C87.0811264,147.651966 122.076299,182.647943 165.091701,182.647943 C171.009517,182.647943 176.891931,181.977713 182.610207,180.665414 C185.191356,185.09231 189.987563,188.075759 195.471701,188.075759 C203.676989,188.075759 210.351931,181.400816 210.351931,173.194724 C210.351931,171.619322 210.104115,170.101851 209.648713,168.675299 C230.636644,154.058172 243.10308,130.28392 243.10308,104.636563 C243.10308,95.9742644 241.69423,87.488977 238.919977,79.3802414 C242.508483,76.6615057 244.831356,72.3561034 244.831356,67.5172529"/>
    <path fill="#06C" d="M148.997092 111.823713C147.304218 111.823713 145.931575 113.196356 145.931575 114.88923L145.931575 115.400149C145.931575 117.093023 147.304218 118.465667 148.997092 118.465667 150.689966 118.465667 152.062609 117.093023 152.062609 115.400149L152.062609 114.88923C152.062609 113.196356 150.689966 111.823713 148.997092 111.823713M178.121276 114.88931L178.121276 115.40023C178.121276 117.093103 179.493115 118.465747 181.186793 118.465747 182.880471 118.465747 184.25231 117.093103 184.25231 115.40023L184.25231 114.88931C184.25231 113.196437 182.880471 111.823793 181.186793 111.823793 179.493115 111.823793 178.121276 113.196437 178.121276 114.88931"/>
    <mask id="intro-cittadini-b" fill="#fff">
      <use xlink:href="#intro-cittadini-a"/>
    </mask>
    <polygon fill="#06C" points="286.13 150.416 292.67 150.416 292.67 143.876 286.13 143.876" mask="url(#intro-cittadini-b)"/>
    <polygon fill="#06C" points="299.21 150.416 305.75 150.416 305.75 143.876 299.21 143.876" mask="url(#intro-cittadini-b)"/>
    <polygon fill="#06C" points="292.67 143.876 299.21 143.876 299.21 137.336 292.67 137.336" mask="url(#intro-cittadini-b)"/>
    <polygon fill="#06C" points="292.67 156.955 299.21 156.955 299.21 150.416 292.67 150.416" mask="url(#intro-cittadini-b)"/>
    <polygon fill="#06C" points="316.377 189.654 309.837 189.654 309.837 196.194 303.297 196.194 303.297 202.734 309.837 202.734 309.837 209.273 316.377 209.273 316.377 202.734 322.917 202.734 322.917 196.194 316.377 196.194" mask="url(#intro-cittadini-b)"/>
    <polygon fill="#06C" points="24.64 13.08 31.18 13.08 31.18 6.54 24.64 6.54" mask="url(#intro-cittadini-b)"/>
    <polygon fill="#06C" points="37.72 13.08 44.259 13.08 44.259 6.54 37.72 6.54" mask="url(#intro-cittadini-b)"/>
    <polygon fill="#06C" points="31.18 6.54 37.72 6.54 37.72 0 31.18 0" mask="url(#intro-cittadini-b)"/>
    <polygon fill="#06C" points="31.18 19.619 37.72 19.619 37.72 13.08 31.18 13.08" mask="url(#intro-cittadini-b)"/>
    <polygon fill="#06C" points="6.54 60.493 6.54 67.033 0 67.033 0 73.573 6.54 73.573 6.54 80.113 13.079 80.113 13.079 73.573 19.619 73.573 19.619 67.033 13.079 67.033 13.079 60.493" mask="url(#intro-cittadini-b)"/>
    <path fill="#06C" fill-opacity=".3" d="M84.3758276 176.166345C84.3758276 171.341977 88.3006552 167.416345 93.125023 167.416345 97.9493908 167.416345 101.875023 171.341977 101.875023 176.166345 101.875023 180.991517 97.9493908 184.916345 93.125023 184.916345 88.3006552 184.916345 84.3758276 180.991517 84.3758276 176.166345M186.721621 173.195126C186.721621 168.369954 190.646448 164.445126 195.471621 164.445126 200.295989 164.445126 204.221621 168.369954 204.221621 173.195126 204.221621 178.020299 200.295989 181.945126 195.471621 181.945126 190.646448 181.945126 186.721621 178.020299 186.721621 173.195126M221.200644 67.5174138C221.200644 62.6922414 225.125471 58.7674138 229.950644 58.7674138 234.775011 58.7674138 238.700644 62.6922414 238.700644 67.5174138 238.700644 72.3417816 234.775011 76.2674138 229.950644 76.2674138 225.125471 76.2674138 221.200644 72.3417816 221.200644 67.5174138M106.337322 16.2404023C106.337322 11.4152299 110.262149 7.4904023 115.086517 7.4904023 119.910885 7.4904023 123.836517 11.4152299 123.836517 16.2404023 123.836517 21.0655747 119.910885 24.9904023 115.086517 24.9904023 110.262149 24.9904023 106.337322 21.0655747 106.337322 16.2404023M131.346632 83.6796897C131.346632 83.6796897 128.852379 63.3732529 134.909391 61.5918736 140.965598 59.8104943 150.583759 61.5918736 150.583759 61.5918736L158.062494 54.6457816 192.978011 54.6457816C192.978011 54.6457816 200.102724 56.9606092 200.102724 61.2354368L200.102724 96.8879655C200.102724 96.8879655 177.951345 97.8727931 169.82169 98.7892299 161.69123 99.7048621 158.702954 91.1608391 153.753069 88.310954 148.802379 85.461069 131.346632 83.6796897 131.346632 83.6796897" mask="url(#intro-cittadini-b)"/>
  </g>
</svg>
