<svg xmlns="http://www.w3.org/2000/svg" xmlns:xlink="http://www.w3.org/1999/xlink" width="323" height="210" viewBox="0 0 323 210">
  <defs>
    <polygon id="intro-giornalisti-a" points="0 209.198 322.469 209.198 322.469 .724 0 .724"/>
  </defs>
  <g fill="none" fill-rule="evenodd" opacity=".1">
    <polygon fill="#06C" points="285.734 150.643 292.264 150.643 292.264 144.128 285.734 144.128"/>
    <polygon fill="#06C" points="298.795 150.643 305.327 150.643 305.327 144.128 298.795 144.128"/>
    <polygon fill="#06C" points="292.264 144.128 298.795 144.128 298.795 137.613 292.264 137.613"/>
    <polygon fill="#06C" points="292.264 157.158 298.795 157.158 298.795 150.643 292.264 150.643"/>
    <polygon fill="#06C" points="309.408 189.731 309.408 196.247 302.877 196.247 302.877 202.762 309.408 202.762 309.408 209.277 315.939 209.277 315.939 202.762 322.469 202.762 322.469 196.247 315.939 196.247 315.939 189.731"/>
    <polygon fill="#06C" points="24.607 13.831 31.137 13.831 31.137 7.316 24.607 7.316"/>
    <polygon fill="#06C" points="37.667 13.831 44.198 13.831 44.198 7.316 37.667 7.316"/>
    <polygon fill="#06C" points="31.137 7.316 37.667 7.316 37.667 .802 31.137 .802"/>
    <polygon fill="#06C" points="31.137 20.346 37.668 20.346 37.668 13.831 31.137 13.831"/>
    <polygon fill="#06C" points="6.531 61.064 6.531 67.579 0 67.579 0 74.094 6.531 74.094 6.531 80.609 13.062 80.609 13.062 74.094 19.593 74.094 19.593 67.579 13.062 67.579 13.062 61.064"/>
    <g transform="translate(0 .078)">
      <path fill="#06C" d="M265.147406,185.756622 C263.424739,185.756622 262.028286,187.149676 262.028286,188.868149 L262.028286,196.314332 L172.980722,196.314332 C169.647072,196.314332 166.517508,197.705782 164.258918,199.994943 C162.000329,197.705782 158.870764,196.314332 155.537115,196.314332 L66.4887465,196.314332 L66.4887465,188.868149 C66.4887465,187.149676 65.0922938,185.756622 63.3696271,185.756622 C61.6477639,185.756622 60.2505077,187.149676 60.2505077,188.868149 L60.2505077,199.425859 C60.2505077,201.144332 61.6477639,202.537385 63.3696271,202.537385 L155.537115,202.537385 C158.15245,202.537385 160.510672,204.288721 161.27398,206.795897 C161.274784,206.7975 161.275587,206.799103 161.276391,206.801508 C161.282015,206.823149 161.294067,206.843187 161.300495,206.864027 C161.353525,207.025134 161.417,207.179027 161.493331,207.324103 C161.517436,207.371393 161.547968,207.413874 161.575286,207.459561 C161.642779,207.575782 161.715092,207.687996 161.797048,207.793798 C161.835615,207.843492 161.878199,207.889981 161.91998,207.938073 C162.001936,208.03105 162.087105,208.118416 162.179505,208.200172 C162.229321,208.245859 162.279941,208.289943 162.33297,208.332424 C162.43903,208.414981 162.550714,208.48792 162.664809,208.556851 C162.711411,208.584103 162.753192,208.615363 162.801401,208.64021 C162.968525,208.729179 163.144488,208.801317 163.325271,208.858225 C163.334913,208.861431 163.342948,208.867042 163.35259,208.869447 C163.431331,208.893492 163.510876,208.905515 163.590421,208.923149 C163.655503,208.937576 163.718978,208.956813 163.785667,208.967233 C163.938329,208.990477 164.09099,209.0025 164.241242,209.003302 C164.246866,209.003302 164.25249,209.004905 164.258115,209.004905 L164.258918,209.004905 L164.259722,209.004905 C164.264543,209.004905 164.270167,209.003302 164.275791,209.003302 C164.426846,209.0025 164.578704,208.990477 164.731366,208.967233 C164.795645,208.956813 164.857513,208.938378 164.920988,208.924752 C165.001336,208.907118 165.083291,208.895095 165.16364,208.870248 C165.174085,208.867042 165.182923,208.861431 165.192565,208.858225 C165.372545,208.801317 165.547704,208.729179 165.714829,208.641011 C165.763841,208.615363 165.806426,208.583302 165.854635,208.555248 C165.967122,208.487118 166.078003,208.414981 166.182455,208.333225 C166.237092,208.290744 166.287712,208.245859 166.338331,208.19937 C166.429928,208.118416 166.515097,208.031851 166.596249,207.939676 C166.63803,207.891584 166.681418,207.844294 166.720789,207.793798 C166.801941,207.688798 166.87345,207.576584 166.941747,207.460363 C166.969065,207.414676 166.999597,207.371393 167.023702,207.324905 C167.099229,207.179027 167.163508,207.025935 167.215734,206.864828 C167.222965,206.843989 167.234214,206.82395 167.240642,206.802309 L167.243052,206.796698 C168.006361,204.288721 170.365386,202.537385 172.980722,202.537385 L265.147406,202.537385 C266.870072,202.537385 268.266525,201.144332 268.266525,199.425859 L268.266525,188.868149 C268.266525,187.149676 266.870072,185.756622 265.147406,185.756622"/>
      <path fill="#06C" d="M265.147406,153.269782 C263.424739,153.269782 262.028286,154.662836 262.028286,156.381309 L262.028286,175.448828 L172.980722,175.448828 C169.647072,175.448828 166.517508,176.840279 164.258918,179.129439 C162.000329,176.840279 158.870764,175.448828 155.537115,175.448828 L66.4887465,175.448828 L66.4887465,42.6526832 C66.4887465,40.9342099 65.0922938,39.5411565 63.3696271,39.5411565 C61.6477639,39.5411565 60.2505077,40.9342099 60.2505077,42.6526832 L60.2505077,178.560355 C60.2505077,180.278828 61.6477639,181.671882 63.3696271,181.671882 L155.537115,181.671882 C158.15245,181.671882 160.510672,183.423218 161.27398,185.930393 L161.276391,185.936004 C161.282015,185.956844 161.293264,185.975279 161.299692,185.996118 C161.352722,186.158027 161.417,186.312721 161.493331,186.459401 C161.516632,186.505088 161.547164,186.546767 161.573679,186.591653 C161.642779,186.709477 161.715092,186.822492 161.797851,186.928294 C161.835615,186.977989 161.877396,187.023676 161.918373,187.070966 C162.001132,187.164744 162.087908,187.253714 162.181112,187.336271 C162.230125,187.381156 162.279941,187.423637 162.331363,187.465317 C162.43903,187.549477 162.552321,187.624821 162.670433,187.693752 C162.714625,187.720202 162.753995,187.749859 162.799794,187.773905 C162.968525,187.862874 163.144488,187.935813 163.326075,187.993523 C163.335717,187.995927 163.342948,188.001538 163.35259,188.003943 C163.428117,188.027187 163.505251,188.038408 163.581582,188.05524 C163.649878,188.070469 163.717371,188.090508 163.78647,188.101729 C163.938329,188.124172 164.09099,188.136195 164.240438,188.138599 C164.246062,188.138599 164.25249,188.138599 164.258115,188.138599 L164.258918,188.138599 L164.259722,188.138599 C164.264543,188.138599 164.269363,188.138599 164.274988,188.138599 C164.426846,188.136996 164.579508,188.124172 164.732169,188.100927 C164.795645,188.091309 164.856709,188.072874 164.919381,188.059248 C165.000533,188.041615 165.082488,188.02879 165.16364,188.003943 C165.174085,188.001538 165.182923,187.995927 165.192565,187.992721 C165.372545,187.935813 165.547704,187.863676 165.714829,187.775508 C165.763841,187.749859 165.805622,187.717798 165.853028,187.689744 C165.967122,187.621615 166.078003,187.549477 166.183259,187.46692 C166.237092,187.424439 166.286908,187.380355 166.337528,187.334668 C166.429928,187.252912 166.515097,187.165546 166.597856,187.071767 C166.638834,187.024477 166.680615,186.977989 166.719182,186.928294 C166.802744,186.822492 166.875057,186.708676 166.943353,186.591653 C166.970672,186.547569 166.999597,186.505088 167.023702,186.460202 C167.100836,186.311118 167.166722,186.154019 167.219751,185.989706 C167.226179,185.971271 167.235821,185.95524 167.240642,185.936805 C167.241446,185.935202 167.242249,185.932798 167.243052,185.931195 C168.006361,183.423218 170.365386,181.671882 172.980722,181.671882 L265.147406,181.671882 C266.870072,181.671882 268.266525,180.278828 268.266525,178.560355 L268.266525,156.381309 C268.266525,154.662836 266.870072,153.269782 265.147406,153.269782"/>
      <path fill="#06C" d="M265.147406,0.945240458 L172.980722,0.945240458 C169.647072,0.945240458 166.517508,2.33669084 164.258918,4.62504962 C162.000329,2.33669084 158.870764,0.945240458 155.537115,0.945240458 L63.3696271,0.945240458 C61.6477639,0.945240458 60.2505077,2.33829389 60.2505077,4.05676718 L60.2505077,26.2366145 C60.2505077,27.9550878 61.6477639,29.3481412 63.3696271,29.3481412 C65.0922938,29.3481412 66.4887465,27.9550878 66.4887465,26.2366145 L66.4887465,7.16829389 L155.537115,7.16829389 C158.030321,7.16829389 160.272841,8.76814122 161.139799,11.0885611 L161.139799,164.539248 C161.139799,166.257721 162.536251,167.649973 164.258918,167.649973 C165.980781,167.649973 167.377234,166.257721 167.377234,164.539248 L167.377234,11.0348588 C168.257048,8.73928626 170.504388,7.16829389 172.980722,7.16829389 L262.028286,7.16829389 L262.028286,139.964439 C262.028286,141.682912 263.424739,143.075966 265.147406,143.075966 C266.870072,143.075966 268.266525,141.682912 268.266525,139.964439 L268.266525,4.05676718 C268.266525,2.33829389 266.870072,0.945240458 265.147406,0.945240458"/>
      <mask id="intro-giornalisti-b" fill="#fff">
        <use xlink:href="#intro-giornalisti-a"/>
      </mask>
      <path fill="#06C" d="M186.087371 67.9494275L214.619037 67.9494275 214.619037 37.529084 186.087371 37.529084 186.087371 67.9494275zM183.599789 73.2547328L217.107423 73.2547328C218.481378 73.2547328 219.594201 72.0668702 219.594201 70.6016794L219.594201 34.8768321C219.594201 33.4124427 218.481378 32.2245802 217.107423 32.2245802L183.599789 32.2245802C182.225833 32.2245802 181.112206 33.4124427 181.112206 34.8768321L181.112206 70.6016794C181.112206 72.0668702 182.225833 73.2547328 183.599789 73.2547328L183.599789 73.2547328zM246.593547 32.2247405L226.489609 32.2247405C225.115653 32.2247405 224.001223 33.4118015 224.001223 34.8769924 224.001223 36.3421832 225.115653 37.5292443 226.489609 37.5292443L246.593547 37.5292443C247.967502 37.5292443 249.081932 36.3421832 249.081932 34.8769924 249.081932 33.4118015 247.967502 32.2247405 246.593547 32.2247405M246.593547 44.1329427L226.489609 44.1329427C225.115653 44.1329427 224.001223 45.3200038 224.001223 46.7851947 224.001223 48.2503855 225.115653 49.4374466 226.489609 49.4374466L246.593547 49.4374466C247.967502 49.4374466 249.081932 48.2503855 249.081932 46.7851947 249.081932 45.3200038 247.967502 44.1329427 246.593547 44.1329427M246.593547 56.0412252L226.489609 56.0412252C225.115653 56.0412252 224.001223 57.2282863 224.001223 58.6934771 224.001223 60.1586679 225.115653 61.345729 226.489609 61.345729L246.593547 61.345729C247.967502 61.345729 249.081932 60.1586679 249.081932 58.6934771 249.081932 57.2282863 247.967502 56.0412252 246.593547 56.0412252M246.593547 67.9494275L226.489609 67.9494275C225.115653 67.9494275 224.001223 69.1372901 224.001223 70.6016794 224.001223 72.0668702 225.115653 73.2547328 226.489609 73.2547328L246.593547 73.2547328C247.967502 73.2547328 249.081932 72.0668702 249.081932 70.6016794 249.081932 69.1372901 247.967502 67.9494275 246.593547 67.9494275M249.081691 138.927584C249.081691 137.462393 247.967261 136.274531 246.593305 136.274531L183.599467 136.274531C182.225512 136.274531 181.111885 137.462393 181.111885 138.927584 181.111885 140.391973 182.225512 141.579836 183.599467 141.579836L246.593305 141.579836C247.967261 141.579836 249.081691 140.391973 249.081691 138.927584M183.599387 148.064107C182.225432 148.064107 181.111805 149.251168 181.111805 150.716359 181.111805 152.18155 182.225432 153.368611 183.599387 153.368611L217.107021 153.368611C218.480976 153.368611 219.594603 152.18155 219.594603 150.716359 219.594603 149.251168 218.480976 148.064107 217.107021 148.064107L183.599387 148.064107zM186.087371 122.894084L244.105241 122.894084 244.105241 85.6864122 186.087371 85.6864122 186.087371 122.894084zM249.082012 83.0333588C249.082012 81.5689695 247.967582 80.3811069 246.593627 80.3811069L183.599789 80.3811069C182.225833 80.3811069 181.112206 81.5689695 181.112206 83.0333588L181.112206 125.545534C181.112206 127.010725 182.225833 128.198588 183.599789 128.198588L246.593627 128.198588C247.967582 128.198588 249.082012 127.010725 249.082012 125.545534L249.082012 83.0333588z" mask="url(#intro-giornalisti-b)"/>
      <path fill="#06C" d="M200.211229 95.1759275L200.211229 104.290088C200.211229 105.754477 201.324855 106.94234 202.698811 106.94234L211.247062 106.94234C210.167985 110.889859 206.745149 113.784172 202.698811 113.784172 197.787925 113.784172 193.793813 109.524859 193.793813 104.290088 193.793813 99.9754695 196.508781 96.3269198 200.211229 95.1759275M211.247062 101.637836L205.186393 101.637836 205.186393 95.1759275C208.099017 96.0808511 210.398584 98.5319198 211.247062 101.637836M202.698811 119.088676C210.352786 119.088676 216.578972 112.450431 216.578972 104.290088 216.578972 96.1297443 210.352786 89.4915 202.698811 89.4915 195.044836 89.4915 188.817846 96.1297443 188.817846 104.290088 188.817846 112.450431 195.044836 119.088676 202.698811 119.088676M222.46866 119.088996C223.842616 119.088996 224.956243 117.901134 224.956243 116.436744L224.956243 106.612431C224.956243 105.14724 223.842616 103.960179 222.46866 103.960179 221.094705 103.960179 219.980275 105.14724 219.980275 106.612431L219.980275 116.436744C219.980275 117.901134 221.094705 119.088996 222.46866 119.088996M230.509753 119.088996C231.883709 119.088996 232.998139 117.901134 232.998139 116.436744L232.998139 101.967584C232.998139 100.503195 231.883709 99.3153321 230.509753 99.3153321 229.135798 99.3153321 228.022171 100.503195 228.022171 101.967584L228.022171 116.436744C228.022171 117.901134 229.135798 119.088996 230.509753 119.088996M238.216598 119.088996C239.590553 119.088996 240.704983 117.901134 240.704983 116.436744L240.704983 96.6093779C240.704983 95.144187 239.590553 93.957126 238.216598 93.957126 236.842643 93.957126 235.729016 95.144187 235.729016 96.6093779L235.729016 116.436744C235.729016 117.901134 236.842643 119.088996 238.216598 119.088996" mask="url(#intro-giornalisti-b)"/>
      <polygon fill="#06C" points="183.276 70.602 217.778 70.602 217.778 33.816 183.276 33.816" mask="url(#intro-giornalisti-b)" opacity=".3"/>
      <polygon fill="#06C" fill-opacity=".3" points="183.275 125.973 246.288 125.973 246.288 83.245 183.275 83.245" mask="url(#intro-giornalisti-b)"/>
      <path fill="#06C" d="M82.3174338 59.1271832C83.6913891 59.1271832 84.8058194 57.9401221 84.8058194 56.4749313L84.8058194 48.4805038 88.7726129 57.591458C89.18721 58.5428702 90.0766652 59.1271832 91.028792 59.1271832 91.2063617 59.1271832 91.3863418 59.107145 91.5655184 59.0646641 92.7056602 58.7969542 93.5163741 57.7197023 93.5163741 56.4749313L93.5163741 36.4688244C93.5163741 35.0044351 92.4035507 33.8165725 91.0295955 33.8165725 89.6556403 33.8165725 88.54121 35.0044351 88.54121 36.4688244L88.54121 44.4632519 84.5744164 35.3522977C84.0818816 34.2237481 82.9208493 33.6113817 81.7807075 33.8790916 80.6413692 34.1468015 79.8290483 35.224855 79.8290483 36.4688244L79.8290483 56.4749313C79.8290483 57.9401221 80.9434786 59.1271832 82.3174338 59.1271832M117.165357 33.8164122C115.791402 33.8164122 114.676972 35.0042748 114.676972 36.4694656L114.676972 56.474771C114.676972 57.6778626 115.437066 58.7302672 116.526589 59.038855 117.616915 59.3474427 118.765895 58.8352672 119.325119 57.7916794L122.526997 51.8179008 125.728071 57.7916794C126.178825 58.6316794 127.011233 59.127896 127.887833 59.127896 128.099149 59.127896 128.314482 59.0981679 128.526601 59.038855 129.616124 58.7302672 130.375415 57.6778626 130.375415 56.474771L130.375415 36.4694656C130.375415 35.0042748 129.261788 33.8164122 127.887833 33.8164122 126.513877 33.8164122 125.399447 35.0042748 125.399447 36.4694656L125.399447 46.4869466 124.685954 45.1556107C124.244039 44.3300382 123.418862 43.8194656 122.526193 43.8194656 121.633524 43.8194656 120.809151 44.3292366 120.365629 45.1556107L119.65294 46.4869466 119.65294 36.4694656C119.65294 35.0042748 118.539313 33.8164122 117.165357 33.8164122M108.453356 39.1214771C109.827312 39.1214771 110.940939 37.9336145 110.940939 36.4692252 110.940939 35.0040344 109.827312 33.8161718 108.453356 33.8161718L99.7411948 33.8161718C98.3672396 33.8161718 97.2536127 35.0040344 97.2536127 36.4692252L97.2536127 56.4745305C97.2536127 57.9397214 98.3672396 59.1267824 99.7411948 59.1267824L108.453356 59.1267824C109.827312 59.1267824 110.940939 57.9397214 110.940939 56.4745305 110.940939 55.0101412 109.827312 53.8222786 108.453356 53.8222786L102.228777 53.8222786 102.228777 49.123729 105.102031 49.123729C106.475986 49.123729 107.590416 47.9366679 107.590416 46.4714771 107.590416 45.0070878 106.475986 43.8192252 105.102031 43.8192252L102.228777 43.8192252 102.228777 39.1214771 108.453356 39.1214771zM136.599593 53.8225191C135.225637 53.8225191 134.111207 55.0095802 134.111207 56.474771 134.111207 57.9399618 135.225637 59.1270229 136.599593 59.1270229L145.311754 59.1270229C146.685709 59.1270229 147.798533 57.9399618 147.798533 56.474771L147.798533 46.4717176C147.798533 45.0065267 146.685709 43.8194656 145.311754 43.8194656L139.087175 43.8194656 139.087175 39.1217176 145.311754 39.1217176C146.685709 39.1217176 147.798533 37.933855 147.798533 36.4694656 147.798533 35.0042748 146.685709 33.8164122 145.311754 33.8164122L136.599593 33.8164122C135.225637 33.8164122 134.111207 35.0042748 134.111207 36.4694656L134.111207 46.4717176C134.111207 47.9369084 135.225637 49.1239695 136.599593 49.1239695L142.823369 49.1239695 142.823369 53.8225191 136.599593 53.8225191zM82.3174338 72.5899466L145.311272 72.5899466C146.685227 72.5899466 147.798854 71.4028855 147.798854 69.9376947 147.798854 68.4725038 146.685227 67.2854427 145.311272 67.2854427L82.3174338 67.2854427C80.9434786 67.2854427 79.8290483 68.4725038 79.8290483 69.9376947 79.8290483 71.4028855 80.9434786 72.5899466 82.3174338 72.5899466M145.311594 79.7574389L125.207656 79.7574389C123.8337 79.7574389 122.71927 80.9445 122.71927 82.4096908 122.71927 83.8748817 123.8337 85.0627443 125.207656 85.0627443L145.311594 85.0627443C146.685549 85.0627443 147.799176 83.8748817 147.799176 82.4096908 147.799176 80.9445 146.685549 79.7574389 145.311594 79.7574389M145.311594 91.6657214L125.207656 91.6657214C123.8337 91.6657214 122.71927 92.853584 122.71927 94.3179733 122.71927 95.7831641 123.8337 96.9710267 125.207656 96.9710267L145.311594 96.9710267C146.685549 96.9710267 147.799176 95.7831641 147.799176 94.3179733 147.799176 92.853584 146.685549 91.6657214 145.311594 91.6657214M145.311594 103.573924L125.207656 103.573924C123.8337 103.573924 122.71927 104.761786 122.71927 106.226977 122.71927 107.691366 123.8337 108.879229 125.207656 108.879229L145.311594 108.879229C146.685549 108.879229 147.799176 107.691366 147.799176 106.226977 147.799176 104.761786 146.685549 103.573924 145.311594 103.573924M145.311594 115.482527L125.207656 115.482527C123.8337 115.482527 122.71927 116.669588 122.71927 118.134779 122.71927 119.599969 123.8337 120.787031 125.207656 120.787031L145.311594 120.787031C146.685549 120.787031 147.799176 119.599969 147.799176 118.134779 147.799176 116.669588 146.685549 115.482527 145.311594 115.482527M82.3174338 132.576847L145.311272 132.576847C146.685227 132.576847 147.798854 131.388985 147.798854 129.923794 147.798854 128.459405 146.685227 127.271542 145.311272 127.271542L82.3174338 127.271542C80.9434786 127.271542 79.8290483 128.459405 79.8290483 129.923794 79.8290483 131.388985 80.9434786 132.576847 82.3174338 132.576847M82.3174338 144.365702L145.311272 144.365702C146.685227 144.365702 147.798854 143.178641 147.798854 141.71345 147.798854 140.24826 146.685227 139.061198 145.311272 139.061198L82.3174338 139.061198C80.9434786 139.061198 79.8290483 140.24826 79.8290483 141.71345 79.8290483 143.178641 80.9434786 144.365702 82.3174338 144.365702M113.337004 85.0625038L113.337004 87.3556718 97.1283498 104.008191 92.433601 100.584069C91.4316582 99.8522748 90.0802005 100.000557 89.2373473 100.933534L84.8053373 105.840481 84.8053373 85.0625038 113.337004 85.0625038zM84.8053373 115.482847L84.8053373 113.487847 91.3609517 106.229221 95.9914219 109.606053C96.9644393 110.315405 98.272509 110.199183 99.1225935 109.326321L113.337004 94.7217023 113.337004 115.482046 84.8053373 115.482046 84.8053373 115.482847zM79.8293697 118.135099C79.8293697 119.599489 80.9438 120.787351 82.3177552 120.787351L115.82539 120.787351C117.199345 120.787351 118.312168 119.599489 118.312168 118.135099L118.312168 82.4094504C118.312168 80.9450611 117.199345 79.7571985 115.82539 79.7571985L82.3177552 79.7571985C80.9438 79.7571985 79.8293697 80.9450611 79.8293697 82.4094504L79.8293697 118.135099zM82.3174338 156.154958L115.825068 156.154958C117.199023 156.154958 118.31265 154.967095 118.31265 153.502706 118.31265 152.037515 117.199023 150.849653 115.825068 150.849653L82.3174338 150.849653C80.9434786 150.849653 79.8290483 152.037515 79.8290483 153.502706 79.8290483 154.967095 80.9434786 156.154958 82.3174338 156.154958" mask="url(#intro-giornalisti-b)"/>
      <polygon fill="#06C" fill-opacity=".3" points="81.82 118.665 116.323 118.665 116.323 81.88 81.82 81.88" mask="url(#intro-giornalisti-b)"/>
    </g>
  </g>
</svg>
