<?xml version="1.0" encoding="UTF-8"?>
<svg width="442px" height="259px" viewBox="0 0 442 259" version="1.1" xmlns="http://www.w3.org/2000/svg" xmlns:xlink="http://www.w3.org/1999/xlink">
    <!-- Generator: Sketch 58 (84663) - https://sketch.com -->
    <title>Group 27</title>
    <desc>Created with Sketch.</desc>
    <defs>
        <polygon id="path-1" points="0.5532 0.1591 244.3942 0.1591 244.3942 244 0.5532 244"></polygon>
        <polygon id="path-3" points="0 258.065 441.407 258.065 441.407 0 0 0"></polygon>
    </defs>
    <g id="Home" stroke="none" stroke-width="1" fill="none" fill-rule="evenodd" opacity="0.2">
        <g id="Large-Devices_Sviluppatori" transform="translate(-707.000000, -189.000000)">
            <g id="Group-27" transform="translate(707.000000, 189.000000)">
                <g id="Group-3" transform="translate(103.000000, 14.065000)">
                    <mask id="mask-2" fill="white">
                        <use xlink:href="#path-1"></use>
                    </mask>
                    <g id="Clip-2"></g>
                    <path d="M232.2022,235.8721 L12.7452,235.8721 C10.5012,235.8721 8.6812,234.0521 8.6812,231.8081 L8.6812,40.7991 L236.2662,40.7991 L236.2662,231.8081 C236.2662,234.0521 234.4462,235.8721 232.2022,235.8721 M12.7452,8.2871 L232.2022,8.2871 C234.4462,8.2871 236.2662,10.1071 236.2662,12.3511 L236.2662,32.6711 L8.6812,32.6711 L8.6812,12.3511 C8.6812,10.1071 10.5012,8.2871 12.7452,8.2871 M232.2022,0.1591 L12.7452,0.1591 C6.0122,0.1591 0.5532,5.6181 0.5532,12.3511 L0.5532,231.8081 C0.5532,238.5411 6.0122,244.0001 12.7452,244.0001 L232.2022,244.0001 C238.9352,244.0001 244.3942,238.5411 244.3942,231.8081 L244.3942,12.3511 C244.3942,5.6181 238.9352,0.1591 232.2022,0.1591" id="Fill-1" fill="#0066CC" mask="url(#mask-2)"></path>
                </g>
                <mask id="mask-4" fill="white">
                    <use xlink:href="#path-3"></use>
                </mask>
                <g id="Clip-5"></g>
                <polygon id="Fill-4" fill="#0066CC" mask="url(#mask-4)" points="127.937 38.608 136.065 38.608 136.065 30.48 127.937 30.48"></polygon>
                <polygon id="Fill-6" fill="#0066CC" mask="url(#mask-4)" points="144.193 38.608 152.321 38.608 152.321 30.48 144.193 30.48"></polygon>
                <polygon id="Fill-7" fill="#0066CC" mask="url(#mask-4)" points="160.449 38.608 168.577 38.608 168.577 30.48 160.449 30.48"></polygon>
                <polygon id="Fill-8" fill="#0066CC" mask="url(#mask-4)" points="192.962 38.608 282.37 38.608 282.37 30.48 192.962 30.48"></polygon>
                <path d="M244.0294,184.9127 L224.5234,152.4007 L296.3264,152.4007 L315.8324,184.9127 L244.0294,184.9127 Z M294.5624,233.6807 L221.4094,233.6807 L221.4094,163.0067 L238.2474,191.0707 C238.9814,192.2927 240.3024,193.0407 241.7294,193.0407 L294.5624,193.0407 L294.5624,233.6807 Z M156.3854,233.6807 L213.2814,233.6807 L213.2814,152.4007 L156.3854,152.4007 L156.3854,233.6807 Z M135.1144,184.9127 L148.2574,163.0067 L148.2574,184.9127 L135.1144,184.9127 Z M209.3604,144.2727 C206.6524,140.7847 205.1734,136.4977 205.1534,132.0807 C205.1534,120.8587 214.2524,111.7607 225.4734,111.7607 C236.6954,111.7607 245.7934,120.8587 245.7934,132.0807 C245.7744,136.4977 244.2954,140.7847 241.5874,144.2727 L209.3604,144.2727 Z M186.0774,141.8837 C185.6784,140.3897 184.4684,139.2497 182.9524,138.9447 L172.6414,136.8807 L172.6414,127.2807 L182.9524,125.2167 C184.4844,124.9087 185.7044,123.7477 186.0894,122.2337 C187.0604,118.3607 188.6014,114.6517 190.6614,111.2327 C191.4834,109.8837 191.4494,108.1827 190.5764,106.8667 L184.7364,98.0987 L191.4914,91.3437 L200.2764,97.1837 C201.5914,98.0567 203.2944,98.0897 204.6414,97.2687 C208.0624,95.2087 211.7694,93.6667 215.6434,92.6967 C217.1574,92.3117 218.3184,91.0907 218.6254,89.5587 L220.6734,79.2477 L230.2744,79.2477 L232.3374,89.5587 C232.6454,91.0907 233.8064,92.3117 235.3204,92.6967 C239.1934,93.6667 242.9024,95.2087 246.3214,97.2687 C247.6714,98.0897 249.3714,98.0567 250.6874,97.1837 L259.4564,91.3437 L266.2114,98.0987 L260.3714,106.8827 C259.4974,108.1987 259.4644,109.9007 260.2854,111.2487 C262.3454,114.6697 263.8874,118.3767 264.8574,122.2497 C265.2424,123.7637 266.4634,124.9247 267.9954,125.2327 L278.3054,127.2807 L278.3054,136.8807 L267.9954,138.9447 C266.4794,139.2497 265.2684,140.3897 264.8694,141.8837 C264.6434,142.7367 264.4114,143.5087 264.1714,144.2727 L251.1654,144.2727 C256.8684,132.3167 253.5664,118.0077 243.2004,109.7607 C232.8334,101.5157 218.1474,101.5157 207.7804,109.7607 C197.4144,118.0077 194.1104,132.3167 199.8134,144.2727 L186.8084,144.2727 C186.5364,143.5167 186.3034,142.7367 186.0774,141.8837 L186.0774,141.8837 Z M302.1084,146.2437 C301.3744,145.0207 300.0524,144.2727 298.6264,144.2727 L282.7764,144.2727 L283.1834,144.1907 C285.0744,143.8047 286.4334,142.1397 286.4334,140.2087 L286.4334,123.9527 C286.4334,122.0217 285.0744,120.3567 283.1834,119.9697 L272.0474,117.7357 C271.1464,114.8147 269.9714,111.9847 268.5404,109.2857 L274.8354,99.8287 C275.9064,98.2167 275.6924,96.0717 274.3234,94.7047 L262.8634,83.2427 C261.4944,81.8737 259.3514,81.6597 257.7374,82.7307 L248.2804,89.0257 C245.5814,87.5947 242.7514,86.4197 239.8324,85.5187 L237.5964,74.3847 C237.2154,72.4817 235.5424,71.1147 233.6014,71.1206803 L217.3454,71.1206803 C215.4144,71.1206803 213.7504,72.4797 213.3624,74.3707 L211.1284,85.5067 C208.2074,86.4077 205.3784,87.5827 202.6794,89.0137 L193.2214,82.7187 C191.6104,81.6477 189.4654,81.8617 188.0974,83.2307 L176.6354,94.6907 C175.2664,96.0597 175.0524,98.2037 176.1244,99.8167 L182.4184,109.2737 C180.9874,111.9727 179.8134,114.8027 178.9124,117.7217 L167.7784,119.9577 C165.8744,120.3387 164.5074,122.0117 164.5134,123.9527 L164.5134,140.2087 C164.5134,142.1397 165.8724,143.8047 167.7634,144.1907 L168.1704,144.2727 L152.3214,144.2727 C150.9044,144.2887 149.6004,145.0527 148.8964,146.2807 L148.8394,146.2437 L124.4544,186.8837 C123.7004,188.1397 123.6784,189.7037 124.4014,190.9767 C125.1214,192.2527 126.4724,193.0407 127.9374,193.0407 L148.2574,193.0407 L148.2574,237.7447 C148.2574,239.9897 150.0774,241.8087 152.3214,241.8087 L298.6264,241.8087 C300.8704,241.8087 302.6904,239.9897 302.6904,237.7447 L302.6904,193.0407 L323.0094,193.0407 C324.4744,193.0407 325.8254,192.2527 326.5464,190.9767 C327.2684,189.7037 327.2464,188.1397 326.4924,186.8837 L302.1084,146.2437 Z" id="Fill-9" fill="#0066CC" mask="url(#mask-4)"></path>
                <polygon id="Fill-10" fill="#0066CC" mask="url(#mask-4)" points="270.178 225.553 286.434 225.553 286.434 217.425 270.178 217.425"></polygon>
                <polygon id="Fill-11" fill="#0066CC" mask="url(#mask-4)" points="253.922 225.553 262.05 225.553 262.05 217.425 253.922 217.425"></polygon>
                <polygon id="Fill-12" fill="#0066CC" mask="url(#mask-4)" points="48.768 85.344 56.896 85.344 56.896 77.216 48.768 77.216"></polygon>
                <polygon id="Fill-13" fill="#0066CC" mask="url(#mask-4)" points="32.512 85.344 40.64 85.344 40.64 77.216 32.512 77.216"></polygon>
                <polygon id="Fill-14" fill="#0066CC" mask="url(#mask-4)" points="40.64 77.216 48.768 77.216 48.768 69.088 40.64 69.088"></polygon>
                <polygon id="Fill-15" fill="#0066CC" mask="url(#mask-4)" points="40.64 93.472 48.768 93.472 48.768 85.344 40.64 85.344"></polygon>
                <polygon id="Fill-16" fill="#0066CC" mask="url(#mask-4)" points="8.128 158.4967 16.256 158.4967 16.256 150.3687 24.384 150.3687 24.384 142.2407 16.256 142.2407 16.256 134.1127 8.128 134.1127 8.128 142.2407 0 142.2407 0 150.3687 8.128 150.3687"></polygon>
                <path d="M40.6402,24.3844 C36.1572,24.3844 32.5122,20.7384 32.5122,16.2564 C32.5122,11.7734 36.1572,8.1284 40.6402,8.1284 C45.1222,8.1284 48.7682,11.7734 48.7682,16.2564 C48.7682,20.7384 45.1222,24.3844 40.6402,24.3844 M40.6402,0.0004 C31.6752,0.0004 24.3842,7.2914 24.3842,16.2564 C24.3842,25.2214 31.6752,32.5124 40.6402,32.5124 C49.6052,32.5124 56.8962,25.2214 56.8962,16.2564 C56.8962,7.2914 49.6052,0.0004 40.6402,0.0004" id="Fill-17" fill="#0066CC" mask="url(#mask-4)"></path>
                <polygon id="Fill-18" fill="#0066CC" mask="url(#mask-4)" points="384.511 85.344 392.639 85.344 392.639 77.216 384.511 77.216"></polygon>
                <polygon id="Fill-19" fill="#0066CC" mask="url(#mask-4)" points="400.767 85.344 408.895 85.344 408.895 77.216 400.767 77.216"></polygon>
                <polygon id="Fill-20" fill="#0066CC" mask="url(#mask-4)" points="392.639 77.216 400.767 77.216 400.767 69.088 392.639 69.088"></polygon>
                <polygon id="Fill-21" fill="#0066CC" mask="url(#mask-4)" points="392.639 93.472 400.767 93.472 400.767 85.344 392.639 85.344"></polygon>
                <polygon id="Fill-22" fill="#0066CC" mask="url(#mask-4)" points="433.2794 150.3687 441.4074 150.3687 441.4074 142.2407 433.2794 142.2407 433.2794 134.1127 425.1514 134.1127 425.1514 142.2407 417.0234 142.2407 417.0234 150.3687 425.1514 150.3687 425.1514 158.4967 433.2794 158.4967"></polygon>
                <path d="M392.6393,16.2559 C392.6393,11.7739 396.2853,8.1279 400.7673,8.1279 C405.2493,8.1279 408.8953,11.7739 408.8953,16.2559 C408.8953,20.7389 405.2493,24.3839 400.7673,24.3839 C396.2853,24.3839 392.6393,20.7389 392.6393,16.2559 M384.5113,16.2559 C384.5113,25.2209 391.8023,32.5119 400.7673,32.5119 C409.7323,32.5119 417.0233,25.2209 417.0233,16.2559 C417.0233,7.2909 409.7323,-0.0001 400.7673,-0.0001 C391.8023,-0.0001 384.5113,7.2909 384.5113,16.2559" id="Fill-23" fill="#0066CC" mask="url(#mask-4)"></path>
                <polygon id="Fill-24" fill-opacity="0.3" fill="#0066CC" mask="url(#mask-4)" points="152.3214 236.6998 152.3214 149.3198 298.2354 149.3198 322.9184 187.3328 298.2354 188.8138 297.7414 236.6998"></polygon>
                <polygon id="Fill-25" fill-opacity="0.3" fill="#0066CC" mask="url(#mask-4)" points="148.2574 189.8311 128.7624 188.2981 150.8824 152.4001"></polygon>
                <polygon id="Fill-26" fill-opacity="0.3" fill="#0066CC" mask="url(#mask-4)" points="111.6813 16.2559 339.2663 18.9679 343.8683 24.3839 343.8683 51.5809 107.8173 51.5809 107.8173 24.3839"></polygon>
            </g>
        </g>
    </g>
</svg>