<?xml version="1.0" encoding="UTF-8"?>
<svg width="278px" height="277px" viewBox="0 0 278 277" version="1.1" xmlns="http://www.w3.org/2000/svg" xmlns:xlink="http://www.w3.org/1999/xlink">
    <!-- Generator: sketchtool 62 (101010) - https://sketch.com -->
    <title>D33CF1B8-0919-4931-8C5A-57448E1B150A</title>
    <desc>Created with sketchtool.</desc>
    <g id="IO-dono" stroke="none" stroke-width="1" fill="none" fill-rule="evenodd" opacity="0.200000003">
        <g id="IO-Dono-01---lista" transform="translate(-841.000000, -217.000000)" fill-rule="nonzero">
            <g id="ill-heart-magnet" transform="translate(980.000000, 355.500000) scale(-1, 1) translate(-980.000000, -355.500000) translate(841.000000, 217.000000)">
                <g id="XMLID_823_" transform="translate(4.000000, 5.000000)">
                    <g id="XMLID_2486_">
                        <g id="XMLID_2250_" transform="translate(0.000000, 69.230050)">
                            <path d="M55.3249362,86.9512369 L111.054848,31.4721992 L80.38678,0.942186881 L24.6574106,56.4217642 C-7.52375762,88.4580656 -7.52375762,140.398862 24.6574106,172.434624 C56.8385788,204.470925 109.014249,204.470925 141.194875,172.434624 L196.924787,116.955586 L166.256719,86.4255738 L110.52735,141.905151 C95.2835815,157.080298 70.5687046,157.080298 55.3254784,141.905151 C40.0811679,126.730004 40.0811679,102.126384 55.3249362,86.9512369 L55.3249362,86.9512369 Z" id="XMLID_2271_" fill="#DDFAFF"></path>
                            <path d="M166.256719,86.4261135 L110.52735,141.905151 C95.2835815,157.080298 70.5687046,157.080298 55.3254784,141.905151 L24.6574106,172.434624 C56.8380367,204.470925 109.014249,204.470925 141.194875,172.434624 L196.924787,116.955586 L166.256719,86.4261135 Z" id="XMLID_2270_" fill="#A5EFFD"></path>
                            <g id="XMLID_2254_" transform="translate(55.297829, 0.000000)" fill="#FFFFFF">
                                <polygon id="XMLID_2269_" transform="translate(28.135259, 28.418065) rotate(-45.000000) translate(-28.135259, -28.418065) " points="10.7797798 6.74567651 45.393134 6.82376003 45.4907384 50.0904528 10.8773842 50.0123692"></polygon>
                                <polygon id="XMLID_2268_" transform="translate(113.986922, 113.901452) rotate(-45.000000) translate(-113.986922, -113.901452) " points="96.6314426 92.2290635 131.244797 92.307147 131.342401 135.57384 96.729047 135.495756"></polygon>
                            </g>
                        </g>
                        <g id="XMLID_2292_" transform="translate(208.180064, 0.000000)" fill="#DDFAFF">
                            <path d="M54.960079,4.62032979 C48.9889977,-1.32387209 39.3075404,-1.32387209 33.335917,4.62032979 L29.7968559,8.14345943 L26.2577948,4.62032979 C20.2867135,-1.32387209 10.6052563,-1.32387209 4.63363283,4.62032979 L4.63309069,4.62086948 C-1.33799062,10.5650714 -1.33799062,20.2029465 4.63309069,26.1476881 L29.7941452,51.1954776 L54.9589947,26.1476881 C60.9311603,20.2034862 60.9317024,10.5650714 54.960079,4.62032979 Z" id="XMLID_2290_"></path>
                        </g>
                        <g id="XMLID_2298_" transform="translate(127.943998, 26.984755)" fill="#DDFAFF">
                            <path d="M54.9215874,4.9603377 C48.9505061,-0.983864175 39.2690488,-0.983864175 33.2974254,4.9603377 L29.7583643,8.48346734 L26.2193032,4.9603377 C20.2482219,-0.983864175 10.5667646,-0.983864175 4.5951412,4.9603377 L4.59459907,4.9608774 C-1.37648225,10.9050793 -1.37648225,20.5429544 4.59459907,26.487696 L29.7556536,51.5354855 L54.9205031,26.487696 C60.8926687,20.5434941 60.8932108,10.9050793 54.9215874,4.9603377 Z" id="XMLID_2300_"></path>
                        </g>
                        <g id="XMLID_2244_" transform="translate(183.783963, 82.573351)" fill="#DDFAFF">
                            <path d="M54.8516519,4.89125673 C48.8805706,-1.05294515 39.1991133,-1.05294515 33.2274899,4.89125673 L29.6884288,8.41438637 L26.1493677,4.89125673 C20.1782864,-1.05294515 10.4968292,-1.05294515 4.52520571,4.89125673 L4.52466358,4.89179643 C-1.44641774,10.8359983 -1.44641774,20.4738735 4.52466358,26.418615 L29.6857181,51.4664045 L54.8505676,26.418615 C60.8232753,20.4738735 60.8232753,10.8354586 54.8516519,4.89125673 L54.8516519,4.89125673 Z" id="XMLID_2248_"></path>
                        </g>
                    </g>
                </g>
                <g id="XMLID_1097_" fill="#0066CC">
                    <path d="M174.87609,157.316021 C172.75993,155.207474 169.328554,155.207474 167.211852,157.316021 L111.505637,212.822394 C105.159867,219.145337 96.7228655,222.627546 87.7482885,222.627546 C78.7737115,222.627546 70.3361676,219.145337 63.9903977,212.822394 C50.8902573,199.769376 50.8902573,178.53055 63.9903977,165.478072 L119.697154,109.9717 C121.813314,107.863152 121.813314,104.444119 119.697154,102.335571 L89.0423704,71.7905166 C88.0257466,70.7780897 86.6476686,70.2089708 85.2105224,70.2089708 C83.7733762,70.2089708 82.3952982,70.7780897 81.3786745,71.7905166 L25.6713762,127.296349 C-8.55730604,161.402446 -8.55730604,216.89694 25.6713762,251.003577 C39.2326823,264.516101 56.4123236,273.074483 75.3504639,275.75161 C79.4131657,276.326129 83.5100078,276.610148 87.6052242,276.610148 C101.968558,276.610148 116.298834,273.11714 128.942686,266.419464 C131.585041,265.019885 132.588659,261.750421 131.184027,259.117031 C129.778854,256.484181 126.497587,255.483634 123.855232,256.884292 C95.3984366,271.957844 61.2727173,267.883838 37.2753021,247.028924 L60.3704366,224.016865 C68.1560624,230.110326 77.6936842,233.426766 87.7482885,233.426766 C99.6177505,233.426766 110.776768,228.820899 119.169333,220.458522 L146.52009,193.20669 L169.511177,216.115076 L159.404008,226.186429 C157.287848,228.294977 157.287848,231.71401 159.404008,233.823097 C161.52071,235.931645 164.951002,235.931645 167.068246,233.823097 L205.531957,195.497205 C207.648117,193.388657 207.648117,189.969624 205.531957,187.861076 L174.87609,157.316021 Z M85.2099805,83.2447096 L108.201068,106.153635 L91.341154,122.952903 L68.3500663,100.043977 L85.2099805,83.2447096 Z M33.335614,134.933018 L60.6863704,107.680645 L83.6774581,130.589031 L56.3267018,157.841404 C40.3072904,173.803191 39.1123782,199.013971 52.7159532,216.371558 L29.6175673,239.386316 C3.39235867,209.300228 4.62845614,163.536372 33.335614,134.933018 Z M177.175415,208.478407 L154.184327,185.570021 L171.044242,168.770214 L194.035329,191.6786 L177.175415,208.478407 Z" id="XMLID_1136_"></path>
                    <path d="M271.719259,6.20577193 C263.744507,-1.73975439 250.829158,-1.83586745 242.735185,5.91797271 C234.640671,-1.83640741 221.72478,-1.73921442 213.750027,6.20631189 C205.677731,14.2495712 205.677731,27.3366062 213.750027,35.3798655 L238.900628,60.4399961 C239.958979,61.49454 241.345727,62.0215419 242.732476,62.0215419 C244.119224,62.0215419 245.505973,61.49454 246.563782,60.4405361 L271.718175,35.3804055 C275.629142,31.4840468 277.782694,26.3036608 277.782694,20.7933587 C277.782694,15.2830565 275.629684,10.1021306 271.719259,6.20577193 Z M264.055563,27.7431969 L242.733018,48.9858031 L221.413723,27.7437368 C217.567244,23.9110936 217.567244,17.6750838 221.414265,13.8419006 C223.337505,11.9255789 225.863349,10.9676881 228.389735,10.9676881 C230.916121,10.9676881 233.441965,11.9255789 235.365205,13.8419006 L238.903337,17.3667661 C239.919419,18.379193 241.298039,18.9483119 242.734643,18.9483119 C244.171789,18.9483119 245.550409,18.379193 246.566491,17.3667661 L250.10354,13.8424405 C253.950019,10.0097973 260.208,10.0103372 264.05448,13.8424405 C265.917567,15.6993665 266.943945,18.1680682 266.943945,20.7938986 C266.943945,23.419729 265.918651,25.8868109 264.055563,27.7431969 L264.055563,27.7431969 Z" id="XMLID_1157_"></path>
                    <path d="M158.658881,87.7782222 C159.717232,88.8327661 161.103981,89.359768 162.490729,89.359768 C163.877478,89.359768 165.264226,88.8327661 166.322035,87.7787622 L191.476429,62.7186316 C195.387396,58.8222729 197.541489,53.6418869 197.541489,48.1315848 C197.541489,42.6212827 195.387938,37.4408967 191.478055,33.5439981 C183.50276,25.5984717 170.586869,25.5028986 162.493439,33.2567388 C154.412472,25.5142378 141.523135,25.5979318 133.545673,33.5078207 C133.533209,33.5202398 133.520203,33.5326589 133.508281,33.545078 C125.436526,41.5883372 125.436526,54.6753723 133.508281,62.7186316 L158.658881,87.7782222 Z M141.147591,41.2049649 C141.156261,41.1968655 141.16439,41.1882261 141.17306,41.1801267 C145.018998,37.3474834 151.27752,37.3474834 155.124,41.1801267 L158.661049,44.7049922 C159.677131,45.7174191 161.05575,46.286538 162.492897,46.286538 C163.930043,46.286538 165.308121,45.7174191 166.324745,44.7049922 L169.862335,41.1801267 C173.708815,37.3474834 179.966795,37.3480234 183.813275,41.1801267 C185.676363,43.0365127 186.702741,45.5052144 186.702741,48.1310448 C186.702199,50.7568752 185.675821,53.225577 183.812733,55.081963 L162.490187,76.3245692 L141.170893,55.0825029 C137.334168,51.2574191 137.326039,45.0392281 141.147591,41.2049649 L141.147591,41.2049649 Z" id="XMLID_1160_"></path>
                    <path d="M232.586288,83.0481637 C227.193197,83.0481637 222.115497,85.0886764 218.240838,88.8030682 C214.366179,85.0892164 209.287938,83.0481637 203.895388,83.0481637 C198.38145,83.0481637 193.197536,85.1815497 189.291446,89.05577 C189.279524,89.0671092 189.267602,89.0789883 189.25568,89.0908674 C185.345255,92.9872261 183.192246,98.1676121 183.192246,103.677914 C183.192246,109.188216 185.345797,114.368062 189.25568,118.264421 L214.406281,143.324552 C215.464632,144.379096 216.85138,144.906097 218.238129,144.906097 C219.624877,144.906097 221.011626,144.379096 222.069435,143.325092 L247.223828,118.264961 C251.134795,114.368602 253.288889,109.188216 253.288889,103.677914 C253.288889,98.1676121 251.135337,92.9872261 247.225454,89.0903275 C243.315029,85.1945088 238.115942,83.0481637 232.586288,83.0481637 L232.586288,83.0481637 Z M239.561216,110.628292 L218.238671,131.870899 L196.919376,110.628292 C195.056288,108.771906 194.02991,106.303745 194.02991,103.677914 C194.02991,101.063963 195.047076,98.6055205 196.89499,96.7518343 C196.903661,96.7431949 196.911789,96.7350955 196.92046,96.7264561 C198.783548,94.8700702 201.26062,93.847384 203.895388,93.847384 C206.530698,93.847384 209.00777,94.8700702 210.8714,96.7269961 L214.408448,100.251862 C216.52515,102.360409 219.955442,102.360409 222.072686,100.251862 L225.610277,96.7269961 C227.473365,94.8706101 229.950437,93.847924 232.585747,93.847924 C235.220515,93.847924 237.698129,94.8706101 239.561216,96.7275361 C241.424304,98.583922 242.450682,101.052624 242.450682,103.677914 C242.450682,106.303205 241.424304,108.771906 239.561216,110.628292 Z" id="XMLID_1168_"></path>
                    <path d="M152.958526,116.559224 L140.272947,129.199172 C138.156788,131.307719 138.156788,134.726752 140.272947,136.8353 C141.331298,137.889844 142.718047,138.416846 144.104795,138.416846 C145.491544,138.416846 146.878292,137.889304 147.936643,136.8353 L160.622222,124.195353 C162.738382,122.086805 162.738382,118.667772 160.622222,116.559224 C158.506604,114.450676 155.076312,114.451216 152.958526,116.559224 L152.958526,116.559224 Z" id="XMLID_1169_"></path>
                    <path d="M103.057255,63.225655 C104.444546,63.225655 105.830752,62.6981131 106.889103,61.6441092 L113.538343,55.0187875 C115.654503,52.9102398 115.654503,49.4912066 113.538343,47.3826589 C111.421641,45.2741111 107.991349,45.2741111 105.874105,47.3826589 L99.2248655,54.0079805 C97.1087057,56.1165283 97.1087057,59.5355614 99.2248655,61.6441092 C100.283758,62.698653 101.670507,63.225655 103.057255,63.225655 Z" id="XMLID_1173_"></path>
                    <path d="M221.209965,164.602255 L214.560183,171.227577 C212.444023,173.336125 212.444023,176.755158 214.560183,178.863706 C215.618534,179.91825 217.005283,180.445251 218.392031,180.445251 C219.77878,180.445251 221.165528,179.91771 222.223879,178.863706 L228.873661,172.238384 C230.989821,170.129836 230.989821,166.710803 228.873661,164.602255 C226.758043,162.494248 223.32775,162.493708 221.209965,164.602255 L221.209965,164.602255 Z" id="XMLID_1174_"></path>
                    <path d="M145.991727,241.785363 C144.566503,241.785363 143.168374,242.363121 142.160421,243.367448 C141.15301,244.371776 140.572624,245.764875 140.572624,247.184973 C140.572624,248.61047 141.152468,249.99817 142.160421,251.002497 C143.168374,252.006825 144.566503,252.584583 145.991727,252.584583 C147.42237,252.584583 148.81508,252.006825 149.823033,251.002497 C150.830444,249.99817 151.41083,248.61047 151.41083,247.184973 C151.41083,245.764875 150.830986,244.371776 149.823033,243.367448 C148.819957,242.363121 147.421828,241.785363 145.991727,241.785363 Z" id="XMLID_1175_"></path>
                </g>
            </g>
        </g>
    </g>
</svg>