<?xml version="1.0" encoding="UTF-8"?>
<svg width="410px" height="302px" viewBox="0 0 410 302" version="1.1" xmlns="http://www.w3.org/2000/svg" xmlns:xlink="http://www.w3.org/1999/xlink">
    <!-- Generator: Sketch 58 (84663) - https://sketch.com -->
    <title>Group 52</title>
    <desc>Created with Sketch.</desc>
    <defs>
        <polygon id="path-1" points="0 302 409.913 302 409.913 0.755 0 0.755"></polygon>
    </defs>
    <g id="Home" stroke="none" stroke-width="1" fill="none" fill-rule="evenodd" opacity="0.2">
        <g id="Large-Devices_Giornalisti" transform="translate(-745.000000, -162.000000)">
            <g id="Group-52" transform="translate(745.000000, 161.000000)">
                <polygon id="Fill-1" fill="#0066CC" points="364.193 221.981 372.321 221.981 372.321 213.853 364.193 213.853"></polygon>
                <polygon id="Fill-2" fill="#0066CC" points="380.449 221.981 388.577 221.981 388.577 213.853 380.449 213.853"></polygon>
                <polygon id="Fill-3" fill="#0066CC" points="372.321 213.853 380.449 213.853 380.449 205.725 372.321 205.725"></polygon>
                <polygon id="Fill-4" fill="#0066CC" points="372.321 230.109 380.449 230.109 380.449 221.981 372.321 221.981"></polygon>
                <polygon id="Fill-5" fill="#0066CC" points="393.6573 270.7486 393.6573 278.8766 385.5293 278.8766 385.5293 287.0056 393.6573 287.0056 393.6573 295.1336 401.7853 295.1336 401.7853 287.0056 409.9133 287.0056 409.9133 278.8766 401.7853 278.8766 401.7853 270.7486"></polygon>
                <polygon id="Fill-6" fill="#0066CC" points="66.816 17.256 74.944 17.256 74.944 9.128 66.816 9.128"></polygon>
                <polygon id="Fill-7" fill="#0066CC" points="83.072 17.256 91.2 17.256 91.2 9.128 83.072 9.128"></polygon>
                <polygon id="Fill-8" fill="#0066CC" points="74.944 9.129 83.072 9.129 83.072 1 74.944 1"></polygon>
                <polygon id="Fill-9" fill="#0066CC" points="74.944 25.384 83.072 25.384 83.072 17.256 74.944 17.256"></polygon>
                <polygon id="Fill-10" fill="#0066CC" points="8.1279 68.3836 8.1279 76.5126 -0.0001 76.5126 -0.0001 84.6406 8.1279 84.6406 8.1279 92.7686 16.2559 92.7686 16.2559 84.6406 24.3839 84.6406 24.3839 76.5126 16.2559 76.5126 16.2559 68.3836"></polygon>
                <g id="Group-51" transform="translate(0.000000, 0.245000)">
                    <path d="M375.3694,50.867 C370.8864,50.867 367.2414,47.221 367.2414,42.739 C367.2414,38.257 370.8864,34.611 375.3694,34.611 C379.8514,34.611 383.4974,38.257 383.4974,42.739 C383.4974,47.221 379.8514,50.867 375.3694,50.867 M375.3694,26.483 C366.4044,26.483 359.1134,33.774 359.1134,42.739 C359.1134,51.704 366.4044,58.995 375.3694,58.995 C384.3344,58.995 391.6254,51.704 391.6254,42.739 C391.6254,33.774 384.3344,26.483 375.3694,26.483" id="Fill-11" fill="#0066CC"></path>
                    <path d="M41.0383,293.8719 C36.5553,293.8719 32.9103,290.2259 32.9103,285.7439 C32.9103,281.2619 36.5553,277.6159 41.0383,277.6159 C45.5203,277.6159 49.1663,281.2619 49.1663,285.7439 C49.1663,290.2259 45.5203,293.8719 41.0383,293.8719 M41.0383,269.4879 C32.0733,269.4879 24.7823,276.7789 24.7823,285.7439 C24.7823,294.7089 32.0733,301.9999 41.0383,301.9999 C50.0033,301.9999 57.2943,294.7089 57.2943,285.7439 C57.2943,276.7789 50.0033,269.4879 41.0383,269.4879" id="Fill-13" fill="#0066CC"></path>
                    <path d="M327.9036,224.7835 C330.0076,224.7835 331.7136,223.0775 331.7136,220.9735 L331.7136,64.1865 C331.7136,62.0825 330.0076,60.3765 327.9036,60.3765 L211.9286,60.3765 C207.8836,60.3765 204.2346,62.0945 201.6656,64.8355 C199.0956,62.0945 195.4466,60.3765 191.4026,60.3765 L75.4266,60.3765 C73.3226,60.3765 71.6166,62.0825 71.6166,64.1865 L71.6166,88.8715 C71.6166,90.9765 73.3226,92.6815 75.4266,92.6815 C77.5306,92.6815 79.2366,90.9765 79.2366,88.8715 L79.2366,67.9965 L191.4026,67.9965 C194.9606,67.9965 197.8556,70.8915 197.8556,74.4505 L197.8556,267.2155 C195.9206,266.2135 193.7276,265.6425 191.4026,265.6425 L79.2366,265.6425 L79.2366,106.6735 C79.2366,104.5685 77.5306,102.8635 75.4266,102.8635 C73.3226,102.8635 71.6166,104.5685 71.6166,106.6735 L71.6166,269.4525 C71.6166,271.5565 73.3226,273.2625 75.4266,273.2625 L191.4026,273.2625 C194.9606,273.2625 197.8556,276.1575 197.8556,279.7165 C197.8556,281.8205 199.5616,283.5265 201.6656,283.5265 C203.7696,283.5265 205.4756,281.8205 205.4756,279.7165 C205.4756,276.1575 208.3706,273.2625 211.9286,273.2625 L327.9036,273.2625 C330.0076,273.2625 331.7136,271.5565 331.7136,269.4525 L331.7136,238.7935 C331.7136,236.6885 330.0076,234.9835 327.9036,234.9835 C325.7996,234.9835 324.0936,236.6885 324.0936,238.7935 L324.0936,265.6425 L211.9286,265.6425 C209.6036,265.6425 207.4096,266.2085 205.4756,267.2115 L205.4756,74.4505 C205.4756,70.8915 208.3706,67.9965 211.9286,67.9965 L324.0936,67.9965 L324.0936,220.9735 C324.0936,223.0775 325.7996,224.7835 327.9036,224.7835" id="Fill-15" fill="#0066CC"></path>
                    <path d="M95.0935,121.4852 C96.9635,121.4852 98.4785,119.9692 98.4785,118.0992 L98.4785,107.8952 L103.8785,119.5252 C104.4425,120.7382 105.6525,121.4852 106.9475,121.4852 C107.1895,121.4852 107.4345,121.4592 107.6785,121.4052 C109.2305,121.0632 110.3345,119.6882 110.3345,118.0992 L110.3345,92.5632 C110.3345,90.6932 108.8195,89.1772 106.9485,89.1772 C105.0795,89.1772 103.5635,90.6932 103.5635,92.5632 L103.5635,102.7672 L98.1645,91.1382 C97.4955,89.6972 95.9145,88.9152 94.3635,89.2572 C92.8125,89.6002 91.7075,90.9752 91.7075,92.5632 L91.7075,118.0992 C91.7075,119.9692 93.2235,121.4852 95.0935,121.4852" id="Fill-17" fill="#0066CC"></path>
                    <path d="M142.5173,89.1776 C140.6473,89.1776 139.1313,90.6936 139.1313,92.5636 L139.1313,118.0996 C139.1313,119.6346 140.1643,120.9776 141.6483,121.3716 C143.1323,121.7656 144.6953,121.1126 145.4563,119.7796 L149.8133,112.1556 L154.1703,119.7796 C154.7833,120.8526 155.9163,121.4856 157.1093,121.4856 C157.3973,121.4856 157.6893,121.4486 157.9783,121.3716 C159.4623,120.9776 160.4953,119.6346 160.4953,118.0996 L160.4953,92.5636 C160.4953,90.6936 158.9783,89.1776 157.1093,89.1776 C155.2393,89.1776 153.7243,90.6936 153.7243,92.5636 L153.7243,105.3506 L152.7523,103.6516 C152.1503,102.5966 151.0283,101.9456 149.8133,101.9456 C148.5983,101.9456 147.4763,102.5966 146.8733,103.6516 L145.9023,105.3506 L145.9023,92.5636 C145.9033,90.6936 144.3873,89.1776 142.5173,89.1776" id="Fill-19" fill="#0066CC"></path>
                    <path d="M130.6609,95.9491 C132.5309,95.9491 134.0469,94.4331 134.0469,92.5631 C134.0469,90.6941 132.5309,89.1781 130.6609,89.1781 L118.8049,89.1781 C116.9349,89.1781 115.4199,90.6941 115.4199,92.5631 L115.4199,118.0991 C115.4199,119.9691 116.9349,121.4851 118.8049,121.4851 L130.6609,121.4851 C132.5309,121.4851 134.0469,119.9691 134.0469,118.0991 C134.0469,116.2301 132.5309,114.7141 130.6609,114.7141 L122.1909,114.7141 L122.1909,108.7171 L126.1009,108.7171 C127.9709,108.7171 129.4869,107.2011 129.4869,105.3311 C129.4869,103.4611 127.9709,101.9461 126.1009,101.9461 L122.1909,101.9461 L122.1909,95.9491 L130.6609,95.9491 Z" id="Fill-21" fill="#0066CC"></path>
                    <path d="M168.9651,114.7137 C167.0951,114.7137 165.5791,116.2297 165.5791,118.0997 C165.5791,119.9687 167.0951,121.4847 168.9651,121.4847 L180.8211,121.4847 C182.6911,121.4847 184.2071,119.9687 184.2071,118.0997 L184.2071,105.3317 C184.2071,103.4617 182.6911,101.9457 180.8211,101.9457 L172.3511,101.9457 L172.3511,95.9487 L180.8211,95.9487 C182.6911,95.9487 184.2071,94.4327 184.2071,92.5637 C184.2071,90.6937 182.6911,89.1777 180.8211,89.1777 L168.9651,89.1777 C167.0951,89.1777 165.5791,90.6937 165.5791,92.5637 L165.5791,105.3317 C165.5791,107.2007 167.0951,108.7167 168.9651,108.7167 L177.4351,108.7167 L177.4351,114.7137 L168.9651,114.7137 Z" id="Fill-23" fill="#0066CC"></path>
                    <path d="M95.0935,138.6688 L180.8215,138.6688 C182.6905,138.6688 184.2065,137.1528 184.2065,135.2838 C184.2065,133.4138 182.6905,131.8978 180.8215,131.8978 L95.0935,131.8978 C93.2235,131.8978 91.7075,133.4138 91.7075,135.2838 C91.7075,137.1528 93.2235,138.6688 95.0935,138.6688" id="Fill-25" fill="#0066CC"></path>
                    <mask id="mask-2" fill="white">
                        <use xlink:href="#path-1"></use>
                    </mask>
                    <g id="Clip-28"></g>
                    <path d="M225.387,132.746 L264.216,132.746 L264.216,93.917 L225.387,93.917 L225.387,132.746 Z M222.001,139.517 L267.601,139.517 C269.471,139.517 270.987,138.001 270.987,136.131 L270.987,90.532 C270.987,88.661 269.471,87.146 267.601,87.146 L222.001,87.146 C220.132,87.146 218.616,88.661 218.616,90.532 L218.616,136.131 C218.616,138.001 220.132,139.517 222.001,139.517 L222.001,139.517 Z" id="Fill-27" fill="#0066CC" mask="url(#mask-2)"></path>
                    <path d="M180.821,147.8177 L153.461,147.8177 C151.592,147.8177 150.076,149.3337 150.076,151.2037 C150.076,153.0727 151.592,154.5887 153.461,154.5887 L180.821,154.5887 C182.691,154.5887 184.207,153.0727 184.207,151.2037 C184.207,149.3337 182.691,147.8177 180.821,147.8177" id="Fill-29" fill="#0066CC" mask="url(#mask-2)"></path>
                    <path d="M180.821,163.0174 L153.461,163.0174 C151.592,163.0174 150.076,164.5334 150.076,166.4034 C150.076,168.2724 151.592,169.7884 153.461,169.7884 L180.821,169.7884 C182.691,169.7884 184.207,168.2724 184.207,166.4034 C184.207,164.5334 182.691,163.0174 180.821,163.0174" id="Fill-30" fill="#0066CC" mask="url(#mask-2)"></path>
                    <path d="M180.821,178.2176 L153.461,178.2176 C151.592,178.2176 150.076,179.7336 150.076,181.6036 C150.076,183.4726 151.592,184.9886 153.461,184.9886 L180.821,184.9886 C182.691,184.9886 184.207,183.4726 184.207,181.6036 C184.207,179.7336 182.691,178.2176 180.821,178.2176" id="Fill-31" fill="#0066CC" mask="url(#mask-2)"></path>
                    <path d="M180.821,193.4178 L153.461,193.4178 C151.592,193.4178 150.076,194.9338 150.076,196.8028 C150.076,198.6728 151.592,200.1888 153.461,200.1888 L180.821,200.1888 C182.691,200.1888 184.207,198.6728 184.207,196.8028 C184.207,194.9338 182.691,193.4178 180.821,193.4178" id="Fill-32" fill="#0066CC" mask="url(#mask-2)"></path>
                    <path d="M307.7292,87.1458 L280.3692,87.1458 C278.4992,87.1458 276.9832,88.6618 276.9832,90.5318 C276.9832,92.4008 278.4992,93.9168 280.3692,93.9168 L307.7292,93.9168 C309.5992,93.9168 311.1142,92.4008 311.1142,90.5318 C311.1142,88.6618 309.5992,87.1458 307.7292,87.1458" id="Fill-33" fill="#0066CC" mask="url(#mask-2)"></path>
                    <path d="M307.7292,102.3455 L280.3692,102.3455 C278.4992,102.3455 276.9832,103.8615 276.9832,105.7315 C276.9832,107.6005 278.4992,109.1165 280.3692,109.1165 L307.7292,109.1165 C309.5992,109.1165 311.1142,107.6005 311.1142,105.7315 C311.1142,103.8615 309.5992,102.3455 307.7292,102.3455" id="Fill-34" fill="#0066CC" mask="url(#mask-2)"></path>
                    <path d="M307.7292,117.5457 L280.3692,117.5457 C278.4992,117.5457 276.9832,119.0617 276.9832,120.9317 C276.9832,122.8007 278.4992,124.3167 280.3692,124.3167 L307.7292,124.3167 C309.5992,124.3167 311.1142,122.8007 311.1142,120.9317 C311.1142,119.0617 309.5992,117.5457 307.7292,117.5457" id="Fill-35" fill="#0066CC" mask="url(#mask-2)"></path>
                    <path d="M307.7292,132.7459 L280.3692,132.7459 C278.4992,132.7459 276.9832,134.2619 276.9832,136.1309 C276.9832,138.0009 278.4992,139.5169 280.3692,139.5169 L307.7292,139.5169 C309.5992,139.5169 311.1142,138.0009 311.1142,136.1309 C311.1142,134.2619 309.5992,132.7459 307.7292,132.7459" id="Fill-36" fill="#0066CC" mask="url(#mask-2)"></path>
                    <path d="M95.0935,215.2371 L180.8215,215.2371 C182.6905,215.2371 184.2065,213.7211 184.2065,211.8511 C184.2065,209.9821 182.6905,208.4661 180.8215,208.4661 L95.0935,208.4661 C93.2235,208.4661 91.7075,209.9821 91.7075,211.8511 C91.7075,213.7211 93.2235,215.2371 95.0935,215.2371" id="Fill-37" fill="#0066CC" mask="url(#mask-2)"></path>
                    <path d="M95.0935,230.285 L180.8215,230.285 C182.6905,230.285 184.2065,228.769 184.2065,226.899 C184.2065,225.03 182.6905,223.514 180.8215,223.514 L95.0935,223.514 C93.2235,223.514 91.7075,225.03 91.7075,226.899 C91.7075,228.769 93.2235,230.285 95.0935,230.285" id="Fill-38" fill="#0066CC" mask="url(#mask-2)"></path>
                    <path d="M137.3074,154.5887 L137.3074,157.5157 L115.2494,178.7717 L108.8614,174.4007 C107.4964,173.4677 105.6574,173.6557 104.5104,174.8467 L98.4784,181.1107 L98.4784,154.5887 L137.3074,154.5887 Z M98.4784,193.4177 L98.4784,190.8717 L107.4014,181.6067 L113.7024,185.9167 C115.0264,186.8227 116.8064,186.6737 117.9624,185.5607 L137.3074,166.9187 L137.3074,193.4167 L98.4784,193.4167 L98.4784,193.4177 Z M91.7074,196.8027 C91.7074,198.6727 93.2234,200.1887 95.0934,200.1887 L140.6934,200.1887 C142.5624,200.1887 144.0784,198.6727 144.0784,196.8027 L144.0784,151.2037 C144.0784,149.3337 142.5624,147.8177 140.6934,147.8177 L95.0934,147.8177 C93.2234,147.8177 91.7074,149.3337 91.7074,151.2037 L91.7074,196.8027 Z" id="Fill-39" fill="#0066CC" mask="url(#mask-2)"></path>
                    <path d="M95.0935,245.3328 L140.6935,245.3328 C142.5625,245.3328 144.0785,243.8168 144.0785,241.9468 C144.0785,240.0778 142.5625,238.5618 140.6935,238.5618 L95.0935,238.5618 C93.2235,238.5618 91.7075,240.0778 91.7075,241.9468 C91.7075,243.8168 93.2235,245.3328 95.0935,245.3328" id="Fill-40" fill="#0066CC" mask="url(#mask-2)"></path>
                    <path d="M311.1145,223.3431 C311.1145,221.4731 309.5985,219.9581 307.7295,219.9581 L222.0015,219.9581 C220.1315,219.9581 218.6155,221.4731 218.6155,223.3431 C218.6155,225.2131 220.1315,226.7291 222.0015,226.7291 L307.7295,226.7291 C309.5985,226.7291 311.1145,225.2131 311.1145,223.3431" id="Fill-41" fill="#0066CC" mask="url(#mask-2)"></path>
                    <path d="M222.0012,235.0057 C220.1312,235.0057 218.6162,236.5217 218.6162,238.3907 C218.6162,240.2607 220.1312,241.7767 222.0012,241.7767 L267.6012,241.7767 C269.4712,241.7767 270.9872,240.2607 270.9872,238.3907 C270.9872,236.5217 269.4712,235.0057 267.6012,235.0057 L222.0012,235.0057 Z" id="Fill-42" fill="#0066CC" mask="url(#mask-2)"></path>
                    <path d="M225.387,202.878 L304.344,202.878 L304.344,155.385 L225.387,155.385 L225.387,202.878 Z M311.115,151.999 C311.115,150.129 309.599,148.614 307.729,148.614 L222.001,148.614 C220.132,148.614 218.616,150.129 218.616,151.999 L218.616,206.263 C218.616,208.133 220.132,209.649 222.001,209.649 L307.729,209.649 C309.599,209.649 311.115,208.133 311.115,206.263 L311.115,151.999 Z" id="Fill-43" fill="#0066CC" mask="url(#mask-2)"></path>
                    <path d="M244.6077,167.4979 L244.6077,179.1309 C244.6077,181.0009 246.1237,182.5169 247.9937,182.5169 L259.6267,182.5169 C258.1577,187.5559 253.5007,191.2499 247.9937,191.2499 C241.3107,191.2499 235.8747,185.8129 235.8747,179.1309 C235.8747,173.6239 239.5687,168.9669 244.6077,167.4979 M259.6267,175.7459 L251.3787,175.7459 L251.3787,167.4979 C255.3427,168.6529 258.4717,171.7819 259.6267,175.7459 M247.9937,198.0209 C258.4087,198.0209 266.8827,189.5469 266.8827,179.1309 C266.8827,168.7149 258.4087,160.2419 247.9937,160.2419 C237.5777,160.2419 229.1037,168.7149 229.1037,179.1309 C229.1037,189.5469 237.5777,198.0209 247.9937,198.0209" id="Fill-44" fill="#0066CC" mask="url(#mask-2)"></path>
                    <path d="M274.8972,198.0213 C276.7672,198.0213 278.2832,196.5053 278.2832,194.6353 L278.2832,182.0953 C278.2832,180.2263 276.7672,178.7103 274.8972,178.7103 C273.0272,178.7103 271.5122,180.2263 271.5122,182.0953 L271.5122,194.6353 C271.5122,196.5053 273.0272,198.0213 274.8972,198.0213" id="Fill-45" fill="#0066CC" mask="url(#mask-2)"></path>
                    <path d="M285.8411,198.0213 C287.7111,198.0213 289.2271,196.5053 289.2271,194.6353 L289.2271,176.1673 C289.2271,174.2973 287.7111,172.7813 285.8411,172.7813 C283.9711,172.7813 282.4551,174.2973 282.4551,176.1673 L282.4551,194.6353 C282.4551,196.5053 283.9711,198.0213 285.8411,198.0213" id="Fill-46" fill="#0066CC" mask="url(#mask-2)"></path>
                    <path d="M296.3293,198.0213 C298.1993,198.0213 299.7143,196.5053 299.7143,194.6353 L299.7143,169.3273 C299.7143,167.4583 298.1993,165.9413 296.3293,165.9413 C294.4593,165.9413 292.9433,167.4583 292.9433,169.3273 L292.9433,194.6353 C292.9433,196.5053 294.4593,198.0213 296.3293,198.0213" id="Fill-47" fill="#0066CC" mask="url(#mask-2)"></path>
                    <polygon id="Fill-48" fill-opacity="0.3" fill="#0066CC" mask="url(#mask-2)" points="221.56 136.131 268.513 136.131 268.513 89.177 221.56 89.177"></polygon>
                    <polygon id="Fill-49" fill-opacity="0.3" fill="#0066CC" mask="url(#mask-2)" points="221.561 206.807 307.314 206.807 307.314 152.268 221.561 152.268"></polygon>
                    <polygon id="Fill-50" fill-opacity="0.3" fill="#0066CC" mask="url(#mask-2)" points="94.416 197.48 141.37 197.48 141.37 150.527 94.416 150.527"></polygon>
                </g>
            </g>
        </g>
    </g>
</svg>