<svg xmlns="http://www.w3.org/2000/svg" xmlns:xlink="http://www.w3.org/1999/xlink" width="46" height="46" viewBox="0 0 46 46">
  <defs>
    <polygon id="io-logo-blue-a" points="0 0 32 0 32 26 0 26"/>
  </defs>
  <g fill="none" fill-rule="evenodd">
    <rect width="46" height="46"/>
    <g transform="translate(7 10)">
      <mask id="io-logo-blue-b" fill="#fff">
        <use xlink:href="#io-logo-blue-a"/>
      </mask>
      <path fill="#06C" d="M3.20156,6.48547059 C1.4334,6.48547059 0,5.03365635 0,3.24275542 C0,1.45185449 1.4334,0 3.20156,0 C4.96972,0 6.40312,1.45185449 6.40312,3.24275542 C6.40312,5.03365635 4.96972,6.48547059 3.20156,6.48547059 L3.20156,6.48547059 Z M3.20156,9.4787709 C4.69768,9.4787709 5.91056,10.6991207 5.91056,12.2045046 L5.91056,22.7901672 C5.91056,24.2955913 4.69768,25.5159412 3.20156,25.5159412 C1.70544,25.5159412 0.49256,24.2955913 0.49256,22.7901672 L0.49256,12.2045046 C0.49256,10.6991207 1.70544,9.4787709 3.20156,9.4787709 L3.20156,9.4787709 Z M16.9862,14.9625975 C16.72056,14.9625975 16.4958,14.8675728 16.32212,14.6774427 C16.14844,14.4873529 16.05652,14.2550031 16.05652,13.9804334 C16.05652,13.7058235 16.14844,13.4734737 16.31192,13.2833839 C16.4856,13.0932941 16.71036,13.008774 16.97596,13.008774 C17.24156,13.008774 17.46636,13.103839 17.64,13.2939288 C17.81372,13.4840588 17.89544,13.7163684 17.89544,14.0015232 C17.89544,14.286678 17.81372,14.508483 17.64,14.6985728 C17.47656,14.8675728 17.26204,14.9625975 16.9862,14.9625975 L16.9862,14.9625975 Z M25.36356,14.508483 L23.95372,14.508483 L23.95372,16.9481362 C23.95372,17.191031 23.96392,17.3494861 23.97416,17.455096 C23.98436,17.5501207 24.02524,17.6346409 24.09672,17.7085759 C24.16824,17.7824706 24.28064,17.8141858 24.43388,17.8141858 L25.31248,17.7930155 L25.384,19.0603746 C24.8732,19.1765294 24.47476,19.2399195 24.20912,19.2399195 C23.51444,19.2399195 23.04448,19.0815046 22.79928,18.7540898 C22.54388,18.4372601 22.42128,17.8458607 22.42128,16.9798111 L22.42128,11.4985201 L23.96392,11.4985201 L23.96392,13.1460588 L25.37376,13.1460588 L25.37376,14.508483 L25.36356,14.508483 Z M19.30528,19.0920898 L19.30528,13.156644 L20.84796,13.156644 L20.84796,19.1026347 L19.30528,19.1026347 L19.30528,19.0920898 Z M21.98044,26 C27.28984,26 32,21.2648607 32,15.4237554 C32,9.58265015 27.28984,4.84747059 21.98044,4.84747059 C15.66912,4.84747059 10.95892,9.58265015 10.95892,15.4237554 C10.95892,21.2648607 15.66912,26 21.98044,26 L21.98044,26 Z" mask="url(#io-logo-blue-b)"/>
    </g>
  </g>
</svg>
