<?xml version="1.0" encoding="UTF-8"?>
<svg width="100%" height="32px" viewBox="0 0 88 25" version="1.1" xmlns="http://www.w3.org/2000/svg" xmlns:xlink="http://www.w3.org/1999/xlink">
    <g id="Page-1" stroke="none" stroke-width="1" fill="none" fill-rule="evenodd">
        <g id="logo-pagopa" transform="translate(0.704545, 0.045455)" fill="#FFFFFF" fill-rule="nonzero">
            <path d="M86.5909091,1.70454545 L86.5909091,18.4090909 L83.8636691,18.4090909 L83.8636964,16.2309954 C82.379416,17.5840527 80.4054242,18.4090909 78.2387369,18.4090909 C75.3150242,18.4090909 72.742184,16.9068108 71.25,14.6320438 C72.1124223,13.3178829 72.6138048,11.7459033 72.6138048,10.0568182 C72.6138048,8.36773309 72.1124223,6.79575351 71.2503695,5.4815926 C72.742184,3.20682559 75.3150242,1.70454545 78.2387369,1.70454545 C80.4054242,1.70454545 82.379416,2.5295837 83.8636964,3.88264101 L83.8636691,1.70454545 L86.5909091,1.70454545 Z M78.2387369,4.43181818 C75.1321725,4.43181818 72.6138048,6.95021645 72.6138048,10.0568182 C72.6138048,13.1634199 75.1321725,15.6818182 78.2387369,15.6818182 C81.3453014,15.6818182 83.8636691,13.1634199 83.8636691,10.0568182 C83.8636691,6.95021645 81.3453014,4.43181818 78.2387369,4.43181818 Z" id="Shape" opacity="0.4"></path>
            <path d="M2.7272399,1.70454545 L2.72721273,3.88264101 C4.21149307,2.5295837 6.18548478,1.70454545 8.35217216,1.70454545 C11.2758847,1.70454545 13.8487252,3.20682559 15.3409091,5.4815926 C14.4784867,6.79575351 13.9771045,8.36773309 13.9771045,10.0568182 C13.9771045,11.7459033 14.4784867,13.3178829 15.3405397,14.6320438 C13.8487252,16.9068108 11.2758847,18.4090909 8.35217216,18.4090909 C6.18548478,18.4090909 4.21149307,17.5840527 2.72721273,16.2309954 L2.7272399,23.1818182 L0,23.1818182 L0,1.70454545 L2.7272399,1.70454545 Z M8.35217216,4.43181818 C5.24560786,4.43181818 2.7272399,6.95021645 2.7272399,10.0568182 C2.7272399,13.1634199 5.24560786,15.6818182 8.35217216,15.6818182 C11.4587365,15.6818182 13.9771045,13.1634199 13.9771045,10.0568182 C13.9771045,6.95021645 11.4587365,4.43181818 8.35217216,4.43181818 Z" id="Shape" opacity="0.4"></path>
            <path d="M30.6815069,1.70454545 L30.6815069,3.89050735 C29.0058109,5.42114516 27.954285,7.62613098 27.954285,10.0772166 C27.954285,12.5283022 29.0058109,14.733288 30.6815069,16.2639258 L30.6815069,18.4090909 L27.954285,18.4090909 L27.9543119,16.2309954 C26.4700415,17.5840527 24.496063,18.4090909 22.3293897,18.4090909 C17.7166428,18.4090909 13.9772727,14.669651 13.9772727,10.0568182 C13.9772727,5.44398532 17.7166428,1.70454545 22.3293897,1.70454545 C24.496063,1.70454545 26.4700415,2.5295837 27.9543119,3.88264101 L27.954285,1.70454545 L30.6815069,1.70454545 Z M22.3293897,4.43181818 C19.222846,4.43181818 16.7044946,6.95021645 16.7044946,10.0568182 C16.7044946,13.1634199 19.222846,15.6818182 22.3293897,15.6818182 C25.4359336,15.6818182 27.954285,13.1634199 27.954285,10.0568182 C27.954285,6.95021645 25.4359336,4.43181818 22.3293897,4.43181818 Z" id="Shape" opacity="0.7"></path>
            <path d="M58.6363636,1.70454545 L58.6366749,3.88233239 C60.1209348,2.52945825 62.0948148,1.70454545 64.2613636,1.70454545 C68.8741964,1.70454545 72.6136364,5.44398532 72.6136364,10.0568182 C72.6136364,14.669651 68.8741964,18.4090909 64.2613636,18.4090909 C62.0948148,18.4090909 60.1209348,17.5841782 58.6366749,16.231304 L58.6363636,23.1818182 L55.9090909,23.1818182 L55.9090909,16.2310042 C57.584818,14.7034647 58.6363636,12.5029423 58.6363636,10.0568182 C58.6363636,7.6106941 57.584818,5.41017164 55.9090909,3.88263215 L55.9090909,1.70454545 L58.6363636,1.70454545 Z M64.2613636,4.43181818 C61.154762,4.43181818 58.6363636,6.95021645 58.6363636,10.0568182 C58.6363636,13.1634199 61.154762,15.6818182 64.2613636,15.6818182 C67.3679652,15.6818182 69.8863636,13.1634199 69.8863636,10.0568182 C69.8863636,6.95021645 67.3679652,4.43181818 64.2613636,4.43181818 Z" id="Shape" opacity="0.7"></path>
            <path d="M44.6590909,0 L44.6590909,3.88227273 L44.7739002,3.77988597 C46.2444573,2.48792963 48.1727949,1.70454545 50.2841015,1.70454545 C54.8969284,1.70454545 58.6363636,5.44398532 58.6363636,10.0568182 C58.6363636,14.669651 54.8969284,18.4090909 50.2841015,18.4090909 C48.1173989,18.4090909 46.1433931,17.5840592 44.6590984,16.2310111 L44.6590909,18.4464303 C44.6590909,20.5736427 43.8082183,22.5730326 42.315046,24.0941062 L42.2046464,24.2045455 L40.2953536,22.253131 C41.3099025,21.2564506 41.8933974,19.9628833 41.9299865,18.5845394 L41.9318182,18.4464303 L41.9318455,16.2639169 C40.447547,17.6197186 38.4735317,18.4464303 36.3068182,18.4464303 C31.6939855,18.4464303 27.9545455,14.6994057 27.9545455,10.0772166 C27.9545455,5.45502743 31.6939855,1.70800282 36.3068182,1.70800282 C38.4735317,1.70800282 40.447547,2.53471452 41.9318455,3.89051622 L41.9318182,0 L44.6590909,0 Z M36.3068182,4.44080731 C33.2002166,4.44080731 30.6818182,6.96431369 30.6818182,10.0772166 C30.6818182,13.1901195 33.2002166,15.7136259 36.3068182,15.7136259 C39.4134198,15.7136259 41.9318182,13.1901195 41.9318182,10.0772166 C41.9318182,6.96431369 39.4134198,4.44080731 36.3068182,4.44080731 Z M50.2841015,4.43181818 C47.1775036,4.43181818 44.6591083,6.95021645 44.6591083,10.0568182 C44.6591083,13.1634199 47.1775036,15.6818182 50.2841015,15.6818182 C53.3906993,15.6818182 55.9090943,13.1634199 55.9090943,10.0568182 C55.9090943,6.95021645 53.3906993,4.43181818 50.2841015,4.43181818 Z" id="Shape"></path>
        </g>
    </g>
</svg>