<?xml version="1.0" encoding="UTF-8"?>
<svg width="50px" height="50px" viewBox="0 0 50 50" version="1.1" xmlns="http://www.w3.org/2000/svg" xmlns:xlink="http://www.w3.org/1999/xlink">
    <!-- Generator: Sketch 61.2 (89653) - https://sketch.com -->
    <title>Fill 1</title>
    <desc>Created with Sketch.</desc>
    <g id="Symbols" stroke="none" stroke-width="1" fill="none" fill-rule="evenodd">
        <g id="Icons/Municipality" transform="translate(-3.000000, -3.000000)" fill="#FFFFFF">
            <path d="M28,20.578125 C28.5386719,20.578125 28.9765625,21.0160156 28.9765625,21.5546875 C28.9765625,22.0933594 28.5386719,22.53125 28,22.53125 C27.4613281,22.53125 27.0234375,22.0933594 27.0234375,21.5546875 C27.0234375,21.0160156 27.4613281,20.578125 28,20.578125 L28,20.578125 Z M28,24.484375 C29.6155273,24.484375 30.9296875,23.1702148 30.9296875,21.5546875 C30.9296875,19.9391602 29.6155273,18.625 28,18.625 C26.3844727,18.625 25.0703125,19.9391602 25.0703125,21.5546875 C25.0703125,23.1702148 26.3844727,24.484375 28,24.484375 L28,24.484375 Z M28.9765625,52.0234375 C28.9765625,52.562793 28.5393555,53 28,53 C27.4606445,53 27.0234375,52.562793 27.0234375,52.0234375 C27.0234375,51.484082 27.4606445,51.046875 28,51.046875 C28.5393555,51.046875 28.9765625,51.484082 28.9765625,52.0234375 L28.9765625,52.0234375 Z M10.1685547,22.53125 L9.94775391,22.6541016 C9.63759766,22.8264648 9.4453125,23.1530273 9.4453125,23.5078125 L9.4453125,27.4140625 C9.4453125,27.953418 9.88251953,28.390625 10.421875,28.390625 L11.3984375,28.390625 L11.3984375,47.140625 L6.90625,47.140625 L6.90625,22.53125 L10.1685547,22.53125 Z M13.3515625,16.671875 L20.7154297,16.671875 L13.6841797,20.578125 L13.3515625,20.578125 L13.3515625,16.671875 Z M28,8.859375 C32.0679688,8.859375 35.7541016,11.1649414 37.5695313,14.71875 L31.7685547,14.71875 L28.4741211,12.8884766 C28.1792969,12.7244141 27.8207031,12.7244141 27.5258789,12.8884766 L24.2310547,14.71875 L18.4304687,14.71875 C20.2458984,11.1649414 23.9320313,8.859375 28,8.859375 L28,8.859375 Z M42.6484375,20.578125 L42.3158203,20.578125 L35.2845703,16.671875 L42.6484375,16.671875 L42.6484375,20.578125 Z M40.6953125,47.140625 L42.6484375,47.140625 L42.6484375,28.390625 L40.6953125,28.390625 L40.6953125,47.140625 Z M13.3515625,47.140625 L15.3046875,47.140625 L15.3046875,28.390625 L13.3515625,28.390625 L13.3515625,47.140625 Z M28,14.859082 C30.8408203,16.4373047 42.8037109,23.0832031 44.6015625,24.0823242 L44.6015625,26.4375 L11.3984375,26.4375 L11.3984375,24.0823242 C13.5854492,22.8672852 26.1841797,15.8681641 28,14.859082 L28,14.859082 Z M28,32.296875 C24.2306641,32.296875 21.1640625,35.3634766 21.1640625,39.1328125 L21.1640625,47.140625 L17.2578125,47.140625 L17.2578125,28.390625 L38.7421875,28.390625 L38.7421875,47.140625 L34.8359375,47.140625 L34.8359375,39.1328125 C34.8359375,35.3634766 31.7693359,32.296875 28,32.296875 L28,32.296875 Z M28.9765625,34.3484375 C31.202832,34.8019531 32.8828125,36.7746094 32.8828125,39.1328125 L32.8828125,47.140625 L28.9765625,47.140625 L28.9765625,34.3484375 Z M27.0234375,47.140625 L23.1171875,47.140625 L23.1171875,39.1328125 C23.1171875,36.7749023 24.797168,34.8019531 27.0234375,34.3484375 L27.0234375,47.140625 Z M49.09375,47.140625 L44.6015625,47.140625 L44.6015625,28.390625 L45.578125,28.390625 C46.1174805,28.390625 46.5546875,27.953418 46.5546875,27.4140625 L46.5546875,23.5078125 C46.5546875,23.1530273 46.3624023,22.8264648 46.0522461,22.6541016 L45.8314453,22.53125 L49.09375,22.53125 L49.09375,47.140625 Z M51.046875,47.3084961 L51.046875,21.5546875 C51.046875,21.015332 50.609668,20.578125 50.0703125,20.578125 L44.6015625,20.578125 L44.6015625,15.6953125 C44.6015625,15.155957 44.1643555,14.71875 43.625,14.71875 L39.7195312,14.71875 C37.8861328,10.318457 33.7174805,7.31025391 28.9765625,6.94443359 L28.9765625,3.9765625 C28.9765625,3.43720703 28.5393555,3 28,3 C27.4606445,3 27.0234375,3.43720703 27.0234375,3.9765625 L27.0234375,6.94443359 C22.2825195,7.31025391 18.1138672,10.318457 16.2804688,14.71875 L12.375,14.71875 C11.8356445,14.71875 11.3984375,15.155957 11.3984375,15.6953125 L11.3984375,20.578125 L5.9296875,20.578125 C5.39033203,20.578125 4.953125,21.015332 4.953125,21.5546875 L4.953125,47.3084961 C3.81630859,47.7117188 3,48.7973633 3,50.0703125 L3,52.0234375 C3,52.562793 3.43720703,53 3.9765625,53 L23.6054688,53 C24.1448242,53 24.5820312,52.562793 24.5820312,52.0234375 C24.5820312,51.484082 24.1448242,51.046875 23.6054688,51.046875 L4.953125,51.046875 L4.953125,50.0703125 C4.953125,49.5316406 5.39101563,49.09375 5.9296875,49.09375 L50.0703125,49.09375 C50.6089844,49.09375 51.046875,49.5316406 51.046875,50.0703125 L51.046875,51.046875 L32.3945312,51.046875 C31.8551758,51.046875 31.4179688,51.484082 31.4179688,52.0234375 C31.4179688,52.562793 31.8551758,53 32.3945312,53 L52.0234375,53 C52.562793,53 53,52.562793 53,52.0234375 L53,50.0703125 C53,48.7973633 52.1836914,47.7117188 51.046875,47.3084961 L51.046875,47.3084961 Z" id="Fill-1"></path>
        </g>
    </g>
</svg>