<svg width="200" height="48" viewBox="0 0 200 48" fill="none" xmlns="http://www.w3.org/2000/svg">
<path d="M65.7068 45.2377H1.28834V2.29166H65.7068V45.2377ZM0 1.04419V46.5374H66.9949V1.04419H0Z" fill="white"/>
<path d="M32.125 11.6488L33.4842 10.6571L34.8436 11.6488L34.3262 10.0448L35.707 9.05282H34.005L33.4842 7.4292L32.9634 9.05464L31.2625 9.05282L32.6422 10.0448L32.125 11.6488Z" fill="white"/>
<path d="M25.0906 13.5389L26.4498 12.547L27.8083 13.5389L27.2918 11.9344L28.6715 10.9424H26.9697L26.4491 9.31698L25.9283 10.9445L24.2272 10.9424L25.6068 11.9344L25.0906 13.5389Z" fill="white"/>
<path d="M21.3027 14.4759L20.7819 16.1029L19.081 16.1011L20.4607 17.093L19.9435 18.6973L21.3027 17.7054L22.6617 18.6973L22.1447 17.093L23.5244 16.1011H21.8236L21.3027 14.4759Z" fill="white"/>
<path d="M19.4147 24.731L20.7732 25.7229L20.2567 24.119L21.6364 23.1266H19.9353L19.4147 21.5014L18.8939 23.1305L17.1921 23.1266L18.5724 24.119L18.0555 25.7229L19.4147 24.731Z" fill="white"/>
<path d="M21.8236 30.1736L21.3027 28.5481L20.7819 30.1753L19.081 30.1736L20.4607 31.1653L19.9435 32.7698L21.3027 31.776L22.6617 32.7698L22.1447 31.1653L23.5244 30.1736H21.8236Z" fill="white"/>
<path d="M26.9804 35.3302L26.4596 33.7067L25.9396 35.3322L24.2379 35.3302L25.6175 36.3221L25.1012 37.9266L26.4605 36.9347L27.8188 37.9266L27.3025 36.3221L28.6822 35.3302H26.9804Z" fill="white"/>
<path d="M34.0059 37.1991L33.4851 35.5735L32.9652 37.2007L31.2634 37.1991L32.6431 38.191L32.1268 39.7951L33.486 38.8032L34.8443 39.7951L34.3271 38.191L35.7077 37.1991H34.0059Z" fill="white"/>
<path d="M41.0313 35.3302L40.5113 33.7067L39.9898 35.3322L38.2899 35.3302L39.6684 36.3221L39.1524 37.9266L40.5113 36.9347L41.8708 37.9266L41.3527 36.3221L42.7333 35.3302H41.0313Z" fill="white"/>
<path d="M46.1899 30.1736L45.6684 28.5481L45.1467 30.1753L43.4467 30.1736L44.8271 31.1653L44.3092 32.7698L45.6684 31.776L47.0276 32.7698L46.5095 31.1653L47.8901 30.1736H46.1899Z" fill="white"/>
<path d="M49.7588 23.1073H48.0571L47.5353 21.4817L47.0154 23.1089L45.3136 23.1073L46.6942 24.0993L46.1777 25.7034L47.5353 24.7098L48.8945 25.7034L48.3782 24.0993L49.7588 23.1073Z" fill="white"/>
<path d="M44.309 18.676L45.6682 17.6843L47.0276 18.676L46.5095 17.0717L47.8901 16.0816H46.1897L45.6682 14.4561L45.1467 16.0836L43.4465 16.0816L44.8268 17.0717L44.309 18.676Z" fill="white"/>
<path d="M40.5311 9.3188L40.0112 10.9463L38.3094 10.9424L39.688 11.9362L39.1719 13.5407L40.5329 12.547L41.8903 13.5407L41.374 11.9362L42.7544 10.9424H41.0508L40.5311 9.3188Z" fill="white"/>
<path d="M73.6816 12.564V2.97081H80.2581V4.59353H75.6185V6.86428H79.6232V8.48723H75.6185V12.564H73.6816Z" fill="white"/>
<path d="M81.8413 12.564V5.61454H83.6802V12.564H81.8413ZM81.8413 4.67212V2.97081H83.6802V4.67212H81.8413Z" fill="white"/>
<path d="M91.8863 12.564H90.0473V9.01715C90.0473 8.2669 90.0082 7.78149 89.9296 7.56116C89.851 7.34106 89.7236 7.16979 89.5467 7.04759C89.3702 6.92539 89.1573 6.86429 88.9088 6.86429C88.5902 6.86429 88.3046 6.95174 88.0514 7.12618C87.7986 7.30063 87.625 7.53186 87.5312 7.81965C87.4374 8.10767 87.3906 8.63987 87.3906 9.41647V12.564H85.5519V5.61454H87.2598V6.63533C87.866 5.85009 88.6294 5.45736 89.5501 5.45736C89.9557 5.45736 90.3264 5.5305 90.6624 5.67655C90.9983 5.82283 91.2525 6.00932 91.4249 6.23623C91.5971 6.46315 91.717 6.72028 91.7847 7.0083C91.8524 7.29631 91.8863 7.70858 91.8863 8.24509V12.564Z" fill="white"/>
<path d="M97.5857 9.22658C97.3502 9.30517 96.977 9.39898 96.4666 9.50801C95.9562 9.61727 95.6225 9.7238 95.4656 9.82874C95.2255 9.99887 95.1056 10.2147 95.1056 10.4766C95.1056 10.7339 95.2014 10.9563 95.3936 11.1439C95.5853 11.3315 95.8295 11.4253 96.1263 11.4253C96.4577 11.4253 96.7744 11.3163 97.0751 11.098C97.2977 10.9324 97.4438 10.7296 97.5137 10.4895C97.5614 10.3325 97.5857 10.0336 97.5857 9.59319V9.22658ZM95.1253 7.7347L93.4565 7.43373C93.6439 6.76184 93.9669 6.26462 94.4251 5.94163C94.8832 5.61908 95.5637 5.45736 96.4666 5.45736C97.2868 5.45736 97.8974 5.55457 98.2989 5.74878C98.7001 5.94276 98.9826 6.18921 99.1462 6.48791C99.31 6.78683 99.3917 7.33561 99.3917 8.13379L99.372 10.2801C99.372 10.8909 99.4015 11.3413 99.4603 11.6314C99.5194 11.9216 99.6293 12.2324 99.7908 12.564H97.9716C97.9235 12.4418 97.8647 12.2608 97.7952 12.0209C97.7645 11.9116 97.7427 11.8399 97.7295 11.8049C97.4154 12.1104 97.0794 12.3394 96.7219 12.492C96.3642 12.6446 95.9823 12.721 95.5767 12.721C94.8612 12.721 94.2974 12.527 93.8851 12.1386C93.4729 11.7504 93.2669 11.2595 93.2669 10.6662C93.2669 10.2737 93.3604 9.92346 93.5483 9.6159C93.7357 9.30858 93.9985 9.0728 94.3367 8.90926C94.6749 8.74572 95.1621 8.60284 95.7993 8.48064C96.6585 8.31914 97.2541 8.16877 97.5857 8.02908V7.84577C97.5857 7.49257 97.4983 7.24066 97.3241 7.09007C97.1494 6.9397 96.82 6.86428 96.3358 6.86428C96.0087 6.86428 95.7536 6.92879 95.5703 7.05736C95.387 7.18615 95.2387 7.41193 95.1253 7.7347Z" fill="white"/>
<path d="M107.526 12.564H105.687V9.01715C105.687 8.2669 105.648 7.78149 105.569 7.56116C105.491 7.34106 105.363 7.16979 105.186 7.04759C105.01 6.92539 104.797 6.86429 104.548 6.86429C104.23 6.86429 103.944 6.95174 103.691 7.12618C103.438 7.30063 103.265 7.53186 103.171 7.81965C103.077 8.10767 103.03 8.63987 103.03 9.41647V12.564H101.191V5.61454H102.899V6.63533C103.505 5.85009 104.269 5.45736 105.19 5.45736C105.595 5.45736 105.966 5.5305 106.302 5.67655C106.638 5.82283 106.892 6.00932 107.064 6.23623C107.236 6.46315 107.357 6.72028 107.424 7.0083C107.492 7.29631 107.526 7.70858 107.526 8.24509V12.564Z" fill="white"/>
<path d="M108.651 12.564V11.131L111.256 8.14038C111.683 7.65179 111.999 7.30494 112.204 7.09983C111.991 7.11301 111.709 7.12187 111.36 7.12618L108.907 7.13913V5.61454H114.652V6.91676L111.995 9.97911L111.059 10.9933C111.57 10.9629 111.886 10.9476 112.008 10.9476H114.855V12.564H108.651Z" fill="white"/>
<path d="M116.091 12.564V5.61454H117.93V12.564H116.091ZM116.091 4.67212V2.97081H117.93V4.67212H116.091Z" fill="white"/>
<path d="M123.649 9.22658C123.414 9.30517 123.041 9.39898 122.53 9.50801C122.02 9.61727 121.686 9.7238 121.529 9.82874C121.289 9.99887 121.169 10.2147 121.169 10.4766C121.169 10.7339 121.265 10.9563 121.457 11.1439C121.649 11.3315 121.893 11.4253 122.19 11.4253C122.521 11.4253 122.838 11.3163 123.139 11.098C123.361 10.9324 123.507 10.7296 123.577 10.4895C123.625 10.3325 123.649 10.0336 123.649 9.59319V9.22658ZM121.189 7.7347L119.52 7.43373C119.708 6.76184 120.031 6.26462 120.489 5.94163C120.947 5.61908 121.627 5.45736 122.53 5.45736C123.35 5.45736 123.961 5.55457 124.363 5.74878C124.764 5.94276 125.046 6.18921 125.21 6.48791C125.374 6.78683 125.455 7.33561 125.455 8.13379L125.436 10.2801C125.436 10.8909 125.465 11.3413 125.524 11.6314C125.583 11.9216 125.693 12.2324 125.854 12.564H124.035C123.987 12.4418 123.928 12.2608 123.859 12.0209C123.828 11.9116 123.806 11.8399 123.793 11.8049C123.479 12.1104 123.143 12.3394 122.786 12.492C122.428 12.6446 122.046 12.721 121.64 12.721C120.925 12.721 120.361 12.527 119.949 12.1386C119.537 11.7504 119.33 11.2595 119.33 10.6662C119.33 10.2737 119.424 9.92346 119.612 9.6159C119.799 9.30858 120.062 9.0728 120.4 8.90926C120.739 8.74572 121.226 8.60284 121.863 8.48064C122.722 8.31914 123.318 8.16877 123.649 8.02908V7.84577C123.649 7.49257 123.562 7.24066 123.388 7.09007C123.213 6.9397 122.884 6.86428 122.399 6.86428C122.072 6.86428 121.817 6.92879 121.634 7.05736C121.451 7.18615 121.302 7.41193 121.189 7.7347Z" fill="white"/>
<path d="M130.455 5.61454V7.0803H129.198V9.88098C129.198 10.4482 129.21 10.7787 129.234 10.8722C129.258 10.9663 129.313 11.0437 129.398 11.1046C129.483 11.1657 129.587 11.1961 129.709 11.1961C129.879 11.1961 130.125 11.1373 130.448 11.0197L130.605 12.4461C130.178 12.6292 129.693 12.721 129.153 12.721C128.821 12.721 128.522 12.6653 128.256 12.5542C127.99 12.4427 127.795 12.2989 127.67 12.1222C127.546 11.9455 127.46 11.7068 127.412 11.4056C127.373 11.1918 127.353 10.76 127.353 10.1099V7.0803H126.509V5.61454H127.353V4.23374L129.198 3.16071V5.61454H130.455Z" fill="white"/>
<path d="M133.19 9.08916C133.19 9.77854 133.353 10.3062 133.681 10.6728C134.008 11.0392 134.411 11.2225 134.891 11.2225C135.371 11.2225 135.773 11.0392 136.099 10.6728C136.423 10.3062 136.586 9.77422 136.586 9.07598C136.586 8.39546 136.423 7.87212 136.099 7.50551C135.773 7.13913 135.371 6.95582 134.891 6.95582C134.411 6.95582 134.008 7.13913 133.681 7.50551C133.353 7.87212 133.19 8.4 133.19 9.08916ZM131.305 8.99103C131.305 8.38047 131.456 7.78921 131.757 7.21772C132.058 6.64623 132.484 6.21011 133.036 5.90892C133.588 5.60795 134.204 5.45736 134.885 5.45736C135.936 5.45736 136.798 5.79875 137.469 6.48155C138.141 7.16434 138.477 8.02703 138.477 9.06962C138.477 10.1211 138.138 10.9924 137.46 11.6838C136.781 12.3752 135.927 12.721 134.898 12.721C134.261 12.721 133.653 12.577 133.075 12.2889C132.497 12.0011 132.058 11.5791 131.757 11.0231C131.456 10.4666 131.305 9.78944 131.305 8.99103Z" fill="white"/>
<path d="M75.1212 25.0203C75.1212 25.762 75.2237 26.2985 75.4288 26.6301C75.7254 27.1101 76.1397 27.3499 76.6722 27.3499C77.0951 27.3499 77.4551 27.17 77.752 26.81C78.0484 26.4502 78.197 25.9126 78.197 25.1971C78.197 24.3989 78.0527 23.824 77.7647 23.4728C77.4769 23.1219 77.1083 22.9461 76.659 22.9461C76.2226 22.9461 75.8574 23.1194 75.563 23.4664C75.2684 23.8131 75.1212 24.3312 75.1212 25.0203ZM80.0291 28.6455H78.321V27.6248C78.0373 28.0218 77.7027 28.3173 77.3168 28.5115C76.9304 28.7055 76.5413 28.8027 76.1486 28.8027C75.3502 28.8027 74.6665 28.4811 74.0973 27.8376C73.5278 27.1941 73.2432 26.2964 73.2432 25.1448C73.2432 23.9668 73.5203 23.0714 74.0741 22.4586C74.6283 21.8458 75.3284 21.5391 76.1747 21.5391C76.9511 21.5391 77.623 21.8621 78.1902 22.5077V19.0526H80.0291V28.6455Z" fill="white"/>
<path d="M85.6761 25.3084C85.4406 25.3869 85.0676 25.4808 84.5572 25.5898C84.0466 25.699 83.7132 25.8056 83.556 25.9103C83.3161 26.0804 83.1959 26.2964 83.1959 26.5581C83.1959 26.8157 83.2918 27.0381 83.484 27.2254C83.6759 27.4133 83.9201 27.5071 84.2167 27.5071C84.5481 27.5071 84.8648 27.3978 85.1655 27.1798C85.3883 27.0142 85.5341 26.8111 85.6041 26.5713C85.652 26.4141 85.6761 26.1154 85.6761 25.6747V25.3084ZM83.2157 23.8165L81.5471 23.5153C81.7345 22.8436 82.0575 22.3462 82.5154 22.0234C82.9736 21.7006 83.6541 21.5391 84.5572 21.5391C85.3772 21.5391 85.9878 21.6364 86.3893 21.8303C86.7907 22.0245 87.0733 22.271 87.2366 22.5697C87.4003 22.8686 87.4821 23.4172 87.4821 24.2156L87.4626 26.3618C87.4626 26.9726 87.4919 27.4231 87.5507 27.7131C87.6098 28.0032 87.7197 28.3139 87.8812 28.6455H86.0623C86.0141 28.5233 85.9553 28.3423 85.8855 28.1024C85.8549 27.9934 85.8333 27.9214 85.8199 27.8867C85.5058 28.1919 85.17 28.4209 84.8125 28.5735C84.4545 28.7262 84.0729 28.8027 83.6673 28.8027C82.9515 28.8027 82.388 28.6085 81.9755 28.2201C81.5635 27.8319 81.3575 27.3413 81.3575 26.748C81.3575 26.3553 81.451 26.0052 81.6387 25.6977C81.8261 25.3901 82.0889 25.1546 82.4273 24.991C82.7653 24.8275 83.2525 24.6846 83.8896 24.5624C84.7489 24.4009 85.3445 24.2505 85.6761 24.1109V23.9276C85.6761 23.5743 85.5889 23.3224 85.4144 23.1718C85.2398 23.0215 84.9104 22.9461 84.4262 22.9461C84.0991 22.9461 83.844 23.0106 83.6607 23.1391C83.4776 23.2679 83.3291 23.4937 83.2157 23.8165Z" fill="white"/>
<path d="M89.2947 28.6455V19.0526H91.1337V28.6455H89.2947Z" fill="white"/>
<path d="M93.0181 28.6455V19.0526H94.8568V28.6455H93.0181Z" fill="white"/>
<path d="M96.7287 22.4618L96.3816 20.6755V19.0526H98.3842V20.6755L98.083 22.4618H96.7287Z" fill="white"/>
<path d="M99.9281 19.0526H101.865V24.2483C101.865 25.0728 101.889 25.607 101.937 25.8517C102.02 26.244 102.217 26.5592 102.53 26.7971C102.841 27.0349 103.268 27.1537 103.809 27.1537C104.358 27.1537 104.773 27.0415 105.052 26.8168C105.331 26.5919 105.499 26.3162 105.556 25.9889C105.613 25.6618 105.641 25.1187 105.641 24.3596V19.0526H107.578V24.0913C107.578 25.2429 107.526 26.0566 107.421 26.532C107.316 27.0074 107.123 27.4087 106.842 27.7358C106.56 28.0631 106.184 28.3239 105.713 28.5181C105.242 28.7119 104.627 28.8091 103.868 28.8091C102.952 28.8091 102.257 28.7032 101.783 28.492C101.31 28.2803 100.936 28.0055 100.661 27.6675C100.386 27.3292 100.205 26.9749 100.118 26.604C99.9914 26.0543 99.9281 25.2429 99.9281 24.1697V19.0526Z" fill="white"/>
<path d="M115.928 28.6455H114.089V25.0989C114.089 24.3487 114.05 23.8633 113.971 23.6429C113.893 23.4228 113.765 23.2516 113.588 23.1294C113.412 23.0072 113.199 22.9461 112.95 22.9461C112.632 22.9461 112.346 23.0333 112.093 23.2077C111.84 23.3824 111.667 23.6136 111.573 23.9014C111.479 24.1894 111.432 24.7216 111.432 25.498V28.6455H109.593V21.6963H111.301V22.7171C111.908 21.9319 112.671 21.5391 113.592 21.5391C113.997 21.5391 114.368 21.6123 114.704 21.7583C115.04 21.9046 115.294 22.0911 115.467 22.3178C115.638 22.5447 115.759 22.8021 115.826 23.0901C115.894 23.3779 115.928 23.7901 115.928 24.3269V28.6455Z" fill="white"/>
<path d="M117.793 28.6455V21.6963H119.632V28.6455H117.793ZM117.793 20.7539V19.0526H119.632V20.7539H117.793Z" fill="white"/>
<path d="M122.975 25.1709C122.975 25.8603 123.139 26.388 123.466 26.7544C123.793 27.1207 124.197 27.304 124.677 27.304C125.156 27.304 125.559 27.1207 125.884 26.7544C126.209 26.388 126.371 25.856 126.371 25.1578C126.371 24.4772 126.209 23.9539 125.884 23.5873C125.559 23.2209 125.156 23.0376 124.677 23.0376C124.197 23.0376 123.793 23.2209 123.466 23.5873C123.139 23.9539 122.975 24.4818 122.975 25.1709ZM121.091 25.0728C121.091 24.462 121.241 23.871 121.542 23.2995C121.843 22.728 122.27 22.2917 122.822 21.9907C123.373 21.6897 123.99 21.5391 124.67 21.5391C125.721 21.5391 126.583 21.8805 127.255 22.5633C127.926 23.2461 128.263 24.1088 128.263 25.1514C128.263 26.2026 127.923 27.0739 127.245 27.7654C126.567 28.4568 125.713 28.8027 124.683 28.8027C124.046 28.8027 123.439 28.6587 122.861 28.3707C122.283 28.0829 121.843 27.6607 121.542 27.1046C121.241 26.5483 121.091 25.8712 121.091 25.0728Z" fill="white"/>
<path d="M136.024 28.6455H134.185V25.0989C134.185 24.3487 134.145 23.8633 134.067 23.6429C133.988 23.4228 133.861 23.2516 133.684 23.1294C133.507 23.0072 133.295 22.9461 133.046 22.9461C132.728 22.9461 132.442 23.0333 132.189 23.2077C131.936 23.3824 131.762 23.6136 131.669 23.9014C131.575 24.1894 131.528 24.7216 131.528 25.498V28.6455H129.689V21.6963H131.397V22.7171C132.003 21.9319 132.767 21.5391 133.687 21.5391C134.093 21.5391 134.464 21.6123 134.8 21.7583C135.136 21.9046 135.39 22.0911 135.562 22.3178C135.734 22.5447 135.854 22.8021 135.922 23.0901C135.99 23.3779 136.024 23.7901 136.024 24.3269V28.6455Z" fill="white"/>
<path d="M142.017 24.5754C142.004 24.0434 141.867 23.6386 141.605 23.3617C141.343 23.0846 141.025 22.9461 140.65 22.9461C140.248 22.9461 139.917 23.0923 139.655 23.3845C139.394 23.6768 139.265 24.0738 139.269 24.5754H142.017ZM141.913 26.4339L143.745 26.7414C143.509 27.4133 143.137 27.9248 142.629 28.2758C142.121 28.6269 141.485 28.8027 140.722 28.8027C139.513 28.8027 138.619 28.4077 138.039 27.6182C137.581 26.9858 137.352 26.1874 137.352 25.2232C137.352 24.0716 137.652 23.1696 138.255 22.5174C138.857 21.8653 139.618 21.5391 140.539 21.5391C141.572 21.5391 142.388 21.8805 142.986 22.5633C143.583 23.2461 143.869 24.2919 143.843 25.7009H139.236C139.249 26.2462 139.398 26.6705 139.681 26.9738C139.965 27.277 140.318 27.4285 140.741 27.4285C141.029 27.4285 141.271 27.3499 141.468 27.193C141.664 27.0358 141.812 26.7827 141.913 26.4339Z" fill="white"/>
<path d="M153.194 24.5754C153.181 24.0434 153.043 23.6386 152.782 23.3617C152.52 23.0846 152.201 22.9461 151.826 22.9461C151.425 22.9461 151.093 23.0923 150.832 23.3845C150.57 23.6768 150.441 24.0738 150.446 24.5754H153.194ZM153.089 26.4339L154.922 26.7414C154.686 27.4133 154.314 27.9248 153.806 28.2758C153.297 28.6269 152.662 28.8027 151.898 28.8027C150.69 28.8027 149.795 28.4077 149.215 27.6182C148.757 26.9858 148.528 26.1874 148.528 25.2232C148.528 24.0716 148.829 23.1696 149.431 22.5174C150.033 21.8653 150.795 21.5391 151.715 21.5391C152.749 21.5391 153.565 21.8805 154.162 22.5633C154.76 23.2461 155.046 24.2919 155.02 25.7009H150.413C150.426 26.2462 150.574 26.6705 150.858 26.9738C151.141 27.277 151.495 27.4285 151.918 27.4285C152.206 27.4285 152.448 27.3499 152.644 27.193C152.841 27.0358 152.989 26.7827 153.089 26.4339Z" fill="white"/>
<path d="M161.092 28.6455V27.605C160.839 27.9759 160.507 28.2683 160.094 28.482C159.682 28.6957 159.247 28.8027 158.789 28.8027C158.322 28.8027 157.903 28.7001 157.532 28.495C157.161 28.2901 156.893 28.0021 156.727 27.6314C156.562 27.2607 156.479 26.748 156.479 26.0936V21.6963H158.318V24.8895C158.318 25.8667 158.351 26.4657 158.419 26.6858C158.487 26.9061 158.61 27.0808 158.789 27.2093C158.967 27.3381 159.194 27.4024 159.469 27.4024C159.783 27.4024 160.065 27.3163 160.313 27.1439C160.562 26.9715 160.732 26.7578 160.824 26.5027C160.915 26.2474 160.961 25.6225 160.961 24.6278V21.6963H162.8V28.6455H161.092Z" fill="white"/>
<path d="M166.465 28.6455H164.626V21.6963H166.334V22.6844C166.626 22.2176 166.889 21.9101 167.122 21.7617C167.356 21.6134 167.62 21.5391 167.917 21.5391C168.336 21.5391 168.74 21.655 169.128 21.886L168.559 23.4892C168.249 23.2886 167.961 23.1882 167.695 23.1882C167.437 23.1882 167.219 23.2593 167.04 23.401C166.861 23.5428 166.721 23.799 166.618 24.1697C166.516 24.5406 166.465 25.3172 166.465 26.4993V28.6455Z" fill="white"/>
<path d="M171.379 25.1709C171.379 25.8603 171.542 26.388 171.87 26.7544C172.197 27.1207 172.6 27.304 173.08 27.304C173.56 27.304 173.962 27.1207 174.288 26.7544C174.612 26.388 174.775 25.856 174.775 25.1578C174.775 24.4772 174.612 23.9539 174.288 23.5873C173.962 23.2209 173.56 23.0376 173.08 23.0376C172.6 23.0376 172.197 23.2209 171.87 23.5873C171.542 23.9539 171.379 24.4818 171.379 25.1709ZM169.494 25.0728C169.494 24.462 169.645 23.871 169.945 23.2995C170.247 22.728 170.673 22.2917 171.225 21.9907C171.777 21.6897 172.393 21.5391 173.074 21.5391C174.125 21.5391 174.986 21.8805 175.658 22.5633C176.33 23.2461 176.666 24.1088 176.666 25.1514C176.666 26.2026 176.327 27.0739 175.649 27.7654C174.97 28.4568 174.116 28.8027 173.087 28.8027C172.45 28.8027 171.842 28.6587 171.264 28.3707C170.686 28.0829 170.247 27.6607 169.945 27.1046C169.645 26.5483 169.494 25.8712 169.494 25.0728Z" fill="white"/>
<path d="M179.873 25.053C179.873 25.834 180.027 26.4109 180.337 26.7839C180.647 27.1571 181.024 27.3433 181.469 27.3433C181.897 27.3433 182.252 27.1723 182.536 26.8298C182.819 26.4872 182.961 25.9257 182.961 25.1448C182.961 24.4164 182.815 23.8753 182.523 23.5219C182.23 23.1687 181.868 22.9919 181.436 22.9919C180.987 22.9919 180.614 23.1653 180.318 23.5121C180.021 23.859 179.873 24.3725 179.873 25.053ZM178.053 21.6963H179.768V22.7171C179.99 22.3682 180.291 22.0845 180.671 21.8665C181.051 21.6484 181.471 21.5391 181.934 21.5391C182.741 21.5391 183.426 21.8555 183.989 22.4879C184.551 23.1207 184.832 24.0018 184.832 25.1316C184.832 26.2921 184.549 27.1941 183.982 27.8376C183.415 28.4811 182.728 28.8027 181.921 28.8027C181.537 28.8027 181.189 28.7262 180.877 28.5735C180.565 28.4209 180.237 28.1592 179.892 27.7883V31.2892H178.053V21.6963Z" fill="white"/>
<path d="M190.421 24.5754C190.408 24.0434 190.271 23.6386 190.009 23.3617C189.747 23.0846 189.429 22.9461 189.054 22.9461C188.652 22.9461 188.321 23.0923 188.059 23.3845C187.797 23.6768 187.668 24.0738 187.673 24.5754H190.421ZM190.316 26.4339L192.149 26.7414C191.913 27.4133 191.541 27.9248 191.033 28.2758C190.525 28.6269 189.889 28.8027 189.126 28.8027C187.917 28.8027 187.023 28.4077 186.442 27.6182C185.985 26.9858 185.756 26.1874 185.756 25.2232C185.756 24.0716 186.056 23.1696 186.658 22.5174C187.26 21.8653 188.022 21.5391 188.942 21.5391C189.976 21.5391 190.792 21.8805 191.39 22.5633C191.987 23.2461 192.273 24.2919 192.247 25.7009H187.64C187.653 26.2462 187.801 26.6705 188.085 26.9738C188.369 27.277 188.722 27.4285 189.145 27.4285C189.433 27.4285 189.675 27.3499 189.871 27.193C190.068 27.0358 190.216 26.7827 190.316 26.4339Z" fill="white"/>
<path d="M197.58 25.3084C197.344 25.3869 196.971 25.4808 196.461 25.5898C195.95 25.699 195.617 25.8056 195.46 25.9103C195.22 26.0804 195.1 26.2964 195.1 26.5581C195.1 26.8157 195.195 27.0381 195.388 27.2254C195.58 27.4133 195.824 27.5071 196.121 27.5071C196.452 27.5071 196.768 27.3978 197.069 27.1798C197.292 27.0142 197.438 26.8111 197.508 26.5713C197.556 26.4141 197.58 26.1154 197.58 25.6747V25.3084ZM195.12 23.8165L193.451 23.5153C193.638 22.8436 193.961 22.3462 194.419 22.0234C194.877 21.7006 195.558 21.5391 196.461 21.5391C197.281 21.5391 197.892 21.6364 198.293 21.8303C198.694 22.0245 198.977 22.271 199.14 22.5697C199.304 22.8686 199.386 23.4172 199.386 24.2156L199.366 26.3618C199.366 26.9726 199.396 27.4231 199.454 27.7131C199.513 28.0032 199.624 28.3139 199.785 28.6455H197.966C197.918 28.5233 197.859 28.3423 197.789 28.1024C197.759 27.9934 197.737 27.9214 197.724 27.8867C197.41 28.1919 197.074 28.4209 196.716 28.5735C196.358 28.7262 195.977 28.8027 195.571 28.8027C194.855 28.8027 194.292 28.6085 193.879 28.2201C193.467 27.8319 193.261 27.3413 193.261 26.748C193.261 26.3553 193.355 26.0052 193.542 25.6977C193.73 25.3901 193.993 25.1546 194.331 24.991C194.669 24.8275 195.156 24.6846 195.793 24.5624C196.653 24.4009 197.248 24.2505 197.58 24.1109V23.9276C197.58 23.5743 197.493 23.3224 197.318 23.1718C197.144 23.0215 196.814 22.9461 196.33 22.9461C196.003 22.9461 195.748 23.0106 195.565 23.1391C195.381 23.2679 195.233 23.4937 195.12 23.8165Z" fill="white"/>
<path d="M73.6711 44.3707V36.0784H74.7967L79.1521 42.5889V36.0784H80.2042V44.3707H79.0786L74.7232 37.8545V44.3707H73.6711Z" fill="white"/>
<path d="M86.036 42.4362L87.0881 42.5663C86.9222 43.181 86.6148 43.658 86.1661 43.9974C85.7174 44.3367 85.1442 44.5064 84.4466 44.5064C83.5679 44.5064 82.8703 44.2368 82.3537 43.6976C81.8408 43.1546 81.5844 42.3947 81.5844 41.418C81.5844 40.4074 81.8446 39.6231 82.365 39.065C82.8854 38.5069 83.5604 38.2278 84.39 38.2278C85.1932 38.2278 85.8493 38.5012 86.3584 39.048C86.8675 39.5948 87.122 40.3641 87.122 41.3558C87.122 41.4162 87.1201 41.5067 87.1164 41.6273H82.6365C82.6742 42.2872 82.8609 42.7925 83.1965 43.1432C83.5321 43.4939 83.9507 43.6693 84.4522 43.6693C84.8255 43.6693 85.1442 43.5712 85.4081 43.3752C85.6721 43.1791 85.8814 42.8661 86.036 42.4362ZM82.6931 40.7902H86.0473C86.0021 40.2849 85.8738 39.9059 85.6627 39.6532C85.3384 39.2611 84.9179 39.065 84.4013 39.065C83.9337 39.065 83.5396 39.2215 83.2191 39.5345C82.9023 39.8474 82.727 40.266 82.6931 40.7902Z" fill="white"/>
<path d="M87.6933 44.3707L89.888 41.2483L87.8574 38.3636H89.13L90.052 39.772C90.2255 40.0398 90.365 40.2641 90.4706 40.4451C90.6365 40.1963 90.7893 39.9757 90.9288 39.7833L91.9413 38.3636H93.1574L91.0815 41.1918L93.3158 44.3707H92.0657L90.8326 42.5041L90.5046 42.0007L88.9264 44.3707H87.6933Z" fill="white"/>
<path d="M96.3872 43.46L96.5343 44.3594C96.2477 44.4197 95.9913 44.4499 95.765 44.4499C95.3955 44.4499 95.1089 44.3914 94.9052 44.2745C94.7016 44.1576 94.5583 44.0049 94.4754 43.8164C94.3924 43.624 94.3509 43.2224 94.3509 42.6115V39.1555H93.6043V38.3636H94.3509V36.8759L95.3634 36.2651V38.3636H96.3872V39.1555H95.3634V42.6681C95.3634 42.9585 95.3804 43.1451 95.4143 43.2281C95.452 43.311 95.5105 43.377 95.5897 43.4261C95.6726 43.4751 95.7895 43.4996 95.9404 43.4996C96.0535 43.4996 96.2024 43.4864 96.3872 43.46Z" fill="white"/>
<path d="M101.399 41.1183V40.1454L104.911 40.1397V43.2168C104.372 43.6467 103.816 43.971 103.243 44.1897C102.67 44.4046 102.081 44.5121 101.478 44.5121C100.663 44.5121 99.9225 44.3386 99.255 43.9917C98.5913 43.641 98.0898 43.1357 97.7504 42.4758C97.411 41.8159 97.2413 41.0787 97.2413 40.2641C97.2413 39.4572 97.4091 38.7049 97.7448 38.0072C98.0841 37.3058 98.5706 36.7854 99.2041 36.4461C99.8376 36.1067 100.567 35.937 101.393 35.937C101.993 35.937 102.534 36.035 103.017 36.2311C103.503 36.4234 103.884 36.6931 104.159 37.04C104.434 37.3869 104.644 37.8394 104.787 38.3975L103.797 38.669C103.673 38.2467 103.518 37.9148 103.333 37.6735C103.149 37.4322 102.885 37.2398 102.541 37.0965C102.198 36.9495 101.817 36.8759 101.399 36.8759C100.897 36.8759 100.464 36.9533 100.098 37.1079C99.732 37.2587 99.436 37.4586 99.2098 37.7074C98.9873 37.9563 98.8138 38.2297 98.6894 38.5276C98.4782 39.0405 98.3726 39.5967 98.3726 40.1963C98.3726 40.9354 98.499 41.5538 98.7516 42.0516C99.008 42.5493 99.3795 42.9189 99.8659 43.1602C100.352 43.4016 100.869 43.5222 101.416 43.5222C101.891 43.5222 102.355 43.4317 102.807 43.2507C103.26 43.0659 103.603 42.8699 103.837 42.6624V41.1183H101.399Z" fill="white"/>
<path d="M110.517 42.4362L111.569 42.5663C111.403 43.181 111.096 43.658 110.647 43.9974C110.198 44.3367 109.625 44.5064 108.927 44.5064C108.049 44.5064 107.351 44.2368 106.835 43.6976C106.322 43.1546 106.065 42.3947 106.065 41.418C106.065 40.4074 106.326 39.6231 106.846 39.065C107.366 38.5069 108.041 38.2278 108.871 38.2278C109.674 38.2278 110.33 38.5012 110.839 39.048C111.348 39.5948 111.603 40.3641 111.603 41.3558C111.603 41.4162 111.601 41.5067 111.597 41.6273H107.117C107.155 42.2872 107.342 42.7925 107.677 43.1432C108.013 43.4939 108.432 43.6693 108.933 43.6693C109.306 43.6693 109.625 43.5712 109.889 43.3752C110.153 43.1791 110.362 42.8661 110.517 42.4362ZM107.174 40.7902H110.528C110.483 40.2849 110.355 39.9059 110.144 39.6532C109.819 39.2611 109.399 39.065 108.882 39.065C108.415 39.065 108.021 39.2215 107.7 39.5345C107.383 39.8474 107.208 40.266 107.174 40.7902Z" fill="white"/>
<path d="M112.853 44.3707V38.3636H113.769V39.2177C114.211 38.5578 114.848 38.2278 115.681 38.2278C116.043 38.2278 116.375 38.2938 116.677 38.4258C116.982 38.554 117.21 38.7237 117.361 38.9349C117.512 39.1461 117.618 39.3968 117.678 39.6872C117.716 39.8757 117.735 40.2057 117.735 40.6771V44.3707H116.716V40.7166C116.716 40.3018 116.677 39.9926 116.598 39.789C116.518 39.5816 116.377 39.4176 116.173 39.2969C115.973 39.1724 115.738 39.1102 115.466 39.1102C115.033 39.1102 114.657 39.2479 114.341 39.5231C114.028 39.7984 113.871 40.3207 113.871 41.09V44.3707H112.853Z" fill="white"/>
<path d="M123.414 42.4362L124.466 42.5663C124.3 43.181 123.992 43.658 123.544 43.9974C123.095 44.3367 122.522 44.5064 121.824 44.5064C120.945 44.5064 120.248 44.2368 119.731 43.6976C119.218 43.1546 118.962 42.3947 118.962 41.418C118.962 40.4074 119.222 39.6231 119.743 39.065C120.263 38.5069 120.938 38.2278 121.768 38.2278C122.571 38.2278 123.227 38.5012 123.736 39.048C124.245 39.5948 124.5 40.3641 124.5 41.3558C124.5 41.4162 124.498 41.5067 124.494 41.6273H120.014C120.052 42.2872 120.238 42.7925 120.574 43.1432C120.91 43.4939 121.328 43.6693 121.83 43.6693C122.203 43.6693 122.522 43.5712 122.786 43.3752C123.05 43.1791 123.259 42.8661 123.414 42.4362ZM120.071 40.7902H123.425C123.38 40.2849 123.251 39.9059 123.04 39.6532C122.716 39.2611 122.295 39.065 121.779 39.065C121.311 39.065 120.917 39.2215 120.597 39.5345C120.28 39.8474 120.105 40.266 120.071 40.7902Z" fill="white"/>
<path d="M125.738 44.3707V38.3636H126.655V39.2743C126.888 38.8481 127.103 38.5672 127.299 38.4315C127.499 38.2957 127.718 38.2278 127.956 38.2278C128.299 38.2278 128.648 38.3372 129.002 38.5559L128.651 39.5005C128.402 39.3535 128.154 39.2799 127.905 39.2799C127.682 39.2799 127.482 39.3478 127.305 39.4836C127.128 39.6155 127.002 39.8003 126.926 40.0379C126.813 40.3999 126.756 40.7958 126.756 41.2257V44.3707H125.738Z" fill="white"/>
<path d="M133.527 43.6297C133.15 43.9502 132.786 44.1765 132.436 44.3085C132.089 44.4404 131.715 44.5064 131.316 44.5064C130.656 44.5064 130.148 44.3462 129.794 44.0256C129.439 43.7013 129.262 43.2884 129.262 42.7869C129.262 42.4928 129.328 42.225 129.46 41.9837C129.596 41.7386 129.771 41.5425 129.986 41.3954C130.205 41.2483 130.45 41.1371 130.722 41.0617C130.921 41.0089 131.223 40.958 131.627 40.909C132.449 40.8109 133.054 40.694 133.442 40.5583C133.446 40.4187 133.448 40.3301 133.448 40.2924C133.448 39.8776 133.352 39.5854 133.16 39.4157C132.899 39.1856 132.513 39.0706 132 39.0706C131.521 39.0706 131.167 39.1555 130.937 39.3252C130.71 39.4911 130.542 39.7871 130.433 40.2132L129.438 40.0775C129.528 39.6514 129.677 39.3082 129.884 39.048C130.092 38.784 130.392 38.5823 130.784 38.4428C131.176 38.2995 131.63 38.2278 132.147 38.2278C132.66 38.2278 133.077 38.2882 133.397 38.4088C133.718 38.5295 133.953 38.6822 134.104 38.867C134.255 39.048 134.361 39.278 134.421 39.5571C134.455 39.7305 134.472 40.0435 134.472 40.496V41.8536C134.472 42.8001 134.493 43.3997 134.534 43.6523C134.579 43.9012 134.666 44.1407 134.794 44.3707H133.731C133.625 44.1595 133.557 43.9125 133.527 43.6297ZM133.442 41.3558C133.073 41.5067 132.518 41.6349 131.779 41.7405C131.361 41.8008 131.065 41.8687 130.891 41.9441C130.718 42.0195 130.584 42.1307 130.49 42.2778C130.395 42.4211 130.348 42.5814 130.348 42.7586C130.348 43.0301 130.45 43.2564 130.654 43.4374C130.861 43.6184 131.163 43.7089 131.559 43.7089C131.951 43.7089 132.3 43.624 132.605 43.4543C132.911 43.2809 133.135 43.0452 133.278 42.7473C133.388 42.5173 133.442 42.1779 133.442 41.7291V41.3558Z" fill="white"/>
<path d="M138.279 43.46L138.426 44.3594C138.139 44.4197 137.883 44.4499 137.656 44.4499C137.287 44.4499 137 44.3914 136.797 44.2745C136.593 44.1576 136.45 44.0049 136.367 43.8164C136.284 43.624 136.242 43.2224 136.242 42.6115V39.1555H135.496V38.3636H136.242V36.8759L137.255 36.2651V38.3636H138.279V39.1555H137.255V42.6681C137.255 42.9585 137.272 43.1451 137.306 43.2281C137.343 43.311 137.402 43.377 137.481 43.4261C137.564 43.4751 137.681 43.4996 137.832 43.4996C137.945 43.4996 138.094 43.4864 138.279 43.46Z" fill="white"/>
<path d="M139.285 37.2493V36.0784H140.304V37.2493H139.285ZM139.285 44.3707V38.3636H140.304V44.3707H139.285Z" fill="white"/>
<path d="M141.48 41.3671C141.48 40.2547 141.789 39.4308 142.408 38.8953C142.924 38.4503 143.554 38.2278 144.297 38.2278C145.123 38.2278 145.798 38.4993 146.322 39.0424C146.846 39.5816 147.108 40.3282 147.108 41.2823C147.108 42.0553 146.991 42.6643 146.758 43.1093C146.528 43.5505 146.19 43.8937 145.745 44.1388C145.304 44.3839 144.821 44.5064 144.297 44.5064C143.456 44.5064 142.775 44.2368 142.255 43.6976C141.738 43.1583 141.48 42.3815 141.48 41.3671ZM142.527 41.3671C142.527 42.1364 142.694 42.7134 143.03 43.098C143.366 43.4789 143.788 43.6693 144.297 43.6693C144.802 43.6693 145.223 43.477 145.558 43.0923C145.894 42.7077 146.062 42.1213 146.062 41.3332C146.062 40.5903 145.892 40.0285 145.553 39.6476C145.217 39.263 144.799 39.0706 144.297 39.0706C143.788 39.0706 143.366 39.2611 143.03 39.6419C142.694 40.0228 142.527 40.5979 142.527 41.3671Z" fill="white"/>
<path d="M148.307 44.3707V38.3636H149.224V39.2177C149.665 38.5578 150.302 38.2278 151.136 38.2278C151.498 38.2278 151.829 38.2938 152.131 38.4258C152.437 38.554 152.665 38.7237 152.816 38.9349C152.966 39.1461 153.072 39.3968 153.132 39.6872C153.17 39.8757 153.189 40.2057 153.189 40.6771V44.3707H152.171V40.7166C152.171 40.3018 152.131 39.9926 152.052 39.789C151.973 39.5816 151.831 39.4176 151.628 39.2969C151.428 39.1724 151.192 39.1102 150.921 39.1102C150.487 39.1102 150.112 39.2479 149.795 39.5231C149.482 39.7984 149.326 40.3207 149.326 41.09V44.3707H148.307Z" fill="white"/>
<path d="M154.908 44.3707V36.0784H160.904V37.057H156.006V39.5967H160.593V40.5696H156.006V43.3921H161.097V44.3707H154.908Z" fill="white"/>
<path d="M168.054 36.0784H169.151V40.8694C169.151 41.7027 169.057 42.3645 168.868 42.8548C168.68 43.345 168.339 43.7447 167.845 44.0539C167.354 44.3594 166.71 44.5121 165.91 44.5121C165.133 44.5121 164.498 44.3782 164.004 44.1105C163.51 43.8428 163.157 43.4562 162.946 42.9509C162.735 42.4418 162.629 41.748 162.629 40.8694V36.0784H163.727V40.8637C163.727 41.584 163.793 42.1157 163.925 42.4588C164.06 42.7982 164.291 43.0603 164.615 43.2451C164.943 43.4298 165.343 43.5222 165.814 43.5222C166.621 43.5222 167.196 43.3393 167.539 42.9736C167.882 42.6078 168.054 41.9045 168.054 40.8637V36.0784Z" fill="white"/>
</svg>
