<?xml version="1.0" encoding="UTF-8"?>
<svg width="216px" height="216px" viewBox="0 0 216 216" version="1.1" xmlns="http://www.w3.org/2000/svg" xmlns:xlink="http://www.w3.org/1999/xlink">
    <!-- Generator: Sketch 59.1 (86144) - https://sketch.com -->
    <title>Group 24</title>
    <desc>Created with Sketch.</desc>
    <defs>
        <polygon id="path-1" points="0 216 216 216 216 0 0 0"></polygon>
    </defs>
    <g id="Home" stroke="none" stroke-width="1" fill="none" fill-rule="evenodd">
        <g id="Large-Devices_Giornalisti" transform="translate(-750.000000, -864.000000)">
            <g id="Group-24" transform="translate(750.000000, 864.000000)">
                <polygon id="Fill-1" fill="#0066CC" opacity="0.08" points="52 97 164 97 164 90 52 90"></polygon>
                <polygon id="Fill-2" fill="#0066CC" opacity="0.08" points="118 111 164 111 164 104 118 104"></polygon>
                <polygon id="Fill-3" fill="#0066CC" opacity="0.08" points="52 111 98 111 98 104 52 104"></polygon>
                <polygon id="Fill-4" fill="#0066CC" opacity="0.08" points="118 83 164 83 164 76 118 76"></polygon>
                <polygon id="Fill-5" fill="#0066CC" opacity="0.08" points="52 83 98 83 98 76 52 76"></polygon>
                <polygon id="Fill-6" fill="#0066CC" opacity="0.08" points="52 70 164 70 164 63 52 63"></polygon>
                <g id="Group-23">
                    <path d="M184.645161,80.7244258 L184.645161,62.7097645 C184.645161,51.1812 175.2705,41.8065387 163.741935,41.8065387 L163.741935,48.7742806 C171.427355,48.7742806 177.677419,55.0239097 177.677419,62.7097645 L177.677419,80.7244258 C177.677419,86.901329 179.715484,92.7681677 183.478065,97.5484742 C179.715484,102.328345 177.677419,108.195619 177.677419,114.372523 L177.677419,132.387184 C177.677419,140.072603 171.427355,146.322668 163.741935,146.322668 L163.741935,153.29041 C175.2705,153.29041 184.645161,143.915313 184.645161,132.387184 L184.645161,114.372523 C184.645161,108.9477 186.756387,103.847748 190.592129,100.011571 L193.055226,97.5484742 L190.592129,95.0853774 C186.756387,91.2492 184.645161,86.1527323 184.645161,80.7244258" id="Fill-7" fill="#0066CC" opacity="0.08"></path>
                    <path d="M38.3225806,132.387097 L38.3225806,114.372435 C38.3225806,108.195532 36.2845161,102.328694 32.5219355,97.5483871 C36.2845161,92.7680806 38.3225806,86.9012419 38.3225806,80.7243387 L38.3225806,62.7096774 C38.3225806,55.0242581 44.5726452,48.7741935 52.2580645,48.7741935 L52.2580645,41.8064516 C40.7295,41.8064516 31.3548387,51.1811129 31.3548387,62.7096774 L31.3548387,80.7243387 C31.3548387,86.1491613 29.2436129,91.2491129 25.407871,95.0852903 L22.9443387,97.5483871 L25.407871,100.011484 C29.2436129,103.847661 31.3548387,108.944129 31.3548387,114.372435 L31.3548387,132.387097 C31.3548387,143.915661 40.7295,153.290323 52.2580645,153.290323 L52.2580645,146.322581 C44.5726452,146.322581 38.3225806,140.072516 38.3225806,132.387097" id="Fill-9" fill="#0066CC" opacity="0.08"></path>
                    <path d="M108,174.193548 C104.15729,174.193548 101.032258,171.068516 101.032258,167.225806 C101.032258,163.383097 104.15729,160.258065 108,160.258065 C111.84271,160.258065 114.967742,163.383097 114.967742,167.225806 C114.967742,171.068516 111.84271,174.193548 108,174.193548 M108,153.290323 C100.314581,153.290323 94.0645161,159.540387 94.0645161,167.225806 C94.0645161,174.911226 100.314581,181.16129 108,181.16129 C115.685419,181.16129 121.935484,174.911226 121.935484,167.225806 C121.935484,159.540387 115.685419,153.290323 108,153.290323" id="Fill-11" fill="#0066CC" opacity="0.08"></path>
                    <path d="M108,139.354839 C103.372984,139.354839 98.7851613,140.514968 94.7364677,142.705887 L98.0570323,148.835323 C101.091919,147.193548 104.526145,146.322581 108,146.322581 C119.528565,146.322581 128.903226,155.697242 128.903226,167.225806 C128.903226,170.699661 128.032258,174.133887 126.390484,177.168774 L132.519919,180.489339 C134.710839,176.440645 135.870968,171.852823 135.870968,167.225806 C135.870968,151.858016 123.36779,139.354839 108,139.354839" id="Fill-13" fill="#0066CC" opacity="0.08"></path>
                    <path d="M108,188.129032 C96.4714355,188.129032 87.0967742,178.754371 87.0967742,167.225806 C87.0967742,163.751952 87.9677419,160.317726 89.6095161,157.282839 L83.4800806,153.962274 C81.2891613,158.010968 80.1290323,162.59879 80.1290323,167.225806 C80.1290323,182.593597 92.6322097,195.096774 108,195.096774 C112.627016,195.096774 117.214839,193.936645 121.263532,191.745726 L117.942968,185.61629 C114.908081,187.258065 111.473855,188.129032 108,188.129032" id="Fill-15" fill="#0066CC" opacity="0.08"></path>
                    <path d="M156.774194,163.741935 L156.774194,157.538032 L148.0545,155.355387 C147.224032,152.562194 146.106581,149.866113 144.713468,147.300677 L149.343968,139.587823 L135.644516,125.888806 L127.932097,130.519306 C125.366661,129.12271 122.670145,128.004823 119.876952,127.178274 L117.687774,118.451613 L98.3122258,118.451613 L96.1295806,127.171306 C93.3363871,128.001774 90.6403065,129.119226 88.074871,130.512339 L80.3620161,125.881839 L66.663,139.58129 L71.2935,147.29371 C69.8969032,149.859145 68.7794516,152.555661 67.9524677,155.348855 L59.2258065,157.538032 L59.2258065,163.741935 L6.96774194,163.741935 L6.96774194,34.8387097 L209.032258,34.8387097 L209.032258,163.741935 L156.774194,163.741935 Z M149.806452,171.473516 L142.330065,173.343048 L141.834919,175.396355 C140.989645,178.914194 139.59479,182.268726 137.699565,185.366323 L136.595613,187.167919 L140.567661,193.783355 L134.561032,199.789984 L127.945597,195.817935 L126.144,196.921887 C123.046403,198.817113 119.691871,200.210226 116.174032,201.057677 L114.120726,201.552387 L112.24771,209.032258 L103.75229,209.032258 L101.882758,201.555871 L99.8294516,201.060726 C96.3116129,200.215452 92.9570806,198.820597 89.8594839,196.925371 L88.0578871,195.821419 L81.4424516,199.793468 L75.4358226,193.786839 L79.407871,187.171403 L78.3039194,185.369806 C76.4086935,182.27221 75.0155806,178.917677 74.1685645,175.399839 L73.6734194,173.346532 L66.1935484,171.473516 L66.1935484,162.978097 L73.6699355,161.108565 L74.1650806,159.055258 C75.0103548,155.537419 76.4052097,152.182887 78.3004355,149.08529 L79.4043871,147.283694 L75.4323387,140.668258 L81.4389677,134.661629 L88.0544032,138.633677 L89.856,137.529726 C92.9535968,135.6345 96.308129,134.241387 99.8259677,133.393935 L101.879274,132.899226 L103.75229,125.419355 L112.24771,125.419355 L114.117242,132.895742 L116.170548,133.390887 C119.688387,134.236161 123.042919,135.631016 126.140516,137.526242 L127.942113,138.630194 L134.557548,134.658145 L140.564177,140.664774 L136.592129,147.28021 L137.696081,149.081806 C139.591306,152.179403 140.984419,155.533935 141.831435,159.051774 L142.326581,161.105081 L149.806452,162.978097 L149.806452,171.473516 Z M10.4516129,6.96774194 L205.548387,6.96774194 C207.467129,6.96774194 209.032258,8.53287097 209.032258,10.4516129 L209.032258,27.8709677 L6.96774194,27.8709677 L6.96774194,10.4516129 C6.96774194,8.53287097 8.53287097,6.96774194 10.4516129,6.96774194 L10.4516129,6.96774194 Z M216,10.4516129 C216,4.69016129 211.309839,0 205.548387,0 L10.4516129,0 C4.69016129,0 0,4.69016129 0,10.4516129 L0,170.709677 L59.2258065,170.709677 L59.2258065,176.913581 L67.9455,179.096226 C68.7759677,181.889419 69.8934194,184.5855 71.2865323,187.150935 L66.6564677,194.86379 L80.3554839,208.562806 L88.0679032,203.932306 C90.6333387,205.328903 93.3298548,206.44679 96.1230484,207.273339 L98.3122258,216 L117.687774,216 L119.870419,207.280306 C122.663613,206.449839 125.359694,205.332387 127.925129,203.939274 L135.637984,208.569774 L149.337,194.870323 L144.7065,187.157903 C146.103097,184.592468 147.220984,181.896387 148.047532,179.102758 L156.774194,176.913581 L156.774194,170.709677 L216,170.709677 L216,10.4516129 Z" id="Fill-17" fill="#0066CC" opacity="0.08"></path>
                    <mask id="mask-2" fill="white">
                        <use xlink:href="#path-1"></use>
                    </mask>
                    <g id="Clip-20" opacity="0.08"></g>
                    <polygon id="Fill-19" fill="#0066CC" opacity="0.08" mask="url(#mask-2)" points="13.9354839 20.9032258 20.9032258 20.9032258 20.9032258 13.9354839 13.9354839 13.9354839"></polygon>
                    <polygon id="Fill-21" fill="#0066CC" opacity="0.08" mask="url(#mask-2)" points="27.8709677 20.9032258 34.8387097 20.9032258 34.8387097 13.9354839 27.8709677 13.9354839"></polygon>
                    <polygon id="Fill-22" fill="#0066CC" opacity="0.08" mask="url(#mask-2)" points="41.8064516 20.9032258 48.7741935 20.9032258 48.7741935 13.9354839 41.8064516 13.9354839"></polygon>
                </g>
            </g>
        </g>
    </g>
</svg>