<?xml version="1.0" encoding="UTF-8"?>
<svg width="42px" height="53px" viewBox="0 0 42 53" version="1.1" xmlns="http://www.w3.org/2000/svg" xmlns:xlink="http://www.w3.org/1999/xlink">
    <!-- Generator: Sketch 59.1 (86144) - https://sketch.com -->
    <title>Group 17</title>
    <desc>Created with Sketch.</desc>
    <defs>
        <polygon id="path-1" points="0.0829849519 0.0267602339 36.2394007 0.0267602339 36.2394007 47.9182784 0.0829849519 47.9182784"></polygon>
        <polygon id="path-3" points="0 53 41.5238095 53 41.5238095 0 0 0"></polygon>
    </defs>
    <g id="Home" stroke="none" stroke-width="1" fill="none" fill-rule="evenodd">
        <g id="Large-Devices_Pubbliche-Amministrazioni" transform="translate(-743.000000, -921.000000)">
            <g id="Group-17" transform="translate(743.000000, 921.000000)">
                <path d="M1.81647021,6.77767705 L25.4336496,6.77767705 L25.4336496,14.7778802 C25.4336496,15.2685326 25.8403549,15.6664374 26.3416451,15.6664374 L34.5168631,15.6664374 L34.5168631,51.2224167 L1.81647021,51.2224167 L1.81647021,6.77767705 Z M33.2324447,13.8888542 L27.2501198,13.8888542 L27.2501198,8.03459864 L33.2324447,13.8888542 Z M0,5.88874475 L0,52.1109739 C0,52.6020014 0.406705333,53 0.908378853,53 L35.425242,53 C35.926628,53 36.3333333,52.6020014 36.3333333,52.1109739 L36.3333333,14.7778802 C36.3333333,14.7580928 36.3235586,14.7412126 36.3217378,14.7218003 C36.3172338,14.6438699 36.3015176,14.566971 36.2754516,14.4933544 C36.2652936,14.4648455 36.2582021,14.4373682 36.2454566,14.4095158 C36.2012787,14.3128296 36.1398512,14.2245834 36.0636658,14.149185 L26.9802606,5.26042462 C26.9033086,5.18530755 26.8126528,5.12528891 26.7131806,5.08243185 C26.6858688,5.07108458 26.6581738,5.06161288 26.6297121,5.05317276 C26.5538142,5.02747728 26.4748497,5.01209751 26.3944478,5.00703343 C26.3791149,5.00956547 26.3610987,5 26.3420284,5 L0.908378853,5 C0.406705333,5 0,5.39771726 0,5.88874475 L0,5.88874475 Z" id="Fill-1" fill="#0066CC"></path>
                <g id="Group-5" transform="translate(5.190476, 0.000000)">
                    <mask id="mask-2" fill="white">
                        <use xlink:href="#path-1"></use>
                    </mask>
                    <g id="Clip-4"></g>
                    <path d="M32.6237286,46.1446175 L32.6237286,47.9182784 L35.3354731,47.9182784 C35.8346989,47.9182784 36.2394198,47.5215532 36.2394198,47.0315415 L36.2394198,0.913740351 C36.2394198,0.423822222 35.8346989,0.026722807 35.3354731,0.026722807 L0.986931584,0.026722807 C0.487705862,0.026722807 0.0829849519,0.423822222 0.0829849519,0.913740351 L0.0829849519,3.57432515 L1.89097358,3.57432515 L1.89097358,1.80029006 L34.4314311,1.80029006 L34.4314311,46.1446175 L32.6237286,46.1446175 Z" id="Fill-3" fill="#0066CC" mask="url(#mask-2)"></path>
                </g>
                <mask id="mask-4" fill="white">
                    <use xlink:href="#path-3"></use>
                </mask>
                <g id="Clip-7"></g>
                <polygon id="Fill-6" fill="#0066CC" mask="url(#mask-4)" points="7.26666667 20 28.0285714 20 28.0285714 18 7.26666667 18"></polygon>
                <polygon id="Fill-8" fill="#0066CC" mask="url(#mask-4)" points="7.26666667 14 14.5333333 14 14.5333333 12 7.26666667 12"></polygon>
                <polygon id="Fill-9" fill="#0066CC" mask="url(#mask-4)" points="7.26666667 25 20.7619048 25 20.7619048 23 7.26666667 23"></polygon>
                <polygon id="Fill-10" fill="#0066CC" mask="url(#mask-4)" points="23.8761905 25 29.0666667 25 29.0666667 23 23.8761905 23"></polygon>
                <polygon id="Fill-11" fill="#0066CC" mask="url(#mask-4)" points="7.26666667 30 28.0285714 30 28.0285714 28 7.26666667 28"></polygon>
                <polygon id="Fill-12" fill="#0066CC" mask="url(#mask-4)" points="7.26666667 41 28.0285714 41 28.0285714 39 7.26666667 39"></polygon>
                <polygon id="Fill-13" fill="#0066CC" mask="url(#mask-4)" points="15.5714286 35 28.0285714 35 28.0285714 33 15.5714286 33"></polygon>
                <polygon id="Fill-14" fill="#0066CC" mask="url(#mask-4)" points="6.22857143 35 12.4571429 35 12.4571429 33 6.22857143 33"></polygon>
                <polygon id="Fill-15" fill="#0066CC" mask="url(#mask-4)" points="7.26666667 46 11.4190476 46 11.4190476 44 7.26666667 44"></polygon>
                <polygon id="Fill-16" fill="#0066CC" mask="url(#mask-4)" points="12.4571429 46 29.0666667 46 29.0666667 44 12.4571429 44"></polygon>
            </g>
        </g>
    </g>
</svg>