<?xml version="1.0" encoding="UTF-8"?>
<svg width="57px" height="55px" viewBox="0 0 57 55" version="1.1" xmlns="http://www.w3.org/2000/svg" xmlns:xlink="http://www.w3.org/1999/xlink">
    <!-- Generator: Sketch 59.1 (86144) - https://sketch.com -->
    <title>Group 16</title>
    <desc>Created with Sketch.</desc>
    <defs>
        <polygon id="path-1" points="5.43943989e-05 0 34.2664768 0 34.2664768 51.0114339 5.43943989e-05 51.0114339"></polygon>
        <polygon id="path-3" points="0.0526244921 0.00535677083 34.2684169 0.00535677083 34.2684169 51.0168651 0.0526244921 51.0168651"></polygon>
    </defs>
    <g id="Home" stroke="none" stroke-width="1" fill="none" fill-rule="evenodd">
        <g id="Large-Devices_Pubbliche-Amministrazioni" transform="translate(-982.000000, -927.000000)">
            <g id="Group-16" transform="translate(982.000000, 927.000000)">
                <g id="Group-15">
                    <g id="Group-3">
                        <mask id="mask-2" fill="white">
                            <use xlink:href="#path-1"></use>
                        </mask>
                        <g id="Clip-2"></g>
                        <path d="M11.4886954,48.2007235 C11.0370043,48.6424445 10.4356198,48.8857312 9.79648563,48.8857312 C9.15735144,48.8857312 8.55651091,48.6424445 8.10438467,48.2007235 C7.65214964,47.7590025 7.40313208,47.1718834 7.40313208,46.5474582 C7.40313208,45.9226079 7.65214964,45.3355951 8.10438467,44.8938741 C8.55607576,44.4520468 9.15735144,44.2091852 9.79648563,44.2091852 C10.4356198,44.2091852 11.0365691,44.4524719 11.4886954,44.8938741 C11.9408216,45.3355951 12.1898392,45.9226079 12.1898392,46.5474582 C12.1898392,47.1718834 11.9408216,47.7590025 11.4886954,48.2007235 M9.79648563,42.0834825 C9.01668753,42.0834825 8.26713271,42.2736266 7.601998,42.6307447 C4.09867235,38.2430817 2.17583035,32.7926737 2.17583035,27.2089841 C2.17583035,13.3777805 13.692974,2.12569208 27.8499866,2.12569208 C29.5710254,2.12569208 31.2911939,2.29298489 32.9630601,2.62310652 C33.5511723,2.73938246 34.125686,2.36738448 34.2447009,1.79185047 C34.3637159,1.21642275 33.9829551,0.655981228 33.3938637,0.539280149 C31.5805721,0.181418098 29.7154969,-1.06285136e-05 27.8499866,-1.06285136e-05 C20.4111174,-1.06285136e-05 13.4171944,2.83025625 8.15703845,7.96935512 C2.8968825,13.1083477 5.43943989e-05,19.9413128 5.43943989e-05,27.2089841 C5.43943989e-05,33.3225051 2.1248084,39.2885023 5.99312047,44.0713334 C5.49508536,44.7983237 5.22735612,45.6527499 5.22735612,46.5474582 C5.22735612,47.7398712 5.70287196,48.8608605 6.56600228,49.7037016 C7.42869745,50.5468616 8.5760929,51.0114339 9.79648563,51.0114339 C11.0169871,51.0114339 12.1643826,50.5468616 13.0275129,49.7037016 C13.8905345,48.8608605 14.3656151,47.739446 14.3656151,46.5470331 C14.3656151,45.3551516 13.8905345,44.2337371 13.0275129,43.390896 C12.1643826,42.5476297 11.0169871,42.0834825 9.79648563,42.0834825" id="Fill-1" fill="#0066CC" mask="url(#mask-2)"></path>
                    </g>
                    <g id="Group-6" transform="translate(21.807209, 3.000992)">
                        <mask id="mask-4" fill="white">
                            <use xlink:href="#path-3"></use>
                        </mask>
                        <g id="Clip-5"></g>
                        <path d="M22.7797759,6.12302289 C22.3276497,5.68130187 22.0786321,5.09418278 22.0786321,4.46933247 C22.0786321,3.84490729 22.3276497,3.25789449 22.7797759,2.81617347 C23.231467,2.37434616 23.8328515,2.13105948 24.4719856,2.13105948 C25.1111198,2.13105948 25.7123955,2.37434616 26.1645218,2.81617347 C27.0973857,3.72788736 27.0973857,5.211309 26.1645218,6.12302289 C25.7123955,6.56431877 25.1111198,6.80760545 24.4719856,6.80760545 C23.8324163,6.80760545 23.231467,6.56431877 22.7797759,6.12302289 M28.2744805,6.94428813 C29.4571235,5.21088386 29.2671783,2.84104419 27.7029042,1.31277022 C26.8397738,0.469929098 25.6923784,0.00535677083 24.4719856,0.00535677083 C23.2514841,0.00535677083 22.1040887,0.469929098 21.2409584,1.31277022 C20.3779368,2.15603649 19.9028561,3.27702581 19.9028561,4.46933247 C19.9028561,5.6617454 20.3779368,6.78273473 21.2409584,7.62600099 C22.1040887,8.46916097 23.2514841,8.93330816 24.4719856,8.93330816 C25.2517838,8.93330816 26.0013386,8.74316405 26.6664733,8.38615228 C30.1697989,12.7741341 32.0926409,18.224117 32.0926409,23.8079129 C32.0926409,37.6390101 20.5754973,48.8912049 6.41848467,48.8912049 C4.71441694,48.8912049 3.01034922,48.7272069 1.35436614,48.4033561 C0.765383586,48.2883556 0.192066622,48.6615227 0.073921988,49.2370567 C-0.0437874911,49.8128033 0.338278766,50.3725008 0.927261317,50.4879265 C2.72358194,50.8387737 4.57125089,51.0169076 6.41848467,51.0169076 C13.8573539,51.0169076 20.8512769,48.1866407 26.1114328,43.0475418 C31.3715888,37.9085493 34.2684169,31.0755842 34.2684169,23.8079129 C34.2684169,17.6939667 32.1432277,11.7274381 28.2744805,6.94428813" id="Fill-4" fill="#0066CC" mask="url(#mask-4)"></path>
                    </g>
                    <path d="M19.4786627,39.5804821 C19.0469064,39.3114873 18.47876,39.3698273 18.1147623,39.7200777 L16.7862141,40.9999843 L13.5065246,37.8378497 L14.8337634,36.558784 C15.1973247,36.2085336 15.2577727,35.6611885 14.9786642,35.2452399 C13.9893453,33.7703409 13.2937561,32.153744 12.911864,30.4398086 C12.8036248,29.955639 12.3595389,29.6095932 11.8450756,29.6095932 L9.97096731,29.6095932 L9.973586,25.1391704 L11.8450756,25.1391704 C12.3595389,25.1391704 12.8036248,24.79344 12.911864,24.308955 C13.2937561,22.59544 13.9893453,20.9788431 14.9786642,19.5039442 C15.2577727,19.0879955 15.1973247,18.5406504 14.8337634,18.1904 L13.5150353,16.9195335 L16.7973435,13.7598166 L18.1147623,15.0294217 C18.47876,15.3796721 19.0464699,15.4375917 19.4786627,15.1691224 C21.0091772,14.2160251 22.6872112,13.5459031 24.4662829,13.177993 C24.9687438,13.0737168 25.3280498,12.6454695 25.3280498,12.1502625 L25.3280498,10.3550715 L29.9683664,10.3550715 L29.9683664,12.149842 C29.9683664,12.6454695 30.3272359,13.0737168 30.8301332,13.1775726 C32.6087685,13.5459031 34.287239,14.2156046 35.8177535,15.1687019 C36.2495098,15.4375917 36.8176562,15.3796721 37.1812175,15.0291063 L38.4990726,13.7598166 L41.7813809,16.9195335 L40.4626528,18.1899796 C40.0986551,18.5406504 40.0386434,19.0879955 40.317752,19.5039442 C41.3070708,20.9788431 42.0022236,22.59544 42.3845522,24.308955 C42.4923549,24.79344 42.9368773,25.1391704 43.4513405,25.1391704 L45.3263218,25.1391704 L45.3263218,29.6095932 L43.4513405,29.6095932 C42.9368773,29.6095932 42.4927913,29.955639 42.3845522,30.4398086 C42.0026601,32.1533236 41.3070708,33.7703409 40.317752,35.2448194 C40.0386434,35.6611885 40.0990915,36.2085336 40.4626528,36.558784 L41.7898916,37.8374293 L38.510202,40.9995639 L37.1816539,39.7200777 C36.8176562,39.3694069 36.2495098,39.3114873 35.8177535,39.5804821 C34.2868025,40.5334744 32.6087685,41.2032809 30.8301332,41.5715064 C30.3272359,41.6758877 29.9683664,42.1037146 29.9683664,42.599342 L29.9683664,44.4130336 L25.3280498,44.4130336 L25.3280498,42.599342 C25.3280498,42.1041351 24.9687438,41.6758877 24.4662829,41.5715064 C22.6876476,41.2035963 21.0096137,40.5334744 19.4786627,39.5804821 L19.4786627,39.5804821 Z M23.1458091,45.4642053 C23.1458091,46.0447674 23.6347401,46.515377 24.2369294,46.515377 L31.0594867,46.515377 C31.6621125,46.515377 32.1506071,46.0447674 32.1506071,45.4642053 L32.1506071,43.4262988 C33.5852121,43.0542891 34.9567504,42.5065236 36.2456909,41.7912013 L37.7391073,43.230045 C37.9436924,43.4271397 38.2211643,43.5379332 38.5110749,43.5379332 C38.8000036,43.5379332 39.077912,43.4271397 39.282497,43.2296246 L44.1047034,38.5806076 C44.5305677,38.17002 44.5305677,37.5044181 44.1047034,37.0942509 L42.6129237,35.657089 C43.3554311,34.4153399 43.9240139,33.0940171 44.3101614,31.7119366 L46.4174421,31.7119366 C47.0200679,31.7119366 47.5085625,31.241327 47.5085625,30.6607649 L47.5085625,24.0879987 C47.5085625,23.5074366 47.0200679,23.036827 46.4174421,23.036827 L44.3097249,23.036827 C43.9235774,21.655167 43.3554311,20.3337391 42.6129237,19.0920951 L44.0966291,17.6627119 C44.3012142,17.4656172 44.4163274,17.1978837 44.4163274,16.919113 C44.4158909,16.6403423 44.3007777,16.3726089 44.0961927,16.1755142 L39.2701674,11.5297559 C38.8443031,11.1195887 38.1534057,11.1195887 37.7272141,11.5301763 L36.2456909,12.9578777 C34.9567504,12.2426605 33.5852121,11.6948949 32.1506071,11.3228853 L32.1506071,9.30389985 C32.1506071,8.72323261 31.6621125,8.25272817 31.0594867,8.25272817 L24.2369294,8.25272817 C23.6347401,8.25272817 23.1458091,8.72323261 23.1458091,9.30389985 L23.1458091,11.3233057 C21.7116405,11.6948949 20.3401022,12.2426605 19.0511617,12.9578777 L17.5692021,11.5301763 C17.1434469,11.1200091 16.4525495,11.1195887 16.0262488,11.5297559 L11.2006599,16.1759346 C10.9956384,16.3730293 10.8805252,16.6403423 10.8805252,16.919113 C10.8805252,17.1978837 10.9956384,17.4656172 11.2002235,17.6627119 L12.6839289,19.0920951 C11.9414215,20.3337391 11.3728387,21.6547465 10.9866912,23.036827 L8.88333855,23.036827 C8.28060366,23.036827 7.7922182,23.5074366 7.7922182,24.0875782 L7.78828893,30.6603444 C7.78785372,30.9391152 7.90296691,31.2068486 8.10755198,31.4039433 C8.31213704,31.601038 8.58960895,31.7119366 8.87941051,31.7119366 L10.9866912,31.7119366 C11.3728387,33.0940171 11.9414215,34.4153399 12.6839289,35.657089 L11.1921492,37.0942509 C10.7662849,37.5044181 10.7658485,38.17002 11.1921492,38.5806076 L16.0143556,43.2296246 C16.2189407,43.4267193 16.4964126,43.5379332 16.7857777,43.5379332 L16.7862141,43.5379332 C17.0756884,43.5379332 17.3531603,43.4271397 17.5577453,43.230045 L19.0507253,41.7912013 C20.3401022,42.5065236 21.7116405,43.0542891 23.1458091,43.4262988 L23.1458091,45.4642053 Z" id="Fill-7" fill="#0066CC"></path>
                    <path d="M21.6386131,26.6338046 C21.6386131,23.0277719 24.6838492,20.0942875 28.4272546,20.0942875 C32.1706599,20.0942875 35.2158961,23.0281895 35.2158961,26.6338046 C35.2158961,30.2394196 32.1706599,33.1733216 28.4272546,33.1733216 C24.6838492,33.1733216 21.6386131,30.2398373 21.6386131,26.6338046 M37.3837868,26.6338046 C37.3837868,21.8762639 33.3659265,18.0059524 28.4272546,18.0059524 C23.4884743,18.0059524 19.4707223,21.8762639 19.4707223,26.6338046 C19.4707223,31.3913452 23.4884743,35.2616567 28.4272546,35.2616567 C33.3659265,35.2616567 37.3837868,31.3913452 37.3837868,26.6338046" id="Fill-9" fill="#0066CC"></path>
                    <path d="M37.7732013,3.75124008 C38.0807998,3.75124008 38.3819729,3.63089748 38.5991493,3.4217038 C38.8164426,3.21127295 38.9414446,2.92132601 38.9414446,2.62519324 C38.9414446,2.33085998 38.8169099,2.04046316 38.5991493,1.83003231 C38.3819729,1.6209511 38.0807998,1.50049603 37.7732013,1.50049603 C37.4646682,1.50049603 37.164897,1.6209511 36.9477206,1.83003231 C36.72996,2.04046316 36.604958,2.32951034 36.604958,2.62519324 C36.604958,2.92222577 36.72996,3.21127295 36.9477206,3.4217038 C37.164897,3.63089748 37.4646682,3.75124008 37.7732013,3.75124008" id="Fill-11" fill="#0066CC"></path>
                    <path d="M18.302479,50.2666171 C17.9953478,50.2666171 17.6937074,50.3870319 17.4765309,50.5963511 C17.2592377,50.8055577 17.1342356,51.0961288 17.1342356,51.3919891 C17.1342356,51.6891998 17.2592377,51.9784204 17.4765309,52.1876271 C17.6937074,52.3969463 17.9953478,52.5173611 18.302479,52.5173611 C18.6096102,52.5173611 18.9112506,52.3969463 19.128427,52.1876271 C19.3457203,51.9784204 19.4707223,51.6878494 19.4707223,51.3919891 C19.4707223,51.0961288 19.3457203,50.8055577 19.128427,50.5963511 C18.9112506,50.3870319 18.6096102,50.2666171 18.302479,50.2666171" id="Fill-13" fill="#0066CC"></path>
                </g>
            </g>
        </g>
    </g>
</svg>