<?xml version="1.0" encoding="UTF-8"?>
<svg width="50px" height="44px" viewBox="0 0 50 44" version="1.1" xmlns="http://www.w3.org/2000/svg" xmlns:xlink="http://www.w3.org/1999/xlink">
    <!-- Generator: Sketch 59.1 (86144) - https://sketch.com -->
    <title>Group 13</title>
    <desc>Created with Sketch.</desc>
    <defs>
        <polygon id="path-1" points="0 0.0184968804 49.9561659 0.0184968804 49.9561659 43.1851697 0 43.1851697"></polygon>
    </defs>
    <g id="Home" stroke="none" stroke-width="1" fill="none" fill-rule="evenodd">
        <g id="Large-Devices_Pubbliche-Amministrazioni" transform="translate(-243.000000, -930.000000)">
            <g id="Group-13" transform="translate(243.000000, 930.000000)">
                <g id="Group-12">
                    <g id="Group-4">
                        <g id="Group-3">
                            <mask id="mask-2" fill="white">
                                <use xlink:href="#path-1"></use>
                            </mask>
                            <g id="Clip-2"></g>
                            <path d="M25.0741628,21.0668478 C29.9674335,21.0668478 34.0990454,17.7826067 35.3357433,13.3256325 L45.7974022,13.3256325 L28.0237715,25.4630687 C27.1240845,26.0773354 26.0707199,26.402153 24.9779969,26.402153 C23.8848826,26.402153 22.8317527,26.0773354 21.9320657,25.4630687 L4.15820031,13.3256325 L14.8120344,13.3256325 C16.0492801,17.7826067 20.180579,21.0668478 25.0741628,21.0668478 L25.0741628,21.0668478 Z M29.1095305,27.5667599 C28.9919249,27.4936237 28.8718936,27.4250537 28.7505321,27.3591924 C28.9250235,27.2592009 29.096072,27.1524762 29.2638341,27.0376253 L47.9795618,14.2145662 L47.9795618,40.3155219 C44.1837089,37.6561503 34.4005321,30.8464348 29.1095305,27.5667599 L29.1095305,27.5667599 Z M21.974867,29.2183998 C23.8240063,28.0758498 26.2131299,28.0780168 28.0601565,29.2232755 C32.9082003,32.2282833 41.5862911,38.240466 45.8661033,41.2307692 L4.09896714,41.2307692 C8.39677621,38.238686 17.1121909,32.2222467 21.974867,29.2183998 L21.974867,29.2183998 Z M1.97627543,14.2145662 L20.6917684,27.0376253 C20.8704069,27.1599833 21.0543662,27.2733638 21.2410642,27.3785406 C21.1356651,27.4368948 21.0305008,27.4972612 20.9279186,27.5604137 C15.6173552,30.8410173 5.78253521,37.662187 1.97627543,40.3191594 L1.97627543,14.2145662 Z M49.9561659,12.3483935 C49.9561659,12.3453752 49.9552269,12.3424343 49.9552269,12.3391064 C49.9549922,12.2979334 49.9521753,12.2569152 49.946385,12.2154327 L49.946385,12.2136526 C49.9409077,12.1744145 49.9323787,12.135099 49.9216588,12.0964025 C49.9197809,12.089205 49.9179812,12.0819301 49.9161033,12.0752743 C49.9139906,12.0692377 49.9130516,12.0628915 49.910939,12.0568548 C49.9011581,12.0260525 49.8899687,11.9961015 49.8770579,11.9667696 C49.8746322,11.960733 49.8715806,11.9546963 49.8688419,11.9486597 C49.8351956,11.8752139 49.7933333,11.8063343 49.7438028,11.7446523 C49.7399687,11.7398539 49.7366041,11.7346686 49.7323005,11.7298702 C49.7078091,11.7003062 49.681518,11.6721352 49.6534272,11.6455895 C49.6485759,11.6407911 49.6430203,11.6356058 49.637856,11.6308074 C49.6085133,11.6044939 49.5783099,11.5794186 49.5462285,11.5564329 C49.5428638,11.5540338 49.5388732,11.5516346 49.5348826,11.5489258 C49.5013146,11.5256306 49.4661815,11.5041154 49.4301095,11.4848446 C49.4289358,11.484535 49.4276839,11.4839159 49.4270579,11.4830646 C49.4268232,11.4830646 49.4265102,11.4830646 49.4258842,11.482755 C49.3891862,11.4637164 49.3513146,11.4476187 49.3121909,11.4331462 C49.3066354,11.4310566 49.3008451,11.42858 49.2950548,11.4268 C49.2581221,11.4141076 49.2208764,11.4035822 49.1823787,11.3950689 C49.1750235,11.3935985 49.1679812,11.3920506 49.160626,11.3905802 C49.1221283,11.3829957 49.0837089,11.376959 49.0439593,11.3742503 C49.0396557,11.3736311 49.0357433,11.3742503 49.0314397,11.3736311 C49.010313,11.3720833 48.9892645,11.371232 48.9678247,11.371232 L35.681518,11.371232 C35.7032707,11.0977258 35.7142254,10.8215883 35.7142254,10.542355 C35.7142254,8.72935117 35.2401252,6.94111302 34.3434898,5.37166433 C34.074867,4.90181261 33.4721283,4.73619201 32.9970892,5.00180412 C32.5217371,5.26718404 32.3546009,5.86365039 32.6229108,6.33319254 C33.352723,7.61017382 33.7379343,9.06600988 33.7379343,10.542355 C33.7379343,15.2679597 29.8516275,19.1118281 25.0741628,19.1118281 C20.88723,19.1118281 17.3852739,16.1596796 16.5826917,12.2499499 C16.5772144,12.194614 16.5662598,12.1420643 16.5515493,12.0903659 C16.4586698,11.5878544 16.4098435,11.0708705 16.4098435,10.542355 C16.4098435,5.81736949 20.296698,1.97319148 25.0741628,1.97319148 C25.7686072,1.97319148 26.4596088,2.05445392 27.1280751,2.21527617 C27.6581221,2.34250994 28.1924726,2.02063327 28.3213459,1.49583266 C28.4502191,0.971496402 28.1246322,0.44305833 27.5945853,0.315514987 C26.7736933,0.118472906 25.9256495,0.0184814018 25.0741628,0.0184814018 C19.2070266,0.0184814018 14.4334742,4.73982947 14.4334742,10.5429742 C14.4334742,10.8215883 14.445133,11.0977258 14.4664945,11.3715415 L0.98801252,11.3715415 C0.965946792,11.3715415 0.944350548,11.3727024 0.92228482,11.3742503 C0.919233177,11.3742503 0.915868545,11.3742503 0.912503912,11.3745599 C0.872519562,11.3775782 0.83370892,11.3836148 0.794663537,11.3911219 C0.787934272,11.3920506 0.781205008,11.3935985 0.774162754,11.3950689 C0.735665102,11.4035822 0.697480438,11.4141076 0.660469484,11.4271096 C0.654992175,11.4291992 0.649514867,11.4310566 0.644350548,11.4331462 C0.604913928,11.4476187 0.566729264,11.4637164 0.530344288,11.482755 C0.52971831,11.4830646 0.529405321,11.4830646 0.529092332,11.4832967 C0.527918623,11.4839159 0.527292645,11.484535 0.526040689,11.4854637 C0.489733959,11.5041154 0.454913928,11.5256306 0.420954617,11.5489258 C0.417276995,11.5516346 0.413286385,11.5540338 0.409687011,11.5564329 C0.377918623,11.5794186 0.347323944,11.6044939 0.318372457,11.631117 C0.31312989,11.6362249 0.307652582,11.6407911 0.302410016,11.6455895 C0.274632238,11.6721352 0.248106416,11.7006157 0.223302034,11.7301798 C0.219624413,11.7346686 0.21571205,11.7398539 0.212347418,11.7446523 C0.162816901,11.8063343 0.120954617,11.8752139 0.0873865415,11.9489693 C0.0846478873,11.9550059 0.0815962441,11.9610425 0.0790923318,11.9670792 C0.0662597809,11.9961015 0.0549921753,12.0263621 0.0452112676,12.057087 C0.0430985915,12.063201 0.0421596244,12.0692377 0.0399687011,12.0752743 C0.0381690141,12.0825492 0.0363693271,12.0894372 0.0344913928,12.0967121 C0.023771518,12.1357181 0.0150078247,12.1744145 0.00945226917,12.2136526 C0.00945226917,12.2142718 0.00945226917,12.2148909 0.00913928013,12.2154327 C0.00366197183,12.2569152 0.00123630673,12.2979334 0.000923317684,12.3391064 C0.000923317684,12.3424343 -1.56494523e-05,12.3453752 -1.56494523e-05,12.3483935 L-1.56494523e-05,42.2083177 C-1.56494523e-05,42.2116456 0.000610328639,42.2149735 0.000610328639,42.2185336 C0.000923317684,42.2390427 0.00217527387,42.2593196 0.00397496088,42.2799061 C0.00460093897,42.2916698 0.00522691706,42.3037431 0.00671361502,42.3155841 C0.0085915493,42.3352419 0.0119561815,42.3545901 0.0153208138,42.3735514 C0.0177464789,42.3859342 0.0192331768,42.3992458 0.0217370892,42.4116286 C0.0256494523,42.4285776 0.0305007825,42.4451397 0.0351173709,42.4620887 C0.0391079812,42.4766386 0.0424726135,42.491111 0.0470109546,42.5056609 C0.051627543,42.5195142 0.0571048513,42.5333675 0.0626604069,42.5469886 C0.0687636933,42.5636281 0.0745539906,42.5802675 0.0815962441,42.5959783 C0.0864475743,42.607742 0.0925508607,42.6195057 0.0984194053,42.6307277 C0.107183099,42.648528 0.115477308,42.6660962 0.124945227,42.6829678 C0.131048513,42.6934932 0.137777778,42.7037865 0.144194053,42.7140797 C0.154913928,42.7313383 0.165868545,42.7491386 0.177214397,42.7657781 C0.179640063,42.7681773 0.181126761,42.7718147 0.183004695,42.7742139 C0.187230047,42.7800184 0.192159624,42.7848167 0.196463224,42.7905438 C0.212347418,42.812059 0.229092332,42.8328003 0.247167449,42.8527676 C0.255696401,42.8630609 0.26485133,42.872735 0.27400626,42.8817899 C0.290516432,42.8990485 0.307965571,42.915688 0.32627543,42.9319404 C0.33543036,42.9401441 0.344898279,42.949199 0.354679186,42.9577123 C0.381283255,42.9794596 0.408748044,43.0002009 0.437464789,43.0192395 C0.44599374,43.0247344 0.454913928,43.0295328 0.46312989,43.0347181 C0.485117371,43.0482618 0.508043818,43.061883 0.531909233,43.0739562 C0.542550861,43.0797607 0.553896714,43.0845591 0.56485133,43.0899766 C0.5871518,43.1002698 0.609452269,43.1102535 0.632378717,43.1189989 C0.643411581,43.1229459 0.654366197,43.1272025 0.665946792,43.1311495 C0.689812207,43.1392758 0.714303599,43.1464733 0.739577465,43.1528195 C0.749671362,43.1555283 0.760391236,43.1585466 0.770798122,43.1607136 C0.797402191,43.1667502 0.824553991,43.171239 0.851471049,43.1745669 C0.861251956,43.1761147 0.870093897,43.1778948 0.879248826,43.1791331 C0.91312989,43.182461 0.94771518,43.1851697 0.982769953,43.1851697 C0.984960876,43.1851697 0.987073552,43.1851697 0.989499218,43.1851697 L48.9678247,43.1851697 C48.9772926,43.1851697 48.9865258,43.1839314 48.9959937,43.1836219 C49.0149296,43.1833897 49.0344914,43.182461 49.0534272,43.1809131 C49.0693114,43.1794426 49.0843349,43.1775852 49.0995931,43.1754956 C49.1157903,43.1737156 49.1315962,43.171239 49.1471674,43.1682207 C49.1643036,43.1652024 49.1811268,43.1615649 49.1979499,43.1573857 C49.2119562,43.1543674 49.2263537,43.1510395 49.2398122,43.1467829 C49.2572613,43.1422167 49.2736933,43.136567 49.2901252,43.1311495 C49.3038967,43.1265834 49.3176682,43.1214754 49.3314397,43.1162901 C49.347011,43.1099439 49.3622692,43.1032881 49.3776056,43.0966323 C49.3919249,43.0899766 49.4060094,43.0833982 49.4204069,43.0764328 C49.4337089,43.0691579 49.4468545,43.061883 49.460313,43.0543759 C49.4750235,43.0458627 49.4899687,43.0371173 49.5049922,43.0277527 C49.5162598,43.0201682 49.5276056,43.0125838 49.5388732,43.0047671 C49.5538967,42.9941643 49.568529,42.9830971 49.5829264,42.9718751 C49.5938028,42.9637489 49.6042097,42.9546165 49.6146166,42.9458712 C49.6283881,42.9341074 49.6415336,42.9225759 49.6546792,42.9098835 C49.6656338,42.8996676 49.6760407,42.8881361 49.6867606,42.8772237 C49.6977152,42.86546 49.708748,42.8540059 49.7191549,42.8418552 C49.7313615,42.8280793 49.7426291,42.8132199 49.7535837,42.7984379 C49.759687,42.7908534 49.7661815,42.783888 49.7719718,42.7757618 C49.7743975,42.7727434 49.7759624,42.7694156 49.7780751,42.7663972 C49.7899687,42.7497578 49.8006886,42.7324992 49.8114085,42.7150084 C49.8178247,42.7050247 49.824554,42.6944219 49.8303443,42.6838191 C49.8401252,42.6670249 49.8486541,42.6494567 49.8569484,42.6319659 C49.8627387,42.6201248 49.8691549,42.6089803 49.8740063,42.5968296 C49.8813615,42.5804997 49.8871518,42.5639377 49.8933333,42.5479174 C49.8984194,42.5336771 49.9042097,42.5201333 49.9088263,42.50628 C49.9133646,42.4917302 49.9170423,42.4766386 49.9210329,42.4614696 C49.9256495,42.4451397 49.9301878,42.4291194 49.9335524,42.4127895 C49.9366041,42.3995553 49.938482,42.3859342 49.9409077,42.3723131 C49.9439593,42.353971 49.9473239,42.3354741 49.9491236,42.316745 C49.9506886,42.3043622 49.9516275,42.2913602 49.9521753,42.2786678 C49.9537402,42.25901 49.9549922,42.2393522 49.9552269,42.2193849 C49.9552269,42.2155926 49.9555399,42.2119552 49.9555399,42.2083177 L49.9555399,12.3483935 L49.9561659,12.3483935 Z" id="Fill-1" fill="#0066CC" mask="url(#mask-2)"></path>
                        </g>
                    </g>
                    <path d="M4.95069105,29.9351852 C5.49707424,29.9351852 5.94059406,29.5007535 5.94059406,28.9654895 L5.94059406,22.5622114 C5.94059406,22.0270242 5.49707424,21.5925926 4.95069105,21.5925926 C4.40368066,21.5925926 3.96039604,22.0270242 3.96039604,22.5622114 L3.96039604,28.9654895 C3.96039604,29.5007535 4.40368066,29.9351852 4.95069105,29.9351852" id="Fill-4" fill="#0066CC"></path>
                    <path d="M5.24422821,31.9467874 L5.2221398,31.9401281 C4.70496099,31.7840986 4.15879599,32.0764894 4.00239455,32.5936712 C3.84622562,33.1103883 4.13911018,33.656453 4.6565215,33.8121728 L4.67899742,33.8187547 C4.7730863,33.8474827 4.86833772,33.8611111 4.96219409,33.8611111 C5.38218389,33.8611111 5.77101741,33.5880788 5.89874268,33.1651342 C6.0546016,32.6481847 5.76163953,32.102817 5.24422821,31.9467874" id="Fill-6" fill="#0066CC"></path>
                    <path d="M24.5506873,16.0323304 C24.7430325,16.1407859 24.9763372,16.1944444 25.2500533,16.1944444 C25.5132749,16.1944444 25.7435252,16.1407859 25.9410393,16.0323304 C26.1388667,15.924482 26.2376238,15.7771677 26.2376238,15.5905392 L26.2376238,6.01662548 C26.2376238,5.84001525 26.1462285,5.69270092 25.9639861,5.57475838 C25.7817437,5.45711942 25.5787474,5.39814815 25.3560937,5.39814815 C25.2041598,5.39814815 25.0671843,5.44732882 24.9457155,5.5451589 L23.152112,6.87091199 C22.8989149,7.02854819 22.7722772,7.25904465 22.7722772,7.56338802 C22.7722772,7.75988303 22.8332074,7.93672094 22.9549112,8.09352229 C23.0762234,8.25055132 23.2285489,8.32940737 23.4107913,8.32940737 C23.5526224,8.32940737 23.6740912,8.28493225 23.7755893,8.19666509 L24.2620128,7.72519851 L24.2620128,15.5905392 C24.2620128,15.7771677 24.3581071,15.924482 24.5506873,16.0323304" id="Fill-8" fill="#0066CC"></path>
                    <path d="M30.3982545,3.87698473 L30.4203447,3.88333469 C30.5150614,3.91206442 30.6107083,3.92592593 30.7048049,3.92592593 C31.1245192,3.92592593 31.5131522,3.65380666 31.6408105,3.23114675 C31.7976124,2.71447636 31.5055563,2.16845674 30.9880249,2.01179844 L30.9659346,2.00513872 C30.4491008,1.84886761 29.9019607,2.14026909 29.7451588,2.65755898 C29.5887445,3.17430681 29.8807231,3.72040386 30.3982545,3.87698473" id="Fill-10" fill="#0066CC"></path>
                </g>
            </g>
        </g>
    </g>
</svg>