<?xml version="1.0" encoding="UTF-8"?>
<svg width="42px" height="53px" viewBox="0 0 42 53" version="1.1" xmlns="http://www.w3.org/2000/svg" xmlns:xlink="http://www.w3.org/1999/xlink">
    <!-- Generator: Sketch 59.1 (86144) - https://sketch.com -->
    <title>Group 10</title>
    <desc>Created with Sketch.</desc>
    <g id="Home" stroke="none" stroke-width="1" fill="none" fill-rule="evenodd">
        <g id="Large-Devices_Pubbliche-Amministrazioni" transform="translate(-495.000000, -924.000000)" fill="#0066CC">
            <g id="Group-10" transform="translate(495.000000, 924.000000)">
                <g id="Group-4">
                    <path d="M29.7118294,39.8174624 L40.1658534,39.8174624 L40.1658534,30.9249404 L29.7118294,30.9249404 L29.7118294,39.8174624 Z M37.465256,48.8898209 C37.465256,50.1345961 36.4627115,51.1472883 35.2304096,51.1472883 L1.83414657,51.1472883 L1.83414657,19.5956084 L35.2304096,19.5956084 C36.4627115,19.5956084 37.465256,20.6083006 37.465256,21.8530759 L37.465256,29.0723522 L28.7947561,29.0723522 C28.2882871,29.0723522 27.8776828,29.4871126 27.8776828,29.998708 L27.8776828,40.7439417 C27.8776828,41.2555372 28.2882871,41.6702975 28.7947561,41.6702975 L37.465256,41.6702975 L37.465256,48.8898209 Z M14.3076883,6.43122737 C15.2399238,6.96542591 16.2862433,7.2454324 17.3801283,7.2454324 C19.0143529,7.2454324 20.5456208,6.61427528 21.702845,5.49165552 L29.7449663,11.802362 C29.216243,12.7440336 28.9390423,13.8009439 28.9390423,14.9057776 C28.9390423,15.9062419 29.170267,16.8726163 29.6043484,17.7428968 L5.607842,17.7428968 L14.3076883,6.43122737 Z M17.5416555,2.22631295 L20.2325931,4.3379102 C19.4421982,5.01538511 18.4417324,5.39272072 17.3801283,5.39272072 C16.6999045,5.39272072 16.045481,5.24018079 15.4495057,4.94658775 L17.5416555,2.22631295 Z M26.259721,2.92355011 L27.952516,8.04975629 L22.874131,4.06457347 L26.259721,2.92355011 Z M31.8514225,17.7428968 L31.7814804,17.7428968 C31.1292578,16.9453661 30.7730666,15.9516951 30.7730666,14.9057776 C30.7730666,14.2186686 30.924078,13.5577446 31.2147291,12.9557368 L33.9077453,15.0689398 L31.8514225,17.7428968 Z M41.0829267,29.0723522 L39.2994026,29.0723522 L39.2994026,21.8530759 C39.2994026,19.5867154 37.4740599,17.7428968 35.2304096,17.7428968 L34.1739411,17.7428968 L35.9188259,15.474066 C36.2295303,15.0700514 36.1571427,14.4880529 35.7571765,14.1742035 L30.562262,10.0977438 L27.7093081,1.45842571 C27.6323963,1.22535458 27.466834,1.03267257 27.2493042,0.922868524 C27.0315299,0.812940964 26.7796404,0.795031418 26.549027,0.872845309 L21.1329145,2.69838388 L17.9427222,0.194876348 C17.542756,-0.119096524 16.966834,-0.0458526556 16.655885,0.358162004 L3.28520106,17.7428968 L0.917073284,17.7428968 C0.410604279,17.7428968 0,18.1576572 0,18.6692526 L0,52.0736442 C0,52.5852396 0.410604279,53 0.917073284,53 L35.2304096,53 C37.4740599,53 39.2994026,51.1561813 39.2994026,48.8898209 L39.2994026,41.670174 L41.0829267,41.670174 C41.5893957,41.670174 42,41.2554136 42,40.7438182 L42,29.9985845 C42,29.4871126 41.5893957,29.0723522 41.0829267,29.0723522 L41.0829267,29.0723522 Z" id="Fill-1"></path>
                    <path d="M35.70007,34.9800471 C36.2789829,34.9800471 36.7499533,35.455503 36.7499533,36.0400707 C36.7499533,36.624497 36.2789829,37.0999529 35.70007,37.0999529 C35.1211571,37.0999529 34.6500467,36.624497 34.6500467,36.0400707 C34.6500467,35.4556443 35.1210171,34.9800471 35.70007,34.9800471 M35.70007,39.22 C37.4369486,39.22 38.85,37.793491 38.85,36.0400707 C38.85,34.2866504 37.4369486,32.86 35.70007,32.86 C33.9631914,32.86 32.55,34.286509 32.55,36.0400707 C32.55,37.793491 33.9630514,39.22 35.70007,39.22" id="Fill-3"></path>
                </g>
            </g>
        </g>
    </g>
</svg>