<?xml version="1.0" encoding="UTF-8"?>
<svg width="70px" height="70px" viewBox="0 0 70 70" version="1.1" xmlns="http://www.w3.org/2000/svg" xmlns:xlink="http://www.w3.org/1999/xlink">
    <defs>
        <polygon id="path-1" points="0 0 69.9999453 0 69.9999453 69.9999453 0 69.9999453"></polygon>
        <polygon id="path-3" points="0 70 70 70 70 0 0 0"></polygon>
    </defs>
    <g id="Home" stroke="none" stroke-width="1" fill="none" fill-rule="evenodd">
        <g id="Large-Devices_Pubbliche-Amministrazioni" transform="translate(-605.000000, -5731.000000)">
            <g id="Group-14" transform="translate(605.000000, 5731.000000)">
                <g id="Group-3">
                    <mask id="mask-2" fill="white">
                        <use xlink:href="#path-1"></use>
                    </mask>
                    <g id="Clip-2"></g>
                    <path d="M67.6665664,64.7499453 C67.6665664,66.3588516 66.3588516,67.6665664 64.7499453,67.6665664 L5.24994531,67.6665664 C3.64226953,67.6665664 2.33332422,66.3588516 2.33332422,64.7499453 L2.33332422,5.24994531 C2.33332422,3.64103906 3.64226953,2.33332422 5.24994531,2.33332422 L64.7499453,2.33332422 C66.3577578,2.33332422 67.6665664,3.64117578 67.6665664,5.24994531 L67.6665664,64.7499453 Z M64.7499453,-5.46875e-05 L5.24994531,-5.46875e-05 C2.35547266,-5.46875e-05 -5.46875e-05,2.35547266 -5.46875e-05,5.24994531 L-5.46875e-05,64.7499453 C-5.46875e-05,67.6445547 2.35547266,69.9999453 5.24994531,69.9999453 L64.7499453,69.9999453 C67.6445547,69.9999453 69.9999453,67.6445547 69.9999453,64.7499453 L69.9999453,5.24994531 C69.9999453,2.35547266 67.6445547,-5.46875e-05 64.7499453,-5.46875e-05 L64.7499453,-5.46875e-05 Z" id="Fill-1" fill="#FFFFFF" mask="url(#mask-2)"></path>
                </g>
                <mask id="mask-4" fill="white">
                    <use xlink:href="#path-3"></use>
                </mask>
                <g id="Clip-5"></g>
                <path d="M7.33328776,9.66675781 L9.66671224,9.66675781 L9.66671224,7.33337891 L7.33328776,7.33337891 L7.33328776,9.66675781 Z M10.8333561,5 L6.16664388,5 C5.52268599,5 5,5.52144531 5,6.16662109 L5,10.8333789 C5,11.4785547 5.52268599,12 6.16664388,12 L10.8333561,12 C11.477314,12 12,11.4785547 12,10.8333789 L12,6.16675781 C12,5.52158203 11.477314,5 10.8333561,5 L10.8333561,5 Z" id="Fill-4" fill="#FFFFFF" mask="url(#mask-4)"></path>
                <path d="M16.333151,9.66675781 L18.6665755,9.66675781 L18.6665755,7.33337891 L16.333151,7.33337891 L16.333151,9.66675781 Z M19.8333561,5 L15.1666439,5 C14.522686,5 14,5.52144531 14,6.16662109 L14,10.8333789 C14,11.4785547 14.522686,12 15.1666439,12 L19.8333561,12 C20.477314,12 21,11.4785547 21,10.8333789 L21,6.16675781 C21,5.52158203 20.477314,5 19.8333561,5 L19.8333561,5 Z" id="Fill-6" fill="#FFFFFF" mask="url(#mask-4)"></path>
                <path d="M25.3332878,9.66675781 L27.6667122,9.66675781 L27.6667122,7.33337891 L25.3332878,7.33337891 L25.3332878,9.66675781 Z M28.8333561,5 L24.1666439,5 C23.522686,5 23,5.52144531 23,6.16662109 L23,10.8333789 C23,11.4785547 23.522686,12 24.1666439,12 L28.8333561,12 C29.477314,12 30,11.4785547 30,10.8333789 L30,6.16675781 C30.0001367,5.52158203 29.4774507,5 28.8333561,5 L28.8333561,5 Z" id="Fill-7" fill="#FFFFFF" mask="url(#mask-4)"></path>
                <path d="M67.6667533,13.7143622 L2.33338346,13.7143622 L2.33338346,5.14288584 C2.33338346,3.56680562 3.64233133,2.28577168 5.25001025,2.28577168 L64.7501265,2.28577168 C66.3579421,2.28577168 67.6667533,3.56693955 67.6667533,5.14288584 L67.6667533,13.7143622 Z M64.7501265,0 L5.25001025,0 C2.35553194,0 0,2.30746823 0,5.14288584 L0,14.8571811 C0,15.4891936 0.522813521,16 1.16676009,16 L68.8333766,16 C69.4773232,16 70,15.4891936 70,14.8571811 L70,5.14288584 C70,2.30746823 67.6447415,0 64.7501265,0 L64.7501265,0 Z" id="Fill-8" fill="#FFFFFF" mask="url(#mask-4)"></path>
                <path d="M55.650344,44.8499793 L54.1311368,44.8499793 C52.387484,44.8499793 50.8350919,45.9896846 50.3545306,47.6219264 C50.1065389,48.4609047 49.7987869,49.0082441 49.3711011,49.7673591 L49.0209385,50.3959389 C48.2043973,51.8951669 48.4934226,53.8023865 49.7248438,55.0325576 L50.8010809,56.1090607 L48.1081473,58.8019705 L47.0316349,57.7257429 C45.8003514,56.4954341 43.8932527,56.2039328 42.3951131,57.0218438 L41.7699703,57.3698002 C41.0098847,57.7985838 40.4610258,58.1075724 39.6210762,58.3554242 C37.9900593,58.8348797 36.8503441,60.3883598 36.8503441,62.1307579 L36.8503441,63.6499518 L32.1502064,63.6499518 L32.1502064,62.1306202 C32.1502064,60.3882221 31.0106289,58.834742 29.3785104,58.3541849 C28.5384231,58.1061954 27.9895643,57.7972068 27.229341,57.3684232 L26.6043359,57.0207422 C25.1037177,56.2028313 23.1978583,56.4941948 21.9664371,57.7243659 L20.8902,58.8007313 L18.1968534,56.1078214 L19.2732282,55.0313184 C20.5046494,53.801285 20.7936747,51.8940653 19.9769958,50.394975 L19.6268332,49.7662576 C19.2003867,49.0071426 18.8912577,48.4598032 18.6445053,47.6206871 C18.1639439,45.9898223 16.6116895,44.8499793 14.8691384,44.8499793 L13.3499311,44.8499793 L13.3499311,40.1500207 L14.869276,40.1500207 C16.6132042,40.1500207 18.1653209,39.0104531 18.6457445,37.3782113 C18.892497,36.5393706 19.2014883,35.9917559 19.6291741,35.2326409 L19.9793367,34.6040611 C20.7960155,33.1046954 20.5068526,31.1978889 19.2755691,29.9674424 L18.199332,28.8912147 L20.8922655,26.1980295 L21.968778,27.2743948 C23.2000615,28.5058052 25.1072978,28.7938641 26.6052998,27.9781562 L27.2315442,27.6293737 C27.9906658,27.2016916 28.539387,26.8925653 29.3794743,26.6445758 C31.0103535,26.1651203 32.1502064,24.6117779 32.1502064,22.8692421 L32.1502064,21.3499105 L36.8503441,21.3499105 L36.8503441,22.8692421 C36.8503441,24.6117779 37.9899216,26.1651203 39.6221778,26.6456774 C40.4610258,26.8935292 41.0109863,27.2026555 41.7699703,27.6303375 L42.3962146,27.9793955 C43.8955935,28.7982703 45.8025545,28.5056675 47.0341134,27.2754964 L48.1103505,26.1991311 L50.8035594,28.8921786 L49.7270469,29.9685439 C48.4945242,31.198715 48.2054989,33.105797 49.0220401,34.6053004 L49.3722027,35.2338801 C49.8000262,35.9916182 50.1090175,36.5403345 50.3557699,37.3793129 C50.8361935,39.0103154 52.3885856,40.1500207 54.1311368,40.1500207 L55.650344,40.1500207 L55.650344,44.8499793 Z M56.8253096,37.8001102 L54.1311368,37.8001102 C53.4236514,37.8001102 52.7985086,37.3535638 52.6093134,36.7156208 C52.2873786,35.6205289 51.8656137,34.8718788 51.4190635,34.078753 L51.0855622,33.4795024 C50.7636274,32.8896151 50.8868659,32.128297 51.3873932,31.6288756 L53.2946296,29.7217937 C53.7539857,29.262304 53.7539857,28.5197124 53.2946296,28.0603604 L48.9399729,23.7057419 C48.4992059,23.2638772 47.7190166,23.2638772 47.2783873,23.7057419 L45.3725279,25.6128238 C44.8721382,26.1122452 44.110538,26.2356203 43.5206455,25.91479 L42.9237305,25.5822555 C42.1305978,25.1357091 41.3809772,24.7127087 40.2846364,24.3907767 C39.6455862,24.2028225 39.2001376,23.5776851 39.2001376,22.8691044 L39.2001376,20.1748176 C39.2001376,19.5251704 38.6737232,19 38.025172,19 L30.9751032,19 C30.3265519,19 29.8002753,19.5251704 29.8002753,20.1748176 L29.8002753,22.8691044 C29.8002753,23.5776851 29.3548266,24.2026848 28.7157764,24.3907767 C27.6181964,24.713948 26.8696774,25.1357091 26.0766823,25.5822555 L25.4796296,25.91479 C24.8897371,26.2356203 24.1284123,26.1122452 23.6289865,25.6128238 L21.7220256,23.7057419 C21.502124,23.4848784 21.2024961,23.3615033 20.8911639,23.3615033 C20.5798318,23.3615033 20.2813054,23.4848784 20.06044,23.7057419 L15.7057832,28.0603604 C15.2476665,28.5198501 15.2476665,29.2624417 15.7057832,29.7217937 L17.6128819,31.6288756 C18.1123077,32.128297 18.2369232,32.8896151 17.9148507,33.4795024 L17.5812117,34.078753 C17.1346614,34.8718788 16.7128966,35.619152 16.3897225,36.7156208 C16.2017666,37.3537015 15.5766238,37.8001102 14.869276,37.8001102 L12.1751033,37.8001102 C11.526552,37.8001102 11,38.3251429 11,38.9749277 L11,46.0249346 C11,46.6747194 11.526552,47.1998898 12.1751033,47.1998898 L14.869276,47.1998898 C15.5766238,47.1998898 16.2017666,47.6465739 16.3897225,48.2843792 C16.7130343,49.3796088 17.1335599,50.1279835 17.5801101,50.91987 L17.9148507,51.5202222 C18.2369232,52.111211 18.113547,52.8714276 17.6128819,53.3709867 L15.7057832,55.2780686 C15.2462895,55.7375583 15.2462895,56.4802876 15.7057832,56.9396396 L20.06044,61.2942581 C20.5010693,61.7335066 21.2812586,61.7335066 21.7220256,61.2942581 L23.6277473,59.3870385 C24.1282746,58.8888563 24.8897371,58.7656189 25.4797673,59.08521 L26.0753053,59.4163676 C26.8685758,59.8640155 27.6180587,60.2870159 28.7156387,60.6089479 C29.3546889,60.7969021 29.8001376,61.4221772 29.8001376,62.1306202 L29.8001376,64.8249071 C29.8001376,65.4746919 30.3264142,66 30.9749655,66 L38.0250343,66 C38.6735855,66 39.1999999,65.4746919 39.1999999,64.8249071 L39.1999999,62.1306202 C39.1999999,61.4221772 39.6454485,60.7970398 40.285738,60.6089479 C41.383318,60.2859143 42.1328009,59.8640155 42.9260714,59.4163676 L43.5216094,59.08521 C44.1126035,58.7643797 44.8728267,58.8888563 45.3722525,59.3870385 L47.2793512,61.2942581 C47.4992527,61.5149839 47.798743,61.6384967 48.1100751,61.6384967 C48.4214072,61.6384967 48.7199336,61.5149839 48.940799,61.2942581 L53.2954558,56.9396396 C53.753848,56.4800122 53.753848,55.7374206 53.2954558,55.2780686 L51.3884948,53.3711244 C50.889069,52.871703 50.7645912,52.1113487 51.0863883,51.5203599 L51.4200273,50.91987 C51.8665776,50.1279835 52.2872409,49.3805726 52.6104149,48.2843792 C52.7982332,47.6464362 53.423376,47.1998898 54.1308614,47.1998898 L56.8250342,47.1998898 C57.4735854,47.1998898 58,46.6747194 58,46.0249346 L58,38.9749277 C58,38.3251429 57.4739985,37.8001102 56.8253096,37.8001102 L56.8253096,37.8001102 Z" id="Fill-9" fill="#FFFFFF" mask="url(#mask-4)"></path>
                <path d="M35,53.6667464 C28.5669727,53.6667464 23.3333789,48.4329904 23.3333789,42.0000684 C23.3333789,35.5671463 28.5671094,30.3333903 35,30.3333903 C41.4328906,30.3333903 46.6666211,35.5671463 46.6666211,42.0000684 C46.6666211,48.4329904 41.4330273,53.6667464 35,53.6667464 M35,28 C27.2801758,28 21,34.2802064 21,42.0000684 C21,49.7199303 27.2801758,56 35,56 C42.7198242,56 49,49.7199303 49,42.0000684 C49,34.2802064 42.7198242,28 35,28" id="Fill-10" fill="#FFFFFF" mask="url(#mask-4)"></path>
                <path d="M28.8967929,41.5001813 L31.6480906,38.9206262 C32.1173031,38.4807031 32.1173031,37.7697336 31.6480906,37.3299423 C31.1801437,36.8900192 30.4194486,36.8900192 29.9515016,37.3299423 L26.3519094,40.7048393 C25.8826969,41.1447624 25.8826969,41.8557319 26.3519094,42.2955232 L29.9515016,45.6704202 C30.1854751,45.8897885 30.4927059,46 30.7997961,46 C31.1070269,46 31.4141172,45.8897885 31.6480906,45.6704202 C32.1173031,45.2304971 32.1173031,44.5195276 31.6480906,44.0796045 L28.8967929,41.5001813 Z" id="Fill-11" fill="#FFFFFF" mask="url(#mask-4)"></path>
                <path d="M43.6480906,40.7048393 L40.0484984,37.3299423 C39.5805514,36.8900192 38.8198563,36.8900192 38.3519094,37.3299423 C37.8826969,37.7698654 37.8826969,38.4808349 38.3519094,38.9206262 L41.1032071,41.5001813 L38.3519094,44.0797363 C37.8826969,44.5196594 37.8826969,45.2306289 38.3519094,45.6704202 C38.5858828,45.8897885 38.8932543,46 39.2002039,46 C39.5075753,46 39.8145249,45.8897885 40.0484984,45.6704202 L43.6480906,42.2955232 C44.1173031,41.8557319 44.1173031,41.1446306 43.6480906,40.7048393" id="Fill-12" fill="#FFFFFF" mask="url(#mask-4)"></path>
                <path d="M36.0928085,36.0411071 C35.4292056,35.8776757 34.7380685,36.2156074 34.548112,36.8055229 L32.0485068,44.5843331 C31.8585503,45.173337 32.2434429,45.7889066 32.9070458,45.9576771 C33.0220156,45.9854149 33.1369855,46 33.2507836,46 C33.7957553,46 34.2956177,45.6819926 34.4518888,45.1931311 L36.951494,37.4145813 C37.1414505,36.8254472 36.7565579,36.2100078 36.0928085,36.0411071" id="Fill-13" fill="#FFFFFF" mask="url(#mask-4)"></path>
            </g>
        </g>
    </g>
</svg>