<?xml version="1.0" encoding="UTF-8"?>
<svg width="207px" height="207px" viewBox="0 0 207 207" version="1.1" xmlns="http://www.w3.org/2000/svg" xmlns:xlink="http://www.w3.org/1999/xlink">
    <!-- Generator: Sketch 59.1 (86144) - https://sketch.com -->
    <title>Group 30</title>
    <desc>Created with Sketch.</desc>
    <defs>
        <polygon id="path-1" points="0 0 206.999838 0 206.999838 207 0 207"></polygon>
    </defs>
    <g id="Home" stroke="none" stroke-width="1" fill="none" fill-rule="evenodd" opacity="0.08">
        <g id="Large-Devices_Pubbliche-Amministrazioni" transform="translate(-321.000000, -2820.000000)">
            <g id="Group-30" transform="translate(321.000000, 2820.000000)">
                <path d="M20.3333333,14 C18.4922458,14 17,15.5667663 17,17.4997949 C17,19.4328236 18.4922458,21 20.3333333,21 L23.6666667,21 C25.5077542,21 27,19.4332337 27,17.5002051 C27,15.5671764 25.5077542,14 23.6666667,14 L20.3333333,14 Z" id="Fill-1" fill="#0066CC"></path>
                <path d="M38.3333333,14 C36.4922458,14 35,15.5668581 35,17.5 C35,19.4331419 36.4926364,21 38.3333333,21 L41.6666667,21 C43.5077542,21 45,19.4331419 45,17.5 C45,15.5668581 43.5077542,14 41.6666667,14 L38.3333333,14 Z" id="Fill-3" fill="#0066CC"></path>
                <path d="M54.3333333,14 C52.4922458,14 51,15.5668581 51,17.5 C51,19.4331419 52.4922458,21 54.3333333,21 L57.6666667,21 C59.5077542,21 61,19.4331419 61,17.5 C61,15.5668581 59.5073636,14 57.6666667,14 L54.3333333,14 Z" id="Fill-5" fill="#0066CC"></path>
                <path d="M72.414069,14 C70.5282099,14 69,15.5668581 69,17.5 C69,19.4331419 70.5282099,21 72.414069,21 L164.586331,21 C166.47179,21 168,19.4331419 168,17.5 C168,15.5668581 166.47179,14 164.586331,14 L72.414069,14 Z" id="Fill-7" fill="#0066CC"></path>
                <g id="Group-11">
                    <mask id="mask-2" fill="white">
                        <use xlink:href="#path-1"></use>
                    </mask>
                    <g id="Clip-10"></g>
                    <path d="M200.100108,137.999865 L189.749704,137.999865 C187.844657,137.999865 186.299838,139.544279 186.299838,141.44973 C186.299838,143.355182 187.844657,144.899596 189.749704,144.899596 L200.100108,144.899596 L200.100108,151.79973 L189.749704,151.79973 C187.844657,151.79973 186.299838,153.344145 186.299838,155.249596 C186.299838,157.155047 187.844657,158.699461 189.749704,158.699461 L200.100108,158.699461 L200.100108,165.6 L189.749704,165.6 C187.844657,165.6 186.299838,167.144414 186.299838,169.049865 C186.299838,170.955316 187.844657,172.49973 189.749704,172.49973 L200.100108,172.49973 L200.100108,179.399865 L189.749704,179.399865 C187.844657,179.399865 186.299838,180.944684 186.299838,182.84973 C186.299838,184.755182 187.844657,186.299596 189.749704,186.299596 L199.754838,186.299596 C198.104094,194.325697 191.044262,200.089354 182.849973,200.099461 L134.549838,200.099461 C126.356358,200.088949 119.295717,194.325697 117.645377,186.299596 L127.650512,186.299596 C129.555963,186.299596 131.099973,184.754777 131.099973,182.84973 C131.099973,180.944279 129.555963,179.399865 127.650512,179.399865 L117.300108,179.399865 L117.300108,172.49973 L127.650512,172.49973 C129.555963,172.49973 131.099973,170.955316 131.099973,169.049865 C131.099973,167.144414 129.555963,165.6 127.650512,165.6 L117.300108,165.6 L117.300108,158.699865 L127.650512,158.699865 C129.555963,158.699865 131.099973,157.155451 131.099973,155.25 C131.099973,153.344549 129.555963,151.800135 127.650512,151.800135 L117.300108,151.800135 L117.300108,144.9 L127.650512,144.9 C129.555963,144.9 131.099973,143.355586 131.099973,141.450135 C131.099973,139.544684 129.555963,138.00027 127.650512,138.00027 L117.300108,138.00027 L117.300108,131.100135 L200.100108,131.100135 L200.100108,137.999865 L200.100108,137.999865 Z M110.400377,131.100135 L110.400377,165.6 L17.249973,165.6 C11.5340238,165.6 6.89997305,160.965949 6.89997305,155.25 L6.89997305,34.4998652 L179.400512,34.4998652 L179.400512,75.1822383 C167.745038,67.5580078 152.846698,66.9402422 140.600141,73.573541 C128.353584,80.2068398 120.73178,93.0222422 120.749973,106.949865 L120.749973,124.2 L117.300108,124.2 C113.489205,124.2 110.400377,127.289232 110.400377,131.100135 L110.400377,131.100135 Z M6.89997305,17.2501348 C6.89997305,11.5341855 11.5340238,6.90013477 17.249973,6.90013477 L169.050108,6.90013477 C174.766461,6.90013477 179.400512,11.5341855 179.400512,17.2501348 L179.400512,27.6001348 L6.89997305,27.6001348 L6.89997305,17.2501348 Z M189.749704,106.949865 L189.749704,124.2 L127.650108,124.2 L127.650108,106.949865 C127.650108,89.8016133 141.551856,75.8998652 158.700108,75.8998652 C175.84836,75.8998652 189.749704,89.8016133 189.749704,106.949865 L189.749704,106.949865 Z M200.099704,124.2 L196.650243,124.2 L196.650243,106.949865 C196.647008,97.29 192.943649,87.9980449 186.299838,80.9851113 L186.299838,17.2501348 C186.288922,7.72773047 178.572108,0.0113203125 169.049704,0 L17.249973,0 C7.72756875,0.0113203125 0.0111585938,7.72773047 -0.00016171875,17.2501348 L-0.00016171875,155.25 C0.0111585938,164.772 7.72756875,172.48841 17.249973,172.500135 L110.400377,172.500135 L110.400377,182.850135 C110.415741,196.18142 121.218957,206.985041 134.549838,207 L182.849973,207 C196.181663,206.984637 206.984879,196.18142 206.999838,182.850135 L206.999838,131.100135 C206.999838,127.289232 203.91101,124.2 200.099704,124.2 L200.099704,124.2 Z" id="Fill-9" fill="#0066CC" mask="url(#mask-2)"></path>
                </g>
                <path d="M157.500008,155.889054 C159.433779,155.889054 161.001147,157.431382 161.001147,159.333359 C161.001147,161.23574 159.433368,162.777665 157.500008,162.777665 C155.566237,162.777665 153.998868,161.235336 153.998868,159.333359 C153.998868,157.431382 155.566647,155.889054 157.500008,155.889054 M153.998868,169.032956 L153.998868,176.555694 C153.998868,178.458075 155.566647,180 157.5,180 C159.433779,180 161.001147,178.458075 161.001147,176.555694 L161.001147,169.032956 C165.820598,167.363076 168.713254,162.516506 167.847509,157.562163 C166.981353,152.607821 162.609956,148.990351 157.5,149.000019 C152.39006,148.990351 148.018252,152.608224 147.152506,157.562163 C146.286761,162.516506 149.179007,167.363076 153.998868,169.032956" id="Fill-12" fill="#0066CC"></path>
                <path d="M58.5830998,69.5 C56.6960772,69.5 55.1665999,71.0294922 55.1665999,72.9165332 L55.1665999,83.1665332 L27.8334001,83.1665332 L27.8334001,55.8330664 L41.4997998,55.8330664 C43.3868224,55.8330664 44.9162996,54.3035742 44.9162996,52.4165332 C44.9162996,50.5294922 43.3868224,49 41.4997998,49 L27.8334001,49 C24.0593549,49 21,52.0593848 21,55.8334668 L21,83.1665332 C21,86.9406152 24.0593549,90 27.8334001,90 L55.1665999,90 C58.9406451,90 62,86.9406152 62,83.1665332 L62,72.9165332 C62,71.0294922 60.469722,69.5 58.5830998,69.5" id="Fill-14" fill="#0066CC"></path>
                <path d="M36.8450108,63.4880698 C35.4918319,62.2089126 33.3404067,62.2271071 32.0102658,63.5292054 C30.6797207,64.8313036 30.6611286,66.9363361 31.9682315,68.2605843 L38.8662915,75.0111648 C39.512972,75.6440193 40.3900324,76 41.3046812,76 L41.4598845,76 C42.4274802,75.9576779 43.3324287,75.5194261 43.9536461,74.7916433 L61.198594,54.5402974 C61.9883526,53.6143521 62.2134782,52.3462698 61.78869,51.2134601 C61.3639017,50.081046 60.3542718,49.2563574 59.139725,49.0498886 C57.9251782,48.8434198 56.6904226,49.2868135 55.9006641,50.2131544 L41.0702595,67.6293119 L36.8450108,63.4880698 Z" id="Fill-16" fill="#0066CC"></path>
                <path d="M58.5830998,127.4996 C56.6960772,127.4996 55.1665999,129.028691 55.1665999,130.915732 L55.1665999,141.166133 L27.8334001,141.166133 L27.8334001,113.832666 L41.4997998,113.832666 C43.3868224,113.832666 44.9162996,112.303174 44.9162996,110.416533 C44.9162996,108.529092 43.3868224,107 41.4997998,107 L27.8334001,107 C24.0593549,107 21,110.058984 21,113.833066 L21,141.166934 C21,144.941016 24.0593549,148 27.8334001,148 L55.1665999,148 C58.9406451,148 62,144.941016 62,141.166934 L62,130.916533 C62,129.029092 60.469722,127.4996 58.5830998,127.4996" id="Fill-18" fill="#0066CC"></path>
                <path d="M36.8450108,122.487887 C35.4918319,121.208711 33.3404067,121.226905 32.0102658,122.529023 C30.6797207,123.83114 30.6611286,125.936203 31.9682315,127.260471 L38.8662915,134.01115 C39.512972,134.644014 40.3900324,135 41.3046812,135 L41.4598845,135 C42.4274802,134.957677 43.3324287,134.519419 43.9536461,133.791626 L61.198594,113.539983 C61.9883526,112.614024 62.2134782,111.345923 61.78869,110.213493 C61.3639017,109.080666 60.3542718,108.256361 59.139725,108.049889 C57.9251782,107.843418 56.6904226,108.286818 55.9006641,109.213172 L41.0702595,126.629585 L36.8450108,122.487887 Z" id="Fill-20" fill="#0066CC"></path>
                <path d="M75.499877,59 L103.500123,59 C105.433197,59 107,57.4332337 107,55.5002051 C107,53.5671764 105.433197,52 103.500123,52 L75.499877,52 C73.566803,52 72,53.5667663 72,55.4997949 C72,57.4328236 73.5672132,59 75.499877,59" id="Fill-22" fill="#0066CC"></path>
                <path d="M124,72.5 C124,70.5668581 122.448125,69 120.533469,69 L75.4665313,69 C73.551875,69 72,70.5668581 72,72.5 C72,74.4331419 73.551875,76 75.4665313,76 L120.533062,76 C122.448125,76 124,74.4331419 124,72.5" id="Fill-24" fill="#0066CC"></path>
                <path d="M103.500123,110 L75.499877,110 C73.566803,110 72,111.56695 72,113.499795 C72,115.43264 73.566803,117 75.499877,117 L103.500123,117 C105.433197,117 107,115.43305 107,113.499795 C107,111.56654 105.433197,110 103.500123,110" id="Fill-26" fill="#0066CC"></path>
                <path d="M99.5556453,128 L75.4443547,128 C73.5419472,128 72,129.56654 72,131.499795 C72,133.43305 73.5419472,135 75.4443547,135 L99.5556453,135 C101.458053,135 103,133.43305 103,131.499795 C103,129.56654 101.458053,128 99.5556453,128" id="Fill-28" fill="#0066CC"></path>
            </g>
        </g>
    </g>
</svg>