<svg id="Livello_2" data-name="Livello 2" xmlns="http://www.w3.org/2000/svg" viewBox="0 0 1768.15 705.37"><defs><style>.cls-1,.cls-2{fill:none;stroke:#3bbad2;stroke-miterlimit:10;stroke-width:1.8px;}.cls-2{stroke-dasharray:7.18 7.18;opacity:0.5;}.cls-11,.cls-3,.cls-5{fill:#fff;}.cls-4{fill:#3bbad2;}.cls-5{font-size:21.54px;}.cls-11,.cls-5{font-family:TitilliumWeb-SemiBold, Titillium Web;font-weight:600;}.cls-6{letter-spacing:0em;}.cls-7{letter-spacing:-0.01em;}.cls-8{letter-spacing:-0.01em;}.cls-9{letter-spacing:-0.01em;}.cls-10{letter-spacing:0em;}.cls-11{font-size:35.9px;}.cls-12{letter-spacing:-0.08em;}.cls-13{letter-spacing:-0.01em;}.cls-14{letter-spacing:0em;}.cls-15{letter-spacing:-0.01em;}.cls-16{letter-spacing:-0.02em;}.cls-17{letter-spacing:0em;}</style></defs><title>Roadmap</title><line class="cls-1" x1="37.67" y1="31.18" x2="37.67" y2="666.06"/><line class="cls-2" x1="245.43" y1="31.18" x2="245.43" y2="666.06"/><line class="cls-2" x1="453.19" y1="31.18" x2="453.19" y2="666.06"/><line class="cls-2" x1="660.95" y1="31.18" x2="660.95" y2="666.06"/><line class="cls-1" x1="868.7" y1="31.18" x2="868.7" y2="666.06"/><line class="cls-2" x1="1076.46" y1="31.18" x2="1076.46" y2="666.06"/><line class="cls-2" x1="1284.22" y1="31.18" x2="1284.22" y2="666.06"/><line class="cls-2" x1="1491.98" y1="31.18" x2="1491.98" y2="666.06"/><line class="cls-1" x1="1699.74" y1="31.18" x2="1699.74" y2="666.06"/><path class="cls-3" d="M743.09,580.28l-11.15-3.38-1.21-2.43a1.71,1.71,0,0,0-2-.86v-.42a19.87,19.87,0,0,0,8.19-14.61,5.66,5.66,0,0,0,3.48-8.43,6.72,6.72,0,0,0,.44-11.67,5.54,5.54,0,0,0,.16-1.35,5.74,5.74,0,0,0-5.73-5.73,5.63,5.63,0,0,0-2.14.42,17.66,17.66,0,0,0-12-4.62h-8.06a17.69,17.69,0,0,0-12,4.62,5.73,5.73,0,0,0-7.88,5.31,6.08,6.08,0,0,0,.16,1.35,6.72,6.72,0,0,0,.44,11.67,5.66,5.66,0,0,0,3.49,8.43,19.78,19.78,0,0,0,8.17,14.59v.43a1.71,1.71,0,0,0-2,.87l-1.21,2.42-11.57,3.48a7.69,7.69,0,0,0-5.52,7.42v41.83a1.7,1.7,0,0,0,3.4,0V587.79c0-.13,0-.25,0-.37l6.8,6.8a6.32,6.32,0,0,1,1.86,4.49v30.91a1.71,1.71,0,0,0,3.41,0V598.71a9.73,9.73,0,0,0-2.86-6.9l-7.5-7.49a4.36,4.36,0,0,1,1.36-.69l7.67-2.3a45.41,45.41,0,0,0,16.81,21.11,1.67,1.67,0,0,0,.94.28,1.73,1.73,0,0,0,1-.28,45.24,45.24,0,0,0,16.82-21.09l7.21,2.18a1.67,1.67,0,0,0,.49.08,1.7,1.7,0,0,0,.5-3.33Zm-13.88-1.23-5.75,7.19a.3.3,0,0,1-.25.12.29.29,0,0,1-.24-.13l-3.26-4.34,8.74-4.37Zm-12.09.32-8.2-4.1v-.11a19.78,19.78,0,0,0,16.38,0v.11Zm18.13-44.57a2.32,2.32,0,0,1,1.94,3.61,1.7,1.7,0,0,0-.18,1.53,1.73,1.73,0,0,0,1.14,1,3.33,3.33,0,1,1-3.33.94,1.7,1.7,0,0,0-.54-2.7,2.32,2.32,0,0,1,1-4.43Zm-41.6,9.38a3.32,3.32,0,0,1,2.44-3.19,1.7,1.7,0,0,0,1-2.58,2.33,2.33,0,1,1,4.27-1.28,2.31,2.31,0,0,1-1.36,2.1,1.73,1.73,0,0,0-1,1.22,1.71,1.71,0,0,0,.42,1.48,3.33,3.33,0,1,1-5.77,2.25Zm7.05,12.93A1.72,1.72,0,0,0,699,555.4a2.47,2.47,0,0,1-2.51-1.92,2.32,2.32,0,0,1,1.78-2.67l.19-.06a6.74,6.74,0,0,0,5.27-6.57,6.67,6.67,0,0,0-.71-3,5.72,5.72,0,0,0,.79-7.19,14.31,14.31,0,0,1,9.29-3.4h8.06a14.3,14.3,0,0,1,9.3,3.4,5.67,5.67,0,0,0-.93,3.12,5.74,5.74,0,0,0,1.71,4.07,6.66,6.66,0,0,0-.7,3,6.74,6.74,0,0,0,5.44,6.61l.16.06a2.32,2.32,0,0,1,1.63,2.63,2.47,2.47,0,0,1-2.51,1.92,1.71,1.71,0,0,0-1.7,1.71,16.43,16.43,0,0,1-32.85,0Zm4.56,21.49.54-1.08,8.74,4.37-3.26,4.34a.32.32,0,0,1-.25.13.31.31,0,0,1-.25-.12l-5.7-7.13A2.21,2.21,0,0,0,705.26,578.6ZM717.12,599a42.57,42.57,0,0,1-13.46-16.17l4.47,5.59a3.7,3.7,0,0,0,2.9,1.39h.06a3.69,3.69,0,0,0,2.91-1.49l1.42-1.89v7a1.7,1.7,0,1,0,3.4,0v-7l1.42,1.89a3.7,3.7,0,0,0,2.92,1.49h.06a3.72,3.72,0,0,0,2.9-1.39l4.48-5.61A42.5,42.5,0,0,1,717.12,599Z"/><path class="cls-3" d="M722.22,561.83a1.69,1.69,0,0,0-2.39.25,3.34,3.34,0,0,1-5.41,0,1.7,1.7,0,0,0-2.65,2.14,6.74,6.74,0,0,0,10.7,0A1.7,1.7,0,0,0,722.22,561.83Z"/><path class="cls-3" d="M709.06,551.37a1.71,1.71,0,0,0-1.7,1.71v2a1.71,1.71,0,0,0,3.41,0v-2A1.72,1.72,0,0,0,709.06,551.37Z"/><path class="cls-3" d="M725.18,551.37a1.71,1.71,0,0,0-1.7,1.71v2a1.7,1.7,0,0,0,3.4,0v-2A1.71,1.71,0,0,0,725.18,551.37Z"/><path class="cls-3" d="M742.5,588.13a1.7,1.7,0,0,0-2.41,0l-3.68,3.68a9.69,9.69,0,0,0-2.86,6.9v30.91a1.7,1.7,0,0,0,3.4,0V598.71a6.32,6.32,0,0,1,1.86-4.49l3.69-3.68A1.71,1.71,0,0,0,742.5,588.13Z"/><path class="cls-3" d="M776.61,575.93a1.7,1.7,0,0,0-2.4.25,3.34,3.34,0,0,1-5.41,0,1.7,1.7,0,1,0-2.64,2.14,6.74,6.74,0,0,0,10.7,0A1.7,1.7,0,0,0,776.61,575.93Z"/><path class="cls-3" d="M753.38,605.76a1.7,1.7,0,0,0-1.7,1.7v22.16a1.7,1.7,0,0,0,3.4,0V607.46A1.7,1.7,0,0,0,753.38,605.76Z"/><path class="cls-3" d="M789.63,605.76a1.7,1.7,0,0,0-1.7,1.7v22.16a1.71,1.71,0,0,0,3.41,0V607.46A1.71,1.71,0,0,0,789.63,605.76Z"/><path class="cls-3" d="M795.72,594.13a7.72,7.72,0,0,0-2.38-11.57,2.53,2.53,0,0,0,0-.28,6.72,6.72,0,0,0-2.82-5.48c.12-.39.22-.79.31-1.19a18.49,18.49,0,0,0,.43-3.12,23.86,23.86,0,1,0-39.53,0,19.57,19.57,0,0,0,.43,3.12c.09.4.2.8.31,1.19a6.72,6.72,0,0,0-2.82,5.48,2.53,2.53,0,0,0,0,.28,7.72,7.72,0,0,0-2.38,11.57,11.71,11.71,0,0,0-5.69,10.08v25.41a1.71,1.71,0,0,0,3.41,0V604.21a8.33,8.33,0,0,1,5.26-7.77l.32-.13a26.22,26.22,0,0,0,20.92,10.84,25.85,25.85,0,0,0,20.9-10.84l.33.13a8.33,8.33,0,0,1,5.26,7.77v25.41a1.71,1.71,0,0,0,3.41,0V604.21A11.71,11.71,0,0,0,795.72,594.13Zm-44.67-35a20.46,20.46,0,1,1,39.19,8.23c-2.46-5.28-7.91-6.75-13.21-8.19-4.29-1.16-8.72-2.36-12.52-5.4a1.71,1.71,0,0,0-1.43-.33,1.69,1.69,0,0,0-1.15.9,13.29,13.29,0,0,1-5.29,5.28,1.71,1.71,0,0,0,1.53,3,16.1,16.1,0,0,0,5.75-5.11c4,2.66,8.32,3.84,12.22,4.9,1.28.34,2.46.67,3.53,1h-.11a5.75,5.75,0,0,0-4.9,2.76,7,7,0,0,0-6.31,0,5.73,5.73,0,1,0,.79,3.61,3.42,3.42,0,0,1,4.73,0,5.73,5.73,0,1,0,9.59-4.83,8.24,8.24,0,0,1,4.49,6.45,1.34,1.34,0,0,0-.05.35,17.16,17.16,0,0,1-.38,3.06,16.48,16.48,0,0,1-5.7,9.13,16.44,16.44,0,0,1-20.63,0,16.48,16.48,0,0,1-5.7-9.13,16.22,16.22,0,0,1-.37-3.06,1.72,1.72,0,0,0-.51-1.15A20.29,20.29,0,0,1,751.05,559.12Zm30.84,10.07a2.33,2.33,0,1,1-2.33-2.33A2.34,2.34,0,0,1,781.89,569.19Zm-16.12,0a2.33,2.33,0,1,1-2.32-2.33A2.33,2.33,0,0,1,765.77,569.19Zm15.52,22.66a14.39,14.39,0,0,1-19.57,0,5.73,5.73,0,0,0,2.55-2.19,19.66,19.66,0,0,0,14.47,0A5.73,5.73,0,0,0,781.29,591.85Zm-30.71.8a4.32,4.32,0,0,1,1.49-7.43,1.7,1.7,0,0,0,1.13-2.07,3.4,3.4,0,0,1-.13-.87,3.3,3.3,0,0,1,.75-2.11,19.8,19.8,0,0,0,5.23,6.46,19.35,19.35,0,0,0,2.12,1.5,2.21,2.21,0,0,1-.89.64Zm20.93,11.09A22.32,22.32,0,0,1,753.88,595l4.41-1.76a17.83,17.83,0,0,0,26.43,0l4.41,1.77A22.38,22.38,0,0,1,771.51,603.74Zm20.92-11.09-9.7-3.88a2.29,2.29,0,0,1-.89-.64,19.35,19.35,0,0,0,2.12-1.5,19.8,19.8,0,0,0,5.23-6.46,3.3,3.3,0,0,1,.76,2.11,3.46,3.46,0,0,1-.14.87,1.7,1.7,0,0,0,1.13,2.07,4.32,4.32,0,0,1,1.49,7.43Z"/><path class="cls-3" d="M415.26,582.48,403.71,579v-4.68a18.73,18.73,0,0,0,7.57-13.69,5.4,5.4,0,0,0,2-9.29V540.24a9.22,9.22,0,0,0-4.08-7.62,7.27,7.27,0,0,0-7-5.42H386.87a15,15,0,0,0-14.93,14.94v9.22a5.39,5.39,0,0,0,1.95,9.29,18.73,18.73,0,0,0,7.57,13.69V579l-13.83,4.14a7.28,7.28,0,0,0-5.21,7v18.6a1.61,1.61,0,0,0,1.61,1.61h.29v19.33a1.61,1.61,0,0,0,3.22,0V610.38h6.3v19.33a1.61,1.61,0,0,0,3.22,0V599.25a1.65,1.65,0,0,0-.17-.72l-3.81-7.61a1.61,1.61,0,0,0-2.88,1.44l3.64,7.27v7.53h-8.2v-17a4.08,4.08,0,0,1,2.92-3.93l5.78-1.73a18.75,18.75,0,0,0,36.49,0l3.5,1a1.53,1.53,0,0,0,.47.07,1.61,1.61,0,0,0,.46-3.15Zm-38.2-23.21a1.61,1.61,0,0,0-1.61-1.61,2.2,2.2,0,0,1-2.2-2.19,2.16,2.16,0,0,1,1.1-1.89l.11-.07a2.1,2.1,0,0,1,1-.24h2.43a3.52,3.52,0,0,0,3.34-2.41l1.11-3.32c3.78-.08,15.7-.61,22.39-4a1.61,1.61,0,0,0-1.43-2.88c-7.19,3.59-22,3.64-22.13,3.64a1.61,1.61,0,0,0-1.53,1.1l-1.47,4.41a.29.29,0,0,1-.28.2h-2.73v-7.92a11.74,11.74,0,0,1,11.72-11.72H402.1a4.07,4.07,0,0,1,4,3.46,1.62,1.62,0,0,0,.8,1.15,6,6,0,0,1,3.08,5.21v12a1.63,1.63,0,0,0,.8,1.39,2.16,2.16,0,0,1,1.1,1.89,2.19,2.19,0,0,1-2.19,2.19,1.61,1.61,0,0,0-1.61,1.61,15.53,15.53,0,1,1-31.05,0Zm23.43,17v4a7.91,7.91,0,0,1-15.82,0v-4a18.66,18.66,0,0,0,15.82,0ZM402.7,592a15.52,15.52,0,0,1-25.27-8.41l4.23-1.26a11.13,11.13,0,0,0,21.85,0l4.23,1.26A15.59,15.59,0,0,1,402.7,592Z"/><path class="cls-3" d="M397.4,563.73a1.61,1.61,0,0,0-2.26.24,3.16,3.16,0,0,1-5.12,0,1.61,1.61,0,1,0-2.49,2,6.36,6.36,0,0,0,10.11,0A1.62,1.62,0,0,0,397.4,563.73Z"/><path class="cls-3" d="M385,553.86a1.61,1.61,0,0,0-1.61,1.61v1.9a1.61,1.61,0,1,0,3.22,0v-1.9A1.61,1.61,0,0,0,385,553.86Z"/><path class="cls-3" d="M400.2,553.86a1.61,1.61,0,0,0-1.61,1.61v1.9a1.61,1.61,0,0,0,3.22,0v-1.9A1.61,1.61,0,0,0,400.2,553.86Z"/><path class="cls-3" d="M448.8,573.25a1.61,1.61,0,0,0-2.26.24,3.15,3.15,0,0,1-5.11,0,1.61,1.61,0,1,0-2.5,2,6.36,6.36,0,0,0,10.11,0A1.62,1.62,0,0,0,448.8,573.25Z"/><path class="cls-3" d="M436.37,563.38a1.61,1.61,0,0,0-1.61,1.6v1.91a1.61,1.61,0,0,0,3.22,0V565A1.61,1.61,0,0,0,436.37,563.38Z"/><path class="cls-3" d="M451.6,563.38A1.61,1.61,0,0,0,450,565v1.91a1.61,1.61,0,1,0,3.22,0V565A1.61,1.61,0,0,0,451.6,563.38Z"/><path class="cls-3" d="M467.64,596.32l-13.05-5.22a1.91,1.91,0,0,1-.32-.16,79.24,79.24,0,0,0,13.17-3.53,1.6,1.6,0,0,0,1-1.68,270,270,0,0,1-1.9-28.36,22.55,22.55,0,1,0-45.1,0,271.36,271.36,0,0,1-1.89,28.36,1.6,1.6,0,0,0,1,1.68,78.87,78.87,0,0,0,13.16,3.53,1.82,1.82,0,0,1-.31.16l-13.06,5.22a7.3,7.3,0,0,0-4.6,6.8v4h-4.39v-7.53l3.63-7.27a1.61,1.61,0,1,0-2.87-1.44l-3.81,7.61a1.65,1.65,0,0,0-.17.72v30.46a1.61,1.61,0,1,0,3.22,0V610.38h4.39v2.2a1.6,1.6,0,0,0,1.61,1.61h.3v15.52a1.61,1.61,0,1,0,3.21,0V614.19h4.4v15.52a1.61,1.61,0,1,0,3.22,0V608.77a1.61,1.61,0,1,0-3.22,0V611h-6.3v-7.85a4.08,4.08,0,0,1,2.58-3.81l6.42-2.57a16.83,16.83,0,0,0,32.09,0l6.42,2.57a4.08,4.08,0,0,1,2.58,3.81V611h-6.3v-2.2a1.61,1.61,0,1,0-3.22,0v20.94a1.61,1.61,0,1,0,3.22,0V614.19h4.39v15.52a1.61,1.61,0,1,0,3.22,0V614.19h.3a1.62,1.62,0,0,0,1.61-1.61v-9.46A7.29,7.29,0,0,0,467.64,596.32Zm-43-39a19.34,19.34,0,0,1,38.67,0,270.44,270.44,0,0,0,1.76,27.48,95.34,95.34,0,0,1-11.87,3V585.1a18.15,18.15,0,0,0,2.55-1.73,18.73,18.73,0,0,0,7-14.58c0-9.37-6.79-10.72-13.36-12-4.19-.83-8.53-1.7-12-4.46A1.58,1.58,0,0,0,436,552a1.61,1.61,0,0,0-1.1.85,19,19,0,0,1-2.43,3.52c-1.3,1.46-3.32,3.21-5.65,3.21a5.33,5.33,0,0,0-2.22.48C424.64,559.15,424.65,558.25,424.65,557.37Zm19.33,27a15.32,15.32,0,0,1-9.75-3.45,15.59,15.59,0,0,1-5.39-8.63,15.86,15.86,0,0,1-.38-3.45,1.61,1.61,0,0,0-1.61-1.61,2.2,2.2,0,1,1,0-4.39c4.88,0,8.42-4.42,10-6.89,3.75,2.41,8,3.26,11.88,4,7.07,1.4,10.76,2.43,10.76,8.86a15.27,15.27,0,0,1-.39,3.45,15.57,15.57,0,0,1-5.38,8.63A15.33,15.33,0,0,1,444,584.32Zm-21.09.53c.28-2.5.91-8.37,1.33-15.14a5.31,5.31,0,0,0,1.07.46,18.75,18.75,0,0,0,6.92,13.2,18.15,18.15,0,0,0,2.55,1.73v2.77A95.34,95.34,0,0,1,422.89,584.85ZM444,605.26a13.62,13.62,0,0,1-13.05-9.72l3.64-1.45a5.39,5.39,0,0,0,3.41-5v-2.52a18.71,18.71,0,0,0,12,0v2.52a5.4,5.4,0,0,0,3.4,5l3.65,1.45A13.62,13.62,0,0,1,444,605.26Z"/><path class="cls-3" d="M1078.1,464.6a1.61,1.61,0,0,0-2.26.24,3.16,3.16,0,0,1-5.12,0,1.61,1.61,0,0,0-2.5,2,6.37,6.37,0,0,0,10.12,0A1.61,1.61,0,0,0,1078.1,464.6Z"/><path class="cls-3" d="M1065.66,454.72a1.61,1.61,0,0,0-1.6,1.61v1.91a1.61,1.61,0,0,0,3.21,0v-1.91A1.61,1.61,0,0,0,1065.66,454.72Z"/><path class="cls-3" d="M1080.89,454.72a1.61,1.61,0,0,0-1.6,1.61v1.91a1.61,1.61,0,0,0,3.21,0v-1.91A1.61,1.61,0,0,0,1080.89,454.72Z"/><path class="cls-3" d="M1057.58,499.4l-3.8-7.62a1.62,1.62,0,0,0-2.16-.72,1.61,1.61,0,0,0-.72,2.16l3.64,7.28v30.08a1.61,1.61,0,1,0,3.21,0V500.12A1.5,1.5,0,0,0,1057.58,499.4Z"/><path class="cls-3" d="M1094.94,491.06a1.62,1.62,0,0,0-2.16.72L1089,499.4a1.62,1.62,0,0,0-.17.72v30.46a1.61,1.61,0,1,0,3.22,0V500.5l3.64-7.28A1.61,1.61,0,0,0,1094.94,491.06Z"/><path class="cls-3" d="M1129.5,474.12a1.61,1.61,0,0,0-2.26.24,3.17,3.17,0,0,1-5.12,0,1.61,1.61,0,0,0-2.5,2,6.37,6.37,0,0,0,10.12,0A1.61,1.61,0,0,0,1129.5,474.12Z"/><path class="cls-3" d="M1117.07,464.24a1.61,1.61,0,0,0-1.61,1.61v1.9a1.61,1.61,0,1,0,3.21,0v-1.9A1.61,1.61,0,0,0,1117.07,464.24Z"/><path class="cls-3" d="M1132.3,464.24a1.61,1.61,0,0,0-1.61,1.61v1.9a1.61,1.61,0,1,0,3.21,0v-1.9A1.61,1.61,0,0,0,1132.3,464.24Z"/><path class="cls-3" d="M1148.34,497.19l-13-5.22a2.2,2.2,0,0,1-1.39-2v-4a17.59,17.59,0,0,0,2.55-1.73,18.64,18.64,0,0,0,7-14.58c0-9.37-6.78-10.72-13.35-12-4.2-.84-8.54-1.7-12-4.47a1.61,1.61,0,0,0-2.44.54,19.15,19.15,0,0,1-2.44,3.52c-1.29,1.46-3.32,3.2-5.64,3.2a5.36,5.36,0,0,0-2.2.47v-2.66a19.33,19.33,0,1,1,38.66,0V462a1.61,1.61,0,0,0,3.22,0v-3.8a22.55,22.55,0,0,0-11.53-19.67,7.81,7.81,0,0,0,.11-1.28c0-5.08-5-9.22-11.13-9.22s-11.13,4.14-11.13,9.22a7.81,7.81,0,0,0,.11,1.28,22.58,22.58,0,0,0-11.53,19.67v7.61A5.42,5.42,0,0,0,1106,471a19.82,19.82,0,0,0,.41,2.78,18.83,18.83,0,0,0,6.51,10.42,17.59,17.59,0,0,0,2.55,1.73v4a2.2,2.2,0,0,1-1.39,2l-13,5.22a7.29,7.29,0,0,0-4.6,6.79v9.47a1.6,1.6,0,0,0,1.61,1.6h.29v15.53a1.61,1.61,0,1,0,3.22,0V515.05h4.4v15.53a1.61,1.61,0,0,0,3.22,0V509.64a1.61,1.61,0,0,0-3.22,0v2.2h-6.3V504a4.07,4.07,0,0,1,2.58-3.8l10.15-4.07A29.53,29.53,0,0,0,1124,507.27a1.61,1.61,0,0,0,1.44,0A29.53,29.53,0,0,0,1137,496.11l10.16,4.07a4.07,4.07,0,0,1,2.57,3.8v7.86h-6.3v-2.2a1.61,1.61,0,1,0-3.21,0v20.94a1.61,1.61,0,1,0,3.21,0V515.05h4.4v15.53a1.61,1.61,0,1,0,3.22,0V515.05h.29a1.61,1.61,0,0,0,1.61-1.61V504A7.27,7.27,0,0,0,1148.34,497.19Zm-23.66-65.9c4.28,0,7.78,2.6,7.9,5.83a22.54,22.54,0,0,0-15.8,0C1116.9,433.89,1120.4,431.29,1124.68,431.29Zm-9.75,50.45a15.62,15.62,0,0,1-5.39-8.63,15.33,15.33,0,0,1-.38-3.45,1.61,1.61,0,0,0-1.61-1.61,2.2,2.2,0,0,1,0-4.4c4.88,0,8.41-4.42,10-6.89,3.75,2.42,8,3.27,11.88,4,7.08,1.41,10.77,2.44,10.77,8.87a15.34,15.34,0,0,1-.39,3.45,15.54,15.54,0,0,1-5.39,8.63,15.54,15.54,0,0,1-19.5,0Zm9.75,22.27a26.91,26.91,0,0,1-9.28-9.11,5.39,5.39,0,0,0,3.27-5v-2.52a18.74,18.74,0,0,0,12,0v2.52a5.39,5.39,0,0,0,3.27,5A26.91,26.91,0,0,1,1124.68,504Z"/><path class="cls-3" d="M1098.23,484l-10.45-3.13-1.74-2.62a1.63,1.63,0,0,0-1.11-.7,1.52,1.52,0,0,0-.52,0v-2.39a18.77,18.77,0,0,0,7.56-13.69,5.4,5.4,0,0,0,2-9.29V441.1a9.22,9.22,0,0,0-4.08-7.61,7.28,7.28,0,0,0-7-5.42h-15.23A15,15,0,0,0,1052.63,443v9.22a5.4,5.4,0,0,0,2,9.29,18.74,18.74,0,0,0,7.56,13.69v2.39a1.52,1.52,0,0,0-.52,0,1.6,1.6,0,0,0-1.11.7l-1.74,2.62L1048.33,484a7.28,7.28,0,0,0-5.22,7v39.54a1.61,1.61,0,1,0,3.22,0V491a4.09,4.09,0,0,1,2.93-3.93l7.18-2.15a1.62,1.62,0,0,0,.35.93l6.47,8.08a3.49,3.49,0,0,0,2.73,1.33,3.58,3.58,0,0,0,2.12-.71l3.56-2.68v38.67a1.61,1.61,0,0,0,3.22,0V491.91l3.56,2.68a3.57,3.57,0,0,0,2.11.71,3.49,3.49,0,0,0,2.74-1.33l6.47-8.08a1.62,1.62,0,0,0,.35-.93l7.18,2.15a4.09,4.09,0,0,1,2.93,3.93,1.61,1.61,0,1,0,3.21,0A7.27,7.27,0,0,0,1098.23,484Zm-40.48-23.89a1.61,1.61,0,0,0-1.6-1.61,2.19,2.19,0,0,1-1.1-4.09l.1-.07a2.3,2.3,0,0,1,1-.24h2.24a3.52,3.52,0,0,0,3.45-2.82l1.17-5.85a.28.28,0,0,1,.12-.19.36.36,0,0,1,.26,0,35.76,35.76,0,0,0,9.89,1.28,32.34,32.34,0,0,0,12-2,1.61,1.61,0,1,0-1.24-3,29.61,29.61,0,0,1-10.8,1.78,33.66,33.66,0,0,1-9-1.14,3.5,3.5,0,0,0-4.44,2.67l-1.17,5.85a.3.3,0,0,1-.29.24h-2.54V443a11.74,11.74,0,0,1,11.72-11.72h15.23a4.07,4.07,0,0,1,4,3.46,1.64,1.64,0,0,0,.8,1.15,6,6,0,0,1,3.08,5.2v11.95a1.58,1.58,0,0,0,.8,1.39,2.19,2.19,0,0,1-1.1,4.09,1.61,1.61,0,0,0-1.61,1.61,15.53,15.53,0,0,1-31,0Zm8.43,31.87a.29.29,0,0,1-.41-.05L1060,484.8l2.16-3.24,8.49,7.07Zm7.1-5.41-7.91-6.59v-2.88a18.75,18.75,0,0,0,15.82,0V480Zm7.51,5.36a.29.29,0,0,1-.41.05l-4.51-3.38,8.49-7.07,2.16,3.24Z"/><path class="cls-3" d="M1067.59,504.22h0a1.6,1.6,0,0,0-1.6,1.61,1.62,1.62,0,1,0,1.62-1.61Z"/><path class="cls-3" d="M1067.59,519.45h0a1.6,1.6,0,0,0-1.6,1.61,1.62,1.62,0,1,0,1.62-1.61Z"/><path class="cls-3" d="M1067.59,511.84h0a1.6,1.6,0,0,0-1.6,1.6,1.62,1.62,0,1,0,1.62-1.6Z"/><path class="cls-4" d="M1328.76,410a3,3,0,0,0-4.23,0,3,3,0,0,0,0,4.23,3,3,0,1,0,4.23-4.23Z"/><path class="cls-4" d="M1326.65,421.66a3,3,0,0,0-3,3v21.71a3,3,0,1,0,6,0V424.65A3,3,0,0,0,1326.65,421.66Z"/><path class="cls-4" d="M1375.36,516.74l-34.66-60V401.56a10.16,10.16,0,0,0-3-19.88h-37.08a10.17,10.17,0,0,0-3,19.88V456.7l-12.16,21.06a3,3,0,0,0,1.1,4.08,2.89,2.89,0,0,0,1.49.41,3,3,0,0,0,2.59-1.5l11.28-19.54a2.91,2.91,0,0,0,.66-.33c.36-.24,8.87-5.88,14.39-.36a12.41,12.41,0,0,0,9.06,3.77,20.9,20.9,0,0,0,10.31-3.16l33.83,58.6a6,6,0,0,1-5.23,9.06h-91.57a6,6,0,0,1-5.23-9.06l10.13-17.55a3,3,0,0,0-5.18-3L1263,516.74a12,12,0,0,0,10.41,18H1365a12,12,0,0,0,10.4-18Zm-40.64-61.69a21.34,21.34,0,0,1-4.84,2.55c-5.42,1.93-7.86-.5-8.66-1.3-5.39-5.39-12.49-4.64-17.6-2.64V402h31.1Zm3-59h-37.08a4.19,4.19,0,0,1,0-8.37h37.08a4.19,4.19,0,1,1,0,8.37Z"/><path class="cls-4" d="M1284.15,487.59a3,3,0,0,0-5.1,2.11,3,3,0,1,0,5.1-2.11Z"/><path class="cls-4" d="M1383.76,397.82h-4.19v-4.18a3,3,0,1,0-6,0v4.18h-4.19a3,3,0,0,0,0,6h4.19V408a3,3,0,1,0,6,0V403.8h4.19a3,3,0,1,0,0-6Z"/><path class="cls-4" d="M1285.38,448.06h-4.18v-4.19a3,3,0,1,0-6,0v4.19H1271a3,3,0,1,0,0,6h4.19v4.18a3,3,0,1,0,6,0V454h4.18a3,3,0,0,0,0-6Z"/><path class="cls-4" d="M1252.79,390.65A10.17,10.17,0,1,0,1263,400.81,10.17,10.17,0,0,0,1252.79,390.65Zm0,14.35a4.19,4.19,0,1,1,4.19-4.19A4.19,4.19,0,0,1,1252.79,405Z"/><path class="cls-4" d="M1385.55,469.13a10.17,10.17,0,1,0,10.17,10.17A10.18,10.18,0,0,0,1385.55,469.13Zm0,14.35a4.19,4.19,0,1,1,4.19-4.18A4.19,4.19,0,0,1,1385.55,483.48Z"/><path class="cls-4" d="M1335.68,498.91a10.17,10.17,0,1,0,10.17,10.16A10.17,10.17,0,0,0,1335.68,498.91Zm0,14.35a4.19,4.19,0,1,1,4.19-4.19A4.19,4.19,0,0,1,1335.68,513.26Z"/><path class="cls-4" d="M1306.31,483.48a9,9,0,1,0,9,9A9,9,0,0,0,1306.31,483.48Zm0,12a3,3,0,1,1,3-3A3,3,0,0,1,1306.31,495.44Z"/><path class="cls-4" d="M1292.87,510.72a3,3,0,1,0-2.12,5.1,3,3,0,0,0,2.12-5.1Z"/><path class="cls-4" d="M1330.62,470a3,3,0,0,0-4.23,0,3,3,0,0,0,0,4.22,3,3,0,0,0,4.23,0,3,3,0,0,0,0-4.22Z"/><path class="cls-4" d="M1316.5,439.66a3,3,0,1,0-2.11,5.11,3,3,0,0,0,2.11-5.11Z"/><path class="cls-4" d="M1312.41,416.94a3,3,0,0,0-4.22,0,3,3,0,1,0,4.22,0Z"/><path class="cls-4" d="M1365.84,434.88a3,3,0,1,0-2.12,5.1,3,3,0,0,0,2.12-5.1Z"/><path class="cls-4" d="M1280.32,419.93a3,3,0,0,0-2.11-.88,3,3,0,0,0-3,3,3,3,0,0,0,3,3,3,3,0,0,0,2.11-5.1Z"/><path class="cls-3" d="M191.76,433.09l-8.93-12.41a1.84,1.84,0,0,0-3,0l-8.93,12.41a1.78,1.78,0,0,0-.35,1.07V493.9a6.87,6.87,0,0,0,6.86,6.86h7.82a6.87,6.87,0,0,0,6.86-6.86V434.16A1.85,1.85,0,0,0,191.76,433.09Zm-10.42-8.21,5.57,7.74H175.77Zm-7.1,11.4h8.7v47.45h-3.2v-35a1.83,1.83,0,0,0-3.66,0v35h-1.84V436.28Zm14.2,57.62a3.19,3.19,0,0,1-3.19,3.19h-7.82a3.19,3.19,0,0,1-3.19-3.19v-6.5h14.2Zm0-10.17H186.6V436.28h1.84Z"/><path class="cls-3" d="M179.71,441a2.24,2.24,0,0,0-.11-.34,1.34,1.34,0,0,0-.17-.31,1.51,1.51,0,0,0-.22-.28,2,2,0,0,0-.28-.23,2,2,0,0,0-.32-.17,2.19,2.19,0,0,0-.34-.1,1.75,1.75,0,0,0-.72,0,2.19,2.19,0,0,0-.34.1,2,2,0,0,0-.32.17,2,2,0,0,0-.28.23,1.51,1.51,0,0,0-.22.28,1.34,1.34,0,0,0-.17.31,2.24,2.24,0,0,0-.11.34,2.19,2.19,0,0,0,0,.36,1.81,1.81,0,0,0,.54,1.3,1.84,1.84,0,0,0,1.29.54,2.2,2.2,0,0,0,.36,0,1.5,1.5,0,0,0,.34-.11,1.91,1.91,0,0,0,.32-.16,3.11,3.11,0,0,0,.28-.23,1.93,1.93,0,0,0,.22-.28,1.23,1.23,0,0,0,.17-.32,1.93,1.93,0,0,0,.11-.34,2.17,2.17,0,0,0,0-.72Z"/><path class="cls-3" d="M146.3,454.23V454a2.62,2.62,0,0,1,2.62-2.62H149l5.58-.24a5.95,5.95,0,0,0,0-11.89H142.06a2.28,2.28,0,0,1-2.28-2.28,2.23,2.23,0,0,1,.68-1.61,2.16,2.16,0,0,1,1.54-.63h11a7.38,7.38,0,0,0,0-14.76H140.56a1.83,1.83,0,0,0,0,3.66H153a3.72,3.72,0,1,1,0,7.43H142.08a5.91,5.91,0,0,0-6,5.91,6,6,0,0,0,5.94,5.95h12.47a2.28,2.28,0,0,1,0,4.56h-.08l-5.58.24a6.29,6.29,0,0,0-6.24,6.28v.28a16,16,0,0,0-14.15,15.88V484.8a16,16,0,0,0,32,0V470.11A16,16,0,0,0,146.3,454.23Zm-14.16,15.88a12.35,12.35,0,0,1,10.5-12.19v14.95h-10.5ZM156.8,484.8a12.33,12.33,0,0,1-24.66,0v-8.27H156.8Zm0-11.93H146.3V457.92a12.36,12.36,0,0,1,10.5,12.19Z"/><path class="cls-3" d="M135.3,421.39a1.46,1.46,0,0,0-.1-.34,2,2,0,0,0-.17-.32,2,2,0,0,0-.23-.28,1.83,1.83,0,0,0-1.29-.53,1.86,1.86,0,0,0-1.3.53,1.93,1.93,0,0,0-.22.28,1.41,1.41,0,0,0-.17.32,2.24,2.24,0,0,0-.11.34,2.18,2.18,0,0,0,0,.72,1.5,1.5,0,0,0,.11.34,1.41,1.41,0,0,0,.17.32,1.44,1.44,0,0,0,.22.27,1.49,1.49,0,0,0,.28.23,2,2,0,0,0,.32.17,1.93,1.93,0,0,0,.34.11l.36,0a1.8,1.8,0,0,0,1.29-.54,1.49,1.49,0,0,0,.23-.27,2,2,0,0,0,.17-.32,1.76,1.76,0,0,0,.1-1.06Z"/><path class="cls-3" d="M222.27,438.2c-.21-4.33-2.38-6.47-4.13-8.18s-3-3-2-6.67a2.57,2.57,0,0,0-.63-2.91c-.55-.47-1.54-.86-3.11-.08-2,1-5.1,3.95-7.48,7.17-2.18,3-4.74,7.39-4.54,11.69a12,12,0,0,0,3.74,8.24,9,9,0,0,0-1,8.86v35.81a7.91,7.91,0,0,0,15.81,0V457.51a9,9,0,0,0,1.34-4.74,8.85,8.85,0,0,0-1.72-5.25A12,12,0,0,0,222.27,438.2Zm-7,53.93a4.24,4.24,0,1,1-8.47,0V460.48A9.14,9.14,0,0,0,210,461.6a1.32,1.32,0,0,0,.28,0h2.19a1.23,1.23,0,0,0,.27,0l.37-.06.22-.05.1,0a9.63,9.63,0,0,0,1.87-.66v31.32Zm-1.45-34.71,0,0-.16.08-.08,0-.12.06-.12.05-.1,0-.15.05-.07,0-.17.05-.07,0-.18,0h-.05l-.25,0H210.4l-.27-.06-.1,0-.15,0-.13,0-.1,0a5.31,5.31,0,0,1-3.58-5,5.25,5.25,0,0,1,2.06-4.17l.15-.11.26-.18.11-.07.38-.2,0,0,.23-.1,0,0,.4-.14.13,0,.28-.08.21,0,.15,0,.35,0h.1l.39,0,.41,0h.09l.35,0,.15,0,.22,0,.29.07.11,0,.39.14.06,0c.22.1.43.21.64.33l.13.08.25.17.16.12a5.27,5.27,0,0,1-.77,8.8Zm2-12.37-.12-.07-.29-.15-.15-.08a9,9,0,0,0-1-.42l-.06,0-.53-.16h0a8.09,8.09,0,0,0-1.11-.23h-.1l-.44,0h-.13a5,5,0,0,0-.55,0h-.66l-.44.05h-.1a8.69,8.69,0,0,0-1.62.38h-.05l-.49.19h0l-.49.22-.11.06L207,445l-.1.05a8.3,8.3,0,0,1-2.83-6c-.12-2.63,1.41-6.22,4.22-9.86a29,29,0,0,1,3.84-4.14c-.31,3.91,1.73,5.91,3.43,7.58s2.9,2.85,3,5.74A8.22,8.22,0,0,1,215.83,445.05Z"/><path class="cls-3" d="M96.38,101.32a1.44,1.44,0,0,0,1.44,1.44h11.47a1.44,1.44,0,0,0,1.43-1.44V89.85A7.16,7.16,0,0,0,105.4,83a8.61,8.61,0,1,0-12.3,0,7.16,7.16,0,0,0-5.32,6.9v4.93a1.44,1.44,0,0,0,2.87,0V89.85a4.29,4.29,0,0,1,4.3-4.3h8.6a4.3,4.3,0,0,1,4.31,4.3v10h-10A1.43,1.43,0,0,0,96.38,101.32ZM99.25,71.2a5.74,5.74,0,1,1-5.74,5.74A5.74,5.74,0,0,1,99.25,71.2Z"/><path class="cls-3" d="M103.55,92.72a1.44,1.44,0,1,0,0-2.87h-2.86a1.44,1.44,0,1,0,0,2.87Z"/><path class="cls-3" d="M153.93,129.48l-17.25-17.24a4.4,4.4,0,0,0-4.87-.81l-7.6-7.6a30.12,30.12,0,1,0-44.1,6.39A1.43,1.43,0,1,0,81.93,108a27.29,27.29,0,1,1,39-4.64c-.35.46-.7.91-1.07,1.34l-.1.11a26.27,26.27,0,0,1-2.69,2.69,1.59,1.59,0,0,0-.13.13c-.44.36-.87.71-1.32,1a27.1,27.1,0,0,1-16.41,5.54c-.45,0-.91,0-1.35,0a1.44,1.44,0,1,0-.16,2.87c.5,0,1,0,1.51,0a29.9,29.9,0,0,0,16.84-5.16l8.43,8.42a1.42,1.42,0,0,0,2,0l6.09-6.09a1.47,1.47,0,0,1,2,0l17.24,17.25a1.42,1.42,0,0,1,0,2l-6.09,6.09a1.42,1.42,0,0,1-1,.42,1.45,1.45,0,0,1-1-.42l-11.29-11.3a1.44,1.44,0,0,0-2,2l11.3,11.3a4.3,4.3,0,0,0,6.08,0l6.09-6.09a4.3,4.3,0,0,0,0-6.08Zm-31.46-23.34,7.12,7.12-4.06,4-7.12-7.11A30,30,0,0,0,122.47,106.14Z"/><path class="cls-3" d="M99.25,108.49a1.44,1.44,0,0,0,0,2.87,24.31,24.31,0,0,0,23.59-30.48,1.45,1.45,0,0,0-1.75-1,1.43,1.43,0,0,0-1,1.75,21.43,21.43,0,0,1-20.81,26.89Z"/><path class="cls-3" d="M111.05,65.65A24.36,24.36,0,0,0,83,105.1a1.43,1.43,0,0,0,1.41.31,1.43,1.43,0,0,0,.5-2.45,21.5,21.5,0,0,1,24.78-34.8,1.43,1.43,0,0,0,1.39-2.51Z"/><path class="cls-3" d="M82,132.87a1.44,1.44,0,0,0,0,2.87h8.61a1.44,1.44,0,0,0,0-2.87Z"/><path class="cls-3" d="M109.29,120H93.51V101.32a1.43,1.43,0,0,0-2.67-.72L79.77,120h-2a4.3,4.3,0,0,0-4.31,4.3v14.34a4.3,4.3,0,0,0,4.31,4.3h31.55a4.29,4.29,0,0,0,4.3-4.3v-2.87a1.44,1.44,0,0,0-2.87,0v2.87a1.44,1.44,0,0,1-1.43,1.44H77.74a1.45,1.45,0,0,1-1.44-1.44V124.27a1.44,1.44,0,0,1,1.44-1.43h2.87a1.45,1.45,0,0,0,1.24-.72l8.8-15.4V121.4a1.44,1.44,0,0,0,1.43,1.44h17.21a1.43,1.43,0,0,1,1.43,1.43v2.87a1.44,1.44,0,0,0,2.87,0v-2.87A4.29,4.29,0,0,0,109.29,120Z"/><path class="cls-3" d="M96.38,128.57A1.43,1.43,0,0,0,95,127.14h-10a1.44,1.44,0,1,0,0,2.87H95A1.44,1.44,0,0,0,96.38,128.57Z"/><path class="cls-3" d="M107.86,128.57a1.44,1.44,0,0,0-1.44-1.43h-5.73a1.44,1.44,0,1,0,0,2.87h5.73A1.45,1.45,0,0,0,107.86,128.57Z"/><path class="cls-3" d="M96.38,135.74h5.74a1.44,1.44,0,0,0,0-2.87H96.38a1.44,1.44,0,0,0,0,2.87Z"/><path class="cls-3" d="M132.24,68.33h12.91a1.43,1.43,0,0,0,0-2.86H132.24a1.43,1.43,0,1,0,0,2.86Z"/><path class="cls-3" d="M132.24,75.51h12.91a1.44,1.44,0,0,0,0-2.87H132.24a1.44,1.44,0,1,0,0,2.87Z"/><path class="cls-3" d="M145.15,79.81H138a1.44,1.44,0,1,0,0,2.87h7.17a1.44,1.44,0,0,0,0-2.87Z"/><path class="cls-3" d="M145.15,87H138a1.44,1.44,0,1,0,0,2.87h7.17a1.44,1.44,0,0,0,0-2.87Z"/><path class="cls-3" d="M135.11,98.45a1.44,1.44,0,1,0,0,2.87h8.6a2.86,2.86,0,0,0,2.87-2.87V95.58a2.86,2.86,0,0,0-2.87-2.86h-8.6a1.43,1.43,0,1,0,0,2.86h8.6v2.87Z"/><path class="cls-4" d="M1565.76,155.84a4.44,4.44,0,1,0,0,6.28A4.45,4.45,0,0,0,1565.76,155.84Z"/><path class="cls-4" d="M1622.24,99.36a22.19,22.19,0,1,0,0,31.38A22.18,22.18,0,0,0,1622.24,99.36Zm-6.27,25.1a13.31,13.31,0,1,1,0-18.82A13.33,13.33,0,0,1,1616,124.46Z"/><path class="cls-4" d="M1672.45,49.15a4.45,4.45,0,0,0-3.3-1.3,197.39,197.39,0,0,0-53.29,11c-22.76,8-41.73,19.54-56.38,34.19-3.28,3.28-6.48,6.77-9.54,10.38-14.49-8.53-26.1-5.85-33.43-1.92-16.9,9-27.36,33.6-27.36,51.16a4.42,4.42,0,0,0,2.74,4.1,4.32,4.32,0,0,0,1.69.34,4.43,4.43,0,0,0,3.14-1.3,28.23,28.23,0,0,1,23.5-7.88l1.55,1.55a156.4,156.4,0,0,0-7.33,21.56,12.55,12.55,0,0,0,.54,7.7,42.06,42.06,0,0,0-12,8.45c-11.43,11.43-13.75,39.27-13.84,40.45a4.44,4.44,0,0,0,4.42,4.78h.35c1.18-.09,29-2.41,40.45-13.84a41.89,41.89,0,0,0,8.44-12,12.53,12.53,0,0,0,7.72.54,156.73,156.73,0,0,0,21.55-7.33l1.55,1.55a28.27,28.27,0,0,1-7.88,23.5,4.44,4.44,0,0,0,3.14,7.57c17.56,0,42.12-10.46,51.16-27.36,3.93-7.34,6.61-19-1.92-33.43,3.61-3.06,7.09-6.26,10.38-9.54,14.65-14.65,26.16-33.62,34.19-56.38a197.39,197.39,0,0,0,11-53.29A4.47,4.47,0,0,0,1672.45,49.15Zm-173.38,94c2.75-13.34,10.76-28,21.62-33.8,7.26-3.88,15.2-3.5,23.64,1.12a179.05,179.05,0,0,0-18.65,30.39,4.59,4.59,0,0,0-2.35-1.38A37.92,37.92,0,0,0,1499.07,143.16Zm29,69.17c-6.1,6.1-20.42,9.32-29.46,10.63,1.31-9.05,4.53-23.36,10.63-29.46a32,32,0,0,1,11.36-7.47L1535.57,201A32,32,0,0,1,1528.1,212.33Zm20.23-13.77a4.16,4.16,0,0,1-3.87-1.26l-8.7-8.69-11.46-11.46a4.18,4.18,0,0,1-1.26-3.88,143.44,143.44,0,0,1,5.54-17l36.7,36.7A144,144,0,0,1,1548.33,198.56Zm63.91,2.35c-5.82,10.86-20.45,18.87-33.8,21.62,4.26-8,5.2-18.19,3.64-24.37a4.58,4.58,0,0,0-1.35-2.24,179.05,179.05,0,0,0,30.39-18.65C1615.74,185.71,1616.12,193.65,1612.24,200.91Zm10-45.07a159.74,159.74,0,0,1-12.79,11.48,171,171,0,0,1-35.38,21.94l-41.73-41.73a171.07,171.07,0,0,1,21.93-35.37,160.2,160.2,0,0,1,11.49-12.8c13.14-13.15,30.11-23.62,50.44-31.15l37.19,37.19C1645.86,125.73,1635.39,142.7,1622.24,155.84ZM1656.58,96l-31-31a199.67,199.67,0,0,1,38.94-7.92A199.67,199.67,0,0,1,1656.58,96Z"/><path class="cls-4" d="M1553.21,231.15a4.45,4.45,0,0,0-6.28,0l-12.55,12.56a4.44,4.44,0,1,0,6.28,6.27l12.55-12.55A4.45,4.45,0,0,0,1553.21,231.15Z"/><path class="cls-4" d="M1490.45,168.39a4.45,4.45,0,0,0-6.28,0l-12.55,12.55a4.44,4.44,0,0,0,6.27,6.28l12.56-12.55A4.45,4.45,0,0,0,1490.45,168.39Z"/><path class="cls-4" d="M1521.83,237.43a4.45,4.45,0,0,0-6.28,0l-30.06,30.06a4.44,4.44,0,0,0,6.28,6.28l30.06-30.06A4.45,4.45,0,0,0,1521.83,237.43Z"/><path class="cls-4" d="M1486.32,237.43a4.44,4.44,0,0,0-6.27,0L1450,267.49a4.44,4.44,0,0,0,6.27,6.28l30.06-30.06A4.43,4.43,0,0,0,1486.32,237.43Z"/><path class="cls-4" d="M1484.17,199.77a4.45,4.45,0,0,0-6.28,0l-30.06,30.06a4.44,4.44,0,0,0,6.28,6.28l30.06-30.06A4.45,4.45,0,0,0,1484.17,199.77Z"/><path class="cls-4" d="M1584.59,137a4.45,4.45,0,0,0-6.28,0l-6.27,6.28a4.43,4.43,0,1,0,6.27,6.27l6.28-6.27A4.45,4.45,0,0,0,1584.59,137Z"/><path class="cls-3" d="M438.31,177h4a1.42,1.42,0,1,0,0-2.84h-4a1.42,1.42,0,0,0,0,2.84Z"/><path class="cls-3" d="M471.57,174.12H446.88a1.42,1.42,0,0,0,0,2.84h24.69a1.42,1.42,0,1,0,0-2.84Z"/><path class="cls-3" d="M467.82,181.32h-9a1.43,1.43,0,0,0,0,2.85h9a1.43,1.43,0,0,0,0-2.85Z"/><path class="cls-3" d="M454.07,181.32h-2.81a1.43,1.43,0,0,0,0,2.85h2.81a1.43,1.43,0,0,0,0-2.85Z"/><path class="cls-3" d="M446.73,181.32h-8.42a1.43,1.43,0,0,0,0,2.85h8.42a1.43,1.43,0,0,0,0-2.85Z"/><path class="cls-3" d="M435.91,158.55a4.17,4.17,0,1,0,4.17-4.17A4.17,4.17,0,0,0,435.91,158.55Zm5.5,0a1.33,1.33,0,1,1-1.33-1.33A1.34,1.34,0,0,1,441.41,158.55Z"/><path class="cls-3" d="M446.53,158.55a4.17,4.17,0,1,0,4.17-4.17A4.17,4.17,0,0,0,446.53,158.55Zm5.5,0a1.33,1.33,0,1,1-1.33-1.33A1.34,1.34,0,0,1,452,158.55Z"/><path class="cls-3" d="M457.15,158.55a4.18,4.18,0,1,0,4.17-4.17A4.17,4.17,0,0,0,457.15,158.55Zm5.5,0a1.33,1.33,0,1,1-1.33-1.33A1.33,1.33,0,0,1,462.65,158.55Z"/><path class="cls-3" d="M508.61,242.41h4.75a1.43,1.43,0,0,0,0-2.85h-4.75a1.43,1.43,0,0,0,0,2.85Z"/><path class="cls-3" d="M508.2,193.29h-1.64a1.42,1.42,0,0,0,0,2.84h1.64a1.42,1.42,0,1,0,0-2.84Z"/><path class="cls-3" d="M515.41,193.29h-3.22a1.42,1.42,0,1,0,0,2.84h3.22a1.42,1.42,0,1,0,0-2.84Z"/><path class="cls-3" d="M526.63,155.18a6.27,6.27,0,0,0-6.26-6.26H508.24a1.42,1.42,0,0,0,0,2.84h12.13a3.42,3.42,0,0,1,3.42,3.42v10.24H432.44V155.18a3.42,3.42,0,0,1,3.41-3.42H499.4a1.42,1.42,0,1,0,0-2.84H435.85a6.27,6.27,0,0,0-6.26,6.26V224a6.27,6.27,0,0,0,6.26,6.26h27.66v5.1h-4.29a5.2,5.2,0,0,0-5.19,5.19v3.07A2.37,2.37,0,0,0,456.4,246l65.89.09a4.46,4.46,0,0,0,4.45-4.45v-4.5Zm-90.78,72.2a3.41,3.41,0,0,1-3.41-3.41v-5.39h62.79v8.8Zm56.86,2.85h2.52v5.1h-2.52Zm-2.84,0v5.1H466.36v-5.1Zm-33,12.89v-2.6a2.36,2.36,0,0,1,2.35-2.35h36v3.43a4.54,4.54,0,0,0,.26,1.52Zm67-1.52a1.6,1.6,0,0,1-1.61,1.6H499.67a1.6,1.6,0,0,1-1.6-1.6v-3.08H523.9Zm0-5.92H498.07v-24.8a1.42,1.42,0,0,0-2.84,0v4.85H432.44V168.26h91.35V190a4.38,4.38,0,0,0-1.5-.26H499.67a4.44,4.44,0,0,0-4.44,4.44v8a1.42,1.42,0,0,0,2.84,0v-2.1H523.9Zm0-38.4H498.07V194.2a1.6,1.6,0,0,1,1.6-1.6h22.62a1.61,1.61,0,0,1,1.61,1.6v3.08Z"/><path class="cls-3" d="M500.94,207.13h5.24a1.43,1.43,0,0,0,0-2.85h-5.24a1.43,1.43,0,0,0,0,2.85Z"/><path class="cls-3" d="M510.25,207.13h2.24a1.43,1.43,0,0,0,0-2.85h-2.24a1.43,1.43,0,0,0,0,2.85Z"/><path class="cls-3" d="M516.23,207.13H521a1.43,1.43,0,0,0,0-2.85h-4.8a1.43,1.43,0,0,0,0,2.85Z"/><path class="cls-3" d="M500.94,213.52h2.33a1.42,1.42,0,1,0,0-2.84h-2.33a1.42,1.42,0,0,0,0,2.84Z"/><path class="cls-3" d="M515.29,212.1a1.41,1.41,0,0,0-1.42-1.42H507.2a1.42,1.42,0,1,0,0,2.84h6.67A1.41,1.41,0,0,0,515.29,212.1Z"/><path class="cls-3" d="M521,210.68h-2.64a1.42,1.42,0,1,0,0,2.84H521a1.42,1.42,0,0,0,0-2.84Z"/><path class="cls-3" d="M500.94,219.4h4.67a1.42,1.42,0,0,0,0-2.84h-4.67a1.42,1.42,0,0,0,0,2.84Z"/><path class="cls-3" d="M509.5,219.4h5.91a1.42,1.42,0,0,0,0-2.84H509.5a1.42,1.42,0,0,0,0,2.84Z"/><path class="cls-3" d="M521,216.56h-1.82a1.42,1.42,0,0,0,0,2.84H521a1.42,1.42,0,0,0,0-2.84Z"/><path class="cls-3" d="M500.94,225.8h7.14a1.43,1.43,0,0,0,0-2.85h-7.14a1.43,1.43,0,0,0,0,2.85Z"/><path class="cls-3" d="M514,223h-1.93a1.43,1.43,0,0,0,0,2.85H514a1.43,1.43,0,1,0,0-2.85Z"/><path class="cls-3" d="M521,223h-3.37a1.43,1.43,0,0,0,0,2.85H521a1.43,1.43,0,0,0,0-2.85Z"/><path class="cls-3" d="M1005.68,237h4.05a1.43,1.43,0,0,0,0-2.85h-4.05a1.43,1.43,0,0,0,0,2.85Z"/><path class="cls-3" d="M1038.94,234.12h-24.68a1.43,1.43,0,0,0,0,2.85h24.68a1.43,1.43,0,0,0,0-2.85Z"/><path class="cls-3" d="M1035.19,241.33h-9a1.42,1.42,0,1,0,0,2.84h9a1.42,1.42,0,0,0,0-2.84Z"/><path class="cls-3" d="M1021.45,241.33h-2.82a1.42,1.42,0,1,0,0,2.84h2.82a1.42,1.42,0,0,0,0-2.84Z"/><path class="cls-3" d="M1014.1,241.33h-8.42a1.42,1.42,0,1,0,0,2.84h8.42a1.42,1.42,0,1,0,0-2.84Z"/><path class="cls-3" d="M1003.28,218.55a4.18,4.18,0,1,0,4.17-4.17A4.18,4.18,0,0,0,1003.28,218.55Zm5.5,0a1.33,1.33,0,1,1-1.33-1.32A1.33,1.33,0,0,1,1008.78,218.55Z"/><path class="cls-3" d="M1013.9,218.55a4.18,4.18,0,1,0,4.18-4.17A4.19,4.19,0,0,0,1013.9,218.55Zm5.5,0a1.33,1.33,0,1,1-1.32-1.32A1.32,1.32,0,0,1,1019.4,218.55Z"/><path class="cls-3" d="M1024.53,218.55a4.17,4.17,0,1,0,4.17-4.17A4.18,4.18,0,0,0,1024.53,218.55Zm5.5,0a1.33,1.33,0,1,1-1.33-1.32A1.33,1.33,0,0,1,1030,218.55Z"/><path class="cls-3" d="M1076,302.41h4.74a1.42,1.42,0,1,0,0-2.84H1076a1.42,1.42,0,1,0,0,2.84Z"/><path class="cls-3" d="M1075.57,253.29h-1.63a1.43,1.43,0,1,0,0,2.85h1.63a1.43,1.43,0,0,0,0-2.85Z"/><path class="cls-3" d="M1082.78,253.29h-3.22a1.43,1.43,0,0,0,0,2.85h3.22a1.43,1.43,0,0,0,0-2.85Z"/><path class="cls-3" d="M1094,215.18a6.27,6.27,0,0,0-6.26-6.26h-12.13a1.43,1.43,0,0,0,0,2.85h12.13a3.41,3.41,0,0,1,3.41,3.41v10.24H999.81V215.18a3.42,3.42,0,0,1,3.42-3.41h63.54a1.43,1.43,0,0,0,0-2.85h-63.54a6.26,6.26,0,0,0-6.26,6.26V284a6.26,6.26,0,0,0,6.26,6.26h27.66v5.1h-4.29a5.2,5.2,0,0,0-5.2,5.19v3.08a2.38,2.38,0,0,0,2.37,2.37l65.9.08a4.44,4.44,0,0,0,4.44-4.44v-4.5Zm-90.78,72.21a3.42,3.42,0,0,1-3.42-3.42v-5.39h62.79v8.81Zm56.85,2.84h2.52v5.1h-2.52Zm-2.84,0v5.1h-23.51v-5.1Zm-33,12.89v-2.6a2.35,2.35,0,0,1,2.35-2.35h36v3.44a4.44,4.44,0,0,0,.27,1.51Zm67-1.51a1.6,1.6,0,0,1-1.6,1.6h-22.62a1.6,1.6,0,0,1-1.6-1.6v-3.08h25.82Zm0-5.92h-25.82V270.88a1.43,1.43,0,0,0-2.85,0v4.86H999.81V228.26h91.35V250a4.36,4.36,0,0,0-1.49-.26h-22.62a4.46,4.46,0,0,0-4.45,4.45v8a1.43,1.43,0,0,0,2.85,0v-2.1h25.82Zm0-38.4h-25.82v-3.08a1.6,1.6,0,0,1,1.6-1.6h22.62a1.6,1.6,0,0,1,1.6,1.6v3.08Z"/><path class="cls-3" d="M1068.31,267.13h5.25a1.42,1.42,0,1,0,0-2.84h-5.25a1.42,1.42,0,0,0,0,2.84Z"/><path class="cls-3" d="M1077.63,267.13h2.23a1.42,1.42,0,1,0,0-2.84h-2.23a1.42,1.42,0,0,0,0,2.84Z"/><path class="cls-3" d="M1083.6,267.13h4.8a1.42,1.42,0,0,0,0-2.84h-4.8a1.42,1.42,0,0,0,0,2.84Z"/><path class="cls-3" d="M1068.31,273.53h2.34a1.43,1.43,0,0,0,0-2.85h-2.34a1.43,1.43,0,0,0,0,2.85Z"/><path class="cls-3" d="M1082.67,272.1a1.43,1.43,0,0,0-1.42-1.42h-6.68a1.43,1.43,0,0,0,0,2.85h6.68A1.43,1.43,0,0,0,1082.67,272.1Z"/><path class="cls-3" d="M1088.4,270.68h-2.63a1.43,1.43,0,1,0,0,2.85h2.63a1.43,1.43,0,0,0,0-2.85Z"/><path class="cls-3" d="M1068.31,279.41H1073a1.43,1.43,0,0,0,0-2.85h-4.67a1.43,1.43,0,0,0,0,2.85Z"/><path class="cls-3" d="M1076.87,279.41h5.91a1.43,1.43,0,0,0,0-2.85h-5.91a1.43,1.43,0,0,0,0,2.85Z"/><path class="cls-3" d="M1088.4,276.56h-1.81a1.43,1.43,0,0,0,0,2.85h1.81a1.43,1.43,0,0,0,0-2.85Z"/><path class="cls-3" d="M1068.31,285.8h7.14a1.42,1.42,0,1,0,0-2.84h-7.14a1.42,1.42,0,0,0,0,2.84Z"/><path class="cls-3" d="M1081.42,283h-1.93a1.42,1.42,0,1,0,0,2.84h1.93a1.42,1.42,0,1,0,0-2.84Z"/><path class="cls-3" d="M1088.4,283H1085a1.42,1.42,0,0,0,0,2.84h3.37a1.42,1.42,0,1,0,0-2.84Z"/><rect class="cls-4" x="69.13" y="159.86" width="125.37" height="12.57" rx="3.5"/><rect class="cls-4" x="128.48" y="320.16" width="230.25" height="12.57" rx="3.5"/><rect class="cls-4" x="429.59" y="262.54" width="528" height="12.57" rx="3.5"/><rect class="cls-4" x="996.97" y="322.18" width="591.38" height="12.57" rx="3.42"/><rect class="cls-4" x="1598.53" y="322.18" width="59.09" height="12.57" rx="3.5"/><rect class="cls-4" x="1666.57" y="322.18" width="26.26" height="12.57" rx="3.5"/><rect class="cls-4" x="1708.28" y="322.18" width="13.13" height="12.57" rx="3.5"/><rect class="cls-4" x="1598.53" y="553.6" width="59.09" height="12.57" rx="3.5"/><rect class="cls-4" x="1430.33" y="553.6" width="156.22" height="12.57" rx="3.5"/><rect class="cls-4" x="1262.28" y="553.6" width="156.22" height="12.57" rx="3.5"/><rect class="cls-4" x="1043.11" y="553.6" width="205.38" height="12.57" rx="3.5"/><rect class="cls-4" x="1666.57" y="553.6" width="26.26" height="12.57" rx="3.5"/><rect class="cls-4" x="1708.28" y="553.6" width="13.13" height="12.57" rx="3.5"/><rect class="cls-4" x="362.42" y="396.44" width="118.74" height="12.57" rx="3.5"/><rect class="cls-4" x="685.21" y="396.44" width="126.13" height="12.57" rx="3.5"/><text class="cls-5" transform="translate(69.13 209.15)">Analisi bisogni <tspan x="0" y="25.85">cittadini e modelli </tspan><tspan x="0" y="51.7">operativi enti</tspan></text><text class="cls-5" transform="translate(128.48 370.5)">C<tspan class="cls-6" x="11.72" y="0">r</tspan><tspan x="19.41" y="0">eazione</tspan><tspan x="0" y="25.85">p</tspan><tspan class="cls-6" x="11.57" y="25.85">r</tspan><tspan x="19.26" y="25.85">ototipo</tspan></text><text class="cls-5" transform="translate(429.59 311.38)"><tspan class="cls-7">S</tspan><tspan x="11.52" y="0">viluppo </tspan><tspan class="cls-8" x="83.73" y="0">v</tspan><tspan x="94.13" y="0">ersione beta</tspan></text><text class="cls-5" transform="translate(996.97 374.09)"><tspan class="cls-9">S</tspan><tspan x="11.52" y="0">viluppo </tspan><tspan class="cls-7" x="83.73" y="0">v</tspan><tspan class="cls-10" x="94.13" y="0">ersione 1.0</tspan></text><text class="cls-5" transform="translate(1544.33 289.18)">Lancio MVP</text><text class="cls-11" transform="translate(1736.43 666.06) rotate(-90)">2020</text><text class="cls-11" transform="translate(74.52 666.06) rotate(-90)">2018</text><text class="cls-11" transform="translate(903.72 666.06) rotate(-90)">2019</text><text class="cls-5" transform="translate(362.42 449.3)"><tspan class="cls-12">T</tspan><tspan x="9.63" y="0">est e </tspan><tspan class="cls-13" x="58.81" y="0">v</tspan><tspan x="69.23" y="0">alidazione</tspan><tspan x="0" y="25.85">del p</tspan><tspan class="cls-6" x="44.33" y="25.85">r</tspan><tspan x="52.02" y="25.85">ototipo </tspan><tspan class="cls-14" x="0" y="51.7">c</tspan><tspan x="9.41" y="51.7">on i cittadini</tspan></text><text class="cls-5" transform="translate(685.21 449.3)"><tspan class="cls-12">T</tspan><tspan x="9.63" y="0">est </tspan><tspan class="cls-7" x="43.12" y="0">v</tspan><tspan x="53.53" y="0">ersione beta </tspan><tspan class="cls-14" x="0" y="25.85">c</tspan><tspan x="9.41" y="25.85">on parlamentari</tspan><tspan x="0" y="51.7" xml:space="preserve"> e sta</tspan><tspan class="cls-15" x="49.16" y="51.7">k</tspan><tspan x="59.67" y="51.7">eholder</tspan></text><text class="cls-5" transform="translate(1043.11 604.49)"><tspan class="cls-16">F</tspan><tspan x="10.88" y="0">ase closed-beta per </tspan><tspan x="0" y="25.85">testa</tspan><tspan class="cls-17" x="47.39" y="25.85">r</tspan><tspan class="cls-10" x="55.08" y="25.85">e la app </tspan><tspan class="cls-14" x="130.67" y="25.85">c</tspan><tspan x="140.08" y="25.85">on </tspan><tspan x="0" y="51.7">i cittadinie gli enti </tspan><tspan class="cls-17" x="167.48" y="51.7">r</tspan><tspan class="cls-10" x="175.17" y="51.7">eali</tspan></text></svg>