<svg id="Livello_1" data-name="Livello 1" xmlns="http://www.w3.org/2000/svg" viewBox="0 0 1866.87 634.88"><defs><style>.cls-1,.cls-2{fill:none;stroke:#3bbad2;stroke-miterlimit:10;stroke-width:1.8px;}.cls-2{stroke-dasharray:7.18 7.18;opacity:0.5;}.cls-10,.cls-11,.cls-2,.cls-5,.cls-6,.cls-7,.cls-8,.cls-9{isolation:isolate;}.cls-10,.cls-11,.cls-3,.cls-6,.cls-7,.cls-8,.cls-9{fill:#fff;}.cls-4{fill:#3bbad2;}.cls-10,.cls-11,.cls-6,.cls-7,.cls-9{font-size:21.54px;}.cls-10,.cls-11,.cls-6,.cls-7,.cls-8,.cls-9{font-family:TitilliumWeb-SemiBold, Titillium Web;font-weight:600;}.cls-7{letter-spacing:-0.01em;}.cls-8{font-size:35.9px;}.cls-9{letter-spacing:-0.08em;}.cls-10{letter-spacing:-0.01em;}.cls-11{letter-spacing:-0.02em;}</style></defs><title>roadmap</title><line class="cls-1" x1="0.9" x2="0.9" y2="634.88"/><line class="cls-2" x1="208.66" x2="208.66" y2="634.88"/><line class="cls-2" x1="416.42" x2="416.42" y2="634.88"/><line class="cls-2" x1="624.18" x2="624.18" y2="634.88"/><line class="cls-1" x1="831.93" x2="831.93" y2="634.88"/><line class="cls-2" x1="1039.69" x2="1039.69" y2="634.88"/><line class="cls-2" x1="1247.45" x2="1247.45" y2="634.88"/><line class="cls-2" x1="1455.21" x2="1455.21" y2="634.88"/><line class="cls-1" x1="1662.97" x2="1662.97" y2="634.88"/><path class="cls-3" d="M743.09,580.28l-11.15-3.38-1.21-2.43a1.7,1.7,0,0,0-2-.86v-.42a19.86,19.86,0,0,0,8.19-14.61,5.65,5.65,0,0,0,3.48-8.43,6.72,6.72,0,0,0,2.86-9.06,6.82,6.82,0,0,0-2.42-2.61,5.6,5.6,0,0,0,.16-1.35,5.75,5.75,0,0,0-5.73-5.73,5.63,5.63,0,0,0-2.14.42,17.69,17.69,0,0,0-12-4.62h-8.06a17.69,17.69,0,0,0-12,4.62,5.73,5.73,0,0,0-7.46,3.16,5.64,5.64,0,0,0-.42,2.15,6.15,6.15,0,0,0,.16,1.35,6.72,6.72,0,0,0,.44,11.67,5.67,5.67,0,0,0,3.49,8.43,19.77,19.77,0,0,0,8.17,14.59v.43a1.71,1.71,0,0,0-2,.87l-1.21,2.42-11.57,3.48a7.69,7.69,0,0,0-5.52,7.42v41.83a1.7,1.7,0,1,0,3.4,0v-42.2l6.8,6.8a6.36,6.36,0,0,1,1.86,4.49v30.91a1.71,1.71,0,0,0,3.41,0V598.71a9.76,9.76,0,0,0-2.86-6.9l-7.5-7.49a4.37,4.37,0,0,1,1.36-.69l7.67-2.3a45.38,45.38,0,0,0,16.81,21.11,1.67,1.67,0,0,0,.94.28,1.78,1.78,0,0,0,1-.28,45.24,45.24,0,0,0,16.82-21.09l7.21,2.18a1.62,1.62,0,0,0,.49.08,1.7,1.7,0,0,0,.5-3.33Zm-13.88-1.23-5.75,7.19a.3.3,0,0,1-.25.12.28.28,0,0,1-.24-.13l-3.26-4.34,8.74-4.37Zm-12.09.32-8.2-4.1v-.11a19.76,19.76,0,0,0,16.38,0v.11Zm18.13-44.57a2.32,2.32,0,0,1,1.94,3.61,1.7,1.7,0,0,0-.18,1.53,1.75,1.75,0,0,0,1.14,1,3.33,3.33,0,1,1-3.33.94,1.69,1.69,0,0,0-.09-2.4,2.21,2.21,0,0,0-.45-.3,2.32,2.32,0,0,1-1.15-3.07,2.34,2.34,0,0,1,2.15-1.36Zm-41.6,9.38a3.33,3.33,0,0,1,2.44-3.19,1.7,1.7,0,0,0,1.23-2.07,2,2,0,0,0-.23-.51,2.33,2.33,0,1,1,3.88-2.58,2.32,2.32,0,0,1-1,3.4,1.74,1.74,0,0,0-1,1.22,1.71,1.71,0,0,0,.42,1.48,3.33,3.33,0,1,1-5.77,2.25Zm7.05,12.93a1.72,1.72,0,0,0-1.7-1.71,2.47,2.47,0,0,1-2.51-1.92,2.32,2.32,0,0,1,1.78-2.67l.19-.06a6.74,6.74,0,0,0,5.27-6.57,6.65,6.65,0,0,0-.71-3,5.71,5.71,0,0,0,.79-7.19,14.3,14.3,0,0,1,9.29-3.4h8.06a14.33,14.33,0,0,1,9.3,3.4,5.7,5.7,0,0,0,.78,7.19,6.75,6.75,0,0,0,4.74,9.61l.16.06a2.32,2.32,0,0,1,1.63,2.63,2.47,2.47,0,0,1-2.51,1.92,1.71,1.71,0,0,0-1.7,1.71,16.43,16.43,0,0,1-32.85,0Zm4.56,21.49.54-1.08,8.74,4.37-3.26,4.34a.31.31,0,0,1-.25.13.3.3,0,0,1-.25-.12l-5.7-7.13a2.21,2.21,0,0,0,.18-.51ZM717.12,599a42.55,42.55,0,0,1-13.46-16.17l4.47,5.59a3.7,3.7,0,0,0,2.9,1.39h.06a3.71,3.71,0,0,0,2.91-1.49l1.42-1.89v7a1.7,1.7,0,0,0,3.4,0v-7l1.42,1.89a3.7,3.7,0,0,0,2.92,1.49h.06a3.72,3.72,0,0,0,2.9-1.39l4.48-5.61A42.5,42.5,0,0,1,717.12,599Z" transform="translate(-36.77 -31.18)"/><path class="cls-3" d="M722.22,561.83a1.69,1.69,0,0,0-2.38.24h0a3.34,3.34,0,0,1-5.41,0,1.7,1.7,0,0,0-2.65,2.14,6.74,6.74,0,0,0,10.7,0A1.7,1.7,0,0,0,722.22,561.83Z" transform="translate(-36.77 -31.18)"/><path class="cls-3" d="M709.06,551.37a1.71,1.71,0,0,0-1.7,1.71v2a1.71,1.71,0,0,0,3.41,0v-2A1.73,1.73,0,0,0,709.06,551.37Z" transform="translate(-36.77 -31.18)"/><path class="cls-3" d="M725.18,551.37a1.71,1.71,0,0,0-1.7,1.71v2a1.7,1.7,0,0,0,3.4,0v-2A1.71,1.71,0,0,0,725.18,551.37Z" transform="translate(-36.77 -31.18)"/><path class="cls-3" d="M742.5,588.13a1.69,1.69,0,0,0-2.4,0h0l-3.68,3.68a9.67,9.67,0,0,0-2.86,6.9v30.91a1.7,1.7,0,0,0,3.4,0V598.71a6.36,6.36,0,0,1,1.86-4.49l3.69-3.68a1.67,1.67,0,0,0,.06-2.39S742.54,588.12,742.5,588.13Z" transform="translate(-36.77 -31.18)"/><path class="cls-3" d="M776.61,575.93a1.7,1.7,0,0,0-2.39.24h0a3.34,3.34,0,0,1-5.41,0,1.7,1.7,0,0,0-2.71,2.06l.07.08a6.74,6.74,0,0,0,10.7,0A1.7,1.7,0,0,0,776.61,575.93Z" transform="translate(-36.77 -31.18)"/><path class="cls-3" d="M753.38,605.76a1.7,1.7,0,0,0-1.7,1.7h0v22.16a1.7,1.7,0,0,0,3.4,0V607.46a1.7,1.7,0,0,0-1.7-1.7Z" transform="translate(-36.77 -31.18)"/><path class="cls-3" d="M789.63,605.76a1.7,1.7,0,0,0-1.7,1.7h0v22.16a1.71,1.71,0,0,0,3.41,0V607.46A1.71,1.71,0,0,0,789.63,605.76Z" transform="translate(-36.77 -31.18)"/><path class="cls-3" d="M795.72,594.13a7.72,7.72,0,0,0-1.28-10.84,6.77,6.77,0,0,0-1.1-.73,1.31,1.31,0,0,0,0-.28,6.72,6.72,0,0,0-2.82-5.48c.12-.39.22-.79.31-1.19a18.3,18.3,0,0,0,.43-3.12,23.86,23.86,0,1,0-39.53,0,19.35,19.35,0,0,0,.43,3.12c.09.4.2.8.31,1.19a6.72,6.72,0,0,0-2.82,5.48,1.31,1.31,0,0,0,0,.28A7.72,7.72,0,0,0,746.54,593a8.74,8.74,0,0,0,.73,1.1,11.71,11.71,0,0,0-5.69,10.08v25.41a1.71,1.71,0,0,0,3.41,0V604.21a8.33,8.33,0,0,1,5.26-7.77l.32-.13a26.22,26.22,0,0,0,20.92,10.84,25.86,25.86,0,0,0,20.9-10.84l.33.13a8.33,8.33,0,0,1,5.26,7.77v25.41a1.71,1.71,0,0,0,3.41,0V604.21A11.72,11.72,0,0,0,795.72,594.13Zm-44.67-35a20.46,20.46,0,1,1,39.19,8.23c-2.46-5.28-7.91-6.75-13.21-8.19-4.29-1.16-8.72-2.36-12.52-5.4a1.71,1.71,0,0,0-1.43-.33,1.69,1.69,0,0,0-1.15.9,13.3,13.3,0,0,1-5.29,5.28,1.71,1.71,0,0,0,1.53,3,16.14,16.14,0,0,0,5.75-5.11c4,2.66,8.32,3.84,12.22,4.9,1.28.34,2.46.67,3.53,1h-.11a5.74,5.74,0,0,0-4.9,2.76,7,7,0,0,0-6.31,0,5.73,5.73,0,1,0,.79,3.61,3.41,3.41,0,0,1,4.73,0,5.73,5.73,0,1,0,9.59-4.83A8.24,8.24,0,0,1,788,571.4a1.34,1.34,0,0,0-.05.35,16.63,16.63,0,0,1-.38,3.06,16.43,16.43,0,0,1-32,0,16.61,16.61,0,0,1-.37-3.06,1.74,1.74,0,0,0-.51-1.15,20.28,20.28,0,0,1-3.56-11.48Zm30.84,10.07a2.33,2.33,0,1,1-2.33-2.33,2.33,2.33,0,0,1,2.33,2.33Zm-16.12,0a2.33,2.33,0,1,1-2.33-2.33h0a2.33,2.33,0,0,1,2.32,2.32Zm15.52,22.66a14.39,14.39,0,0,1-19.57,0,5.72,5.72,0,0,0,2.55-2.19,19.66,19.66,0,0,0,14.47,0,5.76,5.76,0,0,0,2.55,2.18Zm-30.71.8a4.31,4.31,0,0,1,1.49-7.43,1.7,1.7,0,0,0,1.13-2.07,3.66,3.66,0,0,1-.13-.87,3.3,3.3,0,0,1,.75-2.11,19.85,19.85,0,0,0,5.23,6.46,18.44,18.44,0,0,0,2.12,1.5,2.29,2.29,0,0,1-.89.64Zm20.93,11.09A22.33,22.33,0,0,1,753.88,595l4.41-1.76a17.82,17.82,0,0,0,25.18,1.25,16.38,16.38,0,0,0,1.25-1.25l4.41,1.77a22.39,22.39,0,0,1-17.62,8.73Zm20.92-11.09-9.7-3.88a2.36,2.36,0,0,1-.89-.64,18.44,18.44,0,0,0,2.12-1.5,19.85,19.85,0,0,0,5.23-6.46,3.31,3.31,0,0,1,.76,2.11,3.67,3.67,0,0,1-.14.87,1.7,1.7,0,0,0,1.13,2.07,4.32,4.32,0,0,1,1.49,7.43Z" transform="translate(-36.77 -31.18)"/><path class="cls-3" d="M415.26,582.48,403.71,579v-4.68a18.74,18.74,0,0,0,7.57-13.69,5.4,5.4,0,0,0,2-9.29v-11.1a9.22,9.22,0,0,0-4.08-7.62,7.27,7.27,0,0,0-7-5.42H386.87a15,15,0,0,0-14.93,14.94v9.22a5.4,5.4,0,0,0-.65,7.6,5.51,5.51,0,0,0,2.6,1.69,18.74,18.74,0,0,0,7.57,13.69V579l-13.83,4.14a7.28,7.28,0,0,0-5.21,7v18.6a1.61,1.61,0,0,0,1.61,1.61h.29v19.33a1.61,1.61,0,0,0,3.22,0v-19.3h6.3v19.33a1.61,1.61,0,0,0,3.22,0V599.25a1.62,1.62,0,0,0-.17-.72l-3.81-7.61a1.61,1.61,0,0,0-2.88,1.44l3.64,7.27v7.53h-8.2v-17a4.08,4.08,0,0,1,2.92-3.93l5.78-1.73a18.75,18.75,0,0,0,36.49,0l3.5,1a1.49,1.49,0,0,0,.47.07,1.61,1.61,0,0,0,.46-3.15Zm-38.2-23.21a1.61,1.61,0,0,0-1.61-1.61,2.2,2.2,0,0,1-2.2-2.19,2.17,2.17,0,0,1,1.1-1.89l.11-.07a2.17,2.17,0,0,1,1-.24h2.43a3.52,3.52,0,0,0,3.34-2.41l1.11-3.32c3.78-.08,15.7-.61,22.39-4a1.61,1.61,0,0,0-1.43-2.88c-7.19,3.59-22,3.64-22.13,3.64a1.61,1.61,0,0,0-1.53,1.1l-1.47,4.41a.29.29,0,0,1-.28.2h-2.73v-7.92a11.74,11.74,0,0,1,11.72-11.72H402.1a4.07,4.07,0,0,1,4,3.46,1.62,1.62,0,0,0,.8,1.15,6,6,0,0,1,3.08,5.21v12a1.63,1.63,0,0,0,.8,1.39,2.18,2.18,0,0,1-1.09,4.08h0a1.61,1.61,0,0,0-1.61,1.61,15.53,15.53,0,0,1-31.05.79c0-.26,0-.53,0-.79Zm23.43,17v4a7.91,7.91,0,0,1-15.82,0v-4A18.63,18.63,0,0,0,400.49,576.27ZM402.7,592a15.52,15.52,0,0,1-25.27-8.41l4.23-1.26a11.13,11.13,0,0,0,21.85,0l4.23,1.26A15.6,15.6,0,0,1,402.7,592Z" transform="translate(-36.77 -31.18)"/><path class="cls-3" d="M397.4,563.73a1.61,1.61,0,0,0-2.26.24,3.16,3.16,0,0,1-4.41.71A3.41,3.41,0,0,1,390,564a1.61,1.61,0,1,0-2.49,2,6.36,6.36,0,0,0,8.91,1.2,6.49,6.49,0,0,0,1.2-1.2A1.62,1.62,0,0,0,397.4,563.73Z" transform="translate(-36.77 -31.18)"/><path class="cls-3" d="M385,553.86a1.61,1.61,0,0,0-1.61,1.61v1.9a1.61,1.61,0,0,0,3.22,0h0v-1.9a1.61,1.61,0,0,0-1.61-1.61Z" transform="translate(-36.77 -31.18)"/><path class="cls-3" d="M400.2,553.86a1.61,1.61,0,0,0-1.61,1.61v1.9a1.61,1.61,0,0,0,3.22,0h0v-1.9a1.61,1.61,0,0,0-1.61-1.61Z" transform="translate(-36.77 -31.18)"/><path class="cls-3" d="M448.8,573.25a1.61,1.61,0,0,0-2.26.24,3.15,3.15,0,0,1-4.4.71,3.41,3.41,0,0,1-.71-.71,1.61,1.61,0,0,0-2.71,1.73,1.39,1.39,0,0,0,.21.27,6.36,6.36,0,0,0,8.91,1.2,6.49,6.49,0,0,0,1.2-1.2A1.62,1.62,0,0,0,448.8,573.25Z" transform="translate(-36.77 -31.18)"/><path class="cls-3" d="M436.37,563.38a1.61,1.61,0,0,0-1.61,1.6v1.91a1.61,1.61,0,0,0,3.22,0h0V565a1.61,1.61,0,0,0-1.6-1.62Z" transform="translate(-36.77 -31.18)"/><path class="cls-3" d="M451.6,563.38A1.61,1.61,0,0,0,450,565h0v1.91a1.61,1.61,0,0,0,3.22,0h0V565a1.61,1.61,0,0,0-1.6-1.62Z" transform="translate(-36.77 -31.18)"/><path class="cls-3" d="M467.64,596.32l-13.05-5.22a1.91,1.91,0,0,1-.32-.16,80,80,0,0,0,13.17-3.53,1.6,1.6,0,0,0,1-1.68,268.83,268.83,0,0,1-1.9-28.36,22.55,22.55,0,0,0-45.1,0,268.82,268.82,0,0,1-1.89,28.36,1.6,1.6,0,0,0,1,1.68,78.89,78.89,0,0,0,13.16,3.53,1.82,1.82,0,0,1-.31.16l-13.06,5.22a7.3,7.3,0,0,0-4.6,6.8v4h-4.39v-7.53l3.63-7.27a1.61,1.61,0,1,0-2.76-1.66,2.26,2.26,0,0,0-.11.22l-3.81,7.61a1.62,1.62,0,0,0-.17.72v30.46a1.61,1.61,0,0,0,3.22,0V610.38h4.39v2.2a1.6,1.6,0,0,0,1.59,1.61h.32v15.52a1.61,1.61,0,1,0,3.21.25,1,1,0,0,0,0-.25V614.19h4.4v15.52a1.61,1.61,0,1,0,3.22,0V608.77a1.61,1.61,0,1,0-3.22,0V611H419v-7.85a4.08,4.08,0,0,1,2.58-3.81l6.42-2.57a16.83,16.83,0,0,0,32.09,0l6.42,2.57a4.08,4.08,0,0,1,2.58,3.81V611h-6.3v-2.2a1.61,1.61,0,0,0-3.22,0v20.94a1.61,1.61,0,1,0,3.22,0V614.19h4.39v15.52a1.61,1.61,0,0,0,3.22,0V614.19h.3a1.62,1.62,0,0,0,1.61-1.61v-9.46A7.29,7.29,0,0,0,467.64,596.32Zm-43-39a19.34,19.34,0,0,1,38.67,0,271.38,271.38,0,0,0,1.76,27.48,95,95,0,0,1-11.87,3v-2.7a17.59,17.59,0,0,0,2.55-1.73,18.74,18.74,0,0,0,7-14.58c0-9.37-6.79-10.72-13.36-12-4.19-.83-8.53-1.7-12-4.46A1.56,1.56,0,0,0,436,552a1.59,1.59,0,0,0-1.1.85,18.86,18.86,0,0,1-2.43,3.52c-1.3,1.46-3.32,3.21-5.65,3.21a5.31,5.31,0,0,0-2.22.48c0-.91,0-1.81,0-2.69Zm19.33,27a15.32,15.32,0,0,1-9.75-3.45,15.58,15.58,0,0,1-5.39-8.63,16,16,0,0,1-.38-3.45,1.61,1.61,0,0,0-1.61-1.61,2.2,2.2,0,0,1-.3-4.39h.3c4.88,0,8.42-4.42,10-6.89,3.75,2.41,8,3.26,11.88,4,7.07,1.4,10.76,2.43,10.76,8.86a15.4,15.4,0,0,1-.39,3.45,15.56,15.56,0,0,1-5.38,8.63,15.3,15.3,0,0,1-9.71,3.48Zm-21.09.53c.28-2.5.91-8.37,1.33-15.14a5.31,5.31,0,0,0,1.07.46,18.73,18.73,0,0,0,6.92,13.2,17.59,17.59,0,0,0,2.55,1.73v2.77a95,95,0,0,1-11.86-3ZM444,605.26A13.61,13.61,0,0,1,431,595.54l3.64-1.45a5.4,5.4,0,0,0,3.41-5v-2.52a18.68,18.68,0,0,0,12,0v2.52a5.41,5.41,0,0,0,3.4,5l3.65,1.45A13.61,13.61,0,0,1,444,605.26Z" transform="translate(-36.77 -31.18)"/><path class="cls-3" d="M1078.1,464.6a1.61,1.61,0,0,0-2.26.24,3.16,3.16,0,0,1-4.41.71,3.41,3.41,0,0,1-.71-.71,1.61,1.61,0,0,0-2.5,2,6.37,6.37,0,0,0,8.93,1.19,6.1,6.1,0,0,0,1.19-1.19A1.61,1.61,0,0,0,1078.1,464.6Z" transform="translate(-36.77 -31.18)"/><path class="cls-3" d="M1065.66,454.72a1.61,1.61,0,0,0-1.6,1.61v1.91a1.61,1.61,0,0,0,3.21,0v-1.91A1.61,1.61,0,0,0,1065.66,454.72Z" transform="translate(-36.77 -31.18)"/><path class="cls-3" d="M1080.89,454.72a1.61,1.61,0,0,0-1.6,1.61v1.91a1.61,1.61,0,0,0,3.21,0v-1.91A1.61,1.61,0,0,0,1080.89,454.72Z" transform="translate(-36.77 -31.18)"/><path class="cls-3" d="M1057.58,499.4l-3.8-7.62a1.62,1.62,0,0,0-2.16-.72,1.6,1.6,0,0,0-.72,2.16l3.64,7.28v30.08a1.61,1.61,0,1,0,3.21.25,1,1,0,0,0,0-.25V500.12A1.5,1.5,0,0,0,1057.58,499.4Z" transform="translate(-36.77 -31.18)"/><path class="cls-3" d="M1094.94,491.06a1.62,1.62,0,0,0-2.16.72L1089,499.4a1.62,1.62,0,0,0-.17.72v30.46a1.61,1.61,0,1,0,3.22,0h0V500.5l3.64-7.28a1.61,1.61,0,0,0-.74-2.15Z" transform="translate(-36.77 -31.18)"/><path class="cls-3" d="M1129.5,474.12a1.61,1.61,0,0,0-2.26.24,3.18,3.18,0,0,1-4.43.69,3.22,3.22,0,0,1-.69-.69,1.61,1.61,0,0,0-2.5,2,6.37,6.37,0,0,0,8.93,1.19,6.1,6.1,0,0,0,1.19-1.19A1.61,1.61,0,0,0,1129.5,474.12Z" transform="translate(-36.77 -31.18)"/><path class="cls-3" d="M1117.07,464.24a1.61,1.61,0,0,0-1.61,1.61v1.9a1.61,1.61,0,1,0,3.21.25,1,1,0,0,0,0-.25v-1.9A1.61,1.61,0,0,0,1117.07,464.24Z" transform="translate(-36.77 -31.18)"/><path class="cls-3" d="M1132.3,464.24a1.61,1.61,0,0,0-1.61,1.61v1.9a1.61,1.61,0,1,0,3.21.25,1,1,0,0,0,0-.25v-1.9A1.61,1.61,0,0,0,1132.3,464.24Z" transform="translate(-36.77 -31.18)"/><path class="cls-3" d="M1148.34,497.19l-13-5.22a2.21,2.21,0,0,1-1.39-2v-4a17.59,17.59,0,0,0,2.55-1.73,18.63,18.63,0,0,0,7-14.58c0-9.37-6.78-10.72-13.35-12-4.2-.84-8.54-1.7-12-4.47a1.61,1.61,0,0,0-2.26.26,1.67,1.67,0,0,0-.18.28,19.4,19.4,0,0,1-2.44,3.52c-1.29,1.46-3.32,3.2-5.64,3.2a5.37,5.37,0,0,0-2.2.47v-2.66a19.33,19.33,0,0,1,38.66,0h0V462a1.61,1.61,0,0,0,3.22,0v-3.8a22.55,22.55,0,0,0-11.53-19.67,7.81,7.81,0,0,0,.11-1.28c0-5.08-5-9.22-11.13-9.22s-11.13,4.14-11.13,9.22a7.81,7.81,0,0,0,.11,1.28,22.59,22.59,0,0,0-11.53,19.67v7.61A5.42,5.42,0,0,0,1106,471a20,20,0,0,0,.41,2.78,18.85,18.85,0,0,0,6.51,10.42,17.59,17.59,0,0,0,2.55,1.73v4a2.21,2.21,0,0,1-1.39,2l-13,5.22a7.29,7.29,0,0,0-4.6,6.79v9.47a1.6,1.6,0,0,0,1.6,1.6h.3v15.53a1.61,1.61,0,1,0,3.22,0h0V515.05h4.4v15.53a1.61,1.61,0,0,0,3.22,0V509.64a1.61,1.61,0,0,0-3.22,0v2.2h-6.3V504a4.06,4.06,0,0,1,2.58-3.8l10.15-4.07A29.51,29.51,0,0,0,1124,507.27a1.59,1.59,0,0,0,1.44,0A29.53,29.53,0,0,0,1137,496.11l10.16,4.07a4.07,4.07,0,0,1,2.57,3.8v7.86h-6.3v-2.2a1.61,1.61,0,0,0-3.21-.25,1,1,0,0,0,0,.25v20.94a1.61,1.61,0,1,0,3.21.25,1,1,0,0,0,0-.25V515.05h4.4v15.53a1.61,1.61,0,1,0,3.22,0h0V515.05h.29a1.61,1.61,0,0,0,1.61-1.61V504A7.27,7.27,0,0,0,1148.34,497.19Zm-23.66-65.9c4.28,0,7.78,2.6,7.9,5.83a22.5,22.5,0,0,0-15.8,0c.12-3.23,3.62-5.83,7.9-5.83Zm-9.75,50.45a15.58,15.58,0,0,1-5.39-8.63,15.39,15.39,0,0,1-.38-3.45,1.61,1.61,0,0,0-1.61-1.61,2.2,2.2,0,0,1,0-4.4c4.88,0,8.41-4.42,10-6.89,3.75,2.42,8,3.27,11.88,4,7.08,1.41,10.77,2.44,10.77,8.87a15.4,15.4,0,0,1-.39,3.45,15.53,15.53,0,0,1-24.89,8.63Zm9.75,22.27a26.88,26.88,0,0,1-9.28-9.11,5.38,5.38,0,0,0,3.27-5v-2.52a18.68,18.68,0,0,0,12,0v2.52a5.38,5.38,0,0,0,3.27,5,27,27,0,0,1-9.26,9.1Z" transform="translate(-36.77 -31.18)"/><path class="cls-3" d="M1098.23,484l-10.45-3.13-1.74-2.62a1.65,1.65,0,0,0-1.11-.7,1.51,1.51,0,0,0-.52,0v-2.39a18.78,18.78,0,0,0,7.56-13.69,5.4,5.4,0,0,0,2-9.29V441.1a9.19,9.19,0,0,0-4.08-7.61,7.28,7.28,0,0,0-7-5.42h-15.23a15,15,0,0,0-15,14.93v9.22a5.4,5.4,0,0,0,2,9.29,18.73,18.73,0,0,0,7.56,13.69v2.39a1.51,1.51,0,0,0-.52,0,1.59,1.59,0,0,0-1.11.7l-1.74,2.62L1048.33,484a7.29,7.29,0,0,0-5.22,7v39.54a1.61,1.61,0,1,0,3.22,0h0V491a4.09,4.09,0,0,1,2.93-3.93l7.18-2.15a1.66,1.66,0,0,0,.35.93l6.47,8.08a3.46,3.46,0,0,0,2.73,1.33,3.53,3.53,0,0,0,2.12-.71l3.56-2.68v38.67a1.61,1.61,0,0,0,3.22,0V491.91l3.56,2.68a3.57,3.57,0,0,0,2.11.71,3.48,3.48,0,0,0,2.74-1.33l6.47-8.08a1.66,1.66,0,0,0,.35-.93l7.18,2.15a4.09,4.09,0,0,1,2.93,3.93,1.61,1.61,0,1,0,3.21.25,1,1,0,0,0,0-.25A7.27,7.27,0,0,0,1098.23,484Zm-40.48-23.89a1.61,1.61,0,0,0-1.6-1.61,2.19,2.19,0,0,1-1.1-4.09l.1-.07a2.3,2.3,0,0,1,1-.24h2.24a3.52,3.52,0,0,0,3.45-2.82l1.17-5.85a.28.28,0,0,1,.12-.19.39.39,0,0,1,.26,0,35.53,35.53,0,0,0,9.89,1.28,32.31,32.31,0,0,0,12-2,1.62,1.62,0,1,0-1.24-3,29.66,29.66,0,0,1-10.8,1.78,33.71,33.71,0,0,1-9-1.14,3.5,3.5,0,0,0-4.36,2.34c0,.11-.06.22-.08.33l-1.17,5.85a.3.3,0,0,1-.29.24h-2.54V443a11.74,11.74,0,0,1,11.72-11.72h15.23a4.07,4.07,0,0,1,4,3.46,1.62,1.62,0,0,0,.8,1.15,6,6,0,0,1,3.08,5.2v12a1.57,1.57,0,0,0,.8,1.39,2.19,2.19,0,0,1-1.1,4.09,1.61,1.61,0,0,0-1.61,1.61,15.53,15.53,0,0,1-31,0Zm8.43,31.87a.29.29,0,0,1-.41-.05h0L1060,484.8l2.16-3.24,8.49,7.07Zm7.1-5.41-7.91-6.59V477.1a18.78,18.78,0,0,0,15.82,0V480Zm7.51,5.36a.29.29,0,0,1-.41.05h0l-4.51-3.38,8.49-7.07,2.16,3.24Z" transform="translate(-36.77 -31.18)"/><path class="cls-3" d="M1067.59,504.22h0a1.6,1.6,0,0,0-1.6,1.6h0a1.62,1.62,0,1,0,1.63-1.61h0Z" transform="translate(-36.77 -31.18)"/><path class="cls-3" d="M1067.59,519.45h0a1.6,1.6,0,0,0-1.6,1.6h0a1.62,1.62,0,1,0,1.63-1.61h0Z" transform="translate(-36.77 -31.18)"/><path class="cls-3" d="M1067.59,511.84h0a1.6,1.6,0,0,0-1.6,1.6,1.62,1.62,0,1,0,1.64-1.6h0Z" transform="translate(-36.77 -31.18)"/><path class="cls-4" d="M1328.76,410a3,3,0,1,0,.33.33A2.57,2.57,0,0,0,1328.76,410Z" transform="translate(-36.77 -31.18)"/><path class="cls-4" d="M1326.65,421.66a3,3,0,0,0-3,3v21.71a3,3,0,0,0,6,0V424.65A3,3,0,0,0,1326.65,421.66Z" transform="translate(-36.77 -31.18)"/><path class="cls-4" d="M1375.36,516.74l-34.66-60V401.56a10.16,10.16,0,0,0-3-19.88h-37.08a10.17,10.17,0,0,0-3,19.88V456.7l-12.16,21.06a3,3,0,0,0,1.1,4.08,2.91,2.91,0,0,0,1.49.41,3,3,0,0,0,2.59-1.5l11.28-19.54a2.91,2.91,0,0,0,.66-.33c.36-.24,8.87-5.88,14.39-.36a12.4,12.4,0,0,0,9.06,3.77,20.84,20.84,0,0,0,10.31-3.16l33.83,58.6a6,6,0,0,1-5.23,9.06h-91.57a6,6,0,0,1-5.23-9.06l10.13-17.55a3,3,0,0,0-5.18-3L1263,516.74a12,12,0,0,0,10.41,18H1365a12,12,0,0,0,10.4-18Zm-40.64-61.69a21.53,21.53,0,0,1-4.84,2.55c-5.42,1.93-7.86-.5-8.66-1.3-5.39-5.39-12.49-4.64-17.6-2.64V402h31.1Zm3-59h-37.08a4.19,4.19,0,0,1,0-8.37h37.08a4.19,4.19,0,1,1,.41,8.37Z" transform="translate(-36.77 -31.18)"/><path class="cls-4" d="M1284.15,487.59a3,3,0,1,0,.9,2.17A3,3,0,0,0,1284.15,487.59Z" transform="translate(-36.77 -31.18)"/><path class="cls-4" d="M1383.76,397.82h-4.19v-4.18a3,3,0,0,0-6,0v4.18h-4.19a3,3,0,0,0,0,6h4.19V408a3,3,0,0,0,6,0v-4.2h4.19a3,3,0,0,0,0-6Z" transform="translate(-36.77 -31.18)"/><path class="cls-4" d="M1285.38,448.06h-4.18v-4.19a3,3,0,0,0-6,0v4.19H1271a3,3,0,0,0,0,6h4.19v4.18a3,3,0,0,0,6,0V454h4.18a3,3,0,0,0,0-6Z" transform="translate(-36.77 -31.18)"/><path class="cls-4" d="M1252.79,390.65A10.17,10.17,0,1,0,1263,400.81a10.17,10.17,0,0,0-10.21-10.16Zm0,14.35a4.19,4.19,0,1,1,4.19-4.19h0A4.2,4.2,0,0,1,1252.79,405Z" transform="translate(-36.77 -31.18)"/><path class="cls-4" d="M1385.55,469.13a10.17,10.17,0,1,0,10.17,10.17A10.17,10.17,0,0,0,1385.55,469.13Zm0,14.35a4.19,4.19,0,1,1,4.19-4.19h0A4.19,4.19,0,0,1,1385.55,483.48Z" transform="translate(-36.77 -31.18)"/><path class="cls-4" d="M1335.68,498.91a10.17,10.17,0,1,0,10.17,10.17h0A10.18,10.18,0,0,0,1335.68,498.91Zm0,14.35a4.19,4.19,0,1,1,4.19-4.19h0A4.2,4.2,0,0,1,1335.68,513.26Z" transform="translate(-36.77 -31.18)"/><path class="cls-4" d="M1306.31,483.48a9,9,0,1,0,9,9A9,9,0,0,0,1306.31,483.48Zm0,12a3,3,0,1,1,3-3,3,3,0,0,1-3,3Z" transform="translate(-36.77 -31.18)"/><path class="cls-4" d="M1292.87,510.72a3,3,0,1,0,.86,2.08A3.05,3.05,0,0,0,1292.87,510.72Z" transform="translate(-36.77 -31.18)"/><path class="cls-4" d="M1330.62,470a3,3,0,1,0,0,4.22A3,3,0,0,0,1330.62,470Z" transform="translate(-36.77 -31.18)"/><path class="cls-4" d="M1316.5,439.66a3,3,0,1,0,.87,2.09A3,3,0,0,0,1316.5,439.66Z" transform="translate(-36.77 -31.18)"/><path class="cls-4" d="M1312.41,416.94a3,3,0,1,0,0,4.27,3,3,0,0,0,0-4.27Z" transform="translate(-36.77 -31.18)"/><path class="cls-4" d="M1365.84,434.88a3,3,0,0,0-4.28,4.2,3,3,0,0,0,2.16.9,3,3,0,0,0,3-3A3.05,3.05,0,0,0,1365.84,434.88Z" transform="translate(-36.77 -31.18)"/><path class="cls-4" d="M1280.32,419.93a3,3,0,1,0,.86,2.09,3,3,0,0,0-.86-2.09Z" transform="translate(-36.77 -31.18)"/><path class="cls-3" d="M191.76,433.09l-8.93-12.41a1.84,1.84,0,0,0-2.57-.43,2,2,0,0,0-.43.43l-8.93,12.41a1.78,1.78,0,0,0-.35,1.07V493.9a6.87,6.87,0,0,0,6.86,6.86h7.82a6.87,6.87,0,0,0,6.86-6.86V434.16A1.85,1.85,0,0,0,191.76,433.09Zm-10.42-8.21,5.57,7.74H175.77Zm-7.1,11.4h8.7v47.45h-3.2v-35a1.83,1.83,0,1,0-3.66,0h0v35h-1.84Zm14.2,57.62a3.19,3.19,0,0,1-3.19,3.19h-7.82a3.19,3.19,0,0,1-3.19-3.19h0v-6.5h14.2Zm0-10.17H186.6V436.28h1.84Z" transform="translate(-36.77 -31.18)"/><path class="cls-3" d="M179.71,441a1.93,1.93,0,0,0-.11-.34,1.34,1.34,0,0,0-.17-.31,1.51,1.51,0,0,0-.22-.28,3.11,3.11,0,0,0-.28-.23,2,2,0,0,0-.32-.17,1.91,1.91,0,0,0-.34-.1,1.75,1.75,0,0,0-.72,0,1.91,1.91,0,0,0-.34.1,2,2,0,0,0-.32.17,3.11,3.11,0,0,0-.28.23,1.51,1.51,0,0,0-.22.28,1.34,1.34,0,0,0-.17.31,1.93,1.93,0,0,0-.11.34,2.16,2.16,0,0,0,0,.36,1.81,1.81,0,0,0,.54,1.3,1.84,1.84,0,0,0,1.29.54h.36a1.35,1.35,0,0,0,.34-.11,1.91,1.91,0,0,0,.32-.16,3.11,3.11,0,0,0,.28-.23,1.93,1.93,0,0,0,.22-.28,1.41,1.41,0,0,0,.17-.32,1.93,1.93,0,0,0,.11-.34,2.18,2.18,0,0,0,0-.72Z" transform="translate(-36.77 -31.18)"/><path class="cls-3" d="M146.3,454.23V454a2.62,2.62,0,0,1,2.62-2.62H149l5.58-.24a6,6,0,0,0,0-11.89H142.06a2.28,2.28,0,0,1-2.28-2.28,2.21,2.21,0,0,1,.68-1.61,2.16,2.16,0,0,1,1.54-.63h11A7.38,7.38,0,0,0,153,420H140.56a1.83,1.83,0,0,0,0,3.66H153a3.72,3.72,0,0,1,.39,7.43H142.08a5.92,5.92,0,0,0-6,5.82V437a6,6,0,0,0,5.94,5.95h12.47a2.28,2.28,0,0,1,0,4.56h-.08l-5.58.24a6.3,6.3,0,0,0-6.24,6.28v.28a16,16,0,0,0-14.15,15.88V484.8a16,16,0,0,0,32,0V470.11A16,16,0,0,0,146.3,454.23Zm-14.16,15.88a12.35,12.35,0,0,1,10.5-12.19v14.95h-10.5ZM156.8,484.8a12.33,12.33,0,0,1-24.66,0v-8.27H156.8Zm0-11.93H146.3V457.92a12.35,12.35,0,0,1,10.5,12.19Z" transform="translate(-36.77 -31.18)"/><path class="cls-3" d="M135.3,421.39a1.33,1.33,0,0,0-.1-.34,2,2,0,0,0-.17-.32,3.11,3.11,0,0,0-.23-.28,1.83,1.83,0,0,0-1.29-.53,1.86,1.86,0,0,0-1.3.53,1.93,1.93,0,0,0-.22.28,1.41,1.41,0,0,0-.17.32,1.93,1.93,0,0,0-.11.34,2.18,2.18,0,0,0,0,.72,1.35,1.35,0,0,0,.11.34,1.41,1.41,0,0,0,.17.32,1.44,1.44,0,0,0,.22.27,1.23,1.23,0,0,0,.28.23,2,2,0,0,0,.32.17,1.93,1.93,0,0,0,.34.11h.36a1.78,1.78,0,0,0,1.29-.54,1.49,1.49,0,0,0,.23-.27,2,2,0,0,0,.17-.32,1.74,1.74,0,0,0,.1-1.06Z" transform="translate(-36.77 -31.18)"/><path class="cls-3" d="M222.27,438.2c-.21-4.33-2.38-6.47-4.13-8.18s-3-3-2-6.67a2.57,2.57,0,0,0-.63-2.91c-.55-.47-1.54-.86-3.11-.08-2,1-5.1,3.95-7.48,7.17-2.18,3-4.74,7.39-4.54,11.69a12,12,0,0,0,3.74,8.24,9,9,0,0,0-1,8.86v35.81a7.91,7.91,0,0,0,15.81,0V457.51a9,9,0,0,0,1.34-4.74,8.85,8.85,0,0,0-1.72-5.25A12,12,0,0,0,222.27,438.2Zm-7,53.93a4.24,4.24,0,0,1-8.47.41,2.81,2.81,0,0,1,0-.41V460.48a9.12,9.12,0,0,0,3.2,1.12h2.74l.37-.06.22-.05h.1a10.39,10.39,0,0,0,1.87-.66v31.32Zm-1.45-34.71h0l-.16.08h-.08l-.12.06-.12.05h-.1l-.15.05H213l-.17,0H210.4l-.27-.06h-.48a5.31,5.31,0,0,1-3.58-5,5.25,5.25,0,0,1,2.06-4.17l.15-.11.26-.18.11-.07.38-.2h0l.23-.1h0l.4-.14h.13l.28-.08h2.42l.29.07h.11l.39.14h.06c.22.1.43.21.64.33l.13.08.25.17.16.12a5.27,5.27,0,0,1-.77,8.8Zm2-12.37-.12-.07-.29-.15-.15-.08a8.8,8.8,0,0,0-1-.42h-.06l-.53-.16h0a8.41,8.41,0,0,0-1.11-.23h-1.88l-.44.05h-.1a8.29,8.29,0,0,0-1.62.38h-.05l-.49.19h0l-.49.22-.11.06L207,445l-.1.05a8.29,8.29,0,0,1-2.83-6c-.12-2.63,1.41-6.22,4.22-9.86a29,29,0,0,1,3.84-4.14c-.31,3.91,1.73,5.91,3.43,7.58s2.9,2.85,3,5.74a8.22,8.22,0,0,1-2.73,6.68Z" transform="translate(-36.77 -31.18)"/><path class="cls-3" d="M96.38,101.32a1.43,1.43,0,0,0,1.44,1.44h11.47a1.44,1.44,0,0,0,1.43-1.44V89.85A7.16,7.16,0,0,0,105.4,83a8.61,8.61,0,1,0-12.3,0,7.16,7.16,0,0,0-5.32,6.9v4.93a1.44,1.44,0,0,0,2.87,0v-5a4.29,4.29,0,0,1,4.28-4.3h8.62a4.31,4.31,0,0,1,4.31,4.29h0v10h-10a1.43,1.43,0,0,0-1.48,1.38ZM99.25,71.2a5.74,5.74,0,1,1-5.74,5.74h0A5.74,5.74,0,0,1,99.25,71.2Z" transform="translate(-36.77 -31.18)"/><path class="cls-3" d="M103.55,92.72a1.44,1.44,0,0,0,.24-2.87h-3.1a1.44,1.44,0,0,0-.24,2.87,1,1,0,0,0,.24,0Z" transform="translate(-36.77 -31.18)"/><path class="cls-3" d="M153.93,129.48l-17.25-17.24a4.4,4.4,0,0,0-4.87-.81l-7.6-7.6a30.12,30.12,0,1,0-44.1,6.39A1.44,1.44,0,1,0,81.93,108a27.29,27.29,0,1,1,39-4.64c-.35.46-.7.91-1.07,1.34l-.1.11a26.27,26.27,0,0,1-2.69,2.69l-.13.13a14.79,14.79,0,0,1-1.32,1,27.1,27.1,0,0,1-16.41,5.54H97.86a1.44,1.44,0,0,0-.34,2.86h1.69a29.93,29.93,0,0,0,16.84-5.16l8.43,8.42a1.42,1.42,0,0,0,2,0l6.09-6.09a1.48,1.48,0,0,1,2,0l17.24,17.25a1.42,1.42,0,0,1,0,2l-6.09,6.09a1.38,1.38,0,0,1-1,.42,1.49,1.49,0,0,1-1-.42l-11.29-11.3a1.44,1.44,0,0,0-2,2l11.3,11.3a4.3,4.3,0,0,0,6.08,0l6.09-6.09a4.3,4.3,0,0,0,0-6.08Zm-31.46-23.34,7.12,7.12-4.06,4-7.12-7.11A29.59,29.59,0,0,0,122.47,106.14Z" transform="translate(-36.77 -31.18)"/><path class="cls-3" d="M99.25,108.49a1.44,1.44,0,0,0,0,2.87,24.32,24.32,0,0,0,24.39-24.23,24.86,24.86,0,0,0-.8-6.25,1.45,1.45,0,0,0-1.75-1,1.43,1.43,0,0,0-1,1.75,21.44,21.44,0,0,1-20.81,26.89Z" transform="translate(-36.77 -31.18)"/><path class="cls-3" d="M111.05,65.65A24.36,24.36,0,0,0,83,105.1a1.43,1.43,0,0,0,2.34-1.48,1.41,1.41,0,0,0-.43-.66,21.5,21.5,0,0,1,24.78-34.8,1.43,1.43,0,1,0,1.39-2.51Z" transform="translate(-36.77 -31.18)"/><path class="cls-3" d="M82,132.87a1.44,1.44,0,0,0,0,2.87h8.61a1.44,1.44,0,0,0,0-2.87Z" transform="translate(-36.77 -31.18)"/><path class="cls-3" d="M109.29,120H93.51V101.32a1.43,1.43,0,0,0-2.67-.72L79.77,120h-2a4.31,4.31,0,0,0-4.31,4.29h0v14.34a4.31,4.31,0,0,0,4.3,4.3h31.56a4.29,4.29,0,0,0,4.3-4.28v-2.89a1.44,1.44,0,0,0-2.87,0v2.87a1.44,1.44,0,0,1-1.43,1.44H77.74a1.46,1.46,0,0,1-1.44-1.44V124.27a1.44,1.44,0,0,1,1.44-1.43h2.87a1.45,1.45,0,0,0,1.24-.72l8.8-15.4V121.4a1.44,1.44,0,0,0,1.43,1.44h17.21a1.43,1.43,0,0,1,1.43,1.43h0v2.87a1.44,1.44,0,0,0,2.87,0v-2.87A4.28,4.28,0,0,0,109.29,120Z" transform="translate(-36.77 -31.18)"/><path class="cls-3" d="M96.38,128.57A1.43,1.43,0,0,0,95,127.14H85a1.44,1.44,0,0,0-.24,2.87,1,1,0,0,0,.24,0H95A1.44,1.44,0,0,0,96.38,128.57Z" transform="translate(-36.77 -31.18)"/><path class="cls-3" d="M107.86,128.57a1.44,1.44,0,0,0-1.44-1.43h-5.73a1.44,1.44,0,0,0-.24,2.87,1,1,0,0,0,.24,0h5.73A1.46,1.46,0,0,0,107.86,128.57Z" transform="translate(-36.77 -31.18)"/><path class="cls-3" d="M96.38,135.74h5.74a1.44,1.44,0,0,0,0-2.87H96.38a1.44,1.44,0,0,0,0,2.87Z" transform="translate(-36.77 -31.18)"/><path class="cls-3" d="M132.24,68.33h12.91a1.43,1.43,0,0,0,0-2.86H132.24a1.43,1.43,0,0,0,0,2.86Z" transform="translate(-36.77 -31.18)"/><path class="cls-3" d="M132.24,75.51h12.91a1.44,1.44,0,0,0,0-2.87H132.24a1.44,1.44,0,0,0-.24,2.87Z" transform="translate(-36.77 -31.18)"/><path class="cls-3" d="M145.15,79.81H138a1.44,1.44,0,0,0-.24,2.87h7.41a1.44,1.44,0,0,0,0-2.87Z" transform="translate(-36.77 -31.18)"/><path class="cls-3" d="M145.15,87H138a1.44,1.44,0,0,0-.24,2.87h7.41a1.44,1.44,0,0,0,0-2.87Z" transform="translate(-36.77 -31.18)"/><path class="cls-3" d="M135.11,98.45a1.44,1.44,0,0,0-.24,2.87,1,1,0,0,0,.24,0h8.6a2.86,2.86,0,0,0,2.87-2.85V95.58a2.86,2.86,0,0,0-2.86-2.86h-8.61a1.43,1.43,0,0,0,0,2.86h8.6v2.87Z" transform="translate(-36.77 -31.18)"/><path class="cls-4" d="M1822.68,157.67a3.33,3.33,0,1,0,0,4.71A3.33,3.33,0,0,0,1822.68,157.67Z" transform="translate(-36.77 -31.18)"/><path class="cls-4" d="M1865.05,115.31a16.65,16.65,0,1,0,0,23.54h0a16.64,16.64,0,0,0,0-23.53Zm-4.71,18.82a10,10,0,1,1,0-14.11h0a10,10,0,0,1,0,14.11Z" transform="translate(-36.77 -31.18)"/><path class="cls-4" d="M1902.71,77.64a3.35,3.35,0,0,0-2.48-1,148.08,148.08,0,0,0-40,8.25c-17.07,6-31.3,14.66-42.29,25.65-2.46,2.46-4.86,5.07-7.16,7.78-10.87-6.4-19.57-4.39-25.07-1.44-12.68,6.75-20.53,25.21-20.53,38.38a3.31,3.31,0,0,0,2.06,3.07,3.24,3.24,0,0,0,1.27.26,3.3,3.3,0,0,0,2.35-1,21.2,21.2,0,0,1,17.63-5.91l1.16,1.17a116.59,116.59,0,0,0-5.49,16.17,9.34,9.34,0,0,0,.4,5.77,31.55,31.55,0,0,0-9,6.34c-8.57,8.58-10.31,29.46-10.38,30.34a3.33,3.33,0,0,0,3.06,3.58h.52c.88-.07,21.75-1.81,30.34-10.38a31.66,31.66,0,0,0,6.33-9,9.41,9.41,0,0,0,5.79.4,116.5,116.5,0,0,0,16.16-5.5l1.17,1.17a21.24,21.24,0,0,1-5.91,17.62,3.33,3.33,0,0,0,2.35,5.68c13.17,0,31.6-7.84,38.38-20.52,2.94-5.51,4.95-14.25-1.44-25.08,2.7-2.29,5.31-4.69,7.78-7.15,11-11,19.63-25.22,25.65-42.29a148.15,148.15,0,0,0,8.25-40A3.37,3.37,0,0,0,1902.71,77.64Zm-130,70.51c2.06-10,8.07-21,16.21-25.35,5.45-2.91,11.41-2.62,17.74.84a134.19,134.19,0,0,0-14,22.8,3.45,3.45,0,0,0-1.77-1,28.45,28.45,0,0,0-18.19,2.76ZM1794.41,200c-4.58,4.57-15.32,7-22.1,8,1-6.79,3.4-17.52,8-22.1a24.2,24.2,0,0,1,8.53-5.6L1800,191.55a24,24,0,0,1-5.61,8.5Zm15.17-10.33a3.15,3.15,0,0,1-2.9-.94l-6.52-6.52-8.6-8.6a3.14,3.14,0,0,1-1-2.91,107.82,107.82,0,0,1,4.16-12.75l27.53,27.53a109,109,0,0,1-12.69,4.2Zm47.94,1.76c-4.36,8.15-15.34,14.16-25.35,16.22,3.2-6,3.9-13.64,2.73-18.28a3.47,3.47,0,0,0-1-1.68,134.1,134.1,0,0,0,22.79-14c3.49,6.34,3.78,12.29.87,17.74Zm7.5-33.8a120.42,120.42,0,0,1-9.59,8.61,128.07,128.07,0,0,1-26.54,16.45l-31.3-31.3A128.26,128.26,0,0,1,1814,124.9a120.69,120.69,0,0,1,8.62-9.6c9.85-9.86,22.58-17.72,37.83-23.37l27.9,27.9c-5.63,15.26-13.48,28-23.34,37.84Zm25.79-44.88-23.26-23.26a150.78,150.78,0,0,1,29.21-5.94A149.81,149.81,0,0,1,1890.81,112.79Z" transform="translate(-36.77 -31.18)"/><path class="cls-4" d="M1813.27,214.16a3.35,3.35,0,0,0-4.71,0l-9.42,9.43a3.33,3.33,0,0,0,4.54,4.87l.17-.17,9.42-9.42A3.35,3.35,0,0,0,1813.27,214.16Z" transform="translate(-36.77 -31.18)"/><path class="cls-4" d="M1766.19,167.09a3.33,3.33,0,0,0-4.71,0l-9.41,9.41a3.33,3.33,0,0,0,4.7,4.71l9.42-9.41A3.33,3.33,0,0,0,1766.19,167.09Z" transform="translate(-36.77 -31.18)"/><path class="cls-4" d="M1789.73,218.87a3.35,3.35,0,0,0-4.71,0l-22.55,22.55a3.33,3.33,0,0,0,4.71,4.71l22.55-22.54A3.34,3.34,0,0,0,1789.73,218.87Z" transform="translate(-36.77 -31.18)"/><path class="cls-4" d="M1763.09,218.87a3.34,3.34,0,0,0-4.7,0l-22.54,22.55a3.33,3.33,0,0,0,4.7,4.71l22.55-22.54a3.32,3.32,0,0,0,0-4.7Z" transform="translate(-36.77 -31.18)"/><path class="cls-4" d="M1761.48,190.63a3.33,3.33,0,0,0-4.71,0l-22.55,22.54a3.33,3.33,0,0,0,4.71,4.71l22.55-22.54A3.33,3.33,0,0,0,1761.48,190.63Z" transform="translate(-36.77 -31.18)"/><path class="cls-4" d="M1836.81,143.54a3.34,3.34,0,0,0-4.72,0l-4.7,4.71a3.33,3.33,0,1,0,4.7,4.71l4.72-4.71A3.35,3.35,0,0,0,1836.81,143.54Z" transform="translate(-36.77 -31.18)"/><path class="cls-3" d="M438.31,177h4a1.42,1.42,0,1,0,0-2.84h-4a1.42,1.42,0,0,0,0,2.84Z" transform="translate(-36.77 -31.18)"/><path class="cls-3" d="M471.57,174.12H446.88a1.42,1.42,0,0,0,0,2.84h24.69a1.42,1.42,0,1,0,0-2.84Z" transform="translate(-36.77 -31.18)"/><path class="cls-3" d="M467.82,181.32h-9a1.43,1.43,0,0,0,0,2.85h9a1.43,1.43,0,0,0,0-2.85Z" transform="translate(-36.77 -31.18)"/><path class="cls-3" d="M454.07,181.32h-2.81a1.43,1.43,0,0,0,0,2.85h2.81a1.43,1.43,0,0,0,0-2.85Z" transform="translate(-36.77 -31.18)"/><path class="cls-3" d="M446.73,181.32h-8.42a1.43,1.43,0,0,0,0,2.85h8.42a1.43,1.43,0,0,0,0-2.85Z" transform="translate(-36.77 -31.18)"/><path class="cls-3" d="M435.91,158.55a4.17,4.17,0,1,0,4.17-4.17,4.17,4.17,0,0,0-4.17,4.17Zm5.5,0a1.33,1.33,0,1,1-1.33-1.33h0A1.35,1.35,0,0,1,441.41,158.55Z" transform="translate(-36.77 -31.18)"/><path class="cls-3" d="M446.53,158.55a4.17,4.17,0,1,0,4.17-4.17,4.17,4.17,0,0,0-4.17,4.17Zm5.5,0a1.33,1.33,0,1,1-1.33-1.33h0a1.34,1.34,0,0,1,1.3,1.33Z" transform="translate(-36.77 -31.18)"/><path class="cls-3" d="M457.15,158.55a4.18,4.18,0,1,0,4.19-4.17h0a4.17,4.17,0,0,0-4.17,4.17Zm5.5,0a1.33,1.33,0,1,1-1.33-1.33h0A1.34,1.34,0,0,1,462.65,158.55Z" transform="translate(-36.77 -31.18)"/><path class="cls-3" d="M508.61,242.41h4.75a1.43,1.43,0,0,0,0-2.85h-4.75a1.43,1.43,0,0,0,0,2.85Z" transform="translate(-36.77 -31.18)"/><path class="cls-3" d="M508.2,193.29h-1.64a1.42,1.42,0,0,0,0,2.84h1.64a1.42,1.42,0,1,0,0-2.84Z" transform="translate(-36.77 -31.18)"/><path class="cls-3" d="M515.41,193.29h-3.22a1.42,1.42,0,1,0,0,2.84h3.22a1.42,1.42,0,1,0,0-2.84Z" transform="translate(-36.77 -31.18)"/><path class="cls-3" d="M526.63,155.18a6.27,6.27,0,0,0-6.26-6.26H508.24a1.42,1.42,0,0,0,0,2.84h12.13a3.42,3.42,0,0,1,3.42,3.42v10.24H432.44V155.18a3.43,3.43,0,0,1,3.41-3.42H499.4a1.42,1.42,0,1,0,0-2.84H435.85a6.27,6.27,0,0,0-6.26,6.26V224a6.27,6.27,0,0,0,6.26,6.26h27.66v5.1h-4.29a5.21,5.21,0,0,0-5.19,5.19v3.07a2.37,2.37,0,0,0,2.36,2.38h0l65.89.09a4.46,4.46,0,0,0,4.45-4.45v-4.5Zm-90.78,72.2a3.41,3.41,0,0,1-3.41-3.41h0v-5.39h62.79v8.8Zm56.86,2.85h2.52v5.1h-2.52Zm-2.84,0v5.1H466.36v-5.1Zm-33,12.89v-2.6a2.36,2.36,0,0,1,2.35-2.35h36v3.43a4.62,4.62,0,0,0,.26,1.52Zm67-1.52a1.6,1.6,0,0,1-1.6,1.6h-22.6a1.6,1.6,0,0,1-1.6-1.6h0v-3.08H523.9Zm0-5.92h-25.8v-24.8a1.42,1.42,0,0,0-2.84,0v4.85H432.44V168.26h91.35V190a4.51,4.51,0,0,0-1.5-.26H499.67a4.44,4.44,0,0,0-4.44,4.44h0v8a1.42,1.42,0,0,0,2.84,0v-2.1H523.9Zm0-38.4h-25.8V194.2a1.6,1.6,0,0,1,1.6-1.6h22.62a1.61,1.61,0,0,1,1.61,1.6v3.08Z" transform="translate(-36.77 -31.18)"/><path class="cls-3" d="M500.94,207.13h5.24a1.43,1.43,0,0,0,0-2.85h-5.24a1.43,1.43,0,0,0,0,2.85Z" transform="translate(-36.77 -31.18)"/><path class="cls-3" d="M510.25,207.13h2.24a1.43,1.43,0,0,0,0-2.85h-2.24a1.43,1.43,0,0,0,0,2.85Z" transform="translate(-36.77 -31.18)"/><path class="cls-3" d="M516.23,207.13H521a1.43,1.43,0,0,0,0-2.85h-4.8a1.43,1.43,0,0,0,0,2.85Z" transform="translate(-36.77 -31.18)"/><path class="cls-3" d="M500.94,213.52h2.33a1.42,1.42,0,1,0,0-2.84h-2.33a1.42,1.42,0,0,0,0,2.84Z" transform="translate(-36.77 -31.18)"/><path class="cls-3" d="M515.29,212.1a1.41,1.41,0,0,0-1.4-1.42H507.2a1.42,1.42,0,0,0,0,2.84h6.67a1.41,1.41,0,0,0,1.42-1.4Z" transform="translate(-36.77 -31.18)"/><path class="cls-3" d="M521,210.68h-2.64a1.42,1.42,0,1,0,0,2.84H521a1.42,1.42,0,0,0,0-2.84Z" transform="translate(-36.77 -31.18)"/><path class="cls-3" d="M500.94,219.4h4.67a1.42,1.42,0,0,0,0-2.84h-4.67a1.42,1.42,0,0,0,0,2.84Z" transform="translate(-36.77 -31.18)"/><path class="cls-3" d="M509.5,219.4h5.91a1.42,1.42,0,0,0,0-2.84H509.5a1.42,1.42,0,0,0,0,2.84Z" transform="translate(-36.77 -31.18)"/><path class="cls-3" d="M521,216.56h-1.82a1.42,1.42,0,1,0,0,2.84H521a1.42,1.42,0,0,0,0-2.84Z" transform="translate(-36.77 -31.18)"/><path class="cls-3" d="M500.94,225.8h7.14a1.43,1.43,0,0,0,0-2.85h-7.14a1.43,1.43,0,0,0,0,2.85Z" transform="translate(-36.77 -31.18)"/><path class="cls-3" d="M514,223h-1.93a1.43,1.43,0,0,0,0,2.85H514a1.43,1.43,0,0,0,.24-2.85Z" transform="translate(-36.77 -31.18)"/><path class="cls-3" d="M521,223h-3.37a1.43,1.43,0,0,0,0,2.85H521a1.43,1.43,0,0,0,0-2.85Z" transform="translate(-36.77 -31.18)"/><path class="cls-3" d="M1005.68,237h4.05a1.43,1.43,0,0,0,0-2.85h-4.05a1.43,1.43,0,0,0,0,2.85Z" transform="translate(-36.77 -31.18)"/><path class="cls-3" d="M1038.94,234.12h-24.68a1.43,1.43,0,0,0,0,2.85h24.68a1.43,1.43,0,0,0,0-2.85Z" transform="translate(-36.77 -31.18)"/><path class="cls-3" d="M1035.19,241.33h-9a1.42,1.42,0,0,0,0,2.84h9a1.42,1.42,0,0,0,0-2.84Z" transform="translate(-36.77 -31.18)"/><path class="cls-3" d="M1021.45,241.33h-2.82a1.42,1.42,0,1,0,0,2.84h2.82a1.42,1.42,0,0,0,0-2.84Z" transform="translate(-36.77 -31.18)"/><path class="cls-3" d="M1014.1,241.33h-8.42a1.42,1.42,0,1,0,0,2.84h8.42a1.42,1.42,0,0,0,0-2.84Z" transform="translate(-36.77 -31.18)"/><path class="cls-3" d="M1003.28,218.55a4.18,4.18,0,1,0,4.19-4.17h0A4.19,4.19,0,0,0,1003.28,218.55Zm5.5,0a1.33,1.33,0,1,1-1.34-1.32h0A1.33,1.33,0,0,1,1008.78,218.55Z" transform="translate(-36.77 -31.18)"/><path class="cls-3" d="M1013.9,218.55a4.18,4.18,0,1,0,4.19-4.17h0A4.2,4.2,0,0,0,1013.9,218.55Zm5.5,0a1.33,1.33,0,1,1-1.34-1.32h0a1.32,1.32,0,0,1,1.32,1.32Z" transform="translate(-36.77 -31.18)"/><path class="cls-3" d="M1024.53,218.55a4.17,4.17,0,1,0,4.17-4.17A4.17,4.17,0,0,0,1024.53,218.55Zm5.5,0a1.33,1.33,0,1,1-1.34-1.32h0a1.33,1.33,0,0,1,1.3,1.32Z" transform="translate(-36.77 -31.18)"/><path class="cls-3" d="M1076,302.41h4.74a1.42,1.42,0,1,0,0-2.84H1076a1.42,1.42,0,0,0,0,2.84Z" transform="translate(-36.77 -31.18)"/><path class="cls-3" d="M1075.57,253.29h-1.63a1.43,1.43,0,0,0-.24,2.85h1.87a1.43,1.43,0,0,0,0-2.85Z" transform="translate(-36.77 -31.18)"/><path class="cls-3" d="M1082.78,253.29h-3.22a1.43,1.43,0,0,0,0,2.85h3.22a1.43,1.43,0,0,0,0-2.85Z" transform="translate(-36.77 -31.18)"/><path class="cls-3" d="M1094,215.18a6.27,6.27,0,0,0-6.26-6.26h-12.13a1.43,1.43,0,0,0,0,2.85h12.13a3.41,3.41,0,0,1,3.41,3.41h0v10.24H999.81V215.18a3.43,3.43,0,0,1,3.42-3.41h63.54a1.43,1.43,0,0,0,0-2.85h-63.54a6.26,6.26,0,0,0-6.26,6.26h0V284a6.26,6.26,0,0,0,6.26,6.26h27.66v5.1h-4.29a5.2,5.2,0,0,0-5.2,5.19v3.08a2.38,2.38,0,0,0,2.37,2.37l65.9.08a4.44,4.44,0,0,0,4.44-4.44v-4.5Zm-90.78,72.21A3.42,3.42,0,0,1,999.8,284v-5.39h62.79v8.81Zm56.85,2.84h2.52v5.1h-2.52Zm-2.84,0v5.1h-23.51v-5.1Zm-33,12.89v-2.6a2.35,2.35,0,0,1,2.35-2.35h36v3.44a4.29,4.29,0,0,0,.27,1.51Zm67-1.51a1.6,1.6,0,0,1-1.6,1.6H1067a1.6,1.6,0,0,1-1.6-1.6v-3.08h25.82Zm0-5.92h-25.82V270.88a1.43,1.43,0,0,0-2.85,0v4.86H999.81V228.26h91.35V250a4.45,4.45,0,0,0-1.49-.26h-22.62a4.46,4.46,0,0,0-4.45,4.45v8a1.43,1.43,0,0,0,2.85,0v-2.1h25.82Zm0-38.4h-25.82v-3.08a1.6,1.6,0,0,1,1.6-1.6h22.62a1.6,1.6,0,0,1,1.6,1.6Z" transform="translate(-36.77 -31.18)"/><path class="cls-3" d="M1068.31,267.13h5.25a1.42,1.42,0,1,0,0-2.84h-5.25a1.42,1.42,0,0,0,0,2.84Z" transform="translate(-36.77 -31.18)"/><path class="cls-3" d="M1077.63,267.13h2.23a1.42,1.42,0,1,0,0-2.84h-2.23a1.42,1.42,0,0,0,0,2.84Z" transform="translate(-36.77 -31.18)"/><path class="cls-3" d="M1083.6,267.13h4.8a1.42,1.42,0,0,0,0-2.84h-4.8a1.42,1.42,0,0,0,0,2.84Z" transform="translate(-36.77 -31.18)"/><path class="cls-3" d="M1068.31,273.53h2.34a1.43,1.43,0,0,0,0-2.85h-2.34a1.43,1.43,0,0,0,0,2.85Z" transform="translate(-36.77 -31.18)"/><path class="cls-3" d="M1082.67,272.1a1.44,1.44,0,0,0-1.42-1.42h-6.68a1.43,1.43,0,0,0,0,2.85h6.68A1.43,1.43,0,0,0,1082.67,272.1Z" transform="translate(-36.77 -31.18)"/><path class="cls-3" d="M1088.4,270.68h-2.63a1.43,1.43,0,0,0-.24,2.85,1,1,0,0,0,.24,0h2.63a1.43,1.43,0,0,0,0-2.85Z" transform="translate(-36.77 -31.18)"/><path class="cls-3" d="M1068.31,279.41H1073a1.43,1.43,0,0,0,0-2.85h-4.67a1.43,1.43,0,0,0,0,2.85Z" transform="translate(-36.77 -31.18)"/><path class="cls-3" d="M1076.87,279.41h5.91a1.43,1.43,0,0,0,0-2.85h-5.91a1.43,1.43,0,0,0,0,2.85Z" transform="translate(-36.77 -31.18)"/><path class="cls-3" d="M1088.4,276.56h-1.81a1.43,1.43,0,0,0,0,2.85h1.81a1.43,1.43,0,0,0,0-2.85Z" transform="translate(-36.77 -31.18)"/><path class="cls-3" d="M1068.31,285.8h7.14a1.42,1.42,0,1,0,0-2.84h-7.14a1.42,1.42,0,0,0,0,2.84Z" transform="translate(-36.77 -31.18)"/><path class="cls-3" d="M1081.42,283h-1.93a1.42,1.42,0,0,0,0,2.84h1.93a1.42,1.42,0,1,0,0-2.84Z" transform="translate(-36.77 -31.18)"/><path class="cls-3" d="M1088.4,283H1085a1.42,1.42,0,0,0,0,2.84h3.37a1.42,1.42,0,1,0,0-2.84h0Z" transform="translate(-36.77 -31.18)"/><rect class="cls-4" x="32.36" y="128.68" width="125.37" height="12.57" rx="3.5"/><rect class="cls-4" x="91.71" y="288.98" width="230.25" height="12.57" rx="3.5"/><rect class="cls-4" x="392.82" y="231.36" width="528" height="12.57" rx="3.5"/><rect class="cls-4" x="960.2" y="291" width="591.38" height="12.57" rx="3.42"/><rect class="cls-4" x="1561.76" y="291" width="59.09" height="12.57" rx="3.5"/><rect class="cls-4" x="1629.8" y="291" width="26.26" height="12.57" rx="3.5"/><rect class="cls-4" x="1671.51" y="291" width="13.13" height="12.57" rx="3.5"/><rect class="cls-4" x="1561.76" y="522.42" width="59.09" height="12.57" rx="3.5"/><rect class="cls-4" x="1393.56" y="522.42" width="156.22" height="12.57" rx="3.5"/><rect class="cls-4" x="1225.51" y="522.42" width="156.22" height="12.57" rx="3.5"/><rect class="cls-4" x="1006.34" y="522.42" width="205.38" height="12.57" rx="3.5"/><rect class="cls-4" x="1629.8" y="522.42" width="26.26" height="12.57" rx="3.5"/><rect class="cls-4" x="1671.51" y="522.42" width="13.13" height="12.57" rx="3.5"/><rect class="cls-4" x="325.65" y="365.26" width="118.74" height="12.57" rx="3.5"/><rect class="cls-4" x="648.44" y="365.26" width="126.13" height="12.57" rx="3.5"/><g class="cls-5"><text class="cls-6" transform="translate(32.36 177.97)">Analisi bisogni </text><text class="cls-6" transform="translate(32.36 203.82)">cittadini e modelli </text><text class="cls-6" transform="translate(32.36 229.67)">operativi enti</text></g><g class="cls-5"><text class="cls-6" transform="translate(91.71 339.32)">C</text><text class="cls-6" transform="translate(103.43 339.32)">r</text><text class="cls-6" transform="translate(111.12 339.32)">eazione</text><text class="cls-6" transform="translate(91.71 365.17)">p</text><text class="cls-6" transform="translate(103.28 365.17)">r</text><text class="cls-6" transform="translate(110.97 365.17)">ototipo</text></g><g class="cls-5"><text class="cls-7" transform="translate(392.82 280.2)">S</text><text class="cls-6" transform="translate(404.34 280.2)">viluppo </text><text class="cls-7" transform="translate(476.55 280.2)">v</text><text class="cls-6" transform="translate(486.95 280.2)">ersione beta</text></g><g class="cls-5"><text class="cls-7" transform="translate(960.2 342.91)">S</text><text class="cls-6" transform="translate(971.72 342.91)">viluppo </text><text class="cls-7" transform="translate(1043.93 342.91)">v</text><text class="cls-6" transform="translate(1054.33 342.91)">ersione 1.0</text></g><text class="cls-6" transform="translate(1693.12 258)">Lancio MVP</text><text class="cls-8" transform="translate(1699.66 634.88) rotate(-90)">2020</text><text class="cls-8" transform="translate(37.75 634.88) rotate(-90)">2018</text><text class="cls-8" transform="translate(866.95 634.88) rotate(-90)">2019</text><g class="cls-5"><text class="cls-9" transform="translate(325.65 418.12)">T</text><text class="cls-6" transform="translate(335.28 418.12)">est e </text><text class="cls-7" transform="translate(384.46 418.12)">v</text><text class="cls-6" transform="translate(394.88 418.12)">alidazione</text><text class="cls-6" transform="translate(325.65 443.97)">del p</text><text class="cls-6" transform="translate(369.98 443.97)">r</text><text class="cls-6" transform="translate(377.67 443.97)">ototipo </text><text class="cls-6" transform="translate(325.65 469.82)">c</text><text class="cls-6" transform="translate(335.06 469.82)">on i cittadini</text></g><g class="cls-5"><text class="cls-9" transform="translate(648.44 418.12)">T</text><text class="cls-6" transform="translate(658.07 418.12)">est </text><text class="cls-7" transform="translate(691.56 418.12)">v</text><text class="cls-6" transform="translate(701.97 418.12)">ersione beta </text><text class="cls-6" transform="translate(648.44 443.97)">c</text><text class="cls-6" transform="translate(657.85 443.97)">on parlamentari</text><text class="cls-6" transform="translate(648.44 469.82)"><tspan xml:space="preserve"> e sta</tspan></text><text class="cls-10" transform="translate(697.6 469.82)">k</text><text class="cls-6" transform="translate(708.11 469.82)">eholder</text></g><g class="cls-5"><text class="cls-11" transform="translate(1006.34 573.31)">F</text><text class="cls-6" transform="translate(1017.22 573.31)">ase closed-beta per </text><text class="cls-6" transform="translate(1006.34 599.16)">testa</text><text class="cls-6" transform="translate(1053.73 599.16)">r</text><text class="cls-6" transform="translate(1061.42 599.16)">e la app </text><text class="cls-6" transform="translate(1137.01 599.16)">c</text><text class="cls-6" transform="translate(1146.42 599.16)">on </text><text class="cls-6" transform="translate(1006.34 625.01)">i cittadinie gli enti </text><text class="cls-6" transform="translate(1173.82 625.01)">r</text><text class="cls-6" transform="translate(1181.51 625.01)">eali</text></g></svg>