<?xml version="1.0" encoding="UTF-8"?>
<svg width="37px" height="51px" viewBox="0 0 37 51" version="1.1" xmlns="http://www.w3.org/2000/svg" xmlns:xlink="http://www.w3.org/1999/xlink">
    <!-- Generator: Sketch 61.2 (89653) - https://sketch.com -->
    <title>Group 3</title>
    <desc>Created with Sketch.</desc>
    <defs>
        <polygon id="path-1" points="0 0 37 0 37 51 0 51"></polygon>
    </defs>
    <g id="Symbols" stroke="none" stroke-width="1" fill="none" fill-rule="evenodd">
        <g id="Icons/Services" transform="translate(-9.000000, -2.000000)">
            <g id="Group-3" transform="translate(9.000000, 2.000000)">
                <mask id="mask-2" fill="white">
                    <use xlink:href="#path-1"></use>
                </mask>
                <g id="Clip-2"></g>
                <path d="M10.6868838,36.5589316 C9.84622211,36.5589316 9.15967141,35.9088809 9.13589075,35.1008496 C9.24604358,34.0988789 9.70003797,33.6611953 10.7378424,33.5561074 L14.0307944,33.5556094 C13.6345531,34.1361328 13.389952,34.8093926 13.3151099,35.5008809 C13.2771226,35.8513066 13.2904027,36.2069121 13.2904027,36.5589316 L10.6868838,36.5589316 Z M15.8361685,2.53774805 C15.8361685,3.64321289 14.9070757,4.54258594 13.7650893,4.54258594 C12.6225883,4.54258594 11.6930836,3.64321289 11.6930836,2.53774805 L11.6930836,1.9921875 L15.8362715,1.9921875 L15.8362715,2.53774805 L15.8361685,2.53774805 Z M35.9480171,38.9776465 L27.529458,27.1456465 L27.529458,4.67885156 C27.529458,2.09886914 25.3601678,0 22.6937486,0 L4.83560647,0 C2.1692902,0 0,2.09886914 0,4.67885156 L0,18.4712637 C0,19.0214062 0.460891811,19.4673574 1.02946574,19.4673574 C1.59803967,19.4673574 2.05893148,19.0214062 2.05893148,18.4712637 L2.05893148,4.67885156 C2.05893148,3.19746094 3.30458502,1.9921875 4.83570941,1.9921875 L9.63415217,1.9921875 L9.63415217,2.53774805 C9.63415217,4.74170508 11.4872934,6.53477344 13.7650893,6.53477344 C16.0423705,6.53477344 17.8951,4.74170508 17.8951,2.53774805 L17.8951,1.9921875 L22.6937486,1.9921875 C24.224873,1.9921875 25.4704236,3.19746094 25.4704236,4.67885156 L25.4704236,27.4490566 C25.4704236,27.4509492 25.4702177,27.453041 25.4702177,27.4550332 L25.4702177,41.8455 C25.4702177,42.693873 24.7570039,43.3838672 23.8804138,43.3838672 C23.0185451,43.3838672 22.2906098,42.6807246 22.2906098,41.8455 L22.2906098,35.9530078 C22.2906098,33.3765117 20.0271235,31.5630234 17.4657098,31.5630234 L10.6867809,31.5639199 C10.6546616,31.5639199 10.6226452,31.5654141 10.5908347,31.5682031 C8.52160854,31.7559668 7.27513143,32.9622363 7.08087124,34.9643848 C7.07788579,34.9954629 7.07634159,35.0264414 7.07634159,35.0576191 C7.07634159,36.9839648 8.69600004,38.5512187 10.6869868,38.5512187 L13.2905056,38.5512187 L13.2905056,43.3840664 L4.83581236,43.3840664 C3.30468797,43.3840664 2.05913737,42.178793 2.05913737,40.6974023 L2.05913737,27.1995352 C2.05913737,26.6494922 1.59824556,26.2034414 1.02967163,26.2034414 C0.461097704,26.2034414 0,26.6494922 0,27.1995352 L0,40.6972031 C0,43.2769863 2.1694961,45.3760547 4.83581236,45.3760547 L13.2909174,45.3760547 L13.2909174,50.0039062 C13.2909174,50.5540488 13.7518092,51 14.3203832,51 C14.8889571,51 15.3498489,50.5540488 15.3498489,50.0039062 L15.3498489,35.9543027 C15.3498489,34.6633652 16.4743343,33.5867871 17.8068748,33.5915684 C19.1208848,33.5996367 20.2313695,34.6780078 20.2313695,35.953207 L20.2313695,41.8457988 C20.2313695,43.7749336 21.9158843,45.3976699 23.9137685,45.3761543 C25.9075348,45.3761543 27.529561,43.806709 27.529561,41.8775742 L27.529561,30.6588691 L34.2514575,40.1062207 C35.0189242,41.1879785 35.1531666,42.5516309 34.6105352,43.7541152 C34.6087851,43.7580996 34.607035,43.762084 34.6052849,43.7660684 L32.0578719,49.6172227 C31.8371545,50.1242344 32.0829909,50.7083437 32.606886,50.9218066 C33.1236778,51.1323809 33.7376512,50.8903301 33.9552802,50.3905898 L36.5003254,44.5450137 C37.3256481,42.7095117 37.119755,40.6292695 35.9480171,38.9776465 L35.9480171,38.9776465 Z M0.458421093,23.6153906 C1.25008025,24.1257891 2.29817931,23.3642754 2.01095837,22.4876133 C1.72754646,21.6228047 0.439993657,21.5642344 0.0792688618,22.4061328 C-0.105314345,22.8371426 0.0527086458,23.3582988 0.458421093,23.6153906 L0.458421093,23.6153906 Z M12.1239151,15.9087129 L15.7383693,15.9087129 C16.3069432,15.9087129 16.767835,15.4627617 16.767835,14.9126191 C16.767835,14.3625762 16.3069432,13.9165254 15.7383693,13.9165254 L12.1239151,13.9165254 C11.5553411,13.9165254 11.0944493,14.3625762 11.0944493,14.9126191 C11.0944493,15.4627617 11.5553411,15.9087129 12.1239151,15.9087129 L12.1239151,15.9087129 Z M8.96664658,12.1669863 C9.2604561,11.8827012 9.6510354,11.7262148 10.0667337,11.7262148 L19.0186589,11.7262148 L19.0186589,21.2415996 L10.0664248,21.2415996 C9.53274979,21.2415996 8.994751,21.356748 8.51285808,21.5790762 L8.51213623,13.2298184 C8.51162272,12.8285918 8.6731459,12.4510723 8.96664658,12.1669863 L8.96664658,12.1669863 Z M10.0663219,26.243584 C9.20867398,26.243584 8.51100504,25.5685312 8.51100504,24.7386855 C8.51100504,23.9209922 9.2215423,23.2339863 10.0667337,23.2339863 L19.01835,23.2339863 L19.01835,26.2436836 L10.0663219,26.2436836 L10.0663219,26.243584 Z M10.0663219,28.2357715 L20.0478158,28.2357715 C20.6163897,28.2357715 21.0772815,27.7899199 21.0772815,27.2396777 L21.0774874,10.7302207 C21.0774874,10.1800781 20.6165956,9.73412695 20.0480217,9.73412695 L10.0666307,9.73412695 C8.09674803,9.73412695 6.45145589,11.3238926 6.45289714,13.2307148 L6.45392661,24.6529219 C6.45392661,24.6541172 6.4541325,24.6554121 6.4541325,24.656707 C6.45351482,24.6840996 6.45197062,24.711293 6.45197062,24.7386855 C6.45197062,26.6669238 8.07337916,28.2357715 10.0663219,28.2357715 L10.0663219,28.2357715 Z" id="Fill-1" fill="#FFFFFF" mask="url(#mask-2)"></path>
            </g>
        </g>
    </g>
</svg>