<?xml version="1.0" encoding="UTF-8"?>
<svg width="89px" height="121px" viewBox="0 0 89 121" version="1.1" xmlns="http://www.w3.org/2000/svg" xmlns:xlink="http://www.w3.org/1999/xlink">
    <!-- Generator: Sketch 59.1 (86144) - https://sketch.com -->
    <title>Group 25</title>
    <desc>Created with Sketch.</desc>
    <defs>
        <polygon id="path-1" points="0.13119478 0.420361582 34.3604077 0.420361582 34.3604077 32.7862712 0.13119478 32.7862712"></polygon>
    </defs>
    <g id="Home" stroke="none" stroke-width="1" fill="none" fill-rule="evenodd">
        <g id="Large-Devices_Pubbliche-Amministrazioni" transform="translate(-665.000000, -1446.000000)">
            <g id="Group-25" transform="translate(665.000000, 1435.000000)">
                <text id="03" font-family="TitilliumWeb-SemiBold, Titillium Web" font-size="24" font-weight="500" line-spacing="38" fill="#21DEDF">
                    <tspan x="0" y="27">03</tspan>
                </text>
                <g id="Group-39" transform="translate(0.000000, 56.000000)">
                    <g id="Group-38">
                        <g id="Group-3" transform="translate(54.166896, 0.009017)">
                            <mask id="mask-2" fill="white">
                                <use xlink:href="#path-1"></use>
                            </mask>
                            <g id="Clip-2"></g>
                            <path d="M5.7828919,2.26303955 C3.67635412,2.26303955 1.96220646,3.98871186 1.96220646,6.10941243 L1.96220646,20.8023164 C1.96220646,22.9230169 3.67635412,24.6482599 5.7828919,24.6482599 L7.88942967,24.6482599 C8.3952717,24.6482599 8.80514876,25.0608927 8.80514876,25.5697062 L8.80514876,29.6397853 L13.4950636,24.918339 C13.666521,24.7452994 13.899396,24.6482599 14.1425073,24.6482599 L28.7091371,24.6482599 C30.8156749,24.6482599 32.529396,22.9230169 32.529396,20.8023164 L32.529396,6.10941243 C32.529396,3.98871186 30.8156749,2.26303955 28.7091371,2.26303955 L5.7828919,2.26303955 Z M7.88942967,32.7862712 C7.77128613,32.7862712 7.65271607,32.7630847 7.53926415,32.7158531 C7.19720234,32.5732994 6.97413709,32.2375254 6.97413709,31.8643955 L6.97413709,26.4915819 L5.7828919,26.4915819 C2.6663761,26.4915819 0.13119478,23.9389266 0.13119478,20.8023164 L0.13119478,6.10941243 C0.13119478,2.97237288 2.6663761,0.420146893 5.7828919,0.420146893 L28.7091371,0.420146893 C31.8252264,0.420146893 34.3604077,2.97237288 34.3604077,6.10941243 L34.3604077,20.8023164 C34.3604077,23.9389266 31.8252264,26.4915819 28.7091371,26.4915819 L14.521249,26.4915819 L8.53687335,32.5161921 C8.36200385,32.6922373 8.1274228,32.7862712 7.88942967,32.7862712 L7.88942967,32.7862712 Z" id="Fill-1" fill="#FFFFFF" mask="url(#mask-2)"></path>
                        </g>
                        <path d="M54.040691,75.5796384 L9.79572054,75.5796384 C9.2898785,75.5796384 8.88000144,75.1670056 8.88000144,74.6581921 L8.88000144,16.612226 C8.88000144,16.1029831 9.2898785,15.6903503 9.79572054,15.6903503 L39.3857734,15.6903503 C39.6297377,15.6903503 39.8643188,15.7891073 40.0357762,15.963435 L54.6906937,30.8585763 C54.8608716,31.0311864 54.9559836,31.264339 54.9559836,31.5069379 L54.9559836,35.5048814 C54.9559836,36.0141243 54.546533,36.4263277 54.040691,36.4263277 C53.534849,36.4263277 53.1253984,36.0141243 53.1253984,35.5048814 L53.1253984,31.8860791 L39.0040461,17.5336723 L10.7110131,17.5336723 L10.7110131,73.7363164 L53.1253984,73.7363164 L53.1253984,59.8248814 C53.1253984,59.3156384 53.534849,58.9030056 54.040691,58.9030056 C54.546533,58.9030056 54.9559836,59.3156384 54.9559836,59.8248814 L54.9559836,74.6581921 C54.9559836,75.1670056 54.546533,75.5796384 54.040691,75.5796384" id="Fill-4" fill="#FFFFFF"></path>
                        <path d="M6.21648297,66.7056723 L0.915377885,66.7056723 C0.409962363,66.7056723 8.53021978e-05,66.2930395 8.53021978e-05,65.784226 L8.53021978e-05,7.73825989 C8.53021978e-05,7.22944633 0.409962363,6.81681356 0.915377885,6.81681356 L45.1607749,6.81681356 C45.6661904,6.81681356 46.0760674,7.22944633 46.0760674,7.73825989 L46.0760674,17.6903955 C46.0760674,18.199209 45.6661904,18.6118418 45.1607749,18.6118418 C44.6549328,18.6118418 44.2450558,18.199209 44.2450558,17.6903955 L44.2450558,8.65970621 L1.83109698,8.65970621 L1.83109698,64.8623503 L6.21648297,64.8623503 C6.722325,64.8623503 7.13177555,65.2749831 7.13177555,65.784226 C7.13177555,66.2930395 6.722325,66.7056723 6.21648297,66.7056723" id="Fill-6" fill="#FFFFFF"></path>
                        <path d="M54.040691,32.660635 L39.0147089,32.660635 C38.5088668,32.660635 38.0989898,32.2480023 38.0989898,31.7391887 L38.0989898,16.6121831 C38.0989898,16.1029401 38.5088668,15.6907367 39.0147089,15.6907367 C39.5201244,15.6907367 39.9300014,16.1029401 39.9300014,16.6121831 L39.9300014,30.817313 L54.040691,30.817313 C54.546533,30.817313 54.9559836,31.2299458 54.9559836,31.7391887 C54.9559836,32.2480023 54.546533,32.660635 54.040691,32.660635" id="Fill-8" fill="#FFFFFF"></path>
                        <line x1="18.0717398" y1="32.7034441" x2="29.7372418" y2="32.7034441" id="Fill-10" fill="#FFFFFF"></line>
                        <path d="M29.7370712,33.6250621 L18.0715692,33.6250621 C17.5661536,33.6250621 17.1562766,33.2124294 17.1562766,32.7036158 C17.1562766,32.1943729 17.5661536,31.7817401 18.0715692,31.7817401 L29.7370712,31.7817401 C30.2429133,31.7817401 30.6523638,32.1943729 30.6523638,32.7036158 C30.6523638,33.2124294 30.2429133,33.6250621 29.7370712,33.6250621" id="Fill-12" fill="#FFFFFF"></path>
                        <line x1="18.0717398" y1="40.2359887" x2="40.9847631" y2="40.2359887" id="Fill-14" fill="#FFFFFF"></line>
                        <path d="M40.9846352,41.1576497 L18.0716118,41.1576497 C17.5661963,41.1576497 17.1563192,40.7450169 17.1563192,40.2362034 C17.1563192,39.7269605 17.5661963,39.3143277 18.0716118,39.3143277 L40.9846352,39.3143277 C41.4904772,39.3143277 41.8999277,39.7269605 41.8999277,40.2362034 C41.8999277,40.7450169 41.4904772,41.1576497 40.9846352,41.1576497" id="Fill-16" fill="#FFFFFF"></path>
                        <line x1="18.0717398" y1="47.7681469" x2="41.5763339" y2="47.7681469" id="Fill-18" fill="#FFFFFF"></line>
                        <path d="M41.5765045,48.6898079 L18.0719104,48.6898079 C17.5660683,48.6898079 17.1561913,48.2771751 17.1561913,47.7683616 C17.1561913,47.2591186 17.5660683,46.8464859 18.0719104,46.8464859 L41.5765045,46.8464859 C42.0823465,46.8464859 42.491797,47.2591186 42.491797,47.7683616 C42.491797,48.2771751 42.0823465,48.6898079 41.5765045,48.6898079" id="Fill-20" fill="#FFFFFF"></path>
                        <line x1="18.0717398" y1="55.3007345" x2="34.4727933" y2="55.3007345" id="Fill-22" fill="#FFFFFF"></line>
                        <path d="M34.472836,56.2223955 L18.0717824,56.2223955 C17.5659404,56.2223955 17.1560633,55.8097627 17.1560633,55.3009492 C17.1560633,54.7917062 17.5659404,54.3790734 18.0717824,54.3790734 L34.472836,54.3790734 C34.978678,54.3790734 35.3881286,54.7917062 35.3881286,55.3009492 C35.3881286,55.8097627 34.978678,56.2223955 34.472836,56.2223955" id="Fill-24" fill="#FFFFFF"></path>
                        <path d="M57.681858,43.9352136 L54.8139981,42.2662192 L56.4718463,39.3795073 L59.3397062,41.0480723 L57.681858,43.9352136 Z M50.2226073,56.9440949 L47.3547474,55.2751006 L53.9852872,43.7102192 L56.8531471,45.3787842 L50.2226073,56.9440949 Z M44.6442701,63.3353944 C44.2941045,63.0893605 44.1866238,62.6170441 44.3960407,62.2421966 L44.8101828,61.5161175 L46.2522165,62.3508294 L45.8376478,63.0683209 C45.7216368,63.2709876 45.5267213,63.4152588 45.2998174,63.4663548 C45.0724871,63.5165921 44.8349205,63.4693605 44.6442701,63.3353944 L44.6442701,63.3353944 Z M47.1308291,60.9240045 L46.7162604,60.681835 L45.4896148,59.9639141 L46.6667852,56.7933831 L49.2774589,58.3116655 L47.1308291,60.9240045 Z M58.4278257,37.6272136 C58.537439,37.4339932 58.7195592,37.2922983 58.9336677,37.235191 C59.1464967,37.181948 59.3716945,37.2120045 59.5631979,37.3189198 C59.7555544,37.4292701 59.89545,37.6121853 59.953029,37.827304 C60.0054898,38.0415638 59.9760606,38.2687051 59.8702859,38.461496 L59.4557172,39.1875751 L58.013257,38.3532927 L58.4278257,37.6272136 Z M61.5524452,37.3936316 C61.3814143,36.7525695 60.9634335,36.2064 60.3919088,35.8753492 C59.8203841,35.5421514 59.1405255,35.4524113 58.5024651,35.6250215 C57.8656842,35.7976316 57.3227357,36.2171345 56.9938957,36.7925017 L56.5793271,37.5190102 C56.1856574,37.2910102 55.682801,37.4249763 55.4520585,37.8195751 L53.3472268,41.4319367 L52.6259967,41.0145808 C52.4349198,40.9033718 52.2071629,40.8733153 51.9943339,40.9312814 C51.7810784,40.9896768 51.5998113,41.130513 51.4901979,41.3237333 C51.2654266,41.722626 51.4023367,42.2292927 51.7968593,42.4585808 L52.5185159,42.8755073 L45.4729809,55.1660384 L43.7323896,59.8479819 L42.9036787,61.4074847 C42.4183092,62.2576542 42.4703435,63.3139254 43.0363236,64.1112814 L41.1716176,66.4140384 L40.6491416,65.0958463 C40.4141341,64.5084565 39.8686265,64.1061288 39.2420819,64.0567503 C38.6146842,64.0069424 38.0137302,64.3191006 37.6904349,64.8622644 L37.3923037,65.371078 L37.1103799,62.0330893 C37.0455503,61.2438915 36.4377721,60.6092701 35.6568305,60.5135186 C34.8754624,60.4190554 34.1358923,60.8900836 33.8859569,61.641496 L31.8472343,67.7992136 C31.7047797,68.2350328 31.9380812,68.7043435 32.3692838,68.8507616 C32.4503209,68.8885469 32.5373291,68.9117333 32.6264699,68.9173207 C32.9826066,68.9186034 33.2995043,68.6897446 33.4138092,68.3501062 L35.4440015,62.1923887 L35.7344555,65.5797559 C35.7945935,66.3024 36.3102453,66.9031006 37.0118559,67.0671232 C37.713893,67.2311458 38.4398147,66.9194169 38.8091732,66.2976768 L39.1162611,65.7884339 L39.6302069,67.0984678 C39.848154,67.6502192 40.3416272,68.0443887 40.9255207,68.1324113 C41.5094143,68.2200045 42.0954404,67.9881401 42.4643724,67.5239819 L44.3960407,65.0627842 C44.6097227,65.1190328 44.8293758,65.1469424 45.050735,65.1460836 C45.9391574,65.1529537 46.7636032,64.6819254 47.2135723,63.9107616 L48.0422831,62.5174282 L51.200597,58.6543096 L58.3199184,46.213496 L59.041575,46.6299932 C59.2335049,46.7412023 59.3734005,46.9241175 59.430553,47.1396655 C59.4877055,47.353496 59.4578497,47.581496 59.3478099,47.7734282 L56.03254,53.5558689 C55.9075723,53.7460836 55.8649212,53.9792362 55.9152495,54.2016542 C55.9655777,54.4236429 56.1033408,54.6155751 56.2978298,54.7323661 C56.4889067,54.8440045 56.7162371,54.8744904 56.9290661,54.8165243 C57.1423216,54.7581288 57.3235887,54.6172927 57.4332021,54.4240723 L60.748472,48.6416316 C61.0794445,48.065835 61.1690118,47.3809763 60.9971279,46.7390554 C60.8256705,46.0979932 60.4085427,45.5518237 59.837018,45.2203435 L59.1153614,44.8029876 L61.1877783,41.1897672 C61.4138291,40.7938802 61.2807577,40.2876429 60.8896471,40.0553492 L61.3037893,39.3292701 C61.643292,38.7444565 61.7332859,38.046287 61.5524452,37.3936316 L61.5524452,37.3936316 Z" id="Fill-26" fill="#00FFF8"></path>
                        <path d="M58.3516082,38.2614486 L59.3645718,38.8471209 L59.6554523,38.3374486 C59.7292387,38.2021944 59.7501377,38.0411774 59.7126047,37.8870305 C59.6733657,37.7397537 59.5761212,37.613087 59.4409172,37.5357989 C59.3057133,37.4606576 59.1461981,37.4400475 58.9926542,37.476974 C58.8484935,37.5160475 58.7192606,37.6160927 58.6429152,37.7509175 L58.6429152,37.7513469 L58.3516082,38.2614486 Z M59.5471185,39.5281153 L57.6751617,38.4452226 L58.2129921,37.5031661 C58.3545937,37.2532678 58.5938664,37.0682056 58.869819,36.9939232 C59.1491837,36.9247932 59.4366521,36.9625785 59.6831755,37.1008384 C59.9335374,37.2442508 60.1182167,37.4847028 60.1920031,37.7625107 C60.2615244,38.0441831 60.2235649,38.3331548 60.0870814,38.581765 L59.5471185,39.5281153 Z M55.1527758,42.1752339 L57.5915656,43.5943299 L59.0007579,41.1391435 L56.5623946,39.7200475 L55.1527758,42.1752339 Z M57.7724062,44.2761831 L54.4754763,42.3572904 L56.3815539,39.0386237 L59.6780573,40.957087 L57.7724062,44.2761831 Z M47.6930986,55.1841153 L50.1318884,56.6032113 L56.5146253,45.4698554 L54.076262,44.0507593 L47.6930986,55.1841153 Z M50.3131556,57.2850644 L47.0166521,55.3661718 L53.8945683,43.3693356 L57.1910718,45.2877989 L50.3131556,57.2850644 Z M45.7951247,59.8540362 L47.0738046,60.6024429 L48.8996981,58.3799797 L46.7961459,57.1571096 L45.7951247,59.8540362 Z M47.187683,61.245652 L45.1843609,60.073878 L46.5372538,56.4297424 L49.6550491,58.2434373 L47.187683,61.245652 Z M44.9015841,61.8566576 L44.6107036,62.3663299 C44.4644104,62.6282508 44.5394763,62.9580136 44.7855731,63.1306237 L44.7859997,63.1306237 C44.9194976,63.225087 45.0875429,63.2581492 45.246205,63.2229401 C45.4044406,63.1873017 45.5422036,63.0851096 45.6232407,62.9434147 L45.9128417,62.4419006 L44.9015841,61.8566576 Z M45.1212373,63.7351887 C44.9015841,63.7351887 44.68449,63.6677763 44.5023698,63.5398215 C44.0460031,63.2190757 43.907387,62.6089288 44.179501,62.1198667 L44.7190374,61.1756633 L46.5918472,62.2594147 L46.0518843,63.193313 C45.9021789,63.4552339 45.6475519,63.6437311 45.3536858,63.7098554 C45.2769138,63.7270305 45.1988623,63.7351887 45.1212373,63.7351887 L45.1212373,63.7351887 Z M35.4599104,60.7510079 C34.861942,60.7510079 34.3147284,61.1383073 34.1206659,61.720974 L32.0819433,67.8782621 C31.9829928,68.1814034 32.147626,68.5120249 32.4487428,68.6146463 C32.5280738,68.6498554 32.5843733,68.6648836 32.6415258,68.6678893 L32.6423788,68.6678893 C32.8773863,68.6678893 33.0987455,68.5085898 33.1789296,68.2702847 L35.5878637,60.9652678 L35.9815333,65.5583299 C36.0327146,66.1762056 36.4690354,66.6841605 37.0678568,66.8241379 C37.6696638,66.9636859 38.2804275,66.7004768 38.5968987,66.169765 L39.1633053,65.229426 L39.8606508,67.0070531 C40.04533,67.4742169 40.4675759,67.8112791 40.9623286,67.8855616 C41.460067,67.9589853 41.9582318,67.7610418 42.2712909,67.3677311 L44.3019097,64.780296 L44.4584392,64.8215164 C44.6516487,64.8726124 44.8504028,64.8867819 45.05001,64.8966576 C45.8625134,64.8867819 46.5961123,64.4767254 47.0000182,63.7845672 L47.8300086,62.389087 L51.0092215,58.4959119 L58.228773,45.8734712 L59.1645381,46.4136294 C59.4157531,46.5591887 59.5953142,46.7940588 59.6699536,47.0753017 C59.74374,47.350104 59.704501,47.6502395 59.5624729,47.897991 L56.2467764,53.6804316 C56.1516645,53.8264203 56.1218087,53.9913017 56.1567826,54.1463073 C56.192183,54.301313 56.2894275,54.4369966 56.4246315,54.5181492 C56.5555704,54.5945785 56.7172181,54.6156181 56.8647909,54.5756859 C57.0149227,54.5344655 57.1407435,54.4365672 57.217942,54.3004542 L60.5340649,48.5171548 C60.8300635,48.0023299 60.9115271,47.3775842 60.7584097,46.8043638 C60.6023067,46.2225559 60.2312421,45.7369288 59.7130312,45.4363638 L58.7768396,44.8949175 L60.9729447,41.0652904 C61.1307538,40.7892 61.0369214,40.4323864 60.7635278,40.2700814 L60.5524049,40.1451322 L61.0889557,39.2052226 C61.3939111,38.6800927 61.4753747,38.0441831 61.313727,37.4606576 L61.3133005,37.4580814 C61.160183,36.8857198 60.7793087,36.3876407 60.2683486,36.0909401 C59.7497112,35.7895164 59.1470512,35.7105107 58.5665697,35.8655164 C57.9886473,36.0222395 57.5066899,36.3957989 57.2081322,36.9170644 L56.6707284,37.8591209 L56.4561933,37.7350305 C56.1802407,37.5761605 55.8266631,37.6706237 55.6658685,37.9458554 L53.436922,41.7711887 L52.5024365,41.2310305 C52.3689385,41.153313 52.2077174,41.1318441 52.058865,41.1717763 C51.9087332,41.2129966 51.7829124,41.3113243 51.7057139,41.4474373 C51.5487579,41.7252452 51.6447229,42.0820588 51.9206755,42.2422169 L52.8568671,42.7836633 L45.6876439,55.2906011 L43.9645395,59.9351887 L43.1217538,61.5256068 C42.682874,62.2950531 42.7297902,63.2504203 43.2377648,63.9661944 L43.3478046,64.1216294 L41.0975326,66.8997085 L40.4193802,65.1882056 C40.218067,64.6862621 39.7591411,64.3474825 39.2225903,64.3054034 C38.6804948,64.2633243 38.1793444,64.5252452 37.9029653,64.9906915 L37.2111645,66.1706237 L36.8631315,62.0541718 C36.8085381,61.3856294 36.2886212,60.8424655 35.6271027,60.7608836 C35.5712297,60.7544429 35.5153568,60.7510079 35.4599104,60.7510079 L35.4599104,60.7510079 Z M32.6291569,69.1668271 L32.6257448,69.1668271 C32.4922469,69.1586689 32.3762359,69.1290418 32.2653431,69.0775164 C31.7317778,68.8976068 31.4276755,68.2844542 31.6119282,67.7211096 L33.6510773,61.5629627 C33.9368396,60.7029175 34.7902881,60.1619006 35.6863877,60.2658102 C36.5807812,60.3757311 37.2836714,61.1099684 37.3570312,62.012522 L37.5745519,64.5875051 C37.9631034,64.0503525 38.5875155,63.753652 39.2614028,63.8081831 C39.9864715,63.864861 40.607045,64.3225785 40.879159,65.0027141 L41.2459584,65.9280249 L42.7293637,64.0958667 C42.2094468,63.2431209 42.1885477,62.1589401 42.6884186,61.2834373 L43.5141439,59.7299458 L45.2410869,55.0789175 L52.1795677,42.9674373 L51.6737256,42.6746011 C51.1627655,42.3779006 50.9840573,41.7166576 51.2749378,41.2005446 C51.4182455,40.9476407 51.650694,40.7668723 51.9292057,40.6904429 C52.2043053,40.6157311 52.5041425,40.6556633 52.7498128,40.7986463 L53.2577874,41.0927706 L55.2385045,37.6933808 C55.493558,37.2571322 56.0079303,37.0656294 56.4736803,37.2034599 L56.7786356,36.6684542 C57.1433025,36.0316859 57.7323142,35.5752565 58.4377634,35.3841831 C59.1466247,35.1913921 59.8836356,35.2905785 60.5161514,35.6589853 C61.139284,36.020522 61.604181,36.628522 61.7914193,37.3271209 C61.9884674,38.0403186 61.8886638,38.8157763 61.5180258,39.4551209 L61.2122174,39.9901266 C61.5611034,40.3276181 61.6528032,40.8755051 61.4024413,41.3139006 L59.4541391,44.7111435 L59.9599811,45.0039797 C60.5933499,45.3710983 61.0463046,45.9640701 61.2365285,46.6742621 C61.4237668,47.3754373 61.3243898,48.1380136 60.963135,48.7666237 L57.647865,54.548635 C57.5054104,54.8002508 57.2729619,54.9805898 56.9940237,55.0570192 C56.7189241,55.1317311 56.4199399,55.0917989 56.1738431,54.9483864 C55.9196425,54.7959571 55.7383753,54.5443412 55.6739722,54.257087 C55.608716,53.9698328 55.6641624,53.6641153 55.8258101,53.4185107 L59.1334028,47.6489514 C59.2101748,47.5149853 59.2315003,47.3531096 59.1914083,47.2045446 C59.1508898,47.0521153 59.0536453,46.9250192 58.9180148,46.8464429 L58.4113197,46.5536068 L51.4148334,58.7788723 L48.233488,62.6759119 L47.4261027,64.0391887 C46.9373211,64.8764768 46.0352503,65.3955955 45.0687764,65.3955955 L45.0384942,65.3955955 C44.856374,65.3955955 44.6734008,65.3771322 44.4934131,65.3410644 L42.6589894,67.6786011 C42.2354639,68.2110305 41.5551789,68.481539 40.8889687,68.3789175 C40.220626,68.2784429 39.6499543,67.8233017 39.3995924,67.1908271 L39.0690464,66.3470983 L39.0212771,66.4269627 C38.5951927,67.1444542 37.7626432,67.4995503 36.9561109,67.309765 C36.1465931,67.1212678 35.5567284,66.4338328 35.4876336,65.6008384 L35.3003953,63.4191661 L33.6485182,68.4287254 C33.5000924,68.8709853 33.0906418,69.1668271 32.6291569,69.1668271 L32.6291569,69.1668271 Z" id="Fill-28" fill="#00FFF8"></path>
                        <path d="M74.1312779,10.7047073 L71.1973088,13.6502441 L69.4400835,11.8812045 C69.1167882,11.5578825 68.5951652,11.5578825 68.2714434,11.8812045 C68.1144874,12.0379277 68.0266261,12.2513288 68.0266261,12.4737469 C68.0266261,12.696165 68.1144874,12.9095661 68.2714434,13.0662893 L70.0286687,14.8353288 C70.3391687,15.1453401 70.7597085,15.3196678 71.1973088,15.3192581 C71.6378946,15.3213853 72.0614201,15.147487 72.3744791,14.8353288 L75.299918,11.8812045 C75.5814152,11.5501537 75.5622223,11.0567977 75.2568404,10.7489333 C74.950179,10.4402102 74.4601179,10.4213175 74.1312779,10.7047073" id="Fill-30" fill="#00FFF8"></path>
                        <path d="M71.1969249,15.0695548 L71.2050286,15.0695548 C71.5760932,15.0695548 71.9377745,14.9197017 72.2000788,14.6582102 L75.1246646,11.705374 C75.3080644,11.4885379 75.294416,11.1398825 75.0811605,10.9251932 C74.8700376,10.7122215 74.5284023,10.6967638 74.2989394,10.888696 L71.1969249,14.0029785 L69.2648302,12.0574644 C69.0396323,11.8320407 68.6724064,11.8328994 68.4459291,12.0583232 C68.3350362,12.1691028 68.2740451,12.3163797 68.2740451,12.4739616 C68.2740451,12.6289672 68.3367422,12.7801085 68.4455025,12.8887412 L70.2040073,14.6586395 C70.4688707,14.9235661 70.8211687,15.0695548 71.1956454,15.0695548 L71.1969249,15.0695548 Z M71.2063082,15.5684927 L71.1939394,15.5684927 C70.6898034,15.5684927 70.2133906,15.3709785 69.8542683,15.0120181 L68.0957635,13.2425492 C67.8948769,13.0416 67.7784394,12.7612158 67.7784394,12.4739616 C67.7784394,12.1824136 67.8918913,11.9093288 68.0966166,11.7045153 C68.5163034,11.2854418 69.1970149,11.2863006 69.6145692,11.7045153 L71.197778,13.297939 L73.9700994,10.5151367 C74.3944778,10.1497356 75.0363769,10.1746395 75.4317525,10.5722441 C75.8262752,10.970278 75.8514394,11.6164927 75.4884785,12.0432949 L72.5498178,15.0111593 C72.1945341,15.365826 71.7057525,15.5684927 71.2063082,15.5684927 L71.2063082,15.5684927 Z" id="Fill-32" fill="#00FFF8"></path>
                        <path d="M64.3677589,12.9492836 C64.3677589,16.8669333 67.5222342,20.0417582 71.4128674,20.0417582 C75.3039272,20.0417582 78.457976,16.8669333 78.457976,12.9492836 C78.457976,12.4885605 78.0869114,12.1150011 77.6292651,12.1150011 C77.1716188,12.1150011 76.8001277,12.4885605 76.8001277,12.9492836 C76.8001277,15.9446282 74.3882081,18.3727638 71.4128674,18.3727638 C68.4375268,18.3727638 66.0256071,15.9446282 66.0256071,12.9492836 C66.0256071,9.95393898 68.4375268,7.52580339 71.4128674,7.52580339 C72.579375,7.52236836 73.7143207,7.90322712 74.6453942,8.61084294 C75.0113407,8.88736271 75.5312576,8.81222147 75.8050776,8.44338531 C76.0801772,8.07454915 76.0059643,7.55199548 75.6400179,7.27547571 C73.5053304,5.6635887 70.6489863,5.40467345 68.2622308,6.6056452 C65.8750488,7.80704633 64.3677589,10.2630915 64.3677589,12.9492836" id="Fill-34" fill="#00FFF8"></path>
                        <path d="M71.4197769,6.10018079 C70.3842082,6.10018079 69.3430949,6.34063277 68.3727824,6.82883616 C66.0551217,7.99502825 64.6156471,10.3402938 64.6156471,12.9491977 C64.6156471,16.7225763 67.6647742,19.7922034 71.4125262,19.7922034 C75.1607048,19.7922034 78.2102584,16.7225763 78.2102584,12.9491977 C78.2102584,12.6267345 77.9496602,12.3643842 77.6293504,12.3643842 C77.3090407,12.3643842 77.0480159,12.6267345 77.0480159,12.9491977 C77.0480159,16.0776497 74.5200853,18.6225763 71.4125262,18.6225763 C68.3053937,18.6225763 65.777463,16.0776497 65.777463,12.9491977 C65.777463,9.82117514 68.3053937,7.27624859 71.4125262,7.27624859 C72.646849,7.27281356 73.8270049,7.676 74.7943319,8.41152542 C74.9175935,8.50470056 75.0672989,8.54377401 75.225108,8.52230508 C75.3782254,8.4999774 75.5142824,8.41882486 75.6068353,8.29387571 C75.7002412,8.16892655 75.7394802,8.01477966 75.7177282,7.86020339 C75.6955496,7.70562712 75.6153655,7.56865537 75.4912508,7.47505085 C74.2859308,6.56476836 72.858825,6.10018079 71.4197769,6.10018079 M71.4125262,20.2911412 C67.3918071,20.2911412 64.1200413,16.9973785 64.1200413,12.9491977 C64.1200413,10.1505085 65.6648641,7.6339209 68.1514232,6.38271186 C70.6384088,5.13107345 73.5638477,5.39728814 75.788529,7.07572881 C76.0184184,7.24962712 76.1676973,7.50338983 76.2082158,7.78978531 C76.2487343,8.07618079 76.175801,8.36171751 76.0034905,8.59315254 C75.8316066,8.82458757 75.5799651,8.97487006 75.2950558,9.0160904 C75.011426,9.05731073 74.7269431,8.98388701 74.4966272,8.81041808 C73.617588,8.14230508 72.5287055,7.77475706 71.4278806,7.77475706 C71.4227625,7.77475706 71.4180709,7.77475706 71.4133793,7.77518644 C68.5787872,7.77518644 66.2734953,10.0964068 66.2734953,12.9491977 C66.2734953,15.8024181 68.5787872,18.123209 71.4125262,18.123209 C74.2466918,18.123209 76.5524102,15.8024181 76.5524102,12.9491977 C76.5524102,12.3519322 77.0356471,11.8654463 77.6293504,11.8654463 C78.2226272,11.8654463 78.7058641,12.3519322 78.7058641,12.9491977 C78.7058641,16.9973785 75.4340984,20.2911412 71.4125262,20.2911412" id="Fill-36" fill="#00FFF8"></path>
                    </g>
                </g>
            </g>
        </g>
    </g>
</svg>