<?xml version="1.0" encoding="UTF-8"?>
<svg width="127px" height="121px" viewBox="0 0 127 121" version="1.1" xmlns="http://www.w3.org/2000/svg" xmlns:xlink="http://www.w3.org/1999/xlink">
    <!-- Generator: Sketch 59.1 (86144) - https://sketch.com -->
    <title>Group 2</title>
    <desc>Created with Sketch.</desc>
    <defs>
        <polygon id="path-1" points="0 61 128 61 128 0 0 0"></polygon>
    </defs>
    <g id="Home" stroke="none" stroke-width="1" fill="none" fill-rule="evenodd">
        <g id="Large-Devices_Pubbliche-Amministrazioni" transform="translate(-159.000000, -1446.000000)">
            <g id="Group-2" transform="translate(159.000000, 1435.000000)">
                <g id="Group-38" transform="translate(0.000000, 71.000000)">
                    <path d="M67.2387738,43.2426762 C66.8184812,43.2426762 66.4775477,42.9077989 66.4775477,42.4949723 L66.4775477,41.7472684 C66.4775477,41.3344418 66.8184812,41 67.2387738,41 C67.6590664,41 68,41.3344418 68,41.7472684 L68,42.4949723 C68,42.9077989 67.6590664,43.2426762 67.2387738,43.2426762 L67.2387738,43.2426762 Z M67.2387738,46.9811956 C66.8184812,46.9811956 66.4775477,46.6463183 66.4775477,46.2334917 L66.4775477,45.4857878 C66.4775477,45.0729612 66.8184812,44.7385194 67.2387738,44.7385194 C67.6590664,44.7385194 68,45.0729612 68,45.4857878 L68,46.2334917 C68,46.6463183 67.6590664,46.9811956 67.2387738,46.9811956 L67.2387738,46.9811956 Z M66.1117867,50.4492874 C65.9348914,50.4492874 65.756666,50.3887569 65.612135,50.2655186 C65.2951422,49.9942201 65.2618912,49.5221694 65.5380961,49.2103721 C65.6768636,49.0544735 65.8036608,48.8850752 65.9144974,48.708274 C66.1343974,48.3568488 66.6034581,48.2462391 66.9616822,48.4635392 C67.3199063,48.6799683 67.4311863,49.1406968 67.210843,49.4925574 C67.056115,49.739034 66.8792197,49.9746239 66.6863639,50.1927949 C66.5356261,50.3626287 66.3241497,50.4492874 66.1117867,50.4492874 L66.1117867,50.4492874 Z M62.7693964,51.9986936 C62.357084,51.9986936 62.0188106,51.675574 62.0086136,51.268844 C61.9993033,50.8560174 62.3318133,50.5133017 62.7521059,50.5037213 C62.9626955,50.4989311 63.1746152,50.4762866 63.3803281,50.4370942 C63.7948572,50.3591449 64.1925391,50.6234759 64.2727849,51.0288994 C64.3525872,51.434323 64.0830325,51.8266825 63.6702768,51.9055028 C63.3807714,51.9608076 63.0841725,51.9921615 62.7875736,51.9986936 L62.7693964,51.9986936 Z M48.3074292,52 L47.7607828,52 C47.3404902,52 47,51.6655582 47,51.2527316 C47,50.8394695 47.3404902,50.5050277 47.7607828,50.5050277 L48.3074292,50.5050277 C48.7277218,50.5050277 49.0686554,50.8394695 49.0686554,51.2527316 C49.0686554,51.6655582 48.7277218,52 48.3074292,52 L48.3074292,52 Z M52.1131167,52 L51.3518906,52 C50.9315979,52 50.5906644,51.6655582 50.5906644,51.2527316 C50.5906644,50.8394695 50.9315979,50.5050277 51.3518906,50.5050277 L52.1131167,50.5050277 C52.5334093,50.5050277 52.8743429,50.8394695 52.8743429,51.2527316 C52.8743429,51.6655582 52.5334093,52 52.1131167,52 L52.1131167,52 Z M55.9192476,52 L55.1580214,52 C54.7377288,52 54.3967952,51.6655582 54.3967952,51.2527316 C54.3967952,50.8394695 54.7377288,50.5050277 55.1580214,50.5050277 L55.9192476,50.5050277 C56.3395402,50.5050277 56.6804737,50.8394695 56.6804737,51.2527316 C56.6804737,51.6655582 56.3395402,52 55.9192476,52 L55.9192476,52 Z M59.7249351,52 L58.9637089,52 C58.5434163,52 58.2024827,51.6655582 58.2024827,51.2527316 C58.2024827,50.8394695 58.5434163,50.5050277 58.9637089,50.5050277 L59.7249351,50.5050277 C60.1452277,50.5050277 60.4861613,50.8394695 60.4861613,51.2527316 C60.4861613,51.6655582 60.1452277,52 59.7249351,52 L59.7249351,52 Z" id="Fill-1" fill="#00FFF8"></path>
                    <path d="M12.2094206,47.8502135 C10.9563858,47.8502135 9.93708249,48.823806 9.93708249,50.0202171 L9.93708249,52.979352 C9.93708249,54.176625 10.9563858,55.1497865 12.2094206,55.1497865 L44.7910306,55.1497865 C46.0436142,55.1497865 47.0629175,54.176625 47.0629175,52.979352 L47.0629175,50.0202171 C47.0629175,48.823806 46.0436142,47.8502135 44.7910306,47.8502135 L12.2094206,47.8502135 Z M44.7910306,57 L12.2094206,57 C9.88835085,57 8,55.1963327 8,52.979352 L8,50.0202171 C8,47.8036673 9.88835085,46 12.2094206,46 L44.7910306,46 C47.1121004,46 49,47.8036673 49,50.0202171 L49,52.979352 C49,55.1963327 47.1121004,57 44.7910306,57 L44.7910306,57 Z" id="Fill-3" fill="#00FFF8"></path>
                    <path d="M16,51.5 C16,50.6710978 15.3284734,50 14.5,50 C13.6710978,50 13,50.6710978 13,51.5 C13,52.3284734 13.6710978,53 14.5,53 C15.3284734,53 16,52.3284734 16,51.5" id="Fill-5" fill="#00FFF8"></path>
                    <path d="M4.20942057,25.850286 C2.95638585,25.850286 1.93708249,26.8239166 1.93708249,28.0203746 L1.93708249,30.9796254 C1.93708249,32.1765144 2.95638585,33.150145 4.20942057,33.150145 L36.7910306,33.150145 C38.0436142,33.150145 39.0629175,32.1765144 39.0629175,30.9796254 L39.0629175,28.0203746 C39.0629175,26.8239166 38.0436142,25.850286 36.7910306,25.850286 L4.20942057,25.850286 Z M36.7910306,35 L4.20942057,35 C1.88835085,35 0,33.196693 0,30.9796254 L0,28.0203746 C0,25.803738 1.88835085,24 4.20942057,24 L36.7910306,24 C39.1121004,24 41,25.803738 41,28.0203746 L41,30.9796254 C41,33.196693 39.1121004,35 36.7910306,35 L36.7910306,35 Z" id="Fill-7" fill="#00FFF8"></path>
                    <path d="M8,29.5002144 C8,28.6714306 7.32847341,28 6.5,28 C5.67109777,28 5,28.6714306 5,29.5002144 C5,30.3285694 5.67109777,31 6.5,31 C7.32847341,31 8,30.3285694 8,29.5002144" id="Fill-9" fill="#00FFF8"></path>
                    <path d="M69,42.5001787 C69,41.6718285 68.3286089,41 67.5003573,41 C66.6717485,41 66,41.6718285 66,42.5001787 C66,43.3285289 66.6717485,44 67.5003573,44 C68.3286089,44 69,43.3285289 69,42.5001787" id="Fill-11" fill="#00FFF8"></path>
                    <path d="M48.3074292,7.49534856 L47.7612262,7.49534856 C47.3404902,7.49534856 47,7.16048454 47,6.74767428 C47,6.33486402 47.3404902,6 47.7612262,6 L48.3074292,6 C48.7277218,6 49.0686554,6.33486402 49.0686554,6.74767428 C49.0686554,7.16048454 48.7277218,7.49534856 48.3074292,7.49534856 M52.1131167,7.49534856 L51.3518906,7.49534856 C50.9315979,7.49534856 50.5906644,7.16048454 50.5906644,6.74767428 C50.5906644,6.33486402 50.9315979,6 51.3518906,6 L52.1131167,6 C52.5334093,6 52.8743429,6.33486402 52.8743429,6.74767428 C52.8743429,7.16048454 52.5334093,7.49534856 52.1131167,7.49534856 M55.9192476,7.49534856 L55.1580214,7.49534856 C54.7377288,7.49534856 54.3967952,7.16048454 54.3967952,6.74767428 C54.3967952,6.33486402 54.7377288,6 55.1580214,6 L55.9192476,6 C56.3395402,6 56.6804737,6.33486402 56.6804737,6.74767428 C56.6804737,7.16048454 56.3395402,7.49534856 55.9192476,7.49534856 M59.7249351,7.49534856 L58.9637089,7.49534856 C58.5434163,7.49534856 58.2024827,7.16048454 58.2024827,6.74767428 C58.2024827,6.33486402 58.5434163,6 58.9637089,6 L59.7249351,6 C60.1452277,6 60.4861613,6.33486402 60.4861613,6.74767428 C60.4861613,7.16048454 60.1452277,7.49534856 59.7249351,7.49534856 M63.5261891,7.57677843 C63.4783077,7.57677843 63.4295396,7.57198844 63.3812148,7.56284391 C63.1746152,7.52365306 62.9631389,7.50144492 62.7512192,7.49621947 C62.3309266,7.48620403 61.99886,7.14306639 62.0086136,6.73069158 C62.0192539,6.31744587 62.3827982,5.99390365 62.7884603,6.00130636 C63.0841725,6.00827362 63.3807714,6.04006176 63.6693901,6.09492894 C64.0825891,6.17287518 64.3521439,6.56521911 64.2727849,6.97062666 C64.2027361,7.32813428 63.8835265,7.57677843 63.5261891,7.57677843 M66.5635569,9.64736155 C66.3081892,9.64736155 66.0581417,9.52107993 65.9144974,9.29203119 C65.8036608,9.11523693 65.6768636,8.94584537 65.5380961,8.78995289 C65.2618912,8.47816793 65.2951422,8.00613594 65.612135,7.73484818 C65.9300146,7.46356043 66.4106023,7.49665492 66.6863639,7.80756898 C66.8796631,8.02573136 67.056115,8.2613119 67.210843,8.50777879 C67.4311863,8.85962551 67.3199063,9.31990024 66.9616822,9.53632081 C66.8375451,9.61165433 66.699221,9.64736155 66.5635569,9.64736155 M67.2387738,13.2616286 C66.8184812,13.2616286 66.4775477,12.9272 66.4775477,12.5139543 L66.4775477,11.7667155 C66.4775477,11.3534698 66.8184812,11.0190412 67.2387738,11.0190412 C67.6590664,11.0190412 68,11.3534698 68,11.7667155 L68,12.5139543 C68,12.9272 67.6590664,13.2616286 67.2387738,13.2616286 M67.2387738,17 C66.8184812,17 66.4775477,16.6655714 66.4775477,16.2523257 L66.4775477,15.5050869 C66.4775477,15.0918412 66.8184812,14.7574126 67.2387738,14.7574126 C67.6590664,14.7574126 68,15.0918412 68,15.5050869 L68,16.2523257 C68,16.6655714 67.6590664,17 67.2387738,17" id="Fill-13" fill="#00FFF8"></path>
                    <path d="M12.2089694,3.84978255 C10.9563858,3.84978255 9.93708249,4.823375 9.93708249,6.02021706 L9.93708249,8.97935196 C9.93708249,10.176194 10.9563858,11.1497865 12.2089694,11.1497865 L44.7905794,11.1497865 C46.0436142,11.1497865 47.0629175,10.176194 47.0629175,8.97935196 L47.0629175,6.02021706 C47.0629175,4.823375 46.0436142,3.84978255 44.7905794,3.84978255 L12.2089694,3.84978255 Z M44.7905794,13 L12.2089694,13 C9.88789963,13 8,11.1959017 8,8.97935196 L8,6.02021706 C8,3.80366728 9.88789963,2 12.2089694,2 L44.7905794,2 C47.1116491,2 49,3.80366728 49,6.02021706 L49,8.97935196 C49,11.1959017 47.1116491,13 44.7905794,13 L44.7905794,13 Z" id="Fill-15" fill="#00FFF8"></path>
                    <path d="M15,7.50021438 C15,8.32856939 14.3284734,9 13.5,9 C12.6715266,9 12,8.32856939 12,7.50021438 C12,6.67185937 12.6715266,6 13.5,6 C14.3284734,6 15,6.67185937 15,7.50021438" id="Fill-17" fill="#00FFF8"></path>
                    <path d="M69,17.5001787 C69,18.3285289 68.3286089,19 67.5003573,19 C66.6717485,19 66,18.3285289 66,17.5001787 C66,16.6718285 66.6717485,16 67.5003573,16 C68.3286089,16 69,16.6718285 69,17.5001787" id="Fill-19" fill="#00FFF8"></path>
                    <path d="M69,29.4998213 C69,28.6714711 68.3286089,28 67.5003573,28 C66.6717485,28 66,28.6714711 66,29.4998213 C66,30.3281715 66.6717485,31 67.5003573,31 C68.3286089,31 69,30.3281715 69,29.4998213" id="Fill-21" fill="#00FFF8"></path>
                    <path d="M41.381612,30 L40.7672147,30 C40.3436157,30 40,29.5521258 40,29 C40,28.4478742 40.3436157,28 40.7672147,28 L41.381612,28 C41.805211,28 42.1488267,28.4478742 42.1488267,29 C42.1488267,29.5521258 41.805211,30 41.381612,30 M45.2176854,30 L44.4504707,30 C44.0268717,30 43.683256,29.5521258 43.683256,29 C43.683256,28.4478742 44.0268717,28 44.4504707,28 L45.2176854,28 C45.6412844,28 45.9849001,28.4478742 45.9849001,29 C45.9849001,29.5521258 45.6412844,30 45.2176854,30 M49.053312,30 L48.2860973,30 C47.8624983,30 47.5188826,29.5521258 47.5188826,29 C47.5188826,28.4478742 47.8624983,28 48.2860973,28 L49.053312,28 C49.476911,28 49.8205266,28.4478742 49.8205266,29 C49.8205266,29.5521258 49.476911,30 49.053312,30 M52.8893854,30 L52.1221707,30 C51.6985717,30 51.354956,29.5521258 51.354956,29 C51.354956,28.4478742 51.6985717,28 52.1221707,28 L52.8893854,28 C53.3129844,28 53.6566001,28.4478742 53.6566001,29 C53.6566001,29.5521258 53.3129844,30 52.8893854,30 M56.7250119,30 L55.9577973,30 C55.5341982,30 55.1905826,29.5521258 55.1905826,29 C55.1905826,28.4478742 55.5341982,28 55.9577973,28 L56.7250119,28 C57.148611,28 57.4922266,28.4478742 57.4922266,29 C57.4922266,29.5521258 57.148611,30 56.7250119,30 M60.5610853,30 L59.7938707,30 C59.3702716,30 59.026656,29.5521258 59.026656,29 C59.026656,28.4478742 59.3702716,28 59.7938707,28 L60.5610853,28 C60.9846844,28 61.3283,28.4478742 61.3283,29 C61.3283,29.5521258 60.9846844,30 60.5610853,30 M64.3967119,30 L63.6294972,30 C63.2058982,30 62.8622826,29.5521258 62.8622826,29 C62.8622826,28.4478742 63.2058982,28 63.6294972,28 L64.3967119,28 C64.8203109,28 65.1639266,28.4478742 65.1639266,29 C65.1639266,29.5521258 64.8203109,30 64.3967119,30 M68.2327853,30 L67.4655706,30 C67.0419716,30 66.698356,29.5521258 66.698356,29 C66.698356,28.4478742 67.0419716,28 67.4655706,28 L68.2327853,28 C68.6563843,28 69,28.4478742 69,29 C69,29.5521258 68.6563843,30 68.2327853,30" id="Fill-23" fill="#00FFF8"></path>
                    <path d="M105.267524,61 L81.7320289,61 C78.0196872,61 75,57.9397145 75,54.1784722 L75,6.82152779 C75,3.05983242 78.0196872,0 81.7320289,0 L105.267524,0 C108.979866,0 112,2.85729354 112,6.36977998 L112,11.7671921 C112,12.304124 111.570277,12.73956 111.039942,12.73956 C110.510055,12.73956 110.080332,12.304124 110.080332,11.7671921 L110.080332,6.36977998 C110.080332,3.92979811 107.921432,1.94473579 105.267524,1.94473579 L81.7320289,1.94473579 C79.0785676,1.94473579 76.9192207,4.13233699 76.9192207,6.82152779 L76.9192207,54.1784722 C76.9192207,56.867663 79.0785676,59.0548111 81.7320289,59.0548111 L105.267524,59.0548111 C107.921432,59.0548111 110.080332,56.867663 110.080332,54.1784722 L110.080332,43.5689688 C110.080332,43.0320369 110.510055,42.596601 111.039942,42.596601 C111.570277,42.596601 112,43.0320369 112,43.5689688 L112,54.1784722 C112,57.9397145 108.979866,61 105.267524,61" id="Fill-25" fill="#FFFFFF"></path>
                    <path d="M112.017076,10 L81.9833822,10 C81.4401632,10 81,9.55229443 81,9.00023294 C81,8.44770557 81.4401632,8 81.9833822,8 L112.017076,8 C112.560295,8 113,8.44770557 113,9.00023294 C113,9.55229443 112.560295,10 112.017076,10" id="Fill-27" fill="#FFFFFF"></path>
                    <path d="M105.044183,52 L76.9562622,52 C76.4280242,52 76,51.5522944 76,51.0002329 C76,50.4477056 76.4280242,50 76.9562622,50 L105.044183,50 C105.572421,50 106,50.4477056 106,51.0002329 C106,51.5522944 105.572421,52 105.044183,52" id="Fill-29" fill="#FFFFFF"></path>
                    <path d="M98.659332,15.9511973 C96.6127354,15.9511973 94.9476922,17.619237 94.9476922,19.6695168 L94.9476922,34.1337386 C94.9476922,36.1840184 96.6127354,37.8520581 98.659332,37.8520581 L100.743585,37.8520581 C101.281208,37.8520581 101.717204,38.2883845 101.717204,38.8274295 L101.717204,42.6693748 L106.24095,38.1374883 C106.423333,37.9547766 106.671048,37.8520581 106.929651,37.8520581 L121.340668,37.8520581 C123.387265,37.8520581 125.052308,36.1840184 125.052308,34.1337386 L125.052308,19.6695168 C125.052308,17.619237 123.387265,15.9511973 121.340668,15.9511973 L98.659332,15.9511973 Z M100.743585,46 C100.617459,46 100.491333,45.9759111 100.370652,45.9254609 C100.007246,45.7745647 99.769512,45.4191404 99.769512,45.0246286 L99.769512,39.8032554 L98.659332,39.8032554 C95.5388506,39.8032554 93,37.2598358 93,34.1337386 L93,19.6695168 C93,16.5434196 95.5388506,14 98.659332,14 L121.340668,14 C124.461149,14 127,16.5434196 127,19.6695168 L127,34.1337386 C127,37.2598358 124.461149,39.8032554 121.340668,39.8032554 L107.332528,39.8032554 L101.431833,45.7141153 C101.24582,45.9009175 100.99629,46 100.743585,46 L100.743585,46 Z" id="Fill-31" fill="#FFFFFF"></path>
                    <mask id="mask-2" fill="white">
                        <use xlink:href="#path-1"></use>
                    </mask>
                    <g id="Clip-34"></g>
                    <polygon id="Fill-33" fill="#FFFFFF" mask="url(#mask-2)" points="105 33 107 33 107 24 105 24"></polygon>
                    <path d="M105.158197,32.8458321 L106.841803,32.8458321 L106.841803,24.1537197 L105.158197,24.1537197 L105.158197,32.8458321 Z M105,33 L107,33 L107,24 L105,24 L105,33 Z" id="Fill-35" fill="#FFFFFF" mask="url(#mask-2)"></path>
                    <path d="M111.432446,30.7944803 C111.711459,31.2423664 112.234302,31.4656489 113,31.4656489 C113.765698,31.4656489 114.288541,31.2423664 114.567066,30.7944803 C114.846079,30.3470346 114.985341,29.597475 114.985341,28.5449207 C114.985341,27.4923664 114.843635,26.7278332 114.559736,26.2504404 C114.276325,25.7730476 113.756413,25.5343511 113,25.5343511 C112.243098,25.5343511 111.723675,25.7730476 111.439775,26.2504404 C111.156365,26.7278332 111.014659,27.4923664 111.014659,28.5449207 C111.014659,29.597475 111.153921,30.3470346 111.432446,30.7944803 M116.098949,31.9197005 C115.498412,32.6397534 114.465429,33 113,33 C111.534083,33 110.501099,32.6397534 109.900562,31.9197005 C109.300513,31.1996477 109,30.0722255 109,28.5383147 C109,27.004404 109.300513,25.8646506 109.900562,25.1186142 C110.501099,24.3730182 111.534083,24 113,24 C114.465429,24 115.498412,24.3730182 116.098949,25.1186142 C116.699487,25.8646506 117,27.004404 117,28.5383147 C117,30.0722255 116.699487,31.1996477 116.098949,31.9197005" id="Fill-36" fill="#FFFFFF" mask="url(#mask-2)"></path>
                    <path d="M111.536165,30.7201155 C111.79653,31.1389317 112.275142,31.3424928 113.000239,31.3424928 C113.724858,31.3424928 114.20347,31.1389317 114.463356,30.7201155 C114.728507,30.2939365 114.862519,29.5615496 114.862519,28.5441771 C114.862519,27.5259384 114.725636,26.7783927 114.455698,26.3227623 C114.191026,25.8749278 113.714807,25.6579403 113.000239,25.6579403 C112.285193,25.6579403 111.808974,25.8749278 111.544302,26.3227623 C111.274364,26.7788258 111.137481,27.5263715 111.137481,28.5441771 C111.137481,29.5611165 111.271493,30.2935034 111.536165,30.7201155 M113.000239,31.4910491 C112.221538,31.4910491 111.680706,31.255871 111.39306,30.7928778 C111.114029,30.343744 110.972839,29.587103 110.972839,28.5441771 C110.972839,27.5016843 111.116422,26.7307507 111.399282,26.2525987 C111.691235,25.7592878 112.230153,25.5089509 113.000239,25.5089509 C113.770326,25.5089509 114.308765,25.7592878 114.600239,26.2525987 C114.883578,26.7303176 115.027161,27.5012512 115.027161,28.5441771 C115.027161,29.5875361 114.885492,30.3441771 114.606461,30.7928778 C114.319294,31.255871 113.778941,31.4910491 113.000239,31.4910491 M113.000239,24.1489894 C111.598863,24.1489894 110.599521,24.5089028 110.030452,25.2183349 C109.455639,25.9351299 109.164643,27.0521174 109.164643,28.5376805 C109.164643,30.0232435 109.455639,31.1263715 110.030452,31.8180462 C110.598564,32.5036574 111.597906,32.8510106 113.000239,32.8510106 C114.401615,32.8510106 115.400957,32.5036574 115.969548,31.8180462 C116.544361,31.1268046 116.835357,30.0232435 116.835357,28.5376805 C116.835357,27.0516843 116.543883,25.9351299 115.96907,25.2183349 C115.4,24.5089028 114.400658,24.1489894 113.000239,24.1489894 M113.000239,33 C111.543823,33 110.49997,32.6322907 109.898355,31.9076997 C109.302483,31.1896054 109,30.0561598 109,28.5376805 C109,27.0200674 109.302004,25.8740616 109.897876,25.1312801 C110.499491,24.3807026 111.543344,24 113.000239,24 C114.456656,24 115.50003,24.3807026 116.101645,25.1312801 C116.697517,25.8740616 117,27.0200674 117,28.5376805 C117,30.0561598 116.697517,31.1900385 116.101167,31.9076997 C115.499551,32.6322907 114.456656,33 113.000239,33" id="Fill-37" fill="#FFFFFF" mask="url(#mask-2)"></path>
                </g>
                <text id="01" font-family="TitilliumWeb-SemiBold, Titillium Web" font-size="24" font-weight="500" line-spacing="38" fill="#21DEDF">
                    <tspan x="0" y="27">01</tspan>
                </text>
            </g>
        </g>
    </g>
</svg>