<?xml version="1.0" encoding="UTF-8"?>
<svg width="70px" height="120px" viewBox="0 0 70 120" version="1.1" xmlns="http://www.w3.org/2000/svg" xmlns:xlink="http://www.w3.org/1999/xlink">
    <!-- Generator: Sketch 59.1 (86144) - https://sketch.com -->
    <title>Group 27</title>
    <desc>Created with Sketch.</desc>
    <defs>
        <polygon id="path-1" points="0 0.156588679 22.7262875 0.156588679 22.7262875 14.03596 0 14.03596"></polygon>
    </defs>
    <g id="Home" stroke="none" stroke-width="1" fill="none" fill-rule="evenodd">
        <g id="Large-Devices_Pubbliche-Amministrazioni" transform="translate(-918.000000, -1446.000000)">
            <g id="Group-27" transform="translate(918.000000, 1435.000000)">
                <text id="04" font-family="TitilliumWeb-SemiBold, Titillium Web" font-size="24" font-weight="500" line-spacing="38" fill="#21DEDF">
                    <tspan x="0" y="27">04</tspan>
                </text>
                <g id="Group-49" transform="translate(0.000000, 56.000000)">
                    <g id="Group-48">
                        <path d="M41.8192688,1.88270473 C39.7958313,1.88270473 38.1495188,3.5332459 38.1495188,5.56188075 L38.1495188,19.8009236 C38.1495188,21.8295584 39.7958313,23.479661 41.8192688,23.479661 L43.8693938,23.479661 C44.3878313,23.479661 44.8082688,23.9011784 44.8082688,24.4209476 L44.8082688,28.248817 L49.2900188,23.7555553 C49.4663313,23.57879 49.7047688,23.479661 49.9541438,23.479661 L64.1295813,23.479661 C66.1530188,23.479661 67.7993313,21.8295584 67.7993313,19.8009236 L67.7993313,5.56188075 C67.7993313,3.5332459 66.1530188,1.88270473 64.1295813,1.88270473 L41.8192688,1.88270473 Z M43.8693938,31.4630519 C43.7477688,31.4630519 43.6261438,31.4393662 43.5097688,31.3911176 C43.1593313,31.2454945 42.9300813,30.9024907 42.9300813,30.5213267 L42.9300813,25.3626728 L41.8192688,25.3626728 C38.7602688,25.3626728 36.2713313,22.8673422 36.2713313,19.8009236 L36.2713313,5.56188075 C36.2713313,2.49502349 38.7602688,0.000131587125 41.8192688,0.000131587125 L64.1295813,0.000131587125 C67.1885813,0.000131587125 69.6775188,2.49502349 69.6775188,5.56188075 L69.6775188,19.8009236 C69.6775188,22.8673422 67.1885813,25.3626728 64.1295813,25.3626728 L50.3426438,25.3626728 L44.5330813,31.1871576 C44.3537063,31.3669933 44.1130813,31.4630519 43.8693938,31.4630519 L43.8693938,31.4630519 Z" id="Fill-1" fill="#00FFF8"></path>
                        <path d="M35.95445,39.7814636 L24.450825,39.7814636 C23.9323875,39.7814636 23.51195,39.3599462 23.51195,38.840177 C23.51195,38.3199693 23.9323875,37.8984519 24.450825,37.8984519 L35.015575,37.8984519 L35.015575,34.0920749 C35.015575,31.1366281 32.040575,28.7325313 28.383075,28.7325313 L27.4638875,28.7325313 C26.9450125,28.7325313 26.524575,28.3110139 26.524575,27.7908061 C26.524575,27.271037 26.9450125,26.8495196 27.4638875,26.8495196 L28.383075,26.8495196 C33.0757,26.8495196 36.893325,30.0988443 36.893325,34.0920749 L36.893325,38.840177 C36.893325,39.3599462 36.473325,39.7814636 35.95445,39.7814636" id="Fill-3" fill="#FFFFFF"></path>
                        <path d="M20.2864812,28.7764376 C19.8096062,28.7764376 19.4014187,28.4136957 19.3532937,27.927262 C19.3025437,27.4101246 19.6792312,26.949131 20.1954812,26.8982507 C20.5214187,26.8662311 20.8539187,26.8491248 21.1842312,26.8491248 L21.9096063,26.8491248 C22.4284813,26.8491248 22.8484813,27.2706422 22.8484813,27.79085 C22.8484813,28.3106191 22.4284813,28.7321366 21.9096063,28.7321366 L21.1842312,28.7321366 C20.9151687,28.7321366 20.6447937,28.7457339 20.3801062,28.7716127 C20.3490437,28.7746831 20.3175437,28.7764376 20.2864812,28.7764376" id="Fill-5" fill="#FFFFFF"></path>
                        <path d="M18.6018875,39.7814636 L13.613075,39.7814636 C13.0942,39.7814636 12.6737625,39.3599462 12.6737625,38.840177 L12.6737625,34.0920749 C12.6737625,30.4168465 15.907325,27.3245491 20.1952625,26.8982068 C20.711075,26.8495196 21.171325,27.2245429 21.222075,27.7421189 C21.2732625,28.2592563 20.896575,28.7202499 20.380325,28.7715688 C17.0575125,29.1018525 14.55195,31.3892754 14.55195,34.0920749 L14.55195,37.8984519 L18.6018875,37.8984519 C19.1207625,37.8984519 19.5407625,38.3199693 19.5407625,38.840177 C19.5407625,39.3599462 19.1207625,39.7814636 18.6018875,39.7814636" id="Fill-7" fill="#FFFFFF"></path>
                        <g id="Group-11" transform="translate(0.000000, 60.416474)">
                            <mask id="mask-2" fill="white">
                                <use xlink:href="#path-1"></use>
                            </mask>
                            <g id="Clip-10"></g>
                            <path d="M21.7874125,14.03596 L0.939225,14.03596 C0.42035,14.03596 -8.75e-05,13.6144426 -8.75e-05,13.0946735 L-8.75e-05,7.93996715 C-8.75e-05,3.99103751 3.47935,0.66758535 8.093225,0.209662153 C8.4445375,0.174572253 8.8032875,0.156588679 9.1594125,0.156588679 C9.67785,0.156588679 10.0982875,0.578106104 10.0982875,1.09831387 C10.0982875,1.61808302 9.67785,2.03960044 9.1594125,2.03960044 C8.864975,2.03960044 8.56835,2.05451365 8.278725,2.0830242 C4.6295375,2.44532741 1.8781,4.96302775 1.8781,7.93996715 L1.8781,12.1529483 L21.7874125,12.1529483 C22.3062875,12.1529483 22.7262875,12.5744657 22.7262875,13.0946735 C22.7262875,13.6144426 22.3062875,14.03596 21.7874125,14.03596" id="Fill-9" fill="#FFFFFF" mask="url(#mask-2)"></path>
                        </g>
                        <path d="M23.157575,64.8005624 C22.9257,64.8005624 22.69295,64.7150308 22.5113875,64.542213 C21.1162,63.216692 19.09845,62.4561184 16.9752625,62.4561184 L15.9768875,62.4561184 C15.4580125,62.4561184 15.037575,62.034601 15.037575,61.5148319 C15.037575,60.9946241 15.4580125,60.5731067 15.9768875,60.5731067 L16.9752625,60.5731067 C19.5740125,60.5731067 22.0625125,61.5218499 23.8037625,63.1759 C24.1800125,63.5333784 24.1957625,64.1294681 23.8392,64.5066845 C23.654575,64.7018721 23.406075,64.8005624 23.157575,64.8005624" id="Fill-12" fill="#FFFFFF"></path>
                        <path d="M15.9768875,62.45625 L9.159325,62.45625 C8.64045,62.45625 8.22045,62.0347326 8.22045,61.5149635 C8.22045,60.9947557 8.64045,60.5732383 9.159325,60.5732383 L15.9768875,60.5732383 C16.4957625,60.5732383 16.9157625,60.9947557 16.9157625,61.5149635 C16.9157625,62.0347326 16.4957625,62.45625 15.9768875,62.45625" id="Fill-14" fill="#FFFFFF"></path>
                        <path d="M32.7607875,74.4524342 L22.1724125,74.4524342 C21.6535375,74.4524342 21.2331,74.0309168 21.2331,73.5111476 L21.2331,68.3564413 C21.2331,64.4079503 24.7125375,61.0840595 29.3264125,60.6261363 C29.6781625,60.5910464 30.0369125,60.5730628 30.3930375,60.5730628 C30.911475,60.5730628 31.3319125,60.9945802 31.3319125,61.514788 C31.3319125,62.0345572 30.911475,62.4560746 30.3930375,62.4560746 C30.0986,62.4560746 29.801975,62.4709878 29.511475,62.4994983 C25.862725,62.8618016 23.1112875,65.3795019 23.1112875,68.3564413 L23.1112875,72.5694224 L32.7607875,72.5694224 C33.2796625,72.5694224 33.6996625,72.9909398 33.6996625,73.5111476 C33.6996625,74.0309168 33.2796625,74.4524342 32.7607875,74.4524342" id="Fill-16" fill="#FFFFFF"></path>
                        <path d="M46.42925,74.4524342 L40.049625,74.4524342 C39.53075,74.4524342 39.1103125,74.0309168 39.1103125,73.5111476 C39.1103125,72.9909398 39.53075,72.5694224 40.049625,72.5694224 L45.490375,72.5694224 L45.490375,68.3564413 C45.490375,65.1031689 42.224,62.4560746 38.2090625,62.4560746 L37.2106875,62.4560746 C36.6918125,62.4560746 36.271375,62.0345572 36.271375,61.514788 C36.271375,60.9945802 36.6918125,60.5730628 37.2106875,60.5730628 L38.2090625,60.5730628 C43.2595625,60.5730628 47.368125,64.0645079 47.368125,68.3564413 L47.368125,73.5111476 C47.368125,74.0309168 46.948125,74.4524342 46.42925,74.4524342" id="Fill-18" fill="#FFFFFF"></path>
                        <path d="M37.2105563,62.45625 L30.3929937,62.45625 C29.8741187,62.45625 29.4541187,62.0347326 29.4541187,61.5149635 C29.4541187,60.9947557 29.8741187,60.5732383 30.3929937,60.5732383 L37.2105563,60.5732383 C37.7294313,60.5732383 38.1494313,60.9947557 38.1494313,61.5149635 C38.1494313,62.0347326 37.7294313,62.45625 37.2105563,62.45625" id="Fill-20" fill="#FFFFFF"></path>
                        <path d="M45.3342313,64.9072357 C45.0918563,64.9072357 44.8499188,64.8138088 44.6661688,64.6269551 C44.3021688,64.2576339 44.3052313,63.6611056 44.6744813,63.295732 C46.1838563,61.8009023 48.2746688,60.8530364 50.5606063,60.6258293 C50.9114813,60.591178 51.2702313,60.5731944 51.6267938,60.5731944 C52.1452313,60.5731944 52.5656688,60.9947118 52.5656688,61.5149196 C52.5656688,62.0346887 52.1452313,62.4562062 51.6267938,62.4562062 C51.3319188,62.4562062 51.0352938,62.4706808 50.7456688,62.4996299 C48.8862938,62.6842905 47.1988563,63.442671 45.9939813,64.6357276 C45.8111063,64.8168792 45.5726688,64.9072357 45.3342313,64.9072357" id="Fill-22" fill="#FFFFFF"></path>
                        <path d="M67.6629625,74.4524342 L46.669525,74.4524342 C46.15065,74.4524342 45.7302125,74.0309168 45.7302125,73.5111476 C45.7302125,72.9909398 46.15065,72.5694224 46.669525,72.5694224 L66.7240875,72.5694224 L66.7240875,68.3564413 C66.7240875,65.1031689 63.4577125,62.4560746 59.4423375,62.4560746 L58.4439625,62.4560746 C57.9250875,62.4560746 57.50465,62.0345572 57.50465,61.514788 C57.50465,60.9945802 57.9250875,60.5730628 58.4439625,60.5730628 L59.4423375,60.5730628 C64.4928375,60.5730628 68.6018375,64.0645079 68.6018375,68.3564413 L68.6018375,73.5111476 C68.6018375,74.0309168 68.1818375,74.4524342 67.6629625,74.4524342" id="Fill-24" fill="#FFFFFF"></path>
                        <path d="M58.4438313,62.45625 L51.6267063,62.45625 C51.1078313,62.45625 50.6873938,62.0347326 50.6873938,61.5149635 C50.6873938,60.9947557 51.1078313,60.5732383 51.6267063,60.5732383 L58.4438313,60.5732383 C58.9627063,60.5732383 59.3827063,60.9947557 59.3827063,61.5149635 C59.3827063,62.0347326 58.9627063,62.45625 58.4438313,62.45625" id="Fill-26" fill="#FFFFFF"></path>
                        <path d="M23.98305,14.6089781 C21.7837375,14.6089781 19.9943625,16.4029493 19.9943625,18.6079109 L19.9943625,23.2007402 C19.9943625,25.4057018 21.7837375,27.1996729 23.98305,27.1996729 L25.5843,27.1996729 C27.78405,27.1996729 29.5729875,25.4057018 29.5729875,23.2007402 L29.5729875,18.6079109 C29.5729875,16.4029493 27.78405,14.6089781 25.5843,14.6089781 L23.98305,14.6089781 Z M25.5843,29.0125049 L23.98305,29.0125049 C20.786675,29.0125049 18.186175,26.4053253 18.186175,23.2007402 L18.186175,18.6079109 C18.186175,15.4037644 20.786675,12.7961461 23.98305,12.7961461 L25.5843,12.7961461 C28.780675,12.7961461 31.381175,15.4037644 31.381175,18.6079109 L31.381175,23.2007402 C31.381175,26.4053253 28.780675,29.0125049 25.5843,29.0125049 L25.5843,29.0125049 Z" id="Fill-28" fill="#FFFFFF"></path>
                        <path d="M6.19889375,54.5768568 L1.72851875,54.5768568 C1.21008125,54.5768568 0.78964375,54.1553394 0.78964375,53.6355703 L0.78964375,38.8399139 C0.78964375,38.5898983 0.88895625,38.3499711 1.06614375,38.1736444 C1.24201875,37.9973176 1.48001875,37.8986273 1.72851875,37.8986273 L1.73158125,37.8986273 L39.1067688,38.0201261 L53.3548313,38.0201261 C53.8737063,38.0201261 54.2941438,38.4416435 54.2941438,38.9614127 C54.2941438,39.4816204 53.8737063,39.9031378 53.3548313,39.9031378 L39.1037063,39.9031378 L2.66783125,39.7842708 L2.66783125,52.6938451 L6.19889375,52.6938451 C6.71776875,52.6938451 7.13776875,53.1153625 7.13776875,53.6355703 C7.13776875,54.1553394 6.71776875,54.5768568 6.19889375,54.5768568" id="Fill-30" fill="#FFFFFF"></path>
                        <path d="M49.3110187,54.5768568 L40.7583312,54.5768568 C40.2398937,54.5768568 39.8194562,54.1553394 39.8194562,53.6355703 C39.8194562,53.1153625 40.2398937,52.6938451 40.7583312,52.6938451 L49.3110187,52.6938451 C49.8298937,52.6938451 50.2498937,53.1153625 50.2498937,53.6355703 C50.2498937,54.1553394 49.8298937,54.5768568 49.3110187,54.5768568" id="Fill-32" fill="#FFFFFF"></path>
                        <path d="M27.5355938,54.5768568 L18.9829063,54.5768568 C18.4644688,54.5768568 18.0440313,54.1553394 18.0440313,53.6355703 C18.0440313,53.1153625 18.4644688,52.6938451 18.9829063,52.6938451 L27.5355938,52.6938451 C28.0544688,52.6938451 28.4744687,53.1153625 28.4744687,53.6355703 C28.4744687,54.1553394 28.0544688,54.5768568 27.5355938,54.5768568" id="Fill-34" fill="#FFFFFF"></path>
                        <path d="M67.6629625,54.5768568 L62.5249625,54.5768568 C62.0060875,54.5768568 61.58565,54.1553394 61.58565,53.6355703 C61.58565,53.1153625 62.0060875,52.6938451 62.5249625,52.6938451 L66.7240875,52.6938451 L66.7240875,39.9031378 L60.3243375,39.9031378 C59.8054625,39.9031378 59.385025,39.4816204 59.385025,38.9614127 C59.385025,38.4416435 59.8054625,38.0201261 60.3243375,38.0201261 L67.6629625,38.0201261 C68.1818375,38.0201261 68.6018375,38.4416435 68.6018375,38.9614127 L68.6018375,53.6355703 C68.6018375,54.1553394 68.1818375,54.5768568 67.6629625,54.5768568" id="Fill-36" fill="#FFFFFF"></path>
                        <path d="M61.578125,10.1987479 L42.987875,10.1987479 C42.469,10.1987479 42.0485625,9.77723046 42.0485625,9.25746131 C42.0485625,8.73769216 42.469,8.31617474 42.987875,8.31617474 L61.578125,8.31617474 C62.097,8.31617474 62.517,8.73769216 62.517,9.25746131 C62.517,9.77723046 62.097,10.1987479 61.578125,10.1987479" id="Fill-38" fill="#00FFF8"></path>
                        <path d="M52.9370625,16.367333 L42.987875,16.367333 C42.469,16.367333 42.0485625,15.9458156 42.0485625,15.4260464 C42.0485625,14.9058387 42.469,14.4843212 42.987875,14.4843212 L52.9370625,14.4843212 C53.4559375,14.4843212 53.8759375,14.9058387 53.8759375,15.4260464 C53.8759375,15.9458156 53.4559375,16.367333 52.9370625,16.367333" id="Fill-40" fill="#00FFF8"></path>
                        <path d="M11.7676563,47.3400036 C9.56834375,47.3400036 7.77896875,49.1339747 7.77896875,51.3389363 L7.77896875,55.9317656 C7.77896875,58.1367272 9.56834375,59.9306983 11.7676563,59.9306983 L13.3689063,59.9306983 C15.5686563,59.9306983 17.3575938,58.1367272 17.3575938,55.9317656 L17.3575938,51.3389363 C17.3575938,49.1339747 15.5686563,47.3400036 13.3689063,47.3400036 L11.7676563,47.3400036 Z M13.3689062,61.7435303 L11.7676562,61.7435303 C8.57128125,61.7435303 5.97078125,59.1363507 5.97078125,55.9317656 L5.97078125,51.3389363 C5.97078125,48.1347898 8.57128125,45.5271716 11.7676562,45.5271716 L13.3689062,45.5271716 C16.5652812,45.5271716 19.1657812,48.1347898 19.1657812,51.3389363 L19.1657812,55.9317656 C19.1657812,59.1363507 16.5652812,61.7435303 13.3689062,61.7435303 L13.3689062,61.7435303 Z" id="Fill-42" fill="#FFFFFF"></path>
                        <path d="M33.3465563,47.3400036 C31.1468063,47.3400036 29.3574313,49.1339747 29.3574313,51.3389363 L29.3574313,55.9317656 C29.3574313,58.1367272 31.1468063,59.9306983 33.3465563,59.9306983 L34.9473688,59.9306983 C37.1475563,59.9306983 38.9364938,58.1367272 38.9364938,55.9317656 L38.9364938,51.3389363 C38.9364938,49.1339747 37.1475563,47.3400036 34.9473688,47.3400036 L33.3465563,47.3400036 Z M34.9473688,61.7435303 L33.3465563,61.7435303 C30.1497438,61.7435303 27.5492438,59.1363507 27.5492438,55.9317656 L27.5492438,51.3389363 C27.5492438,48.1347898 30.1497438,45.5271716 33.3465563,45.5271716 L34.9473688,45.5271716 C38.1441813,45.5271716 40.7446813,48.1347898 40.7446813,51.3389363 L40.7446813,55.9317656 C40.7446813,59.1363507 38.1441813,61.7435303 34.9473688,61.7435303 L34.9473688,61.7435303 Z" id="Fill-44" fill="#FFFFFF"></path>
                        <path d="M54.9250625,47.3400036 C52.72575,47.3400036 50.936375,49.1339747 50.936375,51.3389363 L50.936375,55.9317656 C50.936375,58.1367272 52.72575,59.9306983 54.9250625,59.9306983 L56.5263125,59.9306983 C58.7260625,59.9306983 60.515,58.1367272 60.515,55.9317656 L60.515,51.3389363 C60.515,49.1339747 58.7260625,47.3400036 56.5263125,47.3400036 L54.9250625,47.3400036 Z M56.5263125,61.7435303 L54.9250625,61.7435303 C51.7286875,61.7435303 49.1281875,59.1363507 49.1281875,55.9317656 L49.1281875,51.3389363 C49.1281875,48.1347898 51.7286875,45.5271716 54.9250625,45.5271716 L56.5263125,45.5271716 C59.7226875,45.5271716 62.3231875,48.1347898 62.3231875,51.3389363 L62.3231875,55.9317656 C62.3231875,59.1363507 59.7226875,61.7435303 56.5263125,61.7435303 L56.5263125,61.7435303 Z" id="Fill-46" fill="#FFFFFF"></path>
                    </g>
                </g>
            </g>
        </g>
    </g>
</svg>