<?xml version="1.0" encoding="UTF-8"?>
<svg width="31px" height="28px" viewBox="0 0 31 28" version="1.1" xmlns="http://www.w3.org/2000/svg" xmlns:xlink="http://www.w3.org/1999/xlink">
    <!-- Generator: Sketch 59.1 (86144) - https://sketch.com -->
    <title>Group 26</title>
    <desc>Created with Sketch.</desc>
    <g id="Home" stroke="none" stroke-width="1" fill="none" fill-rule="evenodd">
        <g id="Large-Devices_Pubbliche-Amministrazioni" transform="translate(-933.000000, -1870.000000)">
            <g id="Group-26" transform="translate(934.000000, 1871.000000)">
                <g id="Group-18">
                    <path d="M18.8995417,3.745 L27.9153194,3.745 L27.9153194,1.0134 L18.8995417,1.0134 L18.8995417,3.745 Z M1.02063889,3.745 L17.9824167,3.745 L17.9824167,1.0134 L1.02063889,1.0134 L1.02063889,3.745 Z M28.3732778,0.103 L0.562277778,0.103 C0.308930556,0.103 0.103916667,0.3066 0.103916667,0.5582 L0.103916667,25.4462 C0.103916667,25.6978 0.308930556,25.9018 0.562277778,25.9018 L28.3732778,25.9018 C28.626625,25.9018 28.8320417,25.6978 28.8320417,25.4462 L28.8320417,20.5898 C28.8320417,20.3386 28.626625,20.135 28.3732778,20.135 C28.1207361,20.135 27.9153194,20.3386 27.9153194,20.5898 L27.9153194,24.991 L1.02063889,24.991 L1.02063889,4.6554 L27.9153194,4.6554 L27.9153194,17.3954 C27.9153194,17.647 28.1207361,17.851 28.3732778,17.851 C28.626625,17.851 28.8320417,17.647 28.8320417,17.3954 L28.8320417,0.5582 C28.8320417,0.3066 28.626625,0.103 28.3732778,0.103 L28.3732778,0.103 Z" id="Fill-1" fill="#FFFFFF"></path>
                    <path d="M18.8995417,3.745 L27.9153194,3.745 L27.9153194,1.0134 L18.8995417,1.0134 L18.8995417,3.745 Z M1.02063889,3.745 L17.9824167,3.745 L17.9824167,1.0134 L1.02063889,1.0134 L1.02063889,3.745 Z M28.3732778,0.103 L0.562277778,0.103 C0.308930556,0.103 0.103916667,0.3066 0.103916667,0.5582 L0.103916667,25.4462 C0.103916667,25.6978 0.308930556,25.9018 0.562277778,25.9018 L28.3732778,25.9018 C28.626625,25.9018 28.8320417,25.6978 28.8320417,25.4462 L28.8320417,20.5898 C28.8320417,20.3386 28.626625,20.135 28.3732778,20.135 C28.1207361,20.135 27.9153194,20.3386 27.9153194,20.5898 L27.9153194,24.991 L1.02063889,24.991 L1.02063889,4.6554 L27.9153194,4.6554 L27.9153194,17.3954 C27.9153194,17.647 28.1207361,17.851 28.3732778,17.851 C28.626625,17.851 28.8320417,17.647 28.8320417,17.3954 L28.8320417,0.5582 C28.8320417,0.3066 28.626625,0.103 28.3732778,0.103 Z" id="Stroke-3" stroke="#FFFFFF" stroke-width="0.515"></path>
                    <path d="M23.4225347,1.89384 C23.1530764,1.89384 22.9335625,2.11144 22.9335625,2.37944 C22.9335625,2.64704 23.1530764,2.86504 23.4225347,2.86504 C23.6923958,2.86504 23.9115069,2.64704 23.9115069,2.37944 C23.9115069,2.11144 23.6923958,1.89384 23.4225347,1.89384" id="Fill-4" fill="#FFFFFF"></path>
                    <path d="M23.4225347,1.89384 C23.1530764,1.89384 22.9335625,2.11144 22.9335625,2.37944 C22.9335625,2.64704 23.1530764,2.86504 23.4225347,2.86504 C23.6923958,2.86504 23.9115069,2.64704 23.9115069,2.37944 C23.9115069,2.11144 23.6923958,1.89384 23.4225347,1.89384 Z" id="Stroke-5" stroke="#FFFFFF" stroke-width="0.515"></path>
                    <path d="M20.9165722,1.89384 C20.6467111,1.89384 20.4276,2.11144 20.4276,2.37944 C20.4276,2.64704 20.6467111,2.86504 20.9165722,2.86504 C21.1860306,2.86504 21.4055444,2.64704 21.4055444,2.37944 C21.4055444,2.11144 21.1860306,1.89384 20.9165722,1.89384" id="Fill-6" fill="#FFFFFF"></path>
                    <path d="M20.9165722,1.89384 C20.6467111,1.89384 20.4276,2.11144 20.4276,2.37944 C20.4276,2.64704 20.6467111,2.86504 20.9165722,2.86504 C21.1860306,2.86504 21.4055444,2.64704 21.4055444,2.37944 C21.4055444,2.11144 21.1860306,1.89384 20.9165722,1.89384 Z" id="Stroke-7" stroke="#FFFFFF" stroke-width="0.515"></path>
                    <path d="M25.9284972,1.89384 C25.6590389,1.89384 25.439525,2.11144 25.439525,2.37944 C25.439525,2.64704 25.6590389,2.86504 25.9284972,2.86504 C26.1983583,2.86504 26.4178722,2.64704 26.4178722,2.37944 C26.4178722,2.11144 26.1983583,1.89384 25.9284972,1.89384" id="Fill-8" fill="#FFFFFF"></path>
                    <path d="M25.9284972,1.89384 C25.6590389,1.89384 25.439525,2.11144 25.439525,2.37944 C25.439525,2.64704 25.6590389,2.86504 25.9284972,2.86504 C26.1983583,2.86504 26.4178722,2.64704 26.4178722,2.37944 C26.4178722,2.11144 26.1983583,1.89384 25.9284972,1.89384 Z" id="Stroke-9" stroke="#FFFFFF" stroke-width="0.515"></path>
                    <path d="M18.9687792,12.82316 L18.9687792,15.51476 L18.9687792,19.62956 C18.0061403,18.14276 16.5126403,17.08316 14.6304597,16.55676 C13.5888764,16.26516 12.6882653,16.20716 12.2214458,16.19916 L12.2214458,15.16596 L12.2214458,12.13876 C12.6886681,12.13156 13.5888764,12.07316 14.6304597,11.78156 C16.5126403,11.25516 18.0061403,10.19596 18.9687792,8.70876 L18.9687792,12.82316 Z M11.5790153,14.84716 L9.58244583,14.84716 C9.40522361,14.84716 9.26143194,14.98996 9.26143194,15.16596 C9.26143194,15.34236 9.40522361,15.48476 9.58244583,15.48476 L11.5790153,15.48476 L11.5790153,16.20076 L11.1097792,16.20076 C11.1041403,16.20036 11.0980986,16.19996 11.0920569,16.19996 L8.91745972,16.19996 C8.91464028,16.19996 8.91141806,16.20036 8.90819583,16.20036 C7.78444583,16.19596 6.87175139,15.28636 6.87175139,14.16916 C6.87175139,13.04876 7.78968194,12.13756 8.91745972,12.13756 L11.5790153,12.13756 L11.5790153,14.84716 Z M11.5383347,19.69156 L11.6398347,20.10596 C11.6716542,20.23556 11.6422514,20.37036 11.5592792,20.47516 C11.4759042,20.58036 11.3514458,20.64036 11.2173208,20.64036 L10.5994597,20.64036 C10.3980708,20.64036 10.2240708,20.50436 10.1765431,20.31036 L9.32668194,16.83876 L10.8399181,16.83876 L11.0666819,17.76516 L11.2233625,18.40356 L11.5383347,19.69156 Z M19.6116125,12.51596 L19.6116125,8.39716 C19.6116125,8.14516 19.4468764,7.93156 19.2015847,7.86556 C18.9562931,7.79996 18.7057653,7.90236 18.5780847,8.12036 C17.7020431,9.61756 16.3221264,10.64076 14.4770014,11.16196 C13.0813764,11.55556 11.9294319,11.49836 11.9185569,11.49796 C11.9016403,11.49716 11.8847236,11.49796 11.8682097,11.49916 L8.91745972,11.49916 C7.4352375,11.49916 6.22932083,12.69716 6.22932083,14.16916 C6.22932083,15.55556 7.29909861,16.69836 8.66209861,16.82676 L9.5522375,20.46116 C9.67025139,20.94236 10.1004181,21.27836 10.5994597,21.27836 L11.2173208,21.27836 C11.5500153,21.27836 11.8589458,21.12956 12.0643625,20.86916 C12.2697792,20.60956 12.3430847,20.27636 12.2641403,19.95516 L11.5012792,16.83876 L11.8678069,16.83876 C11.8843208,16.84076 11.9012375,16.84156 11.9181542,16.84036 C11.9294319,16.83996 13.0813764,16.78236 14.4770014,17.17676 C16.3221264,17.69796 17.7020431,18.72076 18.5780847,20.21756 C18.6799875,20.39196 18.8600292,20.49236 19.0533625,20.49236 C19.1025014,20.49236 19.1520431,20.48556 19.2015847,20.47276 C19.4468764,20.40716 19.6116125,20.19356 19.6116125,19.94116 L19.6116125,15.82236 L19.6116125,12.51596 Z" id="Fill-10" fill="#FFFFFF"></path>
                    <path d="M18.9687792,12.82316 L18.9687792,15.51476 L18.9687792,19.62956 C18.0061403,18.14276 16.5126403,17.08316 14.6304597,16.55676 C13.5888764,16.26516 12.6882653,16.20716 12.2214458,16.19916 L12.2214458,15.16596 L12.2214458,12.13876 C12.6886681,12.13156 13.5888764,12.07316 14.6304597,11.78156 C16.5126403,11.25516 18.0061403,10.19596 18.9687792,8.70876 L18.9687792,12.82316 Z M11.5790153,14.84716 L9.58244583,14.84716 C9.40522361,14.84716 9.26143194,14.98996 9.26143194,15.16596 C9.26143194,15.34236 9.40522361,15.48476 9.58244583,15.48476 L11.5790153,15.48476 L11.5790153,16.20076 L11.1097792,16.20076 C11.1041403,16.20036 11.0980986,16.19996 11.0920569,16.19996 L8.91745972,16.19996 C8.91464028,16.19996 8.91141806,16.20036 8.90819583,16.20036 C7.78444583,16.19596 6.87175139,15.28636 6.87175139,14.16916 C6.87175139,13.04876 7.78968194,12.13756 8.91745972,12.13756 L11.5790153,12.13756 L11.5790153,14.84716 Z M11.5383347,19.69156 L11.6398347,20.10596 C11.6716542,20.23556 11.6422514,20.37036 11.5592792,20.47516 C11.4759042,20.58036 11.3514458,20.64036 11.2173208,20.64036 L10.5994597,20.64036 C10.3980708,20.64036 10.2240708,20.50436 10.1765431,20.31036 L9.32668194,16.83876 L10.8399181,16.83876 L11.0666819,17.76516 L11.2233625,18.40356 L11.5383347,19.69156 Z M19.6116125,12.51596 L19.6116125,8.39716 C19.6116125,8.14516 19.4468764,7.93156 19.2015847,7.86556 C18.9562931,7.79996 18.7057653,7.90236 18.5780847,8.12036 C17.7020431,9.61756 16.3221264,10.64076 14.4770014,11.16196 C13.0813764,11.55556 11.9294319,11.49836 11.9185569,11.49796 C11.9016403,11.49716 11.8847236,11.49796 11.8682097,11.49916 L8.91745972,11.49916 C7.4352375,11.49916 6.22932083,12.69716 6.22932083,14.16916 C6.22932083,15.55556 7.29909861,16.69836 8.66209861,16.82676 L9.5522375,20.46116 C9.67025139,20.94236 10.1004181,21.27836 10.5994597,21.27836 L11.2173208,21.27836 C11.5500153,21.27836 11.8589458,21.12956 12.0643625,20.86916 C12.2697792,20.60956 12.3430847,20.27636 12.2641403,19.95516 L11.5012792,16.83876 L11.8678069,16.83876 C11.8843208,16.84076 11.9012375,16.84156 11.9181542,16.84036 C11.9294319,16.83996 13.0813764,16.78236 14.4770014,17.17676 C16.3221264,17.69796 17.7020431,18.72076 18.5780847,20.21756 C18.6799875,20.39196 18.8600292,20.49236 19.0533625,20.49236 C19.1025014,20.49236 19.1520431,20.48556 19.2015847,20.47276 C19.4468764,20.40716 19.6116125,20.19356 19.6116125,19.94116 L19.6116125,15.82236 L19.6116125,12.51596 Z" id="Stroke-11" stroke="#FFFFFF" stroke-width="0.775"></path>
                    <path d="M20.6069972,12.30792 C20.6843306,12.30792 20.7620667,12.28072 20.8232889,12.22472 L21.7500806,11.38672 C21.8809833,11.26792 21.89065,11.06632 21.7714278,10.93592 C21.6518028,10.80552 21.4484,10.79632 21.3174972,10.91512 L20.3907056,11.75272 C20.2598028,11.87152 20.2501361,12.07352 20.3693583,12.20352 C20.4329972,12.27272 20.5199972,12.30792 20.6069972,12.30792" id="Fill-12" fill="#FFFFFF"></path>
                    <path d="M20.6069972,12.30792 C20.6843306,12.30792 20.7620667,12.28072 20.8232889,12.22472 L21.7500806,11.38672 C21.8809833,11.26792 21.89065,11.06632 21.7714278,10.93592 C21.6518028,10.80552 21.4484,10.79632 21.3174972,10.91512 L20.3907056,11.75272 C20.2598028,11.87152 20.2501361,12.07352 20.3693583,12.20352 C20.4329972,12.27272 20.5199972,12.30792 20.6069972,12.30792 Z" id="Stroke-13" stroke="#FFFFFF" stroke-width="0.775"></path>
                    <path d="M20.8233694,16.11376 C20.6924667,15.99496 20.4890639,16.00456 20.3694389,16.13496 C20.2502167,16.26496 20.2598833,16.46696 20.3907861,16.58536 L21.3175778,17.42336 C21.3792028,17.47896 21.4561333,17.50656 21.5338694,17.50656 C21.6204667,17.50656 21.7078694,17.47176 21.7715083,17.40256 C21.8903278,17.27216 21.8810639,17.07056 21.7501611,16.95176 L20.8233694,16.11376 Z" id="Fill-14" fill="#FFFFFF"></path>
                    <path d="M20.8233694,16.11376 C20.6924667,15.99496 20.4890639,16.00456 20.3694389,16.13496 C20.2502167,16.26496 20.2598833,16.46696 20.3907861,16.58536 L21.3175778,17.42336 C21.3792028,17.47896 21.4561333,17.50656 21.5338694,17.50656 C21.6204667,17.50656 21.7078694,17.47176 21.7715083,17.40256 C21.8903278,17.27216 21.8810639,17.07056 21.7501611,16.95176 L20.8233694,16.11376 Z" id="Stroke-15" stroke="#FFFFFF" stroke-width="0.775"></path>
                    <path d="M22.6122667,13.85012 L21.119975,13.85012 C20.94235,13.85012 20.7989611,13.99292 20.7989611,14.16932 C20.7989611,14.34532 20.94235,14.48852 21.119975,14.48852 L22.6122667,14.48852 C22.7894889,14.48852 22.9336833,14.34532 22.9336833,14.16932 C22.9336833,13.99292 22.7894889,13.85012 22.6122667,13.85012" id="Fill-16" fill="#FFFFFF"></path>
                    <path d="M22.6122667,13.85012 L21.119975,13.85012 C20.94235,13.85012 20.7989611,13.99292 20.7989611,14.16932 C20.7989611,14.34532 20.94235,14.48852 21.119975,14.48852 L22.6122667,14.48852 C22.7894889,14.48852 22.9336833,14.34532 22.9336833,14.16932 C22.9336833,13.99292 22.7894889,13.85012 22.6122667,13.85012 Z" id="Stroke-17" stroke="#FFFFFF" stroke-width="0.775"></path>
                </g>
            </g>
        </g>
    </g>
</svg>