<?xml version="1.0" encoding="UTF-8"?>
<svg width="31px" height="29px" viewBox="0 0 31 29" version="1.1" xmlns="http://www.w3.org/2000/svg" xmlns:xlink="http://www.w3.org/1999/xlink">
    <!-- Generator: Sketch 59.1 (86144) - https://sketch.com -->
    <title>Group 29</title>
    <desc>Created with Sketch.</desc>
    <g id="Home" stroke="none" stroke-width="1" fill="none" fill-rule="evenodd">
        <g id="Large-Devices_Pubbliche-Amministrazioni" transform="translate(-425.000000, -1870.000000)">
            <g id="Group-29" transform="translate(426.000000, 1871.000000)">
                <g id="Group-28">
                    <path d="M18.8995417,3.88903846 L27.9153194,3.88903846 L27.9153194,1.05237692 L18.8995417,1.05237692 L18.8995417,3.88903846 Z M1.02063889,3.88903846 L17.9824167,3.88903846 L17.9824167,1.05237692 L1.02063889,1.05237692 L1.02063889,3.88903846 Z M28.3736806,0.106961538 L0.561875,0.106961538 C0.309333333,0.106961538 0.103916667,0.318392308 0.103916667,0.579669231 L0.103916667,26.4249 C0.103916667,26.6861769 0.309333333,26.8980231 0.561875,26.8980231 L28.3736806,26.8980231 C28.626625,26.8980231 28.8320417,26.6861769 28.8320417,26.4249 L28.8320417,21.3817154 C28.8320417,21.1208538 28.626625,20.9094231 28.3736806,20.9094231 C28.1203333,20.9094231 27.9153194,21.1208538 27.9153194,21.3817154 L27.9153194,25.9521923 L1.02063889,25.9521923 L1.02063889,4.83445385 L27.9153194,4.83445385 L27.9153194,18.0644538 C27.9153194,18.3257308 28.1203333,18.5375769 28.3736806,18.5375769 C28.626625,18.5375769 28.8320417,18.3257308 28.8320417,18.0644538 L28.8320417,0.579669231 C28.8320417,0.318392308 28.626625,0.106961538 28.3736806,0.106961538 L28.3736806,0.106961538 Z" id="Fill-1" fill="#FFFFFF"></path>
                    <path d="M18.8995417,3.88903846 L27.9153194,3.88903846 L27.9153194,1.05237692 L18.8995417,1.05237692 L18.8995417,3.88903846 Z M1.02063889,3.88903846 L17.9824167,3.88903846 L17.9824167,1.05237692 L1.02063889,1.05237692 L1.02063889,3.88903846 Z M28.3736806,0.106961538 L0.561875,0.106961538 C0.309333333,0.106961538 0.103916667,0.318392308 0.103916667,0.579669231 L0.103916667,26.4249 C0.103916667,26.6861769 0.309333333,26.8980231 0.561875,26.8980231 L28.3736806,26.8980231 C28.626625,26.8980231 28.8320417,26.6861769 28.8320417,26.4249 L28.8320417,21.3817154 C28.8320417,21.1208538 28.626625,20.9094231 28.3736806,20.9094231 C28.1203333,20.9094231 27.9153194,21.1208538 27.9153194,21.3817154 L27.9153194,25.9521923 L1.02063889,25.9521923 L1.02063889,4.83445385 L27.9153194,4.83445385 L27.9153194,18.0644538 C27.9153194,18.3257308 28.1203333,18.5375769 28.3736806,18.5375769 C28.626625,18.5375769 28.8320417,18.3257308 28.8320417,18.0644538 L28.8320417,0.579669231 C28.8320417,0.318392308 28.626625,0.106961538 28.3736806,0.106961538 Z" id="Stroke-3" stroke="#FFFFFF" stroke-width="0.515"></path>
                    <path d="M23.4224542,1.96668 C23.1529958,1.96668 22.9334819,2.19264923 22.9334819,2.47095692 C22.9334819,2.74884923 23.1529958,2.97523385 23.4224542,2.97523385 C23.6923153,2.97523385 23.9114264,2.74884923 23.9114264,2.47095692 C23.9114264,2.19264923 23.6923153,1.96668 23.4224542,1.96668" id="Fill-4" fill="#FFFFFF"></path>
                    <path d="M23.4224542,1.96668 C23.1529958,1.96668 22.9334819,2.19264923 22.9334819,2.47095692 C22.9334819,2.74884923 23.1529958,2.97523385 23.4224542,2.97523385 C23.6923153,2.97523385 23.9114264,2.74884923 23.9114264,2.47095692 C23.9114264,2.19264923 23.6923153,1.96668 23.4224542,1.96668 Z" id="Stroke-5" stroke="#FFFFFF" stroke-width="0.515"></path>
                    <path d="M20.9164917,1.96668 C20.6466306,1.96668 20.4275194,2.19264923 20.4275194,2.47095692 C20.4275194,2.74884923 20.6466306,2.97523385 20.9164917,2.97523385 C21.18595,2.97523385 21.4054639,2.74884923 21.4054639,2.47095692 C21.4054639,2.19264923 21.18595,1.96668 20.9164917,1.96668" id="Fill-6" fill="#FFFFFF"></path>
                    <path d="M20.9164917,1.96668 C20.6466306,1.96668 20.4275194,2.19264923 20.4275194,2.47095692 C20.4275194,2.74884923 20.6466306,2.97523385 20.9164917,2.97523385 C21.18595,2.97523385 21.4054639,2.74884923 21.4054639,2.47095692 C21.4054639,2.19264923 21.18595,1.96668 20.9164917,1.96668 Z" id="Stroke-7" stroke="#FFFFFF" stroke-width="0.515"></path>
                    <path d="M25.9288194,1.96668 C25.6589583,1.96668 25.4394444,2.19264923 25.4394444,2.47095692 C25.4394444,2.74884923 25.6589583,2.97523385 25.9288194,2.97523385 C26.1982778,2.97523385 26.4177917,2.74884923 26.4177917,2.47095692 C26.4177917,2.19264923 26.1982778,1.96668 25.9288194,1.96668" id="Fill-8" fill="#FFFFFF"></path>
                    <path d="M25.9288194,1.96668 C25.6589583,1.96668 25.4394444,2.19264923 25.4394444,2.47095692 C25.4394444,2.74884923 25.6589583,2.97523385 25.9288194,2.97523385 C26.1982778,2.97523385 26.4177917,2.74884923 26.4177917,2.47095692 C26.4177917,2.19264923 26.1982778,1.96668 25.9288194,1.96668 Z" id="Stroke-9" stroke="#FFFFFF" stroke-width="0.515"></path>
                    <path d="M5.32311111,15.9850385 L6.85125,15.9850385 L6.85125,14.4090692 L5.32311111,14.4090692 L5.32311111,15.9850385 Z M7.76797222,13.9363615 C7.76797222,13.6755 7.56255556,13.4636538 7.30920833,13.4636538 L4.86434722,13.4636538 C4.61140278,13.4636538 4.40598611,13.6755 4.40598611,13.9363615 L4.40598611,16.4577462 C4.40598611,16.7190231 4.61140278,16.9308692 4.86434722,16.9308692 L7.30920833,16.9308692 C7.56255556,16.9308692 7.76797222,16.7190231 7.76797222,16.4577462 L7.76797222,13.9363615 Z" id="Fill-10" fill="#FFFFFF"></path>
                    <path d="M5.32311111,15.9850385 L6.85125,15.9850385 L6.85125,14.4090692 L5.32311111,14.4090692 L5.32311111,15.9850385 Z M7.76797222,13.9363615 C7.76797222,13.6755 7.56255556,13.4636538 7.30920833,13.4636538 L4.86434722,13.4636538 C4.61140278,13.4636538 4.40598611,13.6755 4.40598611,13.9363615 L4.40598611,16.4577462 C4.40598611,16.7190231 4.61140278,16.9308692 4.86434722,16.9308692 L7.30920833,16.9308692 C7.56255556,16.9308692 7.76797222,16.7190231 7.76797222,16.4577462 L7.76797222,13.9363615 Z" id="Stroke-11" stroke="#FFFFFF" stroke-width="0.515"></path>
                    <path d="M5.32311111,21.1108846 L6.85125,21.1108846 L6.85125,19.5349154 L5.32311111,19.5349154 L5.32311111,21.1108846 Z M7.30920833,18.5895 L4.86434722,18.5895 C4.61140278,18.5895 4.40598611,18.8009308 4.40598611,19.0617923 L4.40598611,21.5835923 C4.40598611,21.8448692 4.61140278,22.0563 4.86434722,22.0563 L7.30920833,22.0563 C7.56255556,22.0563 7.76797222,21.8448692 7.76797222,21.5835923 L7.76797222,19.0617923 C7.76797222,18.8009308 7.56255556,18.5895 7.30920833,18.5895 L7.30920833,18.5895 Z" id="Fill-12" fill="#FFFFFF"></path>
                    <path d="M5.32311111,21.1108846 L6.85125,21.1108846 L6.85125,19.5349154 L5.32311111,19.5349154 L5.32311111,21.1108846 Z M7.30920833,18.5895 L4.86434722,18.5895 C4.61140278,18.5895 4.40598611,18.8009308 4.40598611,19.0617923 L4.40598611,21.5835923 C4.40598611,21.8448692 4.61140278,22.0563 4.86434722,22.0563 L7.30920833,22.0563 C7.56255556,22.0563 7.76797222,21.8448692 7.76797222,21.5835923 L7.76797222,19.0617923 C7.76797222,18.8009308 7.56255556,18.5895 7.30920833,18.5895 Z" id="Stroke-13" stroke="#FFFFFF" stroke-width="0.515"></path>
                    <path d="M23.2100694,14.7243462 L21.3762222,14.7243462 C21.1232778,14.7243462 20.9182639,14.9361923 20.9182639,15.1970538 C20.9182639,15.4583308 21.1232778,15.6697615 21.3762222,15.6697615 L23.2100694,15.6697615 C23.4634167,15.6697615 23.6688333,15.4583308 23.6688333,15.1970538 C23.6688333,14.9361923 23.4634167,14.7243462 23.2100694,14.7243462" id="Fill-14" fill="#FFFFFF"></path>
                    <path d="M23.2100694,14.7243462 L21.3762222,14.7243462 C21.1232778,14.7243462 20.9182639,14.9361923 20.9182639,15.1970538 C20.9182639,15.4583308 21.1232778,15.6697615 21.3762222,15.6697615 L23.2100694,15.6697615 C23.4634167,15.6697615 23.6688333,15.4583308 23.6688333,15.1970538 C23.6688333,14.9361923 23.4634167,14.7243462 23.2100694,14.7243462 Z" id="Stroke-15" stroke="#FFFFFF" stroke-width="0.515"></path>
                    <path d="M18.8510875,14.7243462 L9.83450417,14.7243462 C9.58155972,14.7243462 9.37654583,14.9361923 9.37654583,15.1970538 C9.37654583,15.4583308 9.58155972,15.6697615 9.83450417,15.6697615 L18.8510875,15.6697615 C19.1044347,15.6697615 19.3098514,15.4583308 19.3098514,15.1970538 C19.3098514,14.9361923 19.1044347,14.7243462 18.8510875,14.7243462" id="Fill-16" fill="#FFFFFF"></path>
                    <path d="M18.8510875,14.7243462 L9.83450417,14.7243462 C9.58155972,14.7243462 9.37654583,14.9361923 9.37654583,15.1970538 C9.37654583,15.4583308 9.58155972,15.6697615 9.83450417,15.6697615 L18.8510875,15.6697615 C19.1044347,15.6697615 19.3098514,15.4583308 19.3098514,15.1970538 C19.3098514,14.9361923 19.1044347,14.7243462 18.8510875,14.7243462 Z" id="Stroke-17" stroke="#FFFFFF" stroke-width="0.515"></path>
                    <path d="M5.32311111,10.8758077 L6.85125,10.8758077 L6.85125,9.29983846 L5.32311111,9.29983846 L5.32311111,10.8758077 Z M7.76797222,8.82754615 C7.76797222,8.56626923 7.56255556,8.35442308 7.30920833,8.35442308 L4.86434722,8.35442308 C4.61140278,8.35442308 4.40598611,8.56626923 4.40598611,8.82754615 L4.40598611,11.3489308 C4.40598611,11.6102077 4.61140278,11.8216385 4.86434722,11.8216385 L7.30920833,11.8216385 C7.56255556,11.8216385 7.76797222,11.6102077 7.76797222,11.3489308 L7.76797222,8.82754615 Z" id="Fill-18" fill="#FFFFFF"></path>
                    <path d="M5.32311111,10.8758077 L6.85125,10.8758077 L6.85125,9.29983846 L5.32311111,9.29983846 L5.32311111,10.8758077 Z M7.76797222,8.82754615 C7.76797222,8.56626923 7.56255556,8.35442308 7.30920833,8.35442308 L4.86434722,8.35442308 C4.61140278,8.35442308 4.40598611,8.56626923 4.40598611,8.82754615 L4.40598611,11.3489308 C4.40598611,11.6102077 4.61140278,11.8216385 4.86434722,11.8216385 L7.30920833,11.8216385 C7.56255556,11.8216385 7.76797222,11.6102077 7.76797222,11.3489308 L7.76797222,8.82754615 Z" id="Stroke-19" stroke="#FFFFFF" stroke-width="0.515"></path>
                    <path d="M23.2100694,9.61519846 L21.3762222,9.61519846 C21.1232778,9.61519846 20.9182639,9.82704462 20.9182639,10.0883215 C20.9182639,10.3495985 21.1232778,10.5606138 21.3762222,10.5606138 L23.2100694,10.5606138 C23.4634167,10.5606138 23.6688333,10.3495985 23.6688333,10.0883215 C23.6688333,9.82704462 23.4634167,9.61519846 23.2100694,9.61519846" id="Fill-20" fill="#FFFFFF"></path>
                    <path d="M23.2100694,9.61519846 L21.3762222,9.61519846 C21.1232778,9.61519846 20.9182639,9.82704462 20.9182639,10.0883215 C20.9182639,10.3495985 21.1232778,10.5606138 21.3762222,10.5606138 L23.2100694,10.5606138 C23.4634167,10.5606138 23.6688333,10.3495985 23.6688333,10.0883215 C23.6688333,9.82704462 23.4634167,9.61519846 23.2100694,9.61519846 Z" id="Stroke-21" stroke="#FFFFFF" stroke-width="0.515"></path>
                    <path d="M18.8510875,9.61519846 L9.83450417,9.61519846 C9.58155972,9.61519846 9.37654583,9.82704462 9.37654583,10.0883215 C9.37654583,10.3495985 9.58155972,10.5606138 9.83450417,10.5606138 L18.8510875,10.5606138 C19.1044347,10.5606138 19.3098514,10.3495985 19.3098514,10.0883215 C19.3098514,9.82704462 19.1044347,9.61519846 18.8510875,9.61519846" id="Fill-22" fill="#FFFFFF"></path>
                    <path d="M18.8510875,9.61519846 L9.83450417,9.61519846 C9.58155972,9.61519846 9.37654583,9.82704462 9.37654583,10.0883215 C9.37654583,10.3495985 9.58155972,10.5606138 9.83450417,10.5606138 L18.8510875,10.5606138 C19.1044347,10.5606138 19.3098514,10.3495985 19.3098514,10.0883215 C19.3098514,9.82704462 19.1044347,9.61519846 18.8510875,9.61519846 Z" id="Stroke-23" stroke="#FFFFFF" stroke-width="0.515"></path>
                    <path d="M23.2100694,19.8501508 L21.3762222,19.8501508 C21.1232778,19.8501508 20.9182639,20.0619969 20.9182639,20.3228585 C20.9182639,20.5841354 21.1232778,20.7955662 21.3762222,20.7955662 L23.2100694,20.7955662 C23.4634167,20.7955662 23.6688333,20.5841354 23.6688333,20.3228585 C23.6688333,20.0619969 23.4634167,19.8501508 23.2100694,19.8501508" id="Fill-24" fill="#FFFFFF"></path>
                    <path d="M23.2100694,19.8501508 L21.3762222,19.8501508 C21.1232778,19.8501508 20.9182639,20.0619969 20.9182639,20.3228585 C20.9182639,20.5841354 21.1232778,20.7955662 21.3762222,20.7955662 L23.2100694,20.7955662 C23.4634167,20.7955662 23.6688333,20.5841354 23.6688333,20.3228585 C23.6688333,20.0619969 23.4634167,19.8501508 23.2100694,19.8501508 Z" id="Stroke-25" stroke="#FFFFFF" stroke-width="0.515"></path>
                    <path d="M18.8510875,19.8501508 L9.83450417,19.8501508 C9.58155972,19.8501508 9.37654583,20.0619969 9.37654583,20.3228585 C9.37654583,20.5841354 9.58155972,20.7955662 9.83450417,20.7955662 L18.8510875,20.7955662 C19.1044347,20.7955662 19.3098514,20.5841354 19.3098514,20.3228585 C19.3098514,20.0619969 19.1044347,19.8501508 18.8510875,19.8501508" id="Fill-26" fill="#FFFFFF"></path>
                    <path d="M18.8510875,19.8501508 L9.83450417,19.8501508 C9.58155972,19.8501508 9.37654583,20.0619969 9.37654583,20.3228585 C9.37654583,20.5841354 9.58155972,20.7955662 9.83450417,20.7955662 L18.8510875,20.7955662 C19.1044347,20.7955662 19.3098514,20.5841354 19.3098514,20.3228585 C19.3098514,20.0619969 19.1044347,19.8501508 18.8510875,19.8501508 Z" id="Stroke-27" stroke="#FFFFFF" stroke-width="0.515"></path>
                </g>
            </g>
        </g>
    </g>
</svg>