<?xml version="1.0" encoding="UTF-8"?>
<svg width="123px" height="121px" viewBox="0 0 123 121" version="1.1" xmlns="http://www.w3.org/2000/svg" xmlns:xlink="http://www.w3.org/1999/xlink">
    <!-- Generator: Sketch 59.1 (86144) - https://sketch.com -->
    <title>Group</title>
    <desc>Created with Sketch.</desc>
    <defs>
        <polygon id="path-1" points="0 0.00878571429 84.7235309 0.00878571429 84.7235309 12 0 12"></polygon>
        <polygon id="path-3" points="0.324384416 0.269216129 66.6301948 0.269216129 66.6301948 26.8158774 0.324384416 26.8158774"></polygon>
        <polygon id="path-5" points="0 73 123 73 123 1 0 1"></polygon>
    </defs>
    <g id="Home" stroke="none" stroke-width="1" fill="none" fill-rule="evenodd">
        <g id="Large-Devices_Pubbliche-Amministrazioni" transform="translate(-412.000000, -1446.000000)">
            <g id="Group" transform="translate(412.000000, 1435.000000)">
                <g id="Group-48" transform="translate(0.000000, 59.000000)">
                    <path d="M80,62 C79.4473439,62 79,61.5819108 79,61.066369 L79,24.9340661 C79,24.4180892 79.4473439,24 80,24 C80.5526561,24 81,24.4180892 81,24.9340661 L81,61.066369 C81,61.5819108 80.5526561,62 80,62" id="Fill-1" fill="#FFFFFF"></path>
                    <path d="M4.93078877,62 C4.41638268,62 4,61.5831138 4,61.0690553 L4,15.2692641 C4,11.2609094 7.2603631,8 11.2676126,8 L52.0692112,8 C52.5831836,8 53,8.41688625 53,8.93094473 C53,9.44500321 52.5831836,9.86188946 52.0692112,9.86188946 L11.2676126,9.86188946 C8.2865729,9.86188946 5.86157755,12.2877249 5.86157755,15.2692641 L5.86157755,61.0690553 C5.86157755,61.5831138 5.44519487,62 4.93078877,62" id="Fill-3" fill="#FFFFFF"></path>
                    <path d="M73.0662735,56 L11.9337265,56 C11.418132,56 11,55.581218 11,55.0648219 L11,16.9351781 C11,16.418782 11.418132,16 11.9337265,16 L52.0735251,16 C52.5891197,16 53.0072517,16.418782 53.0072517,16.9351781 C53.0072517,17.45201 52.5891197,17.870792 52.0735251,17.870792 L12.8678882,17.870792 L12.8678882,54.129208 L72.1325469,54.129208 L72.1325469,25.3879508 C72.1325469,24.8711189 72.5502438,24.4523369 73.0662735,24.4523369 C73.5823031,24.4523369 74,24.8711189 74,25.3879508 L74,55.0648219 C74,55.581218 73.5823031,56 73.0662735,56" id="Fill-5" fill="#FFFFFF"></path>
                    <g id="Group-9" transform="translate(0.000000, 61.000000)">
                        <mask id="mask-2" fill="white">
                            <use xlink:href="#path-1"></use>
                        </mask>
                        <g id="Clip-8"></g>
                        <path d="M1.88095361,1.84864286 L1.88095361,4.81821429 C1.88095361,7.76378571 4.33061856,10.1603571 7.34198454,10.1603571 L77.3815464,10.1603571 C80.3929124,10.1603571 82.8425773,7.76378571 82.8425773,4.81821429 L82.8425773,1.84864286 L52.0370876,1.84864286 L52.0370876,3.10392857 C52.0370876,4.5135 50.8641753,5.66078571 49.4231186,5.66078571 L35.3004124,5.66078571 C33.8589175,5.66078571 32.6864433,4.5135 32.6864433,3.10392857 L32.6864433,1.84864286 L1.88095361,1.84864286 Z M77.3815464,12.0002143 L7.34198454,12.0002143 C3.29396907,12.0002143 0,8.77821429 0,4.81821429 L0,0.928928571 C0,0.420642857 0.421056701,0.00878571429 0.940695876,0.00878571429 L33.7336082,0.00878571429 C34.0407474,0.00878571429 34.3286082,0.155785714 34.5043041,0.401785714 C34.68,0.647785714 34.7220619,0.962785714 34.6169072,1.24478571 C34.5836082,1.33435714 34.5673969,1.41278571 34.5673969,1.48564286 L34.5673969,3.10392857 C34.5673969,3.4995 34.8964433,3.82092857 35.3004124,3.82092857 L49.4231186,3.82092857 C49.8275258,3.82092857 50.156134,3.4995 50.156134,3.10392857 L50.156134,1.48564286 C50.156134,1.41235714 50.1403608,1.33435714 50.1070619,1.24692857 C50.0005928,0.9645 50.0422165,0.649071429 50.2179124,0.402642857 C50.3940464,0.156214286 50.6819072,0.00878571429 50.9894845,0.00878571429 L83.7832732,0.00878571429 C84.3024742,0.00878571429 84.7235309,0.420642857 84.7235309,0.928928571 L84.7235309,4.81821429 C84.7235309,8.77821429 81.43,12.0002143 77.3815464,12.0002143 L77.3815464,12.0002143 Z" id="Fill-7" fill="#FFFFFF" mask="url(#mask-2)"></path>
                    </g>
                    <path d="M35.0346586,37 L15.9653414,37 C15.4322894,37 15,36.5522944 15,36.0002329 C15,35.4477056 15.4322894,35 15.9653414,35 L35.0346586,35 C35.5681604,35 36,35.4477056 36,36.0002329 C36,36.5522944 35.5681604,37 35.0346586,37" id="Fill-10" fill="#FFFFFF"></path>
                    <path d="M40.0737544,43 L16.9262456,43 C16.4147819,43 16,42.5522944 16,42.0002329 C16,41.4477056 16.4147819,41 16.9262456,41 L40.0737544,41 C40.5856497,41 41,41.4477056 41,42.0002329 C41,42.5522944 40.5856497,43 40.0737544,43" id="Fill-12" fill="#FFFFFF"></path>
                    <path d="M24.172451,49 L20.827549,49 C20.3705846,49 20,48.5522944 20,48.0002329 C20,47.4477056 20.3705846,47 20.827549,47 L24.172451,47 C24.629801,47 25,47.4477056 25,48.0002329 C25,48.5522944 24.629801,49 24.172451,49" id="Fill-14" fill="#FFFFFF"></path>
                    <path d="M42.0918324,49 L28.9085908,49 C28.4066864,49 28,48.5522944 28,48.0002329 C28,47.4477056 28.4066864,47 28.9085908,47 L42.0918324,47 C42.5937368,47 43,47.4477056 43,48.0002329 C43,48.5522944 42.5937368,49 42.0918324,49" id="Fill-16" fill="#FFFFFF"></path>
                    <path d="M53.0247872,43 L43.9756672,43 C43.4367099,43 43,42.5522944 43,42.0002329 C43,41.4477056 43.4367099,41 43.9756672,41 L53.0247872,41 C53.5637445,41 54,41.4477056 54,42.0002329 C54,42.5522944 53.5637445,43 53.0247872,43" id="Fill-18" fill="#FFFFFF"></path>
                    <path d="M58.1053674,43 L55.8946326,43 C55.4006253,43 55,42.5522944 55,42.0002329 C55,41.4477056 55.4006253,41 55.8946326,41 L58.1053674,41 C58.5997916,41 59,41.4477056 59,42.0002329 C59,42.5522944 58.5997916,43 58.1053674,43" id="Fill-20" fill="#FFFFFF"></path>
                    <path d="M44.0805484,37 L38.9194516,37 C38.4117395,37 38,36.5522944 38,36.0002329 C38,35.4477056 38.4117395,35 38.9194516,35 L44.0805484,35 C44.5886889,35 45,35.4477056 45,36.0002329 C45,36.5522944 44.5886889,37 44.0805484,37" id="Fill-22" fill="#FFFFFF"></path>
                    <path d="M47.1582663,37 L46.8417337,37 C46.3769367,37 46,36.5522944 46,36.0002329 C46,35.4477056 46.3769367,35 46.8417337,35 L47.1582663,35 C47.6234556,35 48,35.4477056 48,36.0002329 C48,36.5522944 47.6234556,37 47.1582663,37" id="Fill-24" fill="#FFFFFF"></path>
                    <path d="M17.1582663,49 L16.8417337,49 C16.3769367,49 16,48.5522944 16,48.0002329 C16,47.4477056 16.3769367,47 16.8417337,47 L17.1582663,47 C17.6234556,47 18,47.4477056 18,48.0002329 C18,48.5522944 17.6234556,49 17.1582663,49" id="Fill-26" fill="#FFFFFF"></path>
                    <path d="M18.15563,30 C17.9186576,30 17.6836534,29.8874991 17.5167493,29.667876 L15.2060715,26.6294566 C14.9313095,26.2681989 14.9313095,25.7316909 15.2060715,25.3699849 L17.5167493,22.3320138 C17.8218217,21.9313135 18.3556001,21.8864925 18.7083032,22.2347521 C19.0610063,22.5821153 19.0991896,23.1898888 18.7937235,23.5914854 L16.9621079,25.9997208 L18.7937235,28.4079561 C19.0991896,28.810001 19.0610063,29.4173263 18.7083032,29.7651377 C18.5484846,29.9224596 18.3516637,30 18.15563,30" id="Fill-28" fill="#FFFFFF"></path>
                    <path d="M30.84437,30 C30.6483363,30 30.4515154,29.9224625 30.2916968,29.7651465 C29.9389937,29.4173483 29.9008104,28.8100459 30.2062765,28.4080161 L32.0378921,25.9998717 L30.2062765,23.5917272 C29.9008104,23.1901456 29.9389937,22.5823951 30.2916968,22.235045 C30.6447935,21.8867985 31.1785719,21.9307215 31.4832507,22.332303 L33.7939285,25.3701596 C34.0686905,25.7318518 34.0686905,26.2683397 33.7939285,26.6295837 L31.4832507,29.6678885 C31.3163466,29.8870552 31.0813424,30 30.84437,30" id="Fill-30" fill="#FFFFFF"></path>
                    <path d="M22.8132451,30 C22.6778459,30 22.540171,29.9595902 22.4138743,29.8756277 C22.0224681,29.6138621 21.884414,29.0261242 22.1051489,28.5627587 L25.4768553,21.4905976 C25.6975902,21.0267831 26.1951918,20.862899 26.5858395,21.1246646 C26.9772457,21.3864302 27.1156791,21.974168 26.8949442,22.4375335 L23.5228585,29.5096946 C23.3734263,29.8235439 23.097318,30 22.8132451,30" id="Fill-32" fill="#FFFFFF"></path>
                    <g id="Group-36" transform="translate(56.000000, 0.000000)">
                        <mask id="mask-4" fill="white">
                            <use xlink:href="#path-3"></use>
                        </mask>
                        <g id="Clip-35"></g>
                        <path d="M6.04374805,2.1383129 C3.91976104,2.1383129 2.19211818,3.86805484 2.19211818,5.99365161 L2.19211818,14.7673452 C2.19211818,16.8933774 3.91976104,18.6226839 6.04374805,18.6226839 L8.17252078,18.6226839 C8.68807273,18.6226839 9.10617013,19.0407484 9.10617013,19.5572323 L9.10617013,23.6246516 L13.8296701,18.8961677 C14.0050013,18.7211032 14.2425468,18.6226839 14.4900987,18.6226839 L60.9110922,18.6226839 C63.0350792,18.6226839 64.7627221,16.8933774 64.7627221,14.7673452 L64.7627221,5.99365161 C64.7627221,3.86805484 63.0350792,2.1383129 60.9110922,2.1383129 L6.04374805,2.1383129 Z M8.17252078,26.8158774 C8.05157273,26.8158774 7.93062468,26.7923613 7.8148974,26.7444581 C7.46641039,26.5998774 7.23843636,26.259329 7.23843636,25.881329 L7.23843636,20.4922161 L6.04374805,20.4922161 C2.8903974,20.4922161 0.324384416,17.9237323 0.324384416,14.7673452 L0.324384416,5.99365161 C0.324384416,2.83726452 2.8903974,0.269216129 6.04374805,0.269216129 L60.9110922,0.269216129 C64.0644429,0.269216129 66.6304558,2.83726452 66.6304558,5.99365161 L66.6304558,14.7673452 C66.6304558,17.9237323 64.0644429,20.4922161 60.9110922,20.4922161 L14.8768714,20.4922161 L8.83251429,26.5419581 C8.65413766,26.7205065 8.41485195,26.8158774 8.17252078,26.8158774 L8.17252078,26.8158774 Z" id="Fill-34" fill="#00FFF8" mask="url(#mask-4)"></path>
                    </g>
                    <path d="M68.7466469,7.34121488 L68.0175238,11.1414739 L69.9824762,11.1414739 L69.2537575,7.34121488 L68.7466469,7.34121488 Z M66,14 L67.6159601,6 L70.3840399,6 L72,14 L70.5421581,14 L70.2570601,12.5529471 L67.7429399,12.5529471 L67.4574375,14 L66,14 Z" id="Fill-37" fill="#00FFF8"></path>
                    <path d="M74.4025054,10.2821595 L75.5303455,10.2821595 C76.2282913,10.2821595 76.5772642,9.78044249 76.5772642,8.77655801 C76.5772642,8.28249733 76.4924525,7.92715195 76.3232182,7.71142262 C76.1539838,7.4956933 75.8894336,7.38805382 75.5303455,7.38805382 L74.4025054,7.38805382 L74.4025054,10.2821595 Z M75.5408497,11.6706637 L74.4025054,11.6706637 L74.4025054,14 L73,14 L73,6 L75.5408497,6 C77.1802832,6 78,6.92551934 78,8.77655801 C78,9.70973372 77.7918612,10.4253786 77.3751945,10.9234927 C76.9581388,11.4216067 76.3469499,11.6706637 75.5408497,11.6706637 L75.5408497,11.6706637 Z" id="Fill-39" fill="#00FFF8"></path>
                    <mask id="mask-6" fill="white">
                        <use xlink:href="#path-5"></use>
                    </mask>
                    <g id="Clip-42"></g>
                    <polygon id="Fill-41" fill="#00FFF8" mask="url(#mask-6)" points="80 14 82 14 82 6 80 6"></polygon>
                    <polygon id="Fill-43" fill="#00FFF8" mask="url(#mask-6)" points="89.1106981 9 90.0256093 10.8381861 90.9615861 9 92 9 90.5774473 11.5514558 92 14 90.8893019 14 89.9748038 12.2722557 89.0380008 14 88 14 89.4229657 11.6029116 88 9"></polygon>
                    <polygon id="Fill-44" fill="#00FFF8" mask="url(#mask-6)" points="93.1106981 9 94.0256093 10.8381861 94.9615861 9 96 9 94.5774473 11.5514558 96 14 94.8893019 14 93.9748038 12.2722557 93.0380008 14 92 14 93.4229657 11.6029116 92 9"></polygon>
                    <polygon id="Fill-45" fill="#00FFF8" mask="url(#mask-6)" points="98.1106981 9 99.0256093 10.8381861 99.9615861 9 101 9 99.5774473 11.5514558 101 14 99.8893019 14 98.9748038 12.2722557 98.0380008 14 97 14 98.4229657 11.6029116 97 9"></polygon>
                    <polygon id="Fill-46" fill="#00FFF8" mask="url(#mask-6)" points="104.110698 9 105.025609 10.8381861 105.961586 9 107 9 105.577447 11.5514558 107 14 105.889302 14 104.974804 12.2722557 104.038001 14 103 14 104.422966 11.6029116 103 9"></polygon>
                    <polygon id="Fill-47" fill="#00FFF8" mask="url(#mask-6)" points="109.110698 9 110.025609 10.8381861 110.961586 9 112 9 110.577447 11.5514558 112 14 110.889302 14 109.974804 12.2722557 109.038001 14 108 14 109.422966 11.6029116 108 9"></polygon>
                </g>
                <text id="02" font-family="TitilliumWeb-SemiBold, Titillium Web" font-size="24" font-weight="500" line-spacing="38" fill="#21DEDF">
                    <tspan x="0" y="27">02</tspan>
                </text>
            </g>
        </g>
    </g>
</svg>