<?xml version="1.0" encoding="UTF-8"?>
<svg width="28px" height="31px" viewBox="0 0 28 31" version="1.1" xmlns="http://www.w3.org/2000/svg" xmlns:xlink="http://www.w3.org/1999/xlink">
    <!-- Generator: Sketch 59.1 (86144) - https://sketch.com -->
    <title>Group 19</title>
    <desc>Created with Sketch.</desc>
    <defs>
        <polygon id="path-1" points="4.74576271e-05 0.387087199 27.6070508 0.387087199 27.6070508 30.8718902 4.74576271e-05 30.8718902"></polygon>
        <polygon id="path-3" points="0 30.9599466 27.6070508 30.9599466 27.6070508 0.475048609 0 0.475048609"></polygon>
    </defs>
    <g id="Home" stroke="none" stroke-width="1" fill="none" fill-rule="evenodd">
        <g id="Large-Devices_Pubbliche-Amministrazioni" transform="translate(-172.000000, -1869.000000)">
            <g id="Group-19" transform="translate(172.000000, 1869.000000)">
                <g id="Group-12">
                    <g id="Group-3" transform="translate(0.000000, 0.087961)">
                        <mask id="mask-2" fill="white">
                            <use xlink:href="#path-1"></use>
                        </mask>
                        <g id="Clip-2"></g>
                        <path d="M23.7990983,2.41931874 L25.5749627,4.19564527 L23.7990983,4.19564527 L23.7990983,2.41931874 Z M20.4670983,23.1310961 L20.4670983,27.8948809 C20.4670983,28.8799347 19.6664881,29.6807065 18.6826915,29.6807065 L2.97469153,29.6807065 C1.99089492,29.6807065 1.18981017,28.8799347 1.18981017,27.8948809 L1.18981017,23.1310961 C1.18981017,22.1460423 1.99089492,21.3447955 2.97469153,21.3447955 L18.6826915,21.3447955 C19.6664881,21.3447955 20.4670983,22.1460423 20.4670983,23.1310961 L20.4670983,23.1310961 Z M27.4324542,4.36995325 L23.6249288,0.561300186 C23.5129288,0.450161039 23.3620136,0.386992208 23.2044542,0.386992208 L5.59292881,0.386992208 C5.26404746,0.386992208 4.99781017,0.653441187 4.99781017,0.982584045 L4.99781017,20.1540868 L2.97469153,20.1540868 C1.33455593,20.1540868 4.74576271e-05,21.4891814 4.74576271e-05,23.1310961 L4.74576271e-05,27.8948809 C4.74576271e-05,29.5363206 1.33455593,30.8718902 2.97469153,30.8718902 L18.6826915,30.8718902 L27.0124542,30.8718902 C27.340861,30.8718902 27.6070983,30.6054412 27.6070983,30.2762983 L27.6070983,15.8690553 C27.6070983,15.5403874 27.340861,15.2734635 27.0124542,15.2734635 C26.6835729,15.2734635 26.4173356,15.5403874 26.4173356,15.8690553 L26.4173356,29.6807065 L21.0603186,29.6807065 C21.4352339,29.1834301 21.6573356,28.5645655 21.6573356,27.8948809 L21.6573356,23.1310961 C21.6573356,21.4891814 20.3228271,20.1540868 18.6826915,20.1540868 L6.18804746,20.1540868 L6.18804746,1.57817588 L22.6093356,1.57817588 L22.6093356,4.79123711 C22.6093356,5.12037996 22.8760475,5.38635399 23.2044542,5.38635399 L26.4173356,5.38635399 L26.4173356,12.9566397 C26.4173356,13.2853076 26.6835729,13.5517566 27.0124542,13.5517566 C27.340861,13.5517566 27.6070983,13.2853076 27.6070983,12.9566397 L27.6070983,4.79123711 C27.6070983,4.63307755 27.5444542,4.48156735 27.4324542,4.36995325 L27.4324542,4.36995325 Z" id="Fill-1" fill="#FFFFFF" mask="url(#mask-2)"></path>
                    </g>
                    <path d="M16.1836203,26.1964942 L16.4213831,26.1964942 C16.7493153,26.1964942 17.0165017,26.4634182 17.0165017,26.7916111 C17.0165017,27.1198041 16.7493153,27.387203 16.4213831,27.387203 L15.559078,27.387203 C15.2301966,27.387203 14.9639593,27.6536519 14.9639593,27.9827948 C14.9639593,28.3114627 15.2301966,28.5783866 15.559078,28.5783866 L16.4213831,28.5783866 C17.4056542,28.5783866 18.206739,27.7766649 18.206739,26.7916111 C18.206739,25.8070323 17.4056542,25.0053106 16.4213831,25.0053106 L16.1836203,25.0053106 C15.8556881,25.0053106 15.5885017,24.7383866 15.5885017,24.4097187 C15.5885017,24.0815258 15.8556881,23.8141269 16.1836203,23.8141269 L16.8674847,23.8141269 C17.1963661,23.8141269 17.4626034,23.5481529 17.4626034,23.21901 C17.4626034,22.8903421 17.1963661,22.6238931 16.8674847,22.6238931 L16.1836203,22.6238931 C15.1993492,22.6238931 14.3982644,23.4251399 14.3982644,24.4097187 C14.3982644,25.3952475 15.1993492,26.1964942 16.1836203,26.1964942" id="Fill-4" fill="#FFFFFF"></path>
                    <path d="M4.51061017,22.8472638 C4.30511864,22.5903139 3.93067797,22.548518 3.6739322,22.7541729 C3.41766102,22.9593529 3.37589831,23.3340913 3.58138983,23.5910412 L5.18783051,25.6010449 L3.58138983,27.6105737 C3.37589831,27.8675236 3.41766102,28.241787 3.6739322,28.4479169 C3.7840339,28.5357833 3.91501695,28.5780542 4.04552542,28.5780542 C4.22016949,28.5780542 4.39291525,28.5015866 4.51061017,28.354826 L5.94952542,26.5542768 L7.38891525,28.354826 C7.50661017,28.5015866 7.67983051,28.5780542 7.854,28.5780542 C7.9840339,28.5780542 8.1159661,28.5357833 8.22511864,28.4479169 C8.48186441,28.242262 8.52362712,27.8675236 8.31813559,27.6105737 L6.71169492,25.6010449 L8.31813559,23.5910412 C8.52362712,23.3340913 8.48186441,22.9593529 8.22511864,22.7541729 C7.96884746,22.548518 7.59440678,22.5903139 7.38891525,22.8472638 L5.94952542,24.647813 L4.51061017,22.8472638 Z" id="Fill-6" fill="#FFFFFF"></path>
                    <path d="M10.2338102,28.5782442 L12.6138102,28.5782442 C12.9422169,28.5782442 13.2089288,28.3113202 13.2089288,27.9826523 C13.2089288,27.6539844 12.9422169,27.3870605 12.6138102,27.3870605 L10.8289288,27.3870605 L10.8289288,23.2193425 C10.8289288,22.8901996 10.5622169,22.6237506 10.2338102,22.6237506 C9.90540339,22.6237506 9.63869153,22.8901996 9.63869153,23.2193425 L9.63869153,27.9826523 C9.63869153,28.3113202 9.90540339,28.5782442 10.2338102,28.5782442" id="Fill-8" fill="#FFFFFF"></path>
                    <mask id="mask-4" fill="white">
                        <use xlink:href="#path-3"></use>
                    </mask>
                    <g id="Clip-11"></g>
                    <path d="M14.5172881,17.4992861 L22.8470508,17.4992861 L22.8470508,15.1976609 L14.5172881,15.1976609 L14.5172881,17.4992861 Z M9.75776271,17.4992861 L13.3270508,17.4992861 L13.3270508,15.1976609 L9.75776271,15.1976609 L9.75776271,17.4992861 Z M9.75823729,10.5146182 L13.3275254,10.5146182 L13.3275254,8.2134679 L9.75823729,8.2134679 L9.75823729,10.5146182 Z M14.5172881,10.5146182 L22.8470508,10.5146182 L22.8470508,8.2134679 L14.5172881,8.2134679 L14.5172881,10.5146182 Z M14.5172881,14.0069521 L22.8470508,14.0069521 L22.8470508,11.7058019 L14.5172881,11.7058019 L14.5172881,14.0069521 Z M9.75776271,14.0069521 L13.3270508,14.0069521 L13.3270508,11.7058019 L9.75776271,11.7058019 L9.75776271,14.0069521 Z M9.16264407,7.02275918 C8.83423729,7.02275918 8.56752542,7.28920816 8.56752542,7.61835102 L8.56752542,18.094403 C8.56752542,18.4235458 8.83423729,18.6899948 9.16264407,18.6899948 L13.8590508,18.6899948 C13.8799322,18.6923696 13.9012881,18.6937944 13.9226441,18.6937944 C13.944,18.6937944 13.9653559,18.6923696 13.9862373,18.6899948 L23.4421695,18.6899948 C23.7705763,18.6899948 24.0372881,18.4235458 24.0372881,18.094403 L24.0372881,7.61835102 C24.0372881,7.28920816 23.7705763,7.02275918 23.4421695,7.02275918 L9.16264407,7.02275918 Z" id="Fill-10" fill="#FFFFFF" mask="url(#mask-4)"></path>
                </g>
            </g>
        </g>
    </g>
</svg>