<?xml version="1.0" encoding="UTF-8"?>
<svg width="194px" height="194px" viewBox="0 0 194 194" version="1.1" xmlns="http://www.w3.org/2000/svg" xmlns:xlink="http://www.w3.org/1999/xlink">
    <!-- Generator: Sketch 59.1 (86144) - https://sketch.com -->
    <title>Group 22</title>
    <desc>Created with Sketch.</desc>
    <defs>
        <polygon id="path-1" points="0 0.0368362947 100.669726 0.0368362947 100.669726 109.902525 0 109.902525"></polygon>
        <polygon id="path-3" points="0.329857678 0 101 0 101 109.963131 0.329857678 109.963131"></polygon>
        <polygon id="path-5" points="0.253299315 7.55319149e-05 103 7.55319149e-05 103 71 0.253299315 71"></polygon>
    </defs>
    <g id="Home" stroke="none" stroke-width="1" fill="none" fill-rule="evenodd" opacity="0.08">
        <g id="Large-Devices_Giornalisti" transform="translate(-304.000000, -1282.000000)">
            <g id="Group-22" transform="translate(304.000000, 1282.000000)">
                <g id="Group-3" transform="translate(0.000000, 84.000000)">
                    <mask id="mask-2" fill="white">
                        <use xlink:href="#path-1"></use>
                    </mask>
                    <g id="Clip-2"></g>
                    <path d="M93.1045614,102.323117 L93.1045614,102.323117 L7.56550524,102.323117 L7.56550524,94.7436322 L23.2640071,94.7436322 C25.3532318,94.7436322 27.0467787,93.0465857 27.0467787,90.95389 C27.0467787,88.8608153 25.3532318,87.1641477 23.2640071,87.1641477 L7.7035764,87.1641477 C8.97420936,74.3866527 18.9785052,64.1539697 31.6314978,62.5425712 L47.6602356,78.6008461 C48.3695052,79.3114228 49.3318423,79.7108616 50.3350333,79.7108616 C51.3382243,79.7108616 52.3005614,79.3114228 53.0098311,78.6008461 L69.0385689,62.5425712 C82.5899697,64.2680409 93.1045614,75.8836009 93.1045614,89.9211852 L93.1045614,102.323117 Z M58.5682356,62.3132918 L50.3350333,70.5616659 L42.1018311,62.3132918 L58.5682356,62.3132918 Z M33.6348536,32.0772122 L58.9930408,32.0772122 C61.9330109,32.0772122 64.6849772,31.257491 67.0352131,29.8359586 L67.0352131,38.0020953 C67.0352131,47.2278438 59.5434341,54.7334284 50.3350333,54.7334284 C41.1266326,54.7334284 33.6348536,47.2278438 33.6348536,38.0020953 L33.6348536,32.0772122 Z M33.6348536,24.2548052 L33.6348536,19.4482751 C33.6348536,12.9242338 38.9333816,7.61594184 45.4458011,7.61594184 L67.0352131,7.61594184 L67.0352131,16.4407357 C67.0352131,20.8830715 63.4275839,24.4977277 58.9930408,24.4977277 L33.6348536,24.4977277 L33.6348536,24.2548052 Z M68.7404865,54.8804704 C68.4669921,54.8024017 68.187067,54.7588196 67.9052506,54.7436607 C72.0488985,50.3801514 74.6007562,44.4863443 74.6007562,38.0024742 L74.6007562,18.0646402 C74.6007562,17.8823536 74.5833554,17.7046147 74.5587674,17.5295286 C74.5837337,17.1695031 74.6007562,16.8072037 74.6007562,16.4411146 L74.6007562,3.82657855 C74.6007562,1.7335039 72.9072094,0.0368362947 70.8179846,0.0368362947 L45.4458011,0.0368362947 C34.7613629,0.0368362947 26.0693105,8.74528503 26.0693105,19.4490331 L26.0693105,38.0024742 C26.0693105,44.4863443 28.6207899,50.3801514 32.7648161,54.7436607 C32.4833779,54.7588196 32.2034528,54.8024017 31.9303367,54.8804704 C14.0540933,56.50248 -3.78277154e-05,71.5974024 -3.78277154e-05,89.9211852 L-3.78277154e-05,106.112859 C-3.78277154e-05,108.205555 1.69350899,109.902601 3.78273371,109.902601 L96.8869547,109.902601 C98.9761794,109.902601 100.669726,108.205555 100.669726,106.112859 L100.669726,89.9211852 C100.669726,71.5977814 86.6163517,56.502859 68.7404865,54.8804704 L68.7404865,54.8804704 Z" id="Fill-1" fill="#0066CC" mask="url(#mask-2)"></path>
                </g>
                <g id="Group-6" transform="translate(93.000000, 0.000000)">
                    <mask id="mask-4" fill="white">
                        <use xlink:href="#path-3"></use>
                    </mask>
                    <g id="Clip-5"></g>
                    <path d="M67.3654869,16.4187517 C67.3654869,20.8654069 63.7578577,24.4828897 59.3233146,24.4828897 L33.9651273,24.4828897 L33.9651273,24.2397517 L33.9651273,19.4293379 C33.9651273,12.899131 39.2636554,7.58613103 45.7760749,7.58613103 L67.3654869,7.58613103 L67.3654869,16.4187517 Z M67.3654869,37.9996138 C67.3654869,47.2331655 59.8737079,54.7454069 50.6653071,54.7454069 C41.4569064,54.7454069 33.9651273,47.2335448 33.9651273,37.9999931 L33.9651273,32.0690966 L59.3233146,32.0690966 C62.2632846,32.0690966 65.0152509,31.2486483 67.3654869,29.8258552 L67.3654869,37.9996138 Z M50.6656854,70.5876828 L42.4321049,62.3319931 L58.8985094,62.3319931 L50.6656854,70.5876828 Z M69.0715169,54.8929586 C68.7980225,54.8148207 68.5177191,54.7708207 68.2355243,54.7556483 C72.3791723,50.3886483 74.9306517,44.4892345 74.9306517,37.9999931 L74.9306517,18.0437172 C74.9306517,17.861269 74.9132509,17.6833724 74.8886629,17.508131 C74.9136292,17.1477862 74.9306517,16.7851655 74.9306517,16.4187517 L74.9306517,3.79302759 C74.9306517,1.69809655 73.2371049,-7.58620689e-05 71.1478801,-7.58620689e-05 L45.7756966,-7.58620689e-05 C35.0912584,-7.58620689e-05 26.399206,8.71609655 26.399206,19.4293379 L26.399206,37.9996138 C26.399206,44.4888552 28.9506854,50.388269 33.0943333,54.755269 C32.8125169,54.7704414 32.5318352,54.8144414 32.2583408,54.8925793 C14.3832322,56.5164069 0.329857678,71.6247172 0.329857678,89.9643724 L0.329857678,106.169648 C0.329857678,108.264579 2.02340449,109.963131 4.11262921,109.963131 L34.548809,109.963131 C36.638412,109.963131 38.3315805,108.264579 38.3315805,106.169648 C38.3315805,104.074717 36.638412,102.376545 34.548809,102.376545 L7.89540075,102.376545 L7.89540075,89.9647517 C7.89540075,75.9147172 18.4096142,64.2884759 31.961015,62.5614759 L47.9897528,78.6339931 C48.7285281,79.3747862 49.6965393,79.7449931 50.6645506,79.7449931 C51.6325618,79.7449931 52.6009513,79.3747862 53.3393483,78.6339931 L69.3680861,62.5614759 C82.9202434,64.2888552 93.4344569,75.9147172 93.4344569,89.9647517 L93.4344569,102.376924 L65.5679139,102.376924 C63.4786891,102.376924 61.7851423,104.075097 61.7851423,106.170028 C61.7851423,108.264959 63.4786891,109.963131 65.5679139,109.963131 L97.2172285,109.963131 C99.3064532,109.963131 101,108.264959 101,106.170028 L101,89.9647517 C101,71.6250966 86.9466255,56.5167862 69.0715169,54.8929586 L69.0715169,54.8929586 Z" id="Fill-4" fill="#0066CC" mask="url(#mask-4)"></path>
                </g>
                <path d="M146.8276,103.1724 C146.084,102.4284 145.052,102 144,102 C142.9436,102 141.916,102.4284 141.1716,103.1724 C140.4236,103.916 140,104.948 140,106 C140,107.0564 140.4236,108.084 141.1716,108.8284 C141.916,109.5764 142.9436,110 144,110 C145.052,110 146.084,109.5764 146.8276,108.8284 C147.5716,108.084 148,107.0564 148,106 C148,104.948 147.5716,103.916 146.8276,103.1724" id="Fill-7" fill="#0066CC"></path>
                <path d="M80.9537907,51.7393617 C79.1958943,51.7393617 77.6707993,52.9542926 77.2765083,54.6692447 C76.0887302,59.8371383 71.5545724,63.4468085 66.2495662,63.4468085 L18.8655981,63.4468085 C12.6241036,63.4468085 7.54623924,58.364266 7.54623924,52.1170213 L7.54623924,18.8829787 C7.54623924,12.635734 12.6241036,7.55319149 18.8655981,7.55319149 L66.2495662,7.55319149 C72.4910607,7.55319149 77.5689251,12.635734 77.5689251,18.8829787 L77.5689251,38.6156915 C77.5689251,39.6172447 77.9666119,40.5780106 78.6740718,41.2861223 L89.1176896,51.7393617 L80.9537907,51.7393617 Z M100.895105,52.8455266 L85.1155416,37.0514255 L85.1155416,18.8829787 C85.1155416,8.47090426 76.6524343,0 66.2499435,0 L18.8655981,0 C8.46310731,0 0,8.47090426 0,18.8829787 L0,52.1170213 C0,62.5290957 8.46310731,71 18.8655981,71 L66.2495662,71 C74.0501137,71 80.8522938,66.3143777 83.7062814,59.2925532 L98.226755,59.2925532 C99.7526046,59.2925532 101.128661,58.3721968 101.71274,56.9612606 C102.296819,55.5503245 101.973463,53.925633 100.895105,52.8455266 L100.895105,52.8455266 Z" id="Fill-9" fill="#0066CC"></path>
                <g id="Group-13" transform="translate(91.000000, 123.000000)">
                    <mask id="mask-6" fill="white">
                        <use xlink:href="#path-5"></use>
                    </mask>
                    <g id="Clip-12"></g>
                    <path d="M95.398524,52.1170968 C95.398524,58.3643415 90.2834908,63.446884 83.99631,63.446884 L36.2655018,63.446884 C29.978321,63.446884 24.8632878,58.3643415 24.8632878,52.1170968 L24.8632878,32.384384 C24.8632878,31.3828309 24.46269,30.4220649 23.7500517,29.7139532 L13.2299889,19.2607138 L21.4536458,19.2607138 C23.2244096,19.2607138 24.7602878,18.045783 25.157845,16.3308309 C26.3543173,11.1629372 30.9216642,7.55326702 36.2655018,7.55326702 L83.99631,7.55326702 C90.2834908,7.55326702 95.398524,12.6358096 95.398524,18.8830543 L95.398524,52.1170968 Z M83.99631,7.55319149e-05 L36.2655018,7.55319149e-05 C28.4078561,7.55319149e-05 21.5558856,4.68569787 18.6810074,11.7075223 L4.05424723,11.7075223 C2.51722878,11.7075223 1.13109963,12.6278787 0.542745387,14.0388149 C-0.0456088561,15.4497511 0.279734317,17.0744426 1.36636531,18.1545489 L17.2614317,33.94865 L17.2614317,52.1170968 C17.2614317,62.5291713 25.7864871,71.0000755 36.2651218,71.0000755 L83.99631,71.0000755 C94.4749446,71.0000755 103,62.5291713 103,52.1170968 L103,18.8830543 C103,8.47097979 94.4749446,7.55319149e-05 83.99631,7.55319149e-05 L83.99631,7.55319149e-05 Z" id="Fill-11" fill="#0066CC" mask="url(#mask-6)"></path>
                </g>
                <path d="M168.878238,148.091682 C167.382555,146.636106 164.956667,146.636106 163.460218,148.091682 L153.275857,158.000405 L148.540549,153.393257 C147.044482,151.937309 144.618595,151.937309 143.121762,153.393257 C141.626079,154.84846 141.626079,157.208692 143.121762,158.66464 L150.566847,165.907852 C151.315071,166.635827 152.295464,167 153.275474,167 C154.25625,167 155.237025,166.635827 155.984867,165.907852 L168.878238,153.36381 C170.373921,151.907862 170.373921,149.54763 168.878238,148.091682" id="Fill-14" fill="#0066CC"></path>
                <path d="M59.9679829,25.3692354 C59.5248036,18.789857 54.3423802,13.4862955 47.9132807,13.032757 C44.2677372,12.7760587 40.7927915,14.034609 38.1307161,16.5778014 C35.5057598,19.0853093 34,22.6307375 34,26.3043229 C34.0003749,28.4239057 35.6789822,30.1417501 37.7497769,30.1417501 C39.8205716,30.1417501 41.4991788,28.4239057 41.4991788,26.3047066 C41.4991788,24.727298 42.1200798,23.2653845 43.2478999,22.1879427 C44.3738453,21.1120357 45.849235,20.5779192 47.3981129,20.6891935 C50.112305,20.880662 52.300081,23.1195768 52.4871762,25.8972126 C52.676521,28.7055447 50.8775579,31.1873444 48.2098584,31.7982018 C45.2898242,32.4666147 43.2505245,35.0646769 43.2505245,38.1158938 L43.2505245,40.1629565 C43.2505245,42.2821556 44.9291317,44 46.9999264,44 C49.0707211,44 50.7493284,42.2821556 50.7493284,40.1629565 L50.7493284,39.0463769 C56.5586517,37.2728954 60.3924152,31.668126 59.9679829,25.3692354" id="Fill-16" fill="#0066CC"></path>
                <path d="M49.828,51.172 C49.084,50.428 48.052,50 47,50 C45.944,50 44.916,50.428 44.172,51.172 C43.424,51.916 43,52.948 43,54 C43,55.052 43.424,56.084 44.172,56.828 C44.916,57.572 45.944,58 47,58 C48.052,58 49.084,57.572 49.828,56.828 C50.572,56.084 51,55.052 51,54 C51,52.948 50.572,51.916 49.828,51.172" id="Fill-18" fill="#0066CC"></path>
                <path d="M40.828,172.172 C40.084,171.4284 39.052,171 38,171 C36.948,171 35.916,171.4284 35.172,172.172 C34.428,172.916 34,173.948 34,175 C34,176.052 34.428,177.084 35.172,177.8284 C35.916,178.572 36.948,179 38,179 C39.052,179 40.084,178.572 40.828,177.8284 C41.572,177.084 42,176.052 42,175 C42,173.948 41.572,172.916 40.828,172.172" id="Fill-20" fill="#0066CC"></path>
            </g>
        </g>
    </g>
</svg>