<?xml version="1.0" encoding="UTF-8"?>
<svg width="373px" height="373px" viewBox="0 0 373 373" version="1.1" xmlns="http://www.w3.org/2000/svg" xmlns:xlink="http://www.w3.org/1999/xlink">
    <!-- Generator: Sketch 48.2 (47327) - http://www.bohemiancoding.com/sketch -->
    <title>io-logo</title>
    <desc>Created with Sketch.</desc>
    <defs></defs>
    <g id="Page-1" stroke="none" stroke-width="1" fill="none" fill-rule="evenodd">
        <g id="io-logo">
            <rect id="Rectangle" fill="#0066CC" x="0" y="0" width="373" height="373"></rect>
            <g id="path-1-link" transform="translate(51.448276, 64.310345)" fill="#000000" fill-rule="nonzero">
                <path d="M193.848134,231.517241 C137.713183,231.517241 95.8190115,189.499561 95.8190115,137.668125 C95.8190115,85.8366887 137.713183,43.8190057 193.848134,43.8190057 C241.071346,43.8190057 282.965517,85.8366887 282.965517,137.668125 C282.965517,189.499561 241.071346,231.517241 193.848134,231.517241 Z M11.5762212,82.9967457 L45.0441036,82.9967457 C49.0320469,82.9967457 52.2649138,86.2224444 52.2649138,90.2015482 L52.2649138,216.215197 C52.2649138,220.194298 49.0320469,223.419996 45.0441036,223.419996 L11.5762212,223.419996 C7.58827779,223.419996 4.3554109,220.194298 4.3554109,216.215197 L4.3554109,90.2015482 C4.3554109,86.2224444 7.58827779,82.9967457 11.5762212,82.9967457 Z M28.3101624,56.7872492 C12.6748914,56.7872492 0,44.0749904 0,28.3936246 C0,12.7122588 12.6748914,0 28.3101624,0 C43.9454333,0 56.6203247,12.7122588 56.6203247,28.3936246 C56.6203247,44.0749904 43.9454333,56.7872492 28.3101624,56.7872492 Z" id="path-1"></path>
            </g>
            <g id="path-1-link" transform="translate(51.448276, 64.310345)" fill="#FFFFFF">
                <path d="M193.848134,231.517241 C137.713183,231.517241 95.8190115,189.499561 95.8190115,137.668125 C95.8190115,85.8366887 137.713183,43.8190057 193.848134,43.8190057 C241.071346,43.8190057 282.965517,85.8366887 282.965517,137.668125 C282.965517,189.499561 241.071346,231.517241 193.848134,231.517241 Z M11.5762212,82.9967457 L45.0441036,82.9967457 C49.0320469,82.9967457 52.2649138,86.2224444 52.2649138,90.2015482 L52.2649138,216.215197 C52.2649138,220.194298 49.0320469,223.419996 45.0441036,223.419996 L11.5762212,223.419996 C7.58827779,223.419996 4.3554109,220.194298 4.3554109,216.215197 L4.3554109,90.2015482 C4.3554109,86.2224444 7.58827779,82.9967457 11.5762212,82.9967457 Z M28.3101624,56.7872492 C12.6748914,56.7872492 0,44.0749904 0,28.3936246 C0,12.7122588 12.6748914,0 28.3101624,0 C43.9454333,0 56.6203247,12.7122588 56.6203247,28.3936246 C56.6203247,44.0749904 43.9454333,56.7872492 28.3101624,56.7872492 Z" id="path-1"></path>
            </g>
        </g>
    </g>
</svg>