<?xml version="1.0" standalone="no"?>
<!DOCTYPE svg PUBLIC "-//W3C//DTD SVG 20010904//EN"
 "http://www.w3.org/TR/2001/REC-SVG-20010904/DTD/svg10.dtd">
<svg version="1.0" xmlns="http://www.w3.org/2000/svg"
 width="373.000000pt" height="373.000000pt" viewBox="0 0 373.000000 373.000000"
 preserveAspectRatio="xMidYMid meet">
<metadata>
Created by potrace 1.11, written by Peter Selinger 2001-2013
</metadata>
<g transform="translate(0.000000,373.000000) scale(0.100000,-0.100000)"
fill="#000000" stroke="none">
<path d="M0 1865 l0 -1865 1865 0 1865 0 0 1865 0 1865 -1865 0 -1865 0 0
-1865z m2443 970 c109 -16 220 -51 287 -89 98 -56 189 -172 237 -303 38 -105
52 -185 65 -375 14 -210 0 -496 -31 -644 -58 -272 -196 -443 -410 -510 -137
-43 -173 -46 -633 -51 l-448 -5 0 996 0 996 418 0 c316 0 441 -4 515 -15z
m-1454 -481 c140 -41 205 -225 126 -359 -90 -155 -328 -145 -409 17 -71 141 3
313 149 349 48 11 78 10 134 -7z"/>
<path d="M1920 1855 l0 -648 193 6 c210 5 258 15 340 67 129 81 175 275 164
685 -6 221 -15 280 -58 372 -33 70 -71 104 -151 135 -47 19 -79 22 -270 26
l-218 4 0 -647z"/>
</g>
</svg>
