<?xml version="1.0" encoding="UTF-8"?>
<svg width="64px" height="52px" viewBox="0 0 64 52" version="1.1" xmlns="http://www.w3.org/2000/svg" xmlns:xlink="http://www.w3.org/1999/xlink">
    <!-- Generator: Sketch 59.1 (86144) - https://sketch.com -->
    <title>Group 3 Copy 2</title>
    <desc>Created with Sketch.</desc>
    <defs>
        <polygon id="path-1" points="0 0 64 0 64 52 0 52"></polygon>
    </defs>
    <g id="Home" stroke="none" stroke-width="1" fill="none" fill-rule="evenodd">
        <g id="Large-Devices_Home-Copy-3" transform="translate(-160.000000, -190.000000)">
            <g id="Group-3-Copy-2" transform="translate(160.000000, 190.000000)">
                <mask id="mask-2" fill="white">
                    <use xlink:href="#path-1"></use>
                </mask>
                <g id="Clip-2"></g>
                <path d="M6.40312,12.9709412 C2.8668,12.9709412 0,10.0673127 0,6.48551084 C0,2.90370898 2.8668,0 6.40312,0 C9.93944,0 12.80624,2.90370898 12.80624,6.48551084 C12.80624,10.0673127 9.93944,12.9709412 6.40312,12.9709412 L6.40312,12.9709412 Z M6.40312,18.9575418 C9.39536,18.9575418 11.82112,21.3982415 11.82112,24.4090093 L11.82112,45.5803344 C11.82112,48.5911827 9.39536,51.0318824 6.40312,51.0318824 C3.41088,51.0318824 0.98512,48.5911827 0.98512,45.5803344 L0.98512,24.4090093 C0.98512,21.3982415 3.41088,18.9575418 6.40312,18.9575418 L6.40312,18.9575418 Z M33.9724,29.925195 C33.44112,29.925195 32.9916,29.7351455 32.64424,29.3548854 C32.29688,28.9747059 32.11304,28.5100062 32.11304,27.9608669 C32.11304,27.4116471 32.29688,26.9469474 32.62384,26.5667678 C32.9712,26.1865882 33.42072,26.017548 33.95192,26.017548 C34.48312,26.017548 34.93272,26.207678 35.28,26.5878576 C35.62744,26.9681176 35.79088,27.4327368 35.79088,28.0030464 C35.79088,28.573356 35.62744,29.0169659 35.28,29.3971455 C34.95312,29.7351455 34.52408,29.925195 33.9724,29.925195 L33.9724,29.925195 Z M50.72712,29.0169659 L47.90744,29.0169659 L47.90744,33.8962724 C47.90744,34.3820619 47.92784,34.6989721 47.94832,34.910192 C47.96872,35.1002415 48.05048,35.2692817 48.19344,35.4171517 C48.33648,35.5649412 48.56128,35.6283715 48.86776,35.6283715 L50.62496,35.586031 L50.768,38.1207492 C49.7464,38.3530588 48.94952,38.479839 48.41824,38.479839 C47.02888,38.479839 46.08896,38.1630093 45.59856,37.5081796 C45.08776,36.8745201 44.84256,35.6917214 44.84256,33.9596223 L44.84256,22.9970402 L47.92784,22.9970402 L47.92784,26.2921176 L50.74752,26.2921176 L50.74752,29.0169659 L50.72712,29.0169659 Z M38.61056,38.1841796 L38.61056,26.3132879 L41.69592,26.3132879 L41.69592,38.2052693 L38.61056,38.2052693 L38.61056,38.1841796 Z M43.96088,52 C54.57968,52 64,42.5297214 64,30.8475108 C64,19.1653003 54.57968,9.69494118 43.96088,9.69494118 C31.33824,9.69494118 21.91784,19.1653003 21.91784,30.8475108 C21.91784,42.5297214 31.33824,52 43.96088,52 L43.96088,52 Z" id="Fill-1" fill="#FFFFFF" mask="url(#mask-2)"></path>
            </g>
        </g>
    </g>
</svg>