<svg width="55" height="55" viewBox="0 0 55 55" fill="none" xmlns="http://www.w3.org/2000/svg">
<path fill-rule="evenodd" clip-rule="evenodd" d="M3.4375 27.6881C8.54444 37.1469 17.7191 43.0001 27.5 43.0001C37.2809 43.0001 46.4556 37.1469 51.5625 27.6881C46.4556 18.2283 37.2809 12.3751 27.5 12.3751C17.7191 12.3751 8.54444 18.2283 3.4375 27.6881ZM27.5 9.16675C38.7273 9.16675 49.218 16.0001 54.8783 26.9996C55.0406 27.3145 55.0406 27.6856 54.8783 28.0006C49.218 39.0001 38.7273 45.8334 27.5 45.8334C16.2727 45.8334 5.78202 39.0001 0.121674 28.0006C-0.040558 27.6856 -0.040558 27.3145 0.121674 26.9996C5.78202 16.0001 16.2727 9.16675 27.5 9.16675ZM27.614 36.2084C22.8749 36.2084 19.0208 32.3533 19.0208 27.6141C19.0208 22.876 22.8749 19.0209 27.614 19.0209C32.3532 19.0209 36.2083 22.876 36.2083 27.6141C36.2083 32.3533 32.3532 36.2084 27.614 36.2084ZM27.4994 16.0417C21.1816 16.0417 16.0417 21.1817 16.0417 27.4995C16.0417 33.8185 21.1816 38.9584 27.4994 38.9584C33.8184 38.9584 38.9583 33.8185 38.9583 27.4995C38.9583 21.1817 33.8184 16.0417 27.4994 16.0417ZM27.4995 30.4792C25.9199 30.4792 24.6354 29.1936 24.6354 27.6146C24.6354 26.0347 25.9199 24.7501 27.4995 24.7501C29.0792 24.7501 30.3646 26.0347 30.3646 27.6146C30.3646 29.1936 29.0792 30.4792 27.4995 30.4792ZM27.4994 21.7709C24.34 21.7709 21.7708 24.3403 21.7708 27.5001C21.7708 30.6587 24.34 33.2292 27.4994 33.2292C30.6589 33.2292 33.2292 30.6587 33.2292 27.5001C33.2292 24.3403 30.6589 21.7709 27.4994 21.7709Z" fill="white"/>
</svg>
