<svg width="85" height="75" viewBox="0 0 85 75" fill="none" xmlns="http://www.w3.org/2000/svg">
<path d="M24.2418 9.35975L24.6651 9.48813L38.3505 13.9334C41.0044 14.7956 42.8276 17.1976 42.9462 19.9438L42.9524 20.2291V23.886C42.9524 25.671 41.6516 27.156 39.9389 27.4586C39.9553 27.6835 39.9661 27.9106 39.9727 28.1388L39.9806 28.6853L39.9809 30.3544C41.1968 31.0903 42.0566 32.3562 42.2319 33.8453L42.2567 34.127L42.2636 34.3772C42.2636 36.8977 40.2673 38.9551 37.757 39.0813L37.5125 39.0874L37.4571 39.0873L37.4581 39.5987C37.4581 46.2908 33.3314 52.0272 27.4634 54.4436C28.6395 54.806 29.7785 55.275 30.8689 55.8412L31.1184 55.4428C31.3104 55.1345 31.6175 54.9164 31.9702 54.8337C32.3253 54.7495 32.7004 54.81 33.0126 55.001C36.1666 56.9407 38.8005 59.6526 40.6355 62.8503C40.8157 63.1658 40.8635 63.5399 40.7659 63.8822C40.6835 64.183 40.4998 64.4445 40.2493 64.6252L40.1187 64.7086L39.8218 64.875C41.2537 67.7061 42.0118 70.8418 42.0118 74.0854C42.0118 74.5311 41.6805 74.9001 41.2487 74.9635L41.1164 74.9731L27.1767 74.9739C27.0338 75.0092 26.8879 75.0079 26.7508 74.9749L16.2076 74.9734C16.0688 75.0079 15.9208 75.0097 15.7757 74.9739L1.38484 74.9731C0.890306 74.9731 0.48941 74.5757 0.48941 74.0854C0.48941 70.8423 1.24724 67.707 2.67882 64.8762L2.38298 64.7096C2.06544 64.5313 1.83516 64.2352 1.7349 63.8834C1.63795 63.5335 1.68594 63.1589 1.86668 62.8492C3.6985 59.6545 6.33309 56.9419 9.4892 55.0001C9.59266 54.9368 9.70322 54.8879 9.81781 54.854L9.99234 54.8143L10.1374 54.797L10.2052 54.795L10.3503 54.8036L10.5292 54.8334L10.6724 54.8749C10.8681 54.9433 11.0453 55.055 11.1903 55.2001L11.2929 55.315L11.3821 55.4415L11.6318 55.8414C12.7216 55.2753 13.8611 54.8063 15.0382 54.4409C9.28808 52.0764 5.21017 46.5206 5.04863 40.0009L5.04365 39.5987L5.04288 39.0873L4.98846 39.0874C2.44654 39.0874 0.370789 37.1087 0.243877 34.5963L0.237729 34.3515L0.245402 34.1013C0.341459 32.4585 1.2835 31.0491 2.63978 30.2833L2.64084 28.6853C2.64084 28.2478 2.65591 27.814 2.68607 27.384C1.20864 26.9821 0.104326 25.6818 0.00698704 24.112L0 23.886V20.196C0 17.4451 1.71187 14.9917 4.28339 14.0118L4.55244 13.9157L17.7488 9.51413C19.8521 8.81322 22.1156 8.76119 24.2418 9.35975ZM27.1491 56.2051L27.1485 56.3351C27.1485 58.7763 25.639 60.8683 23.495 61.7438L26.2877 63.1997C26.6509 63.3889 26.8328 63.7944 26.7447 64.1806L26.7053 64.3083L25.2903 67.899L27.5431 73.1973L40.1971 73.1974L40.1868 72.9475C40.0344 70.414 39.374 67.9731 38.2546 65.7378C38.0987 65.7983 37.9351 65.8277 37.7701 65.8277C37.2787 65.8277 36.8197 65.5681 36.575 65.1381C35.1251 62.6138 33.0411 60.4685 30.552 58.9381C30.2415 58.7481 30.0219 58.4431 29.9372 58.0916C29.8805 57.8543 29.8896 57.6085 29.9605 57.3786C29.0586 56.9107 28.118 56.5192 27.1491 56.2051ZM15.3522 56.2054C14.5082 56.4788 13.686 56.8108 12.891 57.1985L12.5401 57.3768C12.6117 57.607 12.621 57.8543 12.5638 58.0938C12.4794 58.4439 12.2579 58.7486 11.9497 58.9372C9.45871 60.4689 7.37489 62.6142 5.9282 65.1351C5.68152 65.5686 5.2211 65.8278 4.72999 65.8278C4.56545 65.8278 4.40209 65.7986 4.24802 65.7413C3.12723 67.9731 2.46681 70.414 2.3144 72.9475L2.30325 73.1974L15.4073 73.1973L17.6605 67.899L16.2471 64.3083C16.0979 63.9293 16.2287 63.5047 16.5505 63.2704L16.6648 63.1996L19.27 61.8441C17.0725 61.0674 15.4761 59.0349 15.3597 56.6183L15.3529 56.3351L15.3522 56.2054ZM23.6699 68.6577H19.2816L17.3504 73.1973H25.5999L23.6699 68.6577ZM32.8784 63.5766C33.9524 63.5766 34.8351 64.395 34.925 65.4373L34.9326 65.613V68.8168C34.9326 69.4575 34.6278 70.0571 34.1181 70.4399L33.9591 70.5481L32.3747 71.5202C31.7681 71.8931 31.0144 71.9242 30.3818 71.6136L30.2125 71.5204L28.6287 70.5479C28.0793 70.2104 27.7246 69.6383 27.6646 69.0076L27.6556 68.8168V65.613C27.6556 64.5473 28.4808 63.6731 29.5324 63.5841L29.7097 63.5766H32.8784ZM32.8784 65.352H29.7097C29.5883 65.352 29.4864 65.433 29.4558 65.5436L29.4464 65.613V68.8168C29.4464 68.8839 29.4732 68.9482 29.5194 68.9963L29.5718 69.0386L31.1546 70.0106C31.2188 70.0499 31.2949 70.0597 31.3646 70.0402L31.4316 70.0109L33.0162 69.0386C33.0747 69.0028 33.116 68.9462 33.1331 68.8825L33.1417 68.8168V65.613C33.1417 65.4693 33.0234 65.352 32.8784 65.352ZM21.4761 62.6985L18.2057 64.4024L19.1819 66.8826H23.7672L24.745 64.4011L21.4761 62.6985ZM32.419 56.731L31.8443 57.6505L31.9739 57.7331C34.1899 59.1875 36.0909 61.0891 37.5401 63.2977L37.8436 63.7757L37.9198 63.9056L38.866 63.3703L38.7729 63.2128C37.3071 60.826 35.3474 58.7534 33.0423 57.1476L32.5767 56.8327L32.419 56.731ZM10.0814 56.731L9.92488 56.832C7.40617 58.486 5.27331 60.6859 3.70721 63.2477L3.63302 63.3716L4.30051 63.7483C4.30409 63.7502 4.30766 63.7521 4.31122 63.7541L4.3235 63.7613L4.57924 63.9056L4.6589 63.7735C6.04038 61.5242 7.8856 59.5695 10.0572 58.0511L10.5274 57.7324L10.6561 57.6492L10.0814 56.731ZM25.3586 55.1458C24.0467 55.4855 22.6701 55.6664 21.2509 55.6664C19.8316 55.6664 18.455 55.4855 17.1432 55.1459L17.1438 56.3351C17.1438 58.5835 18.9828 60.4066 21.2507 60.4066C23.4377 60.4066 25.2258 58.7114 25.3507 56.5743L25.3577 56.3351L25.3586 55.1458ZM35.0012 27.5147C35.0154 27.5882 35.0259 27.6631 35.0325 27.7391L35.0406 27.9279V28.8699C35.0406 30.0147 34.153 30.9549 33.0232 31.0507L32.8327 31.0587H9.69867C8.54297 31.0587 7.59547 30.1791 7.49894 29.0587L7.49084 28.8699V27.9279C7.49084 27.7866 7.50434 27.6484 7.53014 27.5145L7.12065 27.5151C7.12112 27.5737 7.11571 27.6332 7.10396 27.693C6.9611 28.4193 6.87436 29.1574 6.84539 29.9028L6.83451 30.4632V39.5987C6.83451 45.8394 10.8681 51.1453 16.492 53.094C16.5176 53.0989 16.5419 53.1069 16.5656 53.1158C18.0333 53.6192 19.6101 53.8909 21.2509 53.8909C22.8785 53.8909 24.4431 53.6235 25.9024 53.1306C25.9419 53.1124 25.9831 53.0984 26.0256 53.0874C31.5265 51.1745 35.5021 46.048 35.6622 39.9794L35.6672 39.5987V30.4632C35.6672 29.4853 35.5685 28.522 35.3741 27.5822L35.3638 27.5148L35.0012 27.5147ZM26.0564 43.0375C26.5097 43.0375 26.8843 43.3715 26.9436 43.8048L26.9518 43.9252V45.7537C26.9518 48.5529 24.8084 49.8741 22.0155 50.1547L21.7518 50.1749L21.4763 50.182C18.5387 50.182 16.1414 48.8881 16.0068 46.0092L16.0009 45.7537V43.9252C16.0009 43.4758 16.3377 43.1044 16.7748 43.0456L16.8963 43.0375H26.0564ZM25.1607 44.8127H17.7914L17.7917 45.7537C17.7917 47.6241 19.2103 48.1667 21.0198 48.3814L21.2303 48.4002L21.4522 48.4069L21.6793 48.4011C23.5545 48.3006 25.0467 47.8125 25.1547 45.968L25.1609 45.7537L25.1607 44.8127ZM23.1502 33.3472C23.5998 33.3472 23.972 33.6756 24.036 34.1037L24.0457 34.2349V38.4456C24.0457 39.8514 22.895 40.9921 21.477 40.9921C20.1255 40.9921 19.0172 39.9577 18.9147 38.6446L18.907 38.4456V34.2349C18.907 33.7446 19.3079 33.3472 19.8024 33.3472C20.252 33.3472 20.6242 33.6756 20.6881 34.1037L20.6978 34.2349V38.4456C20.6978 38.8709 21.0468 39.2167 21.477 39.2167C21.8631 39.2167 22.1842 38.9366 22.2446 38.5705L22.2548 38.4456V34.2349C22.2548 33.7446 22.6557 33.3472 23.1502 33.3472ZM37.4574 31.443V37.3112L37.7239 37.3046C39.1934 37.2019 40.3667 36.0371 40.4662 34.6004L40.4731 34.4028L40.4677 34.204C40.3811 32.7232 39.1882 31.5456 37.7072 31.45L37.5125 31.4438L37.4574 31.443ZM5.04299 31.443L4.76566 31.452C3.43767 31.5501 2.34668 32.5177 2.08781 33.7726L2.05393 33.9731L2.03438 34.1783L2.02821 34.3772C2.02821 35.9335 3.2496 37.2064 4.79382 37.3057L4.98846 37.312L5.04299 37.3112V31.443ZM28.3928 32.9054C29.2534 32.9054 29.9524 33.5984 29.9524 34.453C29.9524 35.3076 29.2534 36.0005 28.3928 36.0005C27.5307 36.0005 26.8318 35.3076 26.8318 34.453C26.8318 33.5984 27.5307 32.9054 28.3928 32.9054ZM14.5614 32.9054C15.422 32.9054 16.121 33.5984 16.121 34.453C16.121 35.3076 15.422 36.0005 14.5614 36.0005C13.6993 36.0005 13.0004 35.3076 13.0004 34.453C13.0004 33.5984 13.6993 32.9054 14.5614 32.9054ZM38.1494 27.5153L37.1821 27.5148L37.2251 27.7348C37.3352 28.3714 37.4066 29.0166 37.4386 29.668L37.5125 29.6683C37.7426 29.6683 37.9691 29.6846 38.1908 29.7161L38.1898 28.6853C38.1898 28.2915 38.1763 27.9015 38.1494 27.5153ZM5.31525 27.515L4.47204 27.5153C4.46022 27.685 4.451 27.8553 4.44438 28.0265L4.43169 28.6853L4.43163 29.7004L4.70796 29.6764L4.98846 29.6683L5.06319 29.6681C5.09887 28.943 5.18329 28.2242 5.31525 27.515ZM32.843 27.5148H9.68583L9.61622 27.5225C9.45634 27.5543 9.32969 27.6764 9.29269 27.833L9.28169 27.9279V28.8699C9.28169 29.0657 9.41865 29.2296 9.60297 29.2724L9.69867 29.2833H32.8327C33.0297 29.2833 33.1954 29.147 33.2387 28.9645L33.2497 28.8699V27.9279C33.2497 27.7326 33.1122 27.5684 32.9282 27.5254L32.843 27.5148ZM18.6971 11.0801L18.3197 11.1969L5.12344 15.5985C3.21153 16.236 1.89917 17.9665 1.79724 19.9472L1.79085 20.196V23.886C1.79085 24.8525 2.53761 25.6467 3.49039 25.732L3.66056 25.7396H39.2932C40.2672 25.7396 41.0679 24.9989 41.1539 24.0546L41.1615 23.886V20.2291C41.1615 18.2165 39.9091 16.4226 38.0308 15.7046L37.7929 15.6205L24.1071 11.1752C22.3522 10.6043 20.467 10.573 18.6971 11.0801ZM23.571 13.1688C24.935 13.1688 26.052 14.2162 26.1465 15.5445L26.153 15.7273V20.3911C26.153 21.2079 25.758 21.9723 25.0997 22.4523L24.9297 22.5663L22.6243 23.9813C21.8511 24.456 20.8887 24.4899 20.0884 24.083L19.9068 23.9813L17.601 22.566C16.9003 22.1353 16.4524 21.4007 16.3876 20.5942L16.3795 20.3911V15.7273C16.3795 14.375 17.4359 13.2689 18.7758 13.1753L18.9602 13.1688H23.571ZM23.571 14.9443H18.9602C18.5629 14.9443 18.2352 15.2334 18.1789 15.6114L18.1703 15.7273V20.3911C18.1703 20.623 18.2745 20.8416 18.4504 20.9892L18.5441 21.0567L20.8495 22.4718C21.0682 22.606 21.3359 22.6252 21.5686 22.5293L21.6816 22.4718L23.9866 21.057C24.1864 20.9342 24.3196 20.7308 24.3536 20.5054L24.3621 20.3911V15.7273C24.3621 15.2946 24.0084 14.9443 23.571 14.9443Z" fill="white"/>
<path d="M53.25 13.0002C53.6974 12.794 54.2268 12.99 54.4318 13.436C54.6361 13.8802 54.4418 14.4062 53.9962 14.6116C50.7588 16.1031 48.7108 19.5439 48.6283 23.6514L48.6257 23.9133V24.6464C48.6257 29.6632 51.3563 33.0241 56.084 33.8408C56.4632 33.9063 56.7553 34.2069 56.8146 34.6063L56.8219 34.709L56.8576 39.9327L63.6266 34.1995C63.7226 34.1181 63.8345 34.0583 63.9645 34.0225L64.1006 33.9948L64.2026 33.9884H67.3337C70.9021 33.9884 73.7269 32.4435 75.2479 29.6987C75.4859 29.2691 76.0288 29.1135 76.4594 29.3526C76.8882 29.5907 77.0423 30.1296 76.8053 30.5573C75.0085 33.8 71.6979 35.677 67.6157 35.7605L67.3336 35.7634L64.5289 35.7617L56.5584 42.5175C56.0541 42.9448 55.2981 42.6886 55.1254 42.073L55.0989 41.9451L55.0926 41.8474L55.0454 35.4398L54.8978 35.4069C50.0397 34.2258 47.0892 30.5126 46.8605 25.3037L46.8486 24.9199L46.8462 23.9133C46.8462 19.015 49.2932 14.8231 53.25 13.0002Z" fill="white"/>
<path d="M82.4593 16.0298L83.6826 16.0312L83.7817 16.0455C83.908 16.0832 84.0081 16.1931 84.0489 16.3502L84.068 16.4666L84.0631 25.6714L84.0478 25.7769C84.0078 25.9116 83.8935 26.0178 83.7505 26.0438L83.6524 26.0512L82.4291 26.0499L82.3229 26.0346C82.1875 25.9948 82.0808 25.8811 82.0546 25.739L82.0471 25.6413L82.0485 23.3782H78.6908V25.6714L78.6755 25.7769C78.6355 25.9116 78.5212 26.0178 78.3782 26.0438L78.2801 26.0512L77.0568 26.0499L76.9506 26.0346C76.8152 25.9948 76.7085 25.8811 76.6823 25.739L76.6749 25.6413L76.6762 23.3782H74.3706L74.2645 23.3629C74.1291 23.3232 74.0223 23.2095 73.9962 23.0673L73.9887 22.9697L73.9901 21.753L74.0054 21.6474C74.0454 21.5127 74.1597 21.4066 74.3027 21.3806L74.4008 21.3731L76.6762 21.3745V19.0813L76.6916 18.9758C76.7316 18.8411 76.8459 18.7349 76.9888 18.7089L77.087 18.7015L78.3103 18.7028L78.4164 18.7181C78.5518 18.7579 78.6586 18.8716 78.6847 19.0137L78.6922 19.1114L78.6908 21.3745H82.0485V16.4097L82.0639 16.3041C82.1039 16.1695 82.2182 16.0633 82.3611 16.0373L82.4593 16.0298ZM70.3537 24.0448L71.577 24.0461L71.6831 24.0614C71.8185 24.1012 71.9253 24.2148 71.9514 24.357L71.9589 24.4547L71.9576 25.6714L71.9422 25.7769C71.9022 25.9116 71.7879 26.0178 71.645 26.0438L71.5468 26.0512L70.3235 26.0499L70.2174 26.0346C70.082 25.9948 69.9752 25.8811 69.9491 25.739L69.9416 25.6413L69.9429 24.4246L69.9583 24.3191C69.9983 24.1844 70.1126 24.0782 70.2555 24.0522L70.3537 24.0448ZM58.2839 16.0298L67.5657 16.0312L67.6718 16.0465C67.8072 16.0863 67.914 16.1999 67.9401 16.3421L67.9476 16.4397L67.9462 25.6714L67.9309 25.7769C67.8909 25.9116 67.7766 26.0178 67.6337 26.0438L67.5355 26.0512L58.2537 26.0499L58.1476 26.0346C58.0122 25.9948 57.9054 25.8811 57.8793 25.739L57.8718 25.6413L57.8732 16.4097L57.8885 16.3041C57.9285 16.1695 58.0428 16.0633 58.1858 16.0373L58.2839 16.0298ZM65.9316 18.0349H59.8878V24.0461H65.9316V18.0349ZM63.4882 20.0195C63.6858 20.0373 63.8568 20.1805 63.8925 20.3403L63.9011 20.4361L63.8991 21.6461L63.8838 21.7516C63.8438 21.8863 63.7295 21.9925 63.5865 22.0185L63.4884 22.0259L62.265 22.0246L62.1589 22.0093C62.0235 21.9695 61.9168 21.8559 61.8906 21.7137L61.8831 21.616L61.8845 20.3993L61.8999 20.2938C61.9399 20.1591 62.0541 20.0529 62.1971 20.0269L62.2953 20.0195H63.4882ZM70.3537 16.0298L75.5883 16.0312L75.6944 16.0465C75.8299 16.0863 75.9366 16.1999 75.9627 16.3421L75.9702 16.4397L75.9689 17.6564L75.9535 17.762C75.9135 17.8967 75.7992 18.0029 75.6563 18.0288L75.5581 18.0363L70.3235 18.0349L70.2174 18.0197C70.082 17.9799 69.9752 17.8662 69.9491 17.724L69.9416 17.6264L69.9429 16.4097L69.9583 16.3041C69.9983 16.1695 70.1126 16.0633 70.2555 16.0373L70.3537 16.0298ZM62.2953 12.0046L67.5433 12.0054L67.6492 12.0291C67.7927 12.079 67.8985 12.1921 67.9117 12.3058L67.9104 13.6314L67.8951 13.7368C67.8551 13.8714 67.7408 13.9776 67.5978 14.0036L67.4997 14.011L62.265 14.0097L62.1589 13.9944C62.0235 13.9546 61.9168 13.8409 61.8906 13.6988L61.8831 13.6011L61.8845 12.3844L61.8999 12.2789C61.9399 12.1442 62.0541 12.038 62.1971 12.012L62.2953 12.0046ZM70.3537 6.66129L71.577 6.66265L71.6831 6.67792C71.8185 6.7177 71.9253 6.83137 71.9514 6.97354L71.9589 7.07118L71.9576 12.0059H78.3103L78.4164 12.0212C78.5518 12.061 78.6586 12.1747 78.6847 12.3168L78.6922 12.4145L78.6908 13.6312L78.6755 13.7367C78.6355 13.8714 78.5212 13.9776 78.3782 14.0036L78.2801 14.011L70.3235 14.0097L70.2174 13.9944C70.082 13.9546 69.9752 13.8409 69.9491 13.6988L69.9416 13.6011L69.9429 7.04113L69.9583 6.93558C69.9983 6.8009 70.1126 6.69472 70.2555 6.66874L70.3537 6.66129ZM83.6522 12.0046C83.8498 12.0224 84.0208 12.1656 84.0565 12.3254L84.0652 12.4211L84.0631 13.6312L84.0478 13.7367C84.0078 13.8714 83.8935 13.9776 83.7505 14.0036L83.6524 14.011L82.4291 14.0097L82.3229 13.9944C82.1875 13.9546 82.0808 13.8409 82.0546 13.6988L82.0471 13.6011L82.0485 12.3844L82.0639 12.2789C82.1039 12.1442 82.2182 12.038 82.3611 12.012L82.4593 12.0046H83.6522ZM58.2839 12.0046L59.5073 12.0059L59.6134 12.0212C59.7488 12.061 59.8555 12.1747 59.8817 12.3168L59.8892 12.4145L59.8878 13.6312L59.8724 13.7367C59.8324 13.8714 59.7182 13.9776 59.5752 14.0036L59.477 14.011L58.2537 14.0097L58.1476 13.9944C58.0122 13.9546 57.9054 13.8409 57.8793 13.6988L57.8718 13.6011L57.8732 12.3844L57.8885 12.2789C57.9285 12.1442 58.0428 12.038 58.1858 12.012L58.2839 12.0046ZM74.4008 0L83.6826 0.00135484L83.7887 0.0166279C83.9241 0.0564105 84.0309 0.170083 84.057 0.312251L84.0645 0.409888L84.0631 9.64152L84.0478 9.74707C84.0078 9.88175 83.8935 9.98793 83.7505 10.0139L83.6524 10.0214L74.3706 10.02L74.2645 10.0047C74.1291 9.96495 74.0223 9.85128 73.9962 9.70911L73.9887 9.61147L73.9901 0.379837L74.0054 0.274291C74.0454 0.13961 74.1597 0.0334299 74.3027 0.00744409L74.4008 0ZM58.2839 0L67.5657 0.00135484L67.6718 0.0166279C67.8072 0.0564105 67.914 0.170083 67.9401 0.312251L67.9476 0.409888L67.9462 9.64152L67.9309 9.74707C67.8909 9.88175 67.7766 9.98793 67.6337 10.0139L67.5355 10.0214L58.2537 10.02L58.1476 10.0047C58.0122 9.96495 57.9054 9.85128 57.8793 9.70911L57.8718 9.61147L57.8732 0.379837L57.8885 0.274291C57.9285 0.13961 58.0428 0.0334299 58.1858 0.00744409L58.2839 0ZM82.0485 2.00509H76.0047V8.01628H82.0485V2.00509ZM65.9316 2.00509H59.8878V8.01628H65.9316V2.00509ZM79.6051 3.98963C79.8027 4.00751 79.9737 4.15068 80.0094 4.31045L80.018 4.40621L80.016 5.61625L80.0006 5.7218C79.9606 5.85648 79.8463 5.96266 79.7034 5.98865L79.6052 5.99609L78.3819 5.99474L78.2758 5.97946C78.1404 5.93968 78.0336 5.82601 78.0075 5.68384L78 5.5862L78.0014 4.36949L78.0167 4.26394C78.0567 4.12926 78.171 4.02308 78.314 3.99709L78.4121 3.98963H79.6051ZM63.4882 3.98963C63.6858 4.00751 63.8568 4.15068 63.8925 4.31045L63.9011 4.40621L63.8991 5.61625L63.8838 5.7218C63.8438 5.85648 63.7295 5.96266 63.5865 5.98865L63.4884 5.99609L62.265 5.99474L62.1589 5.97946C62.0235 5.93968 61.9168 5.82601 61.8906 5.68384L61.8831 5.5862L61.8845 4.36949L61.8999 4.26394C61.9399 4.12926 62.0541 4.02308 62.1971 3.99709L62.2953 3.98963H63.4882ZM70.3537 0L71.577 0.00135484L71.6831 0.0166279C71.8185 0.0564105 71.9253 0.170083 71.9514 0.312251L71.9589 0.409888L71.9576 4.29824L71.9422 4.40379C71.9022 4.53847 71.7879 4.64465 71.645 4.67064L71.5468 4.67808L70.3235 4.67673L70.2174 4.66145C70.082 4.62167 69.9752 4.508 69.9491 4.36583L69.9416 4.26819L69.9429 0.379837L69.9583 0.274291C69.9983 0.13961 70.1126 0.0334299 70.2555 0.00744409L70.3537 0Z" fill="#00C5CA"/>
</svg>
