<svg width="88" height="85" viewBox="0 0 88 85" fill="none" xmlns="http://www.w3.org/2000/svg">
<path d="M45.0875 22.7065H20.4759C20.0118 22.7065 19.6356 23.0827 19.6356 23.5468V84.1598C19.6356 84.6238 20.0118 85 20.4759 85H45.0875C45.5516 85 45.9277 84.6238 45.9277 84.1598V23.5468C45.9277 23.0827 45.5516 22.7065 45.0875 22.7065ZM44.247 24.387V83.3183H21.3159V24.387H44.247Z" fill="white"/>
<path d="M19.6479 39.0484C20.112 39.0484 20.4882 39.4246 20.4882 39.8886C20.4882 40.3105 20.1773 40.6598 19.7721 40.7198L19.6479 40.7289L1.67923 40.7279V83.3183H63.5676V40.7279L45.9375 40.7289C45.5157 40.7289 45.1664 40.418 45.1064 40.0128L45.0973 39.8886C45.0973 39.4668 45.4082 39.1175 45.8134 39.0575L45.9375 39.0484H64.4091C64.831 39.0484 65.1802 39.3593 65.2403 39.7645L65.2494 39.8886V84.1595C65.2494 84.5814 64.9385 84.9306 64.5333 84.9906L64.4091 84.9997H0.840245C0.418377 84.9997 0.0691244 84.6888 0.00911045 84.2837L0 84.1595V39.8886C0 39.4668 0.310901 39.1175 0.716079 39.0575L0.840245 39.0484H19.6479Z" fill="white"/>
<path d="M28.179 73.3081C28.6009 73.3081 28.9501 73.619 29.0101 74.0242L29.0192 74.1483V84.1598C29.0192 84.6238 28.643 85 28.179 85C27.7571 85 27.4079 84.6891 27.3479 84.2839L27.3387 84.1598V74.1483C27.3387 73.6843 27.7149 73.3081 28.179 73.3081Z" fill="white"/>
<path d="M36.9822 73.308C37.4041 73.308 37.7533 73.6189 37.8133 74.024L37.8225 74.1482V84.1596C37.8225 84.6237 37.4463 84.9999 36.9822 84.9999C36.5603 84.9999 36.2111 84.689 36.1511 84.2838L36.142 84.1596V74.1482C36.142 73.6841 36.5182 73.308 36.9822 73.308Z" fill="white"/>
<path d="M40.284 73.2513C40.7481 73.2513 41.1243 73.6275 41.1243 74.0915C41.1243 74.5134 40.8134 74.8626 40.4082 74.9227L40.284 74.9318H24.8775C24.4134 74.9318 24.0372 74.5556 24.0372 74.0915C24.0372 73.6697 24.3481 73.3204 24.7533 73.2604L24.8775 73.2513H40.284Z" fill="white"/>
<path d="M16.1491 43.1533H5.14444C4.68039 43.1533 4.3042 43.5295 4.3042 43.9935V50.1073C4.3042 50.5713 4.68039 50.9475 5.14444 50.9475H16.1491C16.6132 50.9475 16.9894 50.5713 16.9894 50.1073V43.9935C16.9894 43.5295 16.6132 43.1533 16.1491 43.1533ZM15.3086 44.8325V49.2658H5.98444V44.8325H15.3086Z" fill="white"/>
<path d="M10.647 43.1533C11.0689 43.1533 11.4181 43.4642 11.4781 43.8694L11.4873 43.9935V49.7411C11.4873 50.2051 11.1111 50.5813 10.647 50.5813C10.2251 50.5813 9.87589 50.2704 9.81587 49.8652L9.80676 49.7411V43.9935C9.80676 43.5295 10.183 43.1533 10.647 43.1533Z" fill="white"/>
<path d="M16.1491 52.7375H5.14444C4.68039 52.7375 4.3042 53.1137 4.3042 53.5777V59.6915C4.3042 60.1555 4.68039 60.5317 5.14444 60.5317H16.1491C16.6132 60.5317 16.9894 60.1555 16.9894 59.6915V53.5777C16.9894 53.1137 16.6132 52.7375 16.1491 52.7375ZM15.3086 54.4176V58.8508H5.98444V54.4176H15.3086Z" fill="white"/>
<path d="M10.647 52.7376C11.0689 52.7376 11.4181 53.0485 11.4781 53.4537L11.4873 53.5779V59.3254C11.4873 59.7895 11.1111 60.1657 10.647 60.1657C10.2251 60.1657 9.87589 59.8548 9.81587 59.4496L9.80676 59.3254V53.5779C9.80676 53.1138 10.183 52.7376 10.647 52.7376Z" fill="white"/>
<path d="M16.1491 62.3217H5.14444C4.68039 62.3217 4.3042 62.6978 4.3042 63.1619V69.2756C4.3042 69.7397 4.68039 70.1159 5.14444 70.1159H16.1491C16.6132 70.1159 16.9894 69.7397 16.9894 69.2756V63.1619C16.9894 62.6978 16.6132 62.3217 16.1491 62.3217ZM15.3086 64.0014V68.4346H5.98444V64.0014H15.3086Z" fill="white"/>
<path d="M10.647 62.3219C11.0689 62.3219 11.4181 62.6328 11.4781 63.038L11.4873 63.1622V68.9097C11.4873 69.3737 11.1111 69.7499 10.647 69.7499C10.2251 69.7499 9.87589 69.439 9.81587 69.0339L9.80676 68.9097V63.1622C9.80676 62.6981 10.183 62.3219 10.647 62.3219Z" fill="white"/>
<path d="M60.1108 43.1533H49.1061C48.6421 43.1533 48.2659 43.5295 48.2659 43.9935V50.1073C48.2659 50.5713 48.6421 50.9475 49.1061 50.9475H60.1108C60.5749 50.9475 60.951 50.5713 60.951 50.1073V43.9935C60.951 43.5295 60.5749 43.1533 60.1108 43.1533ZM59.2698 44.8325V49.2658H49.9456V44.8325H59.2698Z" fill="white"/>
<path d="M54.6087 43.1533C55.0305 43.1533 55.3798 43.4642 55.4398 43.8694L55.4489 43.9935V49.7411C55.4489 50.2051 55.0727 50.5813 54.6087 50.5813C54.1868 50.5813 53.8376 50.2704 53.7775 49.8652L53.7684 49.7411V43.9935C53.7684 43.5295 54.1446 43.1533 54.6087 43.1533Z" fill="white"/>
<path d="M60.1108 52.7375H49.1061C48.6421 52.7375 48.2659 53.1137 48.2659 53.5777V59.6915C48.2659 60.1555 48.6421 60.5317 49.1061 60.5317H60.1108C60.5749 60.5317 60.951 60.1555 60.951 59.6915V53.5777C60.951 53.1137 60.5749 52.7375 60.1108 52.7375ZM59.2698 54.4176V58.8508H49.9456V54.4176H59.2698Z" fill="white"/>
<path d="M54.6087 52.7376C55.0305 52.7376 55.3798 53.0485 55.4398 53.4537L55.4489 53.5779V59.3254C55.4489 59.7895 55.0727 60.1657 54.6087 60.1657C54.1868 60.1657 53.8376 59.8548 53.7775 59.4496L53.7684 59.3254V53.5779C53.7684 53.1138 54.1446 52.7376 54.6087 52.7376Z" fill="white"/>
<path d="M60.1108 62.3217H49.1061C48.6421 62.3217 48.2659 62.6978 48.2659 63.1619V69.2756C48.2659 69.7397 48.6421 70.1159 49.1061 70.1159H60.1108C60.5749 70.1159 60.951 69.7397 60.951 69.2756V63.1619C60.951 62.6978 60.5749 62.3217 60.1108 62.3217ZM59.2698 64.0014V68.4346H49.9456V64.0014H59.2698Z" fill="white"/>
<path d="M54.6087 62.3219C55.0305 62.3219 55.3798 62.6328 55.4398 63.038L55.4489 63.1622V68.9097C55.4489 69.3737 55.0727 69.7499 54.6087 69.7499C54.1868 69.7499 53.8376 69.439 53.7775 69.0339L53.7684 68.9097V63.1622C53.7684 62.6981 54.1446 62.3219 54.6087 62.3219Z" fill="white"/>
<path d="M30.888 43.1534H24.7743C24.3103 43.1534 23.9341 43.5296 23.9341 43.9937V50.1074C23.9341 50.5715 24.3103 50.9476 24.7743 50.9476H30.888C31.3521 50.9476 31.7283 50.5715 31.7283 50.1074V43.9937C31.7283 43.5296 31.3521 43.1534 30.888 43.1534ZM30.047 44.8338V49.267H25.6138V44.8338H30.047Z" fill="white"/>
<path d="M40.7904 43.1534H34.6767C34.2126 43.1534 33.8364 43.5296 33.8364 43.9937V50.1074C33.8364 50.5715 34.2126 50.9476 34.6767 50.9476H40.7904C41.2544 50.9476 41.6306 50.5715 41.6306 50.1074V43.9937C41.6306 43.5296 41.2544 43.1534 40.7904 43.1534ZM39.9494 44.8338V49.267H35.5162V44.8338H39.9494Z" fill="white"/>
<path d="M30.888 52.7372H24.7743C24.3103 52.7372 23.9341 53.1134 23.9341 53.5775V59.6912C23.9341 60.1553 24.3103 60.5315 24.7743 60.5315H30.888C31.3521 60.5315 31.7283 60.1553 31.7283 59.6912V53.5775C31.7283 53.1134 31.3521 52.7372 30.888 52.7372ZM30.047 54.4176V58.8508H25.6138V54.4176H30.047Z" fill="white"/>
<path d="M40.7904 52.7372H34.6767C34.2126 52.7372 33.8364 53.1134 33.8364 53.5775V59.6912C33.8364 60.1553 34.2126 60.5315 34.6767 60.5315H40.7904C41.2544 60.5315 41.6306 60.1553 41.6306 59.6912V53.5775C41.6306 53.1134 41.2544 52.7372 40.7904 52.7372ZM39.9494 54.4176V58.8508H35.5162V54.4176H39.9494Z" fill="white"/>
<path d="M30.888 62.1392H24.7743C24.3103 62.1392 23.9341 62.5154 23.9341 62.9795V69.0932C23.9341 69.5572 24.3103 69.9334 24.7743 69.9334H30.888C31.3521 69.9334 31.7283 69.5572 31.7283 69.0932V62.9795C31.7283 62.5154 31.3521 62.1392 30.888 62.1392ZM30.047 63.8196V68.2528H25.6138V63.8196H30.047Z" fill="white"/>
<path d="M40.7904 62.1392H34.6767C34.2126 62.1392 33.8364 62.5154 33.8364 62.9795V69.0932C33.8364 69.5572 34.2126 69.9334 34.6767 69.9334H40.7904C41.2544 69.9334 41.6306 69.5572 41.6306 69.0932V62.9795C41.6306 62.5154 41.2544 62.1392 40.7904 62.1392ZM39.9494 63.8196V68.2528H35.5162V63.8196H39.9494Z" fill="white"/>
<path d="M31.8199 26.207L31.637 26.2148C30.5519 26.3079 29.6954 27.2216 29.6954 28.3302L29.6945 30.2173L27.808 30.2176C26.6382 30.2176 25.6848 31.1716 25.6848 32.3408V34.267L25.6926 34.4499C25.7857 35.5348 26.6995 36.3902 27.808 36.3902L29.6945 36.39L29.6954 38.2776C29.6954 39.4478 30.6498 40.4008 31.8199 40.4008H33.7449L33.9277 40.393C35.0127 40.2999 35.8681 39.3862 35.8681 38.2776L35.8672 36.39L37.7555 36.3902C38.9256 36.3902 39.8787 35.4372 39.8787 34.267V32.3408L39.8709 32.158C39.7777 31.0738 38.8637 30.2176 37.7555 30.2176L35.8672 30.2173L35.8681 28.3302C35.8681 27.16 34.915 26.207 33.7449 26.207H31.8199ZM31.8199 27.8875H33.7449C33.9869 27.8875 34.1876 28.0882 34.1876 28.3302V31.0578C34.1876 31.5219 34.5638 31.8981 35.0278 31.8981H37.7555C37.9969 31.8981 38.1982 32.0994 38.1982 32.3408V34.267C38.1982 34.509 37.9975 34.7097 37.7555 34.7097H35.0278C34.5638 34.7097 34.1876 35.0859 34.1876 35.55V38.2776C34.1876 38.5196 33.9869 38.7203 33.7449 38.7203H31.8199C31.5774 38.7203 31.3759 38.5192 31.3759 38.2776V35.55C31.3759 35.0859 30.9997 34.7097 30.5357 34.7097H27.808C27.566 34.7097 27.3653 34.509 27.3653 34.267V32.3408C27.3653 32.0994 27.5666 31.8981 27.808 31.8981H30.5357C30.9997 31.8981 31.3759 31.5219 31.3759 31.0578V28.3302C31.3759 28.0886 31.5774 27.8875 31.8199 27.8875Z" fill="#00C5CA"/>
<path d="M6.95298 73.0788C7.41703 73.0788 7.79322 73.455 7.79322 73.9191C7.79322 74.3409 7.48232 74.6902 7.07714 74.7502L6.95298 74.7593H6.34098C5.87692 74.7593 5.50073 74.3831 5.50073 73.9191C5.50073 73.4972 5.81163 73.1479 6.21681 73.0879L6.34098 73.0788H6.95298Z" fill="white"/>
<path d="M10.9529 73.0788C11.4169 73.0788 11.7931 73.455 11.7931 73.9191C11.7931 74.3409 11.4822 74.6902 11.077 74.7502L10.9529 74.7593H10.3409C9.8768 74.7593 9.50061 74.3831 9.50061 73.9191C9.50061 73.4972 9.81151 73.1479 10.2167 73.0879L10.3409 73.0788H10.9529Z" fill="white"/>
<path d="M14.9531 73.0788C15.4172 73.0788 15.7933 73.455 15.7933 73.9191C15.7933 74.3409 15.4824 74.6902 15.0773 74.7502L14.9531 74.7593H14.3411C13.877 74.7593 13.5009 74.3831 13.5009 73.9191C13.5009 73.4972 13.8118 73.1479 14.2169 73.0879L14.3411 73.0788H14.9531Z" fill="white"/>
<path d="M50.9146 73.0788C51.3787 73.0788 51.7549 73.455 51.7549 73.9191C51.7549 74.3409 51.444 74.6902 51.0388 74.7502L50.9146 74.7593H50.3026C49.8386 74.7593 49.4624 74.3831 49.4624 73.9191C49.4624 73.4972 49.7733 73.1479 50.1785 73.0879L50.3026 73.0788H50.9146Z" fill="white"/>
<path d="M54.9149 73.0788C55.3789 73.0788 55.7551 73.455 55.7551 73.9191C55.7551 74.3409 55.4442 74.6902 55.0391 74.7502L54.9149 74.7593H54.3029C53.8388 74.7593 53.4626 74.3831 53.4626 73.9191C53.4626 73.4972 53.7735 73.1479 54.1787 73.0879L54.3029 73.0788H54.9149Z" fill="white"/>
<path d="M58.9148 73.0788C59.3788 73.0788 59.755 73.455 59.755 73.9191C59.755 74.3409 59.4441 74.6902 59.0389 74.7502L58.9148 74.7593H58.3028C57.8387 74.7593 57.4625 74.3831 57.4625 73.9191C57.4625 73.4972 57.7734 73.1479 58.1786 73.0879L58.3028 73.0788H58.9148Z" fill="white"/>
<path d="M33.2991 20.3694V17.2342C33.2991 16.8186 32.9622 16.4817 32.5466 16.4817C32.1311 16.4817 31.7942 16.8186 31.7942 17.2342V20.3694C31.7942 20.785 32.1311 21.1219 32.5466 21.1219C32.9622 21.1219 33.2991 20.785 33.2991 20.3694ZM33.8007 16.1055H36.936C37.3516 16.1055 37.6884 15.7686 37.6884 15.3531C37.6884 14.9375 37.3516 14.6006 36.936 14.6006H33.8007C33.3852 14.6006 33.0483 14.9375 33.0483 15.3531C33.0483 15.7686 33.3852 16.1055 33.8007 16.1055ZM40.0712 16.1055H43.2065C43.622 16.1055 43.9589 15.7686 43.9589 15.3531C43.9589 14.9375 43.622 14.6006 43.2065 14.6006H40.0712C39.6557 14.6006 39.3188 14.9375 39.3188 15.3531C39.3188 15.7686 39.6557 16.1055 40.0712 16.1055ZM46.3417 16.1055H49.4769C49.8925 16.1055 50.2294 15.7686 50.2294 15.3531C50.2294 14.9375 49.8925 14.6006 49.4769 14.6006H46.3417C45.9261 14.6006 45.5893 14.9375 45.5893 15.3531C45.5893 15.7686 45.9261 16.1055 46.3417 16.1055ZM52.6122 16.1055H55.7474C56.163 16.1055 56.4999 15.7686 56.4999 15.3531C56.4999 14.9375 56.163 14.6006 55.7474 14.6006H52.6122C52.1966 14.6006 51.8597 14.9375 51.8597 15.3531C51.8597 15.7686 52.1966 16.1055 52.6122 16.1055Z" fill="white"/>
<path d="M76.3145 45.4514V48.5866C76.3145 49.0022 76.6514 49.3391 77.067 49.3391C77.4826 49.3391 77.8195 49.0022 77.8195 48.5866V45.4514C77.8195 45.0358 77.4826 44.6989 77.067 44.6989C76.6514 44.6989 76.3145 45.0358 76.3145 45.4514ZM76.3145 51.7219V54.8571C76.3145 55.2727 76.6514 55.6096 77.067 55.6096C77.4826 55.6096 77.8195 55.2727 77.8195 54.8571V51.7219C77.8195 51.3063 77.4826 50.9694 77.067 50.9694C76.6514 50.9694 76.3145 51.3063 76.3145 51.7219ZM76.3145 57.9923V61.1276C76.3145 61.5432 76.6514 61.88 77.067 61.88C77.4826 61.88 77.8195 61.5432 77.8195 61.1276V57.9923C77.8195 57.5768 77.4826 57.2399 77.067 57.2399C76.6514 57.2399 76.3145 57.5768 76.3145 57.9923ZM76.3145 64.2628V67.3981C76.3145 67.8136 76.6514 68.1505 77.067 68.1505C77.4826 68.1505 77.8195 67.8136 77.8195 67.3981V64.2628C77.8195 63.8473 77.4826 63.5104 77.067 63.5104C76.6514 63.5104 76.3145 63.8473 76.3145 64.2628ZM77.067 69.7809H73.9318C73.5162 69.7809 73.1793 70.1177 73.1793 70.5333C73.1793 70.9489 73.5162 71.2858 73.9318 71.2858H77.067C77.4826 71.2858 77.8195 70.9489 77.8195 70.5333C77.8195 70.1177 77.4826 69.7809 77.067 69.7809ZM77.067 43.0686C76.6514 43.0686 76.3145 42.7317 76.3145 42.3161V41.062C76.3145 40.6465 76.6514 40.3096 77.067 40.3096C77.4826 40.3096 77.8195 40.6465 77.8195 41.062V42.3161C77.8195 42.7317 77.4826 43.0686 77.067 43.0686ZM67.6613 71.2858C67.2457 71.2858 66.9088 70.9489 66.9088 70.5333C66.9088 70.1177 67.2457 69.7809 67.6613 69.7809H70.7965C71.2121 69.7809 71.549 70.1177 71.549 70.5333C71.549 70.9489 71.2121 71.2858 70.7965 71.2858H67.6613Z" fill="white"/>
<path d="M77.061 34.1114C78.4463 34.1114 79.5692 35.2344 79.5692 36.6196C79.5692 38.0048 78.4463 39.1278 77.061 39.1278C75.6758 39.1278 74.5529 38.0048 74.5529 36.6196C74.5529 35.2344 75.6758 34.1114 77.061 34.1114ZM77.061 35.3655C76.3684 35.3655 75.807 35.927 75.807 36.6196C75.807 37.3122 76.3684 37.8737 77.061 37.8737C77.7537 37.8737 78.3151 37.3122 78.3151 36.6196C78.3151 35.927 77.7537 35.3655 77.061 35.3655Z" fill="white"/>
<path d="M60.1308 12.7918C61.516 12.7918 62.6389 13.9147 62.6389 15.3C62.6389 16.6852 61.516 17.8082 60.1308 17.8082C58.7455 17.8082 57.6226 16.6852 57.6226 15.3C57.6226 13.9147 58.7455 12.7918 60.1308 12.7918ZM60.1308 14.0459C59.4381 14.0459 58.8767 14.6074 58.8767 15.3C58.8767 15.9926 59.4381 16.5541 60.1308 16.5541C60.8234 16.5541 61.3848 15.9926 61.3848 15.3C61.3848 14.6074 60.8234 14.0459 60.1308 14.0459Z" fill="white"/>
<path d="M77.0609 30.0983C71.7637 30.0983 66.4011 28.5858 66.4011 25.6949V4.27288C66.4011 3.81279 66.7643 3.4398 67.2122 3.4398C67.6601 3.4398 68.0233 3.81279 68.0233 4.27288C68.0233 4.7156 68.7479 5.42503 70.3668 6.01187C72.1425 6.6556 74.5198 7.01014 77.0609 7.01014C79.602 7.01014 81.9794 6.6556 83.7551 6.01187C85.374 5.42503 86.0986 4.7156 86.0986 4.27288C86.0986 3.81279 86.4617 3.4398 86.9097 3.4398C87.3576 3.4398 87.7208 3.81279 87.7208 4.27288V25.6949C87.7208 28.5858 82.3582 30.0983 77.0609 30.0983ZM68.0233 6.72261V25.6949C68.0233 26.1376 68.7479 26.847 70.3668 27.4339C72.1425 28.0776 74.5198 28.4322 77.0609 28.4322C79.602 28.4322 81.9794 28.0776 83.7551 27.4339C85.374 26.847 86.0986 26.1376 86.0986 25.6949V6.72261C84.1104 8.01198 80.5711 8.6763 77.0609 8.6763C73.5507 8.6763 70.0114 8.01198 68.0233 6.72261Z" fill="#00C5CA"/>
<path d="M77.0611 8.59952C71.7638 8.59952 66.4012 7.12261 66.4012 4.29976C66.4012 1.47691 71.7638 0 77.0611 0C82.3583 0 87.7209 1.47691 87.7209 4.29976C87.7209 7.12261 82.3583 8.59952 77.0611 8.59952ZM77.0611 1.62694C74.52 1.62694 72.1426 1.97312 70.3669 2.6017C68.748 3.17473 68.0234 3.86746 68.0234 4.29976C68.0234 4.73206 68.748 5.42478 70.3669 5.99781C72.1426 6.62639 74.52 6.97258 77.0611 6.97258C79.6022 6.97258 81.9795 6.62639 83.7552 5.99781C85.3741 5.42478 86.0987 4.73206 86.0987 4.29976C86.0987 3.86746 85.3741 3.17473 83.7552 2.6017C81.9795 1.97312 79.6022 1.62694 77.0611 1.62694Z" fill="#00C5CA"/>
<path d="M77.0609 16.3391C71.7637 16.3391 66.4011 14.8487 66.4011 12.0002C66.4011 11.5469 66.7643 11.1794 67.2122 11.1794C67.6601 11.1794 68.0233 11.5469 68.0233 12.0002C68.0233 12.4365 68.7479 13.1355 70.3668 13.7137C72.1425 14.348 74.5198 14.6974 77.0609 14.6974C79.602 14.6974 81.9794 14.348 83.7551 13.7137C85.374 13.1355 86.0986 12.4365 86.0986 12.0002C86.0986 11.5469 86.4617 11.1794 86.9097 11.1794C87.3576 11.1794 87.7208 11.5469 87.7208 12.0002C87.7208 14.8487 82.3582 16.3391 77.0609 16.3391Z" fill="#00C5CA"/>
<path d="M77.0609 23.2187C71.7637 23.2187 66.4011 21.7284 66.4011 18.8798C66.4011 18.4265 66.7643 18.059 67.2122 18.059C67.6601 18.059 68.0233 18.4265 68.0233 18.8798C68.0233 19.3161 68.7479 20.0151 70.3668 20.5933C72.1425 21.2276 74.5198 21.577 77.0609 21.577C79.602 21.577 81.9794 21.2276 83.7551 20.5933C85.374 20.0151 86.0986 19.3161 86.0986 18.8798C86.0986 18.4265 86.4617 18.059 86.9097 18.059C87.3576 18.059 87.7208 18.4265 87.7208 18.8798C87.7208 21.7284 82.3582 23.2187 77.0609 23.2187Z" fill="#00C5CA"/>
</svg>
