<svg width="86" height="71" viewBox="0 0 86 71" fill="none" xmlns="http://www.w3.org/2000/svg">
<path d="M9.50164 29.672C9.83952 29.672 10.0967 29.5824 10.2731 29.4031C10.4496 29.2239 10.5378 28.9625 10.5378 28.619V22.6259C10.5378 22.2824 10.4477 22.021 10.2675 21.8418C10.0873 21.6626 9.83201 21.573 9.50164 21.573C9.17126 21.573 8.91597 21.6626 8.73576 21.8418C8.55556 22.021 8.46545 22.2824 8.46545 22.6259V28.619C8.46545 28.9625 8.55556 29.2239 8.73576 29.4031C8.91597 29.5824 9.17126 29.672 9.50164 29.672ZM15.8088 29.6944C16.6122 29.6944 17.3162 29.5245 17.9206 29.1847C18.5251 28.8449 18.9962 28.3688 19.3341 27.7565C19.672 27.1441 19.8409 26.4309 19.8409 25.6169C19.8409 24.7954 19.672 24.0803 19.3341 23.4717C18.9962 22.8631 18.5251 22.3907 17.9206 22.0546C17.3162 21.7186 16.6122 21.5506 15.8088 21.5506C15.0054 21.5506 14.2996 21.7186 13.6914 22.0546C13.0832 22.3907 12.6121 22.8631 12.2779 23.4717C11.9438 24.0803 11.7767 24.7954 11.7767 25.6169C11.7767 26.4309 11.9457 27.1441 12.2836 27.7565C12.6214 28.3688 13.0926 28.8449 13.697 29.1847C14.3015 29.5245 15.0054 29.6944 15.8088 29.6944ZM15.8088 27.9693C15.2157 27.9693 14.7539 27.7621 14.4235 27.3476C14.0931 26.9331 13.9279 26.3562 13.9279 25.6169C13.9279 24.8775 14.0931 24.3025 14.4235 23.8918C14.7539 23.481 15.2157 23.2757 15.8088 23.2757C16.402 23.2757 16.8638 23.481 17.1942 23.8918C17.5245 24.3025 17.6897 24.8775 17.6897 25.6169C17.6897 26.3562 17.5227 26.9331 17.1885 27.3476C16.8544 27.7621 16.3945 27.9693 15.8088 27.9693Z" fill="#00C5CA"/>
<path d="M14.213 35.7195L14.4017 35.9065L14.4026 66.5045L14.406 66.6433L14.4225 66.8352C14.5846 68.1645 15.7269 69.1898 17.1018 69.1898H34.6067L34.7462 69.1864L34.939 69.1701C36.2749 69.0088 37.3059 67.8727 37.3059 66.5045L37.311 66.3844L37.3338 66.2607C37.4361 65.8596 37.7951 65.5738 38.2165 65.5738C38.7197 65.5738 39.1272 65.9791 39.1272 66.4788L39.1242 66.669L39.109 66.9088C38.9013 69.2096 36.9592 71 34.6067 71H17.1018L16.9359 70.997L16.6948 70.9818C14.3813 70.7753 12.5812 68.8437 12.5812 66.5045V35.9065L12.7699 35.7195H14.213ZM31.5046 63.3414L31.6024 63.3465L31.7301 63.369C32.1446 63.4702 32.4416 63.8264 32.4416 64.2464C32.4416 64.7477 32.0208 65.1515 31.5046 65.1515H16.6456L16.5478 65.1464L16.4201 65.1238C16.0057 65.0226 15.7086 64.6665 15.7086 64.2464C15.7086 63.7452 16.1294 63.3414 16.6456 63.3414H31.5046ZM34.6067 25.7462L34.7725 25.7492L35.0136 25.7644C37.3271 25.9709 39.1272 27.9025 39.1272 30.2417V44.139L39.1221 44.2334L39.0993 44.357C38.997 44.7581 38.638 45.044 38.2165 45.044C37.7134 45.044 37.3059 44.6387 37.3059 44.139V30.2417L37.3024 30.1029L37.286 29.911C37.1238 28.5818 35.9816 27.5564 34.6067 27.5564H25.3511L25.1624 27.3694V25.9332L25.3511 25.7462H34.6067ZM34.0209 34.2235L34.1187 34.2286L34.2463 34.2512C34.6608 34.3524 34.9579 34.7086 34.9579 35.1286C34.9579 35.6298 34.537 36.0337 34.0209 36.0337H19.1618L19.064 36.0285L18.9364 36.006C18.5219 35.9048 18.2249 35.5486 18.2249 35.1286C18.2249 34.6274 18.6457 34.2235 19.1618 34.2235H34.0209Z" fill="white"/>
<path d="M17.3881 14.5263L17.6946 14.531C22.9796 14.6932 26.798 19.0481 26.798 24.8405L26.7955 25.7219L26.7833 26.0899L26.76 26.4625C26.4355 30.6514 24.0449 33.6702 20.1802 34.7389L19.877 34.8169L19.839 40.171L19.8338 40.263L19.8115 40.3872L19.7717 40.5105C19.5494 41.0622 18.8336 41.2792 18.3463 40.861L11.6628 35.1236L9.35398 35.1251L9.02805 35.1206C3.63101 34.9709 0 31.0971 0 25.4672V24.8405L0.00417389 24.507C0.148587 18.7552 4.02581 14.5263 9.35393 14.5263H17.3881ZM17.3881 16.3546H9.35393C4.95324 16.3546 1.81171 19.9099 1.81171 24.8405V25.4672L1.8161 25.7807C1.94467 30.3426 4.88725 33.2968 9.35393 33.2968H11.9962L12.1107 33.3045L12.2433 33.3325C12.3712 33.3689 12.4852 33.4306 12.583 33.5145L18.0414 38.1966L18.0697 34.0673L18.0798 33.937C18.137 33.5534 18.4315 33.241 18.8207 33.1729C22.7358 32.4879 24.9862 29.6799 24.9862 25.4672V24.8405L24.9818 24.522C24.8473 19.7744 21.7077 16.3546 17.3881 16.3546Z" fill="white"/>
<path d="M34.5857 53.5966C35.307 53.5966 35.6676 53.2849 35.6676 52.6616C35.6676 52.03 35.307 51.7141 34.5857 51.7141C34.2334 51.7141 33.9629 51.7952 33.7742 51.9572C33.5854 52.1193 33.4911 52.3541 33.4911 52.6616C33.4911 52.9608 33.5854 53.1914 33.7742 53.3535C33.9629 53.5156 34.2334 53.5966 34.5857 53.5966ZM34.5857 60.9394C34.896 60.9394 35.1308 60.8501 35.2902 60.6714C35.4496 60.4927 35.5292 60.2413 35.5292 59.9172V55.6536C35.5292 55.3211 35.4475 55.0656 35.2839 54.8869C35.1204 54.7082 34.8876 54.6189 34.5857 54.6189C33.9482 54.6189 33.6295 54.9638 33.6295 55.6536V59.9172C33.6295 60.2413 33.7113 60.4927 33.8748 60.6714C34.0384 60.8501 34.2753 60.9394 34.5857 60.9394ZM45.2797 60.9519C45.5816 60.9519 45.8144 60.8688 45.9779 60.7026C46.1415 60.5363 46.2233 60.2995 46.2233 59.992V57.162C46.2233 56.2894 46.0513 55.6432 45.7074 55.2235C45.3635 54.8038 44.8393 54.5939 44.1348 54.5939C43.6902 54.5939 43.2856 54.6957 42.9207 54.8994C42.5558 55.103 42.277 55.3876 42.084 55.7533C41.9247 55.3627 41.6919 55.0718 41.3858 54.8807C41.0796 54.6895 40.7085 54.5939 40.2724 54.5939C39.8446 54.5939 39.4693 54.6833 39.1463 54.862C38.8234 55.0406 38.5697 55.2879 38.3852 55.6037V55.5663C38.3852 54.9347 38.0748 54.6189 37.4542 54.6189C36.8335 54.6189 36.5232 54.9347 36.5232 55.5663V59.992C36.5232 60.6319 36.8419 60.9519 37.4793 60.9519C38.1084 60.9519 38.4229 60.6319 38.4229 59.992V57.4862C38.4229 57.0291 38.5236 56.6759 38.7249 56.4265C38.9262 56.1772 39.2071 56.0525 39.5678 56.0525C39.8698 56.0525 40.0878 56.146 40.222 56.333C40.3562 56.52 40.4233 56.8171 40.4233 57.2244V59.992C40.4233 60.2995 40.5072 60.5363 40.675 60.7026C40.8427 60.8688 41.0776 60.9519 41.3795 60.9519C42.0086 60.9519 42.3231 60.6319 42.3231 59.992V57.4862C42.3231 57.0291 42.4237 56.6759 42.625 56.4265C42.8263 56.1772 43.1073 56.0525 43.468 56.0525C43.7783 56.0525 43.9985 56.146 44.1285 56.333C44.2585 56.52 44.3235 56.8171 44.3235 57.2244V59.992C44.3235 60.6319 44.6422 60.9519 45.2797 60.9519ZM55.9611 60.9519C56.2631 60.9519 56.4958 60.8688 56.6594 60.7026C56.8229 60.5363 56.9047 60.2995 56.9047 59.992V57.162C56.9047 56.2894 56.7328 55.6432 56.3889 55.2235C56.045 54.8038 55.5208 54.5939 54.8162 54.5939C54.3717 54.5939 53.967 54.6957 53.6021 54.8994C53.2373 55.103 52.9584 55.3876 52.7655 55.7533C52.6061 55.3627 52.3734 55.0718 52.0672 54.8807C51.7611 54.6895 51.3899 54.5939 50.9538 54.5939C50.526 54.5939 50.1507 54.6833 49.8278 54.862C49.5049 55.0406 49.2511 55.2879 49.0666 55.6037V55.5663C49.0666 54.9347 48.7563 54.6189 48.1356 54.6189C47.5149 54.6189 47.2046 54.9347 47.2046 55.5663V59.992C47.2046 60.6319 47.5233 60.9519 48.1608 60.9519C48.7898 60.9519 49.1044 60.6319 49.1044 59.992V57.4862C49.1044 57.0291 49.205 56.6759 49.4063 56.4265C49.6076 56.1772 49.8886 56.0525 50.2493 56.0525C50.5512 56.0525 50.7693 56.146 50.9035 56.333C51.0377 56.52 51.1048 56.8171 51.1048 57.2244V59.992C51.1048 60.2995 51.1886 60.5363 51.3564 60.7026C51.5241 60.8688 51.759 60.9519 52.0609 60.9519C52.69 60.9519 53.0045 60.6319 53.0045 59.992V57.4862C53.0045 57.0291 53.1052 56.6759 53.3065 56.4265C53.5078 56.1772 53.7888 56.0525 54.1494 56.0525C54.4598 56.0525 54.6799 56.146 54.8099 56.333C54.9399 56.52 55.0049 56.8171 55.0049 57.2244V59.992C55.0049 60.6319 55.3237 60.9519 55.9611 60.9519ZM60.1381 60.9768C60.9433 60.9768 61.5514 60.6527 61.9623 60.0044C61.9623 60.3036 62.042 60.5363 62.2014 60.7026C62.3607 60.8688 62.5914 60.9519 62.8934 60.9519C63.5056 60.9519 63.8118 60.6319 63.8118 59.992V55.5663C63.8118 54.9347 63.4931 54.6189 62.8556 54.6189C62.2266 54.6189 61.912 54.9347 61.912 55.5663V58.1344C61.912 58.55 61.7967 58.8845 61.566 59.138C61.3354 59.3915 61.0397 59.5182 60.6791 59.5182C60.05 59.5182 59.7355 59.1567 59.7355 58.4336V55.5663C59.7355 54.9347 59.4167 54.6189 58.7793 54.6189C58.1502 54.6189 57.8357 54.9347 57.8357 55.5663V58.3838C57.8357 59.2481 58.0223 59.8964 58.3956 60.3286C58.7688 60.7607 59.3497 60.9768 60.1381 60.9768ZM69.8885 60.9519C70.5259 60.9519 70.8447 60.6319 70.8447 59.992V57.162C70.8447 56.2894 70.6643 55.6432 70.3037 55.2235C69.943 54.8038 69.3978 54.5939 68.6681 54.5939C68.232 54.5939 67.8378 54.6812 67.4855 54.8557C67.1332 55.0303 66.8522 55.2837 66.6426 55.6162V55.5663C66.6426 54.9347 66.3322 54.6189 65.7115 54.6189C65.0909 54.6189 64.7805 54.9347 64.7805 55.5663V59.992C64.7805 60.6319 65.0993 60.9519 65.7367 60.9519C66.3658 60.9519 66.6803 60.6319 66.6803 59.992V57.4238C66.6803 57.0083 66.7998 56.6759 67.0389 56.4265C67.2779 56.1772 67.5987 56.0525 68.0013 56.0525C68.3117 56.0525 68.5465 56.146 68.7059 56.333C68.8652 56.52 68.9449 56.8255 68.9449 57.2493V59.992C68.9449 60.2995 69.0267 60.5363 69.1902 60.7026C69.3538 60.8688 69.5866 60.9519 69.8885 60.9519ZM72.7193 53.5966C73.4406 53.5966 73.8013 53.2849 73.8013 52.6616C73.8013 52.03 73.4406 51.7141 72.7193 51.7141C72.367 51.7141 72.0965 51.7952 71.9078 51.9572C71.7191 52.1193 71.6247 52.3541 71.6247 52.6616C71.6247 52.9608 71.7191 53.1914 71.9078 53.3535C72.0965 53.5156 72.367 53.5966 72.7193 53.5966ZM72.7193 60.9394C73.0296 60.9394 73.2645 60.8501 73.4238 60.6714C73.5832 60.4927 73.6629 60.2413 73.6629 59.9172V55.6536C73.6629 55.3211 73.5811 55.0656 73.4175 54.8869C73.254 54.7082 73.0212 54.6189 72.7193 54.6189C72.0818 54.6189 71.7631 54.9638 71.7631 55.6536V59.9172C71.7631 60.2413 71.8449 60.4927 72.0084 60.6714C72.172 60.8501 72.4089 60.9394 72.7193 60.9394Z" fill="#00C5CA"/>
<path d="M48.7018 22.1932C50.2367 22.1932 51.4277 21.8088 52.2748 21.0401C53.122 20.2713 53.5455 19.1888 53.5455 17.7925C53.5455 16.3963 53.122 15.3158 52.2748 14.5512C51.4277 13.7866 50.2367 13.4043 48.7018 13.4043H46.2359C45.4307 13.4043 45.0281 13.799 45.0281 14.5886V21.0089C45.0281 21.7984 45.4307 22.1932 46.2359 22.1932H48.7018ZM48.5508 20.3357H47.343V15.2618H48.5508C49.4231 15.2618 50.0731 15.4696 50.5009 15.8851C50.9287 16.3007 51.1425 16.9365 51.1425 17.7925C51.1425 18.6486 50.9308 19.2864 50.5072 19.7061C50.0836 20.1258 49.4315 20.3357 48.5508 20.3357ZM58.9429 22.3304C59.4042 22.3304 59.8634 22.293 60.3205 22.2182C60.7776 22.1434 61.2075 22.0395 61.6101 21.9065C61.8366 21.8317 62.0022 21.707 62.1071 21.5325C62.2119 21.358 62.2643 21.146 62.2643 20.8967V18.1416C62.2643 17.5432 61.9624 17.244 61.3585 17.244H59.4965C58.9009 17.244 58.6032 17.5099 58.6032 18.0418C58.6032 18.5821 58.9009 18.8522 59.4965 18.8522H60.3771V20.236C59.8991 20.3523 59.4671 20.4105 59.0813 20.4105C58.2593 20.4105 57.6386 20.1944 57.2193 19.7622C56.7999 19.3301 56.5902 18.6901 56.5902 17.8424C56.5902 16.9947 56.7978 16.3464 57.213 15.8976C57.6281 15.4488 58.2593 15.2244 59.1064 15.2244C59.7523 15.2244 60.3352 15.3449 60.8552 15.5859C61.0985 15.694 61.3144 15.7189 61.5032 15.6607C61.6919 15.6025 61.8449 15.4966 61.9624 15.3428C62.0798 15.1891 62.1532 15.0125 62.1825 14.813C62.2119 14.6135 62.1867 14.4245 62.1071 14.2458C62.0274 14.0671 61.8785 13.9279 61.6604 13.8281C61.241 13.612 60.8133 13.4645 60.3771 13.3856C59.941 13.3066 59.5132 13.2671 59.0939 13.2671C58.0622 13.2671 57.1815 13.4541 56.4518 13.8281C55.7221 14.2021 55.1622 14.732 54.7722 15.4176C54.3822 16.1033 54.1872 16.9115 54.1872 17.8424C54.1872 18.74 54.3717 19.5254 54.7408 20.1986C55.1098 20.8718 55.6487 21.3954 56.3574 21.7694C57.0662 22.1434 57.928 22.3304 58.9429 22.3304ZM67.7875 22.3304C68.2152 22.3304 68.6451 22.2805 69.077 22.1808C69.509 22.081 69.8717 21.9439 70.1653 21.7694C70.3918 21.653 70.5469 21.4993 70.6308 21.3081C70.7147 21.1169 70.742 20.9237 70.7126 20.7284C70.6832 20.5331 70.6057 20.3606 70.4798 20.211C70.354 20.0614 70.1926 19.9617 69.9955 19.9118C69.7984 19.862 69.574 19.8911 69.3224 19.9991C69.0791 20.1155 68.8317 20.2006 68.5801 20.2547C68.3285 20.3087 68.0936 20.3357 67.8755 20.3357C67.0955 20.3357 66.5084 20.1175 66.1142 19.6812C65.72 19.2449 65.5229 18.6153 65.5229 17.7925C65.5229 16.978 65.72 16.3526 66.1142 15.9163C66.5084 15.48 67.0955 15.2618 67.8755 15.2618C68.3956 15.2618 68.903 15.3823 69.3979 15.6233C69.6159 15.7314 69.8172 15.7584 70.0018 15.7044C70.1863 15.6503 70.3394 15.5444 70.461 15.3865C70.5826 15.2285 70.656 15.0499 70.6811 14.8504C70.7063 14.6509 70.6728 14.4556 70.5805 14.2645C70.4882 14.0733 70.3247 13.9154 70.0898 13.7907C69.7711 13.6162 69.4042 13.4853 68.989 13.398C68.5738 13.3108 68.1733 13.2671 67.7875 13.2671C66.8061 13.2671 65.9632 13.4541 65.2586 13.8281C64.5541 14.2021 64.0152 14.7278 63.642 15.4052C63.2687 16.0825 63.0821 16.8783 63.0821 17.7925C63.0821 18.7067 63.2687 19.5046 63.642 20.1861C64.0152 20.8676 64.5541 21.3954 65.2586 21.7694C65.9632 22.1434 66.8061 22.3304 67.7875 22.3304Z" fill="#00C5CA"/>
<path d="M34.5378 47.4892L34.2902 47.5212C30.1106 48.1031 26.9237 51.6507 26.9237 55.918V57.0997C26.9237 62.4357 31.2891 66.7614 36.6741 66.7614H70.1045C75.4895 66.7614 79.8549 62.4357 79.8549 57.0997L79.8501 56.793C79.6867 51.599 75.386 47.4381 70.1045 47.4381H42.7131L36.1199 41.4378C35.5149 40.8871 34.5379 41.3123 34.5379 42.1263L34.5378 47.4892ZM36.4251 48.3731L36.425 44.2554L41.706 49.0617C41.8801 49.2202 42.1079 49.3081 42.3443 49.3081H70.1045C74.4473 49.3081 77.9678 52.7965 77.9678 57.0997C77.9678 61.4029 74.4473 64.8914 70.1045 64.8914H36.6741C32.3314 64.8914 28.8109 61.4029 28.8109 57.0997V55.918C28.8109 52.3599 31.6539 49.4433 35.2308 49.3127L35.4989 49.308C36.0132 49.2986 36.4251 48.8828 36.4251 48.3731Z" fill="white"/>
<path d="M35.4161 26.5701V3.58475C35.4161 2.15723 36.5734 1 38.0009 1H78.1237C79.5512 1 80.7085 2.15723 80.7085 3.58475V29.6732" stroke="white" stroke-width="2" stroke-linecap="round" stroke-linejoin="round"/>
<path d="M38.0562 33.4132H53.7743C54.2902 33.4132 54.7084 33.8757 54.7084 34.4462C54.7084 35.0167 55.1266 35.4792 55.6425 35.4792H59.6401C60.156 35.4792 60.5742 35.0167 60.5742 34.4462C60.5742 33.8757 60.9924 33.4132 61.5083 33.4132H84.4828V36.7865C84.4828 38.366 83.325 39.6465 81.8967 39.6465C71.5677 39.6465 63.8209 39.6465 58.6564 39.6465C53.4919 39.6465 48.3852 39.6465 38.0562 39.6465" stroke="white" stroke-width="2" stroke-linejoin="round"/>
</svg>
