<svg width="82" height="85" viewBox="0 0 82 85" fill="none" xmlns="http://www.w3.org/2000/svg">
<path d="M28.4174 73.8345C28.7646 73.8345 29.046 74.116 29.046 74.4631C29.046 74.8103 28.7646 75.0918 28.4174 75.0918H25.2744C24.9272 75.0918 24.6458 74.8103 24.6458 74.4631C24.6458 74.116 24.9272 73.8345 25.2744 73.8345H28.4174ZM34.7034 73.8345C35.0506 73.8345 35.3321 74.116 35.3321 74.4631C35.3321 74.8103 35.0506 75.0918 34.7034 75.0918H31.5604C31.2132 75.0918 30.9318 74.8103 30.9318 74.4631C30.9318 74.116 31.2132 73.8345 31.5604 73.8345H34.7034ZM40.9895 73.8345C41.3367 73.8345 41.6181 74.116 41.6181 74.4631C41.6181 74.8103 41.3367 75.0918 40.9895 75.0918H37.8465C37.4993 75.0918 37.2179 74.8103 37.2179 74.4631C37.2179 74.116 37.4993 73.8345 37.8465 73.8345H40.9895ZM47.2756 73.8345C47.6227 73.8345 47.9042 74.116 47.9042 74.4631C47.9042 74.8103 47.6227 75.0918 47.2756 75.0918H44.1325C43.7854 75.0918 43.5039 74.8103 43.5039 74.4631C43.5039 74.116 43.7854 73.8345 44.1325 73.8345H47.2756ZM53.5616 73.8345C53.9088 73.8345 54.1902 74.116 54.1902 74.4631C54.1902 74.8103 53.9088 75.0918 53.5616 75.0918H50.4186C50.0714 75.0918 49.79 74.8103 49.79 74.4631C49.79 74.116 50.0714 73.8345 50.4186 73.8345H53.5616ZM54.1902 68.1771C54.5374 68.1771 54.8188 68.4585 54.8188 68.8057V71.9487C54.8188 72.2959 54.5374 72.5773 54.1902 72.5773C53.8431 72.5773 53.5616 72.2959 53.5616 71.9487V68.8057C53.5616 68.4585 53.8431 68.1771 54.1902 68.1771ZM54.214 59.3824C55.6026 59.3824 56.7284 60.5081 56.7284 61.8968C56.7284 63.0789 55.9127 64.0704 54.8135 64.3393C54.8176 64.3595 54.8188 64.3823 54.8188 64.4054V65.6627C54.8188 66.0098 54.5374 66.2913 54.1902 66.2913C53.8431 66.2913 53.5616 66.0098 53.5616 65.6627V64.4054L53.569 64.3277C52.4928 64.0429 51.6995 63.0625 51.6995 61.8968C51.6995 60.5081 52.8253 59.3824 54.214 59.3824ZM54.214 60.6396C53.5196 60.6396 52.9567 61.2025 52.9567 61.8968C52.9567 62.5911 53.5196 63.154 54.214 63.154C54.9083 63.154 55.4712 62.5911 55.4712 61.8968C55.4712 61.2025 54.9083 60.6396 54.214 60.6396Z" fill="white"/>
<path d="M10.8165 49.3189C11.1636 49.3189 11.4451 49.6003 11.4451 49.9475V51.2047C11.4451 51.5519 11.1636 51.8333 10.8165 51.8333C10.4693 51.8333 10.1879 51.5519 10.1879 51.2047V49.9475C10.1879 49.6003 10.4693 49.3189 10.8165 49.3189ZM10.8165 43.0329C11.1636 43.0329 11.4451 43.3143 11.4451 43.6615V46.8045C11.4451 47.1517 11.1636 47.4331 10.8165 47.4331C10.4693 47.4331 10.1879 47.1517 10.1879 46.8045V43.6615C10.1879 43.3143 10.4693 43.0329 10.8165 43.0329ZM10.8165 36.7468C11.1636 36.7468 11.4451 37.0282 11.4451 37.3754V40.5184C11.4451 40.8656 11.1636 41.147 10.8165 41.147C10.4693 41.147 10.1879 40.8656 10.1879 40.5184V37.3754C10.1879 37.0282 10.4693 36.7468 10.8165 36.7468ZM10.8165 30.4607C11.1636 30.4607 11.4451 30.7422 11.4451 31.0893V34.2324C11.4451 34.5795 11.1636 34.861 10.8165 34.861C10.4693 34.861 10.1879 34.5795 10.1879 34.2324V31.0893C10.1879 30.7422 10.4693 30.4607 10.8165 30.4607ZM24.6695 27.3235C26.0582 27.3235 27.184 28.4492 27.184 29.8379C27.184 31.2266 26.0582 32.3523 24.6695 32.3523C23.4929 32.3523 22.5051 31.5442 22.2308 30.4527L22.1314 30.4607H18.9883C18.6412 30.4607 18.3597 30.1793 18.3597 29.8321C18.3597 29.485 18.6412 29.2035 18.9883 29.2035H22.1314L22.2337 29.2118C22.5119 28.126 23.497 27.3235 24.6695 27.3235ZM24.6695 28.5807C23.9752 28.5807 23.4123 29.1436 23.4123 29.8379C23.4123 30.5322 23.9752 31.0951 24.6695 31.0951C25.3639 31.0951 25.9267 30.5322 25.9267 29.8379C25.9267 29.1436 25.3639 28.5807 24.6695 28.5807ZM15.8453 29.2035C16.1925 29.2035 16.4739 29.485 16.4739 29.8321C16.4739 30.1793 16.1925 30.4607 15.8453 30.4607H12.7023C12.3551 30.4607 12.0737 30.1793 12.0737 29.8321C12.0737 29.485 12.3551 29.2035 12.7023 29.2035H15.8453Z" fill="white"/>
<path d="M61.6239 0C62.1345 0 62.6268 0.17747 63.0183 0.498249L63.1797 0.6444L72.2344 9.69916C72.5954 10.0602 72.818 10.5338 72.868 11.0374L72.8788 11.2549V16.5148C72.8788 17.0356 72.4567 17.4577 71.9359 17.4577C71.4585 17.4577 71.064 17.103 71.0016 16.6428L70.993 16.5148L70.9926 11.677L62.1447 11.677C61.6673 11.677 61.2728 11.3223 61.2104 10.8621L61.2018 10.7341L61.2014 1.88582H33.8659C33.7171 1.88582 33.5925 1.9892 33.5599 2.12805L33.5516 2.20012V53.6647C33.5516 53.8134 33.655 53.9381 33.7938 53.9707L33.8659 53.979H70.6787C70.8275 53.979 70.9521 53.8756 70.9847 53.7367L70.993 53.6647V45.5282C70.993 45.0074 71.4152 44.5852 71.9359 44.5852C72.4133 44.5852 72.8078 44.94 72.8702 45.4002L72.8788 45.5282V53.6647C72.8788 54.819 71.9898 55.7657 70.8591 55.8575L70.6787 55.8648H33.8659C32.7116 55.8648 31.7648 54.9758 31.6731 53.8451L31.6658 53.6647V2.20012C31.6658 1.04578 32.5548 0.0990779 33.6854 0.00729334L33.8659 0H61.6239ZM55.597 36.9116C56.1177 36.9116 56.5399 37.3338 56.5399 37.8546C56.5399 38.3319 56.1852 38.7264 55.7249 38.7889L55.597 38.7975H39.2532C38.7325 38.7975 38.3103 38.3753 38.3103 37.8546C38.3103 37.3772 38.665 36.9827 39.1253 36.9203L39.2532 36.9116H55.597ZM55.597 29.3684C56.1177 29.3684 56.5399 29.7905 56.5399 30.3113C56.5399 30.7886 56.1852 31.1832 55.7249 31.2456L55.597 31.2542H39.2532C38.7325 31.2542 38.3103 30.832 38.3103 30.3113C38.3103 29.8339 38.665 29.4394 39.1253 29.377L39.2532 29.3684H55.597ZM55.597 21.8251C56.1177 21.8251 56.5399 22.2473 56.5399 22.768C56.5399 23.2454 56.1852 23.6399 55.7249 23.7023L55.597 23.7109H39.2532C38.7325 23.7109 38.3103 23.2888 38.3103 22.768C38.3103 22.2907 38.665 21.8961 39.1253 21.8337L39.2532 21.8251H55.597ZM63.0873 3.21972L63.0874 9.79107L69.66 9.79117L63.0873 3.21972Z" fill="white"/>
<path d="M80.5017 32.435L81.4178 32.4361L81.492 32.4469C81.5866 32.4752 81.6615 32.5579 81.6921 32.6762L81.7064 32.7639L81.7028 39.6944L81.6913 39.7738C81.6613 39.8752 81.5757 39.9552 81.4687 39.9748L81.3952 39.9804L80.4791 39.9793L80.3996 39.9678C80.2982 39.9379 80.2183 39.8523 80.1987 39.7453L80.1931 39.6717L80.1941 37.9678H77.6797V39.6944L77.6682 39.7738C77.6382 39.8752 77.5526 39.9552 77.4456 39.9748L77.3721 39.9804L76.456 39.9793L76.3765 39.9678C76.2751 39.9379 76.1952 39.8523 76.1756 39.7453L76.17 39.6717L76.171 37.9678H74.4445L74.365 37.9563C74.2636 37.9263 74.1836 37.8408 74.1641 37.7337L74.1585 37.6602L74.1595 36.7441L74.171 36.6646C74.2009 36.5632 74.2865 36.4833 74.3936 36.4637L74.4671 36.4581L76.171 36.4591V34.7326L76.1825 34.6531C76.2125 34.5517 76.2981 34.4718 76.4051 34.4522L76.4786 34.4466L77.3947 34.4476L77.4742 34.4591C77.5756 34.4891 77.6555 34.5746 77.6751 34.6817L77.6807 34.7552L77.6797 36.4591H80.1941V32.721L80.2056 32.6416C80.2356 32.5402 80.3211 32.4602 80.4282 32.4407L80.5017 32.435ZM71.4364 38.4697L72.3525 38.4707L72.4319 38.4822C72.5333 38.5121 72.6133 38.5977 72.6328 38.7048L72.6384 38.7783L72.6374 39.6944L72.6259 39.7738C72.596 39.8752 72.5104 39.9552 72.4033 39.9748L72.3298 39.9804L71.4137 39.9793L71.3343 39.9678C71.2329 39.9379 71.1529 39.8523 71.1334 39.7453L71.1277 39.6717L71.1288 38.7557L71.1403 38.6762C71.1702 38.5748 71.2558 38.4948 71.3629 38.4753L71.4364 38.4697ZM62.3978 32.435L69.3486 32.4361L69.428 32.4476C69.5294 32.4775 69.6094 32.5631 69.6289 32.6701L69.6345 32.7437L69.6335 39.6944L69.622 39.7738C69.5921 39.8752 69.5065 39.9552 69.3994 39.9748L69.3259 39.9804L62.3752 39.9793L62.2958 39.9678C62.1943 39.9379 62.1144 39.8523 62.0948 39.7453L62.0892 39.6717L62.0903 32.721L62.1018 32.6416C62.1317 32.5402 62.2173 32.4602 62.3243 32.4407L62.3978 32.435ZM68.1249 33.9447H63.5989V38.4707H68.1249V33.9447ZM66.2951 35.4389C66.4431 35.4524 66.5711 35.5602 66.5978 35.6805L66.6043 35.7526L66.6028 36.6637L66.5913 36.7431C66.5614 36.8445 66.4758 36.9245 66.3687 36.944L66.2952 36.9496L65.3791 36.9486L65.2997 36.9371C65.1982 36.9072 65.1183 36.8216 65.0987 36.7145L65.0931 36.641L65.0942 35.7249L65.1057 35.6455C65.1356 35.5441 65.2212 35.4641 65.3282 35.4446L65.4017 35.4389H66.2951ZM71.4364 32.435L75.3564 32.4361L75.4358 32.4476C75.5372 32.4775 75.6172 32.5631 75.6367 32.6701L75.6423 32.7437L75.6413 33.6598L75.6298 33.7392C75.5999 33.8406 75.5143 33.9206 75.4072 33.9401L75.3337 33.9457L71.4137 33.9447L71.3343 33.9332C71.2329 33.9033 71.1529 33.8177 71.1334 33.7106L71.1277 33.6371L71.1288 32.721L71.1403 32.6416C71.1702 32.5402 71.2558 32.4602 71.3629 32.4407L71.4364 32.435ZM69.3318 29.4049L69.4111 29.4228C69.5185 29.4604 69.5978 29.5455 69.6077 29.6311L69.6067 30.6292L69.5952 30.7086C69.5653 30.8099 69.4797 30.8899 69.3726 30.9094L69.2991 30.915L65.3791 30.914L65.2997 30.9025C65.1982 30.8726 65.1183 30.787 65.0987 30.6799L65.0931 30.6064L65.0942 29.6903L65.1057 29.6108C65.1356 29.5094 65.2212 29.4295 65.3282 29.4099L65.4017 29.4043L69.3318 29.4049ZM71.4364 25.3813L72.3525 25.3823L72.4319 25.3938C72.5333 25.4237 72.6133 25.5093 72.6328 25.6164L72.6384 25.6899L72.6374 29.4053H77.3947L77.4742 29.4168C77.5756 29.4468 77.6555 29.5324 77.6751 29.6394L77.6807 29.7129L77.6797 30.629L77.6682 30.7085C77.6382 30.8099 77.5526 30.8899 77.4456 30.9094L77.3721 30.915L71.4137 30.914L71.3343 30.9025C71.2329 30.8726 71.1529 30.787 71.1334 30.6799L71.1277 30.6064L71.1288 25.6672L71.1403 25.5878C71.1702 25.4864 71.2558 25.4064 71.3629 25.3869L71.4364 25.3813ZM81.395 29.4043C81.543 29.4178 81.6711 29.5256 81.6978 29.6459L81.7043 29.718L81.7028 30.629L81.6913 30.7085C81.6613 30.8099 81.5757 30.8899 81.4687 30.9094L81.3952 30.915L80.4791 30.914L80.3996 30.9025C80.2982 30.8726 80.2183 30.787 80.1987 30.6799L80.1931 30.6064L80.1941 29.6903L80.2056 29.6108C80.2356 29.5094 80.3211 29.4295 80.4282 29.4099L80.5017 29.4043H81.395ZM62.3978 29.4043L63.3139 29.4053L63.3934 29.4168C63.4948 29.4468 63.5748 29.5324 63.5943 29.6394L63.5999 29.7129L63.5989 30.629L63.5874 30.7085C63.5575 30.8099 63.4719 30.8899 63.3648 30.9094L63.2913 30.915L62.3752 30.914L62.2958 30.9025C62.1943 30.8726 62.1144 30.787 62.0948 30.6799L62.0892 30.6064L62.0903 29.6903L62.1018 29.6108C62.1317 29.5094 62.2173 29.4295 62.3243 29.4099L62.3978 29.4043ZM81.4178 20.3668L81.4973 20.3783C81.5987 20.4083 81.6786 20.4939 81.6982 20.6009L81.7038 20.6744L81.7028 27.6251L81.6913 27.7046C81.6613 27.806 81.5757 27.886 81.4687 27.9055L81.3952 27.9111L74.4445 27.9101L74.365 27.8986C74.2636 27.8687 74.1836 27.7831 74.1641 27.676L74.1585 27.6025L74.1595 20.6518L74.171 20.5723C74.2009 20.4709 74.2865 20.391 74.3936 20.3714L74.4671 20.3658L81.4178 20.3668ZM69.3486 20.3668L69.428 20.3783C69.5294 20.4083 69.6094 20.4939 69.6289 20.6009L69.6345 20.6744L69.6335 27.6251L69.622 27.7046C69.5921 27.806 69.5065 27.886 69.3994 27.9055L69.3259 27.9111L62.3752 27.9101L62.2958 27.8986C62.1943 27.8687 62.1144 27.7831 62.0948 27.676L62.0892 27.6025L62.0903 20.6518L62.1018 20.5723C62.1317 20.4709 62.2173 20.391 62.3243 20.3714L62.3978 20.3658L69.3486 20.3668ZM80.1941 21.8755H75.6681V26.4015H80.1941V21.8755ZM68.1249 21.8755H63.5989V26.4015H68.1249V21.8755ZM78.3643 23.3697C78.5123 23.3832 78.6404 23.491 78.6671 23.6113L78.6736 23.6834L78.672 24.5944L78.6605 24.6739C78.6306 24.7753 78.545 24.8552 78.438 24.8748L78.3644 24.8804L77.4484 24.8794L77.3689 24.8679C77.2675 24.8379 77.1875 24.7523 77.168 24.6453L77.1624 24.5718L77.1634 23.6557L77.1749 23.5762C77.2048 23.4748 77.2904 23.3949 77.3975 23.3753L77.471 23.3697H78.3643ZM66.2951 23.3697C66.4431 23.3832 66.5711 23.491 66.5978 23.6113L66.6043 23.6834L66.6028 24.5944L66.5913 24.6739C66.5614 24.7753 66.4758 24.8552 66.3687 24.8748L66.2952 24.8804L65.3791 24.8794L65.2997 24.8679C65.1982 24.8379 65.1183 24.7523 65.0987 24.6453L65.0931 24.5718L65.0942 23.6557L65.1057 23.5762C65.1356 23.4748 65.2212 23.3949 65.3282 23.3753L65.4017 23.3697H66.2951ZM72.3525 20.3668L72.4319 20.3783C72.5333 20.4083 72.6133 20.4939 72.6328 20.6009L72.6384 20.6744L72.6374 23.6021L72.6259 23.6815C72.596 23.7829 72.5104 23.8629 72.4033 23.8824L72.3298 23.888L71.4137 23.887L71.3343 23.8755C71.2329 23.8456 71.1529 23.76 71.1334 23.6529L71.1277 23.5794L71.1288 20.6518L71.1403 20.5723C71.1702 20.4709 71.2558 20.391 71.3629 20.3714L71.4364 20.3658L72.3525 20.3668Z" fill="#00C5CA"/>
<path d="M10.6863 85C5.37591 85 0 83.4837 0 80.5856V59.1104C0 58.6492 0.364031 58.2753 0.813088 58.2753C1.26215 58.2753 1.62618 58.6492 1.62618 59.1104C1.62618 59.5542 2.35261 60.2654 3.97554 60.8537C5.75562 61.4991 8.1389 61.8545 10.6863 61.8545C13.2337 61.8545 15.617 61.4991 17.3971 60.8537C19.02 60.2654 19.7464 59.5542 19.7464 59.1104C19.7464 58.6492 20.1105 58.2753 20.5595 58.2753C21.0086 58.2753 21.3726 58.6492 21.3726 59.1104V80.5856C21.3726 83.4837 15.9967 85 10.6863 85ZM1.62618 61.5662V80.5856C1.62618 81.0295 2.35261 81.7407 3.97554 82.329C5.75562 82.9743 8.1389 83.3297 10.6863 83.3297C13.2337 83.3297 15.617 82.9743 17.3971 82.329C19.02 81.7407 19.7464 81.0295 19.7464 80.5856V61.5662C17.7533 62.8588 14.2052 63.5248 10.6863 63.5248C7.16737 63.5248 3.61929 62.8588 1.62618 61.5662Z" fill="#00C5CA"/>
<path d="M10.6863 63.4478C5.37591 63.4478 0 61.9672 0 59.1373C0 56.3075 5.37591 54.8269 10.6863 54.8269C15.9967 54.8269 21.3726 56.3075 21.3726 59.1373C21.3726 61.9672 15.9967 63.4478 10.6863 63.4478ZM10.6863 56.4579C8.1389 56.4579 5.75562 56.8049 3.97554 57.4351C2.35261 58.0095 1.62618 58.704 1.62618 59.1373C1.62618 59.5707 2.35261 60.2652 3.97554 60.8396C5.75562 61.4698 8.1389 61.8168 10.6863 61.8168C13.2337 61.8168 15.617 61.4698 17.3971 60.8396C19.02 60.2652 19.7464 59.5707 19.7464 59.1373C19.7464 58.704 19.02 58.0095 17.3971 57.4351C15.617 56.8049 13.2337 56.4579 10.6863 56.4579Z" fill="#00C5CA"/>
<path d="M10.6863 71.2066C5.37591 71.2066 0 69.7125 0 66.857C0 66.4025 0.364031 66.0341 0.813088 66.0341C1.26215 66.0341 1.62618 66.4025 1.62618 66.857C1.62618 67.2943 2.35261 67.995 3.97554 68.5747C5.75562 69.2106 8.1389 69.5608 10.6863 69.5608C13.2337 69.5608 15.617 69.2106 17.3971 68.5747C19.02 67.995 19.7464 67.2943 19.7464 66.857C19.7464 66.4025 20.1105 66.0341 20.5595 66.0341C21.0086 66.0341 21.3726 66.4025 21.3726 66.857C21.3726 69.7125 15.9967 71.2066 10.6863 71.2066Z" fill="#00C5CA"/>
<path d="M10.6863 78.1033C5.37591 78.1033 0 76.6092 0 73.7537C0 73.2992 0.364031 72.9308 0.813088 72.9308C1.26215 72.9308 1.62618 73.2992 1.62618 73.7537C1.62618 74.191 2.35261 74.8917 3.97554 75.4714C5.75562 76.1073 8.1389 76.4575 10.6863 76.4575C13.2337 76.4575 15.617 76.1073 17.3971 75.4714C19.02 74.8917 19.7464 74.191 19.7464 73.7537C19.7464 73.2992 20.1105 72.9308 20.5595 72.9308C21.0086 72.9308 21.3726 73.2992 21.3726 73.7537C21.3726 76.6092 15.9967 78.1033 10.6863 78.1033Z" fill="#00C5CA"/>
</svg>
