<svg width="128" height="61" viewBox="0 0 128 61" fill="none" xmlns="http://www.w3.org/2000/svg">
<path fill-rule="evenodd" clip-rule="evenodd" d="M67.2388 43.2427C66.8185 43.2427 66.4775 42.9078 66.4775 42.495V41.7473C66.4775 41.3344 66.8185 41 67.2388 41C67.6591 41 68 41.3344 68 41.7473V42.495C68 42.9078 67.6591 43.2427 67.2388 43.2427ZM67.2388 46.9812C66.8185 46.9812 66.4775 46.6463 66.4775 46.2335V45.4858C66.4775 45.073 66.8185 44.7385 67.2388 44.7385C67.6591 44.7385 68 45.073 68 45.4858V46.2335C68 46.6463 67.6591 46.9812 67.2388 46.9812ZM66.1118 50.4493C65.9349 50.4493 65.7567 50.3888 65.6121 50.2655C65.2951 49.9942 65.2619 49.5222 65.5381 49.2104C65.6769 49.0545 65.8037 48.8851 65.9145 48.7083C66.1344 48.3568 66.6035 48.2462 66.9617 48.4635C67.3199 48.68 67.4312 49.1407 67.2108 49.4926C67.0561 49.739 66.8792 49.9746 66.6864 50.1928C66.5356 50.3626 66.3242 50.4493 66.1118 50.4493ZM62.7694 51.9987C62.3571 51.9987 62.0188 51.6756 62.0086 51.2688C61.9993 50.856 62.3318 50.5133 62.7521 50.5037C62.9627 50.4989 63.1746 50.4763 63.3803 50.4371C63.7949 50.3591 64.1925 50.6235 64.2728 51.0289C64.3526 51.4343 64.083 51.8267 63.6703 51.9055C63.3808 51.9608 63.0842 51.9922 62.7876 51.9987H62.7694ZM48.3074 52H47.7608C47.3405 52 47 51.6656 47 51.2527C47 50.8395 47.3405 50.505 47.7608 50.505H48.3074C48.7277 50.505 49.0687 50.8395 49.0687 51.2527C49.0687 51.6656 48.7277 52 48.3074 52ZM52.1131 52H51.3519C50.9316 52 50.5907 51.6656 50.5907 51.2527C50.5907 50.8395 50.9316 50.505 51.3519 50.505H52.1131C52.5334 50.505 52.8743 50.8395 52.8743 51.2527C52.8743 51.6656 52.5334 52 52.1131 52ZM55.9192 52H55.158C54.7377 52 54.3968 51.6656 54.3968 51.2527C54.3968 50.8395 54.7377 50.505 55.158 50.505H55.9192C56.3395 50.505 56.6805 50.8395 56.6805 51.2527C56.6805 51.6656 56.3395 52 55.9192 52ZM59.7249 52H58.9637C58.5434 52 58.2025 51.6656 58.2025 51.2527C58.2025 50.8395 58.5434 50.505 58.9637 50.505H59.7249C60.1452 50.505 60.4862 50.8395 60.4862 51.2527C60.4862 51.6656 60.1452 52 59.7249 52Z" fill="#00FFF8"/>
<path fill-rule="evenodd" clip-rule="evenodd" d="M12.2094 47.8502C10.9564 47.8502 9.93708 48.8238 9.93708 50.0202V52.9794C9.93708 54.1766 10.9564 55.1498 12.2094 55.1498H44.791C46.0436 55.1498 47.0629 54.1766 47.0629 52.9794V50.0202C47.0629 48.8238 46.0436 47.8502 44.791 47.8502H12.2094ZM44.791 57H12.2094C9.88835 57 8 55.1963 8 52.9794V50.0202C8 47.8037 9.88835 46 12.2094 46H44.791C47.1121 46 49 47.8037 49 50.0202V52.9794C49 55.1963 47.1121 57 44.791 57Z" fill="#00FFF8"/>
<path fill-rule="evenodd" clip-rule="evenodd" d="M16 51.5C16 50.6711 15.3285 50 14.5 50C13.6711 50 13 50.6711 13 51.5C13 52.3285 13.6711 53 14.5 53C15.3285 53 16 52.3285 16 51.5Z" fill="#00FFF8"/>
<path fill-rule="evenodd" clip-rule="evenodd" d="M4.20942 25.8503C2.95639 25.8503 1.93708 26.8239 1.93708 28.0204V30.9796C1.93708 32.1765 2.95639 33.1501 4.20942 33.1501H36.791C38.0436 33.1501 39.0629 32.1765 39.0629 30.9796V28.0204C39.0629 26.8239 38.0436 25.8503 36.791 25.8503H4.20942ZM36.791 35H4.20942C1.88835 35 0 33.1967 0 30.9796V28.0204C0 25.8037 1.88835 24 4.20942 24H36.791C39.1121 24 41 25.8037 41 28.0204V30.9796C41 33.1967 39.1121 35 36.791 35Z" fill="#00FFF8"/>
<path fill-rule="evenodd" clip-rule="evenodd" d="M8 29.5002C8 28.6714 7.32847 28 6.5 28C5.6711 28 5 28.6714 5 29.5002C5 30.3286 5.6711 31 6.5 31C7.32847 31 8 30.3286 8 29.5002Z" fill="#00FFF8"/>
<path fill-rule="evenodd" clip-rule="evenodd" d="M69 42.5002C69 41.6718 68.3286 41 67.5004 41C66.6717 41 66 41.6718 66 42.5002C66 43.3285 66.6717 44 67.5004 44C68.3286 44 69 43.3285 69 42.5002Z" fill="#00FFF8"/>
<path fill-rule="evenodd" clip-rule="evenodd" d="M48.3074 7.49535H47.7612C47.3405 7.49535 47 7.16048 47 6.74767C47 6.33486 47.3405 6 47.7612 6H48.3074C48.7277 6 49.0687 6.33486 49.0687 6.74767C49.0687 7.16048 48.7277 7.49535 48.3074 7.49535ZM52.1131 7.49535H51.3519C50.9316 7.49535 50.5907 7.16048 50.5907 6.74767C50.5907 6.33486 50.9316 6 51.3519 6H52.1131C52.5334 6 52.8743 6.33486 52.8743 6.74767C52.8743 7.16048 52.5334 7.49535 52.1131 7.49535ZM55.9192 7.49535H55.158C54.7377 7.49535 54.3968 7.16048 54.3968 6.74767C54.3968 6.33486 54.7377 6 55.158 6H55.9192C56.3395 6 56.6805 6.33486 56.6805 6.74767C56.6805 7.16048 56.3395 7.49535 55.9192 7.49535ZM59.7249 7.49535H58.9637C58.5434 7.49535 58.2025 7.16048 58.2025 6.74767C58.2025 6.33486 58.5434 6 58.9637 6H59.7249C60.1452 6 60.4862 6.33486 60.4862 6.74767C60.4862 7.16048 60.1452 7.49535 59.7249 7.49535ZM63.5262 7.57678C63.4783 7.57678 63.4295 7.57199 63.3812 7.56284C63.1746 7.52365 62.9631 7.50144 62.7512 7.49622C62.3309 7.4862 61.9989 7.14307 62.0086 6.73069C62.0193 6.31745 62.3828 5.9939 62.7885 6.00131C63.0842 6.00827 63.3808 6.04006 63.6694 6.09493C64.0826 6.17288 64.3521 6.56522 64.2728 6.97063C64.2027 7.32813 63.8835 7.57678 63.5262 7.57678ZM66.5636 9.64736C66.3082 9.64736 66.0581 9.52108 65.9145 9.29203C65.8037 9.11524 65.6769 8.94585 65.5381 8.78995C65.2619 8.47817 65.2951 8.00614 65.6121 7.73485C65.93 7.46356 66.4106 7.49665 66.6864 7.80757C66.8797 8.02573 67.0561 8.26131 67.2108 8.50778C67.4312 8.85963 67.3199 9.3199 66.9617 9.53632C66.8375 9.61165 66.6992 9.64736 66.5636 9.64736ZM67.2388 13.2616C66.8185 13.2616 66.4775 12.9272 66.4775 12.514V11.7667C66.4775 11.3535 66.8185 11.019 67.2388 11.019C67.6591 11.019 68 11.3535 68 11.7667V12.514C68 12.9272 67.6591 13.2616 67.2388 13.2616ZM67.2388 17C66.8185 17 66.4775 16.6656 66.4775 16.2523V15.5051C66.4775 15.0918 66.8185 14.7574 67.2388 14.7574C67.6591 14.7574 68 15.0918 68 15.5051V16.2523C68 16.6656 67.6591 17 67.2388 17Z" fill="#00FFF8"/>
<path fill-rule="evenodd" clip-rule="evenodd" d="M12.209 3.84978C10.9564 3.84978 9.93708 4.82337 9.93708 6.02022V8.97935C9.93708 10.1762 10.9564 11.1498 12.209 11.1498H44.7906C46.0436 11.1498 47.0629 10.1762 47.0629 8.97935V6.02022C47.0629 4.82337 46.0436 3.84978 44.7906 3.84978H12.209ZM44.7906 13H12.209C9.8879 13 8 11.1959 8 8.97935V6.02022C8 3.80367 9.8879 2 12.209 2H44.7906C47.1116 2 49 3.80367 49 6.02022V8.97935C49 11.1959 47.1116 13 44.7906 13Z" fill="#00FFF8"/>
<path fill-rule="evenodd" clip-rule="evenodd" d="M15 7.50021C15 8.32857 14.3285 9 13.5 9C12.6715 9 12 8.32857 12 7.50021C12 6.67186 12.6715 6 13.5 6C14.3285 6 15 6.67186 15 7.50021Z" fill="#00FFF8"/>
<path fill-rule="evenodd" clip-rule="evenodd" d="M69 17.5002C69 18.3285 68.3286 19 67.5004 19C66.6717 19 66 18.3285 66 17.5002C66 16.6718 66.6717 16 67.5004 16C68.3286 16 69 16.6718 69 17.5002Z" fill="#00FFF8"/>
<path fill-rule="evenodd" clip-rule="evenodd" d="M69 29.4998C69 28.6715 68.3286 28 67.5004 28C66.6717 28 66 28.6715 66 29.4998C66 30.3282 66.6717 31 67.5004 31C68.3286 31 69 30.3282 69 29.4998Z" fill="#00FFF8"/>
<path fill-rule="evenodd" clip-rule="evenodd" d="M41.3816 30H40.7672C40.3436 30 40 29.5521 40 29C40 28.4479 40.3436 28 40.7672 28H41.3816C41.8052 28 42.1488 28.4479 42.1488 29C42.1488 29.5521 41.8052 30 41.3816 30ZM45.2177 30H44.4505C44.0269 30 43.6833 29.5521 43.6833 29C43.6833 28.4479 44.0269 28 44.4505 28H45.2177C45.6413 28 45.9849 28.4479 45.9849 29C45.9849 29.5521 45.6413 30 45.2177 30ZM49.0533 30H48.2861C47.8625 30 47.5189 29.5521 47.5189 29C47.5189 28.4479 47.8625 28 48.2861 28H49.0533C49.4769 28 49.8205 28.4479 49.8205 29C49.8205 29.5521 49.4769 30 49.0533 30ZM52.8894 30H52.1222C51.6986 30 51.355 29.5521 51.355 29C51.355 28.4479 51.6986 28 52.1222 28H52.8894C53.313 28 53.6566 28.4479 53.6566 29C53.6566 29.5521 53.313 30 52.8894 30ZM56.725 30H55.9578C55.5342 30 55.1906 29.5521 55.1906 29C55.1906 28.4479 55.5342 28 55.9578 28H56.725C57.1486 28 57.4922 28.4479 57.4922 29C57.4922 29.5521 57.1486 30 56.725 30ZM60.5611 30H59.7939C59.3703 30 59.0267 29.5521 59.0267 29C59.0267 28.4479 59.3703 28 59.7939 28H60.5611C60.9847 28 61.3283 28.4479 61.3283 29C61.3283 29.5521 60.9847 30 60.5611 30ZM64.3967 30H63.6295C63.2059 30 62.8623 29.5521 62.8623 29C62.8623 28.4479 63.2059 28 63.6295 28H64.3967C64.8203 28 65.1639 28.4479 65.1639 29C65.1639 29.5521 64.8203 30 64.3967 30ZM68.2328 30H67.4656C67.042 30 66.6984 29.5521 66.6984 29C66.6984 28.4479 67.042 28 67.4656 28H68.2328C68.6564 28 69 28.4479 69 29C69 29.5521 68.6564 30 68.2328 30Z" fill="#00FFF8"/>
<path fill-rule="evenodd" clip-rule="evenodd" d="M105.268 61H81.732C78.0197 61 75 57.9397 75 54.1785V6.82153C75 3.05983 78.0197 0 81.732 0H105.268C108.98 0 112 2.85729 112 6.36978V11.7672C112 12.3041 111.57 12.7396 111.04 12.7396C110.51 12.7396 110.08 12.3041 110.08 11.7672V6.36978C110.08 3.9298 107.921 1.94474 105.268 1.94474H81.732C79.0786 1.94474 76.9192 4.13234 76.9192 6.82153V54.1785C76.9192 56.8677 79.0786 59.0548 81.732 59.0548H105.268C107.921 59.0548 110.08 56.8677 110.08 54.1785V43.569C110.08 43.032 110.51 42.5966 111.04 42.5966C111.57 42.5966 112 43.032 112 43.569V54.1785C112 57.9397 108.98 61 105.268 61Z" fill="white"/>
<path fill-rule="evenodd" clip-rule="evenodd" d="M112.017 10H81.9834C81.4402 10 81 9.55229 81 9.00023C81 8.44771 81.4402 8 81.9834 8H112.017C112.56 8 113 8.44771 113 9.00023C113 9.55229 112.56 10 112.017 10Z" fill="white"/>
<path fill-rule="evenodd" clip-rule="evenodd" d="M105.044 52H76.9563C76.428 52 76 51.5523 76 51.0002C76 50.4477 76.428 50 76.9563 50H105.044C105.572 50 106 50.4477 106 51.0002C106 51.5523 105.572 52 105.044 52Z" fill="white"/>
<path fill-rule="evenodd" clip-rule="evenodd" d="M98.6593 15.9512C96.6127 15.9512 94.9477 17.6192 94.9477 19.6695V34.1337C94.9477 36.184 96.6127 37.8521 98.6593 37.8521H100.744C101.281 37.8521 101.717 38.2884 101.717 38.8274V42.6694L106.241 38.1375C106.423 37.9548 106.671 37.8521 106.93 37.8521H121.341C123.387 37.8521 125.052 36.184 125.052 34.1337V19.6695C125.052 17.6192 123.387 15.9512 121.341 15.9512H98.6593ZM100.744 46C100.617 46 100.491 45.9759 100.371 45.9255C100.007 45.7746 99.7695 45.4191 99.7695 45.0246V39.8033H98.6593C95.5389 39.8033 93 37.2598 93 34.1337V19.6695C93 16.5434 95.5389 14 98.6593 14H121.341C124.461 14 127 16.5434 127 19.6695V34.1337C127 37.2598 124.461 39.8033 121.341 39.8033H107.333L101.432 45.7141C101.246 45.9009 100.996 46 100.744 46Z" fill="white"/>
<mask id="mask0" mask-type="alpha" maskUnits="userSpaceOnUse" x="0" y="0" width="128" height="61">
<path fill-rule="evenodd" clip-rule="evenodd" d="M0 61H128V0H0V61Z" fill="white"/>
</mask>
<g mask="url(#mask0)">
<path fill-rule="evenodd" clip-rule="evenodd" d="M105 33H107V24H105V33Z" fill="white"/>
<path fill-rule="evenodd" clip-rule="evenodd" d="M105.158 32.8458H106.842V24.1537H105.158V32.8458ZM105 33H107V24H105V33Z" fill="white"/>
<path fill-rule="evenodd" clip-rule="evenodd" d="M111.432 30.7945C111.711 31.2424 112.234 31.4656 113 31.4656C113.766 31.4656 114.289 31.2424 114.567 30.7945C114.846 30.347 114.985 29.5975 114.985 28.5449C114.985 27.4924 114.844 26.7278 114.56 26.2504C114.276 25.773 113.756 25.5344 113 25.5344C112.243 25.5344 111.724 25.773 111.44 26.2504C111.156 26.7278 111.015 27.4924 111.015 28.5449C111.015 29.5975 111.154 30.347 111.432 30.7945ZM116.099 31.9197C115.498 32.6398 114.465 33 113 33C111.534 33 110.501 32.6398 109.901 31.9197C109.301 31.1996 109 30.0722 109 28.5383C109 27.0044 109.301 25.8647 109.901 25.1186C110.501 24.373 111.534 24 113 24C114.465 24 115.498 24.373 116.099 25.1186C116.699 25.8647 117 27.0044 117 28.5383C117 30.0722 116.699 31.1996 116.099 31.9197Z" fill="white"/>
<path fill-rule="evenodd" clip-rule="evenodd" d="M111.536 30.7201C111.797 31.1389 112.275 31.3425 113 31.3425C113.725 31.3425 114.203 31.1389 114.463 30.7201C114.729 30.2939 114.863 29.5615 114.863 28.5442C114.863 27.5259 114.726 26.7784 114.456 26.3228C114.191 25.8749 113.715 25.6579 113 25.6579C112.285 25.6579 111.809 25.8749 111.544 26.3228C111.274 26.7788 111.137 27.5264 111.137 28.5442C111.137 29.5611 111.271 30.2935 111.536 30.7201ZM113 31.491C112.222 31.491 111.681 31.2559 111.393 30.7929C111.114 30.3437 110.973 29.5871 110.973 28.5442C110.973 27.5017 111.116 26.7308 111.399 26.2526C111.691 25.7593 112.23 25.509 113 25.509C113.77 25.509 114.309 25.7593 114.6 26.2526C114.884 26.7303 115.027 27.5013 115.027 28.5442C115.027 29.5875 114.885 30.3442 114.606 30.7929C114.319 31.2559 113.779 31.491 113 31.491ZM113 24.149C111.599 24.149 110.6 24.5089 110.03 25.2183C109.456 25.9351 109.165 27.0521 109.165 28.5377C109.165 30.0232 109.456 31.1264 110.03 31.818C110.599 32.5037 111.598 32.851 113 32.851C114.402 32.851 115.401 32.5037 115.97 31.818C116.544 31.1268 116.835 30.0232 116.835 28.5377C116.835 27.0517 116.544 25.9351 115.969 25.2183C115.4 24.5089 114.401 24.149 113 24.149ZM113 33C111.544 33 110.5 32.6323 109.898 31.9077C109.302 31.1896 109 30.0562 109 28.5377C109 27.0201 109.302 25.8741 109.898 25.1313C110.499 24.3807 111.543 24 113 24C114.457 24 115.5 24.3807 116.102 25.1313C116.698 25.8741 117 27.0201 117 28.5377C117 30.0562 116.698 31.19 116.101 31.9077C115.5 32.6323 114.457 33 113 33Z" fill="white"/>
</g>
</svg>
