<svg width="123" height="73" viewBox="0 0 123 73" fill="none" xmlns="http://www.w3.org/2000/svg">
<path fill-rule="evenodd" clip-rule="evenodd" d="M80 62C79.4473 62 79 61.5819 79 61.0664V24.9341C79 24.4181 79.4473 24 80 24C80.5527 24 81 24.4181 81 24.9341V61.0664C81 61.5819 80.5527 62 80 62Z" fill="white"/>
<path fill-rule="evenodd" clip-rule="evenodd" d="M4.93079 62C4.41638 62 4 61.5831 4 61.0691V15.2693C4 11.2609 7.26036 8 11.2676 8H52.0692C52.5832 8 53 8.41689 53 8.93094C53 9.445 52.5832 9.86189 52.0692 9.86189H11.2676C8.28657 9.86189 5.86158 12.2877 5.86158 15.2693V61.0691C5.86158 61.5831 5.44519 62 4.93079 62Z" fill="white"/>
<path fill-rule="evenodd" clip-rule="evenodd" d="M73.0663 56H11.9337C11.4181 56 11 55.5812 11 55.0648V16.9352C11 16.4188 11.4181 16 11.9337 16H52.0735C52.5891 16 53.0073 16.4188 53.0073 16.9352C53.0073 17.452 52.5891 17.8708 52.0735 17.8708H12.8679V54.1292H72.1325V25.388C72.1325 24.8711 72.5502 24.4523 73.0663 24.4523C73.5823 24.4523 74 24.8711 74 25.388V55.0648C74 55.5812 73.5823 56 73.0663 56Z" fill="white"/>
<mask id="mask0" mask-type="alpha" maskUnits="userSpaceOnUse" x="0" y="61" width="85" height="12">
<path fill-rule="evenodd" clip-rule="evenodd" d="M0 61.0088H84.7235V73H0V61.0088Z" fill="white"/>
</mask>
<g mask="url(#mask0)">
<path fill-rule="evenodd" clip-rule="evenodd" d="M1.88095 62.8486V65.8182C1.88095 68.7638 4.33062 71.1604 7.34198 71.1604H77.3815C80.3929 71.1604 82.8426 68.7638 82.8426 65.8182V62.8486H52.0371V64.1039C52.0371 65.5135 50.8642 66.6608 49.4231 66.6608H35.3004C33.8589 66.6608 32.6864 65.5135 32.6864 64.1039V62.8486H1.88095ZM77.3815 73.0002H7.34198C3.29397 73.0002 0 69.7782 0 65.8182V61.9289C0 61.4206 0.421057 61.0088 0.940696 61.0088H33.7336C34.0407 61.0088 34.3286 61.1558 34.5043 61.4018C34.68 61.6478 34.7221 61.9628 34.6169 62.2448C34.5836 62.3344 34.5674 62.4128 34.5674 62.4856V64.1039C34.5674 64.4995 34.8964 64.8209 35.3004 64.8209H49.4231C49.8275 64.8209 50.1561 64.4995 50.1561 64.1039V62.4856C50.1561 62.4124 50.1404 62.3344 50.1071 62.2469C50.0006 61.9645 50.0422 61.6491 50.2179 61.4026C50.394 61.1562 50.6819 61.0088 50.9895 61.0088H83.7833C84.3025 61.0088 84.7235 61.4206 84.7235 61.9289V65.8182C84.7235 69.7782 81.43 73.0002 77.3815 73.0002Z" fill="white"/>
</g>
<path fill-rule="evenodd" clip-rule="evenodd" d="M35.0347 37H15.9653C15.4323 37 15 36.5523 15 36.0002C15 35.4477 15.4323 35 15.9653 35H35.0347C35.5682 35 36 35.4477 36 36.0002C36 36.5523 35.5682 37 35.0347 37Z" fill="white"/>
<path fill-rule="evenodd" clip-rule="evenodd" d="M40.0738 43H16.9262C16.4148 43 16 42.5523 16 42.0002C16 41.4477 16.4148 41 16.9262 41H40.0738C40.5857 41 41 41.4477 41 42.0002C41 42.5523 40.5857 43 40.0738 43Z" fill="white"/>
<path fill-rule="evenodd" clip-rule="evenodd" d="M24.1725 49H20.8275C20.3706 49 20 48.5523 20 48.0002C20 47.4477 20.3706 47 20.8275 47H24.1725C24.6298 47 25 47.4477 25 48.0002C25 48.5523 24.6298 49 24.1725 49Z" fill="white"/>
<path fill-rule="evenodd" clip-rule="evenodd" d="M42.0918 49H28.9086C28.4067 49 28 48.5523 28 48.0002C28 47.4477 28.4067 47 28.9086 47H42.0918C42.5937 47 43 47.4477 43 48.0002C43 48.5523 42.5937 49 42.0918 49Z" fill="white"/>
<path fill-rule="evenodd" clip-rule="evenodd" d="M53.0248 43H43.9757C43.4367 43 43 42.5523 43 42.0002C43 41.4477 43.4367 41 43.9757 41H53.0248C53.5637 41 54 41.4477 54 42.0002C54 42.5523 53.5637 43 53.0248 43Z" fill="white"/>
<path fill-rule="evenodd" clip-rule="evenodd" d="M58.1054 43H55.8946C55.4006 43 55 42.5523 55 42.0002C55 41.4477 55.4006 41 55.8946 41H58.1054C58.5998 41 59 41.4477 59 42.0002C59 42.5523 58.5998 43 58.1054 43Z" fill="white"/>
<path fill-rule="evenodd" clip-rule="evenodd" d="M44.0805 37H38.9195C38.4117 37 38 36.5523 38 36.0002C38 35.4477 38.4117 35 38.9195 35H44.0805C44.5887 35 45 35.4477 45 36.0002C45 36.5523 44.5887 37 44.0805 37Z" fill="white"/>
<path fill-rule="evenodd" clip-rule="evenodd" d="M47.1583 37H46.8417C46.3769 37 46 36.5523 46 36.0002C46 35.4477 46.3769 35 46.8417 35H47.1583C47.6235 35 48 35.4477 48 36.0002C48 36.5523 47.6235 37 47.1583 37Z" fill="white"/>
<path fill-rule="evenodd" clip-rule="evenodd" d="M17.1583 49H16.8417C16.3769 49 16 48.5523 16 48.0002C16 47.4477 16.3769 47 16.8417 47H17.1583C17.6235 47 18 47.4477 18 48.0002C18 48.5523 17.6235 49 17.1583 49Z" fill="white"/>
<path fill-rule="evenodd" clip-rule="evenodd" d="M18.1556 30C17.9187 30 17.6837 29.8875 17.5167 29.6679L15.2061 26.6295C14.9313 26.2682 14.9313 25.7317 15.2061 25.37L17.5167 22.332C17.8218 21.9313 18.3556 21.8865 18.7083 22.2348C19.061 22.5821 19.0992 23.1899 18.7937 23.5915L16.9621 25.9997L18.7937 28.408C19.0992 28.81 19.061 29.4173 18.7083 29.7651C18.5485 29.9225 18.3517 30 18.1556 30Z" fill="white"/>
<path fill-rule="evenodd" clip-rule="evenodd" d="M30.8444 30C30.6483 30 30.4515 29.9225 30.2917 29.7651C29.939 29.4173 29.9008 28.81 30.2063 28.408L32.0379 25.9999L30.2063 23.5917C29.9008 23.1901 29.939 22.5824 30.2917 22.235C30.6448 21.8868 31.1786 21.9307 31.4833 22.3323L33.7939 25.3702C34.0687 25.7319 34.0687 26.2683 33.7939 26.6296L31.4833 29.6679C31.3163 29.8871 31.0813 30 30.8444 30Z" fill="white"/>
<path fill-rule="evenodd" clip-rule="evenodd" d="M22.8132 30C22.6778 30 22.5402 29.9596 22.4139 29.8756C22.0225 29.6139 21.8844 29.0261 22.1051 28.5628L25.4769 21.4906C25.6976 21.0268 26.1952 20.8629 26.5858 21.1247C26.9772 21.3864 27.1157 21.9742 26.8949 22.4375L23.5229 29.5097C23.3734 29.8235 23.0973 30 22.8132 30Z" fill="white"/>
<mask id="mask1" mask-type="alpha" maskUnits="userSpaceOnUse" x="56" y="0" width="67" height="27">
<path fill-rule="evenodd" clip-rule="evenodd" d="M56.3244 0.269531H122.63V26.8162H56.3244V0.269531Z" fill="white"/>
</mask>
<g mask="url(#mask1)">
<path fill-rule="evenodd" clip-rule="evenodd" d="M62.0438 2.13863C59.9198 2.13863 58.1921 3.86837 58.1921 5.99397V14.7677C58.1921 16.8937 59.9198 18.623 62.0438 18.623H64.1725C64.6881 18.623 65.1062 19.0411 65.1062 19.5575V23.625L69.8297 18.8965C70.005 18.7214 70.2426 18.623 70.4901 18.623H116.911C119.035 18.623 120.763 16.8937 120.763 14.7677V5.99397C120.763 3.86837 119.035 2.13863 116.911 2.13863H62.0438ZM64.1725 26.8162C64.0516 26.8162 63.9306 26.7927 63.8149 26.7448C63.4664 26.6002 63.2385 26.2596 63.2385 25.8816V20.4925H62.0438C58.8904 20.4925 56.3244 17.924 56.3244 14.7677V5.99397C56.3244 2.83758 58.8904 0.269531 62.0438 0.269531H116.911C120.064 0.269531 122.63 2.83758 122.63 5.99397V14.7677C122.63 17.924 120.064 20.4925 116.911 20.4925H70.8769L64.8325 26.5423C64.6542 26.7208 64.4149 26.8162 64.1725 26.8162Z" fill="#00FFF8"/>
</g>
<path fill-rule="evenodd" clip-rule="evenodd" d="M68.7466 7.34121L68.0175 11.1415H69.9825L69.2538 7.34121H68.7466ZM66 14L67.616 6H70.384L72 14H70.5422L70.2571 12.5529H67.7429L67.4574 14H66Z" fill="#00FFF8"/>
<path fill-rule="evenodd" clip-rule="evenodd" d="M74.4025 10.2822H75.5303C76.2283 10.2822 76.5773 9.78044 76.5773 8.77656C76.5773 8.2825 76.4925 7.92715 76.3232 7.71142C76.154 7.49569 75.8894 7.38805 75.5303 7.38805H74.4025V10.2822ZM75.5408 11.6707H74.4025V14H73V6H75.5408C77.1803 6 78 6.92552 78 8.77656C78 9.70973 77.7919 10.4254 77.3752 10.9235C76.9581 11.4216 76.3469 11.6707 75.5408 11.6707Z" fill="#00FFF8"/>
<mask id="mask2" mask-type="alpha" maskUnits="userSpaceOnUse" x="0" y="1" width="123" height="72">
<path fill-rule="evenodd" clip-rule="evenodd" d="M0 73H123V1H0V73Z" fill="white"/>
</mask>
<g mask="url(#mask2)">
<path fill-rule="evenodd" clip-rule="evenodd" d="M80 14H82V6H80V14Z" fill="#00FFF8"/>
<path fill-rule="evenodd" clip-rule="evenodd" d="M89.1107 9L90.0256 10.8382L90.9616 9H92L90.5774 11.5515L92 14H90.8893L89.9748 12.2723L89.038 14H88L89.423 11.6029L88 9H89.1107Z" fill="#00FFF8"/>
<path fill-rule="evenodd" clip-rule="evenodd" d="M93.1107 9L94.0256 10.8382L94.9616 9H96L94.5774 11.5515L96 14H94.8893L93.9748 12.2723L93.038 14H92L93.423 11.6029L92 9H93.1107Z" fill="#00FFF8"/>
<path fill-rule="evenodd" clip-rule="evenodd" d="M98.1107 9L99.0256 10.8382L99.9616 9H101L99.5774 11.5515L101 14H99.8893L98.9748 12.2723L98.038 14H97L98.423 11.6029L97 9H98.1107Z" fill="#00FFF8"/>
<path fill-rule="evenodd" clip-rule="evenodd" d="M104.111 9L105.026 10.8382L105.962 9H107L105.577 11.5515L107 14H105.889L104.975 12.2723L104.038 14H103L104.423 11.6029L103 9H104.111Z" fill="#00FFF8"/>
<path fill-rule="evenodd" clip-rule="evenodd" d="M109.111 9L110.026 10.8382L110.962 9H112L110.577 11.5515L112 14H110.889L109.975 12.2723L109.038 14H108L109.423 11.6029L108 9H109.111Z" fill="#00FFF8"/>
</g>
</svg>
