<svg width="90" height="76" viewBox="0 0 90 76" fill="none" xmlns="http://www.w3.org/2000/svg">
<mask id="mask0" mask-type="alpha" maskUnits="userSpaceOnUse" x="54" y="0" width="35" height="33">
<path fill-rule="evenodd" clip-rule="evenodd" d="M54.2981 0.428711H88.5273V32.7946H54.2981V0.428711Z" fill="white"/>
</mask>
<g mask="url(#mask0)">
<path fill-rule="evenodd" clip-rule="evenodd" d="M59.9498 2.2716C57.8433 2.2716 56.1291 3.99728 56.1291 6.11798V20.8109C56.1291 22.9316 57.8433 24.6568 59.9498 24.6568H62.0563C62.5622 24.6568 62.972 25.0695 62.972 25.5783V29.6483L67.662 24.9269C67.8334 24.7539 68.0663 24.6568 68.3094 24.6568H82.876C84.9826 24.6568 86.6963 22.9316 86.6963 20.8109V6.11798C86.6963 3.99728 84.9826 2.2716 82.876 2.2716H59.9498ZM62.0563 32.7948C61.9382 32.7948 61.8196 32.7716 61.7062 32.7244C61.3641 32.5819 61.141 32.2461 61.141 31.873V26.5001H59.9498C56.8333 26.5001 54.2981 23.9475 54.2981 20.8109V6.11798C54.2981 2.98094 56.8333 0.428711 59.9498 0.428711H82.876C85.9921 0.428711 88.5273 2.98094 88.5273 6.11798V20.8109C88.5273 23.9475 85.9921 26.5001 82.876 26.5001H68.6882L62.7038 32.5248C62.5289 32.7008 62.2943 32.7948 62.0563 32.7948Z" fill="white"/>
</g>
<path fill-rule="evenodd" clip-rule="evenodd" d="M54.0407 75.5797H9.79572C9.28988 75.5797 8.88 75.1671 8.88 74.6583V16.6123C8.88 16.1031 9.28988 15.6904 9.79572 15.6904H39.3858C39.6297 15.6904 39.8643 15.7892 40.0358 15.9635L54.6907 30.8587C54.8609 31.0313 54.956 31.2644 54.956 31.507V35.505C54.956 36.0142 54.5465 36.4264 54.0407 36.4264C53.5349 36.4264 53.1254 36.0142 53.1254 35.505V31.8862L39.004 17.5338H10.711V73.7364H53.1254V59.825C53.1254 59.3157 53.5349 58.9031 54.0407 58.9031C54.5465 58.9031 54.956 59.3157 54.956 59.825V74.6583C54.956 75.1671 54.5465 75.5797 54.0407 75.5797Z" fill="white"/>
<path fill-rule="evenodd" clip-rule="evenodd" d="M6.21652 66.7053H0.915415C0.409999 66.7053 0.00012207 66.2926 0.00012207 65.7838V7.73785C0.00012207 7.22904 0.409999 6.81641 0.915415 6.81641H45.1608C45.6662 6.81641 46.0761 7.22904 46.0761 7.73785V17.69C46.0761 18.1988 45.6662 18.6114 45.1608 18.6114C44.655 18.6114 44.2451 18.1988 44.2451 17.69V8.6593H1.83113V64.8619H6.21652C6.72236 64.8619 7.13181 65.2746 7.13181 65.7838C7.13181 66.2926 6.72236 66.7053 6.21652 66.7053Z" fill="white"/>
<path fill-rule="evenodd" clip-rule="evenodd" d="M54.0407 32.6603H39.0147C38.5089 32.6603 38.099 32.2477 38.099 31.7389V16.6119C38.099 16.1026 38.5089 15.6904 39.0147 15.6904C39.5201 15.6904 39.93 16.1026 39.93 16.6119V30.817H54.0407C54.5465 30.817 54.956 31.2296 54.956 31.7389C54.956 32.2477 54.5465 32.6603 54.0407 32.6603Z" fill="white"/>
<path fill-rule="evenodd" clip-rule="evenodd" d="M29.737 33.6255H18.0715C17.5661 33.6255 17.1562 33.2129 17.1562 32.7041C17.1562 32.1949 17.5661 31.7822 18.0715 31.7822H29.737C30.2429 31.7822 30.6523 32.1949 30.6523 32.7041C30.6523 33.2129 30.2429 33.6255 29.737 33.6255Z" fill="white"/>
<path fill-rule="evenodd" clip-rule="evenodd" d="M40.9847 41.1578H18.0717C17.5662 41.1578 17.1564 40.7451 17.1564 40.2363C17.1564 39.7271 17.5662 39.3145 18.0717 39.3145H40.9847C41.4905 39.3145 41.9 39.7271 41.9 40.2363C41.9 40.7451 41.4905 41.1578 40.9847 41.1578Z" fill="white"/>
<path fill-rule="evenodd" clip-rule="evenodd" d="M41.5766 48.69H18.072C17.5661 48.69 17.1562 48.2774 17.1562 47.7686C17.1562 47.2593 17.5661 46.8467 18.072 46.8467H41.5766C42.0824 46.8467 42.4919 47.2593 42.4919 47.7686C42.4919 48.2774 42.0824 48.69 41.5766 48.69Z" fill="white"/>
<path fill-rule="evenodd" clip-rule="evenodd" d="M34.4728 56.2222H18.0717C17.5659 56.2222 17.156 55.8096 17.156 55.3008C17.156 54.7915 17.5659 54.3789 18.0717 54.3789H34.4728C34.9786 54.3789 35.3881 54.7915 35.3881 55.3008C35.3881 55.8096 34.9786 56.2222 34.4728 56.2222Z" fill="white"/>
<path fill-rule="evenodd" clip-rule="evenodd" d="M57.6819 43.9351L54.814 42.2661L56.4718 39.3794L59.3397 41.048L57.6819 43.9351ZM50.2226 56.944L47.3547 55.275L53.9853 43.7101L56.8531 45.3787L50.2226 56.944ZM44.6443 63.3353C44.2941 63.0893 44.1866 62.6169 44.396 62.2421L44.8102 61.516L46.2522 62.3507L45.8376 63.0682C45.7216 63.2709 45.5267 63.4152 45.2998 63.4663C45.0725 63.5165 44.8349 63.4693 44.6443 63.3353ZM47.1308 60.9239L46.7163 60.6817L45.4896 59.9638L46.6668 56.7933L49.2775 58.3116L47.1308 60.9239ZM58.4278 37.6271C58.5374 37.4339 58.7196 37.2922 58.9337 37.2351C59.1465 37.1818 59.3717 37.2119 59.5632 37.3188C59.7555 37.4292 59.8954 37.6121 59.953 37.8272C60.0055 38.0415 59.9761 38.2686 59.8703 38.4614L59.4557 39.1875L58.0132 38.3532L58.4278 37.6271ZM61.5524 37.3935C61.3814 36.7525 60.9634 36.2063 60.3919 35.8753C59.8204 35.5421 59.1405 35.4523 58.5025 35.6249C57.8657 35.7975 57.3227 36.217 56.9939 36.7924L56.5793 37.5189C56.1856 37.2909 55.6828 37.4249 55.452 37.8195L53.3472 41.4318L52.626 41.0145C52.4349 40.9033 52.2072 40.8732 51.9943 40.9312C51.7811 40.9896 51.5998 41.1304 51.4902 41.3236C51.2654 41.7225 51.4023 42.2292 51.7969 42.4585L52.5185 42.8754L45.473 55.1659L43.7324 59.8479L42.9037 61.4074C42.4183 62.2576 42.4703 63.3138 43.0363 64.1112L41.1716 66.4139L40.6491 65.0957C40.4141 64.5084 39.8686 64.106 39.2421 64.0567C38.6147 64.0068 38.0137 64.319 37.6904 64.8622L37.3923 65.371L37.1104 62.033C37.0455 61.2438 36.4378 60.6092 35.6568 60.5134C34.8755 60.419 34.1359 60.89 33.8859 61.6414L31.8472 67.7991C31.7048 68.2349 31.9381 68.7042 32.3693 68.8507C32.4503 68.8884 32.5373 68.9116 32.6265 68.9172C32.9826 68.9185 33.2995 68.6896 33.4138 68.35L35.444 62.1923L35.7344 65.5797C35.7946 66.3023 36.3102 66.903 37.0118 67.067C37.7139 67.231 38.4398 66.9193 38.8092 66.2976L39.1163 65.7883L39.6302 67.0984C39.8481 67.6501 40.3416 68.0443 40.9255 68.1323C41.5094 68.2199 42.0954 67.988 42.4644 67.5239L44.396 65.0627C44.6097 65.1189 44.8294 65.1468 45.0507 65.146C45.9391 65.1529 46.7636 64.6818 47.2136 63.9107L48.0423 62.5173L51.2006 58.6542L58.3199 46.2134L59.0416 46.6299C59.2335 46.7411 59.3734 46.924 59.4305 47.1396C59.4877 47.3534 59.4578 47.5814 59.3478 47.7733L56.0325 53.5558C55.9076 53.746 55.8649 53.9791 55.9152 54.2016C55.9656 54.4235 56.1033 54.6155 56.2978 54.7323C56.4889 54.8439 56.7162 54.8744 56.9291 54.8164C57.1423 54.758 57.3236 54.6172 57.4332 54.424L60.7485 48.6415C61.0794 48.0657 61.169 47.3809 60.9971 46.739C60.8257 46.0979 60.4085 45.5517 59.837 45.2202L59.1154 44.8029L61.1878 41.1897C61.4138 40.7938 61.2808 40.2875 60.8896 40.0553L61.3038 39.3292C61.6433 38.7444 61.7333 38.0462 61.5524 37.3935Z" fill="#00FFF8"/>
<path fill-rule="evenodd" clip-rule="evenodd" d="M58.3516 38.2617L59.3645 38.8473L59.6554 38.3377C59.7292 38.2024 59.7501 38.0414 59.7126 37.8872C59.6733 37.74 59.5761 37.6133 59.4409 37.536C59.3057 37.4609 59.1462 37.4403 58.9926 37.4772C58.8484 37.5163 58.7192 37.6163 58.6429 37.7511V37.7516L58.3516 38.2617ZM59.5471 39.5283L57.6751 38.4454L58.2129 37.5034C58.3545 37.2535 58.5938 37.0684 58.8698 36.9941C59.1491 36.925 59.4366 36.9628 59.6831 37.1011C59.9335 37.2445 60.1182 37.4849 60.192 37.7627C60.2615 38.0444 60.2235 38.3334 60.087 38.582L59.5471 39.5283ZM55.1527 42.1754L57.5915 43.5945L59.0007 41.1394L56.5623 39.7203L55.1527 42.1754ZM57.7724 44.2764L54.4754 42.3575L56.3815 39.0388L59.678 40.9573L57.7724 44.2764ZM47.6931 55.1843L50.1318 56.6034L56.5146 45.4701L54.0762 44.051L47.6931 55.1843ZM50.3131 57.2853L47.0166 55.3664L53.8945 43.3695L57.191 45.288L50.3131 57.2853ZM45.7951 59.8542L47.0738 60.6027L48.8997 58.3802L46.7961 57.1573L45.7951 59.8542ZM47.1876 61.2459L45.1843 60.0741L46.5372 56.43L49.655 58.2436L47.1876 61.2459ZM44.9015 61.8569L44.6107 62.3665C44.4644 62.6285 44.5394 62.9582 44.7855 63.1308H44.786C44.9195 63.2253 45.0875 63.2584 45.2462 63.2232C45.4044 63.1875 45.5422 63.0853 45.6232 62.9436L45.9128 62.4421L44.9015 61.8569ZM45.1212 63.7354C44.9015 63.7354 44.6844 63.668 44.5023 63.54C44.046 63.2193 43.9073 62.6091 44.1795 62.1201L44.719 61.1759L46.5918 62.2596L46.0518 63.1935C45.9021 63.4554 45.6475 63.6439 45.3536 63.7101C45.2769 63.7272 45.1988 63.7354 45.1212 63.7354ZM35.4599 60.7512C34.8619 60.7512 34.3147 61.1385 34.1206 61.7212L32.0819 67.8785C31.9829 68.1816 32.1476 68.5122 32.4487 68.6149C32.528 68.6501 32.5843 68.6651 32.6415 68.6681H32.6423C32.8773 68.6681 33.0987 68.5088 33.1789 68.2705L35.5878 60.9655L35.9815 65.5585C36.0327 66.1764 36.469 66.6844 37.0678 66.8244C37.6696 66.9639 38.2804 66.7007 38.5969 66.17L39.1633 65.2296L39.8606 67.0073C40.0453 67.4744 40.4675 67.8115 40.9623 67.8858C41.46 67.9592 41.9582 67.7613 42.2712 67.3679L44.3019 64.7805L44.4584 64.8217C44.6516 64.8728 44.8504 64.887 45.05 64.8969C45.8625 64.887 46.5961 64.4769 47 63.7848L47.83 62.3893L51.0092 58.4961L58.2287 45.8737L59.1645 46.4138C59.4157 46.5594 59.5953 46.7943 59.6699 47.0755C59.7437 47.3503 59.7045 47.6505 59.5624 47.8982L56.2467 53.6806C56.1516 53.8266 56.1218 53.9915 56.1567 54.1465C56.1921 54.3015 56.2894 54.4372 56.4246 54.5184C56.5555 54.5948 56.7172 54.6158 56.8647 54.5759C57.0149 54.5347 57.1407 54.4368 57.2179 54.3007L60.534 48.5174C60.83 48.0025 60.9115 47.3778 60.7584 46.8046C60.6023 46.2228 60.2312 45.7371 59.713 45.4366L58.7768 44.8951L60.9729 41.0655C61.1307 40.7894 61.0369 40.4326 60.7635 40.2703L60.5524 40.1453L61.0889 39.2054C61.3939 38.6803 61.4753 38.0444 61.3137 37.4609L61.3133 37.4583C61.1601 36.8859 60.7793 36.3879 60.2683 36.0912C59.7497 35.7897 59.147 35.7107 58.5665 35.8657C57.9886 36.0225 57.5066 36.396 57.2081 36.9173L56.6707 37.8593L56.4561 37.7352C56.1802 37.5764 55.8266 37.6708 55.6658 37.9461L53.4369 41.7714L52.5024 41.2312C52.3689 41.1535 52.2077 41.1321 52.0588 41.172C51.9087 41.2132 51.7829 41.3115 51.7057 41.4476C51.5487 41.7255 51.6447 42.0823 51.9206 42.2424L52.8568 42.7839L45.6876 55.2908L43.9645 59.9354L43.1217 61.5258C42.6828 62.2953 42.7297 63.2506 43.2377 63.9664L43.3478 64.1218L41.0975 66.8999L40.4193 65.1884C40.218 64.6865 39.7591 64.3477 39.2225 64.3056C38.6804 64.2635 38.1793 64.5255 37.9029 64.9909L37.2111 66.1708L36.8631 62.0544C36.8085 61.3858 36.2886 60.8427 35.6271 60.7611C35.5712 60.7547 35.5153 60.7512 35.4599 60.7512ZM32.6291 69.167H32.6257C32.4922 69.1589 32.3762 69.1293 32.2653 69.0777C31.7317 68.8978 31.4276 68.2847 31.6119 67.7213L33.651 61.5632C33.9368 60.7031 34.7902 60.1621 35.6863 60.266C36.5807 60.3759 37.2836 61.1102 37.357 62.0127L37.5745 64.5877C37.9631 64.0506 38.5875 63.7539 39.2614 63.8084C39.9864 63.8651 40.607 64.3228 40.8791 65.0029L41.2459 65.9282L42.7293 64.0961C42.2094 63.2433 42.1885 62.1592 42.6884 61.2836L43.5141 59.7302L45.241 55.0791L52.1795 42.9676L51.6737 42.6748C51.1627 42.3781 50.984 41.7169 51.2749 41.2008C51.4182 40.9479 51.6506 40.7671 51.9292 40.6907C52.2043 40.6159 52.5041 40.6559 52.7498 40.7989L53.2577 41.093L55.2385 37.6936C55.4935 37.2573 56.0079 37.0658 56.4736 37.2037L56.7786 36.6687C57.1433 36.0319 57.7323 35.5755 58.4377 35.3844C59.1466 35.1916 59.8836 35.2908 60.5161 35.6592C61.1392 36.0207 61.6041 36.6287 61.7914 37.3273C61.9884 38.0405 61.8886 38.816 61.518 39.4553L61.2122 39.9903C61.5611 40.3278 61.6528 40.8757 61.4024 41.3141L59.4541 44.7114L59.9599 45.0042C60.5933 45.3713 61.0463 45.9643 61.2365 46.6745C61.4237 47.3756 61.3243 48.1382 60.9631 48.7668L57.6478 54.5488C57.5054 54.8005 57.2729 54.9808 56.994 55.0572C56.7189 55.1319 56.4199 55.092 56.1738 54.9486C55.9196 54.7962 55.7383 54.5446 55.6739 54.2573C55.6087 53.97 55.6641 53.6643 55.8258 53.4187L59.1334 47.6492C59.2101 47.5152 59.2315 47.3533 59.1914 47.2048C59.1508 47.0523 59.0536 46.9252 58.918 46.8467L58.4113 46.5538L51.4148 58.7791L48.2334 62.6761L47.4261 64.0394C46.9373 64.8767 46.0352 65.3958 45.0687 65.3958H45.0384C44.8563 65.3958 44.6734 65.3773 44.4934 65.3413L42.6589 67.6788C42.2354 68.2112 41.5551 68.4818 40.8889 68.3791C40.2206 68.2787 39.6499 67.8235 39.3995 67.191L39.069 66.3473L39.0212 66.4272C38.5951 67.1447 37.7626 67.4998 36.9561 67.31C36.1465 67.1215 35.5567 66.434 35.4876 65.6011L35.3003 63.4194L33.6485 68.4289C33.5 68.8712 33.0906 69.167 32.6291 69.167Z" fill="#00FFF8"/>
<path fill-rule="evenodd" clip-rule="evenodd" d="M74.1313 10.7045L71.1973 13.65L69.4401 11.881C69.1168 11.5576 68.5952 11.5576 68.2714 11.881C68.1145 12.0377 68.0266 12.2511 68.0266 12.4735C68.0266 12.6959 68.1145 12.9093 68.2714 13.066L70.0287 14.8351C70.3392 15.1451 70.7597 15.3194 71.1973 15.319C71.6379 15.3211 72.0614 15.1472 72.3745 14.8351L75.2999 11.881C75.5814 11.5499 75.5622 11.0566 75.2568 10.7487C74.9502 10.44 74.4601 10.4211 74.1313 10.7045Z" fill="#00FFF8"/>
<path fill-rule="evenodd" clip-rule="evenodd" d="M71.1969 15.0697H71.205C71.5761 15.0697 71.9378 14.9198 72.2001 14.6583L75.1247 11.7055C75.3081 11.4886 75.2944 11.14 75.0812 10.9253C74.87 10.7123 74.5284 10.6969 74.2989 10.8888L71.1969 14.0031L69.2648 12.0576C69.0396 11.8321 68.6724 11.833 68.4459 12.0584C68.335 12.1692 68.274 12.3165 68.274 12.4741C68.274 12.6291 68.3367 12.7802 68.4455 12.8888L70.204 14.6587C70.4689 14.9237 70.8212 15.0697 71.1956 15.0697H71.1969ZM71.2063 15.5686H71.1939C70.6898 15.5686 70.2134 15.3711 69.8543 15.0121L68.0958 13.2426C67.8949 13.0417 67.7784 12.7613 67.7784 12.4741C67.7784 12.1825 67.8919 11.9094 68.0966 11.7046C68.5163 11.2855 69.197 11.2864 69.6146 11.7046L71.1978 13.298L73.9701 10.5152C74.3945 10.1498 75.0364 10.1747 75.4318 10.5723C75.8263 10.9704 75.8514 11.6166 75.4885 12.0434L72.5498 15.0113C72.1945 15.3659 71.7058 15.5686 71.2063 15.5686Z" fill="#00FFF8"/>
<path fill-rule="evenodd" clip-rule="evenodd" d="M64.3678 12.9497C64.3678 16.8673 67.5223 20.0421 71.4129 20.0421C75.304 20.0421 78.458 16.8673 78.458 12.9497C78.458 12.4889 78.087 12.1154 77.6293 12.1154C77.1717 12.1154 76.8002 12.4889 76.8002 12.9497C76.8002 15.945 74.3882 18.3731 71.4129 18.3731C68.4376 18.3731 66.0256 15.945 66.0256 12.9497C66.0256 9.95431 68.4376 7.52618 71.4129 7.52618C72.5794 7.52274 73.7144 7.9036 74.6454 8.61122C75.0114 8.88773 75.5313 8.81259 75.8051 8.44376C76.0802 8.07492 76.006 7.55237 75.6401 7.27585C73.5054 5.66396 70.649 5.40505 68.2623 6.60602C65.8751 7.80742 64.3678 10.2635 64.3678 12.9497Z" fill="#00FFF8"/>
<path fill-rule="evenodd" clip-rule="evenodd" d="M71.4197 6.09971C70.3842 6.09971 69.343 6.34016 68.3727 6.82836C66.0551 7.99456 64.6156 10.3398 64.6156 12.9487C64.6156 16.7221 67.6647 19.7917 71.4125 19.7917C75.1607 19.7917 78.2102 16.7221 78.2102 12.9487C78.2102 12.6263 77.9496 12.3639 77.6293 12.3639C77.309 12.3639 77.048 12.6263 77.048 12.9487C77.048 16.0772 74.52 18.6221 71.4125 18.6221C68.3053 18.6221 65.7774 16.0772 65.7774 12.9487C65.7774 9.8207 68.3053 7.27578 71.4125 7.27578C72.6468 7.27234 73.827 7.67553 74.7943 8.41105C74.9175 8.50423 75.0673 8.5433 75.2251 8.52183C75.3782 8.49951 75.5142 8.41835 75.6068 8.2934C75.7002 8.16845 75.7394 8.01431 75.7177 7.85973C75.6955 7.70515 75.6153 7.56818 75.4912 7.47458C74.2859 6.5643 72.8588 6.09971 71.4197 6.09971ZM71.4125 20.2907C67.3918 20.2907 64.12 16.9969 64.12 12.9487C64.12 10.15 65.6648 7.63345 68.1514 6.38224C70.6384 5.1306 73.5638 5.39682 75.7885 7.07526C76.0184 7.24915 76.1677 7.50292 76.2082 7.78931C76.2487 8.07571 76.1758 8.36125 76.0034 8.59268C75.8316 8.82412 75.5799 8.9744 75.295 9.01562C75.0114 9.05684 74.7269 8.98341 74.4966 8.80995C73.6175 8.14183 72.5287 7.77428 71.4278 7.77428C71.4227 7.77428 71.418 7.77428 71.4133 7.77471C68.5787 7.77471 66.2734 10.0959 66.2734 12.9487C66.2734 15.8019 68.5787 18.1227 71.4125 18.1227C74.2466 18.1227 76.5524 15.8019 76.5524 12.9487C76.5524 12.3515 77.0356 11.865 77.6293 11.865C78.2226 11.865 78.7058 12.3515 78.7058 12.9487C78.7058 16.9969 75.4341 20.2907 71.4125 20.2907Z" fill="#00FFF8"/>
</svg>
