<svg width="70" height="76" viewBox="0 0 70 76" fill="none" xmlns="http://www.w3.org/2000/svg">
<path fill-rule="evenodd" clip-rule="evenodd" d="M41.8193 1.88257C39.7959 1.88257 38.1495 3.53311 38.1495 5.56175V19.8008C38.1495 21.8294 39.7959 23.4795 41.8193 23.4795H43.8694C44.3879 23.4795 44.8083 23.901 44.8083 24.4208V28.2487L49.29 23.7554C49.4664 23.5787 49.7048 23.4795 49.9542 23.4795H64.1296C66.153 23.4795 67.7994 21.8294 67.7994 19.8008V5.56175C67.7994 3.53311 66.153 1.88257 64.1296 1.88257H41.8193ZM43.8694 31.4629C43.7478 31.4629 43.6262 31.4392 43.5098 31.391C43.1594 31.2454 42.9301 30.9024 42.9301 30.5212V25.3625H41.8193C38.7603 25.3625 36.2714 22.8672 36.2714 19.8008V5.56175C36.2714 2.49489 38.7603 0 41.8193 0H64.1296C67.1886 0 69.6776 2.49489 69.6776 5.56175V19.8008C69.6776 22.8672 67.1886 25.3625 64.1296 25.3625H50.3427L44.5331 31.187C44.3537 31.3669 44.1131 31.4629 43.8694 31.4629Z" fill="#00FFF8"/>
<path fill-rule="evenodd" clip-rule="evenodd" d="M35.9545 39.7816H24.4508C23.9324 39.7816 23.512 39.36 23.512 38.8403C23.512 38.3201 23.9324 37.8985 24.4508 37.8985H35.0156V34.0922C35.0156 31.1367 32.0406 28.7326 28.3831 28.7326H27.4639C26.945 28.7326 26.5246 28.3111 26.5246 27.7909C26.5246 27.2711 26.945 26.8496 27.4639 26.8496H28.3831C33.0757 26.8496 36.8933 30.0989 36.8933 34.0922V38.8403C36.8933 39.36 36.4733 39.7816 35.9545 39.7816Z" fill="white"/>
<path fill-rule="evenodd" clip-rule="evenodd" d="M20.2865 28.7769C19.8096 28.7769 19.4015 28.4142 19.3533 27.9277C19.3026 27.4106 19.6793 26.9496 20.1955 26.8987C20.5215 26.8667 20.854 26.8496 21.1843 26.8496H21.9096C22.4285 26.8496 22.8485 27.2711 22.8485 27.7913C22.8485 28.3111 22.4285 28.7326 21.9096 28.7326H21.1843C20.9152 28.7326 20.6448 28.7462 20.3801 28.7721C20.3491 28.7752 20.3176 28.7769 20.2865 28.7769Z" fill="white"/>
<path fill-rule="evenodd" clip-rule="evenodd" d="M18.6018 39.7811H13.613C13.0941 39.7811 12.6737 39.3595 12.6737 38.8398V34.0917C12.6737 30.4164 15.9073 27.3241 20.1952 26.8978C20.711 26.8491 21.1713 27.2241 21.222 27.7417C21.2732 28.2589 20.8965 28.7198 20.3803 28.7712C17.0575 29.1015 14.5519 31.3889 14.5519 34.0917V37.8981H18.6018C19.1207 37.8981 19.5407 38.3196 19.5407 38.8398C19.5407 39.3595 19.1207 39.7811 18.6018 39.7811Z" fill="white"/>
<mask id="mask0" mask-type="alpha" maskUnits="userSpaceOnUse" x="0" y="60" width="23" height="15">
<path fill-rule="evenodd" clip-rule="evenodd" d="M0 60.5723H22.7263V74.4516H0V60.5723Z" fill="white"/>
</mask>
<g mask="url(#mask0)">
<path fill-rule="evenodd" clip-rule="evenodd" d="M21.7874 74.4516H0.93919C0.420315 74.4516 -0.00012207 74.0301 -0.00012207 73.5104V68.3556C-0.00012207 64.4067 3.47932 61.0833 8.09319 60.6253C8.4445 60.5902 8.80325 60.5723 9.15938 60.5723C9.67782 60.5723 10.0983 60.9938 10.0983 61.514C10.0983 62.0338 9.67782 62.4553 9.15938 62.4553C8.86494 62.4553 8.56832 62.4702 8.27869 62.4987C4.6295 62.861 1.87807 65.3787 1.87807 68.3556V72.5686H21.7874C22.3063 72.5686 22.7263 72.9901 22.7263 73.5104C22.7263 74.0301 22.3063 74.4516 21.7874 74.4516Z" fill="white"/>
</g>
<path fill-rule="evenodd" clip-rule="evenodd" d="M23.1576 64.8007C22.9257 64.8007 22.693 64.7152 22.5114 64.5423C21.1162 63.2168 19.0985 62.4563 16.9753 62.4563H15.9769C15.458 62.4563 15.0376 62.0347 15.0376 61.515C15.0376 60.9948 15.458 60.5732 15.9769 60.5732H16.9753C19.574 60.5732 22.0625 61.522 23.8038 63.176C24.18 63.5335 24.1958 64.1296 23.8392 64.5068C23.6546 64.702 23.4061 64.8007 23.1576 64.8007Z" fill="white"/>
<path fill-rule="evenodd" clip-rule="evenodd" d="M15.9769 62.4563H9.15933C8.64046 62.4563 8.22046 62.0347 8.22046 61.515C8.22046 60.9948 8.64046 60.5732 9.15933 60.5732H15.9769C16.4958 60.5732 16.9158 60.9948 16.9158 61.515C16.9158 62.0347 16.4958 62.4563 15.9769 62.4563Z" fill="white"/>
<path fill-rule="evenodd" clip-rule="evenodd" d="M32.7608 74.4526H22.1725C21.6536 74.4526 21.2332 74.0311 21.2332 73.5113V68.3566C21.2332 64.4081 24.7126 61.0842 29.3265 60.6263C29.6782 60.5912 30.037 60.5732 30.3931 60.5732C30.9115 60.5732 31.332 60.9948 31.332 61.515C31.332 62.0347 30.9115 62.4563 30.3931 62.4563C30.0987 62.4563 29.802 62.4712 29.5115 62.4997C25.8628 62.862 23.1113 65.3797 23.1113 68.3566V72.5696H32.7608C33.2797 72.5696 33.6997 72.9911 33.6997 73.5113C33.6997 74.0311 33.2797 74.4526 32.7608 74.4526Z" fill="white"/>
<path fill-rule="evenodd" clip-rule="evenodd" d="M46.4292 74.4526H40.0496C39.5307 74.4526 39.1103 74.0311 39.1103 73.5113C39.1103 72.9911 39.5307 72.5696 40.0496 72.5696H45.4904V68.3566C45.4904 65.1033 42.224 62.4563 38.209 62.4563H37.2107C36.6918 62.4563 36.2714 62.0347 36.2714 61.515C36.2714 60.9948 36.6918 60.5732 37.2107 60.5732H38.209C43.2595 60.5732 47.3681 64.0647 47.3681 68.3566V73.5113C47.3681 74.0311 46.9481 74.4526 46.4292 74.4526Z" fill="white"/>
<path fill-rule="evenodd" clip-rule="evenodd" d="M37.2105 62.4563H30.393C29.8741 62.4563 29.4541 62.0347 29.4541 61.515C29.4541 60.9948 29.8741 60.5732 30.393 60.5732H37.2105C37.7294 60.5732 38.1494 60.9948 38.1494 61.515C38.1494 62.0347 37.7294 62.4563 37.2105 62.4563Z" fill="white"/>
<path fill-rule="evenodd" clip-rule="evenodd" d="M45.3343 64.9073C45.0919 64.9073 44.85 64.8139 44.6662 64.627C44.3022 64.2577 44.3053 63.6612 44.6745 63.2958C46.1839 61.8009 48.2747 60.8531 50.5607 60.6259C50.9115 60.5912 51.2703 60.5732 51.6268 60.5732C52.1453 60.5732 52.5657 60.9948 52.5657 61.515C52.5657 62.0347 52.1453 62.4563 51.6268 62.4563C51.332 62.4563 51.0353 62.4707 50.7457 62.4997C48.8863 62.6843 47.1989 63.4427 45.994 64.6358C45.8112 64.8169 45.5727 64.9073 45.3343 64.9073Z" fill="white"/>
<path fill-rule="evenodd" clip-rule="evenodd" d="M67.663 74.4526H46.6695C46.1507 74.4526 45.7302 74.0311 45.7302 73.5113C45.7302 72.9911 46.1507 72.5696 46.6695 72.5696H66.7241V68.3566C66.7241 65.1033 63.4577 62.4563 59.4423 62.4563H58.444C57.9251 62.4563 57.5047 62.0347 57.5047 61.515C57.5047 60.9948 57.9251 60.5732 58.444 60.5732H59.4423C64.4928 60.5732 68.6019 64.0647 68.6019 68.3566V73.5113C68.6019 74.0311 68.1819 74.4526 67.663 74.4526Z" fill="white"/>
<path fill-rule="evenodd" clip-rule="evenodd" d="M58.4438 62.4563H51.6267C51.1078 62.4563 50.6874 62.0347 50.6874 61.515C50.6874 60.9948 51.1078 60.5732 51.6267 60.5732H58.4438C58.9627 60.5732 59.3827 60.9948 59.3827 61.515C59.3827 62.0347 58.9627 62.4563 58.4438 62.4563Z" fill="white"/>
<path fill-rule="evenodd" clip-rule="evenodd" d="M23.983 14.6087C21.7837 14.6087 19.9943 16.4027 19.9943 18.6077V23.2005C19.9943 25.4055 21.7837 27.1994 23.983 27.1994H25.5843C27.784 27.1994 29.573 25.4055 29.573 23.2005V18.6077C29.573 16.4027 27.784 14.6087 25.5843 14.6087H23.983ZM25.5843 29.0123H23.983C20.7867 29.0123 18.1862 26.4051 18.1862 23.2005V18.6077C18.1862 15.4035 20.7867 12.7959 23.983 12.7959H25.5843C28.7807 12.7959 31.3812 15.4035 31.3812 18.6077V23.2005C31.3812 26.4051 28.7807 29.0123 25.5843 29.0123Z" fill="white"/>
<path fill-rule="evenodd" clip-rule="evenodd" d="M6.19892 54.5767H1.72855C1.21011 54.5767 0.789673 54.1551 0.789673 53.6354V38.8397C0.789673 38.5897 0.888985 38.3498 1.06617 38.1735C1.24205 37.9971 1.48005 37.8984 1.72855 37.8984H1.73161L39.1068 38.0199H53.3549C53.8737 38.0199 54.2942 38.4415 54.2942 38.9612C54.2942 39.4814 53.8737 39.9029 53.3549 39.9029H39.1037L2.66786 39.7841V52.6937H6.19892C6.7178 52.6937 7.1378 53.1152 7.1378 53.6354C7.1378 54.1551 6.7178 54.5767 6.19892 54.5767Z" fill="white"/>
<path fill-rule="evenodd" clip-rule="evenodd" d="M49.311 54.5764H40.7583C40.2399 54.5764 39.8195 54.1549 39.8195 53.6351C39.8195 53.1149 40.2399 52.6934 40.7583 52.6934H49.311C49.8299 52.6934 50.2499 53.1149 50.2499 53.6351C50.2499 54.1549 49.8299 54.5764 49.311 54.5764Z" fill="white"/>
<path fill-rule="evenodd" clip-rule="evenodd" d="M27.5356 54.5764H18.9829C18.4645 54.5764 18.0441 54.1549 18.0441 53.6351C18.0441 53.1149 18.4645 52.6934 18.9829 52.6934H27.5356C28.0545 52.6934 28.4745 53.1149 28.4745 53.6351C28.4745 54.1549 28.0545 54.5764 27.5356 54.5764Z" fill="white"/>
<path fill-rule="evenodd" clip-rule="evenodd" d="M67.6629 54.5772H62.5249C62.0061 54.5772 61.5856 54.1557 61.5856 53.636C61.5856 53.1157 62.0061 52.6942 62.5249 52.6942H66.7241V39.9035H60.3243C59.8054 39.9035 59.385 39.482 59.385 38.9618C59.385 38.442 59.8054 38.0205 60.3243 38.0205H67.6629C68.1818 38.0205 68.6018 38.442 68.6018 38.9618V53.636C68.6018 54.1557 68.1818 54.5772 67.6629 54.5772Z" fill="white"/>
<path fill-rule="evenodd" clip-rule="evenodd" d="M61.5781 10.199H42.9879C42.469 10.199 42.0486 9.77746 42.0486 9.25769C42.0486 8.73792 42.469 8.31641 42.9879 8.31641H61.5781C62.097 8.31641 62.517 8.73792 62.517 9.25769C62.517 9.77746 62.097 10.199 61.5781 10.199Z" fill="#00FFF8"/>
<path fill-rule="evenodd" clip-rule="evenodd" d="M52.9371 16.3674H42.9879C42.469 16.3674 42.0486 15.9459 42.0486 15.4261C42.0486 14.9059 42.469 14.4844 42.9879 14.4844H52.9371C53.456 14.4844 53.876 14.9059 53.876 15.4261C53.876 15.9459 53.456 16.3674 52.9371 16.3674Z" fill="#00FFF8"/>
<path fill-rule="evenodd" clip-rule="evenodd" d="M11.7677 47.3402C9.56839 47.3402 7.77901 49.1341 7.77901 51.3391V55.9319C7.77901 58.1369 9.56839 59.9309 11.7677 59.9309H13.369C15.5687 59.9309 17.3576 58.1369 17.3576 55.9319V51.3391C17.3576 49.1341 15.5687 47.3402 13.369 47.3402H11.7677ZM13.369 61.7437H11.7677C8.57133 61.7437 5.97083 59.1365 5.97083 55.9319V51.3391C5.97083 48.135 8.57133 45.5273 11.7677 45.5273H13.369C16.5653 45.5273 19.1658 48.135 19.1658 51.3391V55.9319C19.1658 59.1365 16.5653 61.7437 13.369 61.7437Z" fill="white"/>
<path fill-rule="evenodd" clip-rule="evenodd" d="M33.3465 47.3402C31.1468 47.3402 29.3574 49.1341 29.3574 51.3391V55.9319C29.3574 58.1369 31.1468 59.9309 33.3465 59.9309H34.9473C37.1475 59.9309 38.9364 58.1369 38.9364 55.9319V51.3391C38.9364 49.1341 37.1475 47.3402 34.9473 47.3402H33.3465ZM34.9473 61.7437H33.3465C30.1497 61.7437 27.5492 59.1365 27.5492 55.9319V51.3391C27.5492 48.135 30.1497 45.5273 33.3465 45.5273H34.9473C38.1441 45.5273 40.7446 48.135 40.7446 51.3391V55.9319C40.7446 59.1365 38.1441 61.7437 34.9473 61.7437Z" fill="white"/>
<path fill-rule="evenodd" clip-rule="evenodd" d="M54.925 47.3402C52.7257 47.3402 50.9364 49.1341 50.9364 51.3391V55.9319C50.9364 58.1369 52.7257 59.9309 54.925 59.9309H56.5263C58.726 59.9309 60.515 58.1369 60.515 55.9319V51.3391C60.515 49.1341 58.726 47.3402 56.5263 47.3402H54.925ZM56.5263 61.7437H54.925C51.7287 61.7437 49.1282 59.1365 49.1282 55.9319V51.3391C49.1282 48.135 51.7287 45.5273 54.925 45.5273H56.5263C59.7227 45.5273 62.3232 48.135 62.3232 51.3391V55.9319C62.3232 59.1365 59.7227 61.7437 56.5263 61.7437Z" fill="white"/>
</svg>
