<svg width="31" height="29" viewBox="0 0 31 29" fill="none" xmlns="http://www.w3.org/2000/svg">
<path fill-rule="evenodd" clip-rule="evenodd" d="M19.8996 4.8895H28.9153V2.05284H19.8996V4.8895ZM2.02067 4.8895H18.9824V2.05284H2.02067V4.8895ZM29.3737 1.10742H1.5619C1.30936 1.10742 1.10394 1.31885 1.10394 1.58013V27.4254C1.10394 27.6866 1.30936 27.8985 1.5619 27.8985H29.3737C29.6267 27.8985 29.8321 27.6866 29.8321 27.4254V22.3822C29.8321 22.1213 29.6267 21.9099 29.3737 21.9099C29.1204 21.9099 28.9153 22.1213 28.9153 22.3822V26.9527H2.02067V5.83491H28.9153V19.0649C28.9153 19.3262 29.1204 19.538 29.3737 19.538C29.6267 19.538 29.8321 19.3262 29.8321 19.0649V1.58013C29.8321 1.31885 29.6267 1.10742 29.3737 1.10742Z" fill="white"/>
<path d="M19.8996 4.8895H19.6421V5.147H19.8996V4.8895ZM28.9153 4.8895V5.147H29.1728V4.8895H28.9153ZM28.9153 2.05284H29.1728V1.79534H28.9153V2.05284ZM19.8996 2.05284V1.79534H19.6421V2.05284H19.8996ZM2.02067 4.8895H1.76317V5.147H2.02067V4.8895ZM18.9824 4.8895V5.147H19.2399V4.8895H18.9824ZM18.9824 2.05284H19.2399V1.79534H18.9824V2.05284ZM2.02067 2.05284V1.79534H1.76317V2.05284H2.02067ZM28.9153 26.9527V27.2102H29.1728V26.9527H28.9153ZM2.02067 26.9527H1.76317V27.2102H2.02067V26.9527ZM2.02067 5.83491V5.57741H1.76317V5.83491H2.02067ZM28.9153 5.83491H29.1728V5.57741H28.9153V5.83491ZM19.8996 5.147H28.9153V4.632H19.8996V5.147ZM29.1728 4.8895V2.05284H28.6578V4.8895H29.1728ZM28.9153 1.79534H19.8996V2.31034H28.9153V1.79534ZM19.6421 2.05284V4.8895H20.1571V2.05284H19.6421ZM2.02067 5.147H18.9824V4.632H2.02067V5.147ZM19.2399 4.8895V2.05284H18.7249V4.8895H19.2399ZM18.9824 1.79534H2.02067V2.31034H18.9824V1.79534ZM1.76317 2.05284V4.8895H2.27817V2.05284H1.76317ZM29.3737 0.849922H1.5619V1.36492H29.3737V0.849922ZM1.5619 0.849922C1.15972 0.849922 0.846443 1.18418 0.846443 1.58013H1.36144C1.36144 1.45353 1.459 1.36492 1.5619 1.36492V0.849922ZM0.846443 1.58013V27.4254H1.36144V1.58013H0.846443ZM0.846443 27.4254C0.846443 27.821 1.15943 28.156 1.5619 28.156V27.641C1.45929 27.641 1.36144 27.5523 1.36144 27.4254H0.846443ZM1.5619 28.156H29.3737V27.641H1.5619V28.156ZM29.3737 28.156C29.7764 28.156 30.0896 27.8212 30.0896 27.4254H29.5746C29.5746 27.5521 29.4769 27.641 29.3737 27.641V28.156ZM30.0896 27.4254V22.3822H29.5746V27.4254H30.0896ZM30.0896 22.3822C30.0896 21.9863 29.776 21.6524 29.3737 21.6524V22.1674C29.4773 22.1674 29.5746 22.2563 29.5746 22.3822H30.0896ZM29.3737 21.6524C28.9709 21.6524 28.6578 21.9865 28.6578 22.3822H29.1728C29.1728 22.2561 29.2699 22.1674 29.3737 22.1674V21.6524ZM28.6578 22.3822V26.9527H29.1728V22.3822H28.6578ZM28.9153 26.6952H2.02067V27.2102H28.9153V26.6952ZM2.27817 26.9527V5.83491H1.76317V26.9527H2.27817ZM2.02067 6.09241H28.9153V5.57741H2.02067V6.09241ZM28.6578 5.83491V19.0649H29.1728V5.83491H28.6578ZM28.6578 19.0649C28.6578 19.4606 28.9704 19.7955 29.3737 19.7955V19.2805C29.2703 19.2805 29.1728 19.1918 29.1728 19.0649H28.6578ZM29.3737 19.7955C29.7764 19.7955 30.0896 19.4607 30.0896 19.0649H29.5746C29.5746 19.1917 29.4769 19.2805 29.3737 19.2805V19.7955ZM30.0896 19.0649V1.58013H29.5746V19.0649H30.0896ZM30.0896 1.58013C30.0896 1.18403 29.7761 0.849922 29.3737 0.849922V1.36492C29.4772 1.36492 29.5746 1.45368 29.5746 1.58013H30.0896Z" fill="white"/>
<path fill-rule="evenodd" clip-rule="evenodd" d="M24.4224 2.9668C24.153 2.9668 23.9335 3.19277 23.9335 3.47107C23.9335 3.74897 24.153 3.97535 24.4224 3.97535C24.6923 3.97535 24.9114 3.74897 24.9114 3.47107C24.9114 3.19277 24.6923 2.9668 24.4224 2.9668Z" fill="white"/>
<path fill-rule="evenodd" clip-rule="evenodd" d="M24.4224 2.9668C24.153 2.9668 23.9335 3.19277 23.9335 3.47107C23.9335 3.74897 24.153 3.97535 24.4224 3.97535C24.6923 3.97535 24.9114 3.74897 24.9114 3.47107C24.9114 3.19277 24.6923 2.9668 24.4224 2.9668Z" stroke="white" stroke-width="0.515"/>
<path fill-rule="evenodd" clip-rule="evenodd" d="M21.9165 2.9668C21.6466 2.9668 21.4275 3.19277 21.4275 3.47107C21.4275 3.74897 21.6466 3.97535 21.9165 3.97535C22.1859 3.97535 22.4054 3.74897 22.4054 3.47107C22.4054 3.19277 22.1859 2.9668 21.9165 2.9668Z" fill="white"/>
<path fill-rule="evenodd" clip-rule="evenodd" d="M21.9165 2.9668C21.6466 2.9668 21.4275 3.19277 21.4275 3.47107C21.4275 3.74897 21.6466 3.97535 21.9165 3.97535C22.1859 3.97535 22.4054 3.74897 22.4054 3.47107C22.4054 3.19277 22.1859 2.9668 21.9165 2.9668Z" stroke="white" stroke-width="0.515"/>
<path fill-rule="evenodd" clip-rule="evenodd" d="M26.9288 2.9668C26.659 2.9668 26.4395 3.19277 26.4395 3.47107C26.4395 3.74897 26.659 3.97535 26.9288 3.97535C27.1983 3.97535 27.4178 3.74897 27.4178 3.47107C27.4178 3.19277 27.1983 2.9668 26.9288 2.9668Z" fill="white"/>
<path fill-rule="evenodd" clip-rule="evenodd" d="M26.9288 2.9668C26.659 2.9668 26.4395 3.19277 26.4395 3.47107C26.4395 3.74897 26.659 3.97535 26.9288 3.97535C27.1983 3.97535 27.4178 3.74897 27.4178 3.47107C27.4178 3.19277 27.1983 2.9668 26.9288 2.9668Z" stroke="white" stroke-width="0.515"/>
<path fill-rule="evenodd" clip-rule="evenodd" d="M6.32313 16.9853H7.85127V15.4093H6.32313V16.9853ZM8.76799 14.9366C8.76799 14.6757 8.56258 14.4639 8.30923 14.4639H5.86437C5.61142 14.4639 5.40601 14.6757 5.40601 14.9366V17.458C5.40601 17.7192 5.61142 17.9311 5.86437 17.9311H8.30923C8.56258 17.9311 8.76799 17.7192 8.76799 17.458V14.9366Z" fill="white"/>
<path d="M6.32313 16.9853H6.06563V17.2428H6.32313V16.9853ZM7.85127 16.9853V17.2428H8.10877V16.9853H7.85127ZM7.85127 15.4093H8.10877V15.1518H7.85127V15.4093ZM6.32313 15.4093V15.1518H6.06563V15.4093H6.32313ZM6.32313 17.2428H7.85127V16.7278H6.32313V17.2428ZM8.10877 16.9853V15.4093H7.59377V16.9853H8.10877ZM7.85127 15.1518H6.32313V15.6668H7.85127V15.1518ZM6.06563 15.4093V16.9853H6.58063V15.4093H6.06563ZM9.02549 14.9366C9.02549 14.5409 8.71207 14.2064 8.30923 14.2064V14.7214C8.41308 14.7214 8.51049 14.8105 8.51049 14.9366H9.02549ZM8.30923 14.2064H5.86437V14.7214H8.30923V14.2064ZM5.86437 14.2064C5.46179 14.2064 5.14851 14.541 5.14851 14.9366H5.66351C5.66351 14.8104 5.76106 14.7214 5.86437 14.7214V14.2064ZM5.14851 14.9366V17.458H5.66351V14.9366H5.14851ZM5.14851 17.458C5.14851 17.8538 5.46164 18.1886 5.86437 18.1886V17.6736C5.7612 17.6736 5.66351 17.5847 5.66351 17.458H5.14851ZM5.86437 18.1886H8.30923V17.6736H5.86437V18.1886ZM8.30923 18.1886C8.71221 18.1886 9.02549 17.8539 9.02549 17.458H8.51049C8.51049 17.5846 8.41294 17.6736 8.30923 17.6736V18.1886ZM9.02549 17.458V14.9366H8.51049V17.458H9.02549Z" fill="white"/>
<path fill-rule="evenodd" clip-rule="evenodd" d="M6.32313 22.1112H7.85127V20.5353H6.32313V22.1112ZM8.30923 19.5898H5.86437C5.61142 19.5898 5.40601 19.8013 5.40601 20.0621V22.5839C5.40601 22.8452 5.61142 23.0566 5.86437 23.0566H8.30923C8.56258 23.0566 8.76799 22.8452 8.76799 22.5839V20.0621C8.76799 19.8013 8.56258 19.5898 8.30923 19.5898Z" fill="white"/>
<path d="M6.32313 22.1112H6.06563V22.3687H6.32313V22.1112ZM7.85127 22.1112V22.3687H8.10877V22.1112H7.85127ZM7.85127 20.5353H8.10877V20.2778H7.85127V20.5353ZM6.32313 20.5353V20.2778H6.06563V20.5353H6.32313ZM6.32313 22.3687H7.85127V21.8537H6.32313V22.3687ZM8.10877 22.1112V20.5353H7.59377V22.1112H8.10877ZM7.85127 20.2778H6.32313V20.7928H7.85127V20.2778ZM6.06563 20.5353V22.1112H6.58063V20.5353H6.06563ZM8.30923 19.3323H5.86437V19.8473H8.30923V19.3323ZM5.86437 19.3323C5.46208 19.3323 5.14851 19.6663 5.14851 20.0621H5.66351C5.66351 19.9362 5.76077 19.8473 5.86437 19.8473V19.3323ZM5.14851 20.0621V22.5839H5.66351V20.0621H5.14851ZM5.14851 22.5839C5.14851 22.98 5.46193 23.3141 5.86437 23.3141V22.7991C5.76091 22.7991 5.66351 22.7104 5.66351 22.5839H5.14851ZM5.86437 23.3141H8.30923V22.7991H5.86437V23.3141ZM8.30923 23.3141C8.71192 23.3141 9.02549 22.9802 9.02549 22.5839H8.51049C8.51049 22.7102 8.41323 22.7991 8.30923 22.7991V23.3141ZM9.02549 22.5839V20.0621H8.51049V22.5839H9.02549ZM9.02549 20.0621C9.02549 19.6662 8.71178 19.3323 8.30923 19.3323V19.8473C8.41337 19.8473 8.51049 19.9364 8.51049 20.0621H9.02549Z" fill="white"/>
<path fill-rule="evenodd" clip-rule="evenodd" d="M24.2101 15.7246H22.3762C22.1233 15.7246 21.9183 15.9365 21.9183 16.1973C21.9183 16.4586 22.1233 16.67 22.3762 16.67H24.2101C24.4634 16.67 24.6688 16.4586 24.6688 16.1973C24.6688 15.9365 24.4634 15.7246 24.2101 15.7246Z" fill="white"/>
<path fill-rule="evenodd" clip-rule="evenodd" d="M24.2101 15.7246H22.3762C22.1233 15.7246 21.9183 15.9365 21.9183 16.1973C21.9183 16.4586 22.1233 16.67 22.3762 16.67H24.2101C24.4634 16.67 24.6688 16.4586 24.6688 16.1973C24.6688 15.9365 24.4634 15.7246 24.2101 15.7246Z" stroke="white" stroke-width="0.515"/>
<path fill-rule="evenodd" clip-rule="evenodd" d="M19.8511 15.7246H10.8345C10.5815 15.7246 10.3765 15.9365 10.3765 16.1973C10.3765 16.4586 10.5815 16.67 10.8345 16.67H19.8511C20.1044 16.67 20.3098 16.4586 20.3098 16.1973C20.3098 15.9365 20.1044 15.7246 19.8511 15.7246Z" fill="white"/>
<path fill-rule="evenodd" clip-rule="evenodd" d="M19.8511 15.7246H10.8345C10.5815 15.7246 10.3765 15.9365 10.3765 16.1973C10.3765 16.4586 10.5815 16.67 10.8345 16.67H19.8511C20.1044 16.67 20.3098 16.4586 20.3098 16.1973C20.3098 15.9365 20.1044 15.7246 19.8511 15.7246Z" stroke="white" stroke-width="0.515"/>
<path fill-rule="evenodd" clip-rule="evenodd" d="M6.32313 11.8759H7.85127V10.2999H6.32313V11.8759ZM8.76799 9.82762C8.76799 9.56634 8.56258 9.35449 8.30923 9.35449H5.86437C5.61142 9.35449 5.40601 9.56634 5.40601 9.82762V12.349C5.40601 12.6103 5.61142 12.8217 5.86437 12.8217H8.30923C8.56258 12.8217 8.76799 12.6103 8.76799 12.349V9.82762Z" fill="white"/>
<path d="M6.32313 11.8759H6.06563V12.1334H6.32313V11.8759ZM7.85127 11.8759V12.1334H8.10877V11.8759H7.85127ZM7.85127 10.2999H8.10877V10.0424H7.85127V10.2999ZM6.32313 10.2999V10.0424H6.06563V10.2999H6.32313ZM6.32313 12.1334H7.85127V11.6184H6.32313V12.1334ZM8.10877 11.8759V10.2999H7.59377V11.8759H8.10877ZM7.85127 10.0424H6.32313V10.5574H7.85127V10.0424ZM6.06563 10.2999V11.8759H6.58063V10.2999H6.06563ZM9.02549 9.82762C9.02549 9.43166 8.71221 9.09699 8.30923 9.09699V9.61199C8.41294 9.61199 8.51049 9.70101 8.51049 9.82762H9.02549ZM8.30923 9.09699H5.86437V9.61199H8.30923V9.09699ZM5.86437 9.09699C5.46164 9.09699 5.14851 9.43181 5.14851 9.82762H5.66351C5.66351 9.70086 5.7612 9.61199 5.86437 9.61199V9.09699ZM5.14851 9.82762V12.349H5.66351V9.82762H5.14851ZM5.14851 12.349C5.14851 12.7451 5.46193 13.0792 5.86437 13.0792V12.5642C5.76091 12.5642 5.66351 12.4755 5.66351 12.349H5.14851ZM5.86437 13.0792H8.30923V12.5642H5.86437V13.0792ZM8.30923 13.0792C8.71192 13.0792 9.02549 12.7453 9.02549 12.349H8.51049C8.51049 12.4753 8.41323 12.5642 8.30923 12.5642V13.0792ZM9.02549 12.349V9.82762H8.51049V12.349H9.02549Z" fill="white"/>
<path fill-rule="evenodd" clip-rule="evenodd" d="M24.2101 10.6152H22.3762C22.1233 10.6152 21.9183 10.8271 21.9183 11.0884C21.9183 11.3496 22.1233 11.5606 22.3762 11.5606H24.2101C24.4634 11.5606 24.6688 11.3496 24.6688 11.0884C24.6688 10.8271 24.4634 10.6152 24.2101 10.6152Z" fill="white"/>
<path fill-rule="evenodd" clip-rule="evenodd" d="M24.2101 10.6152H22.3762C22.1233 10.6152 21.9183 10.8271 21.9183 11.0884C21.9183 11.3496 22.1233 11.5606 22.3762 11.5606H24.2101C24.4634 11.5606 24.6688 11.3496 24.6688 11.0884C24.6688 10.8271 24.4634 10.6152 24.2101 10.6152Z" stroke="white" stroke-width="0.515"/>
<path fill-rule="evenodd" clip-rule="evenodd" d="M19.8511 10.6152H10.8345C10.5815 10.6152 10.3765 10.8271 10.3765 11.0884C10.3765 11.3496 10.5815 11.5606 10.8345 11.5606H19.8511C20.1044 11.5606 20.3098 11.3496 20.3098 11.0884C20.3098 10.8271 20.1044 10.6152 19.8511 10.6152Z" fill="white"/>
<path fill-rule="evenodd" clip-rule="evenodd" d="M19.8511 10.6152H10.8345C10.5815 10.6152 10.3765 10.8271 10.3765 11.0884C10.3765 11.3496 10.5815 11.5606 10.8345 11.5606H19.8511C20.1044 11.5606 20.3098 11.3496 20.3098 11.0884C20.3098 10.8271 20.1044 10.6152 19.8511 10.6152Z" stroke="white" stroke-width="0.515"/>
<path fill-rule="evenodd" clip-rule="evenodd" d="M24.2101 20.8506H22.3762C22.1233 20.8506 21.9183 21.0624 21.9183 21.3233C21.9183 21.5846 22.1233 21.796 22.3762 21.796H24.2101C24.4634 21.796 24.6688 21.5846 24.6688 21.3233C24.6688 21.0624 24.4634 20.8506 24.2101 20.8506Z" fill="white"/>
<path fill-rule="evenodd" clip-rule="evenodd" d="M24.2101 20.8506H22.3762C22.1233 20.8506 21.9183 21.0624 21.9183 21.3233C21.9183 21.5846 22.1233 21.796 22.3762 21.796H24.2101C24.4634 21.796 24.6688 21.5846 24.6688 21.3233C24.6688 21.0624 24.4634 20.8506 24.2101 20.8506Z" stroke="white" stroke-width="0.515"/>
<path fill-rule="evenodd" clip-rule="evenodd" d="M19.8511 20.8506H10.8345C10.5815 20.8506 10.3765 21.0624 10.3765 21.3233C10.3765 21.5846 10.5815 21.796 10.8345 21.796H19.8511C20.1044 21.796 20.3098 21.5846 20.3098 21.3233C20.3098 21.0624 20.1044 20.8506 19.8511 20.8506Z" fill="white"/>
<path fill-rule="evenodd" clip-rule="evenodd" d="M19.8511 20.8506H10.8345C10.5815 20.8506 10.3765 21.0624 10.3765 21.3233C10.3765 21.5846 10.5815 21.796 10.8345 21.796H19.8511C20.1044 21.796 20.3098 21.5846 20.3098 21.3233C20.3098 21.0624 20.1044 20.8506 19.8511 20.8506Z" stroke="white" stroke-width="0.515"/>
</svg>
