<svg width="28" height="32" viewBox="0 0 28 32" fill="none" xmlns="http://www.w3.org/2000/svg">
<mask id="mask0" mask-type="alpha" maskUnits="userSpaceOnUse" x="0" y="0" width="28" height="31">
<path fill-rule="evenodd" clip-rule="evenodd" d="M6.10352e-05 0.474609H27.6071V30.9594H6.10352e-05V0.474609Z" fill="white"/>
</mask>
<g mask="url(#mask0)">
<path fill-rule="evenodd" clip-rule="evenodd" d="M23.7991 2.50694L25.575 4.28326H23.7991V2.50694ZM20.4671 23.2187V27.9825C20.4671 28.9676 19.6665 29.7683 18.6827 29.7683H2.97471C1.99091 29.7683 1.18982 28.9676 1.18982 27.9825V23.2187C1.18982 22.2337 1.99091 21.4324 2.97471 21.4324H18.6827C19.6665 21.4324 20.4671 22.2337 20.4671 23.2187ZM27.4325 4.45757L23.6249 0.648917C23.5129 0.537778 23.362 0.474609 23.2045 0.474609H5.59294C5.26406 0.474609 4.99782 0.741058 4.99782 1.0702V20.2417H2.97471C1.33457 20.2417 6.10352e-05 21.5768 6.10352e-05 23.2187V27.9825C6.10352e-05 29.6239 1.33457 30.9595 2.97471 30.9595H18.6827H27.0125C27.3409 30.9595 27.6071 30.6931 27.6071 30.3639V15.9567C27.6071 15.628 27.3409 15.3611 27.0125 15.3611C26.6836 15.3611 26.4173 15.628 26.4173 15.9567V29.7683H21.0603C21.4352 29.271 21.6573 28.6522 21.6573 27.9825V23.2187C21.6573 21.5768 20.3228 20.2417 18.6827 20.2417H6.18806V1.66579H22.6093V4.87885C22.6093 5.208 22.8761 5.47397 23.2045 5.47397H26.4173V13.0443C26.4173 13.3729 26.6836 13.6394 27.0125 13.6394C27.3409 13.6394 27.6071 13.3729 27.6071 13.0443V4.87885C27.6071 4.72069 27.5445 4.56918 27.4325 4.45757Z" fill="white"/>
</g>
<path fill-rule="evenodd" clip-rule="evenodd" d="M16.1836 26.1966H16.4214C16.7493 26.1966 17.0165 26.4635 17.0165 26.7917C17.0165 27.1199 16.7493 27.3873 16.4214 27.3873H15.5591C15.2302 27.3873 14.9639 27.6538 14.9639 27.9829C14.9639 28.3116 15.2302 28.5785 15.5591 28.5785H16.4214C17.4056 28.5785 18.2067 27.7768 18.2067 26.7917C18.2067 25.8072 17.4056 25.0054 16.4214 25.0054H16.1836C15.8557 25.0054 15.5885 24.7385 15.5885 24.4098C15.5885 24.0817 15.8557 23.8143 16.1836 23.8143H16.8675C17.1964 23.8143 17.4626 23.5483 17.4626 23.2191C17.4626 22.8905 17.1964 22.624 16.8675 22.624H16.1836C15.1993 22.624 14.3983 23.4253 14.3983 24.4098C14.3983 25.3954 15.1993 26.1966 16.1836 26.1966Z" fill="white"/>
<path fill-rule="evenodd" clip-rule="evenodd" d="M4.51063 22.8477C4.30514 22.5908 3.93069 22.549 3.67395 22.7546C3.41768 22.9598 3.37591 23.3345 3.58141 23.5915L5.18785 25.6015L3.58141 27.611C3.37591 27.868 3.41768 28.2422 3.67395 28.4484C3.78405 28.5362 3.91503 28.5785 4.04554 28.5785C4.22019 28.5785 4.39293 28.502 4.51063 28.3553L5.94954 26.5547L7.38893 28.3553C7.50663 28.502 7.67985 28.5785 7.85402 28.5785C7.98405 28.5785 8.11598 28.5362 8.22513 28.4484C8.48188 28.2427 8.52364 27.868 8.31815 27.611L6.71171 25.6015L8.31815 23.5915C8.52364 23.3345 8.48188 22.9598 8.22513 22.7546C7.96886 22.549 7.59442 22.5908 7.38893 22.8477L5.94954 24.6483L4.51063 22.8477Z" fill="white"/>
<path fill-rule="evenodd" clip-rule="evenodd" d="M10.2338 28.5785H12.6138C12.9422 28.5785 13.2089 28.3116 13.2089 27.9829C13.2089 27.6543 12.9422 27.3873 12.6138 27.3873H10.8289V23.2196C10.8289 22.8905 10.5622 22.624 10.2338 22.624C9.90538 22.624 9.63867 22.8905 9.63867 23.2196V27.9829C9.63867 28.3116 9.90538 28.5785 10.2338 28.5785Z" fill="white"/>
<mask id="mask1" mask-type="alpha" maskUnits="userSpaceOnUse" x="0" y="0" width="28" height="31">
<path fill-rule="evenodd" clip-rule="evenodd" d="M0 30.9595H27.607V0.474609H0V30.9595Z" fill="white"/>
</mask>
<g mask="url(#mask1)">
<path fill-rule="evenodd" clip-rule="evenodd" d="M14.5173 17.499H22.847V15.1974H14.5173V17.499ZM9.75774 17.499H13.327V15.1974H9.75774V17.499ZM9.75822 10.5143H13.3275V8.21317H9.75822V10.5143ZM14.5173 10.5143H22.847V8.21317H14.5173V10.5143ZM14.5173 14.0067H22.847V11.7055H14.5173V14.0067ZM9.75774 14.0067H13.327V11.7055H9.75774V14.0067ZM9.16262 7.02246C8.83422 7.02246 8.5675 7.28891 8.5675 7.61805V18.0941C8.5675 18.4232 8.83422 18.6897 9.16262 18.6897H13.859C13.8799 18.6921 13.9013 18.6935 13.9226 18.6935C13.944 18.6935 13.9653 18.6921 13.9862 18.6897H23.4421C23.7706 18.6897 24.0373 18.4232 24.0373 18.0941V7.61805C24.0373 7.28891 23.7706 7.02246 23.4421 7.02246H9.16262Z" fill="white"/>
</g>
</svg>
