<svg width="31" height="28" viewBox="0 0 31 28" fill="none" xmlns="http://www.w3.org/2000/svg">
<path fill-rule="evenodd" clip-rule="evenodd" d="M19.8995 4.74454H28.9153V2.01294H19.8995V4.74454ZM2.0206 4.74454H18.9824V2.01294H2.0206V4.74454ZM29.3732 1.10254H1.56224C1.3089 1.10254 1.10388 1.30614 1.10388 1.55774V26.4457C1.10388 26.6973 1.3089 26.9013 1.56224 26.9013H29.3732C29.6266 26.9013 29.832 26.6973 29.832 26.4457V21.5893C29.832 21.3381 29.6266 21.1345 29.3732 21.1345C29.1207 21.1345 28.9153 21.3381 28.9153 21.5893V25.9905H2.0206V5.65494H28.9153V18.3949C28.9153 18.6465 29.1207 18.8505 29.3732 18.8505C29.6266 18.8505 29.832 18.6465 29.832 18.3949V1.55774C29.832 1.30614 29.6266 1.10254 29.3732 1.10254Z" fill="white"/>
<path d="M19.8995 4.74454H19.642V5.00204H19.8995V4.74454ZM28.9153 4.74454V5.00204H29.1728V4.74454H28.9153ZM28.9153 2.01294H29.1728V1.75544H28.9153V2.01294ZM19.8995 2.01294V1.75544H19.642V2.01294H19.8995ZM2.0206 4.74454H1.7631V5.00204H2.0206V4.74454ZM18.9824 4.74454V5.00204H19.2399V4.74454H18.9824ZM18.9824 2.01294H19.2399V1.75544H18.9824V2.01294ZM2.0206 2.01294V1.75544H1.7631V2.01294H2.0206ZM28.9153 25.9905V26.248H29.1728V25.9905H28.9153ZM2.0206 25.9905H1.7631V26.248H2.0206V25.9905ZM2.0206 5.65494V5.39744H1.7631V5.65494H2.0206ZM28.9153 5.65494H29.1728V5.39744H28.9153V5.65494ZM19.8995 5.00204H28.9153V4.48704H19.8995V5.00204ZM29.1728 4.74454V2.01294H28.6578V4.74454H29.1728ZM28.9153 1.75544H19.8995V2.27044H28.9153V1.75544ZM19.642 2.01294V4.74454H20.157V2.01294H19.642ZM2.0206 5.00204H18.9824V4.48704H2.0206V5.00204ZM19.2399 4.74454V2.01294H18.7249V4.74454H19.2399ZM18.9824 1.75544H2.0206V2.27044H18.9824V1.75544ZM1.7631 2.01294V4.74454H2.2781V2.01294H1.7631ZM29.3732 0.845039H1.56224V1.36004H29.3732V0.845039ZM1.56224 0.845039C1.16837 0.845039 0.846382 1.16225 0.846382 1.55774H1.36138C1.36138 1.45003 1.44943 1.36004 1.56224 1.36004V0.845039ZM0.846382 1.55774V26.4457H1.36138V1.55774H0.846382ZM0.846382 26.4457C0.846382 26.8409 1.16807 27.1588 1.56224 27.1588V26.6438C1.44972 26.6438 1.36138 26.5537 1.36138 26.4457H0.846382ZM1.56224 27.1588H29.3732V26.6438H1.56224V27.1588ZM29.3732 27.1588C29.7671 27.1588 30.0895 26.8412 30.0895 26.4457H29.5745C29.5745 26.5534 29.4861 26.6438 29.3732 26.6438V27.1588ZM30.0895 26.4457V21.5893H29.5745V26.4457H30.0895ZM30.0895 21.5893C30.0895 21.1938 29.7667 20.877 29.3732 20.877V21.392C29.4865 21.392 29.5745 21.4825 29.5745 21.5893H30.0895ZM29.3732 20.877C28.9803 20.877 28.6578 21.1941 28.6578 21.5893H29.1728C29.1728 21.4822 29.2611 21.392 29.3732 21.392V20.877ZM28.6578 21.5893V25.9905H29.1728V21.5893H28.6578ZM28.9153 25.733H2.0206V26.248H28.9153V25.733ZM2.2781 25.9905V5.65494H1.7631V25.9905H2.2781ZM2.0206 5.91244H28.9153V5.39744H2.0206V5.91244ZM28.6578 5.65494V18.3949H29.1728V5.65494H28.6578ZM28.6578 18.3949C28.6578 18.7901 28.9799 19.108 29.3732 19.108V18.593C29.2615 18.593 29.1728 18.5029 29.1728 18.3949H28.6578ZM29.3732 19.108C29.7671 19.108 30.0895 18.7904 30.0895 18.3949H29.5745C29.5745 18.5026 29.4861 18.593 29.3732 18.593V19.108ZM30.0895 18.3949V1.55774H29.5745V18.3949H30.0895ZM30.0895 1.55774C30.0895 1.16196 29.7668 0.845039 29.3732 0.845039V1.36004C29.4864 1.36004 29.5745 1.45032 29.5745 1.55774H30.0895Z" fill="white"/>
<path fill-rule="evenodd" clip-rule="evenodd" d="M24.4226 2.89355C24.1531 2.89355 23.9336 3.11115 23.9336 3.37915C23.9336 3.64675 24.1531 3.86475 24.4226 3.86475C24.6924 3.86475 24.9115 3.64675 24.9115 3.37915C24.9115 3.11115 24.6924 2.89355 24.4226 2.89355Z" fill="white"/>
<path fill-rule="evenodd" clip-rule="evenodd" d="M24.4226 2.89355C24.1531 2.89355 23.9336 3.11115 23.9336 3.37915C23.9336 3.64675 24.1531 3.86475 24.4226 3.86475C24.6924 3.86475 24.9115 3.64675 24.9115 3.37915C24.9115 3.11115 24.6924 2.89355 24.4226 2.89355Z" stroke="white" stroke-width="0.515"/>
<path fill-rule="evenodd" clip-rule="evenodd" d="M21.9166 2.89355C21.6467 2.89355 21.4276 3.11115 21.4276 3.37915C21.4276 3.64675 21.6467 3.86475 21.9166 3.86475C22.186 3.86475 22.4056 3.64675 22.4056 3.37915C22.4056 3.11115 22.186 2.89355 21.9166 2.89355Z" fill="white"/>
<path fill-rule="evenodd" clip-rule="evenodd" d="M21.9166 2.89355C21.6467 2.89355 21.4276 3.11115 21.4276 3.37915C21.4276 3.64675 21.6467 3.86475 21.9166 3.86475C22.186 3.86475 22.4056 3.64675 22.4056 3.37915C22.4056 3.11115 22.186 2.89355 21.9166 2.89355Z" stroke="white" stroke-width="0.515"/>
<path fill-rule="evenodd" clip-rule="evenodd" d="M26.9285 2.89355C26.6591 2.89355 26.4396 3.11115 26.4396 3.37915C26.4396 3.64675 26.6591 3.86475 26.9285 3.86475C27.1984 3.86475 27.4179 3.64675 27.4179 3.37915C27.4179 3.11115 27.1984 2.89355 26.9285 2.89355Z" fill="white"/>
<path fill-rule="evenodd" clip-rule="evenodd" d="M26.9285 2.89355C26.6591 2.89355 26.4396 3.11115 26.4396 3.37915C26.4396 3.64675 26.6591 3.86475 26.9285 3.86475C27.1984 3.86475 27.4179 3.64675 27.4179 3.37915C27.4179 3.11115 27.1984 2.89355 26.9285 2.89355Z" stroke="white" stroke-width="0.515"/>
<path fill-rule="evenodd" clip-rule="evenodd" d="M19.9688 13.8229V16.5145V20.6293C19.0062 19.1425 17.5127 18.0829 15.6305 17.5565C14.5889 17.2649 13.6883 17.2069 13.2215 17.1989V16.1657V13.1385C13.6887 13.1313 14.5889 13.0729 15.6305 12.7813C17.5127 12.2549 19.0062 11.1957 19.9688 9.70852V13.8229ZM12.5791 15.8469H10.5825C10.4053 15.8469 10.2615 15.9897 10.2615 16.1657C10.2615 16.3421 10.4053 16.4845 10.5825 16.4845H12.5791V17.2005H12.1098C12.1042 17.2001 12.0981 17.1997 12.0921 17.1997H9.91751C9.91469 17.1997 9.91147 17.2001 9.90825 17.2001C8.7845 17.1957 7.8718 16.2861 7.8718 15.1689C7.8718 14.0485 8.78973 13.1373 9.91751 13.1373H12.5791V15.8469ZM12.5384 20.6913L12.6399 21.1057C12.6717 21.2353 12.6423 21.3701 12.5593 21.4749C12.476 21.5801 12.3515 21.6401 12.2174 21.6401H11.5995C11.3981 21.6401 11.2241 21.5041 11.1766 21.3101L10.3267 17.8385H11.84L12.0667 18.7649L12.2234 19.4033L12.5384 20.6913ZM20.6117 13.5157V9.39692C20.6117 9.14492 20.4469 8.93132 20.2016 8.86532C19.9563 8.79972 19.7058 8.90212 19.5781 9.12012C18.7021 10.6173 17.3222 11.6405 15.4771 12.1617C14.0814 12.5553 12.9295 12.4981 12.9186 12.4977C12.9017 12.4969 12.8848 12.4977 12.8683 12.4989H9.91751C8.43529 12.4989 7.22937 13.6969 7.22937 15.1689C7.22937 16.5553 8.29915 17.6981 9.66215 17.8265L10.5523 21.4609C10.6703 21.9421 11.1005 22.2781 11.5995 22.2781H12.2174C12.5501 22.2781 12.859 22.1293 13.0644 21.8689C13.2698 21.6093 13.3431 21.2761 13.2642 20.9549L12.5013 17.8385H12.8679C12.8844 17.8405 12.9013 17.8413 12.9182 17.8401C12.9295 17.8397 14.0814 17.7821 15.4771 18.1765C17.3222 18.6977 18.7021 19.7205 19.5781 21.2173C19.68 21.3917 19.8601 21.4921 20.0534 21.4921C20.1026 21.4921 20.1521 21.4853 20.2016 21.4725C20.4469 21.4069 20.6117 21.1933 20.6117 20.9409V16.8221V13.5157Z" fill="white"/>
<path d="M19.9688 20.6293L19.6436 20.8399L20.3563 21.9408V20.6293H19.9688ZM15.6305 17.5565L15.526 17.9297L15.5261 17.9297L15.6305 17.5565ZM13.2215 17.1989H12.834V17.5798L13.2149 17.5864L13.2215 17.1989ZM13.2215 13.1385L13.2155 12.7511L12.834 12.7569V13.1385H13.2215ZM15.6305 12.7813L15.5261 12.4081L15.526 12.4082L15.6305 12.7813ZM19.9688 9.70852H20.3563V8.39674L19.6435 9.49796L19.9688 9.70852ZM12.5791 15.8469V16.2344H12.9666V15.8469H12.5791ZM12.5791 16.4845H12.9666V16.097H12.5791V16.4845ZM12.5791 17.2005V17.588H12.9666V17.2005H12.5791ZM12.1098 17.2005L12.0824 17.5871L12.0961 17.588H12.1098V17.2005ZM9.90825 17.2001L9.90673 17.5876H9.90825V17.2001ZM12.5791 13.1373H12.9666V12.7498H12.5791V13.1373ZM12.5384 20.6913L12.162 20.7834L12.162 20.7835L12.5384 20.6913ZM12.6399 21.1057L12.2635 21.1979L12.2636 21.1981L12.6399 21.1057ZM12.5593 21.4749L12.863 21.7156L12.8631 21.7155L12.5593 21.4749ZM11.1766 21.3101L10.8002 21.4023L10.8002 21.4023L11.1766 21.3101ZM10.3267 17.8385V17.451H9.83293L9.95035 17.9307L10.3267 17.8385ZM11.84 17.8385L12.2164 17.7464L12.1441 17.451H11.84V17.8385ZM12.0667 18.7649L11.6903 18.8571L11.6904 18.8573L12.0667 18.7649ZM12.2234 19.4033L12.5998 19.3113L12.5997 19.311L12.2234 19.4033ZM20.2016 8.86532L20.3023 8.49113L20.3017 8.49098L20.2016 8.86532ZM19.5781 9.12012L19.2438 8.92429L19.2437 8.92443L19.5781 9.12012ZM15.4771 12.1617L15.5822 12.5347L15.5824 12.5346L15.4771 12.1617ZM12.9186 12.4977L12.9003 12.8848L12.9044 12.885L12.9186 12.4977ZM12.8683 12.4989V12.8864H12.8823L12.8963 12.8854L12.8683 12.4989ZM9.66215 17.8265L10.0385 17.7343L9.97294 17.4666L9.69849 17.4407L9.66215 17.8265ZM10.5523 21.4609L10.1759 21.5531L10.1759 21.5532L10.5523 21.4609ZM13.0644 21.8689L12.7605 21.6285L12.7602 21.6289L13.0644 21.8689ZM13.2642 20.9549L12.8878 21.0471L12.8879 21.0474L13.2642 20.9549ZM12.5013 17.8385V17.451H12.0075L12.1249 17.9307L12.5013 17.8385ZM12.8679 17.8385L12.9144 17.4538L12.8912 17.451H12.8679V17.8385ZM12.9182 17.8401L12.9045 17.4526L12.8908 17.4536L12.9182 17.8401ZM15.4771 18.1765L15.3717 18.5494L15.3717 18.5494L15.4771 18.1765ZM19.5781 21.2173L19.9127 21.0218L19.9126 21.0216L19.5781 21.2173ZM20.2016 21.4725L20.2986 21.8477L20.3017 21.8469L20.2016 21.4725ZM19.5813 13.8229V16.5145H20.3563V13.8229H19.5813ZM19.5813 16.5145V20.6293H20.3563V16.5145H19.5813ZM20.2941 20.4187C19.2748 18.8445 17.6983 17.7325 15.7349 17.1833L15.5261 17.9297C17.3271 18.4334 18.7375 19.4406 19.6436 20.8399L20.2941 20.4187ZM15.735 17.1834C14.6522 16.8802 13.7167 16.8199 13.2281 16.8115L13.2149 17.5864C13.6599 17.594 14.5256 17.6496 15.526 17.9297L15.735 17.1834ZM13.609 17.1989V16.1657H12.834V17.1989H13.609ZM13.609 16.1657V13.1385H12.834V16.1657H13.609ZM13.2275 13.526C13.7172 13.5184 14.6524 13.4576 15.735 13.1545L15.526 12.4082C14.5255 12.6883 13.6602 12.7442 13.2155 12.7511L13.2275 13.526ZM15.7349 13.1545C17.6982 12.6054 19.2748 11.4938 20.2941 9.91908L19.6435 9.49796C18.7375 10.8976 17.3272 11.9044 15.5261 12.4081L15.7349 13.1545ZM19.5813 9.70852V13.8229H20.3563V9.70852H19.5813ZM12.5791 15.4594H10.5825V16.2344H12.5791V15.4594ZM10.5825 15.4594C10.1938 15.4594 9.87398 15.7732 9.87398 16.1657H10.649C10.649 16.2063 10.6168 16.2344 10.5825 16.2344V15.4594ZM9.87398 16.1657C9.87398 16.559 10.1941 16.872 10.5825 16.872V16.097C10.6164 16.097 10.649 16.1253 10.649 16.1657H9.87398ZM10.5825 16.872H12.5791V16.097H10.5825V16.872ZM12.1916 16.4845V17.2005H12.9666V16.4845H12.1916ZM12.5791 16.813H12.1098V17.588H12.5791V16.813ZM12.1372 16.814C12.1319 16.8136 12.1134 16.8122 12.0921 16.8122V17.5872C12.0868 17.5872 12.083 17.5871 12.0816 17.587C12.0803 17.5869 12.0799 17.5869 12.0824 17.5871L12.1372 16.814ZM12.0921 16.8122H9.91751V17.5872H12.0921V16.8122ZM9.91751 16.8122C9.90801 16.8122 9.90031 16.8126 9.89594 16.8128C9.89364 16.8129 9.89173 16.813 9.89052 16.8131C9.88943 16.8131 9.88833 16.8132 9.88825 16.8132C9.88733 16.8133 9.88958 16.8131 9.89249 16.813C9.89565 16.8128 9.90121 16.8126 9.90825 16.8126V17.5876C9.9169 17.5876 9.92407 17.5874 9.92882 17.5871C9.93333 17.5869 9.93717 17.5867 9.93781 17.5866C9.93952 17.5865 9.93725 17.5867 9.93471 17.5868C9.93184 17.5869 9.9256 17.5872 9.91751 17.5872V16.8122ZM9.90976 16.8126C8.99696 16.8091 8.2593 16.0702 8.2593 15.1689H7.4843C7.4843 16.502 8.57203 17.5824 9.90673 17.5876L9.90976 16.8126ZM8.2593 15.1689C8.2593 14.2651 9.00116 13.5248 9.91751 13.5248V12.7498C8.5783 12.7498 7.4843 13.8319 7.4843 15.1689H8.2593ZM9.91751 13.5248H12.5791V12.7498H9.91751V13.5248ZM12.1916 13.1373V15.8469H12.9666V13.1373H12.1916ZM12.162 20.7835L12.2635 21.1979L13.0163 21.0135L12.9148 20.5991L12.162 20.7835ZM12.2636 21.1981C12.2654 21.2055 12.2652 21.2118 12.2641 21.217C12.2629 21.2223 12.2604 21.2282 12.2555 21.2344L12.8631 21.7155C13.0203 21.517 13.0766 21.2593 13.0162 21.0133L12.2636 21.1981ZM12.2556 21.2342C12.2459 21.2465 12.2334 21.2526 12.2174 21.2526V22.0276C12.4695 22.0276 12.706 21.9138 12.863 21.7156L12.2556 21.2342ZM12.2174 21.2526H11.5995V22.0276H12.2174V21.2526ZM11.5995 21.2526C11.575 21.2526 11.5576 21.237 11.553 21.2179L10.8002 21.4023C10.8906 21.7712 11.2212 22.0276 11.5995 22.0276V21.2526ZM11.553 21.218L10.7031 17.7464L9.95035 17.9307L10.8002 21.4023L11.553 21.218ZM10.3267 18.226H11.84V17.451H10.3267V18.226ZM11.4636 17.9307L11.6903 18.8571L12.4431 18.6728L12.2164 17.7464L11.4636 17.9307ZM11.6904 18.8573L11.8471 19.4957L12.5997 19.311L12.4431 18.6726L11.6904 18.8573ZM11.847 19.4954L12.162 20.7834L12.9148 20.5993L12.5998 19.3113L11.847 19.4954ZM20.9992 13.5157V9.39692H20.2242V13.5157H20.9992ZM20.9992 9.39692C20.9992 8.96773 20.7149 8.60215 20.3023 8.49113L20.101 9.23951C20.1789 9.26049 20.2242 9.32211 20.2242 9.39692H20.9992ZM20.3017 8.49098C19.8891 8.38063 19.4602 8.55474 19.2438 8.92429L19.9125 9.31596C19.9514 9.2495 20.0236 9.21882 20.1015 9.23967L20.3017 8.49098ZM19.2437 8.92443C18.4238 10.3257 17.1315 11.2917 15.3717 11.7888L15.5824 12.5346C17.5128 11.9893 18.9804 10.909 19.9126 9.31582L19.2437 8.92443ZM15.3719 11.7888C14.7047 11.9769 14.0943 12.0576 13.6495 12.0911C13.4275 12.1077 13.2479 12.1126 13.1245 12.1132C13.002 12.1139 12.935 12.1106 12.9328 12.1105L12.9044 12.885C12.9023 12.8849 12.9266 12.886 12.9653 12.8869C13.0041 12.8879 13.0592 12.8886 13.1288 12.8882C13.2681 12.8875 13.4658 12.8821 13.7076 12.8639C14.1904 12.8276 14.8538 12.7401 15.5822 12.5347L15.3719 11.7888ZM12.9369 12.1107C12.897 12.1088 12.8621 12.1109 12.8402 12.1124L12.8963 12.8854C12.9015 12.885 12.9039 12.8849 12.9048 12.8849C12.9056 12.8849 12.9039 12.885 12.9003 12.8848L12.9369 12.1107ZM12.8683 12.1114H9.91751V12.8864H12.8683V12.1114ZM9.91751 12.1114C8.22373 12.1114 6.84187 13.4805 6.84187 15.1689H7.61687C7.61687 13.9134 8.64684 12.8864 9.91751 12.8864V12.1114ZM6.84187 15.1689C6.84187 16.7596 8.06808 18.0656 9.6258 18.2123L9.69849 17.4407C8.53021 17.3307 7.61687 16.3511 7.61687 15.1689H6.84187ZM9.28577 17.9187L10.1759 21.5531L10.9287 21.3687L10.0385 17.7343L9.28577 17.9187ZM10.1759 21.5532C10.3368 22.2093 10.9236 22.6656 11.5995 22.6656V21.8906C11.2774 21.8906 11.0038 21.675 10.9286 21.3686L10.1759 21.5532ZM11.5995 22.6656H12.2174V21.8906H11.5995V22.6656ZM12.2174 22.6656C12.6677 22.6656 13.0891 22.4632 13.3686 22.1089L12.7602 21.6289C12.6289 21.7954 12.4324 21.8906 12.2174 21.8906V22.6656ZM13.3683 22.1094C13.6475 21.7565 13.7482 21.3006 13.6405 20.8624L12.8879 21.0474C12.9381 21.2516 12.8922 21.4621 12.7605 21.6285L13.3683 22.1094ZM13.6406 20.8628L12.8777 17.7464L12.1249 17.9307L12.8878 21.0471L13.6406 20.8628ZM12.5013 18.226H12.8679V17.451H12.5013V18.226ZM12.8213 18.2232C12.8565 18.2275 12.8988 18.23 12.9456 18.2267L12.8908 17.4536C12.9038 17.4527 12.9123 17.4536 12.9144 17.4538L12.8213 18.2232ZM12.9319 18.2274C12.935 18.2273 13.0019 18.2239 13.1244 18.2245C13.2479 18.2252 13.4275 18.23 13.6495 18.2467C14.0942 18.2801 14.7045 18.3609 15.3717 18.5494L15.5824 17.8036C14.8539 17.5978 14.1905 17.5101 13.7075 17.4739C13.4656 17.4557 13.2679 17.4503 13.1286 17.4496C13.0589 17.4492 13.0037 17.45 12.9649 17.4509C12.9267 17.4518 12.9012 17.453 12.9045 17.4529L12.9319 18.2274ZM15.3717 18.5494C17.1316 19.0466 18.4238 20.0122 19.2437 21.4131L19.9126 21.0216C18.9804 19.4288 17.5127 18.3489 15.5824 17.8036L15.3717 18.5494ZM19.2436 21.4128C19.4152 21.7066 19.723 21.8796 20.0534 21.8796V21.1046C19.9972 21.1046 19.9448 21.0768 19.9127 21.0218L19.2436 21.4128ZM20.0534 21.8796C20.1384 21.8796 20.2206 21.8678 20.2986 21.8477L20.1047 21.0973C20.0836 21.1028 20.0667 21.1046 20.0534 21.1046V21.8796ZM20.3017 21.8469C20.7151 21.7363 20.9992 21.3702 20.9992 20.9409H20.2242C20.2242 21.0164 20.1787 21.0775 20.1015 21.0982L20.3017 21.8469ZM20.9992 20.9409V16.8221H20.2242V20.9409H20.9992ZM20.9992 16.8221V13.5157H20.2242V16.8221H20.9992Z" fill="white"/>
<path fill-rule="evenodd" clip-rule="evenodd" d="M21.607 13.3082C21.6843 13.3082 21.7621 13.281 21.8233 13.225L22.7501 12.387C22.881 12.2682 22.8907 12.0666 22.7714 11.9362C22.6518 11.8058 22.4484 11.7966 22.3175 11.9154L21.3907 12.753C21.2598 12.8718 21.2502 13.0738 21.3694 13.2038C21.433 13.273 21.52 13.3082 21.607 13.3082Z" fill="white"/>
<path fill-rule="evenodd" clip-rule="evenodd" d="M21.607 13.3082C21.6843 13.3082 21.7621 13.281 21.8233 13.225L22.7501 12.387C22.881 12.2682 22.8907 12.0666 22.7714 11.9362C22.6518 11.8058 22.4484 11.7966 22.3175 11.9154L21.3907 12.753C21.2598 12.8718 21.2502 13.0738 21.3694 13.2038C21.433 13.273 21.52 13.3082 21.607 13.3082Z" stroke="white" stroke-width="0.775"/>
<path fill-rule="evenodd" clip-rule="evenodd" d="M21.8234 17.1135C21.6925 16.9947 21.4891 17.0043 21.3695 17.1347C21.2503 17.2647 21.2599 17.4667 21.3908 17.5851L22.3176 18.4231C22.3793 18.4787 22.4562 18.5063 22.5339 18.5063C22.6205 18.5063 22.7079 18.4715 22.7716 18.4023C22.8904 18.2719 22.8811 18.0703 22.7502 17.9515L21.8234 17.1135Z" fill="white"/>
<path fill-rule="evenodd" clip-rule="evenodd" d="M21.8234 17.1135C21.6925 16.9947 21.4891 17.0043 21.3695 17.1347C21.2503 17.2647 21.2599 17.4667 21.3908 17.5851L22.3176 18.4231C22.3793 18.4787 22.4562 18.5063 22.5339 18.5063C22.6205 18.5063 22.7079 18.4715 22.7716 18.4023C22.8904 18.2719 22.8811 18.0703 22.7502 17.9515L21.8234 17.1135Z" stroke="white" stroke-width="0.775"/>
<path fill-rule="evenodd" clip-rule="evenodd" d="M23.6123 14.8506H22.12C21.9423 14.8506 21.799 14.9934 21.799 15.1698C21.799 15.3458 21.9423 15.489 22.12 15.489H23.6123C23.7895 15.489 23.9337 15.3458 23.9337 15.1698C23.9337 14.9934 23.7895 14.8506 23.6123 14.8506Z" fill="white"/>
<path fill-rule="evenodd" clip-rule="evenodd" d="M23.6123 14.8506H22.12C21.9423 14.8506 21.799 14.9934 21.799 15.1698C21.799 15.3458 21.9423 15.489 22.12 15.489H23.6123C23.7895 15.489 23.9337 15.3458 23.9337 15.1698C23.9337 14.9934 23.7895 14.8506 23.6123 14.8506Z" stroke="white" stroke-width="0.775"/>
</svg>
